<svg version="1.2" xmlns="http://www.w3.org/2000/svg" viewBox="0 0 612 355" width="612" height="355">
	<title>JAPlGS9HBo8J-svg</title>
	<style>
		.s0 { fill: #ffffff } 
		.s1 { fill: #1a1a1a } 
	</style>
	<path id="Layer" fill-rule="evenodd" class="s0" d="m28.7 158.2q-1.3-8.7-1.9-17.4c-0.7-11.7-0.5-23.5 0.9-35.1 0.3-2.9 0.8-5.8 1.2-8.7 0.5-2.8 1-5.7 1.7-8.6 0.6-2.8 1.3-5.6 2-8.4l0.7-2.1 0.2-0.8 0.1-0.3 0.3-1 0.6-2.1 0.3-0.8 0.4-1.2 0.4-1 0.4-1.1 0.7-2 0.8-2q0.2-0.5 0.4-1l0.5-1c1.1-2.7 2.4-5.2 3.7-7.8l1-1.8q0.6-1 1.1-1.9 0.3-0.5 0.6-0.9l0.5-0.9 0.6-0.9q0.3-0.5 0.6-0.9l1.2-1.8q0.6-0.8 1.3-1.7 0.3-0.4 0.6-0.8l0.3-0.3 0.4-0.5c0.4-0.6 0.8-1.1 1.3-1.6q0.4-0.4 0.7-0.8 0.4-0.4 0.7-0.8l1.5-1.5q0.3-0.4 0.7-0.8l0.8-0.7q0.3-0.3 0.7-0.7l0.9-0.7 1.6-1.4c0.5-0.5 1.1-0.9 1.6-1.3l0.9-0.7q0.4-0.4 0.8-0.7l1.8-1.2q0.4-0.3 0.8-0.7l0.9-0.6 1.8-1.1 1.8-1.2 0.9-0.5 1-0.6q0.9-0.5 1.8-1l1.9-1c0.6-0.4 1.3-0.7 1.9-1 0.7-0.3 1.3-0.6 2-0.9 5.2-2.4 10.6-4.3 16.3-5.8l0.5-0.2h0.3q0.1-0.1 0.2-0.1l0.9-0.2 0.3-0.1h0.2l0.5-0.1 1-0.2 2.2-0.3 2.1-0.3q4.4-0.5 8.8-0.9c6-0.6 11.9-1 17.8-1.4q9-0.6 17.9-1.1 0.3 0 0.6 0 0.9-0.1 1.8-0.1 6.9-0.4 13.9-0.8 1.6 0 3.1-0.1 6.7-0.3 13.4-0.6 1.4-0.1 2.9-0.1 0.1 0 0.1 0 6.9-0.3 13.8-0.6 1.1 0 2.1 0 27.9-1 55.7-1.6 35.8-0.7 71.7-0.7c23.9 0 47.8 0.3 71.6 1q17.9 0.6 35.8 1.6c6 0.4 11.9 0.7 17.8 1.2 3 0.2 6 0.5 9 0.8l6.6 0.6 2.2 0.2q8.9 0.9 17.7 2.2c5.9 0.9 11.7 2 17.4 3.4l1 0.3 0.5 0.1 0.6 0.2 2 0.6 0.6 0.2q0.2 0.1 0.5 0.1l1 0.4c0.7 0.2 1.3 0.5 2 0.7 2.9 1.1 5.7 2.1 8.5 3.1 2.7 1 5.3 2.2 7.8 3.6 2.5 1.3 4.8 3 7.1 4.7l1.7 1.4q0.4 0.3 0.8 0.7l0.8 0.7 0.8 0.8q0.4 0.3 0.8 0.7l1.6 1.5c0.5 0.5 1 1.1 1.5 1.6l0.7 0.8c0.3 0.2 0.6 0.5 0.8 0.8q0.7 0.8 1.4 1.6l1.3 1.6c1.7 2.3 3.3 4.7 4.7 7.3l0.5 0.9 0.5 1 0.5 0.9 0.3 0.5 0.2 0.5 1 2 0.9 2c2.3 5.3 4.2 10.9 5.7 16.5l0.3 1.1 0.3 1.1 0.5 2.1c0.4 1.5 0.7 2.9 1 4.3 0.7 2.9 1.2 5.8 1.7 8.7q1.5 8.7 2.2 17.6 0.8 8.8 0.9 17.7c0.2 11.8-0.4 23.7-2 35.4-0.3 2.9-0.8 5.9-1.3 8.8-0.5 2.9-1 5.8-1.6 8.7-0.6 2.9-1.3 5.7-2.1 8.6-0.7 2.8-1.5 5.7-2.5 8.4q-0.4 1.3-0.8 2.6-0.7 2.1-1.5 4.2-1.9 4.9-4.1 9.6-1.9 3.9-4.1 7.7-2.2 3.7-4.8 7.2c-0.9 1.1-1.7 2.2-2.7 3.3l-0.7 0.8q-0.4 0.4-0.7 0.8l-0.7 0.8-0.4 0.4q-0.2 0.2-0.4 0.4c-1 1-2 2.1-3.1 3.1q-0.8 0.7-1.6 1.5l-1.6 1.4c-2.2 1.9-4.5 3.8-6.8 5.4q-3.6 2.6-7.3 4.6-3 1.7-6.1 3-0.8 0.3-1.7 0.7-0.9 0.3-1.9 0.7c0 0-0.1 0-0.1 0l-1 0.4q-0.3 0-0.5 0.1l-0.5 0.1-0.4 0.2q-0.3 0-0.5 0.1l-1 0.2q-1.1 0.2-2.1 0.4c-2.9 0.5-5.8 0.9-8.8 1.3q-4.4 0.6-8.8 1.1c-11.8 1.2-23.7 2.2-35.6 3.1q-17.9 1.3-35.8 2.3-18 1-36 1.7-1.1 0.1-2.3 0.1-6.9 0.3-13.8 0.5-1.7 0.1-3.4 0.1-5.7 0.2-11.5 0.4-2.3 0.1-4.6 0.1h-0.5l-1.7 0.1-0.9 2q-3.7 8.2-8.1 16-1 1.6-2 3.3 0 0 0 0.1c-3.8 6.1-7.9 12.1-12.3 17.7-4.5 5.7-9.4 11-14.6 16-5.2 4.9-10.8 9.5-16.8 13.3q-2.2 1.5-4.5 2.8l-0.3 0.2h-0.1l-0.1 0.1q-0.2 0.1-0.4 0.2c-0.1 0-0.2 0.1-0.3 0.1q-0.2 0.1-0.4 0.1-0.7 0.2-1.3 0.1-0.7-0.1-1.4-0.4-0.7-0.4-1.2-0.9c-0.7-0.7-1.1-1.6-1.2-2.5q0-0.7 0.2-1.3 0-0.2 0.1-0.4 0-0.2 0.1-0.3c0-0.1 0.1-0.2 0.1-0.3l0.2-0.4 0.3-0.6q1.2-2.6 2.2-5.4 1-2.6 1.9-5.4 0 0 0-0.1 0.6-1.8 1-3.7 0.3-1 0.5-2 0.3-1.4 0.6-2.8c0.1-1 0.3-2 0.4-2.9q0.2-1.5 0.3-3 0.1-0.7 0.2-1.4v-0.8-0.7c0.2-3.9 0-7.9-0.5-11.8l-0.2-1.5-0.2-0.7-0.1-0.7-0.1-0.7-0.2-0.8-0.3-1.4-0.2-0.8q-0.1-0.3-0.2-0.7l-0.4-1.4q-0.2-0.7-0.4-1.4-0.1-0.3-0.2-0.6-0.1-0.4-0.3-0.8-1.1-3.5-2.7-6.7-0.9-2.1-2-4.1l-1.2-2.2h-0.3-2.2q-2.1 0-4.2 0-5.2 0-10.4-0.1-3.2 0-6.5-0.1-5 0-10-0.1-3.6-0.1-7.1-0.2-4.5-0.1-9-0.3-3.2-0.1-6.4-0.2-1.1 0-2.2-0.1-3.5-0.1-7-0.3-5.7-0.2-11.4-0.5-1.7-0.1-3.4-0.2c-9.8-0.6-19.6-1.3-29.4-2.2q-6.6-0.6-13.3-1.4c-2.2-0.2-4.4-0.5-6.6-0.8l-3.3-0.4-3.3-0.5c-8.7-1.3-17.4-2.8-25.9-4.9l-3.2-0.8q-0.8-0.3-1.6-0.5l-1.5-0.4-0.8-0.3-0.8-0.2-1.5-0.5-0.8-0.2-0.8-0.3-1.6-0.5q-3.1-1.1-6.1-2.2c-2-0.8-4-1.6-6-2.5-7.8-3.6-15.1-8.1-21.7-13.6-4.3-3.7-8.2-7.8-11.7-12.3-1.8-2.2-3.4-4.6-5-7l-1.1-1.8q-0.3-0.5-0.6-0.9l-0.5-1-1.1-1.8-1-1.9-0.6-1-0.4-0.9-1-1.9q-0.5-1-1-2c-0.3-0.7-0.6-1.3-0.9-2l-0.8-1.9-0.3-0.5-0.2-0.5-0.4-1q-0.4-1-0.8-2.1l-0.8-2c-2-5.4-3.8-11-5.2-16.6-0.7-2.8-1.4-5.7-1.9-8.6l-0.5-2.1c-0.1-0.7-0.3-1.4-0.4-2.2-0.2-1.4-0.5-2.8-0.7-4.3zm19.1-65.7c-1.7 8-2.7 16.8-2.9 26.6 0.9-8.6 2.7-16.8 5.2-24.4q1.1-3.1 2.3-6.1c4.2-10.4 10-19.6 17-27.6q0.3-0.3 0.5-0.6c15.5-17.3 37-28.5 61.9-32.1q1.6-0.2 3.2-0.4 5.9-0.7 12.1-0.8 2.4 0 4.8 0 1 0 1.9 0.1-0.9-0.1-1.8-0.2-2.6-0.3-5.1-0.5-5.5-0.5-11-0.5-2.8 0-5.6 0.1-5.6 0.1-11.1 0.8-2.3 0.3-4.6 0.7c-26.3 4.2-49.2 17.8-61.1 46.2q-0.8 2-1.6 4.1-1.9 5.4-3.4 11.5-0.4 1.5-0.7 3.1z"/>
	<path id="Layer" class="s1" d="m577.6 69.8c0-0.1-0.1-0.3-0.2-0.3-0.2 0-0.3 0.2-0.3 0.3 0 0.2 0.1 0.3 0.3 0.3 0.1 0 0.2-0.1 0.2-0.3z"/>
	<path id="Layer" class="s1" d="m576.6 86.5c0 0.4 0.3 0.8 0.8 0.8 0.4 0 0.7-0.4 0.7-0.8 0-0.5-0.3-0.8-0.7-0.8-0.5 0-0.8 0.3-0.8 0.8z"/>
	<path id="Layer" class="s1" d="m594 86.7c0.1 0 0.2-0.1 0.2-0.2 0-0.1-0.1-0.2-0.2-0.2-0.1 0-0.2 0.1-0.2 0.2 0 0.1 0.1 0.2 0.2 0.2z"/>
	<path id="Layer" class="s1" d="m576.2 103.1c0 0.7 0.5 1.2 1.2 1.2 0.6 0 1.2-0.5 1.2-1.2 0-0.6-0.6-1.2-1.2-1.2-0.7 0-1.2 0.6-1.2 1.2z"/>
	<path id="Layer" class="s1" d="m594 103.7c0.3 0 0.5-0.3 0.5-0.6 0-0.2-0.2-0.5-0.5-0.5-0.3 0-0.5 0.3-0.5 0.5 0 0.3 0.3 0.6 0.5 0.6z"/>
	<path id="Layer" class="s1" d="m610.7 103.1c0 0 0 0 0 0q-0.1 0-0.1 0 0 0.1 0.1 0.1 0 0 0-0.1z"/>
	<path id="Layer" class="s1" d="m577.4 121.4c0.8 0 1.5-0.7 1.5-1.6 0-0.8-0.7-1.6-1.5-1.6-0.9 0-1.6 0.8-1.6 1.6 0 0.9 0.7 1.6 1.6 1.6z"/>
	<path id="Layer" class="s1" d="m594 120.6c0.5 0 0.9-0.3 0.9-0.8 0-0.4-0.4-0.8-0.9-0.8-0.4 0-0.8 0.4-0.8 0.8 0 0.5 0.4 0.8 0.8 0.8z"/>
	<path id="Layer" class="s1" d="m610.7 120q0.1-0.1 0.1-0.2 0-0.1-0.1-0.1-0.1 0-0.1 0.1 0 0.1 0.1 0.2z"/>
	<path id="Layer" class="s1" d="m594 137.5c0.6 0 1.1-0.4 1.1-1 0-0.6-0.5-1.1-1.1-1.1-0.6 0-1 0.5-1 1.1 0 0.6 0.4 1 1 1z"/>
	<path id="Layer" class="s1" d="m610.7 136.8c0.2 0 0.3-0.1 0.3-0.3 0-0.2-0.1-0.3-0.3-0.3-0.2 0-0.3 0.1-0.3 0.3 0 0.2 0.1 0.3 0.3 0.3z"/>
	<path id="Layer" class="s1" d="m577.4 151.1c-1.2 0-2.1 0.9-2.1 2 0 1.2 0.9 2.1 2.1 2.1 1.1 0 2-0.9 2-2.1 0-1.1-0.9-2-2-2z"/>
	<path id="Layer" class="s1" d="m594 154.4c0.7 0 1.3-0.6 1.3-1.3 0-0.6-0.6-1.2-1.3-1.2-0.7 0-1.2 0.6-1.2 1.2 0 0.7 0.5 1.3 1.2 1.3z"/>
	<path id="Layer" class="s1" d="m610.7 153.6c0.2 0 0.5-0.2 0.5-0.5 0-0.2-0.3-0.4-0.5-0.4-0.3 0-0.5 0.2-0.5 0.4 0 0.3 0.2 0.5 0.5 0.5z"/>
	<path id="Layer" class="s1" d="m577.4 167.7c-1.2 0-2.2 0.9-2.2 2.1 0 1.2 1 2.1 2.2 2.1 1.1 0 2.1-0.9 2.1-2.1 0-1.2-1-2.1-2.1-2.1z"/>
	<path id="Layer" class="s1" d="m594 171.1c0.7 0 1.3-0.6 1.3-1.3 0-0.7-0.6-1.3-1.3-1.3-0.7 0-1.3 0.6-1.3 1.3 0 0.7 0.6 1.3 1.3 1.3z"/>
	<path id="Layer" class="s1" d="m610.7 170.3c0.3 0 0.5-0.2 0.5-0.5 0-0.3-0.2-0.5-0.5-0.5-0.3 0-0.5 0.2-0.5 0.5 0 0.3 0.2 0.5 0.5 0.5z"/>
	<path id="Layer" class="s1" d="m577.4 184.4c-1.2 0-2.1 0.9-2.1 2.1 0 1.1 0.9 2.1 2.1 2.1 1.1 0 2-1 2-2.1 0-1.2-0.9-2.1-2-2.1z"/>
	<path id="Layer" class="s1" d="m594 185.2c-0.7 0-1.2 0.6-1.2 1.3 0 0.7 0.5 1.2 1.2 1.2 0.7 0 1.3-0.5 1.3-1.2 0-0.7-0.6-1.3-1.3-1.3z"/>
	<path id="Layer" class="s1" d="m611.2 186.5c0-0.3-0.2-0.5-0.5-0.5-0.3 0-0.5 0.2-0.5 0.5 0 0.2 0.2 0.4 0.5 0.4 0.3 0 0.5-0.2 0.5-0.4z"/>
	<path id="Layer" class="s1" d="m577.4 201.2c-1.1 0-1.9 0.9-1.9 1.9 0 1.1 0.8 1.9 1.9 1.9 1 0 1.9-0.8 1.9-1.9 0-1-0.9-1.9-1.9-1.9z"/>
	<path id="Layer" class="s1" d="m594 202c-0.6 0-1.1 0.5-1.1 1.1 0 0.6 0.5 1.1 1.1 1.1 0.6 0 1.1-0.5 1.1-1.1 0-0.6-0.5-1.1-1.1-1.1z"/>
	<path id="Layer" class="s1" d="m611 203.1c0-0.1-0.1-0.3-0.3-0.3-0.2 0-0.3 0.2-0.3 0.3 0 0.2 0.1 0.4 0.3 0.4 0.2 0 0.3-0.2 0.3-0.4z"/>
	<path id="Layer" class="s1" d="m560.7 217.4c-1.3 0-2.4 1.1-2.4 2.4 0 1.3 1.1 2.4 2.4 2.4 1.3 0 2.3-1.1 2.3-2.4 0-1.3-1-2.4-2.3-2.4z"/>
	<path id="Layer" class="s1" d="m577.4 218.2c-0.9 0-1.7 0.7-1.7 1.6 0 0.9 0.8 1.6 1.7 1.6 0.9 0 1.6-0.7 1.6-1.6 0-0.9-0.7-1.6-1.6-1.6z"/>
	<path id="Layer" class="s1" d="m594 218.9c-0.5 0-0.9 0.4-0.9 0.9 0 0.5 0.4 0.9 0.9 0.9 0.5 0 0.9-0.4 0.9-0.9 0-0.5-0.4-0.9-0.9-0.9z"/>
	<path id="Layer" class="s1" d="m610.8 219.8q0-0.1-0.1-0.1-0.1 0-0.1 0.1 0 0.1 0.1 0.1 0.1 0 0.1-0.1z"/>
	<path id="Layer" class="s1" d="m560.7 234.5c-1.1 0-1.9 0.9-1.9 2 0 1 0.8 1.9 1.9 1.9 1.1 0 1.9-0.9 1.9-1.9 0-1.1-0.8-2-1.9-2z"/>
	<path id="Layer" class="s1" d="m578.7 236.5c0-0.7-0.6-1.3-1.3-1.3-0.7 0-1.3 0.6-1.3 1.3 0 0.7 0.6 1.3 1.3 1.3 0.7 0 1.3-0.6 1.3-1.3z"/>
	<path id="Layer" class="s1" d="m594 235.9c-0.3 0-0.5 0.3-0.5 0.6 0 0.3 0.2 0.5 0.5 0.5 0.3 0 0.6-0.2 0.6-0.5 0-0.3-0.3-0.6-0.6-0.6z"/>
	<path id="Layer" class="s1" d="m610.6 236.5c0 0 0.1 0 0.1 0q0 0 0 0 0-0.1 0-0.1-0.1 0-0.1 0.1z"/>
	<path id="Layer" class="s1" d="m544 251.1c-1.1 0-2 0.9-2 2 0 1.2 0.9 2.1 2 2.1 1.2 0 2.1-0.9 2.1-2.1 0-1.1-0.9-2-2.1-2z"/>
	<path id="Layer" class="s1" d="m562.2 253.1c0-0.8-0.7-1.4-1.5-1.4-0.8 0-1.5 0.6-1.5 1.4 0 0.8 0.7 1.5 1.5 1.5 0.8 0 1.5-0.7 1.5-1.5z"/>
	<path id="Layer" class="s1" d="m577.4 254c0.4 0 0.8-0.4 0.8-0.9 0-0.4-0.4-0.8-0.8-0.8-0.5 0-0.9 0.4-0.9 0.8 0 0.5 0.4 0.9 0.9 0.9z"/>
	<path id="Layer" class="s1" d="m594 252.9c-0.1 0-0.2 0.1-0.2 0.2 0 0.1 0.1 0.2 0.2 0.2 0.1 0 0.2-0.1 0.2-0.2 0-0.1-0.1-0.2-0.2-0.2z"/>
	<path id="Layer" class="s1" d="m496.7 269.8c0-1.5-1.2-2.7-2.7-2.7-1.4 0-2.6 1.2-2.6 2.7 0 1.5 1.2 2.7 2.6 2.7 1.5 0 2.7-1.2 2.7-2.7z"/>
	<path id="Layer" class="s1" d="m513.1 269.8c0-1.3-1.1-2.4-2.4-2.4-1.3 0-2.3 1.1-2.3 2.4 0 1.3 1 2.4 2.3 2.4 1.3 0 2.4-1.1 2.4-2.4z"/>
	<path id="Layer" class="s1" d="m529.3 269.8c0-1.1-0.9-1.9-1.9-1.9-1.1 0-2 0.8-2 1.9 0 1.1 0.9 1.9 2 1.9 1 0 1.9-0.8 1.9-1.9z"/>
	<path id="Layer" class="s1" d="m545.5 269.8c0-0.8-0.6-1.5-1.5-1.5-0.8 0-1.4 0.7-1.4 1.5 0 0.8 0.6 1.5 1.4 1.5 0.9 0 1.5-0.7 1.5-1.5z"/>
	<path id="Layer" class="s1" d="m560.7 270.7c0.5 0 0.9-0.4 0.9-0.9 0-0.5-0.4-0.9-0.9-0.9-0.5 0-0.9 0.4-0.9 0.9 0 0.5 0.4 0.9 0.9 0.9z"/>
	<path id="Layer" class="s1" d="m577.7 269.8c0-0.2-0.2-0.3-0.3-0.3-0.2 0-0.4 0.1-0.4 0.3 0 0.2 0.2 0.3 0.4 0.3 0.1 0 0.3-0.1 0.3-0.3z"/>
	<path id="Layer" class="s1" d="m446.1 286.5c0-1.2-0.9-2.1-2.1-2.1-1.1 0-2 0.9-2 2.1 0 1.1 0.9 2 2 2 1.2 0 2.1-0.9 2.1-2z"/>
	<path id="Layer" class="s1" d="m462.8 286.5c0-1.2-0.9-2.2-2.1-2.2-1.2 0-2.1 1-2.1 2.2 0 1.1 0.9 2.1 2.1 2.1 1.2 0 2.1-1 2.1-2.1z"/>
	<path id="Layer" class="s1" d="m479.5 286.5c0-1.2-1-2.1-2.1-2.1-1.2 0-2.1 0.9-2.1 2.1 0 1.1 0.9 2 2.1 2 1.1 0 2.1-0.9 2.1-2z"/>
	<path id="Layer" class="s1" d="m495.9 286.5c0-1.1-0.8-1.9-1.9-1.9-1 0-1.9 0.8-1.9 1.9 0 1 0.9 1.9 1.9 1.9 1.1 0 1.9-0.9 1.9-1.9z"/>
	<path id="Layer" class="s1" d="m512.3 286.5c0-0.9-0.7-1.7-1.6-1.7-0.9 0-1.6 0.8-1.6 1.7 0 0.9 0.7 1.6 1.6 1.6 0.9 0 1.6-0.7 1.6-1.6z"/>
	<path id="Layer" class="s1" d="m528.7 286.5c0-0.8-0.6-1.3-1.3-1.3-0.7 0-1.3 0.5-1.3 1.3 0 0.7 0.6 1.3 1.3 1.3 0.7 0 1.3-0.6 1.3-1.3z"/>
	<path id="Layer" class="s1" d="m544.9 286.5c0-0.5-0.4-0.9-0.9-0.9-0.4 0-0.8 0.4-0.8 0.9 0 0.4 0.4 0.8 0.8 0.8 0.5 0 0.9-0.4 0.9-0.8z"/>
	<path id="Layer" class="s1" d="m560.4 286.5c0 0.1 0.1 0.3 0.3 0.3 0.2 0 0.3-0.2 0.3-0.3 0-0.2-0.1-0.4-0.3-0.4-0.2 0-0.3 0.2-0.3 0.4z"/>
	<path id="Layer" class="s1" d="m577.3 286.5c0 0 0 0 0.1 0q0 0 0 0 0-0.1 0-0.1-0.1 0-0.1 0.1z"/>
	<path id="Layer" class="s1" d="m445.3 303.1c0-0.7-0.6-1.2-1.3-1.2-0.6 0-1.2 0.5-1.2 1.2 0 0.7 0.6 1.3 1.2 1.3 0.7 0 1.3-0.6 1.3-1.3z"/>
	<path id="Layer" class="s1" d="m462 303.1c0-0.7-0.6-1.3-1.3-1.3-0.7 0-1.3 0.6-1.3 1.3 0 0.7 0.6 1.3 1.3 1.3 0.7 0 1.3-0.6 1.3-1.3z"/>
	<path id="Layer" class="s1" d="m478.6 303.1c0-0.7-0.5-1.2-1.2-1.2-0.7 0-1.3 0.5-1.3 1.2 0 0.7 0.6 1.3 1.3 1.3 0.7 0 1.2-0.6 1.2-1.3z"/>
	<path id="Layer" class="s1" d="m495.1 303.1c0-0.6-0.4-1.1-1.1-1.1-0.6 0-1.1 0.5-1.1 1.1 0 0.6 0.5 1.1 1.1 1.1 0.7 0 1.1-0.5 1.1-1.1z"/>
	<path id="Layer" class="s1" d="m511.6 303.1c0-0.5-0.4-0.8-0.9-0.8-0.5 0-0.9 0.3-0.9 0.8 0 0.5 0.4 0.9 0.9 0.9 0.5 0 0.9-0.4 0.9-0.9z"/>
	<path id="Layer" class="s1" d="m527.9 303.1c0-0.3-0.2-0.5-0.5-0.5-0.3 0-0.6 0.2-0.6 0.5 0 0.3 0.3 0.6 0.6 0.6 0.3 0 0.5-0.3 0.5-0.6z"/>
	<path id="Layer" class="s1" d="m543.8 303.1c0 0.1 0.1 0.2 0.2 0.2 0.1 0 0.2-0.1 0.2-0.2 0-0.1-0.1-0.2-0.2-0.2-0.1 0-0.2 0.1-0.2 0.2z"/>
	<path id="Layer" class="s1" d="m443.6 319.8c0 0.2 0.2 0.5 0.4 0.5 0.3 0 0.5-0.3 0.5-0.5 0-0.3-0.2-0.5-0.5-0.5-0.2 0-0.4 0.2-0.4 0.5z"/>
	<path id="Layer" class="s1" d="m460.2 319.8c0 0.3 0.2 0.5 0.5 0.5 0.3 0 0.5-0.2 0.5-0.5 0-0.3-0.2-0.5-0.5-0.5-0.3 0-0.5 0.2-0.5 0.5z"/>
	<path id="Layer" class="s1" d="m476.9 319.8c0 0.2 0.2 0.5 0.5 0.5 0.2 0 0.4-0.3 0.4-0.5 0-0.3-0.2-0.5-0.4-0.5-0.3 0-0.5 0.2-0.5 0.5z"/>
	<path id="Layer" class="s1" d="m493.7 319.8c0 0.2 0.2 0.3 0.3 0.3 0.2 0 0.4-0.1 0.4-0.3 0-0.2-0.2-0.3-0.4-0.3-0.1 0-0.3 0.1-0.3 0.3z"/>
	<path id="Layer" class="s1" d="m510.6 319.8q0 0.1 0.1 0.1 0.1 0 0.1-0.1 0-0.1-0.1-0.1-0.1 0-0.1 0.1z"/>
	<path id="Layer" class="s1" d="m527.3 319.8c0 0 0 0 0.1 0q0 0 0 0 0-0.1 0-0.1-0.1 0-0.1 0.1z"/>
	<path id="Layer" class="s1" d="m34.5 9.2c-0.1 0-0.2 0.1-0.2 0.2 0 0.1 0.1 0.2 0.2 0.2 0.1 0 0.2-0.1 0.2-0.2 0-0.1-0.1-0.2-0.2-0.2z"/>
	<path id="Layer" class="s1" d="m50.2 9.4c0 0.4 0.3 0.7 0.7 0.7 0.4 0 0.7-0.3 0.7-0.7 0-0.4-0.3-0.7-0.7-0.7-0.4 0-0.7 0.3-0.7 0.7z"/>
	<path id="Layer" class="s1" d="m66.2 9.4c0 0.6 0.5 1.1 1.1 1.1 0.7 0 1.2-0.5 1.2-1.1 0-0.6-0.5-1.2-1.2-1.2-0.6 0-1.1 0.6-1.1 1.2z"/>
	<path id="Layer" class="s1" d="m82.3 9.4c0 0.8 0.7 1.5 1.5 1.5 0.8 0 1.5-0.7 1.5-1.5 0-0.8-0.7-1.5-1.5-1.5-0.8 0-1.5 0.7-1.5 1.5z"/>
	<path id="Layer" class="s1" d="m17.8 25.8c0 0.1 0.1 0.3 0.3 0.3 0.1 0 0.2-0.1 0.2-0.3 0-0.1-0.1-0.2-0.2-0.2-0.2 0-0.3 0.1-0.3 0.2z"/>
	<path id="Layer" class="s1" d="m33.7 25.8c0 0.5 0.4 0.8 0.8 0.8 0.4 0 0.8-0.4 0.8-0.8 0-0.4-0.4-0.7-0.8-0.7-0.4 0-0.8 0.3-0.8 0.7z"/>
	<path id="Layer" class="s1" d="m49.6 25.8c0 0.8 0.6 1.3 1.3 1.3 0.7 0 1.3-0.6 1.3-1.3 0-0.7-0.6-1.3-1.3-1.3-0.7 0-1.3 0.6-1.3 1.3z"/>
	<path id="Layer" class="s1" d="m1.8 42.3c0-0.1-0.1-0.2-0.2-0.2q-0.1 0-0.1 0.2 0 0.1 0.1 0.1 0.2 0 0.2-0.1z"/>
	<path id="Layer" class="s1" d="m17.4 42.3c0 0.3 0.3 0.6 0.7 0.6 0.3 0 0.6-0.3 0.6-0.6 0-0.4-0.3-0.7-0.6-0.7-0.4 0-0.7 0.3-0.7 0.7z"/>
	<path id="Layer" class="s1" d="m34.5 43.6c0.7 0 1.3-0.6 1.3-1.3 0-0.8-0.6-1.4-1.3-1.4-0.7 0-1.3 0.6-1.3 1.4 0 0.7 0.6 1.3 1.3 1.3z"/>
	<path id="Layer" class="s1" d="m1.2 58.7c0 0.2 0.2 0.4 0.4 0.4 0.2 0 0.4-0.2 0.4-0.4 0-0.2-0.2-0.4-0.4-0.4-0.2 0-0.4 0.2-0.4 0.4z"/>
	<path id="Layer" class="s1" d="m16.9 58.7c0 0.6 0.5 1.1 1.2 1.1 0.6 0 1.1-0.5 1.1-1.1 0-0.6-0.5-1.2-1.1-1.2-0.7 0-1.2 0.6-1.2 1.2z"/>
	<path id="Layer" class="s1" d="m1.6 74.3c-0.4 0-0.7 0.4-0.7 0.8 0 0.4 0.3 0.8 0.7 0.8 0.5 0 0.8-0.4 0.8-0.8 0-0.4-0.3-0.8-0.8-0.8z"/>
	<path id="Layer" class="s1" d="m18.1 76.6c0.8 0 1.5-0.7 1.5-1.5 0-0.8-0.7-1.5-1.5-1.5-0.9 0-1.5 0.7-1.5 1.5 0 0.8 0.6 1.5 1.5 1.5z"/>
	<path id="Layer" class="s1" d="m1.6 90.5c-0.5 0-1 0.5-1 1 0 0.6 0.5 1 1 1 0.6 0 1-0.4 1-1 0-0.5-0.4-1-1-1z"/>
	<path id="Layer" class="s1" d="m18.1 93.3c0.9 0 1.7-0.8 1.7-1.8 0-0.9-0.8-1.7-1.7-1.7-1 0-1.8 0.8-1.8 1.7 0 1 0.8 1.8 1.8 1.8z"/>
	<path id="Layer" class="s1" d="m0.5 108c0 0.6 0.5 1.1 1.1 1.1 0.7 0 1.2-0.5 1.2-1.1 0-0.7-0.5-1.2-1.2-1.2-0.6 0-1.1 0.5-1.1 1.2z"/>
	<path id="Layer" class="s1" d="m1.6 123.2c-0.6 0-1.2 0.5-1.2 1.2 0 0.7 0.6 1.2 1.2 1.2 0.7 0 1.2-0.5 1.2-1.2 0-0.7-0.5-1.2-1.2-1.2z"/>
	<path id="Layer" class="s1" d="m1.6 139.7c-0.6 0-1.1 0.5-1.1 1.1 0 0.7 0.5 1.2 1.1 1.2 0.7 0 1.2-0.5 1.2-1.2 0-0.6-0.5-1.1-1.2-1.1z"/>
	<path id="Layer" class="s1" d="m1.6 156.3c-0.5 0-1 0.4-1 1 0 0.5 0.5 1 1 1 0.6 0 1-0.5 1-1 0-0.6-0.4-1-1-1z"/>
	<path id="Layer" class="s1" d="m2.4 173.7c0-0.4-0.3-0.8-0.8-0.8-0.4 0-0.7 0.4-0.7 0.8 0 0.4 0.3 0.8 0.7 0.8 0.5 0 0.8-0.4 0.8-0.8z"/>
	<path id="Layer" class="s1" d="m18.1 175.2c0.8 0 1.5-0.7 1.5-1.5 0-0.8-0.7-1.5-1.5-1.5-0.9 0-1.5 0.7-1.5 1.5 0 0.8 0.6 1.5 1.5 1.5z"/>
	<path id="Layer" class="s1" d="m2.1 190.1c0-0.2-0.2-0.4-0.5-0.4-0.2 0-0.4 0.2-0.4 0.4 0 0.3 0.2 0.5 0.4 0.5 0.3 0 0.5-0.2 0.5-0.5z"/>
	<path id="Layer" class="s1" d="m18.1 191.3c0.6 0 1.1-0.5 1.1-1.2 0-0.6-0.5-1.2-1.1-1.2-0.7 0-1.2 0.6-1.2 1.2 0 0.7 0.5 1.2 1.2 1.2z"/>
	<path id="Layer" class="s1" d="m1.5 206.6c0 0 0.1 0.1 0.1 0.1q0.2 0 0.2-0.1 0-0.2-0.2-0.2-0.1 0-0.1 0.2z"/>
	<path id="Layer" class="s1" d="m18.1 207.3c0.4 0 0.7-0.3 0.7-0.7 0-0.5-0.3-0.8-0.7-0.8-0.5 0-0.8 0.3-0.8 0.8 0 0.4 0.3 0.7 0.8 0.7z"/>
	<path id="Layer" class="s1" d="m18.1 223.3c0.1 0 0.2-0.2 0.2-0.3 0-0.2-0.1-0.3-0.2-0.3-0.2 0-0.3 0.1-0.3 0.3 0 0.1 0.1 0.3 0.3 0.3z"/>
	<path id="Layer" class="s1" d="m35.4 223c0-0.5-0.4-0.9-0.9-0.9-0.5 0-0.9 0.4-0.9 0.9 0 0.5 0.4 0.9 0.9 0.9 0.5 0 0.9-0.4 0.9-0.9z"/>
	<path id="Layer" class="s1" d="m34.2 239.4c0 0.2 0.1 0.3 0.3 0.3 0.1 0 0.3-0.1 0.3-0.3 0-0.1-0.2-0.3-0.3-0.3-0.2 0-0.3 0.2-0.3 0.3z"/>
	<path id="Layer" class="s1" d="m51.7 239.4c0-0.4-0.4-0.8-0.8-0.8-0.4 0-0.7 0.4-0.7 0.8 0 0.4 0.3 0.8 0.7 0.8 0.4 0 0.8-0.4 0.8-0.8z"/>
	<path id="Layer" class="s1" d="m50.7 255.9c0 0.1 0.1 0.1 0.2 0.1 0.1 0 0.2 0 0.2-0.1 0-0.2-0.1-0.2-0.2-0.2-0.1 0-0.2 0-0.2 0.2z"/>
	<path id="Layer" class="s1" d="m67.9 255.9c0-0.3-0.3-0.5-0.5-0.5-0.3 0-0.6 0.2-0.6 0.5 0 0.2 0.3 0.5 0.6 0.5 0.2 0 0.5-0.3 0.5-0.5z"/>
	<path id="Layer" class="s1" d="m67.3 272.3c0 0 0 0 0.1 0q0 0 0 0 0-0.1 0-0.1-0.1 0-0.1 0.1z"/>
	<path id="Layer" class="s1" d="m83.6 272.3c0 0.1 0.1 0.1 0.2 0.1q0.1 0 0.1-0.1 0-0.2-0.1-0.2-0.1 0-0.2 0.2z"/>
	<path id="Layer" class="s1" d="m99.9 272.3c0 0.2 0.1 0.3 0.3 0.3 0.2 0 0.3-0.2 0.3-0.3 0-0.2-0.1-0.3-0.3-0.3-0.2 0-0.3 0.1-0.3 0.3z"/>
	<path id="Layer" class="s1" d="m116.2 272.3c0 0.2 0.2 0.4 0.4 0.4 0.3 0 0.5-0.2 0.5-0.4 0-0.3-0.2-0.5-0.5-0.5-0.2 0-0.4 0.2-0.4 0.5z"/>
	<path id="Layer" class="s1" d="m132.6 272.3c0 0.3 0.2 0.5 0.5 0.5 0.2 0 0.5-0.2 0.5-0.5 0-0.3-0.3-0.5-0.5-0.5-0.3 0-0.5 0.2-0.5 0.5z"/>
	<path id="Layer" class="s1" d="m149 272.3c0 0.2 0.3 0.4 0.5 0.4 0.3 0 0.5-0.2 0.5-0.4 0-0.3-0.2-0.5-0.5-0.5-0.2 0-0.5 0.2-0.5 0.5z"/>
	<path id="Layer" class="s1" d="m362 284.8q-0.5-0.2-1-0.2c-1.1 0-1.9 0.8-1.9 1.9 0 0.9 0.8 1.8 1.7 1.8 0.3 0.3 0.7 0.4 1.1 0.4 1.1 0 2-0.9 2-1.9 0-1.1-0.9-2-1.9-2z"/>
	<path id="Layer" class="s1" d="m379.9 286.8q0-0.5-0.3-0.8c-0.2-0.9-1-1.6-1.9-1.6-1.2 0-2.1 0.9-2.1 2.1 0 1.1 0.9 2 2.1 2 0.4 0 0.9-0.2 1.3-0.5 0.5-0.1 0.9-0.6 0.9-1.2z"/>
	<path id="Layer" class="s1" d="m396.4 286.5c0-1.2-0.9-2.2-2.1-2.2-1.2 0-2.1 1-2.1 2.2 0 1.1 0.9 2.1 2.1 2.1 1.2 0 2.1-1 2.1-2.1z"/>
	<path id="Layer" class="s1" d="m413.1 286.5c0-1.2-1-2.1-2.1-2.1-1.2 0-2.1 0.9-2.1 2.1 0 1.1 0.9 2 2.1 2 1.1 0 2.1-0.9 2.1-2z"/>
	<path id="Layer" class="s1" d="m429.5 286.5c0-1.1-0.8-1.9-1.9-1.9q0 0-0.1 0-0.1 0-0.1 0c-1.1 0-1.9 0.8-1.9 1.9 0 1 0.8 1.9 1.9 1.9q0.1 0 0.1-0.1 0.1 0 0.1 0.1c1.1 0 1.9-0.9 1.9-1.9z"/>
	<path id="Layer" class="s1" d="m379.4 303.4c0-0.4-0.2-0.7-0.6-0.8-0.2-0.4-0.6-0.7-1.1-0.7-0.7 0-1.3 0.5-1.3 1.2 0 0.7 0.6 1.3 1.3 1.3q0.3 0 0.6-0.2 0.1 0.1 0.3 0.1c0.5 0 0.8-0.4 0.8-0.9z"/>
	<path id="Layer" class="s1" d="m395.6 303.1c0-0.7-0.6-1.3-1.3-1.3-0.7 0-1.3 0.6-1.3 1.3 0 0.7 0.6 1.3 1.3 1.3 0.7 0 1.3-0.6 1.3-1.3z"/>
	<path id="Layer" class="s1" d="m412.2 303.1c0-0.7-0.5-1.2-1.2-1.2-0.7 0-1.3 0.5-1.3 1.2 0 0.7 0.6 1.3 1.3 1.3 0.7 0 1.2-0.6 1.2-1.3z"/>
	<path id="Layer" class="s1" d="m428.8 303.1c0-0.6-0.5-1.1-1.2-1.1q-0.1 0-0.3 0.1c-0.5 0-1 0.5-1 1 0 0.6 0.5 1.1 1 1.1q0.2 0 0.3 0c0.7 0 1.2-0.5 1.2-1.1z"/>
	<path id="Layer" class="s1" d="m377.2 319.8c0 0.2 0.2 0.5 0.5 0.5 0.2 0 0.4-0.3 0.4-0.5 0-0.3-0.2-0.5-0.4-0.5-0.3 0-0.5 0.2-0.5 0.5z"/>
	<path id="Layer" class="s1" d="m393.8 319.8c0 0.3 0.2 0.5 0.5 0.5 0.3 0 0.5-0.2 0.5-0.5 0-0.3-0.2-0.5-0.5-0.5-0.3 0-0.5 0.2-0.5 0.5z"/>
	<path id="Layer" class="s1" d="m410.5 319.8c0 0.2 0.2 0.5 0.5 0.5 0.2 0 0.4-0.3 0.4-0.5 0-0.3-0.2-0.5-0.4-0.5-0.3 0-0.5 0.2-0.5 0.5z"/>
	<path id="Layer" class="s1" d="m427.5 319.5q0 0-0.1 0c-0.2 0-0.3 0.1-0.3 0.3 0 0.2 0.1 0.3 0.3 0.3q0.1 0 0.1 0 0.1 0 0.1 0c0.2 0 0.4-0.1 0.4-0.3 0-0.2-0.2-0.3-0.4-0.3q0 0-0.1 0z"/>
	<path id="Layer" class="s1" d="m111.8 270.1q0 0.1 0.2 0.2 0.1-0.1 0.1-0.2 0-0.1-0.1-0.1-0.2 0-0.2 0.1z"/>
	<path id="Layer" class="s1" d="m129.4 270.1c0-0.4-0.3-0.8-0.8-0.8-0.4 0-0.7 0.4-0.7 0.8 0 0.4 0.3 0.8 0.7 0.8 0.5 0 0.8-0.4 0.8-0.8z"/>
	<path id="Layer" class="s1" d="m128.6 287.2c0.3 0 0.5-0.2 0.5-0.4 0-0.3-0.2-0.5-0.5-0.5-0.2 0-0.4 0.2-0.4 0.5 0 0.2 0.2 0.4 0.4 0.4z"/>
	<path id="Layer" class="s1" d="m146.5 286.8c0-0.7-0.5-1.2-1.2-1.2-0.7 0-1.2 0.5-1.2 1.2 0 0.6 0.5 1.2 1.2 1.2 0.7 0 1.2-0.6 1.2-1.2z"/>
	<path id="Layer" class="s1" d="m162 288.7c1 0 1.9-0.9 1.9-1.9 0-1.1-0.9-1.9-1.9-1.9-1.1 0-1.9 0.8-1.9 1.9 0 1 0.8 1.9 1.9 1.9z"/>
	<path id="Layer" class="s1" d="m178.6 284.2c-1.4 0-2.5 1.2-2.5 2.6 0 1.4 1.1 2.5 2.5 2.5 1.4 0 2.6-1.1 2.6-2.5 0-1.4-1.2-2.6-2.6-2.6z"/>
	<path id="Layer" class="s1" d="m195.3 283.6c-1.7 0-3.1 1.4-3.1 3.2 0 1.7 1.4 3.1 3.1 3.1 1.7 0 3.1-1.4 3.1-3.1 0-1.8-1.4-3.2-3.1-3.2z"/>
	<path id="Layer" class="s1" d="m212 283.1c-2.1 0-3.7 1.6-3.7 3.7 0 2 1.6 3.7 3.7 3.7 2 0 3.7-1.7 3.7-3.7 0-2.1-1.7-3.7-3.7-3.7z"/>
	<path id="Layer" class="s1" d="m228.6 282.6c-2.3 0-4.1 1.9-4.1 4.2 0 2.3 1.8 4.1 4.1 4.1 2.3 0 4.2-1.8 4.2-4.1 0-2.3-1.9-4.2-4.2-4.2z"/>
	<path id="Layer" class="s1" d="m245.3 282.3c-2.5 0-4.4 2-4.4 4.5 0 2.4 1.9 4.4 4.4 4.4 2.4 0 4.4-2 4.4-4.4 0-2.5-2-4.5-4.4-4.5z"/>
	<path id="Layer" class="s1" d="m262 282.2c-2.5 0-4.6 2.1-4.6 4.6 0 2.5 2.1 4.5 4.6 4.5 2.5 0 4.5-2 4.5-4.5 0-2.5-2-4.6-4.5-4.6z"/>
	<path id="Layer" class="s1" d="m345.3 284.2c-1.4 0-2.6 1.1-2.6 2.6 0 1.4 1.2 2.6 2.6 2.6 1.4 0 2.6-1.2 2.6-2.6 0-1.5-1.2-2.6-2.6-2.6z"/>
	<path id="Layer" class="s1" d="m128.5 303.4q0 0.2 0.1 0.2 0.2 0 0.2-0.2 0-0.1-0.2-0.1-0.1 0-0.1 0.1z"/>
	<path id="Layer" class="s1" d="m146 303.4c0-0.4-0.3-0.7-0.7-0.7-0.4 0-0.7 0.3-0.7 0.7 0 0.4 0.3 0.8 0.7 0.8 0.4 0 0.7-0.4 0.7-0.8z"/>
	<path id="Layer" class="s1" d="m162 304.9c0.8 0 1.4-0.7 1.4-1.5 0-0.8-0.6-1.4-1.4-1.4-0.8 0-1.5 0.6-1.5 1.4 0 0.8 0.7 1.5 1.5 1.5z"/>
	<path id="Layer" class="s1" d="m180.7 303.4c0-1.1-0.9-2-2.1-2-1.1 0-2 0.9-2 2 0 1.2 0.9 2.1 2 2.1 1.2 0 2.1-0.9 2.1-2.1z"/>
	<path id="Layer" class="s1" d="m195.3 300.9c-1.4 0-2.5 1.1-2.5 2.5 0 1.4 1.1 2.6 2.5 2.6 1.4 0 2.5-1.2 2.5-2.6 0-1.4-1.1-2.5-2.5-2.5z"/>
	<path id="Layer" class="s1" d="m212 300.4c-1.7 0-3.1 1.4-3.1 3 0 1.7 1.4 3.1 3.1 3.1 1.7 0 3-1.4 3-3.1 0-1.6-1.3-3-3-3z"/>
	<path id="Layer" class="s1" d="m228.6 300.1c-1.8 0-3.3 1.5-3.3 3.3 0 1.9 1.5 3.4 3.3 3.4 1.9 0 3.4-1.5 3.4-3.4 0-1.8-1.5-3.3-3.4-3.3z"/>
	<path id="Layer" class="s1" d="m245.3 299.8c-2 0-3.7 1.6-3.7 3.6 0 2.1 1.7 3.7 3.7 3.7 2 0 3.6-1.6 3.6-3.7 0-2-1.6-3.6-3.6-3.6z"/>
	<path id="Layer" class="s1" d="m262 299.7c-2.1 0-3.8 1.7-3.8 3.7 0 2.1 1.7 3.8 3.8 3.8 2 0 3.7-1.7 3.7-3.8 0-2-1.7-3.7-3.7-3.7z"/>
	<path id="Layer" class="s1" d="m345.3 301.4c-1.2 0-2.1 0.9-2.1 2 0 1.2 0.9 2.1 2.1 2.1 1.1 0 2.1-0.9 2.1-2.1 0-1.1-1-2-2.1-2z"/>
	<path id="Layer" class="s1" d="m363.4 303.4c0-0.8-0.6-1.4-1.4-1.4q-0.4 0-0.7 0.1-0.1 0-0.3 0c-0.6 0-1.1 0.4-1.1 1 0 0.5 0.3 0.9 0.7 1 0.3 0.5 0.8 0.8 1.4 0.8 0.8 0 1.4-0.6 1.4-1.5z"/>
	<path id="Layer" class="s1" d="m145 320.1c0 0.2 0.2 0.3 0.3 0.3 0.2 0 0.3-0.1 0.3-0.3 0-0.1-0.1-0.3-0.3-0.3-0.1 0-0.3 0.2-0.3 0.3z"/>
	<path id="Layer" class="s1" d="m162.8 320.1c0-0.5-0.3-0.9-0.8-0.9-0.5 0-0.9 0.4-0.9 0.9 0 0.5 0.4 0.9 0.9 0.9 0.5 0 0.8-0.4 0.8-0.9z"/>
	<path id="Layer" class="s1" d="m180.1 320.1c0-0.8-0.7-1.4-1.5-1.4-0.8 0-1.4 0.6-1.4 1.4 0 0.8 0.6 1.4 1.4 1.4 0.8 0 1.5-0.6 1.5-1.4z"/>
	<path id="Layer" class="s1" d="m197.2 320.1c0-1-0.9-1.9-1.9-1.9-1 0-1.9 0.9-1.9 1.9 0 1 0.9 1.9 1.9 1.9 1 0 1.9-0.9 1.9-1.9z"/>
	<path id="Layer" class="s1" d="m214.3 320.1c0-1.3-1.1-2.3-2.3-2.3-1.3 0-2.3 1-2.3 2.3 0 1.3 1 2.3 2.3 2.3 1.2 0 2.3-1 2.3-2.3z"/>
	<path id="Layer" class="s1" d="m228.6 317.5c-1.4 0-2.6 1.2-2.6 2.6 0 1.5 1.2 2.6 2.6 2.6 1.5 0 2.7-1.1 2.7-2.6 0-1.4-1.2-2.6-2.7-2.6z"/>
	<path id="Layer" class="s1" d="m245.3 317.2c-1.6 0-2.9 1.3-2.9 2.9 0 1.6 1.3 2.9 2.9 2.9 1.6 0 2.9-1.3 2.9-2.9 0-1.6-1.3-2.9-2.9-2.9z"/>
	<path id="Layer" class="s1" d="m262 317.2c-1.6 0-2.9 1.3-2.9 2.9 0 1.6 1.3 2.9 2.9 2.9 1.6 0 2.9-1.3 2.9-2.9 0-1.6-1.3-2.9-2.9-2.9z"/>
	<path id="Layer" class="s1" d="m330.6 320.1c0-1.1-0.9-1.9-2-1.9-1 0-1.9 0.8-1.9 1.9 0 1.1 0.9 1.9 1.9 1.9 1.1 0 2-0.8 2-1.9z"/>
	<path id="Layer" class="s1" d="m346.8 320.1c0-0.8-0.7-1.5-1.5-1.5-0.8 0-1.5 0.7-1.5 1.5 0 0.8 0.7 1.5 1.5 1.5 0.8 0 1.5-0.7 1.5-1.5z"/>
	<path id="Layer" class="s1" d="m362.9 320.1c0-0.5-0.4-0.9-1-0.9-0.3 0-0.5 0.1-0.7 0.4q-0.1-0.1-0.2-0.1c-0.2 0-0.3 0.1-0.3 0.3 0 0.2 0.1 0.3 0.3 0.3q0 0 0 0c0 0.5 0.4 0.9 0.9 0.9 0.6 0 1-0.4 1-0.9z"/>
	<path id="Layer" class="s1" d="m378.9 320.1c0-0.2-0.1-0.3-0.3-0.3-0.2 0-0.3 0.1-0.3 0.3 0 0.2 0.1 0.3 0.3 0.3 0.2 0 0.3-0.1 0.3-0.3z"/>
	<path id="Layer" class="s1" d="m161.7 336.8c0 0.1 0.1 0.2 0.3 0.2 0.1 0 0.2-0.1 0.2-0.2 0-0.2-0.1-0.3-0.2-0.3-0.2 0-0.3 0.1-0.3 0.3z"/>
	<path id="Layer" class="s1" d="m179.4 336.8c0-0.5-0.3-0.8-0.8-0.8-0.4 0-0.8 0.3-0.8 0.8 0 0.4 0.4 0.8 0.8 0.8 0.5 0 0.8-0.4 0.8-0.8z"/>
	<path id="Layer" class="s1" d="m196.5 336.8c0-0.7-0.5-1.2-1.2-1.2-0.7 0-1.2 0.5-1.2 1.2 0 0.6 0.5 1.2 1.2 1.2 0.7 0 1.2-0.6 1.2-1.2z"/>
	<path id="Layer" class="s1" d="m213.5 336.8c0-0.9-0.7-1.6-1.5-1.6-0.9 0-1.6 0.7-1.6 1.6 0 0.8 0.7 1.5 1.6 1.5 0.8 0 1.5-0.7 1.5-1.5z"/>
	<path id="Layer" class="s1" d="m230.5 336.8c0-1.1-0.8-1.9-1.9-1.9-1 0-1.9 0.8-1.9 1.9 0 1 0.9 1.9 1.9 1.9 1.1 0 1.9-0.9 1.9-1.9z"/>
	<path id="Layer" class="s1" d="m247.3 336.8c0-1.2-0.9-2.1-2-2.1-1.1 0-2 0.9-2 2.1 0 1.1 0.9 2 2 2 1.1 0 2-0.9 2-2z"/>
	<path id="Layer" class="s1" d="m264.1 336.8c0-1.2-1-2.2-2.1-2.2-1.2 0-2.2 1-2.2 2.2 0 1.1 1 2.1 2.2 2.1 1.1 0 2.1-1 2.1-2.1z"/>
	<path id="Layer" class="s1" d="m313.6 336.8c0-0.9-0.8-1.6-1.6-1.6-0.9 0-1.7 0.7-1.7 1.6 0 0.9 0.8 1.6 1.7 1.6 0.8 0 1.6-0.7 1.6-1.6z"/>
	<path id="Layer" class="s1" d="m329.9 336.8c0-0.7-0.6-1.3-1.3-1.3-0.7 0-1.3 0.6-1.3 1.3 0 0.7 0.6 1.3 1.3 1.3 0.7 0 1.3-0.6 1.3-1.3z"/>
	<path id="Layer" class="s1" d="m346.1 336.8c0-0.5-0.4-0.9-0.8-0.9-0.5 0-0.8 0.4-0.8 0.9 0 0.4 0.3 0.8 0.8 0.8 0.4 0 0.8-0.4 0.8-0.8z"/>
	<path id="Layer" class="s1" d="m361.6 336.8c0 0.1 0.2 0.3 0.3 0.3 0.2 0 0.4-0.2 0.4-0.3 0-0.2-0.2-0.4-0.4-0.4-0.1 0-0.3 0.2-0.3 0.4z"/>
	<path id="Layer" class="s1" d="m378.6 336.8c0 0 0 0 0 0q0.1 0 0.1 0 0-0.1-0.1-0.1 0 0 0 0.1z"/>
	<path id="Layer" class="s1" d="m178.4 353.4c0 0.1 0.1 0.2 0.2 0.2 0.1 0 0.2-0.1 0.2-0.2 0-0.1-0.1-0.2-0.2-0.2-0.1 0-0.2 0.1-0.2 0.2z"/>
	<path id="Layer" class="s1" d="m195.8 353.4c0-0.3-0.2-0.5-0.5-0.5-0.3 0-0.5 0.3-0.5 0.5 0 0.3 0.2 0.5 0.5 0.5 0.3 0 0.5-0.2 0.5-0.5z"/>
	<path id="Layer" class="s1" d="m212.8 353.4c0-0.4-0.4-0.8-0.8-0.8-0.5 0-0.9 0.4-0.9 0.8 0 0.5 0.4 0.9 0.9 0.9 0.4 0 0.8-0.4 0.8-0.9z"/>
	<path id="Layer" class="s1" d="m229.7 353.4c0-0.6-0.5-1-1.1-1-0.6 0-1 0.4-1 1 0 0.6 0.4 1.1 1 1.1 0.6 0 1.1-0.5 1.1-1.1z"/>
	<path id="Layer" class="s1" d="m246.5 353.4c0-0.7-0.5-1.2-1.2-1.2-0.7 0-1.2 0.5-1.2 1.2 0 0.7 0.5 1.3 1.2 1.3 0.7 0 1.2-0.6 1.2-1.3z"/>
	<path id="Layer" class="s1" d="m263.3 353.4c0-0.7-0.6-1.3-1.3-1.3-0.8 0-1.3 0.6-1.3 1.3 0 0.7 0.5 1.3 1.3 1.3 0.7 0 1.3-0.6 1.3-1.3z"/>
	<path id="Layer" class="s1" d="m279.9 353.4c0-0.7-0.6-1.2-1.3-1.2-0.7 0-1.2 0.5-1.2 1.2 0 0.7 0.5 1.3 1.2 1.3 0.7 0 1.3-0.6 1.3-1.3z"/>
	<path id="Layer" class="s1" d="m296.4 353.4c0-0.6-0.5-1.1-1.1-1.1-0.6 0-1.1 0.5-1.1 1.1 0 0.6 0.5 1.1 1.1 1.1 0.6 0 1.1-0.5 1.1-1.1z"/>
	<path id="Layer" class="s1" d="m312.8 353.4c0-0.5-0.4-0.8-0.8-0.8-0.5 0-0.9 0.4-0.9 0.8 0 0.5 0.4 0.9 0.9 0.9 0.4 0 0.8-0.4 0.8-0.9z"/>
	<path id="Layer" class="s1" d="m329.2 353.4c0-0.3-0.3-0.5-0.6-0.5-0.3 0-0.5 0.2-0.5 0.5 0 0.3 0.2 0.6 0.5 0.6 0.3 0 0.6-0.3 0.6-0.6z"/>
	<path id="Layer" class="s1" d="m345.1 353.4c0 0.1 0.1 0.2 0.2 0.2 0.1 0 0.2-0.1 0.2-0.2 0-0.1-0.1-0.2-0.2-0.2-0.1 0-0.2 0.1-0.2 0.2z"/>
	<path id="Layer" class="s1" d="m52.4 88.6c4.2-10.4 9.9-19.6 17-27.6q0.2-0.3 0.5-0.6c15.4-17.3 37-28.5 61.9-32.1q1.6-0.2 3.2-0.4 5.9-0.7 12.1-0.8 2.4 0 4.8 0 0.9 0 1.8 0.1-0.8-0.2-1.7-0.2-2.6-0.3-5.1-0.5-5.6-0.5-11-0.5-2.8 0-5.6 0.1-5.7 0.1-11.1 0.8-2.4 0.3-4.7 0.6c-26.2 4.3-49.1 17.9-61 46.3q-0.8 2-1.6 4.1-2 5.4-3.4 11.5-0.4 1.5-0.7 3.1c-1.7 8-2.7 16.8-2.9 26.6 0.9-8.6 2.7-16.8 5.2-24.4q1-3.1 2.3-6.1z"/>
	<path id="Layer" fill-rule="evenodd" class="s1" d="m18.1 155.5c0.6 0 1.2 0.3 1.5 0.9q-0.9-6.8-1.3-13.7-0.1 0.1-0.2 0.1c-1.1 0-2-0.9-2-2 0-1.1 0.9-1.9 1.9-2q-0.2-6.2-0.2-12.4c-1-0.2-1.7-1-1.7-2 0-1.1 0.8-1.9 1.8-2q0.2-6.3 0.8-12.6-0.3 0.1-0.6 0.1c-1.1 0-2-0.9-2-2 0-1 0.9-1.9 2-1.9q0.5 0 0.9 0.3 0.1-0.8 0.2-1.6c0.4-3 0.8-6.1 1.3-9.1 0.6-3 1.1-6 1.8-9 0.7-3 1.4-6 2.3-8.9l0.6-2.2 0.3-1.1 0.4-1.1 0.7-2.2 0.8-2.2 0.3-1.1 0.5-1.1 0.8-2.1 0.9-2.2q0.2-0.5 0.4-1.1l0.5-1c1.2-2.9 2.6-5.7 4-8.4l1.2-2.1q0.6-1 1.2-2 0.3-0.5 0.6-1l0.6-1 0.7-0.9q0.3-0.5 0.6-1l1.4-1.9q0.7-1 1.4-1.9 0.3-0.5 0.7-1l0.8-0.9c0.5-0.6 1-1.2 1.5-1.8q0.8-0.9 1.6-1.8l1.6-1.7q0.5-0.4 0.9-0.8l0.9-0.8c0.3-0.3 0.6-0.6 0.9-0.8l0.9-0.8 1.7-1.5q0.9-0.7 1.9-1.5l0.9-0.7q0.4-0.3 0.9-0.7l1.9-1.4q0.5-0.3 1-0.6l0.9-0.7 2-1.3 2-1.2 1-0.6 1-0.6q1-0.6 2.1-1.1l2-1.1c0.7-0.4 1.4-0.7 2.1-1 0.7-0.4 1.4-0.7 2.2-1 5.6-2.6 11.5-4.5 17.5-6.1l0.5-0.2h0.3q0.1-0.1 0.3-0.1l1.3-0.3 0.3-0.1h0.3l0.6-0.1 1.2-0.2 2.3-0.4 2.2-0.2q4.6-0.5 9.1-0.9c6-0.5 12-0.9 18-1.3q9-0.5 17.9-0.9c12-0.6 24-1.1 35.9-1.5 24-0.7 47.9-1.2 71.8-1.5 24-0.3 47.9-0.4 71.8-0.2q18 0.1 35.9 0.5 18 0.3 35.9 1c24 0.9 47.9 2.1 71.8 4.7q9 0.9 17.9 2.3l2.2 0.3 2.3 0.4 2.2 0.4q1.1 0.2 2.2 0.4l2.3 0.4q1.1 0.3 2.2 0.5l2.2 0.5 2.2 0.6 1.2 0.3 0.5 0.1 0.6 0.2 2.2 0.6 0.5 0.2q0.3 0.1 0.6 0.2l1.1 0.4c0.7 0.2 1.5 0.5 2.2 0.8 2.7 1 5.5 1.9 8.4 3 2.8 1.1 5.7 2.4 8.5 3.9 2.7 1.5 5.3 3.3 7.7 5.2l1.8 1.5q0.5 0.4 0.9 0.7l1.7 1.6q0.5 0.4 0.9 0.8l1.6 1.6c0.6 0.5 1.1 1.1 1.6 1.6l0.8 0.9q0.4 0.4 0.8 0.8 0.8 0.9 1.6 1.8 0.7 0.9 1.5 1.8c1.9 2.5 3.5 5.1 5 7.8l0.6 1 0.5 1.1 0.6 1 0.2 0.5 0.3 0.5 0.1 0.3q0.1-0.1 0.2-0.1c0.1 0 0.3 0.2 0.3 0.3 0 0.1-0.1 0.2-0.2 0.3l0.6 1.3 0.9 2.1c2.5 5.6 4.4 11.4 6 17.3l0.3 1.1 0.3 1.1 0.6 2.2c0.3 1.5 0.7 2.9 1 4.4 0.7 3 1.2 5.9 1.7 8.9q1.6 9 2.4 18 0.7 9 0.9 18.1 0.1 4 0 8c0.2-0.8 1-1.3 1.8-1.3 1.1 0 1.9 0.8 1.9 1.8 0 1.1-0.8 1.9-1.9 1.9-0.8 0-1.6-0.6-1.8-1.4q-0.1 4.6-0.3 9.1-0.5 9.1-1.6 18.1c-0.4 3-0.8 6-1.3 8.9q-0.7 4.5-1.7 9c-0.6 2.9-1.3 5.9-2.1 8.8-0.7 3-1.5 5.9-2.5 8.8-1.8 5.8-4 11.5-6.6 17q-2 4.2-4.3 8.2-2.4 4-5.1 7.7c-1 1.2-1.9 2.5-2.9 3.7l-0.5 0.5c-0.1 1.1-1 2-2 2.3l-0.3 0.2q-0.2 0.2-0.4 0.4c-1 1.1-2.1 2.2-3.2 3.2q-0.8 0.8-1.7 1.6l-1.7 1.6c-2.3 2-4.7 4-7.2 5.8q-0.2 0.1-0.4 0.3 0.2 0.4 0.2 1c0 1.4-1.1 2.6-2.5 2.6-0.8 0-1.4-0.3-1.9-0.8q-1.6 1-3.2 1.9-4.1 2.3-8.5 4-1 0.4-2.1 0.8l-1.1 0.4q-0.3 0.1-0.6 0.2l-0.6 0.2-0.6 0.2q-0.3 0.1-0.6 0.1l-1.2 0.3q-1.2 0.2-2.3 0.4c-3 0.6-6 1-9 1.4q-4.5 0.6-9 1.2-4.4 0.5-8.9 0.9c1.4 0.2 2.4 1.4 2.4 2.9 0 1.5-1.2 2.8-2.8 2.8-1.6 0-2.9-1.3-2.9-2.8 0-1.3 0.8-2.3 1.9-2.7q-6.6 0.6-13.2 1.2c0.3 0.4 0.4 0.9 0.4 1.5 0 1.6-1.3 2.9-2.9 2.9-1.6 0-2.9-1.3-2.9-2.9q0-0.6 0.2-1-3.6 0.3-7.1 0.6-2 0.1-4 0.3 0 0 0 0.1c0 1.6-1.3 2.8-2.9 2.8-1.4 0-2.7-1.1-2.8-2.5q-5.6 0.4-11.2 0.8c-0.4 0.9-1.3 1.6-2.4 1.6q-0.3 0-0.6-0.1c-0.8-0.1-1.4-0.5-1.8-1.1q-5.1 0.3-10.1 0.6-1.2 0.1-2.4 0.2c-0.5 0.3-1.1 0.5-1.7 0.5q-0.8 0-1.5-0.3-31.9 1.9-64 3c-4.2 9.3-9.1 18.2-14.8 26.6q0.5 0.7 0.5 1.5c0 1.5-1.2 2.6-2.6 2.6q-0.3 0-0.6-0.1-2.3 3.2-4.6 6.2c-4.7 6-9.7 11.6-15.2 16.9-5.5 5.2-11.4 10.1-17.8 14.3q-2.4 1.6-4.9 3.1l-0.3 0.1-0.1 0.1-0.1 0.1-0.2 0.1c-0.3 0.1-0.6 0.3-0.9 0.4q-0.4 0.2-0.9 0.4-0.5 0.1-1 0.3c-1.3 0.3-2.8 0.4-4.1 0.3-1.4-0.2-2.8-0.6-4-1.2-1.2-0.6-2.3-1.4-3.3-2.4-0.9-0.9-1.7-2-2.3-3.3-0.6-1.2-1-2.6-1.2-4-0.1-1.4 0-2.8 0.4-4.1q0.2-0.5 0.3-1 0.2-0.5 0.4-0.9l0.6-1.3q1-2.4 2-4.9 0.9-2.4 1.6-4.9 0.8-2.6 1.3-5.1 1.2-5.5 1.3-10.9 0-0.4 0-0.8 0-0.4 0.1-0.8 0-4.1-0.6-8.1l-0.2-1.3-0.1-0.6-0.1-0.7-0.3-1.2-0.3-1.3-0.2-0.6q0-0.3-0.1-0.6l-0.4-1.3q-0.2-0.6-0.4-1.2-0.2-0.6-0.4-1.2-1.3-3.8-3.1-7.3c-17.1 0-34.3-0.2-51.4-0.8q-13.5-0.4-27-1.2c-9-0.5-17.9-1.1-26.9-2q-6.8-0.6-13.5-1.3-2-0.3-4-0.5-0.3 0.2-0.8 0.2c-0.4 0-0.8-0.2-1.1-0.5q-0.4 0-0.8-0.1l-3.4-0.4-3.3-0.5c-4.5-0.6-9-1.3-13.5-2.2-4.5-0.8-8.9-1.7-13.4-2.8l-3.3-0.9q-0.9-0.2-1.7-0.5l-1.7-0.5-0.8-0.2-0.8-0.3-1.7-0.5-0.8-0.2-0.8-0.3-1.6-0.5q-3.3-1.1-6.5-2.4-2.9-1.1-5.8-2.4-0.2 0.3-0.5 0.3c-0.5 0-0.8-0.4-0.8-0.9q0 0 0 0c-8.3-3.8-16.1-8.7-23.1-14.5-4.8-4.1-9.2-8.7-13-13.7-1.9-2.4-3.7-5-5.4-7.6l-1.3-2q-0.3-0.5-0.6-1l-0.6-1-1.1-2-1.1-2-0.6-1-0.5-1.1-1-1.9q-0.1 0-0.2 0c-0.8 0-1.4-0.7-1.4-1.4 0-0.4 0.1-0.8 0.4-1.1q-0.4-0.9-0.8-1.8l-1-2.1-0.2-0.6-0.2-0.5-0.5-1.1q-0.4-1-0.8-2.1l-0.9-2.2c-2.1-5.7-3.9-11.6-5.4-17.6-0.8-2.9-1.4-5.9-2.1-8.9l-0.4-2.3q-0.2-1.1-0.4-2.2c-0.3-1.5-0.5-3.1-0.7-4.6q-0.2-0.9-0.3-1.9c-0.2 0.8-0.9 1.4-1.7 1.4-1 0-1.8-0.7-1.8-1.7 0-1 0.8-1.8 1.8-1.8zm9.6-49.7c-1.3 11.6-1.6 23.3-0.8 35q0.5 8.8 1.8 17.5c0.2 1.4 0.5 2.8 0.7 4.3q0.2 1.1 0.5 2.1l0.4 2.2c0.6 2.9 1.2 5.7 1.9 8.5 1.5 5.7 3.2 11.2 5.2 16.7l0.8 2c0.3 0.7 0.6 1.3 0.8 2l0.4 1 0.2 0.5 0.3 0.5 0.8 2q0.5 1 1 1.9 0.4 1 0.9 2l1 1.9 0.5 1 0.5 0.9 1 1.9 1.1 1.9 0.5 0.9q0.3 0.5 0.6 0.9l1.2 1.9c1.5 2.3 3.2 4.7 4.9 6.9 3.5 4.6 7.5 8.7 11.7 12.3 6.6 5.5 13.9 10.1 21.7 13.6q3 1.4 6 2.5 3 1.2 6.1 2.2l1.6 0.5 0.8 0.3 0.8 0.3 1.5 0.4 0.8 0.3 0.8 0.2 1.5 0.5q0.8 0.2 1.6 0.4l3.2 0.8c8.5 2.1 17.2 3.7 25.9 5l3.3 0.4 3.3 0.5c2.2 0.3 4.4 0.5 6.6 0.8q6.7 0.7 13.3 1.4c9.8 0.9 19.6 1.6 29.4 2.2q1.7 0 3.4 0.1 5.7 0.3 11.4 0.6 3.5 0.1 7 0.3 1.1 0 2.2 0.1 3.2 0.1 6.5 0.2 4.4 0.1 8.9 0.2 3.6 0.1 7.2 0.2 4.9 0.1 9.9 0.2 3.3 0 6.5 0.1 5.2 0 10.4 0.1 2.1 0 4.2 0h2.2 0.3l1.2 2.1q1.1 2 2.1 4.1 1.5 3.3 2.7 6.7 0.1 0.4 0.2 0.8 0.1 0.3 0.2 0.6 0.2 0.7 0.4 1.4l0.4 1.5q0.1 0.3 0.2 0.7l0.2 0.7 0.3 1.4 0.2 0.8 0.1 0.7 0.2 0.7 0.1 0.8 0.2 1.4c0.6 3.9 0.7 7.9 0.6 11.8l-0.1 0.8v0.7q-0.1 0.7-0.1 1.5c-0.2 1-0.2 1.9-0.4 2.9-0.1 1-0.3 1.9-0.4 2.9-0.2 1-0.4 1.9-0.6 2.9q-0.2 1-0.5 1.9-0.4 1.9-1 3.8 0 0 0 0.1-0.8 2.7-1.8 5.4-1.1 2.7-2.3 5.3l-0.3 0.7-0.1 0.3c-0.1 0.1-0.2 0.3-0.2 0.3q0 0.2-0.1 0.4-0.1 0.1-0.1 0.3-0.2 0.7-0.2 1.4c0.1 0.8 0.5 1.7 1.2 2.4q0.6 0.6 1.2 0.9 0.7 0.3 1.4 0.4 0.7 0.1 1.4-0.1 0.1 0 0.3-0.1c0.1 0 0.2-0.1 0.3-0.1 0.2 0 0.3-0.1 0.4-0.2h0.1l0.1-0.1 0.3-0.1q2.3-1.4 4.5-2.8c6-3.9 11.6-8.4 16.8-13.4 5.2-4.9 10.1-10.3 14.6-15.9 4.5-5.7 8.6-11.6 12.3-17.8q0 0 0-0.1 1-1.6 2-3.3 4.4-7.7 8.1-15.9l0.9-2.1h1.7 0.6q2.3-0.1 4.6-0.2 5.7-0.1 11.5-0.3 1.7-0.1 3.4-0.1 6.9-0.3 13.8-0.5 1.1-0.1 2.2-0.1 18-0.8 36-1.8c12-0.6 23.9-1.4 35.8-2.2 11.9-0.9 23.8-1.9 35.6-3.2q4.4-0.5 8.8-1c3-0.4 5.9-0.8 8.8-1.3q1-0.2 2.1-0.4l1-0.3q0.2 0 0.5-0.1l0.4-0.1 0.5-0.1q0.3-0.1 0.5-0.2l1-0.3q0.1-0.1 0.1-0.1 1-0.3 1.9-0.7 0.9-0.3 1.7-0.7 3.1-1.3 6.1-2.9 3.8-2.1 7.3-4.6c2.3-1.7 4.6-3.5 6.8-5.4l1.6-1.5q0.8-0.7 1.6-1.5c1.1-1 2.1-2 3.1-3.1q0.2-0.2 0.4-0.3l0.4-0.4 0.7-0.8q0.4-0.4 0.7-0.8l0.7-0.8c1-1.1 1.8-2.3 2.7-3.4q2.6-3.5 4.8-7.2 2.2-3.7 4.1-7.7 2.3-4.7 4.1-9.6 0.8-2 1.5-4.1 0.4-1.3 0.9-2.6c0.9-2.8 1.7-5.6 2.4-8.5 0.8-2.8 1.5-5.7 2.1-8.6 0.6-2.9 1.2-5.8 1.7-8.7 0.4-2.9 0.9-5.8 1.3-8.7 1.5-11.8 2.1-23.6 1.9-35.4q-0.1-8.9-0.9-17.8-0.7-8.8-2.2-17.6c-0.5-2.9-1-5.8-1.7-8.6-0.3-1.5-0.6-2.9-1-4.3l-0.5-2.2-0.3-1-0.3-1.1c-1.5-5.7-3.4-11.2-5.7-16.6l-0.9-2-1-2-0.2-0.4-0.3-0.5-0.5-1-0.5-1-0.5-0.9c-1.4-2.5-2.9-4.9-4.7-7.2l-1.3-1.7c-0.5-0.5-0.9-1-1.4-1.6q-0.4-0.4-0.7-0.8l-0.8-0.8c-0.5-0.5-1-1-1.5-1.5l-1.6-1.5q-0.4-0.4-0.8-0.8l-1.6-1.5q-0.4-0.3-0.8-0.7l-1.7-1.3c-2.3-1.8-4.6-3.4-7.1-4.8-2.5-1.4-5.1-2.5-7.8-3.5-2.7-1.1-5.6-2-8.4-3.1-0.8-0.3-1.4-0.5-2.1-0.7l-1-0.4q-0.3-0.1-0.5-0.2l-0.5-0.1-2.1-0.7-0.5-0.1-0.6-0.2-1-0.2c-5.7-1.5-11.5-2.5-17.4-3.4q-8.8-1.3-17.7-2.2l-2.2-0.3-6.6-0.6c-3-0.3-6-0.5-8.9-0.7-6-0.5-11.9-0.9-17.9-1.2-11.9-0.7-23.8-1.2-35.8-1.6-23.8-0.8-47.7-1.1-71.6-1.1q-35.8 0-71.7 0.7-27.8 0.6-55.7 1.6-1 0-2.1 0.1-6.9 0.2-13.8 0.5 0 0 0 0-1.5 0.1-3 0.1-6.7 0.3-13.4 0.6-1.5 0.1-3.1 0.2-6.9 0.3-13.9 0.7-0.9 0-1.8 0.1-0.3 0-0.6 0-8.9 0.5-17.9 1.1c-5.9 0.4-11.8 0.9-17.7 1.4q-4.5 0.4-8.8 1l-2.2 0.2-2.1 0.4-1.1 0.1-0.5 0.1-0.2 0.1h-0.3l-0.9 0.2q-0.1 0.1-0.2 0.1l-0.3 0.1-0.5 0.1c-5.6 1.6-11.1 3.4-16.3 5.8-0.7 0.3-1.3 0.6-1.9 0.9q-1 0.5-2 1l-1.9 1q-0.9 0.5-1.8 1.1l-1 0.5-0.9 0.6-1.8 1.1-1.8 1.2-0.9 0.6q-0.4 0.3-0.8 0.6l-1.8 1.3q-0.4 0.3-0.8 0.6l-0.8 0.7c-0.6 0.4-1.2 0.9-1.7 1.3l-1.6 1.5-0.8 0.7q-0.4 0.3-0.8 0.7l-0.8 0.7q-0.4 0.3-0.7 0.7l-1.5 1.5q-0.3 0.4-0.7 0.8-0.3 0.4-0.7 0.8c-0.4 0.5-0.9 1.1-1.3 1.6l-0.4 0.5-0.3 0.3q-0.3 0.5-0.6 0.9-0.7 0.8-1.3 1.7l-1.2 1.7q-0.3 0.5-0.6 0.9l-0.5 0.9-0.6 0.9q-0.3 0.5-0.6 1-0.5 0.9-1 1.8l-1.1 1.9c-1.3 2.5-2.6 5.1-3.7 7.8l-0.4 0.9q-0.2 0.5-0.4 1l-0.9 2.1-0.7 2-0.4 1-0.3 1-0.5 1.2-0.2 0.9-0.7 2.1-0.3 1-0.1 0.2-0.2 0.8-0.6 2.1c-0.8 2.8-1.5 5.6-2.1 8.5-0.7 2.8-1.2 5.7-1.7 8.6-0.4 2.9-0.9 5.8-1.2 8.7z"/>
</svg>