<?xml version="1.0" encoding="UTF-8"?>
<svg id="Capa_1" data-name="Capa 1" xmlns="http://www.w3.org/2000/svg" viewBox="0 0 185.7 153.7">
  <defs>
    <style>
      .cls-1 {
        fill-rule: evenodd;
      }

      .cls-1, .cls-2, .cls-3, .cls-4, .cls-5 {
        stroke-width: 0px;
      }

      .cls-1, .cls-3 {
        fill: #1a1a1a;
      }

      .cls-4 {
        fill: #fff;
      }

      .cls-5 {
        fill: #16c1f3;
      }
    </style>
  </defs>
  <path id="Layer" class="cls-5" d="m8.1,41.4c.4-3.6,1-7.3,1.9-10.8.2-.87.43-1.73.7-2.6.27-.87.57-1.7.9-2.5.07-.2.13-.4.2-.6s.17-.4.3-.6c.2-.4.4-.77.6-1.1.2-.33.43-.67.7-1,.07-.07.13-.13.2-.2v-.1h.1l.1-.1.4-.4c.13-.07.23-.17.3-.3l.2-.2c.2-.13.37-.27.5-.4l.5-.4c.13-.07.23-.13.3-.2l.3-.2c.67-.53,1.4-.97,2.2-1.3.73-.4,1.53-.73,2.4-1,.8-.3,1.7-.6,2.6-.9.73-.2,1.47-.4,2.2-.6l.6-.1c.13-.07.3-.1.5-.1.4-.07.8-.13,1.2-.2.4-.13.77-.2,1.1-.2l1.2-.2c.8-.13,1.6-.23,2.4-.3.73-.13,1.5-.23,2.3-.3.8-.07,1.6-.13,2.4-.2l1.2-.1,1.2-.1c.8-.07,1.6-.13,2.4-.2,3.13-.2,6.3-.37,9.5-.5,3.2-.13,6.4-.23,9.6-.3,9.4-.2,18.8-.27,28.2-.2h.2c2,.07,4,.1,6,.1h4c.73.07,1.5.1,2.3.1h.9c1.8.07,3.6.1,5.4.1h1c1.8.07,3.6.13,5.4.2.33,0,.67,0,1,0,1.07.07,2.13.1,3.2.1.73.07,1.5.1,2.3.1.27,0,.5,0,.7,0,5.4.2,10.77.47,16.1.8,1.6.07,3.2.17,4.8.3.8.07,1.6.13,2.4.2.8.07,1.57.13,2.3.2.2.07.4.1.6.1.1,0,.3.1.5.1h.1c.07,0,.1.03.1.1h.3c.2.07.4.13.6.2.73.2,1.47.4,2.2.6.67.27,1.37.53,2.1.8s1.43.6,2.1,1c1.33.67,2.6,1.43,3.8,2.3l.4.4.3.2s.03.03.1.1c.27.2.5.43.7.7.47.53.87,1.1,1.2,1.7.8,1.3,1.4,2.6,1.9,4.1.47,1.33.9,2.7,1.3,4.1,0,.07.03.17.1.3l.2.8c.7,2.8,1.2,5.6,1.6,8.4.47,3.13.83,6.3,1.1,9.5.5,6.3.6,12.6.5,19-.1,6.3-.6,12.7-1.4,18.9-.27,2.2-.6,4.33-1,6.4-.07.67-.17,1.33-.3,2-.07.33-.13.67-.2,1-.27,1.2-.57,2.43-.9,3.7-.07.27-.13.53-.2.8-.4,1.53-.83,3.03-1.3,4.5-.53,1.47-1.1,2.9-1.7,4.3-.47,1-1,1.97-1.6,2.9-.2.33-.4.63-.6.9-.27.33-.53.67-.8,1-.13.2-.3.4-.5.6-.27.27-.53.5-.8.7l-.2.1v.1l-.2.1-.4.3c-1.2.87-2.5,1.63-3.9,2.3-.13.07-.3.13-.5.2-.13.13-.3.23-.5.3-.33.13-.67.27-1,.4-.73.27-1.47.53-2.2.8-.2.07-.4.13-.6.2-.13.07-.3.1-.5.1l-.5.2c-.2.07-.4.13-.6.2l-.4.1-.7.2-.5.1c-.2.07-.4.1-.6.1-3,.7-6.1,1.2-9.3,1.6-3.13.4-6.27.7-9.4.9l-2.4.2h-1.2l-1.2.1c-1.6.07-3.17.13-4.7.2-6.4.3-12.8.4-19.2.5h-1.2l-.6,1c-.2.4-.37.8-.5,1.2-.33.6-.6,1.2-.8,1.8-.33,1.07-.6,2.17-.8,3.3-.3,2.2-.2,4.5.3,6.6.07.53.2,1.07.4,1.6.13.53.3,1.07.5,1.6.2.47.4.97.6,1.5l.2.3c0,.07,0,.1,0,.1t0,0s0,0,0,0c0,0,0,.03,0,.1t0,0c-.07.07-.13.1-.2.1h-.1v-.1l-.6-.3c-.2-.13-.4-.27-.6-.4-1.53-1-3-2.17-4.4-3.5,0,0-.03-.03-.1-.1-.2-.13-.37-.3-.5-.5-1.13-1.13-2.2-2.33-3.2-3.6-.6-.73-1.17-1.47-1.7-2.2-.4-.6-.8-1.2-1.2-1.8-.13-.27-.27-.5-.4-.7-.93-1.6-1.8-3.27-2.6-5l-.5-1.1-1.2-.1c-7.4-.13-14.8-.37-22.2-.7-3.73-.13-7.43-.33-11.1-.6-3.73-.2-7.43-.43-11.1-.7-1.87-.2-3.7-.4-5.5-.6-.47-.07-.9-.13-1.3-.2l-.7-.1h-.3c-.13,0-.23-.03-.3-.1h-.3l-.3-.1h-.1l-.2-.1c-.07,0-.17-.03-.3-.1-.2-.07-.4-.13-.6-.2-.2-.07-.4-.13-.6-.2-1.13-.47-2.23-1-3.3-1.6-.13-.07-.27-.17-.4-.3-.27-.2-.53-.4-.8-.6-.73-.47-1.43-1-2.1-1.6l-.3-.2-.2-.2-.5-.4c-.27-.27-.53-.57-.8-.9-.2-.27-.43-.6-.7-1-.2-.33-.4-.7-.6-1.1-.4-.73-.77-1.53-1.1-2.4-.6-1.6-1.13-3.3-1.6-5.1-.47-1.73-.87-3.5-1.2-5.3-.4-1.8-.73-3.6-1-5.4-.47-3.67-.87-7.33-1.2-11-.27-3.67-.47-7.33-.6-11-.07-1.33-.1-2.7-.1-4.1,0-.07,0-.13,0-.2-.07-5.93.07-11.9.4-17.9.2-3.67.53-7.33,1-11h0Z"/>
  <path id="Layer-2" data-name="Layer" class="cls-3" d="m185.5,76.7v-.1c.07.07.1.1.1.1,0,0-.03,0-.1,0h0Z"/>
  <path id="Layer-3" data-name="Layer" class="cls-3" d="m185.6,83.1c0,.07-.03.1-.1.1s-.1-.03-.1-.1c0-.07.03-.1.1-.1s.1.03.1.1Z"/>
  <path id="Layer-4" data-name="Layer" class="cls-3" d="m179.1,83.5c-.2,0-.3-.2-.3-.4s.1-.4.3-.4c.3,0,.4.2.4.4s-.1.4-.4.4Z"/>
  <path id="Layer-5" data-name="Layer" class="cls-3" d="m185.7,89.5s-.1.1-.2.1l-.1-.1c0-.1.1-.2.1-.2.1,0,.2.1.2.2Z"/>
  <path id="Layer-6" data-name="Layer" class="cls-3" d="m179.1,89.9c-.2,0-.4-.2-.4-.4,0-.3.2-.5.4-.5.3,0,.5.2.5.5,0,.2-.2.4-.5.4Z"/>
  <path id="Layer-7" data-name="Layer" class="cls-3" d="m172.8,90.2c-.5,0-.8-.3-.8-.7s.3-.8.8-.8c.4,0,.7.4.7.8s-.3.7-.7.7Z"/>
  <path id="Layer-8" data-name="Layer" class="cls-3" d="m185.5,95.7c.1,0,.2.1.2.2,0,0-.1.1-.2.1s-.1-.1-.1-.1c0-.1,0-.2.1-.2Z"/>
  <path id="Layer-9" data-name="Layer" class="cls-3" d="m179.1,96.3c-.2,0-.4-.2-.4-.4,0-.3.2-.5.4-.5.3,0,.5.2.5.5,0,.2-.2.4-.5.4Z"/>
  <path id="Layer-10" data-name="Layer" class="cls-3" d="m172.8,96.6c-.5,0-.8-.3-.8-.7,0-.5.3-.8.8-.8.4,0,.7.3.7.8,0,.4-.3.7-.7.7Z"/>
  <path id="Layer-11" data-name="Layer" class="cls-3" d="m185.5,102.1c.1,0,.2.1.2.1,0,.1-.1.2-.2.2,0,0-.1-.1-.1-.2l.1-.1Z"/>
  <path id="Layer-12" data-name="Layer" class="cls-3" d="m178.7,102.2c0-.2.2-.4.5-.4.2,0,.4.2.4.4,0,.3-.2.5-.4.5-.3,0-.5-.2-.5-.5Z"/>
  <path id="Layer-13" data-name="Layer" class="cls-3" d="m172.8,101.5c.4,0,.7.3.7.8,0,.4-.3.7-.7.7-.5,0-.8-.3-.8-.7,0-.5.3-.8.8-.8Z"/>
  <path id="Layer-14" data-name="Layer" class="cls-3" d="m185.4,108.6c.07-.07.1-.1.1-.1.07,0,.13.03.2.1-.07.07-.13.1-.2.1,0,0-.03-.03-.1-.1Z"/>
  <path id="Layer-15" data-name="Layer" class="cls-3" d="m179.2,109c-.3,0-.4-.1-.4-.4,0-.2.1-.4.4-.4.2,0,.4.2.4.4,0,.3-.2.4-.4.4Z"/>
  <path id="Layer-16" data-name="Layer" class="cls-3" d="m172.8,108c.4,0,.7.3.7.6,0,.4-.3.7-.7.7s-.7-.3-.7-.7c0-.3.3-.6.7-.6Z"/>
  <path id="Layer-17" data-name="Layer" class="cls-3" d="m185.6,115c0,.07,0,.1,0,.1-.07,0-.1-.03-.1-.1,0,0,.03,0,.1,0t0,0Z"/>
  <path id="Layer-18" data-name="Layer" class="cls-3" d="m179.2,115.3c-.2,0-.3-.1-.3-.3,0-.1.1-.3.3-.3.1,0,.3.2.3.3,0,.2-.2.3-.3.3Z"/>
  <path id="Layer-19" data-name="Layer" class="cls-3" d="m172.8,114.4c.3,0,.6.3.6.6,0,.4-.3.6-.6.6s-.6-.2-.6-.6c0-.3.3-.6.6-.6Z"/>
  <path id="Layer-20" data-name="Layer" class="cls-3" d="m166.4,114.2c.5,0,.9.4.9.8,0,.5-.4.9-.9.9s-.9-.4-.9-.9c0-.4.4-.8.9-.8Z"/>
  <path id="Layer-21" data-name="Layer" class="cls-3" d="m179,121.4c0-.1.1-.2.2-.2s.1.1.1.2,0,.2-.1.2-.2-.1-.2-.2Z"/>
  <path id="Layer-22" data-name="Layer" class="cls-3" d="m172.3,121.4c0-.2.2-.4.5-.4.2,0,.4.2.4.4,0,.3-.2.5-.4.5-.3,0-.5-.2-.5-.5Z"/>
  <path id="Layer-23" data-name="Layer" class="cls-3" d="m166.4,120.7c.4,0,.7.3.7.7s-.3.7-.7.7-.7-.3-.7-.7.3-.7.7-.7Z"/>
  <path id="Layer-24" data-name="Layer" class="cls-3" d="m179.2,127.8v.1c-.07-.07-.1-.1-.1-.1,0,0,.03-.03.1-.1v.1Z"/>
  <path id="Layer-25" data-name="Layer" class="cls-3" d="m172.5,127.8c0-.1.1-.3.3-.3.1,0,.3.2.3.3,0,.2-.2.3-.3.3-.2,0-.3-.1-.3-.3Z"/>
  <path id="Layer-26" data-name="Layer" class="cls-3" d="m165.8,127.8c0-.3.3-.5.6-.5s.5.2.5.5-.2.6-.5.6-.6-.3-.6-.6Z"/>
  <path id="Layer-27" data-name="Layer" class="cls-3" d="m159.2,127.8c0-.4.4-.8.8-.8s.8.4.8.8-.4.8-.8.8-.8-.4-.8-.8Z"/>
  <path id="Layer-28" data-name="Layer" class="cls-3" d="m153.6,126.8c.6,0,1,.5,1,1,0,.6-.4,1-1,1-.5,0-1-.4-1-1,0-.5.5-1,1-1Z"/>
  <path id="Layer-29" data-name="Layer" class="cls-3" d="m172.9,134.2c0,.07-.03.1-.1.1s-.1-.03-.1-.1c0-.07.03-.1.1-.1s.1.03.1.1Z"/>
  <path id="Layer-30" data-name="Layer" class="cls-3" d="m166.1,134.2c0-.2.1-.3.3-.3s.3.1.3.3-.1.3-.3.3-.3-.1-.3-.3Z"/>
  <path id="Layer-31" data-name="Layer" class="cls-3" d="m159.5,134.2c0-.3.2-.5.5-.5s.6.2.6.5-.3.6-.6.6-.5-.3-.5-.6Z"/>
  <path id="Layer-32" data-name="Layer" class="cls-3" d="m152.9,134.2c0-.4.3-.7.7-.7s.8.3.8.7-.4.7-.8.7-.7-.3-.7-.7Z"/>
  <path id="Layer-33" data-name="Layer" class="cls-3" d="m147.2,133.3c.5,0,.9.4.9.9s-.4.9-.9.9c-.4,0-.8-.4-.8-.9s.3-.9.8-.9Z"/>
  <path id="Layer-34" data-name="Layer" class="cls-3" d="m140.8,133.2c.6,0,1.1.5,1.1,1,0,.6-.5,1-1.1,1-.5,0-1-.4-1-1,0-.5.5-1,1-1Z"/>
  <path id="Layer-35" data-name="Layer" class="cls-3" d="m133.4,134.2c0-.6.5-1.1,1.1-1.1s1.1.5,1.1,1.1-.5,1.1-1.1,1.1-1.1-.5-1.1-1.1Z"/>
  <path id="Layer-36" data-name="Layer" class="cls-3" d="m128.1,133.1c.6,0,1.1.5,1.1,1.1s-.5,1.1-1.1,1.1-1.1-.5-1.1-1.1.5-1.1,1.1-1.1Z"/>
  <path id="Layer-37" data-name="Layer" class="cls-3" d="m121.7,133.1c.6,0,1.1.5,1.1,1.1s-.5,1.1-1.1,1.1-1.1-.4-1.1-1.1c0-.6.5-1.1,1.1-1.1Z"/>
  <path id="Layer-38" data-name="Layer" class="cls-3" d="m114.3,134.2c0-.5.4-1,1-1s1,.5,1,1c0,.6-.4,1.1-1,1.1s-1-.5-1-1.1Z"/>
  <path id="Layer-39" data-name="Layer" class="cls-3" d="m107.9,134.3c0-.5.4-.9.8-.9.07-.07.13-.1.2-.1.5,0,.9.5.9,1s-.4.9-.9.9c-.07,0-.13-.03-.2-.1-.4,0-.8-.4-.8-.8h0Z"/>
  <path id="Layer-40" data-name="Layer" class="cls-3" d="m166.5,140.6c0,.07-.03.1-.1.1s-.1-.03-.1-.1.03-.1.1-.1.1.03.1.1Z"/>
  <path id="Layer-41" data-name="Layer" class="cls-3" d="m159.7,140.6c0-.2.2-.3.3-.3.2,0,.3.1.3.3s-.1.3-.3.3c-.1,0-.3-.1-.3-.3Z"/>
  <path id="Layer-42" data-name="Layer" class="cls-3" d="m153.2,140.6c0-.3.2-.5.4-.5.3,0,.5.2.5.5s-.2.5-.5.5c-.2,0-.4-.2-.4-.5Z"/>
  <path id="Layer-43" data-name="Layer" class="cls-3" d="m146.6,140.6c0-.3.3-.6.6-.6.4,0,.6.3.6.6s-.2.6-.6.6c-.3,0-.6-.3-.6-.6Z"/>
  <path id="Layer-44" data-name="Layer" class="cls-3" d="m140.1,140.6c0-.4.4-.7.8-.7s.7.3.7.7-.3.7-.7.7-.8-.3-.8-.7Z"/>
  <path id="Layer-45" data-name="Layer" class="cls-3" d="m133.7,140.6c0-.4.3-.8.8-.8.4,0,.7.4.7.8.1.4-.3.8-.7.8-.5,0-.8-.4-.8-.8Z"/>
  <path id="Layer-46" data-name="Layer" class="cls-3" d="m127.3,140.6c0-.4.3-.8.8-.8.4,0,.8.4.8.8,0,.5-.4.8-.8.8-.5,0-.8-.3-.8-.8Z"/>
  <path id="Layer-47" data-name="Layer" class="cls-3" d="m120.9,140.6c0-.4.3-.8.8-.8.4,0,.8.4.8.8,0,.5-.4.8-.8.8-.5,0-.8-.3-.8-.8Z"/>
  <path id="Layer-48" data-name="Layer" class="cls-3" d="m114.6,140.6c0-.4.3-.7.7-.7s.7.3.7.7-.3.8-.7.8-.7-.4-.7-.8Z"/>
  <path id="Layer-49" data-name="Layer" class="cls-3" d="m160.1,147c0,.07-.03.1-.1.1v-.2c.07,0,.1.03.1.1Z"/>
  <path id="Layer-50" data-name="Layer" class="cls-3" d="m153.4,147c0-.1.1-.2.2-.2s.2.1.2.2-.1.2-.2.2-.2-.1-.2-.2Z"/>
  <path id="Layer-51" data-name="Layer" class="cls-3" d="m146.9,147c0-.2.2-.3.4-.3.1,0,.3.1.3.3s-.2.3-.3.3c-.2,0-.4-.1-.4-.3Z"/>
  <path id="Layer-52" data-name="Layer" class="cls-3" d="m140.5,147c0-.2.1-.4.4-.4.2,0,.4.2.4.4s-.2.4-.4.4c-.3,0-.4-.2-.4-.4Z"/>
  <path id="Layer-53" data-name="Layer" class="cls-3" d="m134,147c0-.3.2-.5.5-.5.2,0,.4.2.4.5s-.2.5-.4.5c-.3,0-.5-.2-.5-.5Z"/>
  <path id="Layer-54" data-name="Layer" class="cls-3" d="m127.6,147c0-.3.2-.5.5-.5s.5.2.5.5-.2.5-.5.5-.5-.2-.5-.5Z"/>
  <path id="Layer-55" data-name="Layer" class="cls-3" d="m121.7,147.5c-.3,0-.5-.2-.5-.5,0-.2.2-.5.5-.5s.5.3.5.5c0,.3-.2.5-.5.5Z"/>
  <path id="Layer-56" data-name="Layer" class="cls-3" d="m114.9,147c0-.2.2-.4.4-.4s.4.2.4.4c0,.3-.2.4-.4.4s-.4-.1-.4-.4Z"/>
  <path id="Layer-57" data-name="Layer" class="cls-3" d="m147.3,153.4h-.1c0-.07.03-.1.1-.1v.1Z"/>
  <path id="Layer-58" data-name="Layer" class="cls-3" d="m141,153.4c0,.07-.03.1-.1.1s-.13-.03-.2-.1c.07-.07.13-.1.2-.1s.1.03.1.1Z"/>
  <path id="Layer-59" data-name="Layer" class="cls-3" d="m134.7,153.4c0,.1-.1.2-.2.2s-.2-.1-.2-.2.1-.2.2-.2.2.1.2.2Z"/>
  <path id="Layer-60" data-name="Layer" class="cls-3" d="m128.3,153.4c0,.1-.1.2-.2.2s-.2-.1-.2-.2.1-.2.2-.2.2.1.2.2Z"/>
  <path id="Layer-61" data-name="Layer" class="cls-3" d="m121.7,153.6c-.1,0-.2-.1-.2-.2s.1-.2.2-.2.2.1.2.2-.1.2-.2.2Z"/>
  <path id="Layer-62" data-name="Layer" class="cls-3" d="m115.3,153.3c.07,0,.1.03.1.1s-.03.1-.1.1q-.1,0-.1-.1t.1-.1Z"/>
  <path id="Layer-63" data-name="Layer" class="cls-3" d="m102.4,133.2c.6,0,1,.5,1,1.1,0,.5-.4,1-1,1-.5,0-1-.5-1-1,0-.6.5-1.1,1-1.1Z"/>
  <path id="Layer-64" data-name="Layer" class="cls-3" d="m75.8,134.3c0-.6.5-1,1.1-1,.5,0,1,.4,1,1,0,.5-.5,1-1,1-.6,0-1.1-.5-1.1-1Z"/>
  <path id="Layer-65" data-name="Layer" class="cls-3" d="m108.2,140.6c0-.3.2-.5.6-.6h.1c.4,0,.6.3.6.6,0,.4-.2.7-.6.7-.07,0-.1-.03-.1-.1-.4,0-.6-.2-.6-.6h0Z"/>
  <path id="Layer-66" data-name="Layer" class="cls-3" d="m101.7,140.6c0-.4.3-.7.7-.7s.7.3.7.7-.3.8-.7.8-.7-.4-.7-.8Z"/>
  <path id="Layer-67" data-name="Layer" class="cls-3" d="m76.1,140.7c0-.4.4-.8.8-.8s.7.4.7.8-.3.7-.7.7-.8-.3-.8-.7Z"/>
  <path id="Layer-68" data-name="Layer" class="cls-3" d="m108.5,147c0-.1.1-.3.3-.3h.1c.2,0,.4.1.4.3s-.2.4-.4.4c0,0-.03-.03-.1-.1-.2,0-.3-.1-.3-.3h0Z"/>
  <path id="Layer-69" data-name="Layer" class="cls-3" d="m102,147c0-.2.2-.4.4-.4s.4.2.4.4c0,.3-.2.4-.4.4s-.4-.1-.4-.4Z"/>
  <path id="Layer-70" data-name="Layer" class="cls-3" d="m82.8,147c0-.2.2-.4.5-.4.2,0,.4.2.4.4,0,.3-.2.5-.4.5-.3,0-.5-.2-.5-.5Z"/>
  <path id="Layer-71" data-name="Layer" class="cls-3" d="m76.4,147.1c0-.3.2-.5.5-.5.2,0,.4.2.4.5,0,.2-.2.4-.4.4-.3,0-.5-.2-.5-.4Z"/>
  <path id="Layer-72" data-name="Layer" class="cls-3" d="m108.9,153.4h.1c0,.07-.03.1-.1.1v-.1c0,.07-.03.1-.1.1,0,0,0-.03,0-.1t0,0h.1Z"/>
  <path id="Layer-73" data-name="Layer" class="cls-3" d="m102.6,153.4c-.07.07-.13.1-.2.1s-.1-.03-.1-.1c0-.07.03-.1.1-.1s.13.03.2.1Z"/>
  <path id="Layer-74" data-name="Layer" class="cls-3" d="m96,153.2c.1,0,.2.1.2.2s-.1.2-.2.2-.1-.1-.1-.2,0-.2.1-.2Z"/>
  <path id="Layer-75" data-name="Layer" class="cls-3" d="m89.5,153.4c0-.1,0-.2.2-.2.1,0,.1.1.1.2s0,.2-.1.2c-.2,0-.2-.1-.2-.2Z"/>
  <path id="Layer-76" data-name="Layer" class="cls-3" d="m83.4,153.4c0,.1,0,.2-.1.2s-.2-.1-.2-.2.1-.1.2-.1.1,0,.1.1Z"/>
  <path id="Layer-77" data-name="Layer" class="cls-3" d="m77,153.4c0,.13-.03.2-.1.2s-.13-.07-.2-.2c.07-.07.13-.1.2-.1s.1.03.1.1Z"/>
  <path id="Layer-78" data-name="Layer" class="cls-3" d="m.1,70.5c0-.07.03-.1.1-.1v.1h-.1Z"/>
  <path id="Layer-79" data-name="Layer" class="cls-3" d="m.2,76.8v.1c-.07,0-.1-.03-.1-.1h.1Z"/>
  <path id="Layer-80" data-name="Layer" class="cls-3" d="m.2,83.1c.07,0,.1.03.1.1s-.03.13-.1.2c-.07-.07-.13-.13-.2-.2.07-.07.13-.1.2-.1Z"/>
  <path id="Layer-81" data-name="Layer" class="cls-3" d="m.2,89.4c.1,0,.1.1.1.2s0,.2-.1.2-.2-.1-.2-.2.1-.2.2-.2Z"/>
  <path id="Layer-82" data-name="Layer" class="cls-3" d="m.2,95.8c.1,0,.2.1.2.2s-.1.2-.2.2-.2-.1-.2-.2.1-.2.2-.2Z"/>
  <path id="Layer-83" data-name="Layer" class="cls-3" d="m0,102.4c0-.1.1-.2.2-.2s.2.1.2.2-.1.2-.2.2-.2-.1-.2-.2Z"/>
  <path id="Layer-84" data-name="Layer" class="cls-3" d="m6.6,108.4c.2,0,.4.1.4.4,0,.2-.2.4-.4.4-.3,0-.4-.2-.4-.4s.1-.4.4-.4Z"/>
  <path id="Layer-85" data-name="Layer" class="cls-3" d="m.1,108.8c0-.07.03-.1.1-.1s.1.03.1.1-.03.1-.1.1-.1-.03-.1-.1Z"/>
  <path id="Layer-86" data-name="Layer" class="cls-3" d="m6.2,115.2c0-.2.2-.4.4-.4s.3.2.3.4-.1.3-.3.3-.4-.1-.4-.3Z"/>
  <path id="Layer-87" data-name="Layer" class="cls-3" d="m.1,115.2c0-.07.03-.1.1-.1v.1h-.1Z"/>
  <path id="Layer-88" data-name="Layer" class="cls-3" d="m12.5,121.6c0-.3.2-.5.5-.5s.5.2.5.5c0,.2-.2.5-.5.5s-.5-.3-.5-.5Z"/>
  <path id="Layer-89" data-name="Layer" class="cls-3" d="m6.4,121.6c0-.2.1-.3.2-.3s.2.1.2.3c0,.1-.1.2-.2.2s-.2-.1-.2-.2Z"/>
  <path id="Layer-90" data-name="Layer" class="cls-3" d="m25,127.9c0-.4.3-.8.8-.8.4,0,.8.4.8.8,0,.5-.4.8-.8.8-.5,0-.8-.3-.8-.8Z"/>
  <path id="Layer-91" data-name="Layer" class="cls-3" d="m18.8,127.9c0-.3.3-.5.6-.5s.5.2.5.5-.2.6-.5.6-.6-.3-.6-.6Z"/>
  <path id="Layer-92" data-name="Layer" class="cls-3" d="m12.7,127.9c0-.1.1-.3.3-.3s.3.2.3.3c0,.2-.1.4-.3.4s-.3-.2-.3-.4Z"/>
  <path id="Layer-93" data-name="Layer" class="cls-3" d="m6.7,127.9c0,.07-.03.1-.1.1s-.1-.03-.1-.1h.2Z"/>
  <path id="Layer-94" data-name="Layer" class="cls-3" d="m70.5,133.3c.5,0,1,.4,1,1,0,.5-.5,1-1,1-.6,0-1-.5-1-1,0-.6.4-1,1-1Z"/>
  <path id="Layer-95" data-name="Layer" class="cls-3" d="m63,134.3c0-.6.5-1.1,1.1-1.1s1.1.5,1.1,1.1-.5,1.1-1.1,1.1-1.1-.5-1.1-1.1Z"/>
  <path id="Layer-96" data-name="Layer" class="cls-3" d="m57.7,133.2c.6,0,1.1.5,1.1,1.1s-.5,1.1-1.1,1.1-1.1-.5-1.1-1.1.5-1.1,1.1-1.1Z"/>
  <path id="Layer-97" data-name="Layer" class="cls-3" d="m51.3,133.2c.6,0,1.1.5,1.1,1.1s-.5,1.1-1.1,1.1-1.1-.5-1.1-1.1.5-1.1,1.1-1.1Z"/>
  <path id="Layer-98" data-name="Layer" class="cls-3" d="m43.9,134.3c0-.6.5-1,1-1,.6,0,1.1.4,1.1,1s-.5,1-1.1,1c-.5,0-1-.4-1-1Z"/>
  <path id="Layer-99" data-name="Layer" class="cls-3" d="m37.6,134.3c0-.5.4-.9.9-.9s.9.4.9.9-.4.9-.9.9-.9-.4-.9-.9Z"/>
  <path id="Layer-100" data-name="Layer" class="cls-3" d="m31.4,134.3c0-.4.3-.7.8-.7.4,0,.7.3.7.7s-.3.8-.7.8c-.5,0-.8-.4-.8-.8Z"/>
  <path id="Layer-101" data-name="Layer" class="cls-3" d="m25.2,134.3c0-.3.2-.5.6-.5.3,0,.5.2.5.5s-.2.6-.5.6-.6-.3-.6-.6Z"/>
  <path id="Layer-102" data-name="Layer" class="cls-3" d="m19,134.3c0-.2.2-.3.4-.3s.3.1.3.3-.1.4-.3.4-.4-.2-.4-.4Z"/>
  <path id="Layer-103" data-name="Layer" class="cls-3" d="m12.9,134.3c0-.07.03-.1.1-.1s.1.03.1.1c0,.07-.03.13-.1.2-.07-.07-.1-.13-.1-.2Z"/>
  <path id="Layer-104" data-name="Layer" class="cls-3" d="m69.8,140.7c0-.4.3-.8.7-.8s.7.4.7.8-.3.7-.7.7-.7-.3-.7-.7Z"/>
  <path id="Layer-105" data-name="Layer" class="cls-3" d="m63.3,140.7c0-.5.4-.8.8-.8s.8.3.8.8c0,.4-.4.8-.8.8s-.8-.4-.8-.8Z"/>
  <path id="Layer-106" data-name="Layer" class="cls-3" d="m56.9,140.7c0-.5.4-.8.8-.8.5,0,.8.3.8.8,0,.4-.3.8-.8.8-.4,0-.8-.4-.8-.8Z"/>
  <path id="Layer-107" data-name="Layer" class="cls-3" d="m50.5,140.7c0-.5.4-.8.8-.8.5,0,.8.3.8.8,0,.4-.3.8-.8.8-.4,0-.8-.4-.8-.8Z"/>
  <path id="Layer-108" data-name="Layer" class="cls-3" d="m44.2,140.7c0-.4.3-.7.7-.7s.8.3.8.7-.4.7-.8.7-.7-.3-.7-.7Z"/>
  <path id="Layer-109" data-name="Layer" class="cls-3" d="m37.9,140.7c0-.3.3-.6.6-.6.4,0,.7.3.7.6s-.3.6-.7.6c-.3,0-.6-.3-.6-.6Z"/>
  <path id="Layer-110" data-name="Layer" class="cls-3" d="m31.7,140.7c0-.3.2-.5.5-.5.2,0,.5.2.5.5s-.3.5-.5.5c-.3,0-.5-.2-.5-.5Z"/>
  <path id="Layer-111" data-name="Layer" class="cls-3" d="m25.5,140.7c0-.2.1-.3.3-.3.1,0,.3.1.3.3s-.2.3-.3.3c-.2,0-.3-.1-.3-.3Z"/>
  <path id="Layer-112" data-name="Layer" class="cls-3" d="m19.5,140.7c0,.07-.03.1-.1.1s-.1-.03-.1-.1.03-.1.1-.1.1.03.1.1Z"/>
  <path id="Layer-113" data-name="Layer" class="cls-3" d="m70.1,147.1c0-.3.2-.4.4-.4s.4.1.4.4c0,.2-.2.4-.4.4s-.4-.2-.4-.4Z"/>
  <path id="Layer-114" data-name="Layer" class="cls-3" d="m63.6,147.1c0-.3.2-.5.5-.5s.5.2.5.5c0,.2-.2.4-.5.4s-.5-.2-.5-.4Z"/>
  <path id="Layer-115" data-name="Layer" class="cls-3" d="m57.2,147.1c0-.3.2-.5.5-.5s.5.2.5.5c0,.2-.2.5-.5.5s-.5-.3-.5-.5Z"/>
  <path id="Layer-116" data-name="Layer" class="cls-3" d="m50.9,147.1c0-.3.2-.5.4-.5.3,0,.5.2.5.5,0,.2-.2.5-.5.5-.2,0-.4-.3-.4-.5Z"/>
  <path id="Layer-117" data-name="Layer" class="cls-3" d="m44.5,147.1c0-.3.2-.4.4-.4.3,0,.5.1.5.4,0,.2-.2.4-.5.4-.2,0-.4-.2-.4-.4Z"/>
  <path id="Layer-118" data-name="Layer" class="cls-3" d="m38.2,147.1c0-.2.2-.3.4-.3.1,0,.3.1.3.3s-.2.3-.3.3c-.2,0-.4-.1-.4-.3Z"/>
  <path id="Layer-119" data-name="Layer" class="cls-3" d="m32,147.1c0-.1,0-.2.2-.2.1,0,.2.1.2.2s-.1.2-.2.2c-.2,0-.2-.1-.2-.2Z"/>
  <path id="Layer-120" data-name="Layer" class="cls-3" d="m25.8,147.1c0,.07,0,.1,0,.1-.07,0-.1-.03-.1-.1s.03-.1.1-.1c0,0,0,.03,0,.1Z"/>
  <path id="Layer-121" data-name="Layer" class="cls-3" d="m70.6,153.5c0,.07-.03.1-.1.1s-.1-.03-.1-.1c0-.13.03-.2.1-.2s.1.07.1.2Z"/>
  <path id="Layer-122" data-name="Layer" class="cls-3" d="m64.3,153.5c0,.1-.1.1-.2.1s-.2,0-.2-.1.1-.2.2-.2.2.1.2.2Z"/>
  <path id="Layer-123" data-name="Layer" class="cls-3" d="m57.9,153.5c0,.1-.1.2-.2.2s-.2-.1-.2-.2.1-.2.2-.2.2.1.2.2Z"/>
  <path id="Layer-124" data-name="Layer" class="cls-3" d="m51.5,153.5c0,.1-.1.1-.2.1s-.1,0-.1-.1,0-.2.1-.2.2.1.2.2Z"/>
  <path id="Layer-125" data-name="Layer" class="cls-3" d="m45.1,153.5c0,.07-.07.1-.2.1-.07,0-.1-.03-.1-.1s.03-.13.1-.2c.13.07.2.13.2.2Z"/>
  <path id="Layer-126" data-name="Layer" class="cls-3" d="m38.6,153.5h-.1c0-.07.03-.1.1-.1v.1Z"/>
  <path id="Layer-127" data-name="Layer" class="cls-3" d="m147.1.1h.1c0,.07-.03.1-.1.1v-.1Z"/>
  <path id="Layer-128" data-name="Layer" class="cls-3" d="m140.6.1h.2c0,.07-.03.1-.1.1,0,0-.03-.03-.1-.1Z"/>
  <path id="Layer-129" data-name="Layer" class="cls-3" d="m134.2.2c0-.1.1-.2.2-.2,0,0,.1.1.1.2l-.1.1c-.1,0-.2-.1-.2-.1Z"/>
  <path id="Layer-130" data-name="Layer" class="cls-3" d="m127.8.2c0-.1.1-.2.2-.2,0,0,.1.1.1.2l-.1.1c-.1,0-.2-.1-.2-.1Z"/>
  <path id="Layer-131" data-name="Layer" class="cls-3" d="m121.4.2c0-.1.1-.2.2-.2,0,0,.1.1.1.2l-.1.1c-.1,0-.2-.1-.2-.1Z"/>
  <path id="Layer-132" data-name="Layer" class="cls-3" d="m115.1.2c0-.07.03-.1.1-.1s.1.03.1.1-.03.1-.1.1-.1-.03-.1-.1Z"/>
  <path id="Layer-133" data-name="Layer" class="cls-3" d="m108.7.2c0-.07.03-.1.1-.1v.1h0c-.07,0-.1,0-.1,0Z"/>
  <path id="Layer-134" data-name="Layer" class="cls-3" d="m159.9,6.5s0,0,0,0c.07,0,.1,0,.1,0,0,.07-.03.1-.1.1v-.1Z"/>
  <path id="Layer-135" data-name="Layer" class="cls-3" d="m153.4,6.5q0-.1.1-.1c.1,0,.2,0,.2.1s-.1.2-.2.2-.1-.1-.1-.2Z"/>
  <path id="Layer-136" data-name="Layer" class="cls-3" d="m147.4,6.5c0,.2-.1.3-.3.3-.1,0-.3-.1-.3-.3,0-.1.2-.3.3-.3.2,0,.3.2.3.3Z"/>
  <path id="Layer-137" data-name="Layer" class="cls-3" d="m141.1,6.5c0,.3-.1.4-.4.4-.2,0-.3-.1-.3-.4,0-.2.1-.4.3-.4.3,0,.4.2.4.4Z"/>
  <path id="Layer-138" data-name="Layer" class="cls-3" d="m134.8,6.5c0,.3-.2.5-.4.5-.3,0-.5-.2-.5-.5,0-.2.2-.4.5-.4.2,0,.4.2.4.4Z"/>
  <path id="Layer-139" data-name="Layer" class="cls-3" d="m128.4,6.5c0,.3-.2.5-.4.5-.3,0-.5-.2-.5-.4,0-.3.2-.5.5-.5.2,0,.4.2.4.4Z"/>
  <path id="Layer-140" data-name="Layer" class="cls-3" d="m122,6.6c0,.2-.2.4-.4.4-.3,0-.5-.2-.5-.4,0-.3.2-.5.5-.5.2,0,.4.2.4.5Z"/>
  <path id="Layer-141" data-name="Layer" class="cls-3" d="m115.6,6.6c0,.2-.2.3-.4.3s-.4-.1-.4-.3c0-.3.2-.4.4-.4s.4.1.4.4Z"/>
  <path id="Layer-142" data-name="Layer" class="cls-3" d="m109.1,6.6c0,.1-.1.3-.3.3s-.3-.2-.3-.3c0-.2.1-.3.3-.3s.3.1.3.3Z"/>
  <path id="Layer-143" data-name="Layer" class="cls-3" d="m102.2,6.6c0-.1.1-.2.2-.2s.2.1.2.2-.1.1-.2.1-.2,0-.2-.1Z"/>
  <path id="Layer-144" data-name="Layer" class="cls-3" d="m96,6.6v-.1c.07,0,.1.03.1.1,0,0-.03,0-.1,0t0,0Z"/>
  <path id="Layer-145" data-name="Layer" class="cls-3" d="m166.2,12.9c0-.07.03-.1.1-.1s.1.03.1.1-.03.1-.1.1-.1-.03-.1-.1Z"/>
  <path id="Layer-146" data-name="Layer" class="cls-3" d="m160.2,12.9c0,.2-.1.3-.3.3-.1,0-.2-.1-.2-.3,0-.1.1-.3.2-.3.2,0,.3.2.3.3Z"/>
  <path id="Layer-147" data-name="Layer" class="cls-3" d="m172.6,19.3c0-.07.03-.1.1-.1s.1.03.1.1c0,.07-.03.1-.1.1s-.1-.03-.1-.1Z"/>
  <path id="Layer-148" data-name="Layer" class="cls-3" d="m166.6,19.3c0,.2-.1.3-.3.3s-.3-.1-.3-.3.1-.3.3-.3.3.1.3.3Z"/>
  <path id="Layer-149" data-name="Layer" class="cls-3" d="m179,25.7c0-.07.03-.1.1-.1,0,0,0,.03,0,.1t0,0h-.1Z"/>
  <path id="Layer-150" data-name="Layer" class="cls-3" d="m173,25.7c0,.1-.2.2-.3.2s-.3-.1-.3-.2c0-.2.2-.3.3-.3s.3.1.3.3Z"/>
  <path id="Layer-151" data-name="Layer" class="cls-3" d="m179.3,32.1s-.1.1-.2.1-.2-.1-.2-.1c0-.1.1-.2.2-.2s.2.1.2.2Z"/>
  <path id="Layer-152" data-name="Layer" class="cls-3" d="m173.2,32.1c0,.2-.2.4-.5.4-.2,0-.4-.2-.4-.4,0-.3.2-.5.4-.5s.5.2.5.5Z"/>
  <path id="Layer-153" data-name="Layer" class="cls-3" d="m179.4,38.4c0,.2-.1.3-.3.3s-.3-.1-.3-.3c0-.1.1-.3.3-.3s.3.2.3.3Z"/>
  <path id="Layer-154" data-name="Layer" class="cls-3" d="m172.7,39c-.3,0-.6-.2-.6-.5,0-.4.3-.6.6-.6s.6.2.6.6c0,.3-.3.5-.6.5Z"/>
  <path id="Layer-155" data-name="Layer" class="cls-3" d="m185.6,44.8c0,.07-.03.1-.1.1-.07,0-.1-.03-.1-.1,0,0,.03-.03.1-.1.07.07.1.1.1.1Z"/>
  <path id="Layer-156" data-name="Layer" class="cls-3" d="m179.1,45.2c-.2,0-.4-.1-.4-.4,0-.2.2-.4.4-.4s.4.2.4.4c0,.3-.2.4-.4.4Z"/>
  <path id="Layer-157" data-name="Layer" class="cls-3" d="m172.7,45.5c-.4,0-.7-.3-.7-.7,0-.3.3-.6.7-.6s.7.3.7.6c0,.4-.3.7-.7.7Z"/>
  <path id="Layer-158" data-name="Layer" class="cls-3" d="m185.6,51.2c0,.1,0,.2-.1.2s-.1-.1-.1-.2,0-.1.1-.1.1,0,.1.1Z"/>
  <path id="Layer-159" data-name="Layer" class="cls-3" d="m179.1,51.7c-.2,0-.4-.2-.4-.5,0-.2.2-.4.4-.4.3,0,.5.2.5.4,0,.3-.2.5-.5.5Z"/>
  <path id="Layer-160" data-name="Layer" class="cls-3" d="m185.5,57.5c.1,0,.2,0,.2.1s-.1.2-.2.2-.2-.1-.2-.2.1-.1.2-.1Z"/>
  <path id="Layer-161" data-name="Layer" class="cls-3" d="m179.1,58.1c-.2,0-.4-.2-.4-.5,0-.2.2-.4.4-.4.3,0,.5.2.5.4,0,.3-.2.5-.5.5Z"/>
  <path id="Layer-162" data-name="Layer" class="cls-1" d="m5.4,41.1c.2-1.87.47-3.73.8-5.6.33-1.87.7-3.7,1.1-5.5.5-1.9,1-3.7,1.8-5.5.07-.27.17-.5.3-.7.07-.2.17-.43.3-.7.2-.47.43-.9.7-1.3.27-.47.57-.9.9-1.3.13-.13.23-.23.3-.3l.2-.2v-.1h.1l.5-.5c.13-.07.23-.17.3-.3l.3-.2.5-.5.6-.4c.07-.13.17-.23.3-.3l.3-.2c.8-.6,1.67-1.1,2.6-1.5.9-.5,1.8-.8,2.7-1.2.9-.3,1.8-.5,2.6-.8.87-.27,1.7-.5,2.5-.7l.6-.1c.2-.07.4-.13.6-.2.4-.07.8-.13,1.2-.2.8-.13,1.6-.27,2.4-.4.8-.07,1.6-.17,2.4-.3.87-.07,1.7-.17,2.5-.3.8-.07,1.6-.13,2.4-.2l1.2-.1,1.2-.1c.8-.07,1.6-.13,2.4-.2,6.4-.4,12.8-.7,19.2-.8,6.47-.2,12.9-.3,19.3-.3,6.4-.07,12.8-.07,19.2,0,6.4.07,12.83.2,19.3.4,6.4.13,12.8.37,19.2.7,1.6.07,3.2.17,4.8.3.8.07,1.63.13,2.5.2.8.07,1.6.13,2.4.2.2.07.4.1.6.1.3,0,.5.1.7.1h.2l.1.1h.1l.3.1c.2,0,.4.03.6.1.8.2,1.6.43,2.4.7.07,0,.17.03.3.1-.07-.07-.1-.17-.1-.3,0-.2.2-.4.4-.4.3,0,.5.2.5.4s-.2.4-.4.4c.53.2,1.07.4,1.6.6.8.33,1.6.7,2.4,1.1,1.47.73,2.9,1.6,4.3,2.6l.5.4.3.2c.07.07.13.17.2.3.4.27.77.6,1.1,1,.6.7,1.1,1.4,1.5,2.1.9,1.6,1.6,3.1,2.2,4.7.6,1.53,1.1,3.1,1.5,4.7.9,3.2,1.5,6.4,2,9.6.53,3.2.93,6.43,1.2,9.7v.2c.13,0,.23,0,.3,0,.4,0,.8.3.8.7s-.4.8-.8.8c-.07,0-.13,0-.2,0,.13,1.6.23,3.2.3,4.8.4.1.7.4.7.8s-.2.7-.6.8c.07,1.6.13,3.23.2,4.9.2.1.4.4.4.7s-.2.6-.4.7v5.1c.2.1.3.3.3.6s-.1.5-.4.6c0,1.73-.03,3.43-.1,5.1.2.1.4.3.4.6t0,0c0,.07,0,.1,0,.1,0,.3-.2.5-.5.6,0,.6-.03,1.23-.1,1.9-.07,1.07-.13,2.1-.2,3.1h.2c.4,0,.7.3.7.7s-.3.7-.7.7c-.13,0-.23-.07-.3-.2-.07.2-.1.4-.1.6-.13,1.6-.3,3.2-.5,4.8-.4,3.2-.9,6.4-1.5,9.6-.7,3.2-1.5,6.4-2.5,9.6-.53,1.53-1.17,3.07-1.9,4.6-.7,1.6-1.5,3.1-2.5,4.5-.53.73-1.13,1.43-1.8,2.1-.27.33-.6.67-1,1l-.2.1c.3.2.6.5.6.9,0,.6-.5,1-1,1s-.9-.4-1-.9c-1.2.87-2.5,1.63-3.9,2.3-.2.13-.37.23-.5.3-.2.07-.4.17-.6.3-.4.13-.8.3-1.2.5-.8.27-1.6.53-2.4.8-.4.13-.8.27-1.2.4l-.6.2c-.13.07-.3.13-.5.2l-.8.2c.6,0,1.1.5,1.1,1.1,0,.7-.5,1.2-1.2,1.2-.6,0-1.1-.5-1.1-1.2,0-.4.2-.7.4-.9l-.3.1c-.2,0-.4.03-.6.1-1.13.27-2.3.5-3.5.7,0,.7-.5,1.3-1.3,1.3-.5,0-1-.3-1.2-.9v.1c-.4.07-.8.1-1.2.1l-2.5.4h-.5c-.2.3-.6.4-.9.4-.33,0-.6-.07-.8-.2-2.47.27-4.93.5-7.4.7l-2.4.2h-1.2l-1.3.1c-1.6.07-3.2.13-4.8.2-6,.27-12,.4-18,.4-.2.47-.4.93-.6,1.4-.27.8-.47,1.63-.6,2.5-.2,1.7-.2,3.4.2,5.2.07.4.17.83.3,1.3.13.4.3.83.5,1.3.13.4.3.8.5,1.2l.1.3c.07.13.1.23.1.3.07.13.13.27.2.4.13.47.17.93.1,1.4,0,.47-.13.93-.4,1.4-.2.47-.43.87-.7,1.2-.7.6-1.6,1.1-2.5,1.2-.53.07-1.03.07-1.5,0-.07-.07-.17-.1-.3-.1-.13-.07-.23-.1-.3-.1-.13-.07-.27-.13-.4-.2l-.1-.1h-.1l-.7-.4c-.2-.2-.43-.37-.7-.5-.53-.33-1.07-.7-1.6-1.1,0,.2-.2.3-.5.3-.2,0-.4-.2-.4-.5,0-.1,0-.3.2-.4-.93-.73-1.8-1.47-2.6-2.2-1.07-1-2.07-2.07-3-3.2-.13.13-.3.2-.5.2-.5,0-.8-.3-.8-.7,0-.3.1-.6.3-.7-.07-.07-.13-.13-.2-.2-2.3-3-4.2-6.2-5.8-9.6-7.07-.2-14.1-.47-21.1-.8l-3.8-.2c-.2.07-.4.1-.6.1-.27,0-.5-.07-.7-.2-1.6-.13-3.17-.23-4.7-.3-.2.3-.6.4-1,.4s-.8-.2-1-.5c-1.47-.13-2.9-.27-4.3-.4-.1.5-.6.8-1.1.8s-1-.4-1.1-.9c-1.33-.13-2.67-.27-4-.4h-.3v.1c0,.6-.4,1-.9,1-.6,0-1-.4-1-1v-.3c-1.13-.13-2.27-.27-3.4-.4-.47-.07-.93-.13-1.4-.2l-.7-.1-.4-.1h-.4l-.4-.1c-.13-.07-.27-.1-.4-.1l-.1-.1h-.3c-.07-.07-.17-.13-.3-.2-.27-.07-.5-.13-.7-.2-.27-.07-.5-.17-.7-.3-1.9-.7-3.6-1.7-5.2-2.8-.8-.6-1.57-1.23-2.3-1.9l-.3-.2-.3-.2-.5-.5c-.4-.4-.77-.83-1.1-1.3-.33-.4-.63-.8-.9-1.2-.27-.47-.53-.93-.8-1.4-.4-.87-.8-1.77-1.2-2.7-.7-1.8-1.2-3.6-1.7-5.5-.47-1.73-.83-3.47-1.1-5.2-.3,0-.5-.2-.5-.5,0-.2.1-.4.3-.4-.33-1.67-.6-3.33-.8-5-.47-3.73-.83-7.43-1.1-11.1-.27-3.73-.47-7.47-.6-11.2-.2-7.47-.07-14.93.4-22.4.27-3.73.63-7.47,1.1-11.2h0Zm1.3,29.3c0,.07,0,.1,0,.1.07,1.4.1,2.77.1,4.1.13,3.67.33,7.33.6,11,.33,3.67.73,7.33,1.2,11,.27,1.8.6,3.6,1,5.4.33,1.8.73,3.57,1.2,5.3.4,1.8,1,3.5,1.6,5.2.33.8.7,1.57,1.1,2.3.2.4.4.77.6,1.1.27.4.5.73.7,1,.27.33.53.63.8.9l.5.4.2.2.3.2c.67.6,1.37,1.17,2.1,1.7.27.2.53.37.8.5.13.13.27.23.4.3,1.07.67,2.17,1.2,3.3,1.6.2.07.4.13.6.2s.4.13.6.2c.13.07.23.1.3.1l.2.1h.1l.3.1h.3c.07.07.17.1.3.1l.3.1h.7c.4.07.83.13,1.3.2,1.8.2,3.63.4,5.5.6,3.67.27,7.37.53,11.1.8,3.67.2,7.37.37,11.1.5,7.4.33,14.8.6,22.2.8h1.2l.5,1.1c.8,1.73,1.7,3.43,2.7,5.1.07.2.17.4.3.6.4.6.8,1.2,1.2,1.8.53.73,1.1,1.47,1.7,2.2,1,1.27,2.07,2.47,3.2,3.6.2.2.4.4.6.6h0c1.4,1.33,2.87,2.5,4.4,3.5.2.13.4.27.6.4l.6.3v.1h.2s.03-.03.1-.1h0v-.1h0v-.1l-.2-.3c-.2-.53-.4-1.03-.6-1.5-.2-.53-.37-1.07-.5-1.6-.2-.53-.33-1.07-.4-1.6-.5-2.1-.6-4.4-.3-6.6.2-1.13.47-2.23.8-3.3.2-.6.47-1.2.8-1.8.13-.4.33-.8.6-1.2l.5-1h1.2c6.4-.1,12.8-.2,19.2-.4,1.53-.07,3.1-.17,4.7-.3h1.2l.6-.1h.6l2.4-.2c3.13-.2,6.3-.5,9.5-.9,3.1-.4,6.2-.8,9.2-1.5.2-.07.4-.13.6-.2l.5-.1.7-.2.4-.1c.2-.07.4-.13.6-.2l.6-.2c.13,0,.27-.03.4-.1.2-.07.43-.13.7-.2.67-.27,1.37-.53,2.1-.8.33-.13.67-.27,1-.4.2-.07.37-.13.5-.2.2-.13.37-.23.5-.3,1.4-.67,2.7-1.43,3.9-2.3l.4-.3.2-.1.1-.1.1-.1c.27-.2.53-.43.8-.7.2-.2.37-.4.5-.6.27-.33.53-.67.8-1,.2-.27.4-.57.6-.9.6-.93,1.13-1.9,1.6-2.9.67-1.4,1.23-2.83,1.7-4.3.47-1.47.9-2.97,1.3-4.5.07-.27.13-.53.2-.8.33-1.2.63-2.43.9-3.7.07-.33.13-.63.2-.9.13-.67.27-1.37.4-2.1.33-2.07.63-4.2.9-6.4.8-6.2,1.3-12.6,1.4-18.9.1-6.4,0-12.7-.5-19-.27-3.2-.63-6.33-1.1-9.4-.4-2.9-.9-5.7-1.6-8.4-.07-.33-.13-.63-.2-.9-.07-.07-.1-.17-.1-.3-.4-1.4-.83-2.77-1.3-4.1-.5-1.4-1.1-2.8-1.9-4.1-.33-.6-.73-1.17-1.2-1.7-.2-.27-.43-.5-.7-.7,0,0-.03-.03-.1-.1l-.7-.5c-1.2-.93-2.47-1.73-3.8-2.4-.67-.33-1.37-.67-2.1-1-.67-.27-1.37-.53-2.1-.8-.73-.2-1.47-.4-2.2-.6-.2-.07-.4-.13-.6-.2h-.3l-.1-.1h-.1c-.2,0-.4,0-.5-.1-.2,0-.4-.03-.6-.1-.73-.07-1.5-.13-2.3-.2-.8-.07-1.6-.13-2.4-.2-1.6-.13-3.2-.23-4.8-.3-5.33-.33-10.7-.6-16.1-.8h-.7c-.73,0-1.5-.03-2.3-.1-1.07,0-2.13-.03-3.2-.1h-1c-1.8-.07-3.6-.1-5.4-.1-.33-.07-.67-.1-1-.1-1.8,0-3.6-.03-5.4-.1h-3.2c-1.13-.07-2.27-.1-3.4-.1h-.5c-2,0-4.03-.03-6.1-.1h-.2c-9.4-.07-18.8,0-28.2.2-3.2.07-6.4.17-9.6.3-3.2.13-6.37.3-9.5.5-.8.07-1.6.13-2.4.2l-1.2.1-1.2.1c-.8.07-1.6.13-2.4.2-.73.07-1.5.17-2.3.3-.8.07-1.6.17-2.4.3l-1.1.2c-.4.07-.8.13-1.2.2-.4.07-.8.13-1.2.2-.13,0-.3.03-.5.1l-.6.1c-.73.2-1.47.4-2.2.6-.9.3-1.8.6-2.6.9-.87.27-1.67.6-2.4,1-.8.33-1.53.77-2.2,1.3l-.3.2c-.07.07-.13.13-.2.2l-.6.4c-.13.13-.3.27-.5.4l-.2.3c-.07.07-.17.13-.3.2l-.4.4-.1.1-.1.1c-.07.07-.13.13-.2.2-.27.33-.5.67-.7,1-.2.33-.4.7-.6,1.1-.07.2-.17.4-.3.6-.07.2-.13.4-.2.6-.33.8-.63,1.63-.9,2.5s-.5,1.73-.7,2.6c-.9,3.6-1.5,7.2-1.9,10.8-.47,3.67-.8,7.33-1,11-.33,6-.47,12-.4,18h0Z"/>
  <path id="Layer-163" data-name="Layer" class="cls-3" d="m185.5,63.9c.1,0,.2,0,.2.1s-.1.1-.2.1-.1,0-.1-.1,0-.1.1-.1Z"/>
  <path id="Layer-164" data-name="Layer" class="cls-3" d="m179.1,63.6c.3,0,.5.2.5.4s-.2.4-.5.4c-.2,0-.4-.2-.4-.4s.2-.4.4-.4Z"/>
  <path id="Layer-165" data-name="Layer" class="cls-3" d="m185.5,70.3c.07,0,.1.03.1.1,0,.07-.03.1-.1.1s-.1-.03-.1-.1c0-.07.03-.1.1-.1Z"/>
  <path id="Layer-166" data-name="Layer" class="cls-3" d="m179.1,70c.2,0,.4.2.4.4s-.2.4-.4.4-.4-.2-.4-.4.2-.4.4-.4Z"/>
  <path id="Layer-167" data-name="Layer" class="cls-3" d="m185.6,76.8s-.03,0-.1,0h0v-.1c.07,0,.1.03.1.1Z"/>
  <path id="Layer-168" data-name="Layer" class="cls-3" d="m179.1,77.1c-.1,0-.3-.2-.3-.3v-.1h0c0-.2.2-.3.3-.3.2,0,.3.1.3.3h0v.1c0,.1-.1.3-.3.3Z"/>
  <path id="Layer-169" data-name="Layer" class="cls-3" d="m44.9,6.1C18.2,6.5,2.1,11.5.4,40.6-2,15.2,9.6,2.9,44.9,6.1Z"/>
  <g>
    <path class="cls-2" d="m109.8,55.42c-.85-4.38-1.82-8.42-2.35-12.54-.27-2.07,0-4.33.46-6.39.87-3.89,3.33-6.23,7.06-6.99,3.79-.77,6.73.7,8.93,3.91,2.63,3.85,3.28,8.4,3.79,12.97.17,1.47.25,2.95.39,4.58h2.08c.32-2.76.4-5.62,1.02-8.33.66-2.91,1.52-5.87,2.85-8.49,1.98-3.91,5.41-5.38,9.28-4.65,3.87.73,6.45,3.39,7.31,7.73.98,4.91-.04,9.64-1.34,14.32-.32,1.15-.71,2.28-1.1,3.52,1.35.85,2.68,1.61,3.94,2.48,9.57,6.66,13.22,18.41,9.08,29.32-2.46,6.49-7.01,10.92-12.97,13.49-12.73,5.49-25.65,5.6-38.28-.15-11.48-5.23-16.74-17.17-13.42-29.11,1.66-5.97,5.24-10.37,10.09-13.69,1.11-.76,2.28-1.43,3.19-2Zm34.75,1.28c.69-2.06,1.45-4.04,2.02-6.09,1.13-4.08,2.14-8.2,1.34-12.52-.58-3.12-2.33-5.09-5.02-5.6-2.84-.55-5.15.57-6.41,3.19-1.19,2.48-2.12,5.2-2.63,7.93-.65,3.46-.77,7.04-1.11,10.57h-7.28c-.14-2.28-.04-4.53-.45-6.67-.74-3.79-1.47-7.65-2.81-11.23-1.18-3.18-3.81-4.31-6.63-3.84-3.15.53-5.12,3.09-5.38,7.07-.35,5.32,1.13,10.25,2.86,15.13.26.73.5,1.46.75,2.19-1.55.82-2.93,1.48-4.26,2.25-3.44,2-6.42,4.57-8.52,8.16-3.82,6.51-3.09,13.36,2.3,18.42,2.15,2.02,4.68,3.76,7.3,4.99,9.72,4.57,19.85,5.09,30.13,2.56,5.63-1.39,10.85-3.75,15-8.21,4.56-4.9,5.3-11,2.14-17.04-2.04-3.89-5.1-6.66-8.7-8.79-1.48-.88-3.04-1.62-4.64-2.46Z"/>
    <path class="cls-4" d="m144.55,56.7c1.6.85,3.16,1.59,4.64,2.46,3.6,2.13,6.67,4.9,8.7,8.79,3.16,6.04,2.43,12.13-2.14,17.04-4.15,4.46-9.37,6.82-15,8.21-10.29,2.53-20.41,2.01-30.13-2.56-2.62-1.23-5.15-2.97-7.3-4.99-5.39-5.06-6.11-11.91-2.3-18.42,2.1-3.59,5.07-6.16,8.52-8.16,1.33-.77,2.71-1.44,4.26-2.25-.25-.73-.49-1.46-.75-2.19-1.73-4.88-3.21-9.81-2.86-15.13.26-3.98,2.23-6.54,5.38-7.07,2.82-.48,5.45.66,6.63,3.84,1.33,3.58,2.07,7.44,2.81,11.23.42,2.14.32,4.39.45,6.67h7.28c.35-3.53.46-7.11,1.11-10.57.51-2.73,1.44-5.44,2.63-7.93,1.25-2.62,3.57-3.74,6.41-3.19,2.69.52,4.45,2.48,5.02,5.6.8,4.32-.21,8.44-1.34,12.52-.57,2.05-1.33,4.03-2.02,6.09Zm.24,17.22c-.43-1.38-.65-2.89-1.32-4.12-1.29-2.36-3.75-2.38-5,0-.67,1.29-1.03,2.92-1.04,4.4,0,3.01,1.63,5.2,3.52,5.21,1.94,0,3.49-2.35,3.84-5.5Zm-30.89-.15c.01.27.02.54.04.81.21,2.75,1.69,4.82,3.48,4.85,1.81.03,3.28-1.94,3.56-4.76.03-.27.05-.54.05-.81.04-3.2-1.61-5.84-3.62-5.79-1.96.05-3.5,2.57-3.51,5.7Z"/>
    <path class="cls-2" d="m144.79,73.91c-.35,3.15-1.9,5.51-3.84,5.5-1.88,0-3.53-2.2-3.52-5.21,0-1.48.36-3.12,1.04-4.4,1.24-2.39,3.71-2.36,5,0,.67,1.23.9,2.73,1.32,4.12Z"/>
    <path class="cls-2" d="m113.9,73.76c0-3.13,1.55-5.65,3.51-5.7,2.01-.05,3.66,2.59,3.62,5.79,0,.27-.03.54-.05.81-.27,2.82-1.75,4.79-3.56,4.76-1.79-.03-3.27-2.09-3.48-4.85-.02-.27-.03-.54-.04-.81Z"/>
  </g>
</svg>