<svg version="1.2" xmlns="http://www.w3.org/2000/svg" viewBox="0 0 186 155" width="186" height="155">
	<title>4wesg5syrQQ0-svg</title>
	<style>
		.s0 { fill: #2ab773 } 
		.s1 { fill: #1a1a1a } 
		.s2 { fill: #ffed51;stroke: #000000;stroke-width: 2 } 
	</style>
	<path id="Layer" class="s0" d="m177.7 41.8c-0.4-3.6-1-7.3-1.8-10.8q-0.4-1.3-0.8-2.6-0.4-1.3-0.8-2.5-0.2-0.3-0.3-0.6-0.1-0.3-0.3-0.6-0.3-0.6-0.6-1.1-0.3-0.6-0.7-1 0-0.1-0.1-0.2l-0.1-0.1h-0.1v-0.1l-0.5-0.5q-0.1-0.1-0.3-0.2l-0.2-0.2q-0.3-0.2-0.5-0.4l-0.5-0.4q-0.2-0.1-0.3-0.2l-0.3-0.2q-1-0.8-2.1-1.4-1.2-0.5-2.4-0.9c-0.9-0.3-1.8-0.6-2.7-0.9q-1.1-0.3-2.2-0.6l-0.5-0.1q-0.3-0.1-0.6-0.1-0.6-0.2-1.2-0.3-0.5-0.1-1.1-0.2l-1.2-0.1q-1.2-0.2-2.4-0.3-1.1-0.2-2.3-0.3-1.2-0.1-2.4-0.2l-1.2-0.1-1.2-0.1q-1.2-0.1-2.4-0.2-4.7-0.3-9.5-0.5-4.8-0.2-9.6-0.3-14.1-0.3-28.2-0.2-0.1 0-0.2 0-3 0-6 0.1-0.3 0-0.6 0-1.7 0-3.4 0-1.1 0-2.3 0.1-0.4 0-0.8 0-2.8 0-5.5 0.1-0.5 0-1 0-2.7 0.1-5.4 0.2-0.5 0-1 0-1.6 0.1-3.2 0.1-1.1 0-2.3 0.1-0.3 0-0.7 0-8.1 0.3-16.1 0.7-2.4 0.2-4.8 0.4-1.2 0.1-2.4 0.2-1.1 0.1-2.3 0.2-0.3 0.1-0.5 0.1c-0.2 0-0.4 0-0.6 0.1h-0.1q-0.1 0-0.1 0l-0.3 0.1q-0.3 0.1-0.5 0.2-1.2 0.2-2.2 0.6-1.1 0.4-2.2 0.8-1 0.4-2 0.9-2.1 1.1-3.9 2.4l-0.4 0.4-0.2 0.1q-0.1 0.1-0.2 0.2-0.4 0.3-0.7 0.7-0.7 0.7-1.2 1.7c-0.8 1.2-1.4 2.6-1.9 4.1q-0.7 2-1.3 4.1 0 0.1-0.1 0.3-0.1 0.4-0.2 0.8c-0.7 2.8-1.2 5.6-1.6 8.4q-0.7 4.7-1.1 9.4c-0.5 6.4-0.6 12.7-0.5 19.1 0.2 6.3 0.6 12.6 1.4 18.9q0.4 3.2 1 6.4 0.1 1 0.3 2 0.1 0.5 0.2 0.9 0.4 1.9 0.9 3.8 0.1 0.4 0.2 0.8 0.6 2.3 1.3 4.5 0.8 2.2 1.7 4.2 0.7 1.6 1.6 3 0.3 0.5 0.6 0.9 0.4 0.5 0.8 1 0.3 0.3 0.6 0.6 0.3 0.4 0.7 0.7l0.2 0.1 0.1 0.1 0.1 0.1 0.4 0.3q1.9 1.3 3.9 2.3 0.2 0.1 0.5 0.2 0.2 0.1 0.5 0.3 0.5 0.2 1 0.4 1.1 0.4 2.2 0.8 0.3 0.1 0.6 0.2 0.2 0.1 0.5 0.1l0.5 0.2q0.3 0.1 0.6 0.2l0.4 0.1 0.7 0.1 0.6 0.2q0.2 0.1 0.5 0.1c3 0.7 6.1 1.2 9.3 1.6q4.7 0.6 9.4 0.9l2.4 0.2h0.6 0.6l1.2 0.1q2.4 0.1 4.8 0.2c6.3 0.3 12.7 0.4 19.1 0.4h0.8 0.4l0.6 1.1q0.3 0.6 0.6 1.2 0.4 0.9 0.7 1.8 0.6 1.6 0.8 3.3c0.3 2.2 0.2 4.5-0.3 6.6q-0.1 0.8-0.4 1.6-0.2 0.8-0.5 1.5-0.3 0.8-0.6 1.5l-0.2 0.4q0 0 0 0 0 0.1 0 0.1 0 0 0 0 0 0 0 0 0 0.1 0 0.1 0.1 0.1 0.2 0.1 0 0 0 0 0 0 0 0 0 0 0 0 0 0 0.1-0.1 0 0 0 0l0.6-0.4q0.3-0.1 0.6-0.3 2.3-1.5 4.4-3.5 0 0 0.1-0.1 0.3-0.3 0.6-0.6 1.6-1.6 3.1-3.5 0.9-1.1 1.7-2.3 0.6-0.8 1.2-1.8 0.2-0.3 0.4-0.6 1.4-2.4 2.6-5l0.5-1.1 1.2-0.1q11.2-0.2 22.3-0.7 5.5-0.2 11.1-0.6 5.5-0.3 11-0.8 2.8-0.2 5.5-0.5 0.7-0.1 1.3-0.2l0.7-0.1h0.3q0.2-0.1 0.3-0.1h0.3l0.3-0.1h0.1l0.2-0.1q0.1 0 0.3-0.1 0.3-0.1 0.6-0.2 0.3-0.1 0.6-0.2 1.7-0.7 3.3-1.6 0.2-0.2 0.4-0.3 0.4-0.3 0.8-0.6 1.1-0.7 2.1-1.6l0.3-0.2 0.2-0.2 0.5-0.5q0.4-0.3 0.8-0.8 0.4-0.5 0.7-1 0.3-0.5 0.6-1.1 0.6-1.1 1.1-2.4 1-2.5 1.7-5.1 0.6-2.6 1.2-5.3 0.5-2.7 0.9-5.4 0.8-5.5 1.2-11 0.4-5.5 0.6-11.1 0.1-2 0.1-4 0-0.1 0-0.2 0.1-8.9-0.4-17.9-0.3-5.5-1-11z"/>
	<path id="Layer" class="s1" d="m0.3 77.1q0-0.1 0-0.1 0 0 0 0.1 0 0 0 0 0 0 0 0z"/>
	<path id="Layer" class="s1" d="m0.2 83.5q0 0 0.1 0 0.1 0 0.1 0 0-0.1-0.1-0.1-0.1 0-0.1 0.1z"/>
	<path id="Layer" class="s1" d="m6.7 83.9c0.2 0 0.4-0.2 0.4-0.4 0-0.3-0.2-0.4-0.4-0.4-0.2 0-0.4 0.1-0.4 0.4 0 0.2 0.2 0.4 0.4 0.4z"/>
	<path id="Layer" class="s1" d="m0.1 89.8c0 0.1 0.1 0.2 0.2 0.2 0.1 0 0.1-0.1 0.1-0.2 0 0 0-0.1-0.1-0.1-0.1 0-0.2 0.1-0.2 0.1z"/>
	<path id="Layer" class="s1" d="m6.7 90.3c0.2 0 0.4-0.2 0.4-0.5 0-0.2-0.2-0.4-0.4-0.4-0.3 0-0.5 0.2-0.5 0.4 0 0.3 0.2 0.5 0.5 0.5z"/>
	<path id="Layer" class="s1" d="m13.1 90.6c0.4 0 0.7-0.3 0.7-0.7 0-0.5-0.3-0.8-0.7-0.8-0.5 0-0.8 0.3-0.8 0.8 0 0.4 0.3 0.7 0.8 0.7z"/>
	<path id="Layer" class="s1" d="m0.3 96.1c-0.1 0-0.2 0-0.2 0.1 0 0.1 0.1 0.2 0.2 0.2 0.1 0 0.1-0.1 0.1-0.2 0-0.1 0-0.1-0.1-0.1z"/>
	<path id="Layer" class="s1" d="m6.7 96.7c0.2 0 0.4-0.2 0.4-0.5 0-0.2-0.2-0.4-0.4-0.4-0.3 0-0.5 0.2-0.5 0.4 0 0.3 0.2 0.5 0.5 0.5z"/>
	<path id="Layer" class="s1" d="m13.1 97c0.4 0 0.7-0.3 0.7-0.8 0-0.4-0.3-0.7-0.7-0.7-0.5 0-0.8 0.3-0.8 0.7 0 0.5 0.3 0.8 0.8 0.8z"/>
	<path id="Layer" class="s1" d="m0.3 102.5c-0.1 0-0.2 0-0.2 0.1 0 0.1 0.1 0.2 0.2 0.2 0 0 0.1-0.1 0.1-0.2 0-0.1-0.1-0.1-0.1-0.1z"/>
	<path id="Layer" class="s1" d="m7.1 102.6c0-0.2-0.2-0.4-0.4-0.4-0.3 0-0.5 0.2-0.5 0.4 0 0.3 0.2 0.5 0.5 0.5 0.2 0 0.4-0.2 0.4-0.5z"/>
	<path id="Layer" class="s1" d="m13 101.9c-0.4 0-0.7 0.3-0.7 0.7 0 0.4 0.3 0.8 0.7 0.8 0.5 0 0.8-0.3 0.8-0.8 0-0.4-0.3-0.7-0.8-0.7z"/>
	<path id="Layer" class="s1" d="m0.4 109q0-0.1-0.1-0.1-0.1 0-0.1 0.1 0 0.1 0.1 0.1 0.1 0 0.1-0.1z"/>
	<path id="Layer" class="s1" d="m6.7 109.4c0.2 0 0.3-0.2 0.3-0.4 0-0.2-0.1-0.4-0.3-0.4-0.3 0-0.4 0.2-0.4 0.4 0 0.2 0.1 0.4 0.4 0.4z"/>
	<path id="Layer" class="s1" d="m13 108.3c-0.3 0-0.6 0.3-0.6 0.7 0 0.4 0.3 0.7 0.6 0.7 0.4 0 0.7-0.3 0.7-0.7 0-0.4-0.3-0.7-0.7-0.7z"/>
	<path id="Layer" class="s1" d="m0.2 115.4q0 0 0.1 0.1 0-0.1 0-0.1 0 0 0-0.1-0.1 0.1-0.1 0.1z"/>
	<path id="Layer" class="s1" d="m6.6 115.7c0.2 0 0.3-0.1 0.3-0.3 0-0.2-0.1-0.3-0.3-0.3-0.1 0-0.3 0.1-0.3 0.3 0 0.2 0.2 0.3 0.3 0.3z"/>
	<path id="Layer" class="s1" d="m13 114.8c-0.3 0-0.5 0.3-0.5 0.6 0 0.3 0.2 0.6 0.5 0.6 0.4 0 0.6-0.3 0.6-0.6 0-0.3-0.2-0.6-0.6-0.6z"/>
	<path id="Layer" class="s1" d="m19.4 114.5c-0.5 0-0.8 0.4-0.8 0.9 0 0.5 0.3 0.9 0.8 0.9 0.5 0 0.9-0.4 0.9-0.9 0-0.5-0.4-0.9-0.9-0.9z"/>
	<path id="Layer" class="s1" d="m6.8 121.8c0-0.1-0.1-0.2-0.2-0.2-0.1 0-0.1 0.1-0.1 0.2 0 0.1 0 0.2 0.1 0.2 0.1 0 0.2-0.1 0.2-0.2z"/>
	<path id="Layer" class="s1" d="m13.5 121.8c0-0.3-0.2-0.5-0.5-0.5-0.2 0-0.4 0.2-0.4 0.5 0 0.3 0.2 0.5 0.4 0.5 0.3 0 0.5-0.3 0.5-0.5z"/>
	<path id="Layer" class="s1" d="m19.4 121.1c-0.4 0-0.7 0.3-0.7 0.7 0 0.4 0.3 0.7 0.7 0.7 0.4 0 0.7-0.3 0.7-0.7 0-0.4-0.3-0.7-0.7-0.7z"/>
	<path id="Layer" class="s1" d="m6.6 128.2q0 0 0 0 0.1 0 0.1 0 0-0.1-0.1-0.1 0 0 0 0.1z"/>
	<path id="Layer" class="s1" d="m13.3 128.2c0-0.2-0.1-0.3-0.3-0.3-0.1 0-0.3 0.1-0.3 0.3 0 0.1 0.2 0.3 0.3 0.3 0.2 0 0.3-0.2 0.3-0.3z"/>
	<path id="Layer" class="s1" d="m20 128.2c0-0.3-0.3-0.6-0.6-0.6-0.3 0-0.5 0.3-0.5 0.6 0 0.3 0.2 0.5 0.5 0.5 0.3 0 0.6-0.2 0.6-0.5z"/>
	<path id="Layer" class="s1" d="m26.6 128.2c0-0.4-0.4-0.8-0.8-0.8-0.4 0-0.8 0.4-0.8 0.8 0 0.4 0.4 0.8 0.8 0.8 0.4 0 0.8-0.4 0.8-0.8z"/>
	<path id="Layer" class="s1" d="m32.2 127.2c-0.5 0-1 0.5-1 1 0 0.5 0.5 1 1 1 0.5 0 1-0.5 1-1 0-0.5-0.5-1-1-1z"/>
	<path id="Layer" class="s1" d="m12.9 134.6q0 0.1 0.1 0.1 0.1 0 0.1-0.1 0-0.1-0.1-0.1-0.1 0-0.1 0.1z"/>
	<path id="Layer" class="s1" d="m19.7 134.6c0-0.2-0.1-0.4-0.3-0.4-0.2 0-0.3 0.2-0.3 0.4 0 0.2 0.1 0.3 0.3 0.3 0.2 0 0.3-0.1 0.3-0.3z"/>
	<path id="Layer" class="s1" d="m26.3 134.6c0-0.3-0.2-0.6-0.5-0.6-0.3 0-0.6 0.3-0.6 0.6 0 0.3 0.3 0.5 0.6 0.5 0.3 0 0.5-0.2 0.5-0.5z"/>
	<path id="Layer" class="s1" d="m32.9 134.6c0-0.4-0.3-0.7-0.7-0.7-0.4 0-0.7 0.3-0.7 0.7 0 0.4 0.3 0.7 0.7 0.7 0.4 0 0.7-0.3 0.7-0.7z"/>
	<path id="Layer" class="s1" d="m38.6 133.7c-0.5 0-0.9 0.4-0.9 0.9 0 0.5 0.4 0.9 0.9 0.9 0.5 0 0.9-0.4 0.9-0.9 0-0.5-0.4-0.9-0.9-0.9z"/>
	<path id="Layer" class="s1" d="m45 133.6c-0.6 0-1 0.4-1 1 0 0.6 0.4 1 1 1 0.5 0 1-0.4 1-1 0-0.6-0.5-1-1-1z"/>
	<path id="Layer" class="s1" d="m52.4 134.6c0-0.6-0.4-1.1-1-1.1-0.7 0-1.1 0.5-1.1 1.1 0 0.6 0.4 1.1 1 1.1 0.7 0 1.1-0.5 1.1-1.1z"/>
	<path id="Layer" class="s1" d="m57.7 133.5c-0.6 0-1.1 0.5-1.1 1.1 0 0.6 0.5 1.1 1.1 1.1 0.7 0 1.2-0.5 1.2-1.1 0-0.6-0.5-1.1-1.2-1.1z"/>
	<path id="Layer" class="s1" d="m64.1 133.5c-0.6 0-1.1 0.5-1.1 1.1 0 0.6 0.5 1.1 1.1 1.1 0.6 0 1.1-0.5 1.1-1.1 0-0.6-0.5-1.1-1.1-1.1z"/>
	<path id="Layer" class="s1" d="m71.5 134.6c0-0.5-0.4-1-1-1-0.5 0-1 0.5-1 1 0 0.6 0.5 1.1 1 1.1 0.6 0 1-0.5 1-1.1z"/>
	<path id="Layer" class="s1" d="m77.9 134.6c0-0.4-0.3-0.8-0.8-0.8q-0.1-0.1-0.2-0.1c-0.5 0-0.9 0.4-0.9 0.9 0 0.5 0.4 0.9 0.9 0.9q0.1 0 0.2 0c0.5 0 0.8-0.4 0.8-0.9z"/>
	<path id="Layer" class="s1" d="m19.3 141q0 0.1 0.1 0.1 0.1 0 0.1-0.1 0-0.1-0.1-0.1-0.1 0-0.1 0.1z"/>
	<path id="Layer" class="s1" d="m26.1 141c0-0.2-0.1-0.3-0.3-0.3-0.2 0-0.3 0.1-0.3 0.3 0 0.1 0.1 0.3 0.3 0.3 0.2 0 0.3-0.2 0.3-0.3z"/>
	<path id="Layer" class="s1" d="m32.6 141c0-0.3-0.2-0.5-0.4-0.5-0.3 0-0.5 0.2-0.5 0.5 0 0.2 0.2 0.4 0.5 0.4 0.2 0 0.4-0.2 0.4-0.4z"/>
	<path id="Layer" class="s1" d="m39.2 141c0-0.3-0.3-0.6-0.6-0.6-0.4 0-0.6 0.3-0.6 0.6 0 0.3 0.2 0.6 0.6 0.6 0.3 0 0.6-0.3 0.6-0.6z"/>
	<path id="Layer" class="s1" d="m45.7 141c0-0.4-0.3-0.7-0.7-0.7-0.4 0-0.8 0.3-0.8 0.7 0 0.4 0.4 0.7 0.8 0.7 0.4 0 0.7-0.3 0.7-0.7z"/>
	<path id="Layer" class="s1" d="m52.1 141c0-0.4-0.3-0.8-0.8-0.8-0.4 0-0.7 0.4-0.7 0.8 0 0.4 0.3 0.8 0.7 0.8 0.5 0 0.8-0.4 0.8-0.8z"/>
	<path id="Layer" class="s1" d="m58.6 141c0-0.4-0.4-0.8-0.9-0.8-0.4 0-0.8 0.4-0.8 0.8 0 0.5 0.4 0.8 0.8 0.8 0.5 0 0.9-0.3 0.9-0.8z"/>
	<path id="Layer" class="s1" d="m64.9 141c0-0.4-0.3-0.8-0.8-0.8-0.4 0-0.8 0.4-0.8 0.8 0 0.4 0.4 0.8 0.8 0.8 0.5 0 0.8-0.4 0.8-0.8z"/>
	<path id="Layer" class="s1" d="m71.2 141c0-0.4-0.3-0.7-0.7-0.7-0.4 0-0.7 0.3-0.7 0.7 0 0.4 0.3 0.7 0.7 0.7 0.4 0 0.7-0.3 0.7-0.7z"/>
	<path id="Layer" class="s1" d="m25.7 147.4q0 0 0.1 0 0.1 0 0.1 0 0-0.1-0.1-0.1-0.1 0-0.1 0.1z"/>
	<path id="Layer" class="s1" d="m32.4 147.4c0-0.1-0.1-0.2-0.2-0.2-0.1 0-0.2 0.1-0.2 0.2 0 0.1 0.1 0.2 0.2 0.2 0.1 0 0.2-0.1 0.2-0.2z"/>
	<path id="Layer" class="s1" d="m38.9 147.4c0-0.2-0.2-0.3-0.3-0.3-0.2 0-0.4 0.1-0.4 0.3 0 0.2 0.2 0.3 0.4 0.3 0.1 0 0.3-0.1 0.3-0.3z"/>
	<path id="Layer" class="s1" d="m45.4 147.4c0-0.2-0.2-0.4-0.4-0.4-0.3 0-0.5 0.2-0.5 0.4 0 0.2 0.2 0.4 0.5 0.4 0.2 0 0.4-0.2 0.4-0.4z"/>
	<path id="Layer" class="s1" d="m51.8 147.4c0-0.3-0.2-0.5-0.5-0.5-0.2 0-0.4 0.2-0.4 0.5 0 0.3 0.2 0.5 0.4 0.5 0.3 0 0.5-0.2 0.5-0.5z"/>
	<path id="Layer" class="s1" d="m58.2 147.4c0-0.3-0.2-0.5-0.5-0.5-0.2 0-0.5 0.2-0.5 0.5 0 0.3 0.3 0.5 0.5 0.5 0.3 0 0.5-0.2 0.5-0.5z"/>
	<path id="Layer" class="s1" d="m64.1 147.9c0.3 0 0.5-0.2 0.5-0.5 0-0.3-0.2-0.5-0.5-0.5-0.2 0-0.5 0.2-0.5 0.5 0 0.3 0.3 0.5 0.5 0.5z"/>
	<path id="Layer" class="s1" d="m70.9 147.4c0-0.2-0.2-0.4-0.4-0.4-0.2 0-0.4 0.2-0.4 0.4 0 0.2 0.2 0.4 0.4 0.4 0.2 0 0.4-0.2 0.4-0.4z"/>
	<path id="Layer" class="s1" d="m32.2 153.8q0 0 0 0 0 0 0 0 0-0.1 0-0.1 0 0 0 0.1z"/>
	<path id="Layer" class="s1" d="m38.5 153.8q0 0 0.1 0 0 0 0 0 0-0.1 0-0.1-0.1 0-0.1 0.1z"/>
	<path id="Layer" class="s1" d="m44.8 153.8q0 0.1 0.1 0.1 0.2 0 0.2-0.1 0-0.1-0.2-0.2-0.1 0.1-0.1 0.2z"/>
	<path id="Layer" class="s1" d="m51.2 153.8c0 0.1 0 0.2 0.1 0.2 0.1 0 0.2-0.1 0.2-0.2 0-0.1-0.1-0.2-0.2-0.2-0.1 0-0.1 0.1-0.1 0.2z"/>
	<path id="Layer" class="s1" d="m57.5 153.8c0 0.1 0.1 0.2 0.2 0.2 0.1 0 0.2-0.1 0.2-0.2 0-0.1-0.1-0.2-0.2-0.2-0.1 0-0.2 0.1-0.2 0.2z"/>
	<path id="Layer" class="s1" d="m64.1 154c0.1 0 0.2-0.1 0.2-0.2 0-0.1-0.1-0.2-0.2-0.2-0.1 0-0.2 0.1-0.2 0.2 0 0.1 0.1 0.2 0.2 0.2z"/>
	<path id="Layer" class="s1" d="m70.5 153.7q-0.1 0-0.1 0.1 0 0.1 0.1 0.1 0.1 0 0.1-0.1 0-0.1-0.1-0.1z"/>
	<path id="Layer" class="s1" d="m83.4 133.6c-0.6 0-1 0.5-1 1 0 0.6 0.4 1 1 1 0.6 0 1-0.4 1-1 0-0.5-0.4-1-1-1z"/>
	<path id="Layer" class="s1" d="m110 134.7c0-0.6-0.5-1.1-1-1.1-0.6 0-1.1 0.5-1.1 1.1 0 0.5 0.5 1 1.1 1 0.5 0 1-0.5 1-1z"/>
	<path id="Layer" class="s1" d="m77.6 141c0-0.3-0.2-0.6-0.5-0.6q-0.1 0-0.2 0c-0.3 0-0.6 0.3-0.6 0.6 0 0.4 0.3 0.6 0.6 0.6q0.1 0 0.2 0c0.3 0 0.5-0.3 0.5-0.6z"/>
	<path id="Layer" class="s1" d="m84.1 141c0-0.4-0.3-0.7-0.7-0.7-0.4 0-0.7 0.3-0.7 0.7 0 0.4 0.3 0.8 0.7 0.8 0.4 0 0.7-0.4 0.7-0.8z"/>
	<path id="Layer" class="s1" d="m109.7 141c0-0.4-0.3-0.7-0.7-0.7-0.4 0-0.8 0.3-0.8 0.7 0 0.4 0.4 0.8 0.8 0.8 0.4 0 0.7-0.4 0.7-0.8z"/>
	<path id="Layer" class="s1" d="m77.3 147.4c0-0.2-0.1-0.3-0.3-0.3q0 0-0.1 0c-0.2 0-0.3 0.1-0.3 0.3 0 0.2 0.1 0.3 0.3 0.3q0.1 0 0.1 0c0.2 0 0.3-0.1 0.3-0.3z"/>
	<path id="Layer" class="s1" d="m83.8 147.4c0-0.2-0.2-0.4-0.4-0.4-0.2 0-0.4 0.2-0.4 0.4 0 0.2 0.2 0.4 0.4 0.4 0.2 0 0.4-0.2 0.4-0.4z"/>
	<path id="Layer" class="s1" d="m103 147.4c0-0.2-0.2-0.4-0.4-0.4-0.3 0-0.5 0.2-0.5 0.4 0 0.3 0.2 0.5 0.5 0.5 0.2 0 0.4-0.2 0.4-0.5z"/>
	<path id="Layer" class="s1" d="m109.4 147.4c0-0.2-0.2-0.4-0.5-0.4-0.2 0-0.4 0.2-0.4 0.4 0 0.3 0.2 0.5 0.4 0.5 0.3 0 0.5-0.2 0.5-0.5z"/>
	<path id="Layer" class="s1" d="m76.9 153.8q0-0.1 0-0.1-0.1 0-0.1 0.1 0 0 0.1 0.1 0-0.1 0-0.1 0 0 0.1 0.1 0-0.1 0.1-0.1-0.1 0-0.1-0.1 0 0.1-0.1 0.1z"/>
	<path id="Layer" class="s1" d="m83.3 153.8q0 0.1 0.1 0.1 0.1 0 0.1-0.1 0-0.1-0.1-0.1-0.1 0-0.1 0.1z"/>
	<path id="Layer" class="s1" d="m89.8 153.6c-0.1 0-0.2 0.1-0.2 0.2 0 0.1 0.1 0.2 0.2 0.2 0.1 0 0.2-0.1 0.2-0.2 0-0.1-0.1-0.2-0.2-0.2z"/>
	<path id="Layer" class="s1" d="m96.4 153.8c0-0.1-0.1-0.2-0.2-0.2-0.1 0-0.2 0.1-0.2 0.2 0 0.1 0.1 0.2 0.2 0.2 0.1 0 0.2-0.1 0.2-0.2z"/>
	<path id="Layer" class="s1" d="m102.4 153.8c0 0.1 0.1 0.2 0.2 0.2 0 0 0.1-0.1 0.1-0.2 0-0.1-0.1-0.2-0.1-0.2-0.1 0-0.2 0.1-0.2 0.2z"/>
	<path id="Layer" class="s1" d="m108.8 153.8q0 0.1 0.1 0.1 0.2 0 0.2-0.1 0-0.1-0.2-0.1-0.1 0-0.1 0.1z"/>
	<path id="Layer" class="s1" d="m185.7 70.8q0 0 0 0-0.1 0-0.1 0 0 0.1 0.1 0.1 0 0 0-0.1z"/>
	<path id="Layer" class="s1" d="m185.6 77.2q0 0.1 0.1 0.1 0 0 0-0.1 0 0 0 0-0.1 0-0.1 0z"/>
	<path id="Layer" class="s1" d="m185.6 83.5q-0.1 0-0.1 0.1 0 0.1 0.1 0.1 0.2 0 0.2-0.1 0-0.1-0.2-0.1z"/>
	<path id="Layer" class="s1" d="m185.6 89.8c-0.1 0-0.1 0.1-0.1 0.2 0 0.1 0 0.2 0.1 0.2 0.1 0 0.2-0.1 0.2-0.2 0-0.1-0.1-0.2-0.2-0.2z"/>
	<path id="Layer" class="s1" d="m185.6 96.2c-0.1 0-0.2 0.1-0.2 0.2 0 0.1 0.1 0.2 0.2 0.2 0.1 0 0.2-0.1 0.2-0.2 0-0.1-0.1-0.2-0.2-0.2z"/>
	<path id="Layer" class="s1" d="m185.8 102.8c0-0.1-0.1-0.2-0.2-0.2-0.1 0-0.1 0.1-0.1 0.2 0 0.1 0 0.2 0.1 0.2 0.1 0 0.2-0.1 0.2-0.2z"/>
	<path id="Layer" class="s1" d="m179.2 108.7c-0.2 0-0.4 0.2-0.4 0.5 0 0.2 0.2 0.4 0.4 0.4 0.3 0 0.5-0.2 0.5-0.4 0-0.3-0.2-0.5-0.5-0.5z"/>
	<path id="Layer" class="s1" d="m185.8 109.2q-0.1-0.1-0.2-0.2-0.1 0.1-0.1 0.2 0 0.1 0.1 0.1 0.1 0 0.1-0.1z"/>
	<path id="Layer" class="s1" d="m179.6 115.6c0-0.2-0.2-0.4-0.4-0.4-0.2 0-0.3 0.2-0.3 0.4 0 0.1 0.1 0.3 0.3 0.3 0.2 0 0.4-0.2 0.4-0.3z"/>
	<path id="Layer" class="s1" d="m185.7 115.6q0-0.1-0.1-0.1 0 0 0 0.1 0 0 0 0 0.1 0 0.1 0z"/>
	<path id="Layer" class="s1" d="m173.3 121.9c0-0.2-0.2-0.5-0.5-0.5-0.2 0-0.5 0.3-0.5 0.5 0 0.3 0.3 0.5 0.5 0.5 0.3 0 0.5-0.2 0.5-0.5z"/>
	<path id="Layer" class="s1" d="m179.4 121.9c0-0.1-0.1-0.2-0.2-0.2-0.1 0-0.2 0.1-0.2 0.2 0 0.2 0.1 0.3 0.2 0.3 0.1 0 0.2-0.1 0.2-0.3z"/>
	<path id="Layer" class="s1" d="m185.6 121.9q0 0.1 0 0.1 0 0 0-0.1 0 0 0 0 0 0 0 0z"/>
	<path id="Layer" class="s1" d="m160.9 128.3c0-0.4-0.4-0.8-0.8-0.8-0.5 0-0.8 0.4-0.8 0.8 0 0.5 0.3 0.8 0.8 0.8 0.4 0 0.8-0.3 0.8-0.8z"/>
	<path id="Layer" class="s1" d="m167 128.3c0-0.3-0.2-0.6-0.6-0.6-0.3 0-0.5 0.3-0.5 0.6 0 0.3 0.2 0.6 0.5 0.6 0.4 0 0.6-0.3 0.6-0.6z"/>
	<path id="Layer" class="s1" d="m173.2 128.3c0-0.2-0.2-0.3-0.4-0.3-0.1 0-0.3 0.1-0.3 0.3 0 0.2 0.2 0.3 0.3 0.3 0.2 0 0.4-0.1 0.4-0.3z"/>
	<path id="Layer" class="s1" d="m179.1 128.3q0.1 0.1 0.1 0.1 0.1 0 0.1-0.1 0 0-0.1 0 0 0-0.1 0z"/>
	<path id="Layer" class="s1" d="m115.3 133.7c-0.5 0-1 0.4-1 1 0 0.5 0.5 1 1 1 0.6 0 1-0.5 1-1 0-0.6-0.4-1-1-1z"/>
	<path id="Layer" class="s1" d="m122.8 134.7c0-0.6-0.5-1.1-1.1-1.1-0.6 0-1.1 0.5-1.1 1.1 0 0.6 0.5 1.1 1.1 1.1 0.6 0 1.1-0.5 1.1-1.1z"/>
	<path id="Layer" class="s1" d="m128.1 133.6c-0.6 0-1.1 0.5-1.1 1.1 0 0.6 0.5 1.1 1.1 1.1 0.6 0 1.1-0.5 1.1-1.1 0-0.6-0.5-1.1-1.1-1.1z"/>
	<path id="Layer" class="s1" d="m134.5 133.6c-0.6 0-1.1 0.5-1.1 1.1 0 0.6 0.5 1.1 1.1 1.1 0.6 0 1.1-0.5 1.1-1.1 0-0.6-0.5-1.1-1.1-1.1z"/>
	<path id="Layer" class="s1" d="m141.9 134.7c0-0.6-0.4-1-1-1-0.6 0-1 0.4-1 1 0 0.6 0.4 1 1 1 0.6 0 1-0.4 1-1z"/>
	<path id="Layer" class="s1" d="m148.2 134.7c0-0.5-0.4-0.9-0.9-0.9-0.5 0-0.9 0.4-0.9 0.9 0 0.5 0.4 0.9 0.9 0.9 0.5 0 0.9-0.4 0.9-0.9z"/>
	<path id="Layer" class="s1" d="m154.4 134.7c0-0.4-0.3-0.7-0.7-0.7-0.5 0-0.8 0.3-0.8 0.7 0 0.4 0.3 0.7 0.8 0.7 0.4 0 0.7-0.3 0.7-0.7z"/>
	<path id="Layer" class="s1" d="m160.6 134.7c0-0.3-0.2-0.6-0.5-0.6-0.4 0-0.6 0.3-0.6 0.6 0 0.3 0.2 0.6 0.5 0.6 0.4 0 0.6-0.3 0.6-0.6z"/>
	<path id="Layer" class="s1" d="m166.8 134.7c0-0.2-0.2-0.3-0.4-0.3-0.2 0-0.3 0.1-0.3 0.3 0 0.2 0.1 0.4 0.3 0.4 0.2 0 0.4-0.2 0.4-0.4z"/>
	<path id="Layer" class="s1" d="m172.9 134.7q0-0.1-0.1-0.1-0.1 0-0.1 0.1 0 0.1 0.1 0.1 0.1 0 0.1-0.1z"/>
	<path id="Layer" class="s1" d="m116 141.1c0-0.4-0.3-0.8-0.7-0.8-0.4 0-0.7 0.4-0.7 0.8 0 0.4 0.3 0.7 0.7 0.7 0.4 0 0.7-0.3 0.7-0.7z"/>
	<path id="Layer" class="s1" d="m122.5 141.1c0-0.5-0.4-0.8-0.8-0.8-0.4 0-0.8 0.3-0.8 0.8 0 0.4 0.4 0.7 0.8 0.7 0.4 0 0.8-0.3 0.8-0.7z"/>
	<path id="Layer" class="s1" d="m128.9 141.1c0-0.5-0.3-0.9-0.8-0.9-0.4 0-0.8 0.4-0.8 0.9 0 0.4 0.4 0.8 0.8 0.8 0.5 0 0.8-0.4 0.8-0.8z"/>
	<path id="Layer" class="s1" d="m135.3 141.1c0-0.5-0.4-0.8-0.8-0.8-0.5 0-0.8 0.3-0.8 0.8 0 0.4 0.3 0.8 0.8 0.8 0.4 0 0.8-0.4 0.8-0.8z"/>
	<path id="Layer" class="s1" d="m141.6 141.1c0-0.4-0.3-0.8-0.7-0.8-0.4 0-0.7 0.4-0.7 0.8 0 0.4 0.3 0.7 0.7 0.7 0.4 0 0.7-0.3 0.7-0.7z"/>
	<path id="Layer" class="s1" d="m147.9 141.1c0-0.4-0.3-0.6-0.6-0.6-0.4 0-0.7 0.2-0.7 0.6 0 0.3 0.3 0.6 0.7 0.6 0.3 0 0.6-0.3 0.6-0.6z"/>
	<path id="Layer" class="s1" d="m154.2 141.1c0-0.3-0.3-0.5-0.5-0.5-0.3 0-0.5 0.2-0.5 0.5 0 0.3 0.2 0.5 0.5 0.5 0.2 0 0.5-0.2 0.5-0.5z"/>
	<path id="Layer" class="s1" d="m160.4 141.1c0-0.2-0.2-0.3-0.4-0.3-0.1 0-0.3 0.1-0.3 0.3 0 0.2 0.2 0.3 0.3 0.3 0.2 0 0.4-0.1 0.4-0.3z"/>
	<path id="Layer" class="s1" d="m166.3 141.1q0 0.1 0.1 0.1 0.1 0 0.2-0.1-0.1-0.1-0.2-0.1-0.1 0-0.1 0.1z"/>
	<path id="Layer" class="s1" d="m172.8 141.1q0 0 0 0 0 0 0 0 0 0 0 0 0 0 0 0z"/>
	<path id="Layer" class="s1" d="m115.7 147.4c0-0.2-0.2-0.4-0.4-0.4-0.2 0-0.4 0.2-0.4 0.4 0 0.3 0.2 0.4 0.4 0.4 0.2 0 0.4-0.1 0.4-0.4z"/>
	<path id="Layer" class="s1" d="m122.2 147.4c0-0.2-0.2-0.4-0.5-0.4-0.3 0-0.5 0.2-0.5 0.4 0 0.3 0.2 0.5 0.5 0.5 0.3 0 0.5-0.2 0.5-0.5z"/>
	<path id="Layer" class="s1" d="m128.6 147.5c0-0.3-0.2-0.5-0.5-0.5-0.3 0-0.5 0.2-0.5 0.5 0 0.2 0.2 0.4 0.5 0.4 0.3 0 0.5-0.2 0.5-0.4z"/>
	<path id="Layer" class="s1" d="m135 147.5c0-0.3-0.3-0.5-0.5-0.5-0.3 0-0.5 0.2-0.5 0.5 0 0.2 0.2 0.4 0.5 0.4 0.2 0 0.5-0.2 0.5-0.4z"/>
	<path id="Layer" class="s1" d="m141.3 147.5c0-0.3-0.2-0.5-0.4-0.5-0.3 0-0.5 0.2-0.5 0.5 0 0.2 0.2 0.4 0.5 0.4 0.2 0 0.4-0.2 0.4-0.4z"/>
	<path id="Layer" class="s1" d="m147.6 147.5c0-0.2-0.2-0.4-0.3-0.4-0.2 0-0.4 0.2-0.4 0.4 0 0.2 0.2 0.3 0.4 0.3 0.1 0 0.3-0.1 0.3-0.3z"/>
	<path id="Layer" class="s1" d="m153.9 147.5c0-0.1-0.1-0.2-0.3-0.2-0.1 0-0.2 0.1-0.2 0.2 0 0.1 0.1 0.2 0.2 0.2 0.2 0 0.3-0.1 0.3-0.2z"/>
	<path id="Layer" class="s1" d="m160 147.5q0 0 0 0 0.1 0 0.1 0 0-0.1-0.1-0.1 0 0 0 0.1z"/>
	<path id="Layer" class="s1" d="m115.2 153.8q0 0.1 0.1 0.2 0.1-0.1 0.1-0.2 0-0.1-0.1-0.1-0.1 0-0.1 0.1z"/>
	<path id="Layer" class="s1" d="m121.5 153.8c0 0.1 0.1 0.2 0.2 0.2 0.1 0 0.2-0.1 0.2-0.2 0-0.1-0.1-0.1-0.2-0.1-0.1 0-0.2 0-0.2 0.1z"/>
	<path id="Layer" class="s1" d="m127.9 153.8c0 0.1 0.1 0.2 0.2 0.2 0.1 0 0.2-0.1 0.2-0.2 0-0.1-0.1-0.2-0.2-0.2-0.1 0-0.2 0.1-0.2 0.2z"/>
	<path id="Layer" class="s1" d="m134.3 153.8c0 0.1 0.1 0.2 0.2 0.2 0.1 0 0.2-0.1 0.2-0.2 0-0.1-0.1-0.1-0.2-0.1-0.1 0-0.2 0-0.2 0.1z"/>
	<path id="Layer" class="s1" d="m140.7 153.9q0.1 0.1 0.2 0.1 0.1 0 0.1-0.1 0-0.2-0.1-0.2-0.1 0-0.2 0.2z"/>
	<path id="Layer" class="s1" d="m147.2 153.9q0 0 0.1 0 0 0 0 0 0-0.1 0-0.1-0.1 0-0.1 0.1z"/>
	<path id="Layer" class="s1" d="m153.6 153.9q0 0 0 0 0.1 0 0.1 0 0-0.1-0.1-0.1 0 0 0 0.1z"/>
	<path id="Layer" class="s1" d="m38.7 0.5q0 0 0 0 0 0 0 0 0 0.1 0 0.1 0 0 0-0.1z"/>
	<path id="Layer" class="s1" d="m45.2 0.5q0-0.1-0.1-0.1-0.1 0-0.1 0.1 0 0.1 0.1 0.1 0.1 0 0.1-0.1z"/>
	<path id="Layer" class="s1" d="m51.6 0.5c0 0-0.1-0.1-0.1-0.1-0.1 0-0.2 0.1-0.2 0.1 0 0.1 0.1 0.2 0.2 0.2 0 0 0.1-0.1 0.1-0.2z"/>
	<path id="Layer" class="s1" d="m58 0.5c0 0-0.1-0.1-0.1-0.1-0.1 0-0.2 0.1-0.2 0.1 0 0.1 0.1 0.2 0.2 0.2 0 0 0.1-0.1 0.1-0.2z"/>
	<path id="Layer" class="s1" d="m64.4 0.5c0 0-0.1-0.1-0.2-0.1 0 0-0.1 0.1-0.1 0.1 0 0.1 0.1 0.2 0.1 0.2 0.1 0 0.2-0.1 0.2-0.2z"/>
	<path id="Layer" class="s1" d="m70.7 0.5q0 0-0.1-0.1-0.1 0.1-0.1 0.1 0 0.1 0.1 0.2 0.1-0.1 0.1-0.2z"/>
	<path id="Layer" class="s1" d="m77.1 0.6q0-0.1-0.1-0.1 0 0 0 0.1 0 0 0 0 0.1 0 0.1 0z"/>
	<path id="Layer" class="s1" d="m26 6.9q0 0-0.1-0.1 0 0.1 0 0.1 0 0 0 0.1 0.1-0.1 0.1-0.1z"/>
	<path id="Layer" class="s1" d="m32.5 6.9c0-0.1-0.1-0.2-0.2-0.2-0.1 0-0.2 0.1-0.2 0.2 0 0.1 0.1 0.2 0.2 0.2 0.1 0 0.2-0.1 0.2-0.2z"/>
	<path id="Layer" class="s1" d="m38.4 6.9c0 0.2 0.1 0.3 0.3 0.3 0.1 0 0.3-0.1 0.3-0.3 0-0.2-0.2-0.3-0.3-0.3-0.2 0-0.3 0.1-0.3 0.3z"/>
	<path id="Layer" class="s1" d="m44.7 6.9c0 0.2 0.2 0.4 0.4 0.4 0.2 0 0.4-0.2 0.4-0.4 0-0.2-0.2-0.4-0.4-0.4-0.2 0-0.4 0.2-0.4 0.4z"/>
	<path id="Layer" class="s1" d="m51 6.9c0 0.3 0.2 0.5 0.5 0.5 0.2 0 0.4-0.2 0.4-0.5 0-0.2-0.2-0.4-0.4-0.4-0.3 0-0.5 0.2-0.5 0.4z"/>
	<path id="Layer" class="s1" d="m57.4 6.9c0 0.3 0.2 0.5 0.4 0.5 0.3 0 0.5-0.2 0.5-0.5 0-0.2-0.2-0.4-0.4-0.4-0.3 0-0.5 0.2-0.5 0.4z"/>
	<path id="Layer" class="s1" d="m63.8 6.9c0 0.3 0.2 0.5 0.4 0.5 0.3 0 0.5-0.2 0.5-0.5 0-0.2-0.2-0.4-0.5-0.4-0.2 0-0.4 0.2-0.4 0.4z"/>
	<path id="Layer" class="s1" d="m70.2 6.9c0 0.3 0.2 0.4 0.4 0.4 0.2 0 0.4-0.1 0.4-0.4 0-0.2-0.2-0.4-0.4-0.4-0.2 0-0.4 0.2-0.4 0.4z"/>
	<path id="Layer" class="s1" d="m76.7 6.9c0 0.2 0.1 0.3 0.3 0.3 0.2 0 0.3-0.1 0.3-0.3 0-0.1-0.1-0.3-0.3-0.3-0.2 0-0.3 0.2-0.3 0.3z"/>
	<path id="Layer" class="s1" d="m83.6 6.9c0 0-0.1-0.1-0.2-0.1-0.1 0-0.2 0.1-0.2 0.1 0 0.1 0.1 0.2 0.2 0.2 0.1 0 0.2-0.1 0.2-0.2z"/>
	<path id="Layer" class="s1" d="m89.8 7q0-0.1 0-0.1-0.1 0-0.1 0.1 0 0 0.1 0 0 0 0 0z"/>
	<path id="Layer" class="s1" d="m19.6 13.3q0-0.1-0.1-0.1-0.1 0-0.1 0.1 0 0.1 0.1 0.1 0.1 0 0.1-0.1z"/>
	<path id="Layer" class="s1" d="m25.6 13.3c0 0.1 0.2 0.3 0.3 0.3 0.1 0 0.3-0.2 0.3-0.3 0-0.2-0.2-0.3-0.3-0.3-0.1 0-0.3 0.1-0.3 0.3z"/>
	<path id="Layer" class="s1" d="m13.2 19.7q0-0.1-0.1-0.1-0.1 0-0.1 0.1 0 0 0.1 0.1 0.1-0.1 0.1-0.1z"/>
	<path id="Layer" class="s1" d="m19.2 19.7c0 0.1 0.1 0.3 0.3 0.3 0.2 0 0.3-0.2 0.3-0.3 0-0.2-0.1-0.3-0.3-0.3-0.2 0-0.3 0.1-0.3 0.3z"/>
	<path id="Layer" class="s1" d="m6.8 26.1q0-0.1-0.1-0.1 0 0 0 0 0 0.1 0 0.1 0.1 0 0.1 0z"/>
	<path id="Layer" class="s1" d="m12.8 26.1c0 0.1 0.2 0.2 0.3 0.2 0.2 0 0.3-0.1 0.3-0.2 0-0.2-0.1-0.3-0.3-0.3-0.1 0-0.3 0.1-0.3 0.3z"/>
	<path id="Layer" class="s1" d="m6.6 32.4c0 0.1 0 0.2 0.1 0.2 0.1 0 0.2-0.1 0.2-0.2 0 0-0.1-0.1-0.2-0.1-0.1 0-0.1 0.1-0.1 0.1z"/>
	<path id="Layer" class="s1" d="m12.7 32.4c0 0.3 0.2 0.5 0.4 0.5 0.3 0 0.5-0.2 0.5-0.5 0-0.2-0.2-0.4-0.5-0.4-0.2 0-0.4 0.2-0.4 0.4z"/>
	<path id="Layer" class="s1" d="m0.4 38.8q0 0-0.1 0 0 0 0 0 0 0.1 0 0.1 0.1 0 0.1-0.1z"/>
	<path id="Layer" class="s1" d="m6.4 38.8c0 0.2 0.1 0.3 0.3 0.3 0.2 0 0.3-0.1 0.3-0.3 0-0.1-0.1-0.3-0.3-0.3-0.2 0-0.3 0.2-0.3 0.3z"/>
	<path id="Layer" class="s1" d="m13.1 39.4c0.3 0 0.6-0.2 0.6-0.6 0-0.3-0.3-0.6-0.6-0.6-0.3 0-0.6 0.3-0.6 0.6 0 0.4 0.3 0.6 0.6 0.6z"/>
	<path id="Layer" class="s1" d="m0.2 45.2q0 0.1 0.1 0.1 0.1 0 0.1-0.1 0-0.1-0.1-0.1-0.1 0-0.1 0.1z"/>
	<path id="Layer" class="s1" d="m6.7 45.6c0.2 0 0.4-0.2 0.4-0.4 0-0.2-0.2-0.4-0.4-0.4-0.2 0-0.4 0.2-0.4 0.4 0 0.2 0.2 0.4 0.4 0.4z"/>
	<path id="Layer" class="s1" d="m13.1 45.9c0.4 0 0.7-0.3 0.7-0.7 0-0.4-0.3-0.7-0.7-0.7-0.4 0-0.7 0.3-0.7 0.7 0 0.4 0.3 0.7 0.7 0.7z"/>
	<path id="Layer" class="s1" d="m0.2 51.6c0 0.1 0 0.1 0.1 0.1 0.1 0 0.2 0 0.2-0.1 0-0.1-0.1-0.1-0.2-0.1-0.1 0-0.1 0-0.1 0.1z"/>
	<path id="Layer" class="s1" d="m6.7 52c0.2 0 0.4-0.2 0.4-0.4 0-0.2-0.2-0.4-0.4-0.4-0.2 0-0.4 0.2-0.4 0.4 0 0.2 0.2 0.4 0.4 0.4z"/>
	<path id="Layer" class="s1" d="m0.3 57.8c-0.1 0-0.2 0.1-0.2 0.2 0 0.1 0.1 0.1 0.2 0.1 0.1 0 0.2 0 0.2-0.1 0-0.1-0.1-0.2-0.2-0.2z"/>
	<path id="Layer" class="s1" d="m6.7 58.5c0.3 0 0.5-0.3 0.5-0.5 0-0.3-0.2-0.5-0.5-0.5-0.3 0-0.5 0.2-0.5 0.5 0 0.2 0.2 0.5 0.5 0.5z"/>
	<path id="Layer" fill-rule="evenodd" class="s1" d="m180.4 41.5q0.7 5.5 1.1 11.1 0.7 11.2 0.4 22.4-0.1 5.6-0.5 11.2-0.4 5.6-1.2 11.2-0.3 2.5-0.8 4.9c0.2 0.1 0.3 0.3 0.3 0.5 0 0.2-0.2 0.4-0.4 0.5q-0.5 2.6-1.2 5.2c-0.5 1.9-1 3.7-1.7 5.5q-0.6 1.4-1.2 2.7-0.4 0.7-0.8 1.3-0.4 0.7-0.9 1.3-0.5 0.7-1.1 1.2l-0.5 0.5-0.3 0.3-0.3 0.2q-1.1 1-2.3 1.8c-1.6 1.2-3.3 2.2-5.2 2.9q-0.3 0.2-0.7 0.3-0.3 0.1-0.7 0.2-0.2 0.1-0.3 0.1l-0.2 0.1h-0.1l-0.1 0.1q-0.2 0-0.4 0.1h-0.4q-0.2 0.1-0.4 0.1l-0.4 0.1-0.7 0.1q-0.7 0.1-1.4 0.2-1.7 0.2-3.4 0.4 0 0.1 0.1 0.3c-0.1 0.6-0.5 1-1 1-0.6 0-1-0.5-1-1q0-0.1 0-0.1-0.1 0-0.3 0-2 0.2-4 0.3c-0.1 0.6-0.6 1-1.1 1-0.5 0-1-0.3-1.1-0.8q-2.1 0.2-4.2 0.3c-0.3 0.4-0.7 0.6-1.1 0.6-0.4 0-0.7-0.2-1-0.4q-2.3 0.1-4.7 0.3-0.3 0.2-0.7 0.2-0.3 0-0.6-0.2-1.9 0.2-3.8 0.3-10.5 0.5-21.1 0.8c-1.6 3.4-3.5 6.6-5.8 9.5q-0.1 0.1-0.2 0.3c0.2 0.1 0.4 0.4 0.4 0.6 0 0.5-0.4 0.8-0.8 0.8q-0.4 0-0.6-0.2-1.4 1.6-3 3.2-1.2 1.1-2.6 2.2c0.2 0.1 0.3 0.2 0.3 0.4 0 0.3-0.3 0.5-0.5 0.5-0.3 0-0.4-0.1-0.5-0.3q-0.8 0.6-1.6 1.1-0.3 0.2-0.7 0.4l-0.7 0.4v0.1h-0.1l-0.1 0.1q-0.2 0.1-0.3 0.1-0.2 0.1-0.4 0.2-0.1 0-0.3 0-0.7 0.2-1.5 0.1c-0.9-0.1-1.8-0.6-2.4-1.2q-0.5-0.6-0.8-1.2-0.3-0.7-0.4-1.4 0-0.8 0.2-1.5 0-0.1 0.1-0.3 0-0.2 0.1-0.3l0.1-0.3q0.3-0.6 0.6-1.3 0.2-0.6 0.4-1.2 0.2-0.7 0.3-1.3c0.4-1.8 0.5-3.5 0.2-5.2q-0.2-1.3-0.6-2.6-0.3-0.7-0.6-1.3-9 0-18-0.4-2.4-0.1-4.8-0.2l-1.2-0.1h-0.6l-0.7-0.1-2.4-0.1q-3.7-0.3-7.4-0.7-0.3 0.2-0.7 0.2c-0.4 0-0.8-0.1-1-0.4q-0.3 0-0.5-0.1l-2.5-0.3q-0.6-0.1-1.2-0.2c-0.2 0.5-0.7 0.9-1.2 0.9-0.7 0-1.3-0.6-1.3-1.3q-1.8-0.3-3.5-0.7-0.3-0.1-0.6-0.2h-0.3c0.3 0.2 0.5 0.5 0.5 0.9 0 0.6-0.6 1.2-1.2 1.2-0.7 0-1.2-0.6-1.2-1.2 0-0.6 0.5-1.1 1.1-1.2l-0.7-0.2q-0.3 0-0.6-0.1l-0.6-0.2q-0.6-0.2-1.2-0.4-1.2-0.4-2.4-0.9-0.6-0.2-1.2-0.5-0.2-0.1-0.5-0.2-0.3-0.2-0.6-0.3-2-1-3.9-2.3c-0.1 0.5-0.5 0.9-1 0.9-0.5 0-1-0.5-1-1 0-0.4 0.3-0.7 0.6-0.9l-0.2-0.1q-0.5-0.5-1-1-1-1-1.8-2.1c-1-1.4-1.8-2.9-2.5-4.5q-1.1-2.3-1.9-4.6c-1-3.2-1.8-6.4-2.4-9.6q-1-4.8-1.6-9.6-0.3-2.4-0.5-4.8 0-0.3 0-0.6-0.2 0.1-0.4 0.1c-0.4 0-0.7-0.3-0.7-0.6 0-0.4 0.3-0.7 0.7-0.7q0.1 0 0.3 0-0.2-1.5-0.3-3.1 0-1-0.1-2c-0.3 0-0.5-0.2-0.5-0.5q0-0.1 0-0.1 0 0 0 0c0-0.3 0.2-0.5 0.4-0.6q-0.1-2.6-0.1-5.1c-0.3-0.1-0.4-0.4-0.4-0.6 0-0.3 0.1-0.5 0.4-0.6q0-0.1 0-0.2-0.1-2.5-0.1-4.9c-0.2-0.2-0.4-0.4-0.4-0.7 0-0.3 0.2-0.6 0.5-0.7q0-2.5 0.1-5c-0.3 0-0.6-0.3-0.6-0.7 0-0.4 0.3-0.7 0.7-0.8q0.1-2.4 0.3-4.9-0.1 0.1-0.2 0.1c-0.4 0-0.8-0.4-0.8-0.8 0-0.4 0.4-0.8 0.8-0.8q0.2 0 0.3 0.1 0-0.1 0-0.3 0.4-4.8 1.2-9.6c0.5-3.2 1.1-6.4 2-9.6q0.6-2.4 1.5-4.8c0.6-1.5 1.3-3.1 2.2-4.6q0.6-1.1 1.6-2.2 0.4-0.5 1-1 0.1-0.1 0.3-0.2l0.2-0.2 0.5-0.4q2.1-1.5 4.4-2.6 1.1-0.6 2.3-1.1 0.8-0.3 1.6-0.6c-0.2 0-0.4-0.2-0.4-0.4 0-0.3 0.3-0.4 0.5-0.4 0.2 0 0.4 0.2 0.4 0.4q0 0.2-0.1 0.3 0.2-0.1 0.3-0.1 1.2-0.4 2.5-0.7 0.3-0.1 0.6-0.2h0.3q0 0 0-0.1h0.1 0.2c0.3-0.1 0.5-0.1 0.7-0.1q0.3-0.1 0.6-0.1 1.3-0.2 2.5-0.3 1.2-0.1 2.4-0.1 2.4-0.2 4.8-0.3 9.6-0.5 19.2-0.7 9.7-0.3 19.3-0.4 9.6-0.1 19.2 0 9.7 0 19.3 0.3c6.4 0.1 12.8 0.4 19.2 0.8q1.2 0.1 2.4 0.2l1.2 0.1 1.2 0.1q1.3 0.1 2.5 0.2 1.2 0.1 2.4 0.3 1.2 0.1 2.4 0.3 1.2 0.2 2.4 0.4 0.6 0.1 1.2 0.2 0.3 0.1 0.6 0.1l0.6 0.2q1.2 0.3 2.5 0.7c0.8 0.3 1.7 0.5 2.6 0.8 0.9 0.3 1.9 0.7 2.8 1.1q1.3 0.7 2.5 1.6l0.3 0.2q0.2 0.1 0.3 0.2l0.6 0.5q0.3 0.2 0.5 0.5l0.3 0.2q0.2 0.1 0.3 0.3l0.5 0.5h0.1l0.1 0.1 0.1 0.2q0.2 0.1 0.3 0.3 0.5 0.6 0.9 1.3 0.4 0.6 0.7 1.3 0.2 0.3 0.4 0.7 0.1 0.3 0.2 0.7c0.8 1.8 1.3 3.6 1.8 5.5q0.6 2.7 1.1 5.5 0.5 2.8 0.8 5.6zm-1.3 29.2q0.2-8.9-0.4-17.9-0.3-5.5-1-11c-0.4-3.6-1-7.3-1.8-10.8q-0.4-1.3-0.8-2.6-0.3-1.3-0.8-2.5-0.2-0.3-0.3-0.6-0.1-0.3-0.3-0.6-0.2-0.6-0.6-1.1-0.3-0.6-0.6-1-0.1-0.1-0.2-0.2l-0.1-0.1h-0.1v-0.1l-0.5-0.4q-0.1-0.2-0.3-0.3l-0.2-0.2q-0.3-0.2-0.5-0.4l-0.5-0.4q-0.2-0.1-0.3-0.2l-0.2-0.2q-1.1-0.8-2.2-1.4-1.2-0.5-2.4-0.9c-0.9-0.3-1.8-0.6-2.7-0.9q-1.1-0.3-2.2-0.6l-0.5-0.1q-0.3-0.1-0.6-0.1-0.6-0.2-1.2-0.3-0.5-0.1-1.1-0.2l-1.2-0.1q-1.2-0.2-2.3-0.3-1.2-0.2-2.4-0.3-1.2-0.1-2.4-0.2l-1.2-0.1-1.2-0.1q-1.2-0.1-2.4-0.2-4.7-0.3-9.5-0.5-4.8-0.2-9.6-0.3-14.1-0.3-28.2-0.2-0.1 0-0.2 0-3 0-6 0.1-0.3 0-0.6 0-1.7 0-3.4 0-1.1 0.1-2.3 0.1-0.4 0-0.8 0-2.8 0-5.5 0.1-0.5 0-1 0-2.7 0.1-5.4 0.2-0.5 0-1 0-1.6 0.1-3.2 0.1-1.1 0-2.3 0.1-0.3 0-0.7 0-8.1 0.3-16.1 0.7-2.4 0.2-4.8 0.4-1.2 0.1-2.4 0.2-1.1 0.1-2.3 0.2-0.3 0.1-0.5 0.1c-0.2 0-0.4 0.1-0.6 0.1h-0.1q-0.1 0-0.1 0l-0.3 0.1q-0.3 0.1-0.5 0.2-1.2 0.2-2.2 0.6-1.1 0.4-2.2 0.8-1 0.4-2 0.9-2.1 1.1-3.9 2.4l-0.4 0.4-0.2 0.1q-0.1 0.1-0.2 0.2-0.4 0.3-0.7 0.7-0.6 0.8-1.2 1.7c-0.7 1.2-1.4 2.6-1.9 4.1q-0.7 2-1.3 4.1 0 0.1-0.1 0.3-0.1 0.4-0.2 0.8c-0.7 2.8-1.2 5.6-1.6 8.4q-0.7 4.7-1 9.4c-0.5 6.4-0.7 12.7-0.6 19.1 0.2 6.3 0.6 12.6 1.4 18.9q0.4 3.2 1 6.4 0.2 1 0.3 2 0.1 0.5 0.2 0.9 0.4 1.9 0.9 3.8 0.1 0.4 0.2 0.8 0.6 2.3 1.3 4.5 0.8 2.2 1.7 4.3 0.7 1.5 1.6 2.9 0.3 0.5 0.6 0.9 0.4 0.5 0.8 1 0.3 0.3 0.6 0.6 0.3 0.4 0.7 0.7l0.2 0.1 0.1 0.1 0.1 0.1 0.4 0.3q1.9 1.3 3.9 2.3 0.2 0.1 0.5 0.2 0.2 0.1 0.5 0.3 0.5 0.2 1 0.4 1.1 0.4 2.2 0.8 0.3 0.1 0.6 0.2 0.3 0.1 0.5 0.1l0.5 0.2q0.3 0.1 0.6 0.2l0.4 0.1 0.7 0.2 0.6 0.1q0.2 0.1 0.5 0.1c3 0.7 6.1 1.2 9.3 1.6q4.7 0.6 9.4 0.9l2.4 0.2h0.6 0.6l1.2 0.1q2.4 0.1 4.8 0.2c6.3 0.3 12.7 0.4 19.1 0.4h0.8 0.4l0.6 1.1q0.3 0.6 0.6 1.2 0.4 0.9 0.7 1.8 0.6 1.6 0.8 3.3c0.3 2.2 0.2 4.5-0.2 6.6q-0.2 0.8-0.5 1.6-0.2 0.8-0.5 1.6-0.3 0.7-0.6 1.5l-0.2 0.3q0 0 0 0.1 0 0 0 0 0 0 0 0 0 0 0 0 0 0.1 0.1 0.1 0 0.1 0.1 0.1 0 0 0 0 0 0 0 0 0 0 0 0 0.1 0 0.1-0.1 0 0 0 0l0.6-0.3q0.3-0.2 0.6-0.4 2.3-1.5 4.4-3.5 0 0 0.1-0.1 0.3-0.3 0.6-0.5 1.6-1.7 3.1-3.6 0.9-1.1 1.7-2.3 0.6-0.8 1.2-1.8 0.2-0.3 0.4-0.6 1.5-2.4 2.6-5l0.5-1.1 1.2-0.1q11.2-0.2 22.3-0.7 5.5-0.2 11.1-0.6 5.5-0.3 11-0.8 2.8-0.2 5.5-0.5 0.7-0.1 1.4-0.2l0.6-0.1h0.3q0.2-0.1 0.3-0.1h0.3l0.3-0.1h0.1l0.2-0.1q0.1 0 0.3-0.1 0.3-0.1 0.6-0.2 0.3-0.1 0.6-0.2 1.7-0.7 3.3-1.6 0.2-0.2 0.4-0.3 0.4-0.3 0.8-0.6 1.1-0.7 2.1-1.6l0.3-0.2 0.2-0.2 0.5-0.5q0.4-0.3 0.8-0.8 0.4-0.5 0.7-1 0.3-0.5 0.6-1.1 0.6-1.1 1.1-2.4c0.7-1.6 1.2-3.3 1.7-5.1q0.7-2.6 1.2-5.3 0.5-2.7 0.9-5.4 0.8-5.5 1.2-11 0.4-5.5 0.6-11.1 0.1-2 0.1-4 0-0.1 0-0.2z"/>
	<path id="Layer" class="s1" d="m0.3 64.2c-0.1 0-0.1 0.1-0.1 0.2 0 0.1 0 0.1 0.1 0.1 0.1 0 0.1 0 0.1-0.1 0-0.1 0-0.2-0.1-0.2z"/>
	<path id="Layer" class="s1" d="m6.7 63.9c-0.3 0-0.5 0.2-0.5 0.5 0 0.2 0.2 0.4 0.5 0.4 0.2 0 0.4-0.2 0.4-0.4 0-0.3-0.2-0.5-0.4-0.5z"/>
	<path id="Layer" class="s1" d="m0.3 70.7q-0.1 0-0.1 0.1 0 0.1 0.1 0.1 0.1 0 0.1-0.1 0-0.1-0.1-0.1z"/>
	<path id="Layer" class="s1" d="m6.7 70.4c-0.2 0-0.4 0.2-0.4 0.4 0 0.2 0.2 0.4 0.4 0.4 0.2 0 0.4-0.2 0.4-0.4 0-0.2-0.2-0.4-0.4-0.4z"/>
	<path id="Layer" class="s1" d="m0.2 77.2q0 0 0.1 0 0 0 0 0 0-0.1 0-0.1-0.1 0-0.1 0.1z"/>
	<path id="Layer" class="s1" d="m6.7 77.5c0.1 0 0.3-0.2 0.3-0.3q0-0.1 0-0.1 0 0 0 0c0-0.2-0.2-0.3-0.3-0.3-0.2 0-0.3 0.1-0.3 0.3q0 0 0 0 0 0 0 0.1c0 0.1 0.1 0.3 0.3 0.3z"/>
	<path id="Layer" class="s1" d="m140.9 6.5c26.7 0.3 42.8 5.4 44.5 34.5 2.5-25.4-9.2-37.7-44.5-34.5z"/>
	<path id="Layer" fill-rule="evenodd" class="s2" d="m59.2 54.9h0.1c0.5-0.3 0.9-0.1 1 0 0.2 0.2 0.5 0.7 0.2 1.7l-6.1 28.7c-0.2 0.9-0.5 1.2-0.6 1.2-0.2 0.1-0.5 0.1-1.2-0.2l-8.6-6.3c-0.8-0.6-1.9-0.5-2.6 0.1l-3.8 3.8q0 0 0 0 0 0-0.1 0l0.5-7.4 16.9-15.2q0 0 0 0c0.3-0.2 0.6-0.6 0.6-1.1q0.1-0.5-0.2-0.9c-0.2-0.2-0.4-0.3-0.6-0.4-0.4-0.1-0.8-0.1-1.1 0q-0.5 0.1-1 0.4l-20.9 13.2-8.7-2.8c-0.4-0.1-0.6-0.2-0.7-0.3q0 0 0.1-0.1c0.2-0.2 0.6-0.4 1.1-0.6zm-21.2 21.2q0-0.4-0.2-0.7 0.2 0.3 0.2 0.7zm-0.3 0.7l0.1-0.1c-0.2 0.2-0.5 0.4-0.8 0.4q0.4-0.1 0.7-0.3z"/>
</svg>