<?xml version="1.0" encoding="UTF-8"?> <svg xmlns="http://www.w3.org/2000/svg" width="1374" height="1523" viewBox="0 0 1374 1523" fill="none"> <path d="M1273.04 0.423096H100.967C45.7383 0.423096 0.966797 45.1947 0.966797 100.423V1422.44C0.966797 1477.67 45.7382 1522.44 100.967 1522.44H1273.04C1328.27 1522.44 1373.04 1477.67 1373.04 1422.44V100.423C1373.04 45.1946 1328.27 0.423096 1273.04 0.423096Z" fill="black"></path> <path d="M1353.04 1409.34L1353.04 113.519C1353.04 58.2907 1308.27 13.5192 1253.04 13.5192L120.967 13.5192C65.7385 13.5192 20.967 58.2907 20.967 113.519L20.967 1409.34C20.967 1464.57 65.7385 1509.34 120.967 1509.34H1253.04C1308.27 1509.34 1353.04 1464.57 1353.04 1409.34Z" fill="#FAC6FF"></path> <path d="M1273.04 0.423096C1328.27 0.423096 1373.04 45.1946 1373.04 100.423V768.986C1373.04 825.528 1326.05 871.393 1270.05 863.617C1265.14 862.936 1260.26 862.219 1255.41 861.467C1222.14 856.312 1188.43 866.702 1160.42 885.37C1096.21 928.152 1005.24 956.394 902.537 959.995C757.049 965.101 626.902 919.417 559.267 848.459C532.78 820.672 499.243 796.957 460.943 794.346C298.643 783.283 153.222 742.113 45.3475 680.872C16.8048 664.668 0.966797 633.488 0.966797 600.667V100.423C0.966797 45.1945 45.7383 0.423096 100.967 0.423096H1273.04Z" fill="black"></path> <path d="M1253.04 13.5192C1308.27 13.5192 1353.04 58.2907 1353.04 113.519V729.649C1353.04 786.421 1305.64 832.454 1249.57 823.569C1233.45 821.015 1217.53 818.01 1201.84 814.556L1195.24 813.106C1178.39 809.401 1160.82 814.499 1148.57 826.644V826.644C1092.67 882.054 995.457 917.374 888.547 921.126C814.107 923.739 740.197 910.669 680.447 884.326C631.831 862.895 597.179 839.45 576.105 808.012C570.326 799.392 570.423 788.766 580.795 788.438V788.438C598.489 787.879 602.587 764.771 584.885 764.61C343.209 762.404 187.71 715.018 87.627 656.99C78.5332 651.718 69.7149 646.339 61.1846 640.858C35.0999 624.097 20.9668 594.439 20.9668 563.434V113.519C20.9668 58.2906 65.7383 13.5192 120.967 13.5192H1253.04Z" fill="white"></path> <path d="M29.4157 566.581C29.4133 566.58 29.4104 566.583 29.4126 566.584C29.612 566.699 31.6645 567.887 35.3564 570.012C37.2764 571.139 39.6465 572.533 42.3665 574.183C43.7365 575.008 45.2064 575.893 46.7664 576.842C48.3664 577.772 50.0564 578.754 51.8564 579.795C55.4664 581.864 59.3364 584.182 63.5664 586.69C67.9964 589.146 72.6365 591.844 77.6465 594.692C87.7465 600.363 99.2663 606.681 112.166 613.367C118.606 616.713 125.516 620.105 132.556 623.647C136.246 625.35 139.896 627.111 143.626 628.886C145.486 629.776 147.366 630.674 149.246 631.571C151.156 632.461 153.176 633.319 155.146 634.203C159.146 635.951 163.116 637.752 167.126 639.579C171.286 641.327 175.506 643.102 179.766 644.889C181.896 645.78 184.046 646.67 186.206 647.574C188.416 648.445 190.636 649.316 192.866 650.193C197.356 651.929 201.716 653.775 206.406 655.471C211.086 657.174 215.846 658.863 220.536 660.618C225.246 662.36 230.266 663.951 235.146 665.647C237.616 666.472 240.046 667.336 242.576 668.141C245.136 668.927 247.696 669.72 250.276 670.505C255.446 672.064 260.396 673.786 265.796 675.233C286.686 681.486 309.116 686.967 332.146 691.872C343.566 694.425 355.506 696.501 367.266 698.695C373.266 699.684 379.246 700.666 385.216 701.648C391.186 702.63 397.346 703.383 403.346 704.287C406.376 704.706 409.346 705.197 412.406 705.557C415.466 705.924 418.516 706.291 421.566 706.657C424.606 707.037 427.636 707.417 430.656 707.79C432.176 707.973 433.666 708.183 435.196 708.34L439.786 708.805C445.906 709.427 451.996 710.043 458.036 710.652C464.156 711.162 470.226 711.673 476.256 712.177C479.276 712.419 482.266 712.714 485.286 712.917C488.316 713.107 491.336 713.297 494.336 713.48C497.346 713.67 500.336 713.854 503.306 714.043C506.286 714.227 509.216 714.495 512.196 714.607C524.096 715.13 535.716 715.811 547.196 716.073C552.936 716.257 558.586 716.44 564.166 716.617C569.776 716.702 575.306 716.741 580.756 716.852C583.486 716.898 586.186 716.951 588.866 716.997C590.206 717.023 591.546 717.042 592.866 717.069C594.196 717.069 595.526 717.069 596.846 717.069C602.136 717.069 607.326 717.042 612.426 717.069C622.616 717.2 632.436 716.918 641.806 716.859C646.486 716.794 651.066 716.82 655.506 716.689C659.956 716.571 664.276 716.453 668.486 716.368C685.306 716.099 700.006 715.425 712.216 715.111C724.396 714.698 733.996 714.227 740.576 714.03C740.677 714.027 740.777 714.024 740.876 714.021C741.732 713.994 741.86 715.251 741.017 715.399V715.399C737.857 715.942 733.946 716.61 729.336 717.37C724.716 718.116 719.436 719.066 713.426 719.884C701.426 721.58 686.816 723.767 669.806 725.633C665.556 726.138 661.166 726.629 656.636 727.133C652.106 727.657 647.426 728.037 642.616 728.508C632.996 729.392 622.856 730.381 612.216 731.075C601.576 731.828 590.466 732.607 578.926 733.092C573.156 733.386 567.286 733.622 561.306 733.877C555.336 734.028 549.266 734.172 543.126 734.329C540.046 734.401 536.946 734.473 533.826 734.545C530.706 734.617 527.586 734.565 524.426 734.585C518.116 734.585 511.716 734.585 505.256 734.585C498.796 734.558 492.306 734.349 485.726 734.192C482.436 734.107 479.136 734.022 475.816 733.943C472.506 733.845 469.206 733.655 465.876 733.511C459.236 733.19 452.486 732.935 445.766 732.529C439.076 732.037 432.336 731.546 425.566 731.049L420.466 730.675C418.766 730.544 417.096 730.361 415.406 730.211C412.036 729.89 408.656 729.562 405.266 729.241C401.886 728.901 398.496 728.56 395.096 728.22C391.696 727.879 388.376 727.415 385.006 727.015C381.646 726.596 378.276 726.17 374.906 725.751C371.546 725.306 368.126 724.939 364.836 724.409C358.206 723.394 351.556 722.379 344.886 721.364C338.276 720.284 331.806 719.059 325.266 717.881C318.676 716.748 312.376 715.353 306.006 714.024C280.646 708.609 256.286 702.329 234.106 695.113L229.896 693.797C228.506 693.352 227.176 692.874 225.816 692.415C223.116 691.485 220.426 690.556 217.746 689.626C215.076 688.689 212.426 687.753 209.766 686.823C207.156 685.874 204.656 684.872 202.106 683.903C197.076 681.932 191.916 680.052 187.106 678.036C182.296 676.019 177.636 673.969 172.966 671.959C168.306 669.949 164.016 667.801 159.596 665.765C157.416 664.73 155.246 663.708 153.086 662.687C151.036 661.62 148.996 660.559 146.966 659.505C142.936 657.39 138.956 655.294 135.016 653.225C131.246 651.097 127.546 648.988 123.956 646.887C122.166 645.832 120.346 644.811 118.626 643.757C116.936 642.696 115.256 641.642 113.596 640.594C110.276 638.505 106.986 636.456 103.846 634.406C100.846 632.317 97.8863 630.261 94.9963 628.251C92.1463 626.227 89.1763 624.296 86.6763 622.272C84.0963 620.282 81.5764 618.33 79.1064 616.425C77.8764 615.475 76.6563 614.533 75.4563 613.603C74.2763 612.666 73.2165 611.71 72.1165 610.787C69.9465 608.927 67.8364 607.12 65.7764 605.359C64.7564 604.481 63.7363 603.617 62.7463 602.759C61.7563 601.908 60.8963 601.031 59.9963 600.186C56.4563 596.787 53.0665 593.644 50.1165 590.691C47.2865 587.692 44.6763 584.955 42.4263 582.454C41.2863 581.209 40.2163 580.031 39.2063 578.924C38.2863 577.798 37.4265 576.75 36.6265 575.768C35.0165 573.81 33.6865 572.134 32.6265 570.772C30.5343 568.045 29.4246 566.592 29.4163 566.581C29.4161 566.581 29.416 566.581 29.4157 566.581V566.581Z" fill="black"></path> </svg> 