<?xml version="1.0" encoding="UTF-8"?> <svg xmlns="http://www.w3.org/2000/svg" width="1373" height="1523" viewBox="0 0 1373 1523" fill="none"> <path d="M1272.16 0.423096H100.091C44.8623 0.423096 0.0908203 45.1947 0.0908203 100.423V1422.44C0.0908203 1477.67 44.8623 1522.44 100.091 1522.44H1272.16C1327.39 1522.44 1372.16 1477.67 1372.16 1422.44V100.423C1372.16 45.1946 1327.39 0.423096 1272.16 0.423096Z" fill="black"></path> <path d="M1352.16 1409.34L1352.16 113.519C1352.16 58.2907 1307.39 13.5192 1252.16 13.5192L120.091 13.5192C64.8625 13.5192 20.0911 58.2907 20.0911 113.519L20.0911 1409.34C20.0911 1464.57 64.8625 1509.34 120.091 1509.34H1252.16C1307.39 1509.34 1352.16 1464.57 1352.16 1409.34Z" fill="#2AB773"></path> <path d="M1272.16 0.423096C1327.39 0.423096 1372.16 45.1946 1372.16 100.423V768.986C1372.16 825.528 1325.18 871.393 1269.17 863.617C1264.27 862.936 1259.39 862.219 1254.54 861.467C1221.27 856.312 1187.56 866.702 1159.54 885.37C1095.34 928.152 1004.37 956.394 901.661 959.995C756.173 965.101 626.026 919.417 558.391 848.459C531.904 820.672 498.367 796.957 460.067 794.346C297.767 783.283 152.346 742.113 44.4715 680.872C15.9288 664.668 0.0908203 633.488 0.0908203 600.667V100.423C0.0908203 45.1945 44.8623 0.423096 100.091 0.423096H1272.16Z" fill="black"></path> <path d="M1252.16 13.5192C1307.39 13.5192 1352.16 58.2907 1352.16 113.519V729.649C1352.16 786.421 1304.77 832.454 1248.7 823.569C1232.58 821.015 1216.66 818.01 1200.96 814.556L1194.36 813.106C1177.52 809.401 1159.94 814.499 1147.69 826.644V826.644C1091.79 882.054 994.581 917.374 887.671 921.126C813.231 923.739 739.321 910.669 679.571 884.326C630.955 862.895 596.303 839.45 575.229 808.012C569.45 799.392 569.547 788.766 579.919 788.438V788.438C597.613 787.879 601.711 764.771 584.009 764.61C342.333 762.404 186.834 715.018 86.751 656.99C77.6573 651.718 68.8389 646.339 60.3086 640.858C34.2239 624.097 20.0908 594.439 20.0908 563.434V113.519C20.0908 58.2906 64.8623 13.5192 120.091 13.5192H1252.16Z" fill="white"></path> <path d="M28.5397 566.581C28.5373 566.58 28.5344 566.583 28.5366 566.584C28.7361 566.699 30.7886 567.887 34.4805 570.012C36.4005 571.139 38.7705 572.533 41.4905 574.183C42.8605 575.008 44.3304 575.893 45.8904 576.842C47.4904 577.772 49.1805 578.754 50.9805 579.795C54.5905 581.864 58.4604 584.182 62.6904 586.69C67.1204 589.146 71.7605 591.844 76.7705 594.692C86.8705 600.363 98.3903 606.681 111.29 613.367C117.73 616.713 124.64 620.105 131.68 623.647C135.37 625.35 139.02 627.111 142.75 628.886C144.61 629.776 146.49 630.674 148.37 631.571C150.28 632.461 152.301 633.319 154.271 634.203C158.271 635.951 162.24 637.752 166.25 639.579C170.41 641.327 174.63 643.102 178.89 644.889C181.02 645.78 183.17 646.67 185.33 647.574C187.54 648.445 189.76 649.316 191.99 650.193C196.48 651.929 200.84 653.775 205.53 655.471C210.21 657.174 214.97 658.863 219.66 660.618C224.37 662.36 229.391 663.951 234.271 665.647C236.741 666.472 239.17 667.336 241.7 668.141C244.26 668.927 246.82 669.72 249.4 670.505C254.57 672.064 259.52 673.786 264.92 675.233C285.81 681.486 308.241 686.967 331.271 691.872C342.691 694.425 354.63 696.501 366.39 698.695C372.39 699.684 378.37 700.666 384.34 701.648C390.31 702.63 396.47 703.383 402.47 704.287C405.5 704.706 408.47 705.197 411.53 705.557C414.59 705.924 417.64 706.291 420.69 706.657C423.73 707.037 426.76 707.417 429.78 707.79C431.3 707.973 432.79 708.183 434.32 708.34L438.91 708.805C445.03 709.427 451.12 710.043 457.16 710.652C463.28 711.162 469.35 711.673 475.38 712.177C478.4 712.419 481.39 712.714 484.41 712.917C487.44 713.107 490.46 713.297 493.46 713.48C496.47 713.67 499.46 713.854 502.43 714.043C505.41 714.227 508.34 714.495 511.32 714.607C523.22 715.13 534.84 715.811 546.32 716.073C552.06 716.257 557.71 716.44 563.29 716.617C568.9 716.702 574.43 716.741 579.88 716.852C582.61 716.898 585.31 716.951 587.99 716.997C589.33 717.023 590.67 717.042 591.99 717.069C593.32 717.069 594.65 717.069 595.97 717.069C601.26 717.069 606.45 717.042 611.55 717.069C621.74 717.2 631.56 716.918 640.93 716.859C645.61 716.794 650.19 716.82 654.63 716.689C659.08 716.571 663.4 716.453 667.61 716.368C684.43 716.099 699.13 715.425 711.34 715.111C723.52 714.698 733.12 714.227 739.7 714.03C739.801 714.027 739.901 714.024 740 714.021C740.856 713.994 740.984 715.251 740.141 715.399V715.399C736.981 715.942 733.07 716.61 728.46 717.37C723.84 718.116 718.56 719.066 712.55 719.884C700.55 721.58 685.94 723.767 668.93 725.633C664.68 726.138 660.29 726.629 655.76 727.133C651.23 727.657 646.55 728.037 641.74 728.508C632.12 729.392 621.98 730.381 611.34 731.075C600.7 731.828 589.59 732.607 578.05 733.092C572.28 733.386 566.41 733.622 560.43 733.877C554.46 734.028 548.39 734.172 542.25 734.329C539.17 734.401 536.07 734.473 532.95 734.545C529.83 734.617 526.71 734.565 523.55 734.585C517.24 734.585 510.84 734.585 504.38 734.585C497.92 734.558 491.43 734.349 484.85 734.192C481.56 734.107 478.26 734.022 474.94 733.943C471.63 733.845 468.33 733.655 465 733.511C458.36 733.19 451.61 732.935 444.89 732.529C438.2 732.037 431.46 731.546 424.69 731.049L419.59 730.675C417.89 730.544 416.22 730.361 414.53 730.211C411.16 729.89 407.78 729.562 404.39 729.241C401.01 728.901 397.62 728.56 394.22 728.22C390.82 727.879 387.5 727.415 384.13 727.015C380.77 726.596 377.4 726.17 374.03 725.751C370.67 725.306 367.25 724.939 363.96 724.409C357.33 723.394 350.68 722.379 344.01 721.364C337.4 720.284 330.93 719.059 324.39 717.881C317.8 716.748 311.5 715.353 305.13 714.024C279.77 708.609 255.41 702.329 233.23 695.113L229.021 693.797C227.631 693.352 226.3 692.874 224.94 692.415C222.24 691.485 219.55 690.556 216.87 689.626C214.2 688.689 211.55 687.753 208.89 686.823C206.28 685.874 203.78 684.872 201.23 683.903C196.2 681.932 191.04 680.052 186.23 678.036C181.42 676.019 176.76 673.969 172.09 671.959C167.43 669.949 163.14 667.801 158.72 665.765C156.54 664.73 154.37 663.708 152.21 662.687C150.16 661.62 148.12 660.559 146.09 659.505C142.06 657.39 138.08 655.294 134.14 653.225C130.37 651.097 126.67 648.988 123.08 646.887C121.29 645.832 119.47 644.811 117.75 643.757C116.06 642.696 114.38 641.642 112.72 640.594C109.4 638.505 106.11 636.456 102.97 634.406C99.9705 632.317 97.0104 630.261 94.1204 628.251C91.2704 626.227 88.3003 624.296 85.8003 622.272C83.2203 620.282 80.7005 618.33 78.2305 616.425C77.0005 615.475 75.7803 614.533 74.5803 613.603C73.4003 612.666 72.3405 611.71 71.2405 610.787C69.0705 608.927 66.9604 607.12 64.9004 605.359C63.8804 604.481 62.8604 603.617 61.8704 602.759C60.8804 601.908 60.0204 601.031 59.1204 600.186C55.5804 596.787 52.1905 593.644 49.2405 590.691C46.4105 587.692 43.8003 584.955 41.5503 582.454C40.4103 581.209 39.3403 580.031 38.3303 578.924C37.4103 577.798 36.5505 576.75 35.7505 575.768C34.1405 573.81 32.8105 572.134 31.7505 570.772C29.6583 568.045 28.5486 566.592 28.5403 566.581C28.5401 566.581 28.5401 566.581 28.5397 566.581V566.581Z" fill="black"></path> </svg> 