<svg version="1.2" xmlns="http://www.w3.org/2000/svg" viewBox="0 0 186 154" width="186" height="154">
	<title>email-svg</title>
	<style>
		.s0 { fill: #2ab773 } 
		.s1 { fill: #1a1a1a } 
	</style>
	<path id="Layer" class="s0" d="m177.8 41.6c-0.5-3.7-1.1-7.3-1.9-10.8q-0.3-1.3-0.7-2.6-0.4-1.3-0.9-2.6-0.1-0.3-0.3-0.6-0.1-0.3-0.2-0.5-0.3-0.6-0.6-1.2-0.4-0.5-0.7-0.9-0.1-0.1-0.2-0.2l-0.1-0.1-0.1-0.1-0.5-0.5q-0.1-0.1-0.2-0.2l-0.3-0.2q-0.2-0.2-0.5-0.4l-0.5-0.5q-0.1-0.1-0.3-0.2l-0.2-0.1q-1.1-0.8-2.2-1.4-1.2-0.5-2.4-1c-0.9-0.2-1.8-0.5-2.7-0.8q-1-0.4-2.2-0.6l-0.5-0.2q-0.3 0-0.6-0.1-0.6-0.1-1.1-0.2-0.6-0.1-1.2-0.2l-1.2-0.2q-1.1-0.1-2.3-0.3-1.2-0.1-2.4-0.2-1.2-0.1-2.4-0.3l-1.2-0.1h-1.2q-1.1-0.1-2.3-0.2-4.8-0.3-9.6-0.5-4.8-0.2-9.6-0.3-14.1-0.3-28.2-0.2-0.1 0-0.2 0-3 0-6 0.1-0.3 0-0.6 0-1.7 0-3.4 0-1.1 0-2.2 0-0.5 0.1-0.9 0.1-2.7 0-5.5 0.1-0.5 0-1 0-2.7 0.1-5.3 0.2-0.5 0-1.1 0-1.5 0-3.1 0.1-1.2 0-2.4 0.1-0.3 0-0.7 0-8.1 0.3-16.1 0.7-2.4 0.2-4.8 0.3-1.2 0.1-2.3 0.2-1.2 0.1-2.4 0.3-0.3 0-0.5 0.1c-0.2 0-0.4 0-0.5 0.1h-0.2q0 0-0.1 0l-0.3 0.1q-0.2 0.1-0.5 0.1-1.1 0.3-2.2 0.7-1.1 0.3-2.2 0.8-1 0.4-2 0.9-2 1-3.8 2.4l-0.5 0.3-0.2 0.2q-0.1 0.1-0.2 0.2-0.3 0.3-0.7 0.7-0.6 0.7-1.2 1.7c-0.7 1.2-1.3 2.6-1.9 4q-0.7 2-1.3 4.2 0 0.1 0 0.3-0.2 0.4-0.3 0.8c-0.6 2.8-1.2 5.6-1.6 8.4q-0.7 4.7-1 9.4c-0.5 6.3-0.7 12.7-0.6 19 0.2 6.4 0.6 12.7 1.4 19q0.4 3.2 1 6.4 0.2 1 0.4 2 0.1 0.5 0.2 0.9 0.3 1.9 0.8 3.8 0.1 0.4 0.2 0.8 0.6 2.3 1.3 4.5 0.8 2.2 1.7 4.2 0.8 1.6 1.6 3 0.3 0.4 0.6 0.9 0.4 0.5 0.8 0.9 0.3 0.4 0.6 0.7 0.3 0.3 0.7 0.6l0.2 0.2 0.1 0.1h0.1l0.5 0.4q1.8 1.3 3.8 2.3 0.3 0.1 0.5 0.2 0.3 0.1 0.5 0.2 0.5 0.3 1.1 0.5 1 0.4 2.1 0.7 0.3 0.2 0.7 0.3 0.2 0 0.4 0.1l0.6 0.2q0.2 0.1 0.5 0.1l0.4 0.1 0.7 0.2 0.6 0.2q0.3 0 0.5 0.1c3 0.7 6.2 1.2 9.3 1.6q4.7 0.5 9.5 0.9l2.3 0.1 0.6 0.1h0.6l1.2 0.1q2.4 0.1 4.8 0.2c6.4 0.3 12.7 0.4 19.1 0.4h0.9 0.3l0.6 1.1q0.3 0.5 0.6 1.1 0.4 0.9 0.7 1.9 0.6 1.6 0.8 3.3c0.4 2.2 0.2 4.4-0.2 6.6q-0.2 0.8-0.4 1.6-0.3 0.8-0.6 1.5-0.2 0.8-0.6 1.5l-0.1 0.4q-0.1 0-0.1 0 0 0 0 0 0 0.1 0 0.1 0 0 0 0 0 0 0.1 0.1 0 0 0.1 0 0 0 0 0 0 0 0 0 0.1 0 0.1 0 0 0 0 0 0 0 0 0h0.1l0.6-0.4q0.2-0.1 0.5-0.3 2.4-1.6 4.4-3.5 0.1-0.1 0.1-0.1 0.3-0.3 0.6-0.6 1.7-1.6 3.1-3.5 0.9-1.1 1.7-2.3 0.6-0.9 1.2-1.8 0.2-0.3 0.4-0.6 1.5-2.4 2.7-5.1l0.5-1.1h1.2q11.1-0.2 22.2-0.7 5.5-0.3 11.1-0.6 5.5-0.3 11-0.8 2.8-0.2 5.5-0.5 0.7-0.1 1.4-0.2l0.6-0.1 0.3-0.1q0.2 0 0.4 0l0.3-0.1h0.2 0.1l0.1-0.1h0.1q0.2-0.1 0.3-0.1 0.3-0.1 0.6-0.2 0.3-0.1 0.6-0.2 1.7-0.7 3.3-1.7 0.2-0.1 0.4-0.2 0.4-0.3 0.9-0.6 1-0.7 2-1.6l0.3-0.2 0.2-0.2 0.5-0.5q0.4-0.4 0.8-0.8 0.4-0.5 0.7-1 0.3-0.5 0.6-1.1 0.6-1.2 1.1-2.4 1-2.5 1.7-5.1 0.7-2.6 1.2-5.3 0.5-2.7 0.9-5.5 0.8-5.4 1.2-10.9 0.5-5.5 0.6-11.1 0.1-2 0.1-4 0-0.1 0-0.2 0.2-9-0.4-17.9-0.3-5.5-0.9-11z"/>
	<path id="Layer" class="s1" d="m0.3 76.8q0 0 0 0 0 0 0 0 0 0.1 0 0.1 0 0 0-0.1z"/>
	<path id="Layer" class="s1" d="m0.2 83.2q0 0.1 0.1 0.1 0.1 0 0.1-0.1 0 0-0.1-0.1-0.1 0.1-0.1 0.1z"/>
	<path id="Layer" class="s1" d="m6.7 83.6c0.2 0 0.4-0.1 0.4-0.4 0-0.2-0.2-0.3-0.4-0.3-0.2 0-0.4 0.1-0.4 0.3 0 0.3 0.2 0.4 0.4 0.4z"/>
	<path id="Layer" class="s1" d="m0.2 89.6c0 0.1 0 0.2 0.1 0.2 0.1 0 0.2-0.1 0.2-0.2 0-0.1-0.1-0.1-0.2-0.1-0.1 0-0.1 0-0.1 0.1z"/>
	<path id="Layer" class="s1" d="m6.7 90.1c0.2 0 0.4-0.2 0.4-0.5 0-0.2-0.2-0.4-0.4-0.4-0.3 0-0.5 0.2-0.5 0.4 0 0.3 0.2 0.5 0.5 0.5z"/>
	<path id="Layer" class="s1" d="m13.1 90.4c0.4 0 0.7-0.3 0.7-0.8 0-0.4-0.3-0.7-0.7-0.7-0.4 0-0.8 0.3-0.8 0.7 0 0.5 0.4 0.8 0.8 0.8z"/>
	<path id="Layer" class="s1" d="m0.3 95.9c-0.1 0-0.2 0-0.2 0.1 0 0.1 0.1 0.2 0.2 0.2 0.1 0 0.2-0.1 0.2-0.2 0-0.1-0.1-0.1-0.2-0.1z"/>
	<path id="Layer" class="s1" d="m6.7 96.5c0.2 0 0.5-0.2 0.5-0.5 0-0.2-0.3-0.4-0.5-0.4-0.3 0-0.5 0.2-0.5 0.4 0 0.3 0.2 0.5 0.5 0.5z"/>
	<path id="Layer" class="s1" d="m13.1 96.8c0.4 0 0.8-0.3 0.8-0.8 0-0.4-0.4-0.8-0.8-0.8-0.5 0-0.8 0.4-0.8 0.8 0 0.5 0.3 0.8 0.8 0.8z"/>
	<path id="Layer" class="s1" d="m0.3 102.3c-0.1 0-0.1 0-0.1 0.1 0 0.1 0 0.1 0.1 0.1 0.1 0 0.1 0 0.1-0.1 0-0.1 0-0.1-0.1-0.1z"/>
	<path id="Layer" class="s1" d="m7.1 102.4c0-0.2-0.2-0.4-0.4-0.4-0.3 0-0.5 0.2-0.5 0.4 0 0.3 0.2 0.4 0.5 0.4 0.2 0 0.4-0.1 0.4-0.4z"/>
	<path id="Layer" class="s1" d="m13.1 101.6c-0.4 0-0.8 0.4-0.8 0.8 0 0.4 0.3 0.8 0.8 0.8 0.4 0 0.7-0.4 0.7-0.8 0-0.4-0.3-0.8-0.7-0.8z"/>
	<path id="Layer" class="s1" d="m0.4 108.8q0-0.1-0.1-0.1-0.1 0-0.1 0.1 0 0.1 0.1 0.1 0.1 0 0.1-0.1z"/>
	<path id="Layer" class="s1" d="m6.7 109.2c0.2 0 0.4-0.2 0.4-0.4 0-0.2-0.2-0.4-0.4-0.4-0.2 0-0.4 0.2-0.4 0.4 0 0.2 0.2 0.4 0.4 0.4z"/>
	<path id="Layer" class="s1" d="m13.1 108.1c-0.4 0-0.7 0.3-0.7 0.7 0 0.4 0.3 0.7 0.7 0.7 0.3 0 0.7-0.3 0.7-0.7 0-0.4-0.4-0.7-0.7-0.7z"/>
	<path id="Layer" class="s1" d="m0.2 115.2q0 0 0.1 0 0 0 0 0 0-0.1 0-0.1-0.1 0-0.1 0.1z"/>
	<path id="Layer" class="s1" d="m6.7 115.5c0.1 0 0.3-0.2 0.3-0.3 0-0.2-0.2-0.3-0.3-0.3-0.2 0-0.3 0.1-0.3 0.3 0 0.1 0.1 0.3 0.3 0.3z"/>
	<path id="Layer" class="s1" d="m13.1 114.6c-0.4 0-0.6 0.3-0.6 0.6 0 0.3 0.2 0.6 0.6 0.6 0.3 0 0.5-0.3 0.5-0.6 0-0.3-0.2-0.6-0.5-0.6z"/>
	<path id="Layer" class="s1" d="m19.5 114.3c-0.5 0-0.9 0.4-0.9 0.9 0 0.5 0.4 0.9 0.8 0.9 0.5 0 0.9-0.4 0.9-0.9 0-0.5-0.4-0.9-0.8-0.9z"/>
	<path id="Layer" class="s1" d="m6.8 121.6c0-0.1 0-0.2-0.1-0.2-0.1 0-0.2 0.1-0.2 0.2 0 0.1 0.1 0.2 0.2 0.2 0.1 0 0.1-0.1 0.1-0.2z"/>
	<path id="Layer" class="s1" d="m13.5 121.6c0-0.3-0.2-0.5-0.4-0.5-0.3 0-0.5 0.2-0.5 0.5 0 0.2 0.2 0.4 0.5 0.4 0.2 0 0.4-0.2 0.4-0.4z"/>
	<path id="Layer" class="s1" d="m19.4 120.9c-0.4 0-0.7 0.3-0.7 0.7 0 0.4 0.3 0.7 0.7 0.7 0.4 0 0.8-0.3 0.8-0.7 0-0.4-0.4-0.7-0.8-0.7z"/>
	<path id="Layer" class="s1" d="m6.6 128q0 0 0.1 0 0 0 0 0 0-0.1 0-0.1-0.1 0-0.1 0.1z"/>
	<path id="Layer" class="s1" d="m13.3 128c0-0.2-0.1-0.3-0.2-0.3-0.2 0-0.3 0.1-0.3 0.3 0 0.1 0.1 0.3 0.3 0.3 0.1 0 0.2-0.2 0.2-0.3z"/>
	<path id="Layer" class="s1" d="m20 128c0-0.3-0.3-0.6-0.6-0.6-0.3 0-0.5 0.3-0.5 0.6 0 0.3 0.2 0.5 0.5 0.5 0.3 0 0.6-0.2 0.6-0.5z"/>
	<path id="Layer" class="s1" d="m26.6 128c0-0.5-0.3-0.8-0.8-0.8-0.4 0-0.7 0.3-0.8 0.8 0 0.4 0.4 0.8 0.8 0.8 0.5 0 0.8-0.4 0.8-0.8z"/>
	<path id="Layer" class="s1" d="m32.2 127c-0.5 0-1 0.4-1 1 0 0.5 0.5 1 1 1 0.6 0 1-0.5 1-1 0-0.6-0.4-1-1-1z"/>
	<path id="Layer" class="s1" d="m12.9 134.4q0 0.1 0.1 0.1 0.1 0 0.2-0.1-0.1-0.1-0.2-0.2-0.1 0.1-0.1 0.2z"/>
	<path id="Layer" class="s1" d="m19.8 134.4c0-0.2-0.2-0.4-0.4-0.4-0.2 0-0.3 0.2-0.3 0.4 0 0.1 0.1 0.3 0.3 0.3 0.2 0 0.4-0.2 0.4-0.3z"/>
	<path id="Layer" class="s1" d="m26.4 134.4c0-0.3-0.3-0.6-0.6-0.6-0.3 0-0.5 0.3-0.5 0.6 0 0.3 0.2 0.5 0.5 0.5 0.3 0 0.6-0.2 0.6-0.5z"/>
	<path id="Layer" class="s1" d="m32.9 134.4c0-0.4-0.3-0.8-0.7-0.8-0.4 0-0.7 0.4-0.7 0.8 0 0.4 0.3 0.7 0.7 0.7 0.4 0 0.7-0.3 0.7-0.7z"/>
	<path id="Layer" class="s1" d="m38.6 133.5c-0.5 0-0.9 0.4-0.9 0.9 0 0.5 0.4 0.9 0.9 0.9 0.5 0 0.9-0.4 0.9-0.9 0-0.5-0.4-0.9-0.9-0.9z"/>
	<path id="Layer" class="s1" d="m45 133.4c-0.6 0-1 0.4-1 1 0 0.5 0.4 1 1 1 0.5 0 1-0.5 1-1 0-0.6-0.5-1-1-1z"/>
	<path id="Layer" class="s1" d="m52.5 134.4c0-0.6-0.5-1.1-1.1-1.1-0.6 0-1.1 0.5-1.1 1.1 0 0.6 0.5 1.1 1.1 1.1 0.6 0 1.1-0.5 1.1-1.1z"/>
	<path id="Layer" class="s1" d="m57.8 133.3c-0.6 0-1.1 0.5-1.1 1.1 0 0.6 0.5 1.1 1.1 1.1 0.6 0 1.1-0.5 1.1-1.1 0-0.6-0.5-1.1-1.1-1.1z"/>
	<path id="Layer" class="s1" d="m64.2 133.3c-0.7 0-1.1 0.5-1.1 1.1 0 0.6 0.4 1.1 1.1 1.1 0.6 0 1.1-0.5 1.1-1.1 0-0.6-0.5-1.1-1.1-1.1z"/>
	<path id="Layer" class="s1" d="m71.6 134.4c0-0.6-0.5-1-1.1-1-0.5 0-1 0.4-1 1 0 0.6 0.5 1 1 1 0.6 0 1.1-0.4 1.1-1z"/>
	<path id="Layer" class="s1" d="m77.9 134.4c0-0.4-0.3-0.8-0.8-0.9q-0.1 0-0.2 0c-0.5 0-0.9 0.4-0.9 0.9 0 0.5 0.4 0.9 0.9 0.9q0.1 0 0.2 0c0.5-0.1 0.8-0.4 0.8-0.9z"/>
	<path id="Layer" class="s1" d="m19.3 140.8q0 0 0.1 0.1 0.1-0.1 0.1-0.1 0-0.1-0.1-0.2-0.1 0.1-0.1 0.2z"/>
	<path id="Layer" class="s1" d="m26.1 140.8c0-0.2-0.1-0.3-0.3-0.3-0.1 0-0.3 0.1-0.3 0.3 0 0.1 0.2 0.3 0.3 0.3 0.2 0 0.3-0.2 0.3-0.3z"/>
	<path id="Layer" class="s1" d="m32.7 140.8c0-0.3-0.2-0.5-0.5-0.5-0.2 0-0.5 0.2-0.5 0.5 0 0.2 0.3 0.4 0.5 0.4 0.3 0 0.5-0.2 0.5-0.4z"/>
	<path id="Layer" class="s1" d="m39.2 140.8c0-0.4-0.3-0.6-0.6-0.6-0.3 0-0.6 0.2-0.6 0.6 0 0.3 0.3 0.6 0.6 0.6 0.3 0 0.6-0.3 0.6-0.6z"/>
	<path id="Layer" class="s1" d="m45.7 140.8c0-0.4-0.3-0.8-0.7-0.8-0.4 0-0.7 0.4-0.7 0.8 0 0.4 0.3 0.7 0.7 0.7 0.4 0 0.7-0.3 0.7-0.7z"/>
	<path id="Layer" class="s1" d="m52.2 140.8c0-0.5-0.4-0.8-0.8-0.8-0.5 0-0.8 0.3-0.8 0.8 0 0.4 0.3 0.8 0.8 0.8 0.4 0 0.7-0.4 0.8-0.8z"/>
	<path id="Layer" class="s1" d="m58.6 140.8c0-0.5-0.4-0.8-0.8-0.8-0.5 0-0.9 0.3-0.9 0.8 0 0.4 0.4 0.8 0.9 0.8 0.4 0 0.8-0.4 0.8-0.8z"/>
	<path id="Layer" class="s1" d="m64.9 140.8c0-0.5-0.3-0.8-0.8-0.8-0.4 0-0.7 0.3-0.7 0.8 0 0.4 0.3 0.8 0.7 0.8 0.5 0 0.8-0.4 0.8-0.8z"/>
	<path id="Layer" class="s1" d="m71.3 140.8c0-0.4-0.4-0.7-0.8-0.7-0.4 0-0.7 0.3-0.7 0.7 0 0.4 0.3 0.7 0.7 0.7 0.4 0 0.8-0.3 0.8-0.7z"/>
	<path id="Layer" class="s1" d="m25.7 147.1q0 0.1 0.1 0.1 0.1 0 0.1-0.1 0 0-0.1 0-0.1 0-0.1 0z"/>
	<path id="Layer" class="s1" d="m32.4 147.1c0-0.1-0.1-0.1-0.2-0.1-0.1 0-0.2 0-0.2 0.1 0 0.2 0.1 0.2 0.2 0.2 0.1 0 0.2 0 0.2-0.2z"/>
	<path id="Layer" class="s1" d="m38.9 147.2c0-0.2-0.1-0.4-0.3-0.4-0.2 0-0.3 0.2-0.3 0.4 0 0.1 0.1 0.3 0.3 0.3 0.2 0 0.3-0.2 0.3-0.3z"/>
	<path id="Layer" class="s1" d="m45.4 147.2c0-0.3-0.2-0.4-0.4-0.4-0.2 0-0.4 0.1-0.4 0.4 0 0.2 0.2 0.4 0.4 0.4 0.2 0 0.4-0.2 0.4-0.4z"/>
	<path id="Layer" class="s1" d="m51.8 147.2c0-0.3-0.2-0.5-0.4-0.5-0.3 0-0.5 0.2-0.5 0.5 0 0.2 0.2 0.4 0.5 0.4 0.2 0 0.4-0.2 0.4-0.4z"/>
	<path id="Layer" class="s1" d="m58.3 147.2c0-0.3-0.3-0.5-0.5-0.5-0.3 0-0.5 0.2-0.5 0.5 0 0.2 0.2 0.5 0.5 0.5 0.2 0 0.5-0.3 0.5-0.5z"/>
	<path id="Layer" class="s1" d="m64.1 147.7c0.3 0 0.5-0.3 0.5-0.5 0-0.3-0.2-0.5-0.5-0.5-0.2 0-0.4 0.2-0.4 0.5 0 0.2 0.2 0.5 0.4 0.5z"/>
	<path id="Layer" class="s1" d="m71 147.2c0-0.3-0.2-0.4-0.5-0.4-0.2 0-0.4 0.1-0.4 0.4 0 0.2 0.2 0.4 0.4 0.4 0.3 0 0.5-0.2 0.5-0.4z"/>
	<path id="Layer" class="s1" d="m32.2 153.5q0 0 0 0.1 0 0 0-0.1 0 0 0 0 0 0 0 0z"/>
	<path id="Layer" class="s1" d="m38.5 153.5q0 0.1 0.1 0.1 0 0 0-0.1 0 0 0 0-0.1 0-0.1 0z"/>
	<path id="Layer" class="s1" d="m44.8 153.5q0.1 0.2 0.2 0.2 0.1 0 0.1-0.2 0-0.1-0.1-0.1-0.1 0-0.2 0.1z"/>
	<path id="Layer" class="s1" d="m51.2 153.6c0 0.1 0.1 0.1 0.2 0.1 0.1 0 0.1 0 0.1-0.1 0-0.1 0-0.2-0.1-0.2-0.1 0-0.2 0.1-0.2 0.2z"/>
	<path id="Layer" class="s1" d="m57.6 153.6c0 0.1 0 0.2 0.1 0.2 0.2 0 0.2-0.1 0.2-0.2 0-0.1 0-0.2-0.2-0.2-0.1 0-0.1 0.1-0.1 0.2z"/>
	<path id="Layer" class="s1" d="m64.1 153.7c0.1 0 0.2 0 0.2-0.1 0-0.1-0.1-0.2-0.2-0.2-0.1 0-0.1 0.1-0.1 0.2 0 0.1 0 0.1 0.1 0.1z"/>
	<path id="Layer" class="s1" d="m70.5 153.4q-0.1 0.1-0.1 0.2 0 0.1 0.1 0.1 0.1 0 0.2-0.1c0-0.1-0.1-0.2-0.2-0.2z"/>
	<path id="Layer" class="s1" d="m83.4 133.4c-0.5 0-1 0.5-1 1 0 0.6 0.5 1 1 1 0.6 0 1-0.4 1-1 0-0.5-0.4-1-1-1z"/>
	<path id="Layer" class="s1" d="m110 134.4c0-0.5-0.4-1-1-1-0.6 0-1 0.5-1 1 0 0.6 0.4 1.1 1 1.1 0.6 0 1-0.5 1-1.1z"/>
	<path id="Layer" class="s1" d="m77.6 140.8c0-0.3-0.2-0.6-0.5-0.6q-0.1 0-0.2 0c-0.3 0-0.6 0.3-0.6 0.6 0 0.3 0.3 0.6 0.6 0.6q0.1 0 0.2 0c0.3 0 0.5-0.3 0.5-0.6z"/>
	<path id="Layer" class="s1" d="m84.1 140.8c0-0.4-0.3-0.7-0.7-0.7-0.4 0-0.7 0.3-0.7 0.7 0 0.4 0.3 0.7 0.7 0.7 0.4 0 0.7-0.3 0.7-0.7z"/>
	<path id="Layer" class="s1" d="m109.7 140.8c0-0.4-0.3-0.7-0.7-0.7-0.4 0-0.8 0.3-0.8 0.7 0 0.4 0.4 0.8 0.8 0.8 0.4 0 0.7-0.4 0.7-0.8z"/>
	<path id="Layer" class="s1" d="m77.3 147.2c0-0.2-0.1-0.3-0.3-0.3q0-0.1-0.1 0c-0.2 0-0.3 0.1-0.3 0.3 0 0.2 0.1 0.3 0.3 0.3q0.1 0 0.1 0c0.2 0 0.3-0.1 0.3-0.3z"/>
	<path id="Layer" class="s1" d="m83.8 147.2c0-0.2-0.2-0.4-0.4-0.4-0.2 0-0.4 0.2-0.4 0.4 0 0.2 0.2 0.4 0.4 0.4 0.2 0 0.4-0.2 0.4-0.4z"/>
	<path id="Layer" class="s1" d="m103.1 147.2c0-0.3-0.3-0.5-0.5-0.5-0.3 0-0.5 0.2-0.5 0.5 0 0.3 0.2 0.5 0.5 0.5 0.2 0 0.5-0.2 0.5-0.5z"/>
	<path id="Layer" class="s1" d="m109.4 147.2c0-0.2-0.2-0.4-0.4-0.4-0.3 0-0.5 0.2-0.5 0.4 0 0.2 0.2 0.4 0.5 0.4 0.2 0 0.4-0.1 0.4-0.4z"/>
	<path id="Layer" class="s1" d="m77 153.6q0-0.1-0.1-0.1 0 0 0 0.1 0 0 0 0 0.1 0 0.1 0 0 0 0 0 0.1 0 0.1 0 0-0.1-0.1-0.1 0 0 0 0.1z"/>
	<path id="Layer" class="s1" d="m83.3 153.6q0 0.1 0.1 0.1 0.1 0 0.1-0.1 0-0.1-0.1-0.1-0.1 0-0.1 0.1z"/>
	<path id="Layer" class="s1" d="m89.8 153.4c-0.1 0-0.2 0.1-0.2 0.2 0 0.1 0.1 0.2 0.2 0.2 0.1 0 0.2-0.1 0.2-0.2 0-0.1-0.1-0.2-0.2-0.2z"/>
	<path id="Layer" class="s1" d="m96.4 153.6c0-0.1-0.1-0.2-0.2-0.2-0.1 0-0.2 0.1-0.2 0.2 0 0.1 0.1 0.2 0.2 0.2 0.1 0 0.2-0.1 0.2-0.2z"/>
	<path id="Layer" class="s1" d="m102.4 153.6c0 0.1 0.1 0.2 0.2 0.2 0.1 0 0.2-0.1 0.2-0.2 0-0.1-0.1-0.2-0.2-0.2-0.1 0-0.2 0.1-0.2 0.2z"/>
	<path id="Layer" class="s1" d="m108.8 153.6q0.1 0.1 0.2 0.1 0.1 0 0.1-0.1 0-0.1-0.1-0.1-0.1 0-0.2 0.1z"/>
	<path id="Layer" class="s1" d="m185.7 70.6q0 0 0 0 0 0 0 0 0 0 0 0 0 0 0 0z"/>
	<path id="Layer" class="s1" d="m185.6 77q0 0.1 0.1 0.1 0-0.1 0-0.1 0 0 0 0-0.1 0-0.1 0z"/>
	<path id="Layer" class="s1" d="m185.7 83.3q-0.1 0-0.2 0.1 0.1 0.1 0.2 0.1 0.1 0 0.1-0.1 0-0.1-0.1-0.1z"/>
	<path id="Layer" class="s1" d="m185.7 89.6c-0.1 0-0.2 0.1-0.2 0.2 0 0.1 0.1 0.2 0.2 0.2 0.1 0 0.1-0.1 0.1-0.2 0-0.1 0-0.2-0.1-0.2z"/>
	<path id="Layer" class="s1" d="m185.7 96c-0.1 0-0.2 0.1-0.2 0.2 0 0.1 0.1 0.2 0.2 0.2 0.1 0 0.2-0.1 0.2-0.2 0-0.1-0.1-0.2-0.2-0.2z"/>
	<path id="Layer" class="s1" d="m185.8 102.6c0-0.1 0-0.2-0.1-0.2-0.1 0-0.2 0.1-0.2 0.2 0 0.1 0.1 0.1 0.2 0.1 0.1 0 0.1 0 0.1-0.1z"/>
	<path id="Layer" class="s1" d="m179.3 108.5c-0.3 0-0.5 0.2-0.5 0.4 0 0.3 0.2 0.5 0.5 0.5 0.2 0 0.4-0.2 0.4-0.5 0-0.2-0.2-0.4-0.4-0.4z"/>
	<path id="Layer" class="s1" d="m185.8 108.9q0-0.1-0.2-0.1-0.1 0-0.1 0.1 0 0.2 0.1 0.2 0.2 0 0.2-0.2z"/>
	<path id="Layer" class="s1" d="m179.6 115.3c0-0.2-0.2-0.3-0.3-0.3-0.2 0-0.4 0.1-0.4 0.3 0 0.2 0.2 0.4 0.4 0.4 0.1 0 0.3-0.2 0.3-0.4z"/>
	<path id="Layer" class="s1" d="m185.7 115.3q0 0-0.1 0 0 0 0 0 0 0.1 0 0.1 0.1 0 0.1-0.1z"/>
	<path id="Layer" class="s1" d="m173.4 121.7c0-0.3-0.3-0.5-0.5-0.5-0.3 0-0.5 0.2-0.5 0.5 0 0.3 0.2 0.5 0.5 0.5 0.2 0 0.5-0.2 0.5-0.5z"/>
	<path id="Layer" class="s1" d="m179.5 121.7c0-0.1-0.1-0.2-0.3-0.2-0.1 0-0.2 0.1-0.2 0.2 0 0.1 0.1 0.2 0.3 0.2 0.1 0 0.2-0.1 0.2-0.2z"/>
	<path id="Layer" class="s1" d="m185.6 121.7q0 0 0 0 0.1 0 0.1 0 0 0-0.1 0 0 0 0 0z"/>
	<path id="Layer" class="s1" d="m160.9 128.1c0-0.4-0.4-0.8-0.8-0.8-0.5 0-0.8 0.4-0.8 0.8 0 0.4 0.3 0.8 0.8 0.8 0.4 0 0.8-0.4 0.8-0.8z"/>
	<path id="Layer" class="s1" d="m167 128.1c0-0.3-0.2-0.6-0.5-0.6-0.3 0-0.6 0.3-0.6 0.6 0 0.3 0.3 0.6 0.6 0.6 0.3 0 0.5-0.3 0.5-0.6z"/>
	<path id="Layer" class="s1" d="m173.2 128.1c0-0.2-0.2-0.3-0.3-0.3-0.2 0-0.4 0.1-0.4 0.3 0 0.2 0.2 0.3 0.4 0.3 0.1 0 0.3-0.1 0.3-0.3z"/>
	<path id="Layer" class="s1" d="m179.2 128.1q0 0.1 0 0.1 0.1 0 0.1-0.1 0-0.1-0.1-0.1 0 0 0 0.1z"/>
	<path id="Layer" class="s1" d="m115.4 133.4c-0.6 0-1.1 0.5-1.1 1 0 0.6 0.5 1.1 1.1 1.1 0.5 0 1-0.5 1-1.1 0-0.5-0.5-1-1-1z"/>
	<path id="Layer" class="s1" d="m122.8 134.4c0-0.6-0.4-1.1-1.1-1.1-0.6 0-1.1 0.5-1.1 1.1 0 0.7 0.5 1.1 1.1 1.1 0.6 0 1.1-0.4 1.1-1.1z"/>
	<path id="Layer" class="s1" d="m128.1 133.3c-0.6 0-1.1 0.5-1.1 1.2 0 0.6 0.5 1.1 1.1 1.1 0.6 0 1.1-0.5 1.1-1.1 0-0.7-0.5-1.2-1.1-1.2z"/>
	<path id="Layer" class="s1" d="m134.5 133.4c-0.6 0-1.1 0.4-1.1 1.1 0 0.6 0.5 1.1 1.1 1.1 0.6 0 1.1-0.5 1.1-1.1 0-0.6-0.5-1.1-1.1-1.1z"/>
	<path id="Layer" class="s1" d="m141.9 134.5c0-0.6-0.4-1.1-1-1.1-0.6 0-1 0.5-1 1.1 0 0.5 0.4 1 1 1 0.6 0 1-0.5 1-1z"/>
	<path id="Layer" class="s1" d="m148.2 134.5c0-0.5-0.4-0.9-0.9-0.9-0.5 0-0.9 0.4-0.9 0.9 0 0.5 0.4 0.9 0.9 0.9 0.5 0 0.9-0.4 0.9-0.9z"/>
	<path id="Layer" class="s1" d="m154.4 134.5c0-0.4-0.3-0.8-0.7-0.8-0.4 0-0.8 0.4-0.8 0.8 0 0.4 0.4 0.7 0.8 0.7 0.4 0 0.7-0.3 0.7-0.7z"/>
	<path id="Layer" class="s1" d="m160.6 134.5c0-0.3-0.2-0.6-0.5-0.6-0.3 0-0.6 0.3-0.6 0.6 0 0.3 0.3 0.5 0.6 0.5 0.3 0 0.5-0.2 0.5-0.5z"/>
	<path id="Layer" class="s1" d="m166.8 134.5c0-0.2-0.1-0.4-0.3-0.4-0.2 0-0.4 0.2-0.4 0.4 0 0.2 0.2 0.3 0.4 0.3 0.2 0 0.3-0.1 0.3-0.3z"/>
	<path id="Layer" class="s1" d="m173 134.5q0-0.1-0.2-0.1-0.1 0-0.1 0.1 0 0.1 0.1 0.1 0.2 0 0.2-0.1z"/>
	<path id="Layer" class="s1" d="m116.1 140.8c0-0.4-0.4-0.7-0.8-0.7-0.4 0-0.7 0.3-0.7 0.7 0 0.4 0.3 0.8 0.7 0.8 0.4 0 0.8-0.4 0.8-0.8z"/>
	<path id="Layer" class="s1" d="m122.5 140.8c0-0.4-0.3-0.7-0.8-0.7-0.4 0-0.7 0.3-0.7 0.7 0 0.5 0.3 0.8 0.7 0.8 0.5 0 0.8-0.3 0.8-0.8z"/>
	<path id="Layer" class="s1" d="m128.9 140.8c0-0.4-0.3-0.8-0.8-0.8-0.4 0-0.8 0.4-0.8 0.8 0 0.5 0.4 0.9 0.8 0.9 0.5 0 0.8-0.4 0.8-0.9z"/>
	<path id="Layer" class="s1" d="m135.3 140.8c0-0.4-0.3-0.7-0.8-0.7-0.4 0-0.8 0.3-0.8 0.7 0 0.5 0.4 0.8 0.8 0.8 0.5 0 0.8-0.3 0.8-0.8z"/>
	<path id="Layer" class="s1" d="m141.6 140.9c0-0.4-0.3-0.8-0.7-0.8-0.4 0-0.7 0.4-0.7 0.8 0 0.4 0.3 0.7 0.7 0.7 0.4 0 0.7-0.3 0.7-0.7z"/>
	<path id="Layer" class="s1" d="m147.9 140.9c0-0.4-0.3-0.7-0.6-0.7-0.4 0-0.6 0.3-0.6 0.7 0 0.3 0.2 0.6 0.6 0.6 0.3 0 0.6-0.3 0.6-0.6z"/>
	<path id="Layer" class="s1" d="m154.2 140.9c0-0.3-0.2-0.5-0.5-0.5-0.3 0-0.5 0.2-0.5 0.5 0 0.2 0.2 0.5 0.5 0.5 0.3 0 0.5-0.3 0.5-0.5z"/>
	<path id="Layer" class="s1" d="m160.4 140.9c0-0.2-0.2-0.3-0.3-0.3-0.2 0-0.4 0.1-0.4 0.3 0 0.1 0.2 0.3 0.4 0.3 0.1 0 0.3-0.2 0.3-0.3z"/>
	<path id="Layer" class="s1" d="m166.3 140.9q0 0.1 0.2 0.1 0.1 0 0.1-0.1 0-0.1-0.1-0.2-0.2 0.1-0.2 0.2z"/>
	<path id="Layer" class="s1" d="m172.8 140.9q0 0 0 0 0.1 0 0.1 0 0 0-0.1 0 0 0 0 0z"/>
	<path id="Layer" class="s1" d="m115.8 147.2c0-0.2-0.2-0.4-0.5-0.4-0.2 0-0.4 0.2-0.4 0.4 0 0.2 0.2 0.4 0.4 0.4 0.3 0 0.5-0.2 0.5-0.4z"/>
	<path id="Layer" class="s1" d="m122.2 147.2c0-0.2-0.2-0.5-0.5-0.5-0.2 0-0.4 0.3-0.4 0.5 0 0.3 0.2 0.5 0.4 0.5 0.3 0 0.5-0.2 0.5-0.5z"/>
	<path id="Layer" class="s1" d="m128.6 147.2c0-0.2-0.2-0.5-0.5-0.5-0.3 0-0.5 0.3-0.5 0.5 0 0.3 0.2 0.5 0.5 0.5 0.3 0 0.5-0.2 0.5-0.5z"/>
	<path id="Layer" class="s1" d="m135 147.2c0-0.2-0.2-0.4-0.5-0.4-0.3 0-0.5 0.2-0.5 0.4 0 0.3 0.2 0.5 0.5 0.5 0.3 0 0.5-0.2 0.5-0.5z"/>
	<path id="Layer" class="s1" d="m141.3 147.2c0-0.2-0.2-0.4-0.4-0.4-0.2 0-0.4 0.2-0.4 0.4 0 0.3 0.2 0.5 0.4 0.5 0.2 0 0.4-0.2 0.4-0.5z"/>
	<path id="Layer" class="s1" d="m147.6 147.2c0-0.1-0.1-0.3-0.3-0.3-0.2 0-0.4 0.2-0.4 0.3 0 0.2 0.2 0.4 0.4 0.4 0.2 0 0.3-0.2 0.3-0.4z"/>
	<path id="Layer" class="s1" d="m153.9 147.3c0-0.2-0.1-0.3-0.2-0.3-0.1 0-0.2 0.1-0.2 0.3 0 0.1 0.1 0.2 0.2 0.2 0.1 0 0.2-0.1 0.2-0.2z"/>
	<path id="Layer" class="s1" d="m160 147.3q0 0 0.1 0 0 0 0 0 0-0.1 0-0.1-0.1 0-0.1 0.1z"/>
	<path id="Layer" class="s1" d="m115.2 153.6q0 0.1 0.1 0.1 0.2 0 0.2-0.1 0-0.1-0.2-0.1-0.1 0-0.1 0.1z"/>
	<path id="Layer" class="s1" d="m121.5 153.6c0 0.1 0.1 0.2 0.2 0.2 0.1 0 0.2-0.1 0.2-0.2 0-0.1-0.1-0.2-0.2-0.2-0.1 0-0.2 0.1-0.2 0.2z"/>
	<path id="Layer" class="s1" d="m127.9 153.6c0 0.1 0.1 0.2 0.2 0.2 0.1 0 0.2-0.1 0.2-0.2 0-0.1-0.1-0.2-0.2-0.2-0.1 0-0.2 0.1-0.2 0.2z"/>
	<path id="Layer" class="s1" d="m134.3 153.6c0 0.1 0.1 0.2 0.2 0.2 0.1 0 0.2-0.1 0.2-0.2 0-0.1-0.1-0.2-0.2-0.2-0.1 0-0.2 0.1-0.2 0.2z"/>
	<path id="Layer" class="s1" d="m140.8 153.6q0 0.1 0.1 0.2 0.1-0.1 0.1-0.2 0-0.1-0.1-0.1-0.1 0-0.1 0.1z"/>
	<path id="Layer" class="s1" d="m147.2 153.6q0 0.1 0.1 0.1 0 0 0-0.1 0 0 0 0-0.1 0-0.1 0z"/>
	<path id="Layer" class="s1" d="m153.7 153.6q0 0 0 0.1 0 0 0-0.1 0 0 0 0 0 0 0 0z"/>
	<path id="Layer" class="s1" d="m38.7 0.3q0 0 0 0 0 0 0 0 0 0 0 0 0 0 0 0z"/>
	<path id="Layer" class="s1" d="m45.2 0.3q0-0.1-0.1-0.1-0.1 0-0.1 0.1 0 0.1 0.1 0.1 0.1 0 0.1-0.1z"/>
	<path id="Layer" class="s1" d="m51.6 0.3c0-0.1 0-0.1-0.1-0.1-0.1 0-0.2 0-0.2 0.1 0 0.1 0.1 0.2 0.2 0.2 0.1 0 0.1-0.1 0.1-0.2z"/>
	<path id="Layer" class="s1" d="m58 0.3c0-0.1 0-0.1-0.1-0.1-0.1 0-0.2 0-0.2 0.1 0 0.1 0.1 0.2 0.2 0.2 0.1 0 0.1-0.1 0.1-0.2z"/>
	<path id="Layer" class="s1" d="m64.4 0.3c0-0.1-0.1-0.1-0.1-0.1-0.1 0-0.2 0-0.2 0.1 0 0.1 0.1 0.2 0.2 0.2 0 0 0.1-0.1 0.1-0.2z"/>
	<path id="Layer" class="s1" d="m70.8 0.3q0-0.1-0.1-0.1-0.1 0-0.1 0.1 0 0.1 0.1 0.1 0.1 0 0.1-0.1z"/>
	<path id="Layer" class="s1" d="m77.1 0.3q0 0-0.1 0 0 0 0 0 0 0.1 0 0.1 0.1 0 0.1-0.1z"/>
	<path id="Layer" class="s1" d="m26 6.7q0-0.1-0.1-0.1 0 0 0 0.1 0 0 0 0 0.1 0 0.1 0z"/>
	<path id="Layer" class="s1" d="m32.5 6.7c0-0.1-0.1-0.2-0.2-0.2-0.1 0-0.1 0.1-0.1 0.2 0 0.1 0 0.1 0.1 0.1 0.1 0 0.2 0 0.2-0.1z"/>
	<path id="Layer" class="s1" d="m38.4 6.7c0 0.2 0.1 0.3 0.3 0.3 0.2 0 0.3-0.1 0.3-0.3 0-0.2-0.1-0.3-0.3-0.3-0.2 0-0.3 0.1-0.3 0.3z"/>
	<path id="Layer" class="s1" d="m44.7 6.7c0 0.2 0.2 0.4 0.4 0.4 0.2 0 0.4-0.2 0.4-0.4 0-0.2-0.2-0.4-0.4-0.4-0.2 0-0.4 0.2-0.4 0.4z"/>
	<path id="Layer" class="s1" d="m51 6.7c0 0.2 0.2 0.4 0.5 0.4 0.2 0 0.4-0.2 0.4-0.4 0-0.2-0.2-0.4-0.4-0.4-0.3 0-0.5 0.2-0.5 0.4z"/>
	<path id="Layer" class="s1" d="m57.4 6.7c0 0.3 0.2 0.5 0.5 0.5 0.2 0 0.4-0.2 0.4-0.5 0-0.2-0.2-0.5-0.4-0.5-0.3 0-0.5 0.3-0.5 0.5z"/>
	<path id="Layer" class="s1" d="m63.8 6.7c0 0.3 0.2 0.5 0.5 0.5 0.2 0 0.4-0.2 0.4-0.5 0-0.2-0.2-0.4-0.4-0.4-0.3 0-0.5 0.2-0.5 0.4z"/>
	<path id="Layer" class="s1" d="m70.3 6.7c0 0.2 0.1 0.4 0.4 0.4 0.2 0 0.3-0.2 0.3-0.4 0-0.2-0.1-0.4-0.3-0.4-0.3 0-0.4 0.2-0.4 0.4z"/>
	<path id="Layer" class="s1" d="m76.7 6.7c0 0.2 0.2 0.3 0.3 0.3 0.2 0 0.3-0.1 0.3-0.3 0-0.1-0.1-0.3-0.3-0.3-0.1 0-0.3 0.2-0.3 0.3z"/>
	<path id="Layer" class="s1" d="m83.6 6.7c0-0.1-0.1-0.1-0.2-0.1-0.1 0-0.1 0-0.1 0.1 0 0.1 0 0.2 0.1 0.2 0.1 0 0.2-0.1 0.2-0.2z"/>
	<path id="Layer" class="s1" d="m89.9 6.7q0 0-0.1 0 0 0 0 0 0 0.1 0 0.1 0.1 0 0.1-0.1z"/>
	<path id="Layer" class="s1" d="m19.6 13.1q0-0.1-0.1-0.1 0 0-0.1 0.1 0.1 0 0.1 0.1 0.1-0.1 0.1-0.1z"/>
	<path id="Layer" class="s1" d="m25.7 13.1c0 0.1 0.1 0.2 0.2 0.2 0.2 0 0.3-0.1 0.3-0.2 0-0.2-0.1-0.3-0.3-0.3-0.1 0-0.2 0.1-0.2 0.3z"/>
	<path id="Layer" class="s1" d="m13.2 19.4q0 0-0.1 0 0 0 0 0 0 0.1 0 0.1 0.1 0 0.1-0.1z"/>
	<path id="Layer" class="s1" d="m19.2 19.5c0 0.1 0.2 0.3 0.3 0.3 0.2 0 0.3-0.2 0.3-0.3 0-0.2-0.1-0.4-0.3-0.4-0.1 0-0.3 0.2-0.3 0.4z"/>
	<path id="Layer" class="s1" d="m6.8 25.8q0 0 0 0-0.1 0-0.1 0 0 0.1 0 0.1 0.1 0 0.1-0.1z"/>
	<path id="Layer" class="s1" d="m12.9 25.8c0 0.2 0.1 0.3 0.2 0.3 0.2 0 0.3-0.1 0.3-0.3 0-0.1-0.1-0.2-0.3-0.2-0.1 0-0.2 0.1-0.2 0.2z"/>
	<path id="Layer" class="s1" d="m6.6 32.2c0 0.1 0.1 0.2 0.1 0.2 0.1 0 0.2-0.1 0.2-0.2 0-0.1-0.1-0.1-0.2-0.1 0 0-0.1 0-0.1 0.1z"/>
	<path id="Layer" class="s1" d="m12.7 32.2c0 0.3 0.2 0.5 0.4 0.5 0.3 0 0.5-0.2 0.5-0.5 0-0.2-0.2-0.4-0.5-0.4-0.2 0-0.4 0.2-0.4 0.4z"/>
	<path id="Layer" class="s1" d="m0.4 38.6q0 0-0.1 0 0 0 0 0 0 0 0 0 0.1 0 0.1 0z"/>
	<path id="Layer" class="s1" d="m6.4 38.6c0 0.2 0.2 0.3 0.3 0.3 0.2 0 0.3-0.1 0.3-0.3 0-0.2-0.1-0.3-0.3-0.3-0.1 0-0.3 0.1-0.3 0.3z"/>
	<path id="Layer" class="s1" d="m13.1 39.2c0.3 0 0.6-0.3 0.6-0.6 0-0.3-0.3-0.6-0.6-0.6-0.3 0-0.6 0.3-0.6 0.6 0 0.3 0.3 0.6 0.6 0.6z"/>
	<path id="Layer" class="s1" d="m0.3 45q0 0.1 0 0.1 0.1 0 0.1-0.1 0-0.1-0.1-0.1 0 0 0 0.1z"/>
	<path id="Layer" class="s1" d="m6.7 45.4c0.2 0 0.4-0.2 0.4-0.4 0-0.2-0.2-0.4-0.4-0.4-0.2 0-0.4 0.2-0.4 0.4 0 0.2 0.2 0.4 0.4 0.4z"/>
	<path id="Layer" class="s1" d="m13.1 45.7c0.4 0 0.7-0.3 0.7-0.7 0-0.4-0.3-0.7-0.7-0.7-0.4 0-0.7 0.3-0.7 0.7 0 0.4 0.3 0.7 0.7 0.7z"/>
	<path id="Layer" class="s1" d="m0.2 51.4c0 0.1 0.1 0.1 0.1 0.1 0.1 0 0.2 0 0.2-0.1 0-0.1-0.1-0.2-0.2-0.2 0 0-0.1 0.1-0.1 0.2z"/>
	<path id="Layer" class="s1" d="m6.7 51.8c0.3 0 0.5-0.2 0.5-0.4 0-0.3-0.2-0.5-0.5-0.5-0.2 0-0.4 0.2-0.4 0.5 0 0.2 0.2 0.4 0.4 0.4z"/>
	<path id="Layer" class="s1" d="m0.3 57.6c-0.1 0-0.1 0.1-0.1 0.2 0 0.1 0 0.1 0.1 0.1 0.1 0 0.2 0 0.2-0.1 0-0.1-0.1-0.2-0.2-0.2z"/>
	<path id="Layer" class="s1" d="m6.7 58.2c0.3 0 0.5-0.2 0.5-0.4 0-0.3-0.2-0.5-0.5-0.5-0.2 0-0.4 0.2-0.4 0.5 0 0.2 0.2 0.4 0.4 0.4z"/>
	<path id="Layer" fill-rule="evenodd" class="s1" d="m180.5 41.2q0.7 5.6 1 11.2 0.7 11.2 0.4 22.4-0.1 5.6-0.5 11.2-0.4 5.6-1.2 11.2-0.3 2.5-0.8 4.9c0.2 0.1 0.3 0.3 0.3 0.5 0 0.2-0.2 0.4-0.4 0.4q-0.5 2.7-1.2 5.3c-0.5 1.8-1 3.7-1.7 5.5q-0.5 1.4-1.2 2.7-0.3 0.7-0.7 1.3-0.4 0.7-0.9 1.3-0.5 0.6-1.1 1.2l-0.6 0.5-0.3 0.3-0.2 0.2q-1.1 1-2.3 1.8c-1.6 1.2-3.4 2.2-5.2 2.9q-0.4 0.1-0.7 0.3-0.4 0.1-0.8 0.2-0.1 0.1-0.3 0.1l-0.2 0.1h-0.1-0.1q-0.2 0.1-0.4 0.1l-0.4 0.1q-0.2 0.1-0.4 0.1h-0.3l-0.7 0.2q-0.8 0.1-1.5 0.2-1.7 0.2-3.4 0.4 0.1 0.1 0.1 0.3c0 0.5-0.5 1-1 1-0.6 0-1-0.5-1-1q0-0.1 0-0.2-0.1 0.1-0.3 0.1-1.9 0.2-3.9 0.3c-0.2 0.6-0.6 1-1.2 1-0.5 0-0.9-0.4-1.1-0.8q-2.1 0.2-4.2 0.3c-0.2 0.4-0.6 0.6-1.1 0.6-0.4 0-0.7-0.2-1-0.5q-2.3 0.2-4.6 0.3-0.4 0.3-0.8 0.3-0.3 0-0.6-0.2-1.9 0.1-3.7 0.2-10.6 0.6-21.2 0.9c-1.5 3.4-3.5 6.6-5.8 9.5q-0.1 0.1-0.2 0.2c0.2 0.2 0.4 0.4 0.4 0.7 0 0.5-0.4 0.8-0.8 0.8q-0.4 0-0.6-0.2-1.4 1.6-3 3.1-1.2 1.2-2.5 2.3c0.1 0.1 0.2 0.2 0.2 0.4 0 0.3-0.2 0.5-0.5 0.5-0.2 0-0.4-0.2-0.5-0.4q-0.8 0.6-1.6 1.2-0.3 0.2-0.7 0.4l-0.7 0.4v0.1h-0.1l-0.1 0.1q-0.2 0-0.3 0.1-0.2 0.1-0.4 0.1-0.1 0.1-0.3 0.1-0.7 0.2-1.4 0.1c-1-0.1-1.9-0.6-2.5-1.3q-0.5-0.5-0.8-1.1-0.3-0.7-0.4-1.4 0-0.8 0.2-1.5 0-0.1 0.1-0.3 0.1-0.2 0.1-0.3l0.2-0.3q0.2-0.7 0.5-1.3 0.2-0.6 0.4-1.3 0.2-0.6 0.3-1.3c0.4-1.7 0.5-3.5 0.2-5.2q-0.2-1.3-0.6-2.5-0.2-0.7-0.5-1.3-9.1-0.1-18.1-0.4-2.4-0.1-4.8-0.2l-1.2-0.1h-0.6l-0.6-0.1-2.4-0.2q-3.8-0.2-7.5-0.6-0.3 0.2-0.7 0.2c-0.4 0-0.8-0.2-1-0.4q-0.3 0-0.5-0.1l-2.4-0.3q-0.6-0.1-1.2-0.2h-0.1c-0.2 0.5-0.6 0.9-1.2 0.9-0.7 0-1.3-0.6-1.3-1.3q-1.7-0.3-3.5-0.7-0.3-0.1-0.6-0.2l-0.3-0.1c0.3 0.2 0.5 0.6 0.5 1 0 0.6-0.5 1.1-1.2 1.1-0.6 0-1.2-0.5-1.2-1.1 0-0.6 0.5-1.1 1.1-1.2l-0.7-0.2q-0.3-0.1-0.6-0.1l-0.6-0.2q-0.6-0.2-1.2-0.4-1.2-0.4-2.4-0.9-0.5-0.2-1.1-0.5-0.3-0.1-0.6-0.2-0.3-0.2-0.6-0.3-2-1-3.9-2.3c-0.1 0.5-0.5 0.9-1 0.9-0.5 0-0.9-0.5-0.9-1 0-0.4 0.2-0.7 0.5-0.9l-0.2-0.2q-0.5-0.4-1-0.9-1-1-1.7-2.1c-1.1-1.4-1.9-3-2.6-4.5q-1-2.3-1.8-4.7c-1.1-3.1-1.9-6.3-2.5-9.5q-1-4.8-1.6-9.6-0.3-2.4-0.5-4.9 0-0.2 0-0.5-0.2 0.1-0.4 0.1c-0.4 0-0.7-0.3-0.7-0.7 0-0.3 0.3-0.7 0.7-0.7q0.1 0 0.3 0.1-0.2-1.5-0.3-3.1 0-1-0.1-2c-0.3 0-0.5-0.3-0.5-0.6q0 0 0 0 0 0 0-0.1c0-0.2 0.2-0.5 0.5-0.5q-0.1-2.6-0.2-5.1c-0.2-0.1-0.4-0.4-0.4-0.7 0-0.2 0.2-0.4 0.4-0.6q0 0 0-0.1-0.1-2.5 0-5c-0.3-0.1-0.4-0.3-0.4-0.6 0-0.3 0.1-0.6 0.4-0.7q0-2.5 0.1-5c-0.3-0.1-0.6-0.4-0.6-0.7 0-0.4 0.3-0.7 0.7-0.8q0.1-2.4 0.3-4.9-0.1 0-0.2 0c-0.4 0-0.7-0.3-0.7-0.7 0-0.4 0.3-0.8 0.7-0.8q0.2 0 0.3 0.1 0-0.2 0-0.3 0.5-4.8 1.2-9.6c0.5-3.3 1.1-6.5 2-9.6q0.6-2.4 1.5-4.8c0.6-1.5 1.3-3.1 2.2-4.6q0.7-1.1 1.6-2.2 0.4-0.5 1-1 0.1-0.1 0.3-0.2l0.2-0.2 0.5-0.4q2.1-1.5 4.4-2.7 1.1-0.5 2.3-1 0.8-0.3 1.6-0.6c-0.2 0-0.3-0.2-0.3-0.4 0-0.3 0.2-0.5 0.4-0.5 0.3 0 0.5 0.2 0.5 0.5q0 0.1-0.1 0.2 0.1 0 0.3-0.1 1.2-0.3 2.4-0.6 0.3-0.1 0.6-0.2l0.3-0.1q0 0 0.1 0h0.1 0.1c0.3-0.1 0.5-0.1 0.7-0.1q0.3-0.1 0.6-0.1 1.3-0.2 2.5-0.3 1.2-0.1 2.4-0.2 2.4-0.1 4.8-0.2 9.7-0.5 19.3-0.7 9.6-0.3 19.2-0.4 9.6-0.1 19.3 0 9.6 0 19.2 0.2c6.4 0.2 12.8 0.5 19.3 0.9q1.2 0.1 2.4 0.2l1.2 0.1 1.2 0.1q1.2 0.1 2.4 0.2 1.2 0.1 2.4 0.3 1.2 0.1 2.4 0.3 1.2 0.2 2.4 0.4 0.6 0.1 1.2 0.2 0.3 0.1 0.6 0.1l0.6 0.2q1.3 0.2 2.5 0.7c0.8 0.2 1.7 0.5 2.6 0.8 0.9 0.3 1.9 0.7 2.8 1.1q1.3 0.7 2.5 1.6l0.3 0.2q0.2 0.1 0.3 0.2l0.6 0.5q0.3 0.2 0.6 0.5l0.2 0.2q0.2 0.1 0.3 0.2l0.5 0.5 0.1 0.1 0.1 0.1 0.1 0.1q0.2 0.2 0.3 0.3 0.5 0.7 0.9 1.3 0.5 0.7 0.8 1.4 0.1 0.3 0.3 0.7 0.1 0.3 0.3 0.6c0.7 1.9 1.2 3.7 1.7 5.5q0.7 2.8 1.1 5.6 0.5 2.8 0.9 5.5zm-1.4 29.3q0.2-9-0.3-17.9-0.4-5.5-1-11c-0.5-3.7-1.1-7.3-1.9-10.8q-0.3-1.3-0.7-2.6-0.4-1.3-0.9-2.5-0.1-0.4-0.3-0.7-0.1-0.2-0.2-0.5-0.3-0.6-0.6-1.2-0.4-0.5-0.7-0.9-0.1-0.1-0.2-0.2l-0.1-0.1v-0.1h-0.1l-0.5-0.5q-0.1-0.1-0.2-0.2l-0.3-0.2q-0.2-0.2-0.5-0.4l-0.5-0.4q-0.1-0.2-0.3-0.2l-0.2-0.2q-1.1-0.8-2.2-1.4-1.1-0.5-2.4-0.9c-0.9-0.3-1.8-0.6-2.7-0.9q-1-0.4-2.2-0.6l-0.5-0.1q-0.3-0.1-0.6-0.2-0.6-0.1-1.1-0.2-0.6-0.1-1.2-0.2l-1.2-0.2q-1.1-0.1-2.3-0.3-1.2-0.1-2.4-0.2-1.2-0.1-2.4-0.2l-1.2-0.1-1.1-0.1q-1.2-0.1-2.4-0.2-4.8-0.3-9.6-0.5-4.8-0.2-9.6-0.3-14.1-0.3-28.2-0.2-0.1 0-0.2 0-3 0-6 0.1-0.3 0-0.6 0-1.7 0-3.3 0-1.2 0-2.3 0.1-0.5 0-0.9 0-2.7 0-5.4 0.1-0.6 0-1.1 0-2.6 0.1-5.3 0.2-0.5 0-1 0-1.6 0-3.2 0.1-1.2 0-2.4 0.1-0.3 0-0.7 0-8 0.3-16.1 0.7-2.4 0.2-4.8 0.4-1.2 0-2.3 0.1-1.2 0.2-2.4 0.3-0.2 0-0.5 0.1c-0.2 0-0.4 0-0.5 0.1h-0.1-0.1q0 0-0.1 0l-0.2 0.1q-0.3 0.1-0.6 0.1-1.1 0.3-2.2 0.7-1.1 0.3-2.2 0.8-1 0.4-2 0.9-2 1-3.8 2.4l-0.5 0.4-0.2 0.1q-0.1 0.1-0.2 0.2-0.3 0.3-0.7 0.7-0.6 0.7-1.2 1.7c-0.7 1.2-1.3 2.6-1.9 4q-0.7 2.1-1.3 4.2 0 0.1 0 0.3-0.1 0.4-0.2 0.8c-0.7 2.8-1.2 5.6-1.7 8.4q-0.7 4.7-1 9.4c-0.5 6.3-0.7 12.7-0.5 19 0.1 6.4 0.5 12.7 1.3 19q0.4 3.2 1 6.4 0.2 1 0.4 2 0.1 0.5 0.2 0.9 0.3 1.9 0.8 3.8 0.1 0.4 0.2 0.8 0.6 2.3 1.4 4.5 0.7 2.2 1.6 4.2 0.8 1.6 1.6 3 0.3 0.4 0.6 0.9 0.4 0.5 0.8 0.9 0.3 0.4 0.6 0.7 0.3 0.3 0.7 0.6l0.2 0.2 0.1 0.1 0.1 0.1 0.5 0.3q1.8 1.3 3.8 2.3 0.3 0.1 0.5 0.2 0.3 0.1 0.5 0.2 0.5 0.3 1.1 0.5 1 0.4 2.1 0.8 0.3 0.1 0.7 0.2 0.2 0 0.4 0.1l0.6 0.2q0.3 0.1 0.5 0.1l0.4 0.1 0.7 0.2 0.6 0.2q0.3 0.1 0.5 0.1c3.1 0.7 6.2 1.2 9.3 1.6q4.7 0.5 9.5 0.9l2.3 0.1 0.6 0.1h0.6l1.2 0.1q2.4 0.1 4.8 0.2c6.4 0.3 12.7 0.4 19.1 0.4h0.9 0.3l0.6 1.1q0.3 0.5 0.6 1.1 0.4 0.9 0.7 1.9 0.6 1.6 0.8 3.3c0.4 2.2 0.2 4.4-0.2 6.6q-0.2 0.8-0.4 1.6-0.3 0.8-0.6 1.5-0.2 0.8-0.6 1.5l-0.1 0.4q-0.1 0-0.1 0 0 0 0 0.1 0 0 0 0 0 0 0 0 0 0 0.1 0.1 0.1 0 0.1 0.1 0 0 0 0 0 0 0.1-0.1 0 0 0 0 0 0 0 0 0 0 0 0h0.1l0.6-0.4q0.3-0.1 0.5-0.3 2.4-1.6 4.4-3.5 0.1-0.1 0.1-0.1 0.3-0.3 0.6-0.6 1.7-1.6 3.1-3.5 0.9-1.1 1.7-2.3 0.7-0.9 1.2-1.8 0.2-0.3 0.4-0.6 1.5-2.4 2.7-5.1l0.5-1.1h1.2q11.1-0.2 22.2-0.7 5.5-0.3 11.1-0.6 5.5-0.3 11-0.8 2.8-0.2 5.5-0.5 0.7-0.1 1.4-0.2l0.6-0.1h0.4q0.1-0.1 0.3-0.1l0.3-0.1h0.2 0.1l0.1-0.1h0.1q0.2-0.1 0.3-0.1 0.3-0.1 0.6-0.2 0.3-0.1 0.6-0.2 1.7-0.7 3.3-1.7 0.2-0.1 0.4-0.2 0.4-0.3 0.9-0.6 1-0.7 2-1.6l0.3-0.2 0.3-0.2 0.4-0.5q0.4-0.4 0.8-0.8 0.4-0.5 0.7-1 0.3-0.5 0.6-1.1 0.6-1.2 1.1-2.4c0.7-1.6 1.2-3.4 1.7-5.1q0.7-2.6 1.2-5.3 0.5-2.7 0.9-5.5 0.8-5.4 1.2-10.9 0.5-5.5 0.6-11.1 0.1-2 0.1-4 0-0.1 0-0.2z"/>
	<path id="Layer" class="s1" d="m0.3 64c-0.1 0-0.1 0.1-0.1 0.2 0 0 0 0.1 0.1 0.1 0.1 0 0.2-0.1 0.2-0.1 0-0.1-0.1-0.2-0.2-0.2z"/>
	<path id="Layer" class="s1" d="m6.7 63.7c-0.2 0-0.4 0.2-0.4 0.5 0 0.2 0.2 0.4 0.4 0.4 0.3 0 0.5-0.2 0.5-0.4 0-0.3-0.2-0.5-0.5-0.5z"/>
	<path id="Layer" class="s1" d="m0.3 70.4q-0.1 0-0.1 0.1 0 0.1 0.1 0.2 0.1-0.1 0.1-0.2 0-0.1-0.1-0.1z"/>
	<path id="Layer" class="s1" d="m6.7 70.2c-0.2 0-0.4 0.1-0.4 0.4 0 0.2 0.2 0.3 0.4 0.3 0.2 0 0.4-0.1 0.4-0.3 0-0.3-0.2-0.4-0.4-0.4z"/>
	<path id="Layer" class="s1" d="m0.3 76.9q0 0.1 0 0.1 0.1 0 0.1-0.1 0 0-0.1 0 0 0 0 0z"/>
	<path id="Layer" class="s1" d="m6.7 77.2c0.2 0 0.3-0.1 0.3-0.3q0 0 0 0 0 0 0-0.1c0-0.1-0.1-0.3-0.3-0.3-0.2 0-0.3 0.2-0.3 0.3q0 0.1 0 0.1 0 0 0 0c0 0.2 0.1 0.3 0.3 0.3z"/>
	<path id="Layer" class="s1" d="m140.9 6.2c26.8 0.4 42.8 5.4 44.6 34.6 2.4-25.5-9.2-37.7-44.6-34.6z"/>
</svg>