<svg version="1.2" xmlns="http://www.w3.org/2000/svg" viewBox="0 0 187 154" width="187" height="154">
	<title>PkEq71kySs7G-svg</title>
	<defs>
		<clipPath clipPathUnits="userSpaceOnUse" id="cp1">
			<path d="m117.12 32.48q0-0.01-0.01-0.01c-0.89-0.13-0.92-0.15-0.5-0.21 0.81-0.12 2.7 0.04 4.01 0.35 3.05 0.72 5.83 2.57 8.8 5.86l0.42 0.46c0.23 0.26 0.57 0.38 0.9 0.32l0.59-0.09c4.75-0.76 9.58-0.16 13.62 1.69 1.12 0.52 2.87 1.53 3.08 1.79 0.08 0.09 0.21 0.62 0.29 1.19 0.3 1.98 0.15 3.49-0.46 4.63-0.33 0.61-0.35 0.81-0.13 1.34q0.17 0.33 0.48 0.53 0.32 0.2 0.69 0.2c1 0 2.09-1.61 2.58-3.86l0.07-0.32c0.06-0.24 0.36-0.32 0.53-0.13 2.16 2.44 3.86 5.75 4.15 8.12 0.02 0.15-0.18 0.22-0.26 0.09l-0.03-0.04c-0.52-0.85-1.22-1.59-2.06-2.14-1.45-0.96-2.98-1.28-7.04-1.5-3.67-0.19-5.75-0.5-7.8-1.17-3.51-1.14-5.27-2.64-9.43-8.07-1.85-2.41-2.99-3.74-4.13-4.81-2.58-2.44-5.12-3.72-8.36-4.22q0 0 0 0zm31.75 5.37q0 0 0 0c0.09-1.61 0.31-2.68 0.75-3.65q0.05-0.11 0.1-0.23c0.15-0.3 0.24-0.27 0.13 0.05q-0.02 0.06-0.04 0.11c-0.32 0.95-0.37 2.24-0.15 3.74 0.29 1.91 0.44 2.18 2.47 4.24 0.95 0.97 2.06 2.18 2.46 2.71l0.12 0.16c0.06 0.08-0.05 0.18-0.12 0.11-0.89-0.83-2.94-2.45-3.4-2.69-0.3-0.15-0.35-0.15-0.53 0.04-0.18 0.17-0.21 0.42-0.24 1.64-0.03 1.89-0.29 3.1-0.92 4.31-0.33 0.66-0.39 0.52-0.08-0.22 0.23-0.55 0.25-0.8 0.25-2.63 0-3.67-0.45-4.56-3.02-6.07q-1.17-0.67-2.39-1.23c-0.61-0.24-0.54-0.45 0.09-0.27 0.8 0.23 1.79 0.54 2.34 0.75 1.5 0.57 1.75 0.65 1.93 0.58 0.12-0.05 0.19-0.4 0.24-1.44q0-0.01 0.01-0.01zm-30.02 6.29c-1.81-2.47-2.93-6.27-2.69-9.11l0.04-0.46c0.02-0.22 0.23-0.38 0.45-0.34 0.77 0.14 2.11 0.63 2.73 1.01 1.71 1.04 2.46 2.4 3.21 5.89 0.22 1.03 0.51 2.18 0.65 2.58 0.21 0.63 1.02 2.11 1.68 3.06 0.48 0.7 0.16 1.02-0.89 0.93-1.6-0.14-3.78-1.64-5.18-3.56zm27.82 18.43c-8.46-3.38-11.44-6.32-11.44-11.27 0-0.73 0.03-1.33 0.06-1.33 0.03 0 0.36 0.24 0.73 0.54 1.71 1.36 3.63 1.94 8.95 2.72 3.13 0.45 4.88 0.82 6.51 1.35 5.17 1.7 8.36 5.15 9.12 9.86 0.22 1.37 0.09 3.93-0.27 5.28-0.29 1.06-1.15 2.98-1.38 3.06-0.06 0.02-0.12-0.22-0.14-0.55-0.08-1.76-0.98-3.48-2.49-4.77-1.72-1.47-4.02-2.64-9.65-4.89zm-5.94 1.41q-0.15-0.9-0.41-1.78l-0.02-0.07c-0.04-0.12 0.12-0.22 0.21-0.12 0.55 0.62 0.99 1.41 1.36 2.47 0.29 0.8 0.32 1.04 0.32 2.35 0 1.28-0.04 1.55-0.31 2.27-0.36 1.07-0.97 2.04-1.78 2.83-1.54 1.56-3.53 2.42-6.4 2.78-0.49 0.07-1.95 0.17-3.22 0.24-3.22 0.16-5.34 0.51-7.24 1.17q-0.05 0.03-0.11 0.05c-0.27 0.09-0.34-0.04-0.1-0.2 0.44-0.29 1.25-0.74 1.95-1.08 1.51-0.72 3.02-1.11 6.38-1.67 1.66-0.27 3.38-0.61 3.82-0.74 4.11-1.25 6.23-4.49 5.55-8.5zm3.88 6.84c-1.12-2.4-1.38-4.71-0.77-6.88 0.07-0.23 0.17-0.42 0.24-0.42 0.06 0 0.33 0.14 0.59 0.32 0.52 0.35 1.55 0.93 4.32 2.43 3.45 1.87 5.42 3.32 6.76 4.97 1.17 1.45 1.9 3.1 2.25 5.11 0.2 1.14 0.08 3.89-0.22 5.04-0.93 3.62-3.08 6.46-6.16 8.12-0.45 0.25-0.85 0.44-0.9 0.44-0.04 0 0.12-0.41 0.37-0.92 1.03-2.15 1.15-4.24 0.37-6.57-0.48-1.42-1.46-3.16-3.43-6.11-2.3-3.41-2.86-4.32-3.42-5.53zm-31.77 12.96c3.14-2.64 7.05-4.51 10.6-5.08 1.84-0.24 3.7-0.17 5.51 0.21 2.27 0.58 4.31 1.88 5.37 3.42 1.03 1.51 1.48 2.82 1.94 5.75 0.18 1.15 0.38 2.31 0.44 2.58 0.34 1.51 1.02 2.73 1.86 3.33 1.32 0.97 3.62 1.03 5.87 0.16q0.12-0.05 0.24-0.1c0.3-0.11 0.39 0.03 0.12 0.21-0.38 0.28-0.99 0.65-1.47 0.89-0.95 0.51-2.01 0.76-3.07 0.74-2.07 0-3.78-1.04-5.21-3.16q-0.79-1.35-1.4-2.79c-1.51-3.42-2.26-4.46-4-5.6-1.53-0.99-3.5-1.17-4.98-0.45-1.94 0.95-2.48 3.41-1.09 4.98 0.65 0.67 1.51 1.11 2.43 1.26q0.56 0.07 1.09-0.09 0.54-0.16 0.97-0.53 0.42-0.37 0.65-0.88 0.23-0.52 0.22-1.08c0-1.03-0.39-1.61-1.39-2.07-1.37-0.61-2.84 0.11-2.83 1.38 0 0.55 0.24 0.89 0.79 1.14 0.35 0.16 0.36 0.17 0.07 0.11-1.25-0.26-1.55-1.76-0.54-2.76 1.21-1.19 3.72-0.67 4.57 0.97 0.36 0.69 0.4 2.05 0.09 2.88-0.71 1.84-2.76 2.82-4.84 2.29-1.42-0.36-2-0.75-3.71-2.5-2.97-3.05-4.12-3.64-8.41-4.3-0.32-0.05-0.43-0.46-0.18-0.67zm-15.41-56.28c0.12 0 19.43 16.61 21.42 18.92l0.29 0.33q0.26 0.31 0.25 0.71l-0.03 0.59q-0.01 0.9-0.39 1.71-0.39 0.81-1.08 1.38c-1.14 1.04-2.52 1.6-4.69 1.9-1.34 0.18-1.82 0.38-2.36 0.97-0.52 0.56-0.71 1.27-0.86 3.06-0.22 2.76-0.55 3.93-1.87 6.68-1.26 2.65-1.53 3.65-1.3 5.07 0.27 1.73 1.25 2.99 3.56 4.55 1.75 1.2 2.55 1.97 2.98 2.9 0.27 0.56 0.31 0.77 0.3 1.76-0.01 1.51-0.25 2.12-1.29 3.22-1.68 1.79-4.68 3.24-8.35 4.06-1.55 0.35-1.62 0.35-1.62 0 0-0.45-0.57-1.58-1.56-3.11-1.15-1.78-1.61-2.66-2.03-4.01-0.5-1.53-0.63-2.56-0.56-4.17 0.06-1.51 0.23-2.18 0.84-3.38 0.48-0.96 0.79-1.39 2.7-3.76 3.26-4.04 4.43-6.4 4.85-9.74 0.38-2.98 0.89-4.42 2.05-5.7 0.69-0.78 0.85-1.07 0.85-1.63 0-0.27 0.67-0.98-0.17-2.91-4.02-7.16-4.94-8.78-5.08-9.08-0.03-0.07 0.05 0 0.09 0.06q2.67 4.02 5.28 8.09c2.02 3.56 2.29 3.59 2.67 3.94q0.03 0.02 0.06 0.05c0.08 0.07 0.35 0.24 0.91 0.24q1.29-0.1 2.44-0.68c1.07-0.61 1.31-1.38 0.69-2.25-0.76-1.04-7.6-5.98-17.53-17.95-0.83-1-1.48-1.82-1.46-1.82zm6.09 48.34c0.22-0.38 0.28-0.83 0.18-1.26-0.1-0.43-0.36-0.81-0.73-1.05-0.71-0.48-1.82-0.25-1.82 0.36q-0.01 0.28 0.34 0.45c0.4 0.2 0.42 0.43 0.11 0.9-0.31 0.47-0.29 0.88 0.07 1.16 0.59 0.45 1.41 0.21 1.85-0.56zm19.88-22.03c1.22 0.62 2.11 2.02 1.92 3.04-0.24 1.24-2.26 2.23-4.58 2.25-1.19 0-1.63-0.16-2.08-0.76-0.28-0.37-0.39-1.58-0.21-2.26 0.32-1.13 1.31-2.21 2.33-2.52 0.88-0.17 1.79-0.09 2.62 0.25zm0.1 1.86c0.35-0.5 0.2-1.05-0.42-1.42-1.15-0.7-2.91-0.12-2.91 0.97 0 0.54 0.91 1.14 1.75 1.14 0.56 0 1.33-0.34 1.58-0.69z"/>
		</clipPath>
	</defs>
	<style>
		.s0 { fill: #16c1f3 } 
		.s1 { fill: #1a1a1a } 
		.s2 { fill: #fffdff } 
		.s3 { fill: #000000 } 
	</style>
	<path id="Layer" class="s0" d="m9.1 41.6c0.4-3.6 1-7.3 1.9-10.8q0.3-1.3 0.7-2.6 0.4-1.3 0.9-2.5 0.1-0.3 0.2-0.6 0.1-0.3 0.3-0.6 0.3-0.6 0.6-1.1 0.3-0.5 0.7-1 0.1-0.1 0.2-0.2v-0.1h0.1l0.1-0.1 0.4-0.4q0.2-0.1 0.3-0.3l0.2-0.2q0.3-0.2 0.5-0.4l0.5-0.4q0.2-0.1 0.3-0.2l0.3-0.2q1-0.8 2.2-1.3 1.1-0.6 2.4-1c0.8-0.3 1.7-0.6 2.6-0.9q1.1-0.3 2.2-0.6l0.6-0.1q0.2-0.1 0.5-0.1 0.6-0.1 1.2-0.2 0.6-0.2 1.1-0.2l1.2-0.2q1.2-0.2 2.4-0.3 1.1-0.2 2.3-0.3 1.2-0.1 2.4-0.2l1.2-0.1 1.2-0.1q1.2-0.1 2.4-0.2 4.7-0.3 9.5-0.5 4.8-0.2 9.6-0.3 14.1-0.3 28.2-0.2 0.1 0 0.2 0 3 0.1 6 0.1 0.3 0 0.6 0 1.7 0 3.4 0 1.1 0.1 2.3 0.1 0.4 0 0.9 0 2.7 0.1 5.4 0.1 0.5 0 1 0 2.7 0.1 5.4 0.2 0.5 0 1 0 1.6 0.1 3.2 0.1 1.1 0.1 2.3 0.1 0.4 0 0.7 0 8.1 0.3 16.1 0.8 2.4 0.1 4.8 0.3 1.2 0.1 2.4 0.2 1.2 0.1 2.3 0.2 0.3 0.1 0.6 0.1c0.1 0 0.3 0.1 0.5 0.1h0.1q0.1 0 0.1 0.1h0.3q0.3 0.1 0.6 0.2 1.1 0.3 2.2 0.6 1 0.4 2.1 0.8 1.1 0.4 2.1 1 2 1 3.8 2.3l0.4 0.4 0.3 0.2q0 0 0.1 0.1 0.4 0.3 0.7 0.7 0.7 0.8 1.2 1.7c0.8 1.3 1.4 2.6 1.9 4.1q0.7 2 1.3 4.1 0 0.1 0.1 0.3 0.1 0.4 0.2 0.8c0.7 2.8 1.2 5.6 1.6 8.4q0.7 4.7 1.1 9.5c0.5 6.3 0.6 12.6 0.5 19-0.1 6.3-0.6 12.7-1.4 18.9q-0.4 3.3-1 6.4-0.1 1-0.3 2-0.1 0.5-0.2 1-0.4 1.8-0.9 3.7-0.1 0.4-0.2 0.8-0.6 2.3-1.3 4.5-0.8 2.2-1.7 4.3-0.7 1.5-1.6 2.9-0.3 0.5-0.6 0.9-0.4 0.5-0.8 1-0.2 0.3-0.5 0.6-0.4 0.4-0.8 0.7l-0.2 0.1v0.1l-0.2 0.1-0.4 0.3q-1.8 1.3-3.9 2.3-0.2 0.1-0.5 0.2-0.2 0.2-0.5 0.3-0.5 0.2-1 0.4-1.1 0.4-2.2 0.8-0.3 0.1-0.6 0.2-0.2 0.1-0.5 0.1l-0.5 0.2q-0.3 0.1-0.6 0.2l-0.4 0.1-0.7 0.2-0.5 0.1q-0.3 0.1-0.6 0.1c-3 0.7-6.1 1.2-9.3 1.6q-4.7 0.6-9.4 0.9l-2.4 0.2h-0.6-0.6l-1.2 0.1q-2.4 0.1-4.7 0.2c-6.4 0.3-12.8 0.4-19.2 0.5h-0.8-0.4l-0.6 1q-0.3 0.6-0.5 1.2-0.5 0.9-0.8 1.8-0.5 1.6-0.8 3.3c-0.3 2.2-0.2 4.5 0.3 6.6q0.1 0.8 0.4 1.6 0.2 0.8 0.5 1.6 0.3 0.7 0.6 1.5l0.2 0.3q0 0.1 0 0.1 0 0 0 0 0 0 0 0 0 0 0 0.1 0 0 0 0-0.1 0.1-0.2 0.1 0 0 0 0 0 0 0 0 0 0 0 0 0 0 0 0-0.1 0-0.1 0v-0.1l-0.6-0.3q-0.3-0.2-0.6-0.4-2.3-1.5-4.4-3.5 0 0-0.1-0.1-0.3-0.2-0.5-0.5-1.7-1.7-3.2-3.6-0.9-1.1-1.7-2.2-0.6-0.9-1.2-1.8-0.2-0.4-0.4-0.7-1.4-2.4-2.6-5l-0.5-1.1-1.2-0.1q-11.1-0.2-22.2-0.7-5.6-0.2-11.1-0.6-5.6-0.3-11.1-0.7-2.8-0.3-5.5-0.6-0.7-0.1-1.3-0.2l-0.7-0.1h-0.3q-0.2 0-0.3-0.1h-0.3l-0.3-0.1h-0.1l-0.2-0.1q-0.1 0-0.3-0.1-0.3-0.1-0.6-0.2-0.3-0.1-0.6-0.2-1.7-0.7-3.3-1.6-0.2-0.1-0.4-0.3-0.4-0.3-0.8-0.6-1.1-0.7-2.1-1.6l-0.3-0.2-0.2-0.2-0.5-0.4q-0.4-0.4-0.8-0.9-0.3-0.4-0.7-1-0.3-0.5-0.6-1.1-0.6-1.1-1.1-2.4-0.9-2.4-1.6-5.1-0.7-2.6-1.2-5.3-0.6-2.7-1-5.4-0.7-5.5-1.2-11-0.4-5.5-0.6-11-0.1-2-0.1-4.1 0-0.1 0-0.2-0.1-8.9 0.4-17.9 0.3-5.5 1-11z"/>
	<path id="Layer" class="s1" d="m186.5 76.9q0 0 0-0.1 0.1 0.1 0.1 0.1 0 0-0.1 0 0 0 0 0z"/>
	<path id="Layer" class="s1" d="m186.6 83.3q0 0.1-0.1 0.1-0.1 0-0.1-0.1 0-0.1 0.1-0.1 0.1 0 0.1 0.1z"/>
	<path id="Layer" class="s1" d="m180.1 83.7c-0.2 0-0.3-0.2-0.3-0.4 0-0.2 0.1-0.4 0.3-0.4 0.3 0 0.4 0.2 0.4 0.4 0 0.2-0.1 0.4-0.4 0.4z"/>
	<path id="Layer" class="s1" d="m186.7 89.7c0 0-0.1 0.1-0.2 0.1 0 0-0.1-0.1-0.1-0.1 0-0.1 0.1-0.2 0.1-0.2 0.1 0 0.2 0.1 0.2 0.2z"/>
	<path id="Layer" class="s1" d="m180.1 90.1c-0.2 0-0.4-0.2-0.4-0.4 0-0.3 0.2-0.5 0.4-0.5 0.3 0 0.5 0.2 0.5 0.5 0 0.2-0.2 0.4-0.5 0.4z"/>
	<path id="Layer" class="s1" d="m173.8 90.4c-0.5 0-0.8-0.3-0.8-0.7 0-0.4 0.3-0.8 0.8-0.8 0.4 0 0.7 0.4 0.7 0.8 0 0.4-0.3 0.7-0.7 0.7z"/>
	<path id="Layer" class="s1" d="m186.5 95.9c0.1 0 0.2 0.1 0.2 0.2 0 0-0.1 0.1-0.2 0.1-0.1 0-0.1-0.1-0.1-0.1 0-0.1 0-0.2 0.1-0.2z"/>
	<path id="Layer" class="s1" d="m180.1 96.5c-0.2 0-0.4-0.2-0.4-0.4 0-0.3 0.2-0.5 0.4-0.5 0.3 0 0.5 0.2 0.5 0.5 0 0.2-0.2 0.4-0.5 0.4z"/>
	<path id="Layer" class="s1" d="m173.8 96.8c-0.5 0-0.8-0.3-0.8-0.7 0-0.5 0.3-0.8 0.8-0.8 0.4 0 0.7 0.3 0.7 0.8 0 0.4-0.3 0.7-0.7 0.7z"/>
	<path id="Layer" class="s1" d="m186.5 102.3c0.1 0 0.2 0.1 0.2 0.1 0 0.1-0.1 0.2-0.2 0.2 0 0-0.1-0.1-0.1-0.2 0 0 0.1-0.1 0.1-0.1z"/>
	<path id="Layer" class="s1" d="m179.7 102.4c0-0.2 0.2-0.4 0.5-0.4 0.2 0 0.4 0.2 0.4 0.4 0 0.3-0.2 0.5-0.4 0.5-0.3 0-0.5-0.2-0.5-0.5z"/>
	<path id="Layer" class="s1" d="m173.8 101.7c0.4 0 0.7 0.3 0.7 0.8 0 0.4-0.3 0.7-0.7 0.7-0.5 0-0.8-0.3-0.8-0.7 0-0.5 0.3-0.8 0.8-0.8z"/>
	<path id="Layer" class="s1" d="m186.4 108.8q0.1-0.1 0.1-0.1 0.1 0 0.2 0.1-0.1 0.1-0.2 0.1 0 0-0.1-0.1z"/>
	<path id="Layer" class="s1" d="m180.2 109.2c-0.3 0-0.4-0.1-0.4-0.4 0-0.2 0.1-0.4 0.4-0.4 0.2 0 0.4 0.2 0.4 0.4 0 0.3-0.2 0.4-0.4 0.4z"/>
	<path id="Layer" class="s1" d="m173.8 108.2c0.4 0 0.7 0.3 0.7 0.6 0 0.4-0.3 0.7-0.7 0.7-0.4 0-0.7-0.3-0.7-0.7 0-0.3 0.3-0.6 0.7-0.6z"/>
	<path id="Layer" class="s1" d="m186.6 115.2q0 0.1 0 0.1-0.1 0-0.1-0.1 0 0 0.1 0 0 0 0 0z"/>
	<path id="Layer" class="s1" d="m180.2 115.5c-0.2 0-0.3-0.1-0.3-0.3 0-0.1 0.1-0.3 0.3-0.3 0.1 0 0.3 0.2 0.3 0.3 0 0.2-0.2 0.3-0.3 0.3z"/>
	<path id="Layer" class="s1" d="m173.8 114.6c0.3 0 0.6 0.3 0.6 0.6 0 0.4-0.3 0.6-0.6 0.6-0.3 0-0.6-0.2-0.6-0.6 0-0.3 0.3-0.6 0.6-0.6z"/>
	<path id="Layer" class="s1" d="m167.4 114.4c0.5 0 0.9 0.4 0.9 0.8 0 0.5-0.4 0.9-0.9 0.9-0.5 0-0.9-0.4-0.9-0.9 0-0.4 0.4-0.8 0.9-0.8z"/>
	<path id="Layer" class="s1" d="m180 121.6c0-0.1 0.1-0.2 0.2-0.2 0.1 0 0.1 0.1 0.1 0.2 0 0.1 0 0.2-0.1 0.2-0.1 0-0.2-0.1-0.2-0.2z"/>
	<path id="Layer" class="s1" d="m173.3 121.6c0-0.2 0.2-0.4 0.5-0.4 0.2 0 0.4 0.2 0.4 0.4 0 0.3-0.2 0.5-0.4 0.5-0.3 0-0.5-0.2-0.5-0.5z"/>
	<path id="Layer" class="s1" d="m167.4 120.9c0.4 0 0.7 0.3 0.7 0.7 0 0.4-0.3 0.7-0.7 0.7-0.4 0-0.7-0.3-0.7-0.7 0-0.4 0.3-0.7 0.7-0.7z"/>
	<path id="Layer" class="s1" d="m180.2 128q0 0.1 0 0.1-0.1-0.1-0.1-0.1 0 0 0.1-0.1 0 0.1 0 0.1z"/>
	<path id="Layer" class="s1" d="m173.5 128c0-0.1 0.1-0.3 0.3-0.3 0.1 0 0.3 0.2 0.3 0.3 0 0.2-0.2 0.3-0.3 0.3-0.2 0-0.3-0.1-0.3-0.3z"/>
	<path id="Layer" class="s1" d="m166.8 128c0-0.3 0.3-0.5 0.6-0.5 0.3 0 0.5 0.2 0.5 0.5 0 0.3-0.2 0.6-0.5 0.6-0.3 0-0.6-0.3-0.6-0.6z"/>
	<path id="Layer" class="s1" d="m160.2 128c0-0.4 0.4-0.8 0.8-0.8 0.4 0 0.8 0.4 0.8 0.8 0 0.4-0.4 0.8-0.8 0.8-0.4 0-0.8-0.4-0.8-0.8z"/>
	<path id="Layer" class="s1" d="m154.6 127c0.6 0 1 0.5 1 1 0 0.6-0.4 1-1 1-0.5 0-1-0.4-1-1 0-0.5 0.5-1 1-1z"/>
	<path id="Layer" class="s1" d="m173.9 134.4q0 0.1-0.1 0.1-0.1 0-0.1-0.1 0-0.1 0.1-0.1 0.1 0 0.1 0.1z"/>
	<path id="Layer" class="s1" d="m167.1 134.4c0-0.2 0.1-0.3 0.3-0.3 0.2 0 0.3 0.1 0.3 0.3 0 0.2-0.1 0.3-0.3 0.3-0.2 0-0.3-0.1-0.3-0.3z"/>
	<path id="Layer" class="s1" d="m160.5 134.4c0-0.3 0.2-0.5 0.5-0.5 0.3 0 0.6 0.2 0.6 0.5 0 0.3-0.3 0.6-0.6 0.6-0.3 0-0.5-0.3-0.5-0.6z"/>
	<path id="Layer" class="s1" d="m153.9 134.4c0-0.4 0.3-0.7 0.7-0.7 0.4 0 0.8 0.3 0.8 0.7 0 0.4-0.4 0.7-0.8 0.7-0.4 0-0.7-0.3-0.7-0.7z"/>
	<path id="Layer" class="s1" d="m148.2 133.5c0.5 0 0.9 0.4 0.9 0.9 0 0.5-0.4 0.9-0.9 0.9-0.4 0-0.8-0.4-0.8-0.9 0-0.5 0.3-0.9 0.8-0.9z"/>
	<path id="Layer" class="s1" d="m141.8 133.4c0.6 0 1.1 0.5 1.1 1 0 0.6-0.5 1-1.1 1-0.5 0-1-0.4-1-1 0-0.5 0.5-1 1-1z"/>
	<path id="Layer" class="s1" d="m134.4 134.4c0-0.6 0.5-1.1 1.1-1.1 0.6 0 1.1 0.5 1.1 1.1 0 0.6-0.5 1.1-1.1 1.1-0.6 0-1.1-0.5-1.1-1.1z"/>
	<path id="Layer" class="s1" d="m129.1 133.3c0.6 0 1.1 0.5 1.1 1.1 0 0.6-0.5 1.1-1.1 1.1-0.6 0-1.1-0.5-1.1-1.1 0-0.6 0.5-1.1 1.1-1.1z"/>
	<path id="Layer" class="s1" d="m122.7 133.3c0.6 0 1.1 0.5 1.1 1.1 0 0.6-0.5 1.1-1.1 1.1-0.6 0-1.1-0.4-1.1-1.1 0-0.6 0.5-1.1 1.1-1.1z"/>
	<path id="Layer" class="s1" d="m115.3 134.4c0-0.5 0.4-1 1-1 0.6 0 1 0.5 1 1 0 0.6-0.4 1.1-1 1.1-0.6 0-1-0.5-1-1.1z"/>
	<path id="Layer" class="s1" d="m108.9 134.5c0-0.5 0.4-0.9 0.8-0.9q0.1-0.1 0.2-0.1c0.5 0 0.9 0.5 0.9 1 0 0.5-0.4 0.9-0.9 0.9q-0.1 0-0.2-0.1c-0.4 0-0.8-0.4-0.8-0.8z"/>
	<path id="Layer" class="s1" d="m167.5 140.8q0 0.1-0.1 0.1-0.1 0-0.1-0.1 0-0.1 0.1-0.1 0.1 0 0.1 0.1z"/>
	<path id="Layer" class="s1" d="m160.7 140.8c0-0.2 0.2-0.3 0.3-0.3 0.2 0 0.3 0.1 0.3 0.3 0 0.2-0.1 0.3-0.3 0.3-0.1 0-0.3-0.1-0.3-0.3z"/>
	<path id="Layer" class="s1" d="m154.2 140.8c0-0.3 0.2-0.5 0.4-0.5 0.3 0 0.5 0.2 0.5 0.5 0 0.3-0.2 0.5-0.5 0.5-0.2 0-0.4-0.2-0.4-0.5z"/>
	<path id="Layer" class="s1" d="m147.6 140.8c0-0.3 0.3-0.6 0.6-0.6 0.4 0 0.6 0.3 0.6 0.6 0 0.3-0.2 0.6-0.6 0.6-0.3 0-0.6-0.3-0.6-0.6z"/>
	<path id="Layer" class="s1" d="m141.1 140.8c0-0.4 0.4-0.7 0.8-0.7 0.4 0 0.7 0.3 0.7 0.7 0 0.4-0.3 0.7-0.7 0.7-0.4 0-0.8-0.3-0.8-0.7z"/>
	<path id="Layer" class="s1" d="m134.7 140.8c0-0.4 0.3-0.8 0.8-0.8 0.4 0 0.7 0.4 0.7 0.8 0.1 0.4-0.3 0.8-0.7 0.8-0.5 0-0.8-0.4-0.8-0.8z"/>
	<path id="Layer" class="s1" d="m128.3 140.8c0-0.4 0.3-0.8 0.8-0.8 0.4 0 0.8 0.4 0.8 0.8 0 0.5-0.4 0.8-0.8 0.8-0.5 0-0.8-0.3-0.8-0.8z"/>
	<path id="Layer" class="s1" d="m121.9 140.8c0-0.4 0.3-0.8 0.8-0.8 0.4 0 0.8 0.4 0.8 0.8 0 0.5-0.4 0.8-0.8 0.8-0.5 0-0.8-0.3-0.8-0.8z"/>
	<path id="Layer" class="s1" d="m115.6 140.8c0-0.4 0.3-0.7 0.7-0.7 0.4 0 0.7 0.3 0.7 0.7 0 0.4-0.3 0.8-0.7 0.8-0.4 0-0.7-0.4-0.7-0.8z"/>
	<path id="Layer" class="s1" d="m161.1 147.2q0 0.1-0.1 0.1 0 0 0-0.1 0-0.1 0-0.1 0.1 0 0.1 0.1z"/>
	<path id="Layer" class="s1" d="m154.4 147.2c0-0.1 0.1-0.2 0.2-0.2 0.1 0 0.2 0.1 0.2 0.2 0 0.1-0.1 0.2-0.2 0.2-0.1 0-0.2-0.1-0.2-0.2z"/>
	<path id="Layer" class="s1" d="m147.9 147.2c0-0.2 0.2-0.3 0.4-0.3 0.1 0 0.3 0.1 0.3 0.3 0 0.2-0.2 0.3-0.3 0.3-0.2 0-0.4-0.1-0.4-0.3z"/>
	<path id="Layer" class="s1" d="m141.5 147.2c0-0.2 0.1-0.4 0.4-0.4 0.2 0 0.4 0.2 0.4 0.4 0 0.2-0.2 0.4-0.4 0.4-0.3 0-0.4-0.2-0.4-0.4z"/>
	<path id="Layer" class="s1" d="m135 147.2c0-0.3 0.2-0.5 0.5-0.5 0.2 0 0.4 0.2 0.4 0.5 0 0.3-0.2 0.5-0.4 0.5-0.3 0-0.5-0.2-0.5-0.5z"/>
	<path id="Layer" class="s1" d="m128.6 147.2c0-0.3 0.2-0.5 0.5-0.5 0.3 0 0.5 0.2 0.5 0.5 0 0.3-0.2 0.5-0.5 0.5-0.3 0-0.5-0.2-0.5-0.5z"/>
	<path id="Layer" class="s1" d="m122.7 147.7c-0.3 0-0.5-0.2-0.5-0.5 0-0.2 0.2-0.5 0.5-0.5 0.3 0 0.5 0.3 0.5 0.5 0 0.3-0.2 0.5-0.5 0.5z"/>
	<path id="Layer" class="s1" d="m115.9 147.2c0-0.2 0.2-0.4 0.4-0.4 0.2 0 0.4 0.2 0.4 0.4 0 0.3-0.2 0.4-0.4 0.4-0.2 0-0.4-0.1-0.4-0.4z"/>
	<path id="Layer" class="s1" d="m154.7 153.6q0 0-0.1 0 0 0 0 0 0 0 0 0 0.1 0 0.1 0z"/>
	<path id="Layer" class="s1" d="m148.3 153.6q0 0 0 0-0.1 0-0.1 0 0-0.1 0.1-0.1 0 0 0 0.1z"/>
	<path id="Layer" class="s1" d="m142 153.6q0 0.1-0.1 0.1-0.1 0-0.2-0.1 0.1-0.1 0.2-0.1 0.1 0 0.1 0.1z"/>
	<path id="Layer" class="s1" d="m135.7 153.6c0 0.1-0.1 0.2-0.2 0.2-0.1 0-0.2-0.1-0.2-0.2 0-0.1 0.1-0.2 0.2-0.2 0.1 0 0.2 0.1 0.2 0.2z"/>
	<path id="Layer" class="s1" d="m129.3 153.6c0 0.1-0.1 0.2-0.2 0.2-0.1 0-0.2-0.1-0.2-0.2 0-0.1 0.1-0.2 0.2-0.2 0.1 0 0.2 0.1 0.2 0.2z"/>
	<path id="Layer" class="s1" d="m122.7 153.8c-0.1 0-0.2-0.1-0.2-0.2 0-0.1 0.1-0.2 0.2-0.2 0.1 0 0.2 0.1 0.2 0.2 0 0.1-0.1 0.2-0.2 0.2z"/>
	<path id="Layer" class="s1" d="m116.3 153.5q0.1 0 0.1 0.1 0 0.1-0.1 0.1c-0.1 0-0.1 0-0.1-0.1 0-0.1 0-0.1 0.1-0.1z"/>
	<path id="Layer" class="s1" d="m103.4 133.4c0.6 0 1 0.5 1 1.1 0 0.5-0.4 1-1 1-0.5 0-1-0.5-1-1 0-0.6 0.5-1.1 1-1.1z"/>
	<path id="Layer" class="s1" d="m76.8 134.5c0-0.6 0.5-1 1.1-1 0.5 0 1 0.4 1 1 0 0.5-0.5 1-1 1-0.6 0-1.1-0.5-1.1-1z"/>
	<path id="Layer" class="s1" d="m109.2 140.8c0-0.3 0.2-0.5 0.6-0.6q0 0 0.1 0c0.4 0 0.6 0.3 0.6 0.6 0 0.4-0.2 0.7-0.6 0.7q-0.1 0-0.1-0.1c-0.4 0-0.6-0.2-0.6-0.6z"/>
	<path id="Layer" class="s1" d="m102.7 140.8c0-0.4 0.3-0.7 0.7-0.7 0.4 0 0.7 0.3 0.7 0.7 0 0.4-0.3 0.8-0.7 0.8-0.4 0-0.7-0.4-0.7-0.8z"/>
	<path id="Layer" class="s1" d="m77.1 140.9c0-0.4 0.4-0.8 0.8-0.8 0.4 0 0.7 0.4 0.7 0.8 0 0.4-0.3 0.7-0.7 0.7-0.4 0-0.8-0.3-0.8-0.7z"/>
	<path id="Layer" class="s1" d="m109.5 147.2c0-0.1 0.1-0.3 0.3-0.3q0.1 0 0.1 0c0.2 0 0.4 0.1 0.4 0.3 0 0.2-0.2 0.4-0.4 0.4q0 0-0.1-0.1c-0.2 0-0.3-0.1-0.3-0.3z"/>
	<path id="Layer" class="s1" d="m103 147.2c0-0.2 0.2-0.4 0.4-0.4 0.2 0 0.4 0.2 0.4 0.4 0 0.3-0.2 0.4-0.4 0.4-0.2 0-0.4-0.1-0.4-0.4z"/>
	<path id="Layer" class="s1" d="m83.8 147.2c0-0.2 0.2-0.4 0.5-0.4 0.2 0 0.4 0.2 0.4 0.4 0 0.3-0.2 0.5-0.4 0.5-0.3 0-0.5-0.2-0.5-0.5z"/>
	<path id="Layer" class="s1" d="m77.4 147.3c0-0.3 0.2-0.5 0.5-0.5 0.2 0 0.4 0.2 0.4 0.5 0 0.2-0.2 0.4-0.4 0.4-0.3 0-0.5-0.2-0.5-0.4z"/>
	<path id="Layer" class="s1" d="m109.9 153.6q0 0 0 0 0.1 0 0.1 0 0 0.1-0.1 0.1 0 0 0-0.1 0 0.1-0.1 0.1 0 0 0-0.1 0 0 0 0 0.1 0 0.1 0z"/>
	<path id="Layer" class="s1" d="m103.6 153.6q-0.1 0.1-0.2 0.1-0.1 0-0.1-0.1 0-0.1 0.1-0.1 0.1 0 0.2 0.1z"/>
	<path id="Layer" class="s1" d="m97 153.4c0.1 0 0.2 0.1 0.2 0.2 0 0.1-0.1 0.2-0.2 0.2-0.1 0-0.1-0.1-0.1-0.2 0-0.1 0-0.2 0.1-0.2z"/>
	<path id="Layer" class="s1" d="m90.5 153.6c0-0.1 0-0.2 0.2-0.2 0.1 0 0.1 0.1 0.1 0.2 0 0.1 0 0.2-0.1 0.2-0.2 0-0.2-0.1-0.2-0.2z"/>
	<path id="Layer" class="s1" d="m84.4 153.6c0 0.1 0 0.2-0.1 0.2-0.1 0-0.2-0.1-0.2-0.2 0-0.1 0.1-0.1 0.2-0.1 0.1 0 0.1 0 0.1 0.1z"/>
	<path id="Layer" class="s1" d="m78 153.6q0 0.2-0.1 0.2-0.1 0-0.2-0.2 0.1-0.1 0.2-0.1 0.1 0 0.1 0.1z"/>
	<path id="Layer" class="s1" d="m1.1 70.7q0-0.1 0.1-0.1 0 0 0 0.1 0 0 0 0-0.1 0-0.1 0z"/>
	<path id="Layer" class="s1" d="m1.2 77q0 0.1 0 0.1-0.1 0-0.1-0.1 0 0 0.1 0 0 0 0 0z"/>
	<path id="Layer" class="s1" d="m1.2 83.3q0.1 0 0.1 0.1 0 0.1-0.1 0.2-0.1-0.1-0.2-0.2 0.1-0.1 0.2-0.1z"/>
	<path id="Layer" class="s1" d="m1.2 89.6c0.1 0 0.1 0.1 0.1 0.2 0 0.1 0 0.2-0.1 0.2-0.1 0-0.2-0.1-0.2-0.2 0-0.1 0.1-0.2 0.2-0.2z"/>
	<path id="Layer" class="s1" d="m1.2 96c0.1 0 0.2 0.1 0.2 0.2 0 0.1-0.1 0.2-0.2 0.2-0.1 0-0.2-0.1-0.2-0.2 0-0.1 0.1-0.2 0.2-0.2z"/>
	<path id="Layer" class="s1" d="m1 102.6c0-0.1 0.1-0.2 0.2-0.2 0.1 0 0.2 0.1 0.2 0.2 0 0.1-0.1 0.2-0.2 0.2-0.1 0-0.2-0.1-0.2-0.2z"/>
	<path id="Layer" class="s1" d="m7.6 108.6c0.2 0 0.4 0.1 0.4 0.4 0 0.2-0.2 0.4-0.4 0.4-0.3 0-0.4-0.2-0.4-0.4 0-0.2 0.1-0.4 0.4-0.4z"/>
	<path id="Layer" class="s1" d="m1.1 109q0-0.1 0.1-0.1 0.1 0 0.1 0.1 0 0.1-0.1 0.1-0.1 0-0.1-0.1z"/>
	<path id="Layer" class="s1" d="m7.2 115.4c0-0.2 0.2-0.4 0.4-0.4 0.2 0 0.3 0.2 0.3 0.4 0 0.2-0.1 0.3-0.3 0.3-0.2 0-0.4-0.1-0.4-0.3z"/>
	<path id="Layer" class="s1" d="m1.1 115.4q0-0.1 0.1-0.1 0 0 0 0.1 0 0 0 0-0.1 0-0.1 0z"/>
	<path id="Layer" class="s1" d="m13.5 121.8c0-0.3 0.2-0.5 0.5-0.5 0.3 0 0.5 0.2 0.5 0.5 0 0.2-0.2 0.5-0.5 0.5-0.3 0-0.5-0.3-0.5-0.5z"/>
	<path id="Layer" class="s1" d="m7.4 121.8c0-0.2 0.1-0.3 0.2-0.3 0.1 0 0.2 0.1 0.2 0.3 0 0.1-0.1 0.2-0.2 0.2-0.1 0-0.2-0.1-0.2-0.2z"/>
	<path id="Layer" class="s1" d="m1.2 121.8q0 0 0 0 0 0 0 0 0-0.1 0-0.1 0 0 0 0.1z"/>
	<path id="Layer" class="s1" d="m26 128.1c0-0.4 0.3-0.8 0.8-0.8 0.4 0 0.8 0.4 0.8 0.8 0 0.5-0.4 0.8-0.8 0.8-0.5 0-0.8-0.3-0.8-0.8z"/>
	<path id="Layer" class="s1" d="m19.8 128.1c0-0.3 0.3-0.5 0.6-0.5 0.3 0 0.5 0.2 0.5 0.5 0 0.3-0.2 0.6-0.5 0.6-0.3 0-0.6-0.3-0.6-0.6z"/>
	<path id="Layer" class="s1" d="m13.7 128.1c0-0.1 0.1-0.3 0.3-0.3 0.2 0 0.3 0.2 0.3 0.3 0 0.2-0.1 0.4-0.3 0.4-0.2 0-0.3-0.2-0.3-0.4z"/>
	<path id="Layer" class="s1" d="m7.7 128.1q0 0.1-0.1 0.1-0.1 0-0.1-0.1 0 0 0.1 0 0.1 0 0.1 0z"/>
	<path id="Layer" class="s1" d="m71.5 133.5c0.5 0 1 0.4 1 1 0 0.5-0.5 1-1 1-0.6 0-1-0.5-1-1 0-0.6 0.4-1 1-1z"/>
	<path id="Layer" class="s1" d="m64 134.5c0-0.6 0.5-1.1 1.1-1.1 0.6 0 1.1 0.5 1.1 1.1 0 0.6-0.5 1.1-1.1 1.1-0.6 0-1.1-0.5-1.1-1.1z"/>
	<path id="Layer" class="s1" d="m58.7 133.4c0.6 0 1.1 0.5 1.1 1.1 0 0.6-0.5 1.1-1.1 1.1-0.6 0-1.1-0.5-1.1-1.1 0-0.6 0.5-1.1 1.1-1.1z"/>
	<path id="Layer" class="s1" d="m52.3 133.4c0.6 0 1.1 0.5 1.1 1.1 0 0.6-0.5 1.1-1.1 1.1-0.6 0-1.1-0.5-1.1-1.1 0-0.6 0.5-1.1 1.1-1.1z"/>
	<path id="Layer" class="s1" d="m44.9 134.5c0-0.6 0.5-1 1-1 0.6 0 1.1 0.4 1.1 1 0 0.6-0.5 1-1.1 1-0.5 0-1-0.4-1-1z"/>
	<path id="Layer" class="s1" d="m38.6 134.5c0-0.5 0.4-0.9 0.9-0.9 0.5 0 0.9 0.4 0.9 0.9 0 0.5-0.4 0.9-0.9 0.9-0.5 0-0.9-0.4-0.9-0.9z"/>
	<path id="Layer" class="s1" d="m32.4 134.5c0-0.4 0.3-0.7 0.8-0.7 0.4 0 0.7 0.3 0.7 0.7 0 0.4-0.3 0.8-0.7 0.8-0.5 0-0.8-0.4-0.8-0.8z"/>
	<path id="Layer" class="s1" d="m26.2 134.5c0-0.3 0.2-0.5 0.6-0.5 0.3 0 0.5 0.2 0.5 0.5 0 0.3-0.2 0.6-0.5 0.6-0.3 0-0.6-0.3-0.6-0.6z"/>
	<path id="Layer" class="s1" d="m20 134.5c0-0.2 0.2-0.3 0.4-0.3 0.2 0 0.3 0.1 0.3 0.3 0 0.2-0.1 0.4-0.3 0.4-0.2 0-0.4-0.2-0.4-0.4z"/>
	<path id="Layer" class="s1" d="m13.9 134.5q0-0.1 0.1-0.1 0.1 0 0.1 0.1 0 0.1-0.1 0.2-0.1-0.1-0.1-0.2z"/>
	<path id="Layer" class="s1" d="m70.8 140.9c0-0.4 0.3-0.8 0.7-0.8 0.4 0 0.7 0.4 0.7 0.8 0 0.4-0.3 0.7-0.7 0.7-0.4 0-0.7-0.3-0.7-0.7z"/>
	<path id="Layer" class="s1" d="m64.3 140.9c0-0.5 0.4-0.8 0.8-0.8 0.4 0 0.8 0.3 0.8 0.8 0 0.4-0.4 0.8-0.8 0.8-0.4 0-0.8-0.4-0.8-0.8z"/>
	<path id="Layer" class="s1" d="m57.9 140.9c0-0.5 0.4-0.8 0.8-0.8 0.5 0 0.8 0.3 0.8 0.8 0 0.4-0.3 0.8-0.8 0.8-0.4 0-0.8-0.4-0.8-0.8z"/>
	<path id="Layer" class="s1" d="m51.5 140.9c0-0.5 0.4-0.8 0.8-0.8 0.5 0 0.8 0.3 0.8 0.8 0 0.4-0.3 0.8-0.8 0.8-0.4 0-0.8-0.4-0.8-0.8z"/>
	<path id="Layer" class="s1" d="m45.2 140.9c0-0.4 0.3-0.7 0.7-0.7 0.4 0 0.8 0.3 0.8 0.7 0 0.4-0.4 0.7-0.8 0.7-0.4 0-0.7-0.3-0.7-0.7z"/>
	<path id="Layer" class="s1" d="m38.9 140.9c0-0.3 0.3-0.6 0.6-0.6 0.4 0 0.7 0.3 0.7 0.6 0 0.3-0.3 0.6-0.7 0.6-0.3 0-0.6-0.3-0.6-0.6z"/>
	<path id="Layer" class="s1" d="m32.7 140.9c0-0.3 0.2-0.5 0.5-0.5 0.2 0 0.5 0.2 0.5 0.5 0 0.3-0.3 0.5-0.5 0.5-0.3 0-0.5-0.2-0.5-0.5z"/>
	<path id="Layer" class="s1" d="m26.5 140.9c0-0.2 0.1-0.3 0.3-0.3 0.1 0 0.3 0.1 0.3 0.3 0 0.2-0.2 0.3-0.3 0.3-0.2 0-0.3-0.1-0.3-0.3z"/>
	<path id="Layer" class="s1" d="m20.5 140.9q0 0.1-0.1 0.1-0.1 0-0.1-0.1 0-0.1 0.1-0.1 0.1 0 0.1 0.1z"/>
	<path id="Layer" class="s1" d="m14 140.9q0 0 0 0 0 0 0 0 0 0 0 0 0 0 0 0z"/>
	<path id="Layer" class="s1" d="m71.1 147.3c0-0.3 0.2-0.4 0.4-0.4 0.2 0 0.4 0.1 0.4 0.4 0 0.2-0.2 0.4-0.4 0.4-0.2 0-0.4-0.2-0.4-0.4z"/>
	<path id="Layer" class="s1" d="m64.6 147.3c0-0.3 0.2-0.5 0.5-0.5 0.3 0 0.5 0.2 0.5 0.5 0 0.2-0.2 0.4-0.5 0.4-0.3 0-0.5-0.2-0.5-0.4z"/>
	<path id="Layer" class="s1" d="m58.2 147.3c0-0.3 0.2-0.5 0.5-0.5 0.3 0 0.5 0.2 0.5 0.5 0 0.2-0.2 0.5-0.5 0.5-0.3 0-0.5-0.3-0.5-0.5z"/>
	<path id="Layer" class="s1" d="m51.9 147.3c0-0.3 0.2-0.5 0.4-0.5 0.3 0 0.5 0.2 0.5 0.5 0 0.2-0.2 0.5-0.5 0.5-0.2 0-0.4-0.3-0.4-0.5z"/>
	<path id="Layer" class="s1" d="m45.5 147.3c0-0.3 0.2-0.4 0.4-0.4 0.3 0 0.5 0.1 0.5 0.4 0 0.2-0.2 0.4-0.5 0.4-0.2 0-0.4-0.2-0.4-0.4z"/>
	<path id="Layer" class="s1" d="m39.2 147.3c0-0.2 0.2-0.3 0.4-0.3 0.1 0 0.3 0.1 0.3 0.3 0 0.2-0.2 0.3-0.3 0.3-0.2 0-0.4-0.1-0.4-0.3z"/>
	<path id="Layer" class="s1" d="m33 147.3c0-0.1 0-0.2 0.2-0.2 0.1 0 0.2 0.1 0.2 0.2 0 0.1-0.1 0.2-0.2 0.2-0.2 0-0.2-0.1-0.2-0.2z"/>
	<path id="Layer" class="s1" d="m26.8 147.3q0 0.1 0 0.1-0.1 0-0.1-0.1 0-0.1 0.1-0.1 0 0 0 0.1z"/>
	<path id="Layer" class="s1" d="m71.6 153.7q0 0.1-0.1 0.1-0.1 0-0.1-0.1 0-0.2 0.1-0.2 0.1 0 0.1 0.2z"/>
	<path id="Layer" class="s1" d="m65.3 153.7c0 0.1-0.1 0.1-0.2 0.1-0.1 0-0.2 0-0.2-0.1 0-0.1 0.1-0.2 0.2-0.2 0.1 0 0.2 0.1 0.2 0.2z"/>
	<path id="Layer" class="s1" d="m58.9 153.7c0 0.1-0.1 0.2-0.2 0.2-0.1 0-0.2-0.1-0.2-0.2 0-0.1 0.1-0.2 0.2-0.2 0.1 0 0.2 0.1 0.2 0.2z"/>
	<path id="Layer" class="s1" d="m52.5 153.7c0 0.1-0.1 0.1-0.2 0.1-0.1 0-0.1 0-0.1-0.1 0-0.1 0-0.2 0.1-0.2 0.1 0 0.2 0.1 0.2 0.2z"/>
	<path id="Layer" class="s1" d="m46.1 153.7q0 0.1-0.2 0.1-0.1 0-0.1-0.1 0-0.1 0.1-0.2 0.2 0.1 0.2 0.2z"/>
	<path id="Layer" class="s1" d="m39.6 153.7q0 0 0 0-0.1 0-0.1 0 0-0.1 0.1-0.1 0 0 0 0.1z"/>
	<path id="Layer" class="s1" d="m33.2 153.7q0 0 0 0 0 0-0.1 0 0.1 0 0.1 0 0 0 0 0z"/>
	<path id="Layer" class="s1" d="m148.1 0.3q0 0 0 0 0.1 0 0.1 0 0 0.1-0.1 0.1 0 0 0-0.1z"/>
	<path id="Layer" class="s1" d="m141.6 0.3q0.1 0 0.1 0 0.1 0 0.1 0 0 0.1-0.1 0.1 0 0-0.1-0.1z"/>
	<path id="Layer" class="s1" d="m135.2 0.4c0-0.1 0.1-0.2 0.2-0.2 0 0 0.1 0.1 0.1 0.2 0 0-0.1 0.1-0.1 0.1-0.1 0-0.2-0.1-0.2-0.1z"/>
	<path id="Layer" class="s1" d="m128.8 0.4c0-0.1 0.1-0.2 0.2-0.2 0 0 0.1 0.1 0.1 0.2 0 0-0.1 0.1-0.1 0.1-0.1 0-0.2-0.1-0.2-0.1z"/>
	<path id="Layer" class="s1" d="m122.4 0.4c0-0.1 0.1-0.2 0.2-0.2 0 0 0.1 0.1 0.1 0.2 0 0-0.1 0.1-0.1 0.1-0.1 0-0.2-0.1-0.2-0.1z"/>
	<path id="Layer" class="s1" d="m116.1 0.4q0-0.1 0.1-0.1 0.1 0 0.1 0.1 0 0.1-0.1 0.1-0.1 0-0.1-0.1z"/>
	<path id="Layer" class="s1" d="m109.7 0.4q0-0.1 0.1-0.1 0 0 0 0.1 0 0 0 0-0.1 0-0.1 0z"/>
	<path id="Layer" class="s1" d="m160.9 6.7q0 0 0 0 0.1 0 0.1 0 0 0.1-0.1 0.1 0 0 0-0.1z"/>
	<path id="Layer" class="s1" d="m154.4 6.7c0-0.1 0-0.1 0.1-0.1 0.1 0 0.2 0 0.2 0.1 0 0.1-0.1 0.2-0.2 0.2-0.1 0-0.1-0.1-0.1-0.2z"/>
	<path id="Layer" class="s1" d="m148.4 6.7c0 0.2-0.1 0.3-0.3 0.3-0.1 0-0.3-0.1-0.3-0.3 0-0.1 0.2-0.3 0.3-0.3 0.2 0 0.3 0.2 0.3 0.3z"/>
	<path id="Layer" class="s1" d="m142.1 6.7c0 0.3-0.1 0.4-0.4 0.4-0.2 0-0.3-0.1-0.3-0.4 0-0.2 0.1-0.4 0.3-0.4 0.3 0 0.4 0.2 0.4 0.4z"/>
	<path id="Layer" class="s1" d="m135.8 6.7c0 0.3-0.2 0.5-0.4 0.5-0.3 0-0.5-0.2-0.5-0.5 0-0.2 0.2-0.4 0.5-0.4 0.2 0 0.4 0.2 0.4 0.4z"/>
	<path id="Layer" class="s1" d="m129.4 6.7c0 0.3-0.2 0.5-0.4 0.5-0.3 0-0.5-0.2-0.5-0.4 0-0.3 0.2-0.5 0.5-0.5 0.2 0 0.4 0.2 0.4 0.4z"/>
	<path id="Layer" class="s1" d="m123 6.8c0 0.2-0.2 0.4-0.4 0.4-0.3 0-0.5-0.2-0.5-0.4 0-0.3 0.2-0.5 0.5-0.5 0.2 0 0.4 0.2 0.4 0.5z"/>
	<path id="Layer" class="s1" d="m116.6 6.8c0 0.2-0.2 0.3-0.4 0.3-0.2 0-0.4-0.1-0.4-0.3 0-0.3 0.2-0.4 0.4-0.4 0.2 0 0.4 0.1 0.4 0.4z"/>
	<path id="Layer" class="s1" d="m110.1 6.8c0 0.1-0.1 0.3-0.3 0.3-0.2 0-0.3-0.2-0.3-0.3 0-0.2 0.1-0.3 0.3-0.3 0.2 0 0.3 0.1 0.3 0.3z"/>
	<path id="Layer" class="s1" d="m103.2 6.8c0-0.1 0.1-0.2 0.2-0.2 0.1 0 0.2 0.1 0.2 0.2 0 0.1-0.1 0.1-0.2 0.1-0.1 0-0.2 0-0.2-0.1z"/>
	<path id="Layer" class="s1" d="m97 6.8q0-0.1 0-0.1 0.1 0 0.1 0.1 0 0-0.1 0 0 0 0 0z"/>
	<path id="Layer" class="s1" d="m167.2 13.1q0-0.1 0.1-0.1 0.1 0 0.1 0.1 0 0.1-0.1 0.1-0.1 0-0.1-0.1z"/>
	<path id="Layer" class="s1" d="m161.2 13.1c0 0.2-0.1 0.3-0.3 0.3-0.1 0-0.2-0.1-0.2-0.3 0-0.1 0.1-0.3 0.2-0.3 0.2 0 0.3 0.2 0.3 0.3z"/>
	<path id="Layer" class="s1" d="m173.6 19.5q0-0.1 0.1-0.1 0.1 0 0.1 0.1 0 0.1-0.1 0.1-0.1 0-0.1-0.1z"/>
	<path id="Layer" class="s1" d="m167.6 19.5c0 0.2-0.1 0.3-0.3 0.3-0.2 0-0.3-0.1-0.3-0.3 0-0.2 0.1-0.3 0.3-0.3 0.2 0 0.3 0.1 0.3 0.3z"/>
	<path id="Layer" class="s1" d="m180 25.9q0-0.1 0.1-0.1 0 0 0 0.1 0 0 0 0-0.1 0-0.1 0z"/>
	<path id="Layer" class="s1" d="m174 25.9c0 0.1-0.2 0.2-0.3 0.2-0.1 0-0.3-0.1-0.3-0.2 0-0.2 0.2-0.3 0.3-0.3 0.1 0 0.3 0.1 0.3 0.3z"/>
	<path id="Layer" class="s1" d="m180.3 32.3c0 0-0.1 0.1-0.2 0.1-0.1 0-0.2-0.1-0.2-0.1 0-0.1 0.1-0.2 0.2-0.2 0.1 0 0.2 0.1 0.2 0.2z"/>
	<path id="Layer" class="s1" d="m174.2 32.3c0 0.2-0.2 0.4-0.5 0.4-0.2 0-0.4-0.2-0.4-0.4 0-0.3 0.2-0.5 0.4-0.5 0.2 0 0.5 0.2 0.5 0.5z"/>
	<path id="Layer" class="s1" d="m186.5 38.6q0 0 0 0 0 0 0 0 0 0.1 0 0.1 0 0 0-0.1z"/>
	<path id="Layer" class="s1" d="m180.4 38.6c0 0.2-0.1 0.3-0.3 0.3-0.2 0-0.3-0.1-0.3-0.3 0-0.1 0.1-0.3 0.3-0.3 0.2 0 0.3 0.2 0.3 0.3z"/>
	<path id="Layer" class="s1" d="m173.7 39.2c-0.3 0-0.6-0.2-0.6-0.5 0-0.4 0.3-0.6 0.6-0.6 0.3 0 0.6 0.2 0.6 0.6 0 0.3-0.3 0.5-0.6 0.5z"/>
	<path id="Layer" class="s1" d="m186.6 45q0 0.1-0.1 0.1-0.1 0-0.1-0.1 0 0 0.1-0.1 0.1 0.1 0.1 0.1z"/>
	<path id="Layer" class="s1" d="m180.1 45.4c-0.2 0-0.4-0.1-0.4-0.4 0-0.2 0.2-0.4 0.4-0.4 0.2 0 0.4 0.2 0.4 0.4 0 0.3-0.2 0.4-0.4 0.4z"/>
	<path id="Layer" class="s1" d="m173.7 45.7c-0.4 0-0.7-0.3-0.7-0.7 0-0.3 0.3-0.6 0.7-0.6 0.4 0 0.7 0.3 0.7 0.6 0 0.4-0.3 0.7-0.7 0.7z"/>
	<path id="Layer" class="s1" d="m186.6 51.4c0 0.1 0 0.2-0.1 0.2-0.1 0-0.1-0.1-0.1-0.2 0-0.1 0-0.1 0.1-0.1 0.1 0 0.1 0 0.1 0.1z"/>
	<path id="Layer" class="s1" d="m180.1 51.9c-0.2 0-0.4-0.2-0.4-0.5 0-0.2 0.2-0.4 0.4-0.4 0.3 0 0.5 0.2 0.5 0.4 0 0.3-0.2 0.5-0.5 0.5z"/>
	<path id="Layer" class="s1" d="m186.5 57.7c0.1 0 0.2 0 0.2 0.1 0 0.1-0.1 0.2-0.2 0.2-0.1 0-0.2-0.1-0.2-0.2 0-0.1 0.1-0.1 0.2-0.1z"/>
	<path id="Layer" class="s1" d="m180.1 58.3c-0.2 0-0.4-0.2-0.4-0.5 0-0.2 0.2-0.4 0.4-0.4 0.3 0 0.5 0.2 0.5 0.4 0 0.3-0.2 0.5-0.5 0.5z"/>
	<path id="Layer" fill-rule="evenodd" class="s1" d="m6.4 41.3q0.3-2.8 0.8-5.6 0.5-2.8 1.1-5.5c0.5-1.9 1-3.7 1.8-5.5q0.1-0.4 0.3-0.7 0.1-0.3 0.3-0.7 0.3-0.7 0.7-1.3 0.4-0.7 0.9-1.3 0.2-0.2 0.3-0.3l0.2-0.2v-0.1h0.1l0.5-0.5q0.2-0.1 0.3-0.3l0.3-0.2q0.2-0.2 0.5-0.5l0.6-0.4q0.1-0.2 0.3-0.3l0.3-0.2q1.2-0.9 2.6-1.5c0.9-0.5 1.8-0.8 2.7-1.2 0.9-0.3 1.8-0.5 2.6-0.8q1.3-0.4 2.5-0.7l0.6-0.1q0.3-0.1 0.6-0.2 0.6-0.1 1.2-0.2 1.2-0.2 2.4-0.4 1.2-0.1 2.4-0.3 1.3-0.1 2.5-0.3 1.2-0.1 2.4-0.2l1.2-0.1 1.2-0.1q1.2-0.1 2.4-0.2c6.4-0.4 12.8-0.7 19.2-0.8q9.7-0.3 19.3-0.3 9.6-0.1 19.2 0 9.6 0.1 19.3 0.4 9.6 0.2 19.2 0.7 2.4 0.1 4.8 0.3 1.2 0.1 2.5 0.2 1.2 0.1 2.4 0.2 0.3 0.1 0.6 0.1c0.3 0 0.5 0.1 0.7 0.1h0.2l0.1 0.1q0 0 0.1 0l0.3 0.1q0.3 0 0.6 0.1 1.2 0.3 2.4 0.7 0.1 0 0.3 0.1-0.1-0.1-0.1-0.3c0-0.2 0.2-0.4 0.4-0.4 0.3 0 0.5 0.2 0.5 0.4 0 0.2-0.2 0.4-0.4 0.4q0.8 0.3 1.6 0.6 1.2 0.5 2.4 1.1 2.2 1.1 4.3 2.6l0.5 0.4 0.3 0.2q0.1 0.1 0.2 0.3 0.6 0.4 1.1 1c0.6 0.7 1.1 1.4 1.5 2.1 0.9 1.6 1.6 3.1 2.2 4.7q0.9 2.3 1.5 4.7c0.9 3.2 1.5 6.4 2 9.6q0.8 4.8 1.2 9.7 0 0.1 0 0.2 0.2 0 0.3 0c0.4 0 0.8 0.3 0.8 0.7 0 0.4-0.4 0.8-0.8 0.8q-0.1 0-0.2 0 0.2 2.4 0.3 4.8c0.4 0.1 0.7 0.4 0.7 0.8 0 0.4-0.2 0.7-0.6 0.8q0.1 2.4 0.2 4.9c0.2 0.1 0.4 0.4 0.4 0.7 0 0.3-0.2 0.6-0.4 0.7q0 2.5 0 4.9 0 0.1 0 0.2c0.2 0.1 0.3 0.3 0.3 0.6 0 0.3-0.1 0.5-0.4 0.6q0 2.6-0.1 5.1c0.2 0.1 0.4 0.3 0.4 0.6q0 0 0 0 0 0.1 0 0.1c0 0.3-0.2 0.5-0.5 0.6q0 0.9-0.1 1.9-0.1 1.6-0.2 3.1 0.1 0 0.2 0c0.4 0 0.7 0.3 0.7 0.7 0 0.4-0.3 0.7-0.7 0.7q-0.2 0-0.3-0.2-0.1 0.3-0.1 0.6-0.2 2.4-0.5 4.8-0.6 4.8-1.5 9.6c-0.7 3.2-1.5 6.4-2.5 9.6q-0.8 2.3-1.9 4.6c-0.7 1.6-1.5 3.1-2.5 4.5q-0.8 1.1-1.8 2.1-0.4 0.5-1 1l-0.2 0.1c0.3 0.2 0.6 0.5 0.6 0.9 0 0.6-0.5 1-1 1-0.5 0-0.9-0.4-1-0.9q-1.8 1.3-3.9 2.3-0.3 0.2-0.5 0.3-0.3 0.1-0.6 0.3-0.6 0.2-1.2 0.5-1.2 0.4-2.4 0.8-0.6 0.2-1.2 0.4l-0.6 0.2q-0.2 0.1-0.5 0.2l-0.8 0.2c0.6 0 1.1 0.5 1.1 1.1 0 0.7-0.5 1.2-1.2 1.2-0.6 0-1.1-0.5-1.1-1.2 0-0.4 0.2-0.7 0.4-0.9l-0.3 0.1q-0.3 0-0.6 0.1-1.7 0.4-3.5 0.7c0 0.7-0.5 1.3-1.3 1.3-0.5 0-1-0.3-1.2-0.9v0.1q-0.6 0.1-1.2 0.1l-2.5 0.4q-0.2 0-0.5 0c-0.2 0.3-0.6 0.4-0.9 0.4q-0.5 0-0.8-0.2-3.7 0.4-7.4 0.7l-2.4 0.2h-0.6-0.6l-1.3 0.1q-2.4 0.1-4.8 0.2-9 0.4-18 0.4-0.3 0.7-0.6 1.4-0.4 1.2-0.6 2.5c-0.2 1.7-0.2 3.4 0.2 5.2q0.1 0.6 0.3 1.3 0.2 0.6 0.5 1.3 0.2 0.6 0.5 1.2l0.1 0.3q0.1 0.2 0.1 0.3 0.1 0.2 0.2 0.4 0.2 0.7 0.1 1.4 0 0.7-0.4 1.4-0.3 0.7-0.7 1.2c-0.7 0.6-1.6 1.1-2.5 1.2q-0.8 0.1-1.5 0-0.1-0.1-0.3-0.1-0.2-0.1-0.3-0.1-0.2-0.1-0.4-0.2l-0.1-0.1h-0.1l-0.7-0.4q-0.3-0.3-0.7-0.5-0.8-0.5-1.6-1.1c0 0.2-0.2 0.3-0.5 0.3-0.2 0-0.4-0.2-0.4-0.5 0-0.1 0-0.3 0.2-0.4q-1.4-1.1-2.6-2.2-1.6-1.5-3-3.2-0.2 0.2-0.5 0.2c-0.5 0-0.8-0.3-0.8-0.7 0-0.3 0.1-0.6 0.3-0.7q-0.1-0.1-0.2-0.2c-2.3-3-4.2-6.2-5.8-9.6q-10.6-0.3-21.1-0.8-1.9-0.1-3.8-0.2-0.3 0.1-0.6 0.1-0.4 0-0.7-0.2-2.4-0.2-4.7-0.3c-0.2 0.3-0.6 0.4-1 0.4-0.4 0-0.8-0.2-1-0.5q-2.2-0.2-4.3-0.4c-0.1 0.5-0.6 0.8-1.1 0.8-0.5 0-1-0.4-1.1-0.9q-2-0.2-4-0.4-0.1 0-0.3 0 0 0.1 0 0.1c0 0.6-0.4 1-0.9 1-0.6 0-1-0.4-1-1q0-0.2 0-0.3-1.7-0.2-3.4-0.4-0.7-0.1-1.4-0.2l-0.7-0.1-0.4-0.1q-0.2 0-0.4 0l-0.4-0.1q-0.2-0.1-0.4-0.1l-0.1-0.1h-0.1-0.2q-0.1-0.1-0.3-0.2-0.4-0.1-0.7-0.2-0.4-0.1-0.7-0.3c-1.9-0.7-3.6-1.7-5.2-2.8q-1.2-0.9-2.3-1.9l-0.3-0.2-0.3-0.2-0.5-0.5q-0.6-0.6-1.1-1.3-0.5-0.6-0.9-1.2-0.4-0.7-0.8-1.4-0.6-1.3-1.2-2.7c-0.7-1.8-1.2-3.6-1.7-5.5q-0.7-2.6-1.1-5.2c-0.3 0-0.5-0.2-0.5-0.5 0-0.2 0.1-0.4 0.3-0.4q-0.5-2.5-0.8-5-0.7-5.6-1.1-11.1-0.4-5.6-0.6-11.2-0.3-11.2 0.4-22.4 0.4-5.6 1.1-11.2zm1.3 29.3q0 0.1 0 0.1 0.1 2.1 0.1 4.1 0.2 5.5 0.6 11 0.5 5.5 1.2 11 0.4 2.7 1 5.4 0.5 2.7 1.2 5.3c0.4 1.8 1 3.5 1.6 5.2q0.5 1.2 1.1 2.3 0.3 0.6 0.6 1.1 0.4 0.6 0.7 1 0.4 0.5 0.8 0.9l0.5 0.4 0.2 0.2 0.3 0.2q1 0.9 2.1 1.7 0.4 0.3 0.8 0.5 0.2 0.2 0.4 0.3 1.6 1 3.3 1.6 0.3 0.1 0.6 0.2 0.3 0.1 0.6 0.2 0.2 0.1 0.3 0.1l0.2 0.1h0.1l0.3 0.1h0.3q0.1 0.1 0.3 0.1l0.3 0.1h0.7q0.6 0.1 1.3 0.2 2.7 0.3 5.5 0.6 5.5 0.4 11.1 0.8 5.5 0.3 11.1 0.5 11.1 0.5 22.2 0.8h1.2l0.5 1.1q1.2 2.6 2.7 5.1 0.1 0.3 0.3 0.6 0.6 0.9 1.2 1.8 0.8 1.1 1.7 2.2 1.5 1.9 3.2 3.6 0.3 0.3 0.6 0.6 0 0 0 0 2.1 2 4.4 3.5 0.3 0.2 0.6 0.4l0.6 0.3v0.1q0 0 0.1 0 0 0 0 0 0 0 0 0 0 0 0 0 0 0 0.1 0 0 0 0.1-0.1 0 0 0 0 0-0.1 0-0.1 0 0 0 0 0 0 0 0 0 0 0-0.1l-0.2-0.3q-0.3-0.8-0.6-1.5-0.3-0.8-0.5-1.6-0.3-0.8-0.4-1.6c-0.5-2.1-0.6-4.4-0.3-6.6q0.3-1.7 0.8-3.3 0.3-0.9 0.8-1.8 0.2-0.6 0.6-1.2l0.5-1h0.4 0.8c6.4-0.1 12.8-0.2 19.2-0.4q2.3-0.1 4.7-0.3h1.2l0.6-0.1h0.6l2.4-0.2q4.7-0.3 9.5-0.9c3.1-0.4 6.2-0.8 9.2-1.5q0.3-0.1 0.6-0.2l0.5-0.1 0.7-0.2 0.4-0.1q0.3-0.1 0.6-0.2l0.6-0.2q0.2 0 0.4-0.1 0.3-0.1 0.7-0.2 1-0.4 2.1-0.8 0.5-0.2 1-0.4 0.3-0.1 0.5-0.2 0.3-0.2 0.5-0.3 2.1-1 3.9-2.3l0.4-0.3 0.2-0.1 0.1-0.1 0.1-0.1q0.4-0.3 0.8-0.7 0.3-0.3 0.5-0.6 0.4-0.5 0.8-1 0.3-0.4 0.6-0.9 0.9-1.4 1.6-2.9 1-2.1 1.7-4.3 0.7-2.2 1.3-4.5 0.1-0.4 0.2-0.8 0.5-1.8 0.9-3.7 0.1-0.5 0.2-0.9 0.2-1 0.4-2.1 0.5-3.1 0.9-6.4c0.8-6.2 1.3-12.6 1.4-18.9 0.1-6.4 0-12.7-0.5-19q-0.4-4.8-1.1-9.4c-0.4-2.9-0.9-5.7-1.6-8.4q-0.1-0.5-0.2-0.9-0.1-0.1-0.1-0.3-0.6-2.1-1.3-4.1c-0.5-1.4-1.1-2.8-1.9-4.1q-0.5-0.9-1.2-1.7-0.3-0.4-0.7-0.7 0 0-0.1-0.1l-0.7-0.5q-1.8-1.4-3.8-2.4-1-0.5-2.1-1-1-0.4-2.1-0.8-1.1-0.3-2.2-0.6-0.3-0.1-0.6-0.2h-0.3q0 0 0 0l-0.1-0.1h-0.1c-0.2 0-0.4 0-0.5-0.1q-0.3 0-0.6-0.1-1.1-0.1-2.3-0.2-1.2-0.1-2.4-0.2-2.4-0.2-4.8-0.3-8-0.5-16.1-0.8-0.3 0-0.7 0-1.1 0-2.3-0.1-1.6 0-3.2-0.1-0.5 0-1 0-2.7-0.1-5.4-0.1-0.5-0.1-1-0.1-2.7 0-5.4-0.1-0.5 0-0.9 0-1.2 0-2.3 0-1.7-0.1-3.4-0.1-0.3 0-0.5 0-3 0-6.1-0.1-0.1 0-0.2 0-14.1-0.1-28.2 0.2-4.8 0.1-9.6 0.3-4.8 0.2-9.5 0.5-1.2 0.1-2.4 0.2l-1.2 0.1-1.2 0.1q-1.2 0.1-2.4 0.2-1.1 0.1-2.3 0.3-1.2 0.1-2.4 0.3l-1.1 0.2q-0.6 0.1-1.2 0.2-0.6 0.1-1.2 0.2-0.2 0-0.5 0.1l-0.6 0.1q-1.1 0.3-2.2 0.6c-0.9 0.3-1.8 0.6-2.6 0.9q-1.3 0.4-2.4 1-1.2 0.5-2.2 1.3l-0.3 0.2q-0.1 0.1-0.2 0.2l-0.6 0.4q-0.2 0.2-0.5 0.4l-0.2 0.3q-0.1 0.1-0.3 0.2l-0.4 0.4-0.1 0.1-0.1 0.1q-0.1 0.1-0.2 0.2-0.4 0.5-0.7 1-0.3 0.5-0.6 1.1-0.1 0.3-0.3 0.6-0.1 0.3-0.2 0.6-0.5 1.2-0.9 2.5-0.4 1.3-0.7 2.6c-0.9 3.6-1.5 7.2-1.9 10.8q-0.7 5.5-1 11-0.5 9-0.4 18z"/>
	<path id="Layer" class="s1" d="m186.5 64.1c0.1 0 0.2 0 0.2 0.1 0 0.1-0.1 0.1-0.2 0.1-0.1 0-0.1 0-0.1-0.1 0-0.1 0-0.1 0.1-0.1z"/>
	<path id="Layer" class="s1" d="m180.1 63.8c0.3 0 0.5 0.2 0.5 0.4 0 0.2-0.2 0.4-0.5 0.4-0.2 0-0.4-0.2-0.4-0.4 0-0.2 0.2-0.4 0.4-0.4z"/>
	<path id="Layer" class="s1" d="m186.5 70.5q0.1 0 0.1 0.1 0 0.1-0.1 0.1-0.1 0-0.1-0.1 0-0.1 0.1-0.1z"/>
	<path id="Layer" class="s1" d="m180.1 70.2c0.2 0 0.4 0.2 0.4 0.4 0 0.2-0.2 0.4-0.4 0.4-0.2 0-0.4-0.2-0.4-0.4 0-0.2 0.2-0.4 0.4-0.4z"/>
	<path id="Layer" class="s1" d="m186.6 77q0 0-0.1 0 0 0 0 0 0-0.1 0-0.1 0.1 0 0.1 0.1z"/>
	<path id="Layer" class="s1" d="m180.1 77.3c-0.1 0-0.3-0.2-0.3-0.3q0 0 0-0.1 0 0 0 0c0-0.2 0.2-0.3 0.3-0.3 0.2 0 0.3 0.1 0.3 0.3q0 0 0 0 0 0.1 0 0.1c0 0.1-0.1 0.3-0.3 0.3z"/>
	<path id="Layer" class="s1" d="m45.9 6.3c-26.7 0.4-42.8 5.4-44.5 34.5-2.4-25.4 9.2-37.7 44.5-34.5z"/>
	<path id="Layer" class="s2" d="m117.1 32.5q0 0 0 0c-0.9-0.2-0.9-0.2-0.5-0.2 0.8-0.2 2.7 0 4 0.3 3.1 0.7 5.9 2.6 8.8 5.9l0.4 0.4c0.3 0.3 0.6 0.4 0.9 0.4l0.6-0.1c4.8-0.8 9.6-0.2 13.7 1.7 1.1 0.5 2.8 1.5 3 1.7 0.1 0.1 0.2 0.7 0.3 1.2 0.3 2 0.2 3.5-0.4 4.7-0.4 0.6-0.4 0.8-0.2 1.3q0.2 0.3 0.5 0.5 0.3 0.2 0.7 0.2c1 0 2.1-1.6 2.6-3.8l0.1-0.3c0-0.3 0.3-0.4 0.5-0.2 2.1 2.5 3.8 5.8 4.1 8.1 0 0.2-0.1 0.3-0.2 0.1h-0.1c-0.5-0.9-1.2-1.6-2-2.2-1.5-0.9-3-1.2-7.1-1.4-3.6-0.2-5.7-0.6-7.8-1.2-3.5-1.2-5.2-2.7-9.4-8.1-1.8-2.4-3-3.7-4.1-4.8-2.6-2.4-5.1-3.7-8.4-4.2q0 0 0 0z"/>
	<path id="Layer" class="s2" d="m148.9 37.9q0 0 0 0c0.1-1.7 0.3-2.7 0.7-3.7q0.1-0.1 0.1-0.2c0.2-0.3 0.3-0.3 0.2 0q-0.1 0.1-0.1 0.1c-0.3 1-0.4 2.3-0.1 3.8 0.2 1.9 0.4 2.2 2.4 4.2 1 1 2.1 2.2 2.5 2.7l0.1 0.2c0.1 0.1 0 0.2-0.1 0.1-0.9-0.8-2.9-2.5-3.4-2.7-0.3-0.1-0.4-0.1-0.5 0-0.2 0.2-0.3 0.5-0.3 1.7 0 1.9-0.3 3.1-0.9 4.3-0.3 0.7-0.4 0.5-0.1-0.2 0.2-0.6 0.3-0.8 0.3-2.7 0-3.6-0.5-4.5-3.1-6q-1.1-0.7-2.3-1.3c-0.6-0.2-0.6-0.4 0.1-0.2 0.8 0.2 1.7 0.5 2.3 0.7 1.5 0.6 1.7 0.7 1.9 0.6 0.1 0 0.2-0.4 0.3-1.4q0 0 0 0zm-30.1 6.2c-1.8-2.4-2.9-6.2-2.6-9.1v-0.4c0-0.3 0.2-0.4 0.4-0.4 0.8 0.2 2.2 0.7 2.8 1 1.7 1.1 2.4 2.4 3.2 5.9 0.2 1.1 0.5 2.2 0.6 2.6 0.2 0.6 1.1 2.1 1.7 3.1 0.5 0.7 0.2 1-0.9 0.9-1.6-0.1-3.8-1.6-5.2-3.6zm27.9 18.5c-8.5-3.4-11.5-6.3-11.5-11.3 0-0.7 0.1-1.3 0.1-1.3 0 0 0.3 0.2 0.7 0.5 1.7 1.4 3.7 2 9 2.7 3.1 0.5 4.9 0.8 6.5 1.4 5.1 1.7 8.3 5.1 9.1 9.8 0.2 1.4 0.1 4-0.3 5.3-0.3 1.1-1.1 3-1.3 3.1-0.1 0-0.2-0.2-0.2-0.6-0.1-1.7-1-3.5-2.5-4.7-1.7-1.5-4-2.7-9.6-4.9zm-6 1.4q-0.1-0.9-0.4-1.8v-0.1c0-0.1 0.1-0.2 0.2-0.1 0.6 0.6 1 1.4 1.4 2.5 0.3 0.8 0.3 1 0.3 2.3 0 1.3 0 1.6-0.3 2.3-0.4 1.1-1 2-1.8 2.8-1.5 1.6-3.5 2.5-6.4 2.8-0.5 0.1-1.9 0.2-3.2 0.2-3.2 0.2-5.4 0.6-7.3 1.2q0 0-0.1 0.1c-0.2 0.1-0.3-0.1-0.1-0.2 0.5-0.3 1.3-0.8 2-1.1 1.5-0.7 3-1.1 6.4-1.7 1.6-0.3 3.3-0.6 3.8-0.7 4.1-1.3 6.2-4.5 5.5-8.5z"/>
	<path id="Layer" class="s2" d="m144.6 70.8c-1.1-2.4-1.4-4.7-0.8-6.9 0.1-0.2 0.2-0.4 0.3-0.4 0 0 0.3 0.2 0.6 0.3 0.5 0.4 1.5 1 4.3 2.5 3.4 1.8 5.4 3.3 6.8 4.9 1.1 1.5 1.8 3.1 2.2 5.2 0.2 1.1 0.1 3.8-0.2 5-0.9 3.6-3.1 6.5-6.2 8.1-0.4 0.3-0.8 0.5-0.9 0.5 0 0 0.1-0.5 0.4-1 1-2.1 1.1-4.2 0.4-6.5-0.5-1.5-1.5-3.2-3.5-6.1-2.3-3.5-2.8-4.4-3.4-5.6zm-31.8 13c3.2-2.7 7.1-4.5 10.6-5.1 1.9-0.2 3.7-0.2 5.5 0.2 2.3 0.6 4.4 1.9 5.4 3.4 1.1 1.5 1.5 2.9 2 5.8 0.1 1.1 0.3 2.3 0.4 2.6 0.3 1.5 1 2.7 1.9 3.3 1.3 1 3.6 1 5.8 0.1q0.1 0 0.3 0c0.3-0.2 0.4 0 0.1 0.2-0.4 0.2-1 0.6-1.5 0.9-0.9 0.5-2 0.7-3.1 0.7-2 0-3.7-1-5.2-3.2q-0.7-1.3-1.4-2.8c-1.5-3.4-2.2-4.4-4-5.6-1.5-1-3.5-1.1-4.9-0.4-2 0.9-2.5 3.4-1.1 5 0.6 0.6 1.5 1.1 2.4 1.2q0.6 0.1 1.1-0.1 0.5-0.1 1-0.5 0.4-0.4 0.6-0.9 0.2-0.5 0.2-1c0-1.1-0.4-1.7-1.4-2.1-1.3-0.6-2.8 0.1-2.8 1.4 0 0.5 0.2 0.8 0.8 1.1 0.3 0.2 0.4 0.2 0.1 0.1-1.3-0.3-1.6-1.8-0.6-2.7 1.2-1.2 3.7-0.7 4.6 0.9 0.4 0.7 0.4 2.1 0.1 2.9-0.7 1.8-2.8 2.8-4.9 2.3-1.4-0.4-1.9-0.8-3.7-2.5-2.9-3.1-4.1-3.6-8.4-4.3-0.3-0.1-0.4-0.5-0.2-0.7z"/>
	<path id="Layer" fill-rule="evenodd" class="s2" d="m97.4 27.5c0.2 0 19.5 16.6 21.5 18.9l0.2 0.3q0.3 0.4 0.3 0.8v0.5q0 0.9-0.4 1.8-0.4 0.8-1.1 1.3c-1.1 1.1-2.5 1.6-4.7 1.9-1.3 0.2-1.8 0.4-2.4 1-0.5 0.6-0.7 1.3-0.8 3.1-0.2 2.7-0.6 3.9-1.9 6.6-1.3 2.7-1.5 3.7-1.3 5.1 0.3 1.7 1.3 3 3.6 4.6 1.7 1.2 2.5 1.9 3 2.9 0.2 0.5 0.3 0.7 0.3 1.7-0.1 1.5-0.3 2.1-1.3 3.2-1.7 1.8-4.7 3.3-8.4 4.1-1.5 0.4-1.6 0.4-1.6 0 0-0.4-0.6-1.6-1.6-3.1-1.1-1.8-1.6-2.7-2-4-0.5-1.5-0.6-2.6-0.6-4.2 0.1-1.5 0.3-2.2 0.9-3.4 0.5-0.9 0.8-1.4 2.7-3.7 3.2-4.1 4.4-6.4 4.8-9.8 0.4-2.9 0.9-4.4 2.1-5.7 0.7-0.7 0.8-1 0.8-1.6 0-0.3 0.7-1-0.1-2.9-4.1-7.2-5-8.8-5.1-9.1 0-0.1 0 0 0.1 0.1q2.6 4 5.3 8.1c2 3.5 2.2 3.5 2.6 3.9q0.1 0 0.1 0.1c0.1 0 0.3 0.2 0.9 0.2q1.3-0.1 2.4-0.7c1.1-0.6 1.3-1.4 0.7-2.2-0.7-1.1-7.6-6-17.5-18-0.8-1-1.5-1.8-1.5-1.8zm6.1 48.3c0.2-0.3 0.3-0.8 0.2-1.2-0.1-0.5-0.4-0.8-0.7-1.1-0.7-0.5-1.8-0.2-1.8 0.4q-0.1 0.3 0.3 0.4c0.4 0.2 0.4 0.5 0.1 0.9-0.3 0.5-0.3 0.9 0.1 1.2 0.6 0.4 1.4 0.2 1.8-0.6zm19.9-22c1.2 0.6 2.1 2 1.9 3-0.2 1.3-2.2 2.3-4.6 2.3-1.1 0-1.6-0.2-2-0.8-0.3-0.3-0.4-1.5-0.2-2.2 0.3-1.2 1.3-2.2 2.3-2.5 0.9-0.2 1.8-0.1 2.6 0.2zm0.1 1.9c0.4-0.5 0.2-1.1-0.4-1.5-1.2-0.7-2.9-0.1-2.9 1 0 0.6 0.9 1.2 1.7 1.2 0.6 0 1.4-0.4 1.6-0.7z"/>
	<g id="Clip-Path" clip-path="url(#cp1)">
		<path id="Layer" fill-rule="evenodd" class="s3" d="m119.6 45.8c-0.5-0.7-2.2-2.2-4.2-4.1-2.1-1.8-4.8-4.1-7.3-6.4-2.5-2.2-5-4.3-6.9-5.9-0.9-0.8-1.7-1.5-2.2-2q-0.5-0.3-0.7-0.5-0.1-0.1-0.2-0.1 0-0.1-0.1-0.1 0 0 0-0.1-0.1 0-0.1 0c-0.1 0-0.1 0-0.2-0.1 0 0-0.2 0-0.3 0v2c-0.1 0-0.2 0-0.3-0.1 0 0-0.1 0-0.1 0q-0.1 0-0.1-0.1 0 0 0 0 0 0 0 0 0 0.1 0.1 0.2 0.3 0.1 0.7 0.5c0.5 0.4 1.3 1.1 2.2 1.9 1.9 1.6 4.3 3.7 6.9 5.9 2.5 2.3 5.1 4.5 7.2 6.4 2.1 1.9 3.7 3.3 4.1 3.9zm-2.9-12.5c0.3-0.1 0.9-0.1 1.6 0 0.7 0 1.5 0.1 2.1 0.3l0.4-2c-0.7-0.1-1.5-0.2-2.3-0.3-0.8-0.1-1.5-0.1-2.1 0zm3.7 0.3c2.8 0.7 5.4 2.4 8.3 5.6l1.4-1.4c-3-3.4-6-5.4-9.3-6.1zm10.5 6.6l0.6-0.1-0.3-1.9h-0.6zm14.1 0.7l0.4-0.9zm-0.4 0.9c0.5 0.2 1.2 0.6 1.8 0.9q0.4 0.3 0.7 0.5 0.2 0.1 0.2 0.1c0.1 0.1 0.1 0 0 0l1.5-1.3c-0.1-0.1-0.2-0.2-0.3-0.3q-0.1-0.1-0.3-0.2-0.3-0.2-0.8-0.5c-0.6-0.4-1.4-0.8-2-1.1zm2.8 2.3c0.3 1.8 0.1 3.1-0.3 4l1.7 0.9c0.8-1.4 0.9-3.2 0.6-5.2zm0.5 4.4l-0.9-0.4zm6.6 2.9c-1.7-1.1-3.5-1.4-7.5-1.6l-0.1 2c4 0.2 5.3 0.5 6.5 1.3zm-6.7-0.2q0.5 0.3 1.2 0.3v-2q-0.1 0-0.2 0zm3.8-4.5l-1-0.3zm-0.3 8.9c4.9 1.6 7.8 4.8 8.5 9.1l1.9-0.4c-0.8-5.1-4.3-8.8-9.7-10.6zm0.1-8.7c2.1 2.4 3.7 5.5 3.9 7.6l2-0.2c-0.3-2.6-2.1-6.1-4.4-8.7zm-4.5 3.4q0.3 0.6 0.9 0.9l1-1.7q0 0-0.1-0.1zm-7.5-1.6c-1.6-0.5-2.8-1.2-4.1-2.2-1.3-1.2-2.7-2.8-4.8-5.5l-1.6 1.2c2.1 2.7 3.6 4.5 5.1 5.8 1.5 1.3 3 2 4.8 2.6zm-9.7-7.1l-0.8 0.6zm-4.1-4.8l-0.7 0.7zm23.4-2.9c-0.4 1.2-0.5 2.6-0.2 4.2l1.9-0.3c-0.2-1.4-0.1-2.5 0.1-3.2zm1 4.1c0.1-1.6 0.3-2.5 0.7-3.3l-1.8-0.9c-0.5 1.2-0.8 2.4-0.9 4zm-0.2 0l1-0.1zm1.8 4.9c0.9 1 2 2.1 2.4 2.6l1.6-1.2c-0.5-0.6-1.6-1.8-2.6-2.8zm3.9 1.5c-0.5-0.4-1.3-1-2-1.6q-0.5-0.4-0.9-0.7c-0.3-0.2-0.6-0.4-0.8-0.5l-0.9 1.8q0 0 0.1 0 0 0 0.1 0.1 0.1 0 0.3 0.2 0.4 0.3 0.9 0.7c0.7 0.5 1.4 1.1 1.8 1.5zm-6.6-6.3c0.1 0.9 0.3 1.6 0.7 2.4 0.4 0.7 1.1 1.4 2 2.4l1.5-1.4c-1.1-1.1-1.5-1.6-1.8-2-0.2-0.4-0.3-0.8-0.4-1.7zm3 3.5q-0.2-0.1-0.3-0.2c-0.1 0-0.3-0.1-0.6-0.1-0.5 0.1-0.8 0.4-0.8 0.5l1.4 1.4c0-0.1 0 0-0.1 0 0 0.1-0.2 0.1-0.4 0.1-0.1 0-0.2 0-0.2 0q0 0 0.1 0zm-1.7 0.3c-0.3 0.3-0.4 0.6-0.5 1q0 0.4-0.1 1.3h2c0.1-0.6 0.1-0.9 0.1-1.1q0-0.1 0 0-0.1 0.1-0.1 0.2zm-1.4 6.2q0 0.1-0.1 0.2 0 0 0 0 0 0 0 0 0 0 0 0 0 0 0 0 0 0 0.1-0.1c0.1 0 0.3-0.2 0.7-0.2q0.3 0 0.6 0.2c0.1 0.2 0.2 0.3 0.3 0.4 0 0.2 0 0.4 0 0.4q0 0.1 0 0.1 0 0 0 0 0-0.1 0.2-0.4l-1.9-0.7q-0.1 0.3-0.2 0.5 0 0.1-0.1 0.2 0 0.1 0 0.2c0 0.1 0 0.2 0.1 0.4 0 0.1 0.1 0.3 0.3 0.4q0.3 0.3 0.6 0.3c0.4 0 0.6-0.2 0.7-0.2 0.1-0.1 0.2-0.3 0.2-0.3q0.2-0.2 0.3-0.5zm0.8 0.2l-0.9-0.3zm-3.1-8.6c0.7 0.3 1.2 0.5 1.5 0.6 0.3 0.1 0.7 0.2 1.1 0l-0.6-1.8c0.2-0.1 0.4 0 0.1-0.1-0.2-0.1-0.6-0.2-1.4-0.5zm0.8-1.1q-1.2-0.7-2.4-1.2l-0.9 1.8q1.2 0.5 2.3 1.2zm3.6 6.9c0-1.8-0.1-3.2-0.7-4.3-0.6-1.1-1.5-1.9-2.9-2.6l-1 1.7c1.3 0.7 1.8 1.2 2.1 1.8 0.3 0.6 0.5 1.6 0.5 3.4zm-26.6 1.2c-0.6-0.1-1.3-0.4-2.2-1-0.8-0.5-1.6-1.3-2.3-2.2l-1.6 1.2c0.8 1 1.8 2 2.8 2.7 1 0.7 2.1 1.2 3.1 1.3zm-4.4-3.2c-1.7-2.3-2.8-5.8-2.5-8.4l-2-0.2c-0.3 3.1 0.9 7.1 2.8 9.8zm6.6-7.6c-2.8-2.6-5.5-3.9-8.9-4.5l-0.3 2c3 0.5 5.3 1.6 7.8 4zm-4.6 5.3c0.3 1.1 0.6 2.3 0.7 2.7l1.9-0.6c-0.1-0.4-0.4-1.5-0.6-2.5zm1.6 2.4l-0.9 0.3zm1.7 3.1l0.8-0.6zm-0.9 0.6c0.1 0.1 0.1 0.1 0.1 0q0-0.1 0-0.2 0.1-0.2 0.2-0.3c0.1-0.2 0.2-0.2 0.2-0.2q-0.1 0-0.4 0l-0.2 2q0.5 0.1 0.9 0c0.3-0.1 0.6-0.2 0.9-0.5 0.4-0.3 0.4-0.7 0.4-1.1-0.1-0.4-0.2-0.6-0.4-0.9zm22.9 14.3c-4.2-1.7-6.9-3.2-8.5-4.8-1.6-1.6-2.3-3.3-2.3-5.5h-2c0 2.7 0.9 4.9 2.9 6.9 1.9 1.9 4.9 3.6 9.2 5.3zm-10.8-10.4q0-0.5 0-0.9 0-0.1 0-0.2 0 0 0 0 0 0.1 0 0.2-0.1 0.1-0.2 0.3c-0.1 0.1-0.3 0.3-0.8 0.3v-2c-0.4 0-0.6 0.2-0.7 0.4q-0.1 0.1-0.2 0.2 0 0.2 0 0.2-0.1 0.1-0.1 0.2 0 0.2 0 0.4 0 0.4 0 0.9zm8.6 3c3.1 0.4 4.8 0.8 6.3 1.3l0.6-1.9c-1.7-0.6-3.5-1-6.6-1.4zm6.6 0.3l-0.3 1zm9.1 9.9l1-0.2zm-0.3 5.3l-0.9-0.3zm-1-0.2c-0.1 0.4-0.4 1.1-0.6 1.7q-0.2 0.5-0.4 0.7-0.1 0.1-0.1 0.2 0 0 0.1-0.1c0 0 0.1-0.1 0.3-0.2l0.6 1.9c0.3-0.1 0.4-0.2 0.5-0.2q0.1-0.2 0.1-0.2 0.1-0.2 0.2-0.4 0.3-0.4 0.5-0.9c0.3-0.6 0.6-1.4 0.7-2zm-0.7 2.3c0.3-0.1 0.6 0 0.8 0.1 0.2 0.1 0.3 0.3 0.3 0.3q0.1 0.1 0.1 0.2 0 0 0 0 0 0 0-0.1 0 0 0-0.1l-2 0.1q0 0.3 0.1 0.6c0 0.1 0 0.2 0.1 0.4 0.1 0.1 0.2 0.2 0.4 0.3 0.2 0.2 0.5 0.2 0.9 0.1zm-2.3-4.4l0.6-0.7zm-20.8 6c2.2-0.7 4-2 5.1-3.7 1.1-1.7 1.5-3.7 1.1-6l-1.9 0.4c0.3 1.8-0.1 3.3-0.9 4.5-0.8 1.3-2.1 2.3-4 2.9zm4.3-10.8c0.4 0.5 0.8 1.2 1.2 2.1l1.8-0.6c-0.4-1.2-0.9-2.1-1.5-2.8zm2.1 1.8l-1 0.3zm0.1 4.6l-1-0.3zm-1.8 2.8l-0.7-0.7zm-6.4 2.8l0.1 1zm-3.2-0.8c-3.3 0.2-5.5 0.6-7.6 1.3l0.7 1.8c1.8-0.6 3.8-0.9 7-1.1zm-6.9 2.9c0.4-0.3 1.2-0.7 1.9-1l-0.9-1.8c-0.7 0.3-1.6 0.8-2.1 1.1zm1.4-1.9l0.5 0.9zm6.3-1.7l0.2 1zm8-2c-1.3 1.4-3.1 2.2-5.8 2.5l0.3 2c3-0.4 5.2-1.3 7-3.1zm9.4 4.6c-2.3-3.4-2.8-4.3-3.3-5.4l-1.8 0.8c0.6 1.3 1.2 2.3 3.5 5.7zm-3.4-5.4c-1-2.2-1.2-4.3-0.7-6.2l-1.9-0.5c-0.7 2.4-0.4 5 0.8 7.6zm-0.8-6.6l-0.6 0.8zm12.3 2.9c-1.8-1.6-4.3-2.8-9.9-5.1l-0.8 1.9c5.7 2.2 7.8 3.4 9.4 4.7zm-1.2 4.6l-0.8 0.6zm1.3 5.3c0.1 0.4 0.1 1.3 0 2.3 0 0.9-0.1 1.8-0.2 2.3l1.9 0.5c0.2-0.7 0.3-1.8 0.3-2.7 0.1-1 0.1-2.1 0-2.8zm-0.2 4.6c-0.9 3.4-2.9 6-5.7 7.5l0.9 1.8c3.4-1.8 5.7-4.9 6.7-8.8zm-5.2 8.4l0.5 0.9zm-0.6-0.5l-0.9-0.4zm0.4-6.6l1-0.3zm-3.5-6.1l0.9-0.6zm-26.2 12c-1.5-1.6-2.6-2.6-4-3.3-1.3-0.7-2.8-1-5-1.3l-0.3 1.9c2.1 0.4 3.4 0.7 4.4 1.2 1 0.5 2 1.3 3.5 2.9zm1.5-9.6l-0.1-1zm5.5 0.2l0.2-1zm5.4 3.4l0.8-0.5zm1.9 5.7l1-0.1zm0.4 2.5l-0.9 0.2v0.1zm3.5 4.2c-1.6 0-3.1-0.8-4.4-2.7l-1.6 1.1c1.6 2.3 3.5 3.6 6 3.6zm4-1.5c-0.4 0.3-0.9 0.6-1.4 0.9l0.9 1.7c0.6-0.2 1.2-0.6 1.6-0.9zm-6.2 1.3c1.7 1.3 4.4 1.2 6.8 0.3l-0.7-1.9c-2.1 0.9-4 0.7-4.9 0zm4.9-0.5c-0.8 0.4-1.7 0.6-2.6 0.6l-0.1 2c1.3 0 2.5-0.3 3.6-0.9zm-7.8-1.5l-0.9 0.5 0.1 0.1zm-1.4-2.8l0.9-0.4zm-4-5.6l0.5-0.9zm0.6-0.8c-1.8-1.2-4.2-1.4-6-0.5l0.9 1.8c1.1-0.6 2.7-0.5 4 0.4zm-5.1 7c-0.7-0.2-1-0.3-1.4-0.6-0.5-0.3-1-0.8-1.9-1.6l-1.4 1.4c0.9 0.8 1.5 1.4 2.1 1.9 0.7 0.4 1.3 0.6 2.1 0.8zm3.7-1.7c-0.6 1.4-2.1 2.1-3.7 1.7l-0.5 2c2.5 0.6 5.1-0.6 6-2.9zm0.9 0.2q0.3-0.8 0.3-1.5h-2q0 0.3-0.1 0.6zm-3.9-2.9c0.3-0.3 0.8-0.5 1.5-0.3 0.6 0.1 1.2 0.5 1.5 1l1.7-0.9c-0.6-1.2-1.7-1.9-2.8-2.1-1.1-0.2-2.4-0.1-3.3 0.8zm2.2-1.4c-1-0.5-2-0.5-2.8-0.1-0.8 0.5-1.5 1.3-1.5 2.3h2q0-0.3 0.4-0.5c0.2-0.1 0.6-0.1 1.1 0.1zm-2.9 4.3q0.1 0.1 0.2 0.1 0 0 0 0 0 0-0.1-0.1c0 0-0.1 0-0.2-0.2-0.1-0.1-0.2-0.3-0.2-0.5 0-0.4 0.2-0.7 0.3-0.8 0.2-0.2 0.4-0.2 0.4-0.2q0.2 0 0.2 0 0.1-0.1 0.1 0 0.1 0 0.1 0 0 0-0.1-0.1l-0.4 2q0.1 0 0.2 0c0 0 0.1 0.1 0.3 0q0 0 0.1 0c0.1 0 0.3-0.1 0.4-0.2 0.2-0.2 0.4-0.4 0.4-0.8 0-0.2-0.1-0.4-0.2-0.5-0.1-0.2-0.2-0.3-0.2-0.3q-0.1 0-0.1 0-0.1-0.1-0.1-0.1-0.1 0-0.3-0.1zm0.5-0.8l-0.2 1zm-1.3-5.1c-2.5 1.2-3.3 4.4-1.4 6.5l1.5-1.3c-1-1.1-0.6-2.8 0.7-3.4zm10.4 6.5c-0.8-1.7-1.4-2.9-2-3.8-0.7-1-1.4-1.6-2.4-2.2l-1.1 1.6c0.8 0.6 1.3 1 1.8 1.7 0.6 0.8 1.1 1.8 1.8 3.5zm-4.8-0.3l0.9 0.3zm-4.8 2.3l0.2-1zm-3.7-2.5l-0.7 0.7zm-22.2-59.6l0.7-0.7zm17.5 18l0.9-0.6zm-0.7 2.2l0.4 0.9h0.1zm-2.5 0.7v1h0.1zm-15.2-20.3c5 6.1 9.2 10.3 12.3 13.2 1.5 1.5 2.8 2.6 3.7 3.3q0.7 0.6 1.1 1 0.2 0.2 0.3 0.3 0.1 0.1 0.1 0.1 0 0 0 0 0 0 0 0l1.6-1.1c-0.1-0.2-0.4-0.5-0.7-0.8q-0.4-0.4-1.1-1c-0.9-0.7-2.1-1.8-3.6-3.2-3-2.9-7.2-7.1-12.1-13zm14.8 19.2c-0.2-0.2-0.3-0.2-0.5-0.6-0.4-0.5-0.9-1.3-1.9-3.1l-1.8 1c1 1.8 1.6 2.7 2 3.2 0.5 0.6 0.7 0.8 0.9 1zm-4.3 2.2l0.7 0.7zm-2 5.7l-1-0.1zm-1-0.2c-0.4 3.1-1.4 5.3-4.6 9.3l1.5 1.2c3.3-4.1 4.6-6.6 5.1-10.2zm-6.6 13.6l0.9 0.5zm-1.8 3.3c-0.1 1.7 0 2.9 0.6 4.5l1.9-0.6c-0.5-1.4-0.6-2.3-0.5-3.8zm1.5 4.2l1-0.3zm2 4l-0.8 0.6zm0.5 3.1q0 0.1 0.1 0.2c0 0.1 0 0.3 0.1 0.5 0.4 0.5 0.9 0.5 1.1 0.5q0.3 0 0.6-0.1 0.4 0 1-0.2l-0.5-1.9q-0.5 0.1-0.8 0.2c-0.3 0-0.3 0-0.3 0q0 0 0.2 0.1c0.1 0 0.3 0.1 0.4 0.3 0.1 0.1 0.1 0.3 0.1 0.3q0 0.1 0 0.1zm11-4.1l-0.7-0.7zm1.1 3.3c3-2.5 6.8-4.3 10.1-4.8l-0.3-2c-3.8 0.6-7.8 2.6-11.1 5.3zm-0.1-8.3l-0.9 0.4zm-3-2.9l0.6-0.8zm-2.6-4.7c-0.2-1.1-0.1-1.8 1.2-4.5l-1.8-0.8c-1.3 2.6-1.7 3.9-1.4 5.6zm0.3-4.9l0.9 0.4zm0.9 0.5c0.7-1.4 1.1-2.5 1.4-3.5 0.3-1.1 0.5-2.2 0.6-3.6l-2-0.1c-0.1 1.3-0.2 2.2-0.5 3.1-0.2 0.9-0.6 1.8-1.3 3.2zm1.8-10.2l-0.7-0.6zm2.4-1l0.1 1zm4.7-1.9l-0.6-0.8h-0.1zm1.5-3l-1-0.1v0.1zm-0.5-1.7l-0.8 0.7zm-15.3 29.4l0.9 0.5zm-0.6-2.3l0.6-0.9zm0.5-0.8c-0.6-0.4-1.3-0.5-1.9-0.4-0.5 0.1-1.4 0.6-1.4 1.6h2q0 0.1-0.1 0.2-0.1 0.1-0.1 0.2c-0.1 0-0.1 0 0 0q0.1 0 0.2 0 0.1 0 0.2 0.1zm-1.9 2.5l0.8 0.6zm0.1 1.1l-0.6 0.8zm19.1-22.8l-0.2-1h-0.1zm-2.3 2.5l-1-0.2zm-1-0.3c-0.1 0.5-0.1 1.1-0.1 1.6q0.1 0.4 0.2 0.8c0 0.2 0.1 0.5 0.3 0.8l1.6-1.2c0.1 0 0 0 0-0.1q0-0.2-0.1-0.4c0-0.4 0-0.8 0.1-1zm3.2 4.3c1.3 0 2.6-0.3 3.5-0.7 1-0.5 1.9-1.3 2.1-2.3l-2-0.4c0 0.2-0.2 0.5-0.9 0.9-0.7 0.3-1.6 0.5-2.7 0.5zm4.6-3.2l1 0.2zm-1.9-3.1l0.4-0.9h-0.1zm2.9 3.2c0.2-0.8-0.1-1.7-0.5-2.4-0.5-0.7-1.1-1.3-1.9-1.7l-0.9 1.8c0.4 0.2 0.8 0.6 1.1 1 0.3 0.4 0.3 0.8 0.3 1zm-2.7-3.7c-0.9-0.5-1.9-0.5-2.7-0.3-0.8 0.3-1.8 1-1.8 2.1h2q0 0 0 0 0 0 0 0 0 0 0.1 0 0-0.1 0.3-0.2c0.3-0.1 0.7-0.1 1 0.1zm-3.2-5.3v-0.6l-2-0.1v0.6zm-0.5-2l-0.3-0.3-1.5 1.3 0.3 0.3zm-6.6 3.1q-0.2 0-0.3 0 0 0 0 0l-1.2 1.6c0.2 0.2 0.7 0.4 1.5 0.4zm-0.3 0q0.1 0 0.1 0 0 0.1 0 0.1 0 0 0-0.1 0 0 0 0-0.1 0-0.1 0l-1.3 1.5q0 0 0 0 0 0 0 0 0 0 0 0 0 0 0.1 0.1zm-8.8 37.1c3.8-0.9 7-2.4 8.8-4.4l-1.4-1.3c-1.5 1.5-4.3 2.9-7.9 3.7zm9-1.5l0.3-0.2-1.3-1.5-0.3 0.2zm31.8 10.2q0.1 0-0.1 0c-0.1 0-0.5 0-0.8-0.4-0.3-0.5 0-0.9 0-1q0.1-0.1 0.1-0.1 0 0 0 0 0.1 0 0.1 0l1.1 1.6c0.1-0.1 0.3-0.2 0.4-0.4 0.1-0.1 0.4-0.6 0-1.2-0.3-0.4-0.8-0.5-0.9-0.5q-0.3 0-0.5 0.1zm-0.2-0.7l0.5 0.8zm-22-19c0 0 0.1-0.1 0.3-0.1 0 0.1 0.5 0.1 0.7 0.5 0.3 0.5 0 0.9 0 1-0.1 0.1-0.2 0.2-0.2 0.2l-1.1-1.7c-0.1 0.1-0.3 0.2-0.4 0.4-0.1 0.1-0.3 0.6-0.1 1.1 0.3 0.5 0.8 0.5 1 0.5q0.3 0 0.5 0zm0.2 0.7l-0.5-0.8zm18.2-14.2c0.3 0.9-0.8 1.6-1.5 0.9l1.5-1.4c-0.8-0.9-2.3 0-1.9 1.2zm0.5 2q-0.2-1-0.5-1.9l-1.9 0.5q0.3 0.8 0.4 1.7zm7.3-23.6c0.4-0.2 0.6-0.5 0.6-0.6q0.1-0.3 0.1-0.5 0.1-0.4 0.1-1.2l-1.9-0.1c-0.1 0.5-0.1 0.8-0.1 1q-0.1 0.1 0 0 0-0.1 0.1-0.2c0-0.1 0.2-0.2 0.3-0.3zm-17.5 0c4.6-0.8 9.2-0.2 13.1 1.6l0.8-1.8c-4.2-2-9.3-2.6-14.2-1.8zm22.4 5.4c-0.6-0.9 0.6-2 1.4-1.2l-1.4 1.5c1 0.9 2.4-0.4 1.6-1.5zm0.7-0.5l-0.7 0.7zm-25.9-5.9l0.4 0.5 1.5-1.4-0.4-0.5zm0.4 0.5c0.5 0.5 1.1 0.8 1.8 0.7l-0.3-2zm21.5-5.1q0 0 0-0.1l-1.8-0.9q0 0.2-0.1 0.3zm0.1-0.2q0 0-0.1 0.1 0 0-0.1 0.1c-0.1 0.1-0.5 0.3-0.9 0.1-0.5-0.1-0.6-0.6-0.6-0.7-0.1-0.1-0.1-0.2-0.1-0.2q0.1-0.1 0-0.1l1.9 0.7q0.1-0.2 0.1-0.4c0-0.1 0.1-0.2 0-0.4 0-0.1-0.1-0.6-0.6-0.7-0.5-0.2-0.9 0-1 0.1q-0.2 0.1-0.2 0.2-0.2 0.2-0.2 0.4zm-40.2 11q-2.6-4.1-5.3-8.1l-1.6 1.1q2.6 4 5.3 8.1zm-7.2-7.2c0.1 0.2 0.4 0.7 1.2 2 0.7 1.4 1.9 3.6 3.9 7.1l1.8-0.9c-2-3.6-3.3-5.8-4-7.2-0.8-1.3-1-1.7-1-1.8zm53.4 15.6l-1.7 1.1zm-1.6 0.6c-0.1-0.9 1.1-1.4 1.6-0.6l-1.7 1.1c0.7 1 2.3 0.4 2.1-0.8zm-38-22.9c0.5 0 0.9 0.4 0.9 0.9h-2c0 0.5 0.4 1 0.8 1zm-0.1 3.7l0.1-0.5-2-0.2-0.1 0.5zm0.1-0.5c-0.1 0.4-0.4 0.7-0.7 0.6l0.3-2c-0.8-0.1-1.6 0.5-1.6 1.3zm30.7 3.1c0-0.5 0.4-0.9 1-0.9v2c0.5 0 0.9-0.5 1-1zm4.5 9.1l0.1-0.3-1.9-0.4-0.1 0.3zm0.1-0.3c-0.2 0.5-0.9 0.7-1.2 0.3l1.5-1.3c-0.7-0.8-2.1-0.5-2.3 0.5zm-35.3-15.1q-0.3 0-0.4 0-0.1 0-0.1-0.1-0.1 0 0 0.1c0.1 0 0.2 0 0.3 0.2 0.1 0 0.2 0.2 0.3 0.4q0.1 0.4-0.1 0.7c-0.1 0.3-0.4 0.5-0.4 0.5q-0.1 0-0.2 0c0 0 0 0 0.1 0l-0.3-2c0 0-0.2 0.1-0.3 0.1q-0.1 0-0.2 0.1c0 0-0.3 0.1-0.5 0.5q-0.1 0.3 0 0.7c0 0.2 0.2 0.3 0.2 0.4 0.2 0.1 0.3 0.2 0.4 0.2 0.1 0.1 0.3 0.1 0.4 0.1q0.2 0.1 0.5 0.1zm-0.3 2c-0.4-0.1-0.8-0.5-0.8-1h2c0-0.5-0.4-0.9-0.9-1zm3.7-0.8l0.2-1zm9.8 8.3c-1.8-2.4-3-3.8-4.2-4.9l-1.4 1.4c1.1 1 2.2 2.3 4 4.7zm-0.5-2l-0.8 0.7zm1.5 0.2l0.2 1zm12.7-0.2c0.8 0.2 1.8 0.5 2.3 0.7l0.7-1.9c-0.6-0.2-1.6-0.5-2.4-0.7zm3.2 4.3q-0.1 0-0.1-0.1-0.1 0-0.1 0 0-0.1 0-0.1 0 0.1 0.1 0.2 0.1 0.3 0.1 0.7l2-0.3q-0.1-0.5-0.2-0.8 0-0.2-0.1-0.4 0-0.1 0-0.2c-0.1 0-0.1-0.2-0.2-0.3zm0.7-0.6l-0.8 0.6h0.1zm0.2 1.2l-0.9 0.1v0.1zm-1.4 4.1c-0.1 0.3-0.3 0.7-0.4 1.1 0 0.4 0.1 0.8 0.3 1.1l1.8-0.8c-0.1-0.2-0.1-0.2-0.1-0.1q0 0 0-0.1 0.1 0 0.2-0.2zm-0.2 2.7l0.1-1zm2.1 0.8c1 0 1.8-0.8 2.3-1.5 0.5-0.8 0.9-1.9 1.2-3.1l-1.9-0.5c-0.3 1.1-0.6 1.9-1 2.5-0.4 0.6-0.7 0.6-0.6 0.6zm0-1v1zm2.6-4.2l-1-0.2zm2.4 5.9l0.5-0.8zm2.9 1.6c-0.6-1-1.4-1.8-2.3-2.5l-1.1 1.7q1 0.7 1.7 1.8zm-0.6 0.5l-0.9 0.1zm-8.5-4.5l-1 0.4h0.1zm-0.9 0c-3.6-0.2-5.6-0.5-7.5-1.1l-0.6 1.9c2.1 0.7 4.3 1 8 1.2zm-7.8-0.2l0.3-0.9zm-9.6-11.2l0.7-0.6zm-10-3.3l-0.6 0.9zm30.5-1.1l-1-0.3zm-0.9-0.5q0 0.1 0 0.1l1.9 0.7q0-0.1 0-0.1zm1 0.3l0.9 0.3zm-0.2 0.2l0.9 0.4v-0.1zm1.6 8.2l0.4-0.8zm1-0.3l-0.7 0.7zm1.6 3.3l0.1 0.1 1.6-1.2-0.1-0.1zm0.8-0.7l-0.8 0.7zm-3.9-2.4l0.7 0.7zm-0.3 1.6h-1zm-1 0c0 1.8-0.2 2.8-0.8 3.9l1.8 0.9c0.7-1.4 1-2.8 1-4.8zm1 4.5c0.1-0.3 0.2-0.6 0.2-1.1 0.1-0.4 0.1-1 0.1-1.9h-2c0 0.9 0 1.4 0 1.7-0.1 0.2-0.1 0.3-0.2 0.6zm-0.8-0.2l-0.9-0.5zm-0.9-9.1l0.3 1h0.1zm-2-0.6l0.4-0.9zm-2.1-1.4q-0.1-0.1-0.1-0.1c0 0 0.1 0.1 0.2 0.2 0.1 0.1 0.2 0.4 0.1 0.8-0.1 0.4-0.5 0.6-0.6 0.6q-0.2 0.1-0.2 0-0.1 0 0.1 0.1l0.5-1.9q-0.3-0.1-0.6-0.2-0.1 0-0.4 0.1c-0.2 0-0.5 0.2-0.7 0.7-0.1 0.4 0.1 0.8 0.1 0.9q0.2 0.2 0.3 0.3 0.3 0.2 0.6 0.3zm2 2.2l0.5-0.9zm3.2-1.6c0 0.5-0.4 1-1 1v-2c-0.5 0-0.9 0.4-1 0.9zm-33.7-2.8h1zm0.1-0.4l1 0.1zm0.2 0.6c0.3 0.1 0.8 0.2 1.3 0.4 0.5 0.1 0.9 0.3 1.1 0.5l1.1-1.7c-0.4-0.3-1-0.5-1.5-0.7-0.6-0.2-1.1-0.4-1.6-0.5zm2.4 0.9c0.7 0.5 1.2 0.9 1.6 1.7 0.4 0.7 0.8 1.8 1.1 3.6l2-0.5c-0.4-1.7-0.8-3.1-1.4-4.1-0.5-1.1-1.3-1.8-2.3-2.4zm3.7 5l-0.9 0.2v0.1zm-0.3 2.9c0.1 0.4 0.4 1 0.7 1.5 0.3 0.6 0.7 1.2 1.1 1.8l1.6-1.2c-0.3-0.4-0.6-1-0.9-1.5-0.3-0.6-0.6-1.1-0.6-1.3zm1.7 3.7l0.1-1zm-5.2-3.6l-0.8 0.6zm27.8 18.4l0.4-0.9zm-10.7-12.1l-0.6 0.8zm-0.7 0.5q-0.1 0-0.2 0-0.1 0-0.1-0.1-0.1 0-0.1 0-0.1 0-0.1 0 0 0 0 0 0 0 0.1 0.1 0.2 0.1 0.5 0.3l1.2-1.5q-0.3-0.3-0.5-0.5-0.1 0-0.2-0.1 0 0-0.1-0.1 0 0-0.1 0 0 0-0.1-0.1c0 0-0.2 0-0.3 0zm0.1 0.3c1.9 1.6 4.1 2.2 9.4 2.9l0.3-1.9c-5.3-0.8-7-1.4-8.5-2.6zm9.6 2l0.2-1zm10.9 1.2l-0.8 0.5zm3.7 10.2c0.1 0.6 0.1 1.5 0 2.4 0 1-0.1 1.9-0.3 2.5l1.9 0.5c0.3-0.8 0.4-1.8 0.4-2.9 0.1-1 0.1-2-0.1-2.8zm-4.6 7.3c1.1 1.3 1.7 2.8 2 4.6l2-0.3c-0.4-2.2-1.2-4-2.4-5.6zm4.8 0.3c-0.1-2.1-1.2-4-2.9-5.5l-1.3 1.6c1.4 1.1 2.1 2.6 2.2 4zm-1 0.1l1-0.1zm-9.8-5.9l0.4-0.9zm-8.4-4.3l-0.8 0.7zm0.8-0.1v-0.1l-1.9 0.6v0.1zm-1 0.3l1-0.3zm0.6 2.6c0.1 0.4 0.2 0.6 0.2 0.8 0 0.2 0.1 0.6 0.1 1.2h2c0-0.6-0.1-1.1-0.1-1.5-0.1-0.4-0.2-0.7-0.3-1.2zm0.2 2.1c0 0.6 0 0.9 0 1.2 0 0.2-0.1 0.4-0.2 0.7l1.9 0.7c0.1-0.4 0.2-0.7 0.3-1.2 0-0.4 0-0.8 0-1.4zm-0.2 1.9c-0.3 0.9-0.8 1.8-1.5 2.4l1.4 1.5c0.9-0.9 1.6-2 2-3.2zm-9.4 5.4c1.6-0.3 3.4-0.6 3.9-0.8l-0.6-1.9c-0.3 0.1-2 0.4-3.7 0.7zm2.1-0.5c-0.5 0.1-1.9 0.2-3.2 0.3l0.2 1.9c1.2 0 2.7-0.1 3.2-0.2zm-3.1 1.2l0.1 1zm-7.6 0.3q-0.1 0-0.1 0l0.7 1.9q0.1 0 0.2-0.1zm0.4 0.9l-0.4-0.9zm2.1-0.3c1.4-0.7 2.8-1 6.1-1.6l-0.3-2c-3.4 0.6-5 1-6.6 1.8zm9.7-3.3l-0.3-1zm5.6-8.5l-1 0.2zm4.1 0.2q0-0.1 0-0.1 0 0.1-0.1 0.2 0 0-0.2 0.1c-0.1 0.1-0.2 0.1-0.4 0.1v-2c-0.5 0-0.8 0.3-0.8 0.4q-0.2 0.1-0.2 0.3-0.2 0.2-0.2 0.5zm-0.8 0.3q0 0-0.1 0 0 0-0.1 0 0 0 0 0-0.1-0.1-0.1-0.1 0 0 0 0 0 0 0 0 0.1 0.1 0.1 0.1 0.1 0 0.3 0.1l1.1-1.6q-0.3-0.2-0.5-0.3-0.1-0.1-0.2-0.1-0.1 0-0.1-0.1c-0.1 0-0.2 0-0.4 0zm-0.2-0.6l1 0.3zm0.2 0.7c0.6 0.4 1.7 1 4.4 2.5l1-1.8c-2.8-1.5-3.8-2-4.3-2.4zm4.4 2.5c3.5 1.9 5.3 3.2 6.5 4.7l1.5-1.2c-1.4-1.8-3.5-3.3-7-5.2zm10.4 5.6l-0.3-1v0.1zm-1 3.5l-1 0.2zm-0.2 5l1 0.3zm-6.6 7.2q-0.4 0.2-0.6 0.3-0.1 0.1-0.2 0.1 0 0 0 0 0 0 0.1 0 0 0 0.1 0 0 0 0.1-0.1v2c0.2 0 0.3 0 0.3 0q0.1 0 0.1 0 0.1 0 0.1-0.1 0.1 0 0.3-0.1 0.3-0.1 0.6-0.3zm-0.4 0.3q0.3 0 0.6 0.3c0.2 0.1 0.3 0.3 0.3 0.4 0.1 0.2 0.1 0.3 0.1 0.4q0 0.1 0 0.1 0 0 0 0-0.1 0 0-0.1 0.1-0.2 0.3-0.6l-1.9-0.8q-0.1 0.4-0.3 0.7 0 0.1-0.1 0.3 0 0 0 0.2c0 0.1 0 0.2 0 0.4 0.1 0.1 0.2 0.3 0.3 0.5q0.3 0.2 0.7 0.2zm1.3 0.5c1.1-2.4 1.2-4.7 0.4-7.3l-1.9 0.6c0.7 2.1 0.6 3.9-0.3 5.9zm0.4-7.4c-0.6-1.5-1.6-3.4-3.6-6.3l-1.6 1.1c1.9 2.9 2.8 4.6 3.3 5.9zm-7.8-11.3l-0.9 0.4zm-31.5 11.1c0.5-0.6 0.9-1.1 1.2-1.8 0.3-0.6 0.3-1.3 0.3-2.1h-2c0 0.7 0 1.1-0.2 1.4-0.1 0.3-0.3 0.6-0.8 1.1zm10.5-2.2c1.7-0.3 3.5-0.2 5.2 0.2l0.4-2c-2-0.4-3.9-0.5-5.9-0.2zm5.2 0.2c2.1 0.5 3.9 1.7 4.8 3l1.6-1.1c-1.2-1.8-3.5-3.2-5.9-3.9zm4.7 3.1c1 1.3 1.4 2.4 1.8 5.3l2-0.3c-0.5-3-1-4.5-2.1-6.2zm1.8 5.4c0.2 1.1 0.4 2.3 0.4 2.6l2-0.4c-0.1-0.3-0.3-1.4-0.4-2.5zm0.4 2.6c0.4 1.6 1.1 3.1 2.2 3.9l1.2-1.6c-0.5-0.4-1.1-1.3-1.4-2.7zm7.5 4.2l-0.4-0.9zm1.5 0q0.1-0.1 0.2-0.1l-0.7-1.9q-0.2 0.1-0.3 0.1zm-0.4-0.9l0.3 1v-0.1h0.1zm-4.2 1.8v-1zm-1.7-1.9l0.6-0.8zm-2.7-1.8q-0.7-1.3-1.3-2.7l-1.9 0.8q0.7 1.5 1.5 2.9zm-6.3-5.9l0.9-0.5zm-5-2.4l-0.4-0.9zm0.4 1.5l-0.7-0.7zm-2.2 4.2c0.8 0.8 1.8 1.3 3 1.5l0.3-1.9c-0.7-0.2-1.4-0.5-1.9-1zm3 1.5q0.8 0.1 1.6-0.1l-0.6-1.9q-0.3 0.1-0.7 0.1zm1.5-0.2q0.8-0.2 1.4-0.7l-1.4-1.5q-0.2 0.2-0.5 0.3zm1.3-0.7q0.6-0.5 0.9-1.2l-1.8-0.9q-0.2 0.4-0.4 0.6zm0.2-2.7h-1zm1 0c0-0.7-0.1-1.3-0.5-1.8-0.4-0.6-0.9-0.9-1.5-1.2l-0.8 1.8c0.4 0.2 0.6 0.4 0.6 0.5 0.1 0.1 0.2 0.3 0.2 0.7zm-4.2-0.4c-0.2-0.1-0.3-0.2-0.3-0.4 0-0.1 0-0.4 0.3-0.7l-1.4-1.4c-0.7 0.7-1 1.6-0.9 2.5 0.2 0.9 0.9 1.7 1.9 1.9zm-2-0.2c0 0.4 0.1 0.8 0.3 1.2 0.3 0.4 0.7 0.6 1 0.8l0.9-1.8c-0.2-0.1-0.2-0.2-0.2-0.1q0 0 0 0 0-0.1 0-0.1zm1.7 1.1l-0.4 0.9zm-0.8-1.1h1zm2.9-1.4l0.4-0.9zm1.2 1.3c0 0.1 0.1 0.5 0.1 0.9 0.1 0.5 0 0.9-0.1 1.1l1.9 0.7c0.2-0.5 0.3-1.2 0.2-1.8 0-0.6-0.1-1.3-0.4-1.9zm-2.7 3.4l-0.1 1zm-2.4-1.3l-0.8 0.7zm-10.6-5.2c0.5 0.1 0.7 0.8 0.3 1.1l-1.3-1.5c-0.9 0.8-0.5 2.2 0.6 2.4zm-0.3 0.3l0.6 0.8zm-2.8-38.1l0.8-0.4v-0.1zm6 1.9q0.1 0.2 0.1 0.3 0 0 0 0c0 0.1-0.1 0.2-0.5 0.5l1 1.7c0.6-0.3 1.2-0.9 1.4-1.6 0.2-0.7 0-1.5-0.4-2.1zm-0.4 0.8q-0.9 0.5-2 0.6l0.1 2q1.5-0.2 2.8-0.8zm-2.9 1.3l-0.6 0.8zm-3-3.1l0.9-0.4v-0.1zm-4.2-9.5q-0.1-0.2-0.2-0.3-0.1-0.1-0.2-0.2-0.1 0-0.3-0.1c-0.2 0-0.5 0-0.8 0.2-0.3 0.2-0.4 0.5-0.4 0.7 0 0.2 0 0.3 0 0.3q0 0.2 0.1 0.3l1.8-0.9q0 0.1 0.1 0.2c0 0.1 0 0.2 0 0.4 0 0.1-0.1 0.4-0.4 0.6-0.3 0.2-0.6 0.2-0.8 0.2q-0.2 0-0.3-0.1-0.1-0.1-0.2-0.1 0-0.1-0.1-0.1zm-0.9 0.5l0.9-0.5zm4.2 9.5c0.4 0.9 0.4 1.3 0.3 1.6q0 0.1-0.1 0.3c0 0 0 0.1 0 0.2-0.1 0.1-0.1 0.2-0.1 0.4h2c0 0.2-0.1 0.3-0.1 0.2 0.1 0 0.1 0 0.1-0.1q0.1-0.3 0.2-0.8c0.1-0.6 0-1.5-0.5-2.6zm0.1 2.5c0 0.2 0 0.2 0 0.3-0.1 0.1-0.2 0.3-0.6 0.7l1.5 1.3c0.4-0.4 0.6-0.7 0.8-1.1 0.2-0.4 0.3-0.8 0.3-1.2zm-0.6 1c-1.3 1.5-1.9 3.2-2.3 6.2l2 0.3c0.4-2.9 0.9-4.1 1.8-5.2zm-6.2 16.2l-0.7-0.7zm-0.8-0.6c-1.9 2.4-2.3 2.9-2.8 3.9l1.8 0.9c0.4-0.8 0.6-1.2 2.5-3.5zm-2.8 3.9c-0.3 0.6-0.5 1.2-0.7 1.8-0.1 0.6-0.2 1.2-0.2 2l2 0.1c0-0.8 0.1-1.2 0.2-1.6 0.1-0.5 0.2-0.8 0.5-1.4zm0.1 3.8l1 0.1zm-0.4 4.4c0.4 1.5 0.9 2.5 2.1 4.3l1.7-1.1c-1.1-1.7-1.5-2.5-1.9-3.8zm2.1 4.3q0.8 1.1 1.1 1.8 0.2 0.4 0.3 0.6c0 0.2 0 0.2 0 0.1h2c0-0.2-0.1-0.5-0.1-0.7q-0.2-0.4-0.4-0.8-0.4-0.9-1.2-2.1zm4 2.6l0.2 0.9zm8.8-0.6l-0.2 1zm0.9-6.7h1zm1 0.1c0-0.5 0-0.9 0-1.3-0.1-0.3-0.2-0.6-0.4-0.9l-1.8 0.8c0.1 0.3 0.2 0.4 0.2 0.5 0 0.1 0 0.3 0 0.8zm-0.4-2.2c-0.5-1.1-1.5-2-3.3-3.2l-1.1 1.6c1.7 1.2 2.3 1.8 2.6 2.5zm-3.3-3.3c-2.2-1.5-2.9-2.5-3.1-3.9l-2 0.3c0.3 2.2 1.6 3.6 4 5.3zm-4.1-3.8l0.9-0.1zm3.2-11.8l1 0.1zm1 0.1c0.1-1.8 0.3-2.2 0.6-2.5l-1.5-1.3c-0.7 0.8-0.9 1.8-1.1 3.6zm0.6-2.4c0.2-0.3 0.3-0.3 0.5-0.4 0.3-0.1 0.6-0.2 1.3-0.3l-0.3-2c-0.7 0.1-1.2 0.2-1.7 0.4-0.5 0.2-0.9 0.5-1.3 0.9zm1.8-0.6c2.3-0.4 3.9-1 5.2-2.2l-1.3-1.5c-1 0.9-2.1 1.4-4.2 1.7zm5.2-2.1q0.9-0.8 1.4-1.8l-1.8-0.8q-0.3 0.6-0.9 1zm1.4-1.7q0.5-1 0.5-2.1l-2-0.1q0 0.7-0.3 1.3zm0.5-2.7c0-0.5-0.2-1-0.5-1.4l-1.5 1.4zm-1.2-0.8l0.7-0.7zm-2-14.2l-0.2 1zm-19.7-6c-0.1 0-0.4 0-0.7 0.3-0.2 0.2-0.2 0.4-0.3 0.6 0 0.2 0.1 0.4 0.1 0.4q0.1 0.2 0.1 0.2 0 0.1 0 0.1 0.1 0.1 0.1 0.1 0.2 0.2 0.4 0.4c0.2 0.4 0.6 0.8 1 1.3l1.6-1.2c-0.4-0.5-0.8-1-1.1-1.3q-0.2-0.3-0.3-0.4 0-0.1 0-0.1 0 0 0 0.1 0 0 0.1 0.1c0 0.1 0.1 0.2 0 0.5 0 0.1 0 0.4-0.3 0.6-0.2 0.2-0.5 0.3-0.7 0.3zm7 49.8c0.3-0.6 0.4-1.3 0.3-2l-2 0.5q0.1 0.3 0 0.5zm0.2-2c-0.1-0.6-0.5-1.2-1.1-1.6l-1.1 1.6q0.2 0.2 0.3 0.5zm-4.5-0.5q0 0.5 0.3 0.9c0.1 0.2 0.4 0.4 0.6 0.5l0.9-1.8c-0.1 0 0 0 0 0.1q0.1 0.1 0.1 0.2 0.1 0.1 0.1 0.1zm1.3 0.5l0.5-0.9zm-0.5 0.9q0.1 0 0-0.1c-0.1 0-0.2-0.2-0.2-0.3 0-0.2 0-0.3 0-0.3q0 0-0.1 0.1l1.7 1.1c0.2-0.2 0.4-0.6 0.4-1.2-0.1-0.6-0.6-1-0.9-1.1zm-0.2-0.5c-0.3 0.3-0.5 0.7-0.4 1.2 0 0.6 0.3 1 0.6 1.3l1.3-1.6q0 0 0 0.1 0.1 0 0.1 0.1c0 0.1-0.1 0.1 0 0zm0.3 2.5c1.2 0.9 2.7 0.3 3.3-0.9l-1.7-1c-0.1 0.2-0.2 0.3-0.3 0.3q0 0-0.1 0 0 0 0 0zm19.4-24.6c-0.7 0.2-1.3 0.7-1.8 1.2-0.5 0.6-0.9 1.3-1.2 2l2 0.6c0.1-0.4 0.3-0.8 0.6-1.2 0.4-0.3 0.7-0.6 1-0.7zm-1.8 5.8l0.8-0.6zm-0.8 0.6c0.3 0.4 0.7 0.7 1.2 0.9 0.5 0.2 1.1 0.2 1.7 0.2v-2c-0.6 0-0.9 0-1-0.1-0.1 0-0.2 0-0.3-0.2zm2.9 0.1v1zm2.7-3.4l0.9 0.6zm0.2-2.8c-1-0.4-2.1-0.5-3.2-0.3l0.4 1.9c0.7-0.1 1.4 0 2.1 0.2zm0.5 3.4c0.3-0.5 0.5-1 0.3-1.6-0.1-0.6-0.5-1-1-1.3l-1 1.8q0.1 0 0.1 0.1 0 0 0-0.1 0 0 0 0 0 0 0-0.1 0 0 0 0zm-1.2-1.9l-0.6 0.8zm-3.9 1c0 0.4 0.2 0.7 0.4 1q0.3 0.4 0.6 0.6c0.5 0.3 1.1 0.5 1.8 0.5v-2c-0.2 0-0.5-0.1-0.7-0.2q-0.1-0.1-0.1-0.1c0 0 0 0 0 0.2zm2.8 2.1c0.4 0 0.9-0.1 1.3-0.3 0.3-0.1 0.8-0.4 1.1-0.8l-1.7-1.1q0.1-0.1 0 0-0.1 0-0.2 0.1c-0.2 0.1-0.4 0.1-0.5 0.1zm-2.6-9.9h-1zm-7 2.4l-0.7 0.8zm0.5 33.8l0.7 0.8zm31.8 10.3l0.3 0.9zm-21.5-17.9l0.3 1zm17.2-14.1l-1 0.4zm8.6-24.3h1zm-4.5 0.2l-0.3 0.9zm10.4 7l0.8-0.6zm-24-5.7l0.2 1zm18.9-5.3l0.9 0.4zm-45.3 3.9l0.8-0.5zm51.6 16.5l0.9-0.5zm-38.9-22l-0.1 1zm-0.5 1.8l0.2-1zm32.2 3.6l1 0.1zm3.2 8.3l-0.8 0.7zm-35.4-14l0.1 1z"/>
	</g>
</svg>