<?xml version="1.0" encoding="UTF-8"?> <svg xmlns="http://www.w3.org/2000/svg" width="1386" height="1539" viewBox="0 0 1386 1539" fill="none"> <path d="M1285.28 0.879028H113.209C57.9805 0.879028 13.209 45.6505 13.209 100.879V1438.44C13.209 1493.67 57.9804 1538.44 113.209 1538.44H1285.28C1340.51 1538.44 1385.28 1493.67 1385.28 1438.44V100.879C1385.28 45.6506 1340.51 0.879028 1285.28 0.879028Z" fill="black"></path> <path d="M1253.04 700.207C1312.67 692.856 1365.28 739.374 1365.28 799.456V1425.21C1365.28 1480.44 1320.51 1525.21 1265.28 1525.21H133.209C77.9805 1525.21 33.209 1480.44 33.209 1425.21V809.822C33.209 752.202 114.866 740.808 130.639 796.227V796.227C137.339 819.768 160.19 834.917 184.482 831.923L805.07 755.424C828.359 752.553 850.236 762.129 851.792 785.543V785.543C855.287 838.108 912.864 908.164 954.932 876.452C1005.61 838.244 1047.56 798.434 1077.31 756.385C1093.12 734.024 1116.37 717.057 1143.55 713.706L1253.04 700.207Z" fill="#6BC0D9"></path> <path d="M335.559 732.596C356.689 732.616 373.889 721.298 373.989 707.321C374.079 693.343 357.029 681.999 335.899 681.979C314.769 681.959 297.559 693.277 297.469 707.255C297.379 721.232 314.429 732.577 335.559 732.596Z" fill="black"></path> <path d="M335.169 791.224C354.749 791.244 370.689 780.76 370.779 767.808C370.869 754.856 355.059 744.344 335.479 744.325C315.899 744.305 299.96 754.789 299.87 767.741C299.78 780.694 315.589 791.205 335.169 791.224Z" fill="black"></path> <path d="M357.875 843.564C370.692 835.153 370.804 821.481 358.124 813.025C345.444 804.57 324.774 804.534 311.957 812.945C299.14 821.356 299.028 835.028 311.708 843.484C324.388 851.939 345.057 851.975 357.875 843.564Z" fill="black"></path> <path d="M334.649 869.009C318.169 868.996 304.749 877.82 304.679 888.722C304.609 899.623 317.909 908.474 334.389 908.487C350.869 908.5 364.289 899.676 364.359 888.775C364.429 877.873 351.129 869.023 334.649 869.009Z" fill="black"></path> <path d="M334.239 931.349C319.309 931.335 307.159 939.326 307.089 949.202C307.019 959.078 319.069 967.096 333.999 967.109C348.929 967.122 361.079 959.131 361.149 949.255C361.219 939.379 349.169 931.362 334.239 931.349Z" fill="black"></path> <path d="M333.829 993.694C320.449 993.681 309.559 1000.85 309.499 1009.7C309.439 1018.55 320.239 1025.73 333.619 1025.74C346.999 1025.76 357.889 1018.59 357.949 1009.74C358.009 1000.89 347.209 993.708 333.829 993.694Z" fill="black"></path> <path d="M333.409 1056.03C321.579 1056.02 311.949 1062.36 311.899 1070.18C311.849 1078.01 321.388 1084.36 333.218 1084.37C345.048 1084.38 354.678 1078.05 354.728 1070.22C354.778 1062.4 345.239 1056.05 333.409 1056.03Z" fill="black"></path> <path d="M332.999 1118.37C322.719 1118.37 314.349 1123.87 314.309 1130.66C314.259 1137.46 322.559 1142.98 332.839 1142.99C343.119 1142.99 351.479 1137.49 351.529 1130.7C351.579 1123.9 343.279 1118.38 332.999 1118.37Z" fill="black"></path> <path d="M269.764 725.059C284.768 715.186 284.87 699.162 269.991 689.268C255.112 679.374 230.887 679.357 215.883 689.23C200.879 699.103 200.778 715.128 215.656 725.022C230.535 734.916 254.76 734.933 269.764 725.059Z" fill="black"></path> <path d="M242.289 791.138C261.869 791.158 277.809 780.674 277.899 767.722C277.989 754.77 262.179 744.258 242.599 744.239C223.019 744.219 207.079 754.703 206.989 767.655C206.899 780.607 222.709 791.119 242.289 791.138Z" fill="black"></path> <path d="M265.017 843.425C277.821 835.006 277.911 821.333 265.218 812.886C252.525 804.44 231.855 804.418 219.051 812.838C206.247 821.258 206.157 834.93 218.85 843.377C231.544 851.823 252.213 851.845 265.017 843.425Z" fill="black"></path> <path d="M241.769 868.923C225.289 868.91 211.869 877.734 211.799 888.636C211.729 899.537 225.029 908.388 241.509 908.401C257.989 908.415 271.409 899.59 271.479 888.689C271.549 877.787 258.249 868.937 241.769 868.923Z" fill="black"></path> <path d="M241.359 931.262C226.429 931.249 214.279 939.24 214.209 949.116C214.139 958.992 226.189 967.01 241.119 967.023C256.049 967.036 268.199 959.045 268.269 949.169C268.339 939.293 256.289 931.276 241.359 931.262Z" fill="black"></path> <path d="M240.939 993.608C227.559 993.595 216.669 1000.76 216.609 1009.61C216.549 1018.46 227.349 1025.64 240.729 1025.66C254.109 1025.67 264.999 1018.51 265.059 1009.66C265.119 1000.81 254.319 993.621 240.939 993.608Z" fill="black"></path> <path d="M240.529 1055.95C228.699 1055.93 219.069 1062.27 219.019 1070.1C218.969 1077.92 228.509 1084.27 240.339 1084.29C252.169 1084.3 261.799 1077.96 261.849 1070.14C261.899 1062.31 252.359 1055.96 240.529 1055.95Z" fill="black"></path> <path d="M146.47 673.796C146.9 673.796 147.329 673.783 147.769 673.776C148.199 673.783 148.629 673.796 149.069 673.796C171.75 673.816 190.219 661.671 190.319 646.668C190.419 631.666 172.109 619.488 149.429 619.468C148.999 619.468 148.559 619.481 148.129 619.488C147.699 619.481 147.27 619.468 146.83 619.468C124.15 619.448 105.68 631.593 105.58 646.596C105.48 661.598 123.79 673.776 146.47 673.796Z" fill="black"></path> <path d="M175.761 724.968C190.765 715.094 190.867 699.07 175.988 689.176C161.109 679.282 136.884 679.265 121.88 689.138C106.876 699.012 106.775 715.036 121.654 724.93C136.532 734.824 160.757 734.841 175.761 724.968Z" fill="black"></path> <path d="M148.279 791.052C167.859 791.072 183.799 780.587 183.889 767.635C183.979 754.683 168.169 744.172 148.589 744.152C129.009 744.133 113.069 754.617 112.979 767.569C112.889 780.521 128.699 791.032 148.279 791.052Z" fill="black"></path> <path d="M148.179 806.492C130.149 806.472 115.469 816.13 115.389 828.056C115.309 839.983 129.859 849.667 147.889 849.681C165.919 849.7 180.599 840.043 180.679 828.116C180.759 816.189 166.209 806.505 148.179 806.492Z" fill="black"></path> <path d="M168.661 902.672C180.362 894.975 180.443 882.479 168.842 874.762C157.241 867.045 138.351 867.029 126.649 874.726C114.948 882.424 114.867 894.92 126.468 902.637C138.069 910.354 156.959 910.37 168.661 902.672Z" fill="black"></path> <path d="M147.35 931.176C132.42 931.163 120.27 939.154 120.2 949.03C120.13 958.906 132.179 966.924 147.109 966.937C162.039 966.95 174.189 958.959 174.259 949.083C174.329 939.207 162.28 931.19 147.35 931.176Z" fill="black"></path> <path d="M163.884 1020.82C173.386 1014.57 173.454 1004.43 164.035 998.161C154.616 991.894 139.278 991.878 129.776 998.127C120.273 1004.38 120.206 1014.52 129.624 1020.79C139.043 1027.06 154.382 1027.07 163.884 1020.82Z" fill="black"></path> <path d="M81.8378 724.929C96.8471 715.06 96.9568 699.035 82.0831 689.138C67.2095 679.24 42.9846 679.218 27.9754 689.088C12.9662 698.958 12.8563 714.982 27.73 724.879C42.6037 734.777 66.8286 734.799 81.8378 724.929Z" fill="black"></path> <path d="M89.969 767.55C90.059 754.598 74.249 744.086 54.669 744.067C35.089 744.047 19.149 754.531 19.059 767.483C18.969 780.435 34.7789 790.947 54.3589 790.966C73.9389 790.986 89.879 780.502 89.969 767.55Z" fill="black"></path> <path d="M77.0615 843.219C89.8766 834.807 89.9846 821.134 77.3024 812.68C64.6203 804.226 43.9507 804.193 31.1355 812.605C18.3203 821.017 18.2125 834.69 30.8946 843.144C43.5767 851.598 64.2463 851.631 77.0615 843.219Z" fill="black"></path> <path d="M53.8395 868.745C37.3595 868.732 23.9394 877.556 23.8694 888.457C23.7994 899.359 37.0995 908.209 53.5795 908.223C70.0595 908.236 83.4795 899.412 83.5495 888.51C83.6195 877.609 70.3195 868.758 53.8395 868.745Z" fill="black"></path> <path d="M53.4296 931.09C38.4996 931.077 26.3496 939.068 26.2796 948.944C26.2096 958.82 38.2596 966.838 53.1896 966.851C68.1196 966.864 80.2697 958.873 80.3397 948.997C80.4097 939.121 68.3596 931.104 53.4296 931.09Z" fill="black"></path> <path d="M53.0187 993.43C39.6387 993.416 28.7487 1000.58 28.6887 1009.43C28.6287 1018.28 39.4287 1025.47 52.8087 1025.48C66.1887 1025.49 77.0787 1018.33 77.1387 1009.48C77.1987 1000.63 66.3987 993.443 53.0187 993.43Z" fill="black"></path> <path d="M96.3787 646.582C96.4787 631.58 78.1687 619.401 55.4887 619.382C32.8087 619.362 14.3387 631.507 14.2387 646.509C14.1387 661.512 32.4487 673.69 55.1287 673.71C77.8087 673.73 96.2787 661.585 96.3787 646.582Z" fill="black"></path> <path d="M238.22 673.882C260.9 673.902 279.369 661.757 279.469 646.754C279.569 631.752 261.26 619.574 238.58 619.554C215.9 619.534 197.43 631.679 197.33 646.682C197.23 661.684 215.54 673.862 238.22 673.882Z" fill="black"></path> <path d="M360.688 666.089C376.803 655.499 376.928 638.298 360.965 627.669C345.003 617.039 318.999 617.007 302.884 627.597C286.768 638.187 286.644 655.388 302.606 666.018C318.568 676.647 344.572 676.679 360.688 666.089Z" fill="black"></path> <path d="M452.621 666.027C468.725 655.43 468.832 638.228 452.858 627.607C436.885 616.985 410.881 616.965 394.776 627.562C378.672 638.16 378.566 655.361 394.54 665.983C410.513 676.604 436.517 676.624 452.621 666.027Z" fill="black"></path> <path d="M516.519 674.14C539.199 674.16 557.669 662.015 557.769 647.012C557.869 632.01 539.559 619.832 516.879 619.812C494.199 619.792 475.729 631.937 475.629 646.94C475.529 661.942 493.839 674.12 516.519 674.14Z" fill="black"></path> <path d="M605.069 674.22C627.749 674.239 646.219 662.094 646.319 647.092C646.419 632.089 628.109 619.911 605.429 619.891C582.749 619.871 564.279 632.016 564.179 647.019C564.079 662.022 582.389 674.2 605.069 674.22Z" fill="black"></path> <path d="M725.601 666.246C741.697 655.643 741.79 638.442 725.808 627.826C709.826 617.209 683.822 617.199 667.726 627.801C651.63 638.404 651.538 655.606 667.52 666.222C683.502 676.838 709.506 676.849 725.601 666.246Z" fill="black"></path> <path d="M783.029 674.385C805.709 674.405 824.179 662.26 824.279 647.257C824.379 632.254 806.069 620.076 783.389 620.056C760.709 620.037 742.239 632.182 742.139 647.184C742.039 662.187 760.349 674.365 783.029 674.385Z" fill="black"></path> <path d="M902.086 666.622C918.191 656.025 918.296 638.824 902.323 628.202C886.35 617.58 860.346 617.56 844.241 628.158C828.137 638.755 828.031 655.956 844.004 666.578C859.978 677.2 885.982 677.22 902.086 666.622Z" fill="black"></path> <path d="M996.254 666.609C1012.36 656.016 1012.48 638.815 996.511 628.189C980.543 617.564 954.539 617.538 938.429 628.131C922.319 638.725 922.204 655.926 938.172 666.552C954.14 677.177 980.144 677.203 996.254 666.609Z" fill="black"></path> <path d="M1153.19 674.735C1175.87 674.755 1194.34 662.61 1194.44 647.608C1194.54 632.605 1176.23 620.427 1153.55 620.407C1130.87 620.387 1112.4 632.532 1112.3 647.535C1112.2 662.538 1130.51 674.716 1153.19 674.735Z" fill="black"></path> <path d="M1300.23 647.707C1300.13 662.71 1318.44 674.888 1341.12 674.908C1363.8 674.927 1382.27 662.782 1382.37 647.78C1382.47 632.777 1364.16 620.599 1341.48 620.579C1318.8 620.559 1300.33 632.704 1300.23 647.707Z" fill="black"></path> <path d="M1248.39 85.5502C1302.39 85.5502 1346.63 128.422 1348.34 182.396L1362.42 628.521C1364.04 679.988 1326.32 724.275 1275.24 730.855L1196.77 740.967C1155.33 746.307 1121.57 778.074 1095.15 810.44C1054.35 860.426 981.937 911.174 899.97 956.657C840.356 989.737 790.606 904.894 795.567 836.898V836.898C797.922 804.617 767.367 793.726 735.244 797.686L174.607 866.795C124.874 872.925 78.2827 841.301 65.6188 792.819L16.4552 604.602C14.2999 596.351 13.209 587.858 13.209 579.33V185.55C13.209 130.322 57.9805 85.5502 113.209 85.5502H1248.39Z" fill="black"></path> <path d="M1265.28 14.1089C1320.51 14.1089 1365.28 58.8804 1365.28 114.109V597.942C1365.28 648.439 1327.63 691.012 1277.51 697.191L1143.55 713.706C1116.37 717.057 1093.12 734.024 1077.31 756.385C1047.56 798.435 1005.61 838.244 954.931 876.452C912.864 908.164 855.287 838.108 851.792 785.543V785.543C850.236 762.129 828.359 752.553 805.07 755.424L227.256 826.651C178.344 832.68 132.332 802.175 118.841 754.775L37.0285 467.316C34.4944 458.413 33.209 449.2 33.209 439.943V114.109C33.209 58.8804 77.9805 14.1089 133.209 14.1089H1265.28Z" fill="white"></path> <path d="M207.922 749.464C195.475 726.884 161.062 741.085 168.16 765.871L172.068 779.517C175.187 790.409 185.705 797.466 196.967 796.223L569.789 755.067L227.23 760.656C219.218 760.787 211.79 756.481 207.922 749.464V749.464Z" fill="black"></path> </svg> 