<?xml version="1.0" encoding="UTF-8"?> <svg xmlns="http://www.w3.org/2000/svg" width="1373" height="1539" viewBox="0 0 1373 1539" fill="none"> <path d="M1272.82 0.879028H100.746C45.5176 0.879028 0.746094 45.6505 0.746094 100.879V1438.44C0.746094 1493.67 45.5176 1538.44 100.746 1538.44H1272.82C1328.04 1538.44 1372.82 1493.67 1372.82 1438.44V100.879C1372.82 45.6506 1328.04 0.879028 1272.82 0.879028Z" fill="black"></path> <path d="M1162.03 672.029C1240.3 632.487 1352.83 685.965 1352.83 773.657V1425.21C1352.83 1480.44 1308.05 1525.21 1252.83 1525.21H120.756C65.5273 1525.21 20.7559 1480.44 20.7559 1425.21V898.342C20.7559 833.185 82.133 785.433 146.363 796.384C244.523 813.118 349.035 822.143 457.456 822.143C729.951 822.143 977.747 765.131 1162.03 672.029Z" fill="#FFFA9E"></path> <path d="M801.453 650.095C813.022 641.359 811.695 628.074 798.489 620.421C785.283 612.767 765.198 613.645 753.629 622.381C742.059 631.117 743.386 644.403 756.593 652.056C769.799 659.709 789.883 658.831 801.453 650.095Z" fill="black"></path> <path d="M777.376 675.913C761.326 675.88 748.276 684.466 748.236 695.083C748.186 705.7 761.166 714.332 777.216 714.359C793.266 714.392 806.316 705.806 806.356 695.189C806.406 684.572 793.426 675.939 777.376 675.913Z" fill="black"></path> <path d="M777.106 736.631C762.566 736.605 750.746 744.377 750.706 753.995C750.666 763.613 762.416 771.432 776.956 771.459C791.496 771.485 803.316 763.713 803.356 754.095C803.396 744.476 791.646 736.658 777.106 736.631Z" fill="black"></path> <path d="M603.786 736.294C589.246 736.268 577.426 744.04 577.386 753.658C577.346 763.276 589.096 771.095 603.636 771.122C618.176 771.148 629.996 763.376 630.036 753.757C630.076 744.139 618.326 736.32 603.786 736.294Z" fill="black"></path> <path d="M334.586 542.205C355.166 542.245 371.896 531.244 371.956 517.631C372.016 504.017 355.376 492.951 334.806 492.911C314.226 492.871 297.496 503.872 297.436 517.485C297.376 531.099 314.016 542.166 334.586 542.205Z" fill="black"></path> <path d="M357 761.218C363.737 752.694 358.752 742.17 345.865 737.714C332.978 733.257 317.069 736.555 310.332 745.08C303.595 753.604 308.581 764.127 321.468 768.584C334.354 773.04 350.263 769.743 357 761.218Z" fill="black"></path> <path d="M243.806 614.169C226.246 614.136 211.966 623.523 211.916 635.139C211.866 646.754 226.056 656.201 243.616 656.234C261.176 656.267 275.456 646.88 275.506 635.264C275.556 623.648 261.366 614.202 243.806 614.169Z" fill="black"></path> <path d="M243.546 674.888C227.496 674.854 214.446 683.441 214.406 694.058C214.356 704.675 227.336 713.307 243.386 713.334C259.436 713.367 272.486 704.78 272.526 694.163C272.576 683.547 259.596 674.914 243.546 674.888Z" fill="black"></path> <path d="M243.276 735.606C228.736 735.58 216.916 743.352 216.876 752.97C216.836 762.588 228.586 770.407 243.126 770.434C257.666 770.46 269.486 762.687 269.526 753.069C269.566 743.451 257.816 735.632 243.276 735.606Z" fill="black"></path> <path d="M243.006 796.325C229.976 796.298 219.386 803.264 219.346 811.883C219.306 820.502 229.836 827.507 242.866 827.534C255.896 827.56 266.486 820.595 266.526 811.975C266.566 803.356 256.036 796.351 243.006 796.325Z" fill="black"></path> <path d="M242.746 857.043C231.226 857.023 221.866 863.182 221.826 870.802C221.796 878.422 231.106 884.614 242.626 884.64C254.146 884.66 263.506 878.502 263.546 870.881C263.576 863.261 254.266 857.069 242.746 857.043Z" fill="black"></path> <path d="M242.476 917.762C232.466 917.742 224.326 923.093 224.296 929.715C224.266 936.336 232.356 941.721 242.366 941.741C252.376 941.761 260.516 936.409 260.546 929.787C260.576 923.166 252.486 917.781 242.476 917.762Z" fill="black"></path> <path d="M242.216 978.476C242.216 978.475 242.215 978.473 242.213 978.473C233.714 978.461 226.806 983.005 226.786 988.627C226.766 994.25 233.636 998.821 242.126 998.834C250.626 998.847 257.536 994.303 257.556 988.687C257.576 983.071 250.708 978.494 242.22 978.48C242.218 978.48 242.216 978.478 242.216 978.476V978.476Z" fill="black"></path> <path d="M169.27 420.743C187.095 413.941 193.209 398.868 182.926 387.077C172.643 375.286 149.857 371.242 132.032 378.044C114.208 384.846 108.094 399.918 118.377 411.709C128.659 423.5 151.445 427.545 169.27 420.743Z" fill="black"></path> <path d="M151.026 317.635C131.956 317.595 116.456 327.796 116.396 340.41C116.336 353.025 131.756 363.278 150.826 363.318C169.896 363.357 185.396 353.157 185.456 340.543C185.516 327.928 170.096 317.675 151.026 317.635Z" fill="black"></path> <path d="M151.096 302.599C168.656 302.632 182.936 293.246 182.986 281.63C183.036 270.014 168.846 260.568 151.286 260.535C133.726 260.502 119.446 269.888 119.396 281.504C119.346 293.12 133.536 302.566 151.096 302.599Z" fill="black"></path> <path d="M151.356 118.843C167.406 118.876 180.456 110.29 180.496 99.6731C180.546 89.0561 167.566 80.4236 151.516 80.3972C135.466 80.3641 122.416 88.9503 122.376 99.5673C122.326 110.184 135.306 118.817 151.356 118.843Z" fill="black"></path> <path d="M151.626 58.1247C166.166 58.1512 177.986 50.3786 178.026 40.7605C178.066 31.1424 166.316 23.3235 151.776 23.2971C137.236 23.2706 125.416 31.0431 125.376 40.6613C125.336 50.2794 137.086 58.0982 151.626 58.1247Z" fill="black"></path> <path d="M239.657 484.92C261.747 484.96 279.707 473.152 279.767 458.54C279.827 443.927 261.977 432.047 239.887 432.007C217.797 431.968 199.837 443.775 199.777 458.388C199.717 473 217.567 484.88 239.657 484.92Z" fill="black"></path> <path d="M263.756 418.533C279.637 409.876 281.902 394.342 268.815 383.837C255.729 373.332 232.246 371.834 216.365 380.491C200.484 389.147 198.219 404.681 211.306 415.186C224.392 425.691 247.875 427.189 263.756 418.533Z" fill="black"></path> <path d="M240.396 317.807C221.326 317.767 205.826 327.968 205.766 340.582C205.706 353.197 221.126 363.45 240.196 363.49C259.266 363.529 274.766 353.329 274.826 340.715C274.876 328.1 259.466 317.847 240.396 317.807Z" fill="black"></path> <path d="M240.456 302.771C258.016 302.804 272.296 293.418 272.346 281.802C272.396 270.186 258.206 260.74 240.646 260.707C223.086 260.674 208.806 270.06 208.756 281.676C208.706 293.292 222.896 302.738 240.456 302.771Z" fill="black"></path> <path d="M251.348 117.723C266.301 113.866 273.697 102.722 267.867 92.8302C262.037 82.9388 245.189 78.0466 230.236 81.9031C215.283 85.7596 207.887 96.9044 213.717 106.796C219.547 116.687 236.395 121.579 251.348 117.723Z" fill="black"></path> <path d="M259.683 53.1959C269.966 46.3941 269.966 35.3662 259.683 28.5644C249.401 21.7626 232.73 21.7626 222.447 28.5644C212.165 35.3662 212.165 46.3941 222.447 53.1959C232.73 59.9977 249.401 59.9977 259.683 53.1959Z" fill="black"></path> <path d="M338.93 484.506C360.556 481.523 374.432 467.508 369.922 453.202C365.412 438.897 344.224 429.718 322.598 432.702C300.972 435.685 287.097 449.7 291.607 464.006C296.117 478.311 317.304 487.49 338.93 484.506Z" fill="black"></path> <path d="M331.076 375.079C310.496 375.04 293.766 386.047 293.706 399.654C293.646 413.267 310.286 424.334 330.856 424.374C351.436 424.413 368.166 413.413 368.226 399.799C368.286 386.186 351.646 375.119 331.076 375.079Z" fill="black"></path> <path d="M353.148 358.438C367.887 350.433 370.024 336.04 357.922 326.291C345.82 316.541 324.061 315.127 309.323 323.133C294.585 331.138 292.447 345.531 304.549 355.281C316.651 365.03 338.41 366.444 353.148 358.438Z" fill="black"></path> <path d="M331.386 302.943C348.946 302.976 363.226 293.59 363.276 281.974C363.326 270.358 349.136 260.912 331.576 260.879C314.016 260.846 299.736 270.232 299.686 281.848C299.636 293.464 313.826 302.91 331.386 302.943Z" fill="black"></path> <path d="M331.656 119.187C347.706 119.22 360.756 110.634 360.796 100.017C360.846 89.4 347.866 80.7675 331.816 80.7411C315.766 80.708 302.716 89.2942 302.676 99.9111C302.626 110.528 315.606 119.161 331.656 119.187Z" fill="black"></path> <path d="M350.621 53.3703C360.903 46.5685 360.903 35.5406 350.621 28.7388C340.338 21.937 323.667 21.937 313.385 28.7388C303.102 35.5406 303.102 46.5685 313.385 53.3703C323.667 60.1721 340.338 60.1721 350.621 53.3703Z" fill="black"></path> <path d="M445.765 479.165C462.804 469.864 465.218 453.187 451.158 441.916C437.097 430.645 411.886 429.048 394.847 438.349C377.808 447.65 375.394 464.327 389.454 475.598C403.515 486.869 428.726 488.466 445.765 479.165Z" fill="black"></path> <path d="M420.646 375.251C400.066 375.211 383.336 386.219 383.276 399.825C383.216 413.439 399.846 424.506 420.426 424.545C441.006 424.585 457.736 413.584 457.796 399.971C457.856 386.357 441.226 375.291 420.646 375.251Z" fill="black"></path> <path d="M431.379 362.764C449.524 358.883 459.477 346.006 453.61 334.003C447.742 322 428.275 315.416 410.13 319.298C391.985 323.179 382.032 336.056 387.9 348.059C393.768 360.062 413.234 366.646 431.379 362.764Z" fill="black"></path> <path d="M420.966 303.115C438.526 303.148 452.806 293.762 452.856 282.146C452.906 270.53 438.716 261.084 421.156 261.051C403.596 261.018 389.316 270.404 389.266 282.02C389.216 293.636 403.406 303.082 420.966 303.115Z" fill="black"></path> <path d="M421.226 119.359C437.276 119.392 450.326 110.806 450.366 100.189C450.416 89.572 437.436 80.9395 421.386 80.9131C405.336 80.88 392.286 89.4662 392.246 100.083C392.196 110.7 405.176 119.333 421.226 119.359Z" fill="black"></path> <path d="M421.496 58.6407C436.036 58.6671 447.856 50.8946 447.896 41.2765C447.936 31.6584 436.186 23.8395 421.646 23.8131C407.106 23.7866 395.286 31.5591 395.246 41.1773C395.206 50.7954 406.956 58.6142 421.496 58.6407Z" fill="black"></path> <path d="M535.679 479.719C552.984 470.636 555.882 453.993 542.151 442.545C528.42 431.097 503.26 429.181 485.954 438.264C468.648 447.347 465.75 463.99 479.481 475.438C493.213 486.885 518.373 488.802 535.679 479.719Z" fill="black"></path> <path d="M537.423 417.506C551.974 407.88 551.974 392.275 537.423 382.649C522.872 373.024 499.281 373.024 484.73 382.649C470.179 392.275 470.179 407.88 484.73 417.506C499.281 427.131 522.872 427.131 537.423 417.506Z" fill="black"></path> <path d="M511.437 318.323C492.367 318.283 476.867 328.484 476.807 341.098C476.747 353.713 492.167 363.966 511.237 364.006C530.307 364.045 545.807 353.845 545.867 341.231C545.927 328.616 530.507 318.363 511.437 318.323Z" fill="black"></path> <path d="M511.507 303.287C529.067 303.32 543.347 293.934 543.397 282.318C543.447 270.702 529.257 261.256 511.697 261.223C494.137 261.19 479.857 270.576 479.807 282.192C479.757 293.808 493.947 303.254 511.507 303.287Z" fill="black"></path> <path d="M511.766 119.531C527.816 119.564 540.866 110.978 540.906 100.361C540.956 89.744 527.976 81.1115 511.926 81.0851C495.876 81.052 482.826 89.6381 482.786 100.255C482.736 110.872 495.716 119.505 511.766 119.531Z" fill="black"></path> <path d="M512.036 58.8127C526.576 58.8391 538.396 51.0666 538.436 41.4485C538.476 31.8304 526.726 24.0115 512.186 23.9851C497.646 23.9586 485.826 31.7311 485.786 41.3492C485.746 50.9674 497.496 58.7862 512.036 58.8127Z" fill="black"></path> <path d="M596.947 485.608C619.037 485.648 636.997 473.84 637.057 459.228C637.117 444.615 619.267 432.735 597.177 432.695C575.087 432.656 557.127 444.463 557.067 459.076C557.007 473.688 574.857 485.568 596.947 485.608Z" fill="black"></path> <path d="M612.902 422.63C631.596 416.94 639.777 402.303 631.175 389.937C622.572 377.571 600.445 372.159 581.751 377.849C563.057 383.54 554.876 398.177 563.478 410.543C572.08 422.909 594.208 428.321 612.902 422.63Z" fill="black"></path> <path d="M563.046 341.264C562.986 353.878 578.406 364.131 597.476 364.171C616.546 364.204 632.046 354.011 632.106 341.396C632.166 328.781 616.746 318.528 597.676 318.488C578.606 318.449 563.106 328.649 563.046 341.264Z" fill="black"></path> <path d="M597.746 303.453C615.306 303.486 629.586 294.099 629.636 282.483C629.686 270.867 615.496 261.421 597.936 261.388C580.376 261.355 566.096 270.742 566.046 282.358C565.996 293.973 580.186 303.42 597.746 303.453Z" fill="black"></path> <path d="M598.016 119.696C614.066 119.729 627.116 111.143 627.156 100.526C627.206 89.9093 614.226 81.2768 598.176 81.2503C582.126 81.2173 569.076 89.8034 569.036 100.42C568.986 111.037 581.966 119.67 598.016 119.696Z" fill="black"></path> <path d="M601.214 58.8854C615.67 57.8398 626.107 49.2405 624.526 39.6783C622.946 30.1161 609.946 23.212 595.49 24.2575C581.035 25.3031 570.598 33.9023 572.178 43.4645C573.759 53.0268 586.759 59.9309 601.214 58.8854Z" fill="black"></path> <path d="M726 460.968C727.414 446.384 710.688 433.804 688.642 432.869C666.596 431.933 647.578 442.997 646.164 457.58C644.75 472.164 661.475 484.744 683.521 485.68C705.568 486.615 724.586 475.551 726 460.968Z" fill="black"></path> <path d="M686.517 375.76C665.937 375.721 649.207 386.728 649.147 400.335C649.087 413.948 665.717 425.015 686.297 425.055C706.877 425.095 723.607 414.087 723.667 400.48C723.727 386.867 707.087 375.8 686.517 375.76Z" fill="black"></path> <path d="M721.013 344.129C723.182 331.596 709.581 320.273 690.634 318.838C671.688 317.404 654.57 326.401 652.401 338.934C650.233 351.467 663.834 362.79 682.781 364.225C701.727 365.659 718.845 356.662 721.013 344.129Z" fill="black"></path> <path d="M687.016 261.56C669.456 261.527 655.176 270.914 655.126 282.53C655.076 294.145 669.266 303.592 686.826 303.625C704.386 303.658 718.666 294.271 718.716 282.655C718.766 271.039 704.576 261.593 687.016 261.56Z" fill="black"></path> <path d="M687.266 81.4223C671.216 81.3893 658.166 89.9755 658.126 100.592C658.076 111.209 671.056 119.842 687.106 119.868C703.156 119.901 716.206 111.315 716.246 100.698C716.296 90.0813 703.316 81.4488 687.266 81.4223Z" fill="black"></path> <path d="M687.516 24.3223C672.976 24.2959 661.156 32.0684 661.116 41.6865C661.076 51.3046 672.826 59.1235 687.366 59.1499C701.906 59.1764 713.726 51.4039 713.766 41.7857C713.806 32.1676 702.056 24.3488 687.516 24.3223Z" fill="black"></path> <path d="M770.266 485.939C792.356 485.978 810.316 474.171 810.376 459.558C810.436 444.946 792.586 433.066 770.496 433.026C748.406 432.986 730.446 444.794 730.386 459.406C730.326 474.019 748.176 485.899 770.266 485.939Z" fill="black"></path> <path d="M770.746 375.926C750.166 375.886 733.436 386.887 733.376 400.5C733.316 414.114 749.956 425.181 770.526 425.22C791.106 425.26 807.836 414.259 807.896 400.646C807.956 387.032 791.326 375.965 770.746 375.926Z" fill="black"></path> <path d="M770.996 318.826C751.926 318.786 736.426 328.986 736.366 341.601C736.306 354.216 751.726 364.469 770.796 364.509C789.866 364.548 805.366 354.348 805.426 341.733C805.486 329.119 790.066 318.865 770.996 318.826Z" fill="black"></path> <path d="M771.066 303.783C788.626 303.816 802.906 294.43 802.956 282.814C803.006 271.198 788.816 261.752 771.256 261.719C753.696 261.686 739.416 271.072 739.366 282.688C739.316 294.304 753.506 303.75 771.066 303.783Z" fill="black"></path> <path d="M771.326 120.034C787.376 120.067 800.426 111.481 800.466 100.864C800.516 90.2467 787.536 81.6142 771.486 81.5877C755.436 81.5547 742.386 90.1409 742.346 100.758C742.296 111.375 755.276 120.007 771.326 120.034Z" fill="black"></path> <path d="M771.596 59.3153C786.136 59.3418 797.956 51.5693 797.996 41.9512C798.036 32.333 786.286 24.5142 771.746 24.4877C757.206 24.4613 745.386 32.2338 745.346 41.8519C745.306 51.47 757.056 59.2889 771.596 59.3153Z" fill="black"></path> <path d="M860.593 486.099C882.634 485.113 899.293 472.494 897.802 457.914C896.311 443.334 877.235 432.314 855.194 433.3C833.153 434.287 816.494 446.906 817.985 461.486C819.476 476.066 838.552 487.086 860.593 486.099Z" fill="black"></path> <path d="M866 424.811C886.126 421.974 898.965 408.881 894.676 395.568C890.387 382.254 870.594 373.762 850.468 376.599C830.342 379.436 817.503 392.529 821.792 405.842C826.081 419.155 845.874 427.648 866 424.811Z" fill="black"></path> <path d="M858.566 318.991C839.496 318.951 823.996 329.152 823.936 341.766C823.876 354.381 839.296 364.634 858.366 364.674C877.436 364.713 892.936 354.513 892.996 341.899C893.056 329.284 877.636 319.031 858.566 318.991Z" fill="black"></path> <path d="M858.636 303.955C876.196 303.988 890.476 294.602 890.526 282.986C890.576 271.37 876.386 261.924 858.826 261.891C841.266 261.858 826.986 271.244 826.936 282.86C826.886 294.476 841.076 303.922 858.636 303.955Z" fill="black"></path> <path d="M858.896 120.199C874.946 120.232 887.996 111.646 888.036 101.029C888.086 90.4121 875.106 81.7796 859.056 81.7531C843.006 81.7201 829.956 90.3063 829.916 100.923C829.866 111.54 842.846 120.173 858.896 120.199Z" fill="black"></path> <path d="M874.957 56.0007C886.618 50.2534 889.027 39.3413 880.339 31.6278C871.65 23.9144 855.154 22.3205 843.493 28.0679C831.833 33.8152 829.423 44.7273 838.112 52.4408C846.8 60.1542 863.296 61.7481 874.957 56.0007Z" fill="black"></path> <path d="M978.017 478.538C993.638 468.205 993.638 451.451 978.017 441.118C962.396 430.785 937.069 430.785 921.448 441.118C905.827 451.451 905.827 468.205 921.448 478.538C937.069 488.871 962.396 488.871 978.017 478.538Z" fill="black"></path> <path d="M961.619 424.401C981.163 420.14 991.785 406.206 985.344 393.278C978.903 380.349 957.838 373.323 938.294 377.583C918.75 381.844 908.128 395.778 914.569 408.707C921.009 421.635 942.075 428.662 961.619 424.401Z" fill="black"></path> <path d="M950.357 319.17C931.287 319.13 915.787 329.33 915.727 341.945C915.667 354.56 931.087 364.813 950.157 364.853C969.227 364.892 984.727 354.692 984.787 342.077C984.847 329.463 969.427 319.209 950.357 319.17Z" fill="black"></path> <path d="M950.427 304.127C967.987 304.16 982.267 294.774 982.317 283.158C982.367 271.542 968.177 262.096 950.617 262.063C933.057 262.03 918.777 271.416 918.727 283.032C918.677 294.648 932.867 304.094 950.427 304.127Z" fill="black"></path> <path d="M950.686 120.371C966.736 120.404 979.786 111.818 979.826 101.201C979.876 90.5841 966.896 81.9516 950.846 81.9251C934.796 81.8921 921.746 90.4783 921.706 101.095C921.656 111.712 934.636 120.345 950.686 120.371Z" fill="black"></path> <path d="M950.956 59.6593C965.496 59.6858 977.316 51.9133 977.356 42.2951C977.396 32.677 965.646 24.8582 951.106 24.8317C936.566 24.8053 924.746 32.5778 924.706 42.1959C924.666 51.814 936.416 59.6329 950.956 59.6593Z" fill="black"></path> <path d="M1070.6 415.714C1082.85 404.781 1079.39 389.344 1062.86 381.235C1046.33 373.127 1023 375.418 1010.74 386.351C998.483 397.285 1001.95 412.722 1018.47 420.83C1035 428.939 1058.34 426.648 1070.6 415.714Z" fill="black"></path> <path d="M1041.05 319.342C1021.98 319.302 1006.48 329.502 1006.42 342.117C1006.36 354.732 1021.78 364.985 1040.85 365.025C1059.92 365.064 1075.42 354.864 1075.48 342.249C1075.54 329.635 1060.12 319.381 1041.05 319.342Z" fill="black"></path> <path d="M1055.8 301.982C1071.4 296.648 1077.51 283.96 1069.44 273.644C1061.38 263.327 1042.2 259.288 1026.6 264.622C1011.01 269.956 1004.9 282.643 1012.97 292.96C1021.03 303.276 1040.21 307.316 1055.8 301.982Z" fill="black"></path> <path d="M1041.39 120.55C1057.44 120.583 1070.49 111.997 1070.53 101.38C1070.58 90.7627 1057.6 82.1302 1041.55 82.1037C1025.5 82.0707 1012.45 90.6568 1012.41 101.274C1012.36 111.891 1025.34 120.523 1041.39 120.55Z" fill="black"></path> <path d="M1041.65 59.8313C1056.19 59.8578 1068.01 52.0853 1068.05 42.4671C1068.09 32.849 1056.34 25.0302 1041.8 25.0037C1027.26 24.9773 1015.44 32.7498 1015.4 42.3679C1015.36 51.986 1027.11 59.8049 1041.65 59.8313Z" fill="black"></path> <path d="M1130.78 486.633C1152.87 486.673 1170.83 474.865 1170.89 460.253C1170.95 445.641 1153.1 433.76 1131.01 433.72C1108.92 433.681 1090.96 445.488 1090.9 460.101C1090.84 474.713 1108.69 486.594 1130.78 486.633Z" fill="black"></path> <path d="M1136.54 425.674C1156.9 423.699 1170.99 411.181 1168.01 397.712C1165.02 384.244 1146.1 374.926 1125.74 376.901C1105.37 378.875 1091.29 391.394 1094.27 404.862C1097.26 418.331 1116.18 427.648 1136.54 425.674Z" fill="black"></path> <path d="M1131.51 319.514C1112.44 319.474 1096.94 329.674 1096.88 342.289C1096.82 354.903 1112.24 365.157 1131.31 365.196C1150.38 365.236 1165.88 355.036 1165.94 342.421C1166 329.806 1150.58 319.553 1131.51 319.514Z" fill="black"></path> <path d="M1131.58 304.478C1149.14 304.511 1163.42 295.124 1163.47 283.509C1163.52 271.893 1149.33 262.447 1131.77 262.414C1114.21 262.38 1099.93 271.767 1099.88 283.383C1099.83 294.999 1114.02 304.445 1131.58 304.478Z" fill="black"></path> <path d="M1131.85 120.722C1147.9 120.755 1160.95 112.169 1160.99 101.552C1161.04 90.9347 1148.06 82.3022 1132.01 82.2757C1115.96 82.2427 1102.91 90.8288 1102.87 101.446C1102.82 112.063 1115.8 120.695 1131.85 120.722Z" fill="black"></path> <path d="M1132.11 60.0034C1146.65 60.0298 1158.47 52.2573 1158.51 42.6392C1158.55 33.0211 1146.8 25.2022 1132.26 25.1757C1117.72 25.1493 1105.9 32.9218 1105.86 42.5399C1105.82 52.158 1117.57 59.9769 1132.11 60.0034Z" fill="black"></path> <path d="M1229.78 425.681C1249.98 423.086 1263.18 410.15 1259.25 396.787C1255.33 383.424 1235.78 374.696 1215.57 377.291C1195.37 379.886 1182.18 392.822 1186.1 406.184C1190.02 419.547 1209.58 428.276 1229.78 425.681Z" fill="black"></path> <path d="M1223.07 319.692C1204 319.653 1188.5 329.853 1188.44 342.467C1188.38 355.082 1203.8 365.335 1222.87 365.375C1241.94 365.415 1257.44 355.214 1257.5 342.6C1257.56 329.985 1242.14 319.732 1223.07 319.692Z" fill="black"></path> <path d="M1223.14 304.65C1240.7 304.683 1254.98 295.296 1255.03 283.681C1255.08 272.065 1240.89 262.619 1223.33 262.586C1205.77 262.552 1191.49 271.939 1191.44 283.555C1191.39 295.171 1205.58 304.617 1223.14 304.65Z" fill="black"></path> <path d="M1244.03 115.262C1255.38 107.755 1255.38 95.5839 1244.03 88.0768C1232.68 80.5698 1214.28 80.5698 1202.94 88.0768C1191.59 95.5839 1191.59 107.755 1202.94 115.262C1214.28 122.769 1232.68 122.769 1244.03 115.262Z" fill="black"></path> <path d="M1229.97 59.6464C1244.09 57.3714 1252.76 47.9505 1249.32 38.6042C1245.88 29.2579 1231.64 23.5254 1217.51 25.8003C1203.38 28.0752 1194.72 37.4961 1198.16 46.8425C1201.59 56.1888 1215.84 61.9213 1229.97 59.6464Z" fill="black"></path> <path d="M1273.93 460.445C1273.87 475.057 1291.72 486.938 1313.81 486.977C1335.9 487.017 1353.86 475.209 1353.92 460.597C1353.98 445.985 1336.13 434.104 1314.04 434.064C1291.95 434.025 1273.99 445.832 1273.93 460.445Z" fill="black"></path> <path d="M1345.55 414.75C1356.6 403.263 1351.47 388.03 1334.1 380.726C1316.74 373.422 1293.71 376.813 1282.67 388.3C1271.63 399.787 1276.75 415.02 1294.12 422.324C1311.49 429.628 1334.51 426.237 1345.55 414.75Z" fill="black"></path> <path d="M1338.86 358.854C1352.35 349.934 1352.35 335.471 1338.86 326.551C1325.38 317.631 1303.52 317.631 1290.03 326.551C1276.55 335.471 1276.55 349.934 1290.03 358.854C1303.52 367.774 1325.38 367.774 1338.86 358.854Z" fill="black"></path> <path d="M1340.29 296.212C1350.68 286.852 1347.64 273.69 1333.49 266.814C1319.34 259.939 1299.44 261.953 1289.04 271.313C1278.65 280.673 1281.7 293.834 1295.85 300.71C1309.99 307.586 1329.89 305.572 1340.29 296.212Z" fill="black"></path> <path d="M1335.5 115.442C1346.85 107.935 1346.85 95.7638 1335.5 88.2568C1324.15 80.7497 1305.75 80.7498 1294.41 88.2568C1283.06 95.7639 1283.06 107.935 1294.41 115.442C1305.75 122.949 1324.15 122.949 1335.5 115.442Z" fill="black"></path> <path d="M1333.83 55.2534C1344.11 48.4516 1344.11 37.4237 1333.83 30.6219C1323.55 23.8201 1306.88 23.8201 1296.59 30.6219C1286.31 37.4237 1286.31 48.4516 1296.59 55.2534C1306.88 62.0552 1323.55 62.0552 1333.83 55.2534Z" fill="black"></path> <path d="M120.756 14.1089C65.5273 14.1089 20.7559 58.8804 20.7559 114.109V692.062C20.7559 737.858 51.8102 778.11 96.7044 787.153C147.551 797.396 200.299 805.533 254.583 811.375C284.607 814.606 311.245 831.416 330.943 854.304C368.825 898.318 421.853 938.727 487.478 972.993C536.494 998.587 572.552 919.052 552.002 867.718V867.718C540.326 838.549 566.273 819.338 597.591 816.82C895.568 792.858 1181.93 685.607 1316.49 593.41C1340.47 576.977 1352.83 549.014 1352.83 519.94V114.109C1352.83 58.8804 1308.05 14.1089 1252.83 14.1089H120.756Z" fill="black"></path> <path d="M120.756 14.1089C65.5273 14.1089 20.7559 58.8804 20.7559 114.109V650.765C20.7559 696.561 51.829 736.716 96.7947 745.397C160.37 757.67 230.362 767.446 295.44 773.651C312.739 775.301 328.257 784.83 338.211 799.075C362.821 834.295 389.85 864.478 421.808 891.284C452.301 916.862 501.849 854.021 490.583 815.849V815.849C484.546 795.396 500.924 778.684 522.207 777.337C810.674 759.075 1148.51 663.043 1320.09 528.609C1341.76 511.627 1352.83 484.951 1352.83 457.418V114.109C1352.83 58.8803 1308.05 14.1089 1252.83 14.1089H120.756Z" fill="white"></path> <path d="M614.035 711.957C614.036 711.958 614.036 711.958 614.037 711.958C614.065 711.953 614.754 711.848 616.056 711.64C617.396 711.435 619.376 711.111 621.956 710.734C627.106 709.927 634.776 708.955 644.326 707.446C649.096 706.732 654.386 705.938 660.136 705.078C665.876 704.126 672.086 703.193 678.696 702.148C685.286 701.056 692.296 699.892 699.686 698.668C707.056 697.425 714.776 696.036 722.816 694.633C730.826 693.152 739.166 691.61 747.796 690.009C752.076 689.136 756.446 688.29 760.876 687.423C765.306 686.556 769.806 685.703 774.326 684.731C778.856 683.798 783.446 682.845 788.096 681.886C790.426 681.423 792.746 680.901 795.076 680.385C797.416 679.875 799.766 679.366 802.126 678.85C804.486 678.334 806.866 677.818 809.256 677.302C811.646 676.799 814.036 676.257 816.436 675.695C821.226 674.597 826.066 673.492 830.946 672.374C835.836 671.289 840.686 670.019 845.626 668.868C850.556 667.691 855.526 666.533 860.466 665.237C865.426 663.986 870.406 662.736 875.426 661.473C880.406 660.156 885.406 658.833 890.436 657.51C892.946 656.849 895.466 656.181 897.986 655.519C900.486 654.825 902.996 654.13 905.506 653.429C908.016 652.734 910.526 652.033 913.046 651.332C915.566 650.631 918.106 649.969 920.596 649.222C925.606 647.766 930.616 646.311 935.636 644.856C938.166 644.148 940.656 643.394 943.136 642.627L950.606 640.345L958.096 638.089C960.596 637.335 963.046 636.521 965.516 635.741C970.456 634.173 975.396 632.605 980.326 631.044C985.206 629.423 990.086 627.809 994.946 626.195C999.846 624.634 1004.59 622.888 1009.39 621.26C1014.17 619.607 1018.99 618.006 1023.64 616.266C1028.34 614.579 1033.02 612.893 1037.68 611.226C1042.28 609.499 1046.86 607.779 1051.4 606.073C1053.67 605.219 1055.94 604.366 1058.19 603.519C1060.42 602.646 1062.64 601.773 1064.85 600.9C1082.66 594.053 1099.44 586.949 1115.3 580.122C1123.13 576.616 1130.88 573.296 1138.13 569.876C1141.79 568.189 1145.43 566.555 1148.93 564.901C1152.41 563.221 1155.79 561.548 1159.17 559.953C1172.61 553.51 1184.63 547.306 1195.26 541.736C1197.97 540.373 1200.48 538.984 1202.92 537.641C1205.35 536.298 1207.72 535.015 1210.02 533.791C1214.66 531.37 1218.66 528.969 1222.43 526.885C1224.3 525.834 1226.07 524.835 1227.74 523.902C1228.58 523.439 1229.4 522.982 1230.18 522.546C1230.95 522.096 1231.69 521.659 1232.4 521.243C1235.24 519.556 1237.7 518.14 1239.7 516.989C1241.83 515.777 1243.44 514.863 1244.48 514.272C1244.71 514.138 1244.95 514.445 1244.77 514.641V514.641C1244.03 515.402 1242.96 516.553 1241.51 518.021C1238.62 520.972 1234.42 525.331 1228.48 530.59C1225.57 533.249 1222.34 536.212 1218.57 539.288C1216.72 540.849 1214.77 542.463 1212.73 544.124C1210.7 545.791 1208.6 547.53 1206.31 549.25C1204.06 550.997 1201.7 552.776 1199.27 554.608C1198.05 555.528 1196.82 556.461 1195.57 557.4C1194.32 558.346 1192.98 559.259 1191.67 560.205C1189.03 562.097 1186.26 564.002 1183.44 565.973C1182.02 566.945 1180.63 567.971 1179.13 568.936C1177.65 569.915 1176.15 570.901 1174.63 571.9C1171.61 573.904 1168.45 575.902 1165.27 577.966C1162.04 579.99 1158.67 582.001 1155.29 584.078C1148.55 588.272 1141.23 592.314 1133.74 596.527C1118.58 604.776 1102.19 613.21 1084.47 621.201C1082.27 622.213 1080.05 623.225 1077.83 624.244C1075.6 625.256 1073.31 626.215 1071.03 627.201C1066.46 629.152 1061.88 631.156 1057.22 633.114C1052.51 635.013 1047.76 636.925 1043 638.843C1038.25 640.781 1033.34 642.574 1028.45 644.426C1018.7 648.157 1008.64 651.623 998.546 655.122C993.466 656.822 988.346 658.489 983.216 660.143C980.646 660.963 978.096 661.823 975.506 662.617L967.716 664.985L959.906 667.333C957.306 668.121 954.706 668.901 952.076 669.629C946.816 671.097 941.566 672.566 936.316 674.028C931.066 675.49 925.746 676.806 920.476 678.169C917.836 678.843 915.206 679.525 912.576 680.2C909.936 680.854 907.276 681.47 904.626 682.098C883.536 687.258 862.346 691.511 841.746 695.315C831.396 697.114 821.256 698.926 811.196 700.382C806.176 701.136 801.246 701.936 796.316 702.578C791.386 703.226 786.526 703.868 781.716 704.496C779.316 704.8 776.936 705.138 774.556 705.402C772.176 705.667 769.816 705.932 767.466 706.19C762.776 706.706 758.166 707.228 753.616 707.691C749.056 708.101 744.576 708.511 740.176 708.908C735.776 709.285 731.486 709.735 727.236 710C722.996 710.284 718.836 710.562 714.786 710.84C710.726 711.098 706.786 711.422 702.896 711.554C699.026 711.726 695.246 711.898 691.576 712.057C687.906 712.209 684.366 712.414 680.896 712.467C673.976 712.613 667.516 712.785 661.546 712.857C655.556 712.904 650.046 712.877 645.086 712.838C642.606 712.818 640.266 712.805 638.056 712.785C635.856 712.765 633.796 712.666 631.876 712.619C628.046 712.514 624.776 712.388 622.126 712.289C619.476 712.196 617.446 712.097 616.076 712.037C614.895 711.986 614.204 711.954 614.036 711.946C614.03 711.946 614.029 711.955 614.035 711.957V711.957Z" fill="black"></path> </svg> 