<svg version="1.2" xmlns="http://www.w3.org/2000/svg" viewBox="0 0 187 155" width="187" height="155">
	<title>Rqg1cnrzxRA3-svg</title>
	<style>
		.s0 { fill: #2ab773 } 
		.s1 { fill: #1a1a1a } 
		.s2 { fill: #ffed51;stroke: #000000;stroke-width: 2 } 
	</style>
	<path id="Layer" class="s0" d="m178.3 41.8c-0.5-3.7-1-7.3-1.9-10.8q-0.3-1.3-0.7-2.6-0.4-1.3-0.9-2.6-0.1-0.3-0.2-0.6-0.2-0.3-0.3-0.5-0.3-0.6-0.6-1.2-0.3-0.5-0.7-0.9-0.1-0.1-0.2-0.2l-0.1-0.1v-0.1h-0.1l-0.5-0.5q-0.1-0.1-0.2-0.2l-0.3-0.2q-0.2-0.2-0.5-0.4l-0.5-0.5q-0.1-0.1-0.2-0.2l-0.3-0.1q-1-0.8-2.2-1.4-1.1-0.5-2.4-1c-0.8-0.2-1.7-0.5-2.6-0.8q-1.1-0.4-2.2-0.6l-0.6-0.2q-0.3 0-0.6-0.1-0.5-0.1-1.1-0.2-0.6-0.1-1.2-0.2l-1.1-0.2q-1.2-0.1-2.4-0.3-1.2-0.1-2.4-0.2-1.1-0.1-2.3-0.2l-1.2-0.2h-1.2q-1.2-0.1-2.4-0.2-4.8-0.3-9.6-0.5-4.7-0.2-9.5-0.3-14.1-0.3-28.3-0.2-0.1 0-0.2 0-3 0-6 0.1-0.3 0-0.5 0-1.7 0-3.4 0-1.2 0-2.3 0-0.4 0.1-0.9 0.1-2.7 0-5.4 0.1-0.5 0-1 0-2.7 0.1-5.4 0.2-0.5 0-1 0-1.6 0-3.2 0.1-1.2 0-2.3 0.1-0.4 0-0.7 0-8.1 0.3-16.2 0.7-2.4 0.2-4.7 0.3-1.2 0.1-2.4 0.2-1.2 0.1-2.3 0.3-0.3 0-0.6 0.1c-0.2 0-0.4 0-0.5 0.1h-0.1-0.1q0 0 0 0l-0.3 0.1q-0.3 0.1-0.6 0.1-1.1 0.3-2.2 0.7-1.1 0.3-2.1 0.8-1.1 0.4-2.1 0.9-2 1-3.8 2.4l-0.5 0.4-0.2 0.1q-0.1 0.1-0.2 0.2-0.3 0.3-0.6 0.7-0.7 0.7-1.3 1.7c-0.7 1.2-1.3 2.6-1.8 4q-0.8 2-1.3 4.2-0.1 0.1-0.1 0.3-0.1 0.4-0.2 0.8c-0.7 2.8-1.2 5.6-1.6 8.4q-0.7 4.7-1.1 9.4c-0.5 6.3-0.7 12.7-0.5 19 0.1 6.4 0.5 12.7 1.3 19q0.5 3.2 1 6.4 0.2 1 0.4 2 0.1 0.5 0.2 0.9 0.4 1.9 0.8 3.8 0.1 0.4 0.2 0.8 0.6 2.3 1.4 4.5 0.7 2.2 1.7 4.2 0.7 1.6 1.6 3 0.3 0.4 0.6 0.9 0.3 0.5 0.7 0.9 0.3 0.4 0.6 0.7 0.4 0.3 0.7 0.6l0.2 0.2 0.1 0.1 0.1 0.1 0.5 0.3q1.8 1.3 3.8 2.3 0.3 0.1 0.5 0.2 0.3 0.1 0.6 0.2 0.5 0.3 1 0.5 1 0.4 2.1 0.8 0.4 0.1 0.7 0.2 0.2 0 0.4 0.1l0.6 0.2q0.3 0.1 0.6 0.1l0.3 0.1 0.8 0.2 0.5 0.2q0.3 0 0.6 0.1c3 0.7 6.1 1.2 9.2 1.6q4.7 0.5 9.5 0.9l2.4 0.1 0.6 0.1h0.6l1.1 0.1q2.4 0.1 4.8 0.2c6.4 0.3 12.8 0.4 19.2 0.4h0.8 0.4l0.5 1.1q0.3 0.5 0.6 1.1 0.4 0.9 0.8 1.9 0.5 1.6 0.8 3.3c0.3 2.2 0.2 4.4-0.3 6.6q-0.2 0.8-0.4 1.6-0.2 0.8-0.5 1.5-0.3 0.8-0.6 1.5l-0.2 0.4q0 0 0 0 0 0 0 0.1 0 0 0 0 0 0 0 0 0 0 0 0.1 0.1 0 0.1 0 0 0 0.1 0 0 0 0 0 0 0 0 0 0 0 0 0 0 0 0 0h0.1l0.6-0.4q0.3-0.1 0.6-0.3 2.3-1.6 4.3-3.5 0.1-0.1 0.1-0.1 0.3-0.3 0.6-0.6 1.7-1.6 3.2-3.5 0.9-1.1 1.7-2.3 0.6-0.9 1.1-1.8 0.2-0.3 0.4-0.6 1.5-2.4 2.7-5.1l0.5-1.1h1.2q11.1-0.2 22.2-0.7 5.6-0.3 11.1-0.6 5.6-0.3 11.1-0.8 2.7-0.2 5.5-0.5 0.6-0.1 1.3-0.2l0.7-0.1 0.3-0.1q0.1 0 0.3 0l0.3-0.1h0.2 0.1l0.1-0.1h0.1q0.2-0.1 0.4-0.1 0.3-0.1 0.6-0.2 0.3-0.1 0.6-0.2 1.7-0.7 3.2-1.7 0.2-0.1 0.4-0.2 0.5-0.3 0.9-0.6 1.1-0.7 2.1-1.6l0.2-0.2 0.3-0.2 0.5-0.5q0.4-0.4 0.7-0.8 0.4-0.5 0.7-1 0.4-0.5 0.7-1.1 0.6-1.2 1.1-2.4 0.9-2.5 1.6-5.1 0.7-2.6 1.2-5.3 0.5-2.7 0.9-5.5 0.8-5.4 1.3-10.9 0.4-5.5 0.6-11.1 0-2 0.1-4 0-0.1 0-0.2 0.1-9-0.4-17.9-0.3-5.5-1-11z"/>
	<path id="Layer" class="s1" d="m0.9 77q0 0-0.1 0 0 0 0 0 0 0.1 0 0.1 0.1 0 0.1-0.1z"/>
	<path id="Layer" class="s1" d="m0.8 83.4q0 0.1 0 0.1 0.1 0 0.1-0.1 0 0-0.1-0.1 0 0.1 0 0.1z"/>
	<path id="Layer" class="s1" d="m7.2 83.8c0.2 0 0.4-0.1 0.4-0.4 0-0.2-0.2-0.3-0.4-0.3-0.2 0-0.4 0.1-0.4 0.3 0 0.3 0.2 0.4 0.4 0.4z"/>
	<path id="Layer" class="s1" d="m0.7 89.8c0 0.1 0.1 0.2 0.1 0.2 0.1 0 0.2-0.1 0.2-0.2 0-0.1-0.1-0.1-0.2-0.1 0 0-0.1 0-0.1 0.1z"/>
	<path id="Layer" class="s1" d="m7.2 90.3c0.3 0 0.5-0.2 0.5-0.5 0-0.2-0.2-0.4-0.5-0.4-0.2 0-0.4 0.2-0.4 0.4 0 0.3 0.2 0.5 0.4 0.5z"/>
	<path id="Layer" class="s1" d="m13.6 90.6c0.4 0 0.8-0.3 0.8-0.8 0-0.4-0.4-0.7-0.8-0.7-0.4 0-0.7 0.3-0.7 0.7 0 0.5 0.3 0.8 0.7 0.8z"/>
	<path id="Layer" class="s1" d="m0.8 96.1c-0.1 0-0.1 0-0.1 0.1 0 0.1 0 0.2 0.1 0.2 0.1 0 0.2-0.1 0.2-0.2 0-0.1-0.1-0.1-0.2-0.1z"/>
	<path id="Layer" class="s1" d="m7.2 96.7c0.3 0 0.5-0.2 0.5-0.5 0-0.2-0.2-0.4-0.5-0.4-0.2 0-0.4 0.2-0.4 0.4 0 0.3 0.2 0.5 0.4 0.5z"/>
	<path id="Layer" class="s1" d="m13.6 97c0.4 0 0.8-0.3 0.8-0.8 0-0.4-0.4-0.8-0.8-0.8-0.4 0-0.8 0.4-0.8 0.8 0 0.5 0.4 0.8 0.8 0.8z"/>
	<path id="Layer" class="s1" d="m0.8 102.5c-0.1 0-0.1 0-0.1 0.1 0 0.1 0 0.1 0.1 0.1 0.1 0 0.2 0 0.2-0.1 0-0.1-0.1-0.1-0.2-0.1z"/>
	<path id="Layer" class="s1" d="m7.7 102.6c0-0.2-0.2-0.4-0.5-0.4-0.2 0-0.4 0.2-0.4 0.4 0 0.3 0.2 0.5 0.4 0.5 0.3 0 0.5-0.2 0.5-0.5z"/>
	<path id="Layer" class="s1" d="m13.6 101.9c-0.4 0-0.8 0.3-0.8 0.7 0 0.4 0.4 0.8 0.8 0.8 0.4 0 0.8-0.4 0.8-0.8 0-0.4-0.4-0.7-0.8-0.7z"/>
	<path id="Layer" class="s1" d="m0.9 109q0-0.1-0.1-0.1-0.1 0-0.1 0.1 0 0.1 0.1 0.1 0.1 0 0.1-0.1z"/>
	<path id="Layer" class="s1" d="m7.2 109.4c0.2 0 0.4-0.2 0.4-0.4 0-0.2-0.2-0.4-0.4-0.4-0.2 0-0.4 0.2-0.4 0.4 0 0.2 0.2 0.4 0.4 0.4z"/>
	<path id="Layer" class="s1" d="m13.6 108.3c-0.4 0-0.7 0.3-0.7 0.7 0 0.4 0.3 0.7 0.7 0.7 0.4 0 0.7-0.3 0.7-0.7 0-0.4-0.3-0.7-0.7-0.7z"/>
	<path id="Layer" class="s1" d="m0.8 115.4q0 0 0 0 0.1 0 0.1 0 0-0.1-0.1-0.1 0 0 0 0.1z"/>
	<path id="Layer" class="s1" d="m7.2 115.7c0.2 0 0.3-0.1 0.3-0.3 0-0.2-0.1-0.3-0.3-0.3-0.2 0-0.3 0.1-0.3 0.3 0 0.2 0.1 0.3 0.3 0.3z"/>
	<path id="Layer" class="s1" d="m13.6 114.8c-0.3 0-0.6 0.3-0.6 0.6 0 0.3 0.3 0.6 0.6 0.6 0.3 0 0.6-0.3 0.6-0.6 0-0.3-0.3-0.6-0.6-0.6z"/>
	<path id="Layer" class="s1" d="m20 114.5c-0.5 0-0.9 0.4-0.9 0.9 0 0.5 0.4 0.9 0.9 0.9 0.5 0 0.9-0.4 0.9-0.9 0-0.5-0.4-0.9-0.9-0.9z"/>
	<path id="Layer" class="s1" d="m7.4 121.8c0-0.1-0.1-0.2-0.2-0.2-0.1 0-0.2 0.1-0.2 0.2 0 0.1 0.1 0.2 0.2 0.2 0.1 0 0.2-0.1 0.2-0.2z"/>
	<path id="Layer" class="s1" d="m14 121.8c0-0.3-0.2-0.5-0.4-0.5-0.3 0-0.5 0.2-0.5 0.5 0 0.2 0.2 0.4 0.5 0.4 0.2 0 0.4-0.2 0.4-0.4z"/>
	<path id="Layer" class="s1" d="m20 121.1c-0.4 0-0.7 0.3-0.7 0.7 0 0.4 0.3 0.7 0.7 0.7 0.4 0 0.7-0.3 0.7-0.7 0-0.4-0.3-0.7-0.7-0.7z"/>
	<path id="Layer" class="s1" d="m7.1 128.2q0 0 0.1 0 0 0 0 0 0-0.1 0-0.1 0 0-0.1 0.1z"/>
	<path id="Layer" class="s1" d="m13.9 128.2c0-0.2-0.2-0.3-0.3-0.3-0.2 0-0.3 0.1-0.3 0.3 0 0.1 0.1 0.3 0.3 0.3 0.1 0 0.3-0.2 0.3-0.3z"/>
	<path id="Layer" class="s1" d="m20.5 128.2c0-0.3-0.2-0.6-0.5-0.6-0.3 0-0.6 0.3-0.6 0.6 0 0.3 0.3 0.5 0.6 0.5 0.3 0 0.5-0.2 0.5-0.5z"/>
	<path id="Layer" class="s1" d="m27.1 128.2c0-0.5-0.3-0.8-0.7-0.8-0.5 0-0.8 0.3-0.8 0.8 0 0.4 0.3 0.8 0.8 0.8 0.4 0 0.7-0.4 0.7-0.8z"/>
	<path id="Layer" class="s1" d="m32.8 127.2c-0.6 0-1 0.4-1 1 0 0.5 0.4 1 0.9 1 0.6 0 1-0.5 1-1 0-0.6-0.4-1-0.9-1z"/>
	<path id="Layer" class="s1" d="m13.5 134.6q0 0.1 0.1 0.1 0.1 0 0.1-0.1 0-0.1-0.1-0.1-0.1 0-0.1 0.1z"/>
	<path id="Layer" class="s1" d="m20.3 134.6c0-0.2-0.1-0.4-0.3-0.4-0.2 0-0.4 0.2-0.4 0.4 0 0.1 0.2 0.3 0.4 0.3 0.2 0 0.3-0.1 0.3-0.3z"/>
	<path id="Layer" class="s1" d="m26.9 134.6c0-0.3-0.2-0.6-0.5-0.6-0.3 0-0.6 0.3-0.6 0.6 0 0.3 0.3 0.5 0.6 0.5 0.3 0 0.5-0.2 0.5-0.5z"/>
	<path id="Layer" class="s1" d="m33.5 134.6c0-0.4-0.4-0.8-0.8-0.8-0.4 0-0.7 0.4-0.7 0.8 0 0.4 0.3 0.7 0.7 0.7 0.4 0 0.8-0.3 0.8-0.7z"/>
	<path id="Layer" class="s1" d="m39.1 133.7c-0.5 0-0.9 0.4-0.9 0.9 0 0.5 0.4 0.9 0.9 0.9 0.5 0 0.9-0.4 0.9-0.9 0-0.5-0.4-0.9-0.9-0.9z"/>
	<path id="Layer" class="s1" d="m45.5 133.6c-0.5 0-1 0.4-1 1 0 0.5 0.5 1 1 1 0.6 0 1-0.5 1-1 0-0.6-0.4-1-1-1z"/>
	<path id="Layer" class="s1" d="m53 134.6c0-0.6-0.5-1.1-1.1-1.1-0.6 0-1.1 0.5-1.1 1.1 0 0.6 0.5 1.1 1.1 1.1 0.6 0 1.1-0.5 1.1-1.1z"/>
	<path id="Layer" class="s1" d="m58.3 133.5c-0.6 0-1.1 0.5-1.1 1.1 0 0.6 0.5 1.1 1.1 1.1 0.6 0 1.1-0.5 1.1-1.1 0-0.6-0.5-1.1-1.1-1.1z"/>
	<path id="Layer" class="s1" d="m64.7 133.5c-0.6 0-1.1 0.5-1.1 1.1 0 0.6 0.5 1.1 1.1 1.1 0.6 0 1.1-0.5 1.1-1.1 0-0.6-0.5-1.1-1.1-1.1z"/>
	<path id="Layer" class="s1" d="m72.1 134.6c0-0.6-0.5-1-1-1-0.6 0-1 0.4-1 1 0 0.6 0.4 1 1 1 0.5 0 1-0.4 1-1z"/>
	<path id="Layer" class="s1" d="m78.5 134.6c0-0.4-0.4-0.8-0.8-0.9q-0.1 0-0.2 0c-0.5 0-0.9 0.4-0.9 0.9 0 0.5 0.4 0.9 0.9 0.9q0.1 0 0.2 0c0.4-0.1 0.8-0.4 0.8-0.9z"/>
	<path id="Layer" class="s1" d="m19.9 141q0 0 0.1 0.1 0.1-0.1 0.1-0.1 0-0.1-0.1-0.2-0.1 0.1-0.1 0.2z"/>
	<path id="Layer" class="s1" d="m26.7 141c0-0.2-0.2-0.3-0.3-0.3-0.2 0-0.3 0.1-0.3 0.3 0 0.1 0.1 0.3 0.3 0.3 0.1 0 0.3-0.2 0.3-0.3z"/>
	<path id="Layer" class="s1" d="m33.2 141c0-0.3-0.2-0.5-0.5-0.5-0.2 0-0.4 0.2-0.4 0.5 0 0.2 0.2 0.4 0.4 0.4 0.3 0 0.5-0.2 0.5-0.4z"/>
	<path id="Layer" class="s1" d="m39.7 141c0-0.4-0.2-0.6-0.6-0.6-0.3 0-0.6 0.2-0.6 0.6 0 0.3 0.3 0.6 0.6 0.6 0.4 0 0.6-0.3 0.6-0.6z"/>
	<path id="Layer" class="s1" d="m46.2 141c0-0.4-0.3-0.8-0.7-0.8-0.4 0-0.7 0.4-0.7 0.8 0 0.4 0.3 0.7 0.7 0.7 0.4 0 0.7-0.3 0.7-0.7z"/>
	<path id="Layer" class="s1" d="m52.7 141c0-0.5-0.4-0.8-0.8-0.8-0.4 0-0.8 0.3-0.8 0.8 0 0.4 0.4 0.8 0.8 0.8 0.4 0 0.8-0.4 0.8-0.8z"/>
	<path id="Layer" class="s1" d="m59.1 141c0-0.5-0.4-0.8-0.8-0.8-0.5 0-0.8 0.3-0.8 0.8 0 0.4 0.3 0.8 0.8 0.8 0.4 0 0.8-0.4 0.8-0.8z"/>
	<path id="Layer" class="s1" d="m65.5 141c0-0.5-0.4-0.8-0.8-0.8-0.5 0-0.8 0.3-0.8 0.8 0 0.4 0.3 0.8 0.8 0.8 0.4 0 0.8-0.4 0.8-0.8z"/>
	<path id="Layer" class="s1" d="m71.8 141c0-0.4-0.3-0.7-0.7-0.7-0.4 0-0.8 0.3-0.8 0.7 0 0.4 0.4 0.7 0.8 0.7 0.4 0 0.7-0.3 0.7-0.7z"/>
	<path id="Layer" class="s1" d="m26.3 147.3q0 0.1 0 0.1 0.1 0 0.1-0.1 0 0-0.1 0 0 0 0 0z"/>
	<path id="Layer" class="s1" d="m32.9 147.3c0-0.1-0.1-0.1-0.2-0.1-0.1 0-0.2 0-0.2 0.1 0 0.2 0.1 0.2 0.2 0.2 0.1 0 0.2 0 0.2-0.2z"/>
	<path id="Layer" class="s1" d="m39.4 147.4c0-0.2-0.1-0.4-0.3-0.4-0.2 0-0.3 0.2-0.3 0.4 0 0.1 0.1 0.3 0.3 0.3 0.2 0 0.3-0.2 0.3-0.3z"/>
	<path id="Layer" class="s1" d="m45.9 147.4c0-0.3-0.2-0.4-0.4-0.4-0.2 0-0.4 0.1-0.4 0.4 0 0.2 0.2 0.4 0.4 0.4 0.2 0 0.4-0.2 0.4-0.4z"/>
	<path id="Layer" class="s1" d="m52.4 147.4c0-0.3-0.2-0.5-0.5-0.5-0.3 0-0.5 0.2-0.5 0.5 0 0.2 0.2 0.4 0.5 0.4 0.3 0 0.5-0.2 0.5-0.4z"/>
	<path id="Layer" class="s1" d="m58.8 147.4c0-0.3-0.2-0.5-0.5-0.5-0.3 0-0.5 0.2-0.5 0.5 0 0.2 0.2 0.5 0.5 0.5 0.3 0 0.5-0.3 0.5-0.5z"/>
	<path id="Layer" class="s1" d="m64.7 147.9c0.2 0 0.5-0.3 0.5-0.5 0-0.3-0.3-0.5-0.5-0.5-0.3 0-0.5 0.2-0.5 0.5 0 0.2 0.2 0.5 0.5 0.5z"/>
	<path id="Layer" class="s1" d="m71.5 147.4c0-0.3-0.2-0.4-0.4-0.4-0.3 0-0.5 0.1-0.5 0.4 0 0.2 0.2 0.4 0.5 0.4 0.2 0 0.4-0.2 0.4-0.4z"/>
	<path id="Layer" class="s1" d="m32.7 153.7q0 0 0 0.1 0 0 0-0.1 0 0 0 0 0 0 0 0z"/>
	<path id="Layer" class="s1" d="m39.1 153.7q0 0.1 0 0.1 0.1 0 0.1-0.1 0 0-0.1 0 0 0 0 0z"/>
	<path id="Layer" class="s1" d="m45.4 153.8q0 0.1 0.1 0.1 0.1 0 0.1-0.2 0-0.1-0.1-0.1-0.1 0-0.1 0.1z"/>
	<path id="Layer" class="s1" d="m51.7 153.8c0 0.1 0.1 0.1 0.2 0.1 0.1 0 0.2 0 0.2-0.1 0-0.1-0.1-0.2-0.2-0.2-0.1 0-0.2 0.1-0.2 0.2z"/>
	<path id="Layer" class="s1" d="m58.1 153.8c0 0.1 0.1 0.2 0.2 0.2 0.1 0 0.2-0.1 0.2-0.2 0-0.1-0.1-0.2-0.2-0.2-0.1 0-0.2 0.1-0.2 0.2z"/>
	<path id="Layer" class="s1" d="m64.7 153.9c0.1 0 0.1 0 0.1-0.1 0-0.1 0-0.2-0.1-0.2-0.1 0-0.2 0.1-0.2 0.2 0 0.1 0.1 0.1 0.2 0.1z"/>
	<path id="Layer" class="s1" d="m71.1 153.6q-0.2 0.1-0.2 0.2 0 0.1 0.2 0.1 0.1 0 0.1-0.1 0-0.1-0.1-0.2z"/>
	<path id="Layer" class="s1" d="m84 133.6c-0.6 0-1 0.5-1 1 0 0.6 0.4 1 1 1 0.5 0 1-0.4 1-1 0-0.5-0.5-1-1-1z"/>
	<path id="Layer" class="s1" d="m110.5 134.6c0-0.5-0.4-1-1-1-0.6 0-1 0.5-1 1 0 0.6 0.4 1.1 1 1.1 0.6 0 1-0.5 1-1.1z"/>
	<path id="Layer" class="s1" d="m78.2 141c0-0.3-0.3-0.6-0.6-0.6q-0.1 0-0.1 0c-0.4 0-0.7 0.3-0.7 0.6 0 0.3 0.3 0.6 0.7 0.6q0 0 0.1 0c0.3 0 0.6-0.3 0.6-0.6z"/>
	<path id="Layer" class="s1" d="m84.7 141c0-0.4-0.3-0.7-0.7-0.7-0.4 0-0.8 0.3-0.8 0.7 0 0.4 0.4 0.7 0.8 0.7 0.4 0 0.7-0.3 0.7-0.7z"/>
	<path id="Layer" class="s1" d="m110.2 141c0-0.4-0.3-0.7-0.7-0.7-0.4 0-0.7 0.3-0.7 0.7 0 0.4 0.3 0.8 0.7 0.8 0.4 0 0.7-0.4 0.7-0.8z"/>
	<path id="Layer" class="s1" d="m77.9 147.4c0-0.2-0.2-0.3-0.3-0.3q-0.1 0-0.1 0c-0.2 0-0.4 0.1-0.4 0.3 0 0.2 0.2 0.3 0.4 0.3q0 0 0.1 0c0.1 0 0.3-0.1 0.3-0.3z"/>
	<path id="Layer" class="s1" d="m84.4 147.4c0-0.2-0.2-0.4-0.5-0.4-0.2 0-0.4 0.2-0.4 0.4 0 0.2 0.2 0.4 0.4 0.4 0.3 0 0.5-0.2 0.5-0.4z"/>
	<path id="Layer" class="s1" d="m103.6 147.4c0-0.3-0.2-0.5-0.5-0.5-0.2 0-0.5 0.2-0.5 0.5 0 0.3 0.3 0.5 0.5 0.5 0.3 0 0.5-0.2 0.5-0.5z"/>
	<path id="Layer" class="s1" d="m109.9 147.4c0-0.2-0.2-0.4-0.4-0.4-0.2 0-0.4 0.2-0.4 0.4 0 0.3 0.2 0.4 0.4 0.4 0.2 0 0.4-0.1 0.4-0.4z"/>
	<path id="Layer" class="s1" d="m77.5 153.8q0-0.1 0-0.1-0.1 0-0.1 0.1 0 0 0.1 0 0 0 0 0 0 0 0.1 0 0 0 0 0 0-0.1 0-0.1-0.1 0-0.1 0.1z"/>
	<path id="Layer" class="s1" d="m83.8 153.8q0 0.1 0.1 0.1 0.2 0 0.2-0.1 0-0.1-0.2-0.1-0.1 0-0.1 0.1z"/>
	<path id="Layer" class="s1" d="m90.3 153.6c-0.1 0-0.1 0.1-0.1 0.2 0 0.1 0 0.2 0.1 0.2 0.1 0 0.2-0.1 0.2-0.2 0-0.1-0.1-0.2-0.2-0.2z"/>
	<path id="Layer" class="s1" d="m96.9 153.8c0-0.1-0.1-0.2-0.2-0.2-0.1 0-0.2 0.1-0.2 0.2 0 0.1 0.1 0.2 0.2 0.2 0.1 0 0.2-0.1 0.2-0.2z"/>
	<path id="Layer" class="s1" d="m102.9 153.8c0 0.1 0.1 0.2 0.2 0.2 0.1 0 0.2-0.1 0.2-0.2 0-0.1-0.1-0.2-0.2-0.2-0.1 0-0.2 0.1-0.2 0.2z"/>
	<path id="Layer" class="s1" d="m109.4 153.8q0 0.1 0.1 0.1 0.1 0 0.1-0.1 0-0.1-0.1-0.1-0.1 0-0.1 0.1z"/>
	<path id="Layer" class="s1" d="m186.2 70.8q0 0 0 0 0 0 0 0 0 0 0 0 0 0 0 0z"/>
	<path id="Layer" class="s1" d="m186.2 77.2q0 0.1 0 0.1 0.1 0 0.1-0.1 0 0-0.1 0 0 0 0 0z"/>
	<path id="Layer" class="s1" d="m186.2 83.5q-0.1 0-0.1 0.1 0 0.1 0.1 0.1 0.1 0 0.1-0.1 0-0.1-0.1-0.1z"/>
	<path id="Layer" class="s1" d="m186.2 89.8c-0.1 0-0.2 0.1-0.2 0.2 0 0.1 0.1 0.2 0.2 0.2 0.1 0 0.2-0.1 0.2-0.2 0-0.1-0.1-0.2-0.2-0.2z"/>
	<path id="Layer" class="s1" d="m186.2 96.2c-0.1 0-0.2 0.1-0.2 0.2 0 0.1 0.1 0.2 0.2 0.2 0.1 0 0.2-0.1 0.2-0.2 0-0.1-0.1-0.2-0.2-0.2z"/>
	<path id="Layer" class="s1" d="m186.4 102.8c0-0.1-0.1-0.2-0.2-0.2-0.1 0-0.2 0.1-0.2 0.2 0 0.1 0.1 0.1 0.2 0.1 0.1 0 0.2 0 0.2-0.1z"/>
	<path id="Layer" class="s1" d="m179.8 108.7c-0.2 0-0.4 0.2-0.4 0.4 0 0.3 0.2 0.5 0.4 0.5 0.2 0 0.4-0.2 0.4-0.5 0-0.2-0.2-0.4-0.4-0.4z"/>
	<path id="Layer" class="s1" d="m186.3 109.1q0-0.1-0.1-0.1-0.1 0-0.1 0.1 0 0.2 0.1 0.2 0.1 0 0.1-0.2z"/>
	<path id="Layer" class="s1" d="m180.1 115.5c0-0.2-0.1-0.3-0.3-0.3-0.2 0-0.3 0.1-0.3 0.3 0 0.2 0.1 0.4 0.3 0.4 0.2 0 0.3-0.2 0.3-0.4z"/>
	<path id="Layer" class="s1" d="m186.2 115.5q0 0 0 0-0.1 0-0.1 0 0 0.1 0.1 0.1 0 0 0-0.1z"/>
	<path id="Layer" class="s1" d="m173.9 121.9c0-0.3-0.2-0.5-0.5-0.5-0.3 0-0.5 0.2-0.5 0.5 0 0.3 0.2 0.5 0.5 0.5 0.3 0 0.5-0.2 0.5-0.5z"/>
	<path id="Layer" class="s1" d="m180 121.9c0-0.1-0.1-0.2-0.2-0.2-0.1 0-0.2 0.1-0.2 0.2 0 0.1 0.1 0.2 0.2 0.2 0.1 0 0.2-0.1 0.2-0.2z"/>
	<path id="Layer" class="s1" d="m186.2 121.9q0 0 0 0 0 0 0 0 0 0 0 0 0 0 0 0z"/>
	<path id="Layer" class="s1" d="m161.4 128.3c0-0.4-0.3-0.8-0.8-0.8-0.4 0-0.8 0.4-0.8 0.8 0 0.4 0.4 0.8 0.8 0.8 0.5 0 0.8-0.4 0.8-0.8z"/>
	<path id="Layer" class="s1" d="m167.6 128.3c0-0.3-0.3-0.6-0.6-0.6-0.3 0-0.6 0.3-0.6 0.6 0 0.3 0.3 0.6 0.6 0.6 0.3 0 0.6-0.3 0.6-0.6z"/>
	<path id="Layer" class="s1" d="m173.7 128.3c0-0.2-0.1-0.3-0.3-0.3-0.2 0-0.3 0.1-0.3 0.3 0 0.2 0.1 0.3 0.3 0.3 0.2 0 0.3-0.1 0.3-0.3z"/>
	<path id="Layer" class="s1" d="m179.7 128.3q0 0.1 0.1 0.1 0 0 0-0.1 0-0.1 0-0.1-0.1 0-0.1 0.1z"/>
	<path id="Layer" class="s1" d="m115.9 133.6c-0.6 0-1 0.5-1 1 0 0.6 0.4 1.1 1 1.1 0.5 0 1-0.5 1-1.1 0-0.5-0.5-1-1-1z"/>
	<path id="Layer" class="s1" d="m123.4 134.7c0-0.7-0.5-1.1-1.1-1.2-0.6 0-1.1 0.5-1.1 1.1 0 0.7 0.5 1.1 1.1 1.1 0.6 0 1.1-0.4 1.1-1z"/>
	<path id="Layer" class="s1" d="m128.7 133.5c-0.7 0-1.1 0.5-1.1 1.2 0 0.6 0.4 1.1 1.1 1.1 0.6 0 1.1-0.5 1.1-1.1 0-0.7-0.5-1.2-1.1-1.2z"/>
	<path id="Layer" class="s1" d="m135.1 133.6c-0.7 0-1.1 0.5-1.1 1.1 0 0.6 0.4 1.1 1.1 1.1 0.6 0 1-0.5 1.1-1.1 0-0.6-0.5-1.1-1.1-1.1z"/>
	<path id="Layer" class="s1" d="m142.5 134.7c0-0.6-0.5-1.1-1.1-1.1-0.5 0-1 0.5-1 1.1 0 0.5 0.5 1 1 1 0.6 0 1.1-0.5 1.1-1z"/>
	<path id="Layer" class="s1" d="m148.7 134.7c0-0.5-0.4-0.9-0.9-0.9-0.5 0-0.9 0.4-0.9 0.9 0 0.5 0.4 0.9 0.9 0.9 0.5 0 0.9-0.4 0.9-0.9z"/>
	<path id="Layer" class="s1" d="m155 134.7c0-0.4-0.4-0.8-0.8-0.8-0.4 0-0.7 0.4-0.7 0.8 0 0.4 0.3 0.7 0.7 0.7 0.4 0 0.8-0.3 0.8-0.7z"/>
	<path id="Layer" class="s1" d="m161.2 134.7c0-0.3-0.3-0.6-0.6-0.6-0.3 0-0.6 0.3-0.6 0.6 0 0.3 0.3 0.5 0.6 0.5 0.3 0 0.6-0.2 0.6-0.5z"/>
	<path id="Layer" class="s1" d="m167.4 134.7c0-0.2-0.2-0.4-0.4-0.4-0.2 0-0.4 0.2-0.4 0.4 0 0.2 0.2 0.3 0.4 0.3 0.2 0 0.4-0.1 0.4-0.3z"/>
	<path id="Layer" class="s1" d="m173.5 134.7q0-0.1-0.1-0.1-0.1 0-0.1 0.1 0 0.1 0.1 0.1 0.1 0 0.1-0.1z"/>
	<path id="Layer" class="s1" d="m116.6 141c0-0.4-0.3-0.7-0.7-0.7-0.4 0-0.7 0.3-0.7 0.7 0 0.4 0.3 0.8 0.7 0.8 0.4 0 0.7-0.4 0.7-0.8z"/>
	<path id="Layer" class="s1" d="m123 141c0-0.4-0.3-0.7-0.7-0.7-0.5 0-0.8 0.3-0.8 0.7 0 0.5 0.3 0.8 0.8 0.8 0.4 0 0.7-0.3 0.7-0.8z"/>
	<path id="Layer" class="s1" d="m129.5 141c0-0.4-0.4-0.8-0.8-0.8-0.5 0-0.9 0.4-0.9 0.8 0 0.5 0.4 0.9 0.9 0.9 0.4 0 0.8-0.4 0.8-0.9z"/>
	<path id="Layer" class="s1" d="m135.8 141.1c0-0.5-0.3-0.8-0.8-0.8-0.4 0-0.7 0.3-0.7 0.8 0 0.4 0.3 0.7 0.7 0.7 0.5 0 0.8-0.3 0.8-0.7z"/>
	<path id="Layer" class="s1" d="m142.2 141.1c0-0.4-0.4-0.8-0.8-0.8-0.4 0-0.7 0.4-0.7 0.8 0 0.4 0.3 0.7 0.7 0.7 0.4 0 0.8-0.3 0.8-0.7z"/>
	<path id="Layer" class="s1" d="m148.4 141.1c0-0.4-0.2-0.7-0.6-0.7-0.3 0-0.6 0.3-0.6 0.7 0 0.3 0.3 0.6 0.6 0.6 0.4 0 0.6-0.3 0.6-0.6z"/>
	<path id="Layer" class="s1" d="m154.7 141.1c0-0.3-0.2-0.5-0.5-0.5-0.3 0-0.5 0.2-0.5 0.5 0 0.2 0.2 0.5 0.5 0.5 0.3 0 0.5-0.3 0.5-0.5z"/>
	<path id="Layer" class="s1" d="m160.9 141.1c0-0.2-0.1-0.3-0.3-0.3-0.2 0-0.3 0.1-0.3 0.3 0 0.1 0.1 0.3 0.3 0.3 0.2 0 0.3-0.2 0.3-0.3z"/>
	<path id="Layer" class="s1" d="m166.9 141.1q0 0.1 0.1 0.1 0.1 0 0.1-0.1 0-0.1-0.1-0.1-0.1 0-0.1 0.1z"/>
	<path id="Layer" class="s1" d="m173.4 141.1q0 0 0 0 0 0 0 0 0 0 0 0 0 0 0 0z"/>
	<path id="Layer" class="s1" d="m116.3 147.4c0-0.2-0.2-0.4-0.4-0.4-0.2 0-0.4 0.2-0.4 0.4 0 0.2 0.2 0.4 0.4 0.4 0.2 0 0.4-0.2 0.4-0.4z"/>
	<path id="Layer" class="s1" d="m122.7 147.4c0-0.2-0.2-0.5-0.4-0.5-0.3 0-0.5 0.3-0.5 0.5 0 0.3 0.2 0.5 0.5 0.5 0.2 0 0.4-0.2 0.4-0.5z"/>
	<path id="Layer" class="s1" d="m129.1 147.4c0-0.2-0.2-0.5-0.4-0.5-0.3 0-0.5 0.3-0.5 0.5 0 0.3 0.2 0.5 0.5 0.5 0.2 0 0.4-0.2 0.4-0.5z"/>
	<path id="Layer" class="s1" d="m135.5 147.4c0-0.2-0.2-0.4-0.5-0.4-0.2 0-0.4 0.2-0.4 0.4 0 0.3 0.2 0.5 0.4 0.5 0.3 0 0.5-0.2 0.5-0.5z"/>
	<path id="Layer" class="s1" d="m141.9 147.4c0-0.2-0.2-0.4-0.5-0.4-0.2 0-0.4 0.2-0.4 0.4 0 0.3 0.2 0.5 0.4 0.5 0.3 0 0.5-0.2 0.5-0.5z"/>
	<path id="Layer" class="s1" d="m148.2 147.4c0-0.1-0.2-0.3-0.4-0.3-0.2 0-0.3 0.2-0.3 0.3 0 0.2 0.1 0.4 0.3 0.4 0.2 0 0.4-0.2 0.4-0.4z"/>
	<path id="Layer" class="s1" d="m154.4 147.5c0-0.2-0.1-0.3-0.2-0.3-0.1 0-0.2 0.1-0.2 0.3 0 0.1 0.1 0.2 0.2 0.2 0.1 0 0.2-0.1 0.2-0.2z"/>
	<path id="Layer" class="s1" d="m160.5 147.5q0 0 0.1 0 0.1 0 0.1 0 0-0.1-0.1-0.1-0.1 0-0.1 0.1z"/>
	<path id="Layer" class="s1" d="m115.7 153.8q0.1 0.1 0.2 0.1 0.1 0 0.1-0.1 0-0.1-0.1-0.1-0.1 0-0.2 0.1z"/>
	<path id="Layer" class="s1" d="m122.1 153.8c0 0.1 0.1 0.2 0.2 0.2 0.1 0 0.1-0.1 0.1-0.2 0-0.1 0-0.2-0.1-0.2-0.1 0-0.2 0.1-0.2 0.2z"/>
	<path id="Layer" class="s1" d="m128.5 153.8c0 0.1 0 0.2 0.1 0.2 0.2 0 0.2-0.1 0.2-0.2 0-0.1 0-0.2-0.2-0.2-0.1 0-0.1 0.1-0.1 0.2z"/>
	<path id="Layer" class="s1" d="m134.9 153.8c0 0.1 0 0.2 0.1 0.2 0.1 0 0.2-0.1 0.2-0.2 0-0.1-0.1-0.2-0.2-0.2-0.1 0-0.1 0.1-0.1 0.2z"/>
	<path id="Layer" class="s1" d="m141.3 153.8q0 0.1 0.1 0.2 0.1-0.1 0.2-0.2-0.1-0.1-0.2-0.1-0.1 0-0.1 0.1z"/>
	<path id="Layer" class="s1" d="m147.8 153.8q0 0.1 0 0.1 0.1 0 0.1-0.1 0 0-0.1 0 0 0 0 0z"/>
	<path id="Layer" class="s1" d="m154.2 153.8q0 0.1 0 0.1 0 0 0-0.1 0 0 0 0 0 0 0 0z"/>
	<path id="Layer" class="s1" d="m39.3 0.5q0 0-0.1 0 0 0 0 0 0 0 0 0 0.1 0 0.1 0z"/>
	<path id="Layer" class="s1" d="m45.7 0.5q0-0.1-0.1-0.1 0 0-0.1 0.1 0.1 0.1 0.1 0.1 0.1 0 0.1-0.1z"/>
	<path id="Layer" class="s1" d="m52.2 0.5c0-0.1-0.1-0.1-0.2-0.1-0.1 0-0.1 0-0.1 0.1 0 0.1 0 0.2 0.1 0.2 0.1 0 0.2-0.1 0.2-0.2z"/>
	<path id="Layer" class="s1" d="m58.6 0.5c0-0.1-0.1-0.1-0.2-0.1-0.1 0-0.1 0-0.1 0.1 0 0.1 0 0.2 0.1 0.2 0.1 0 0.2-0.1 0.2-0.2z"/>
	<path id="Layer" class="s1" d="m64.9 0.5c0-0.1 0-0.1-0.1-0.1-0.1 0-0.1 0-0.1 0.1 0 0.1 0 0.2 0.1 0.2 0.1 0 0.1-0.1 0.1-0.2z"/>
	<path id="Layer" class="s1" d="m71.3 0.5q0-0.1-0.1-0.1-0.1 0-0.1 0.1 0 0.1 0.1 0.1 0.1 0 0.1-0.1z"/>
	<path id="Layer" class="s1" d="m77.6 0.5q0 0 0 0-0.1 0-0.1 0 0 0.1 0.1 0.1 0 0 0-0.1z"/>
	<path id="Layer" class="s1" d="m26.5 6.9q0-0.1 0-0.1-0.1 0-0.1 0.1 0 0 0.1 0 0 0 0 0z"/>
	<path id="Layer" class="s1" d="m33 6.9c0-0.1-0.1-0.2-0.1-0.2-0.1 0-0.2 0.1-0.2 0.2 0 0.1 0.1 0.1 0.2 0.1 0 0 0.1 0 0.1-0.1z"/>
	<path id="Layer" class="s1" d="m38.9 6.9c0 0.2 0.2 0.3 0.3 0.3 0.2 0 0.3-0.1 0.3-0.3 0-0.2-0.1-0.3-0.3-0.3-0.1 0-0.3 0.1-0.3 0.3z"/>
	<path id="Layer" class="s1" d="m45.2 6.9c0 0.2 0.2 0.4 0.4 0.4 0.2 0 0.4-0.2 0.4-0.4 0-0.2-0.2-0.4-0.4-0.4-0.2 0-0.4 0.2-0.4 0.4z"/>
	<path id="Layer" class="s1" d="m51.6 6.9c0 0.2 0.2 0.4 0.4 0.4 0.3 0 0.5-0.2 0.5-0.4 0-0.2-0.2-0.4-0.5-0.4-0.2 0-0.4 0.2-0.4 0.4z"/>
	<path id="Layer" class="s1" d="m57.9 6.9c0 0.3 0.3 0.5 0.5 0.5 0.3 0 0.5-0.2 0.5-0.5 0-0.2-0.2-0.4-0.5-0.4-0.2 0-0.5 0.2-0.5 0.4z"/>
	<path id="Layer" class="s1" d="m64.4 6.9c0 0.3 0.2 0.5 0.4 0.5 0.2 0 0.4-0.2 0.4-0.5 0-0.2-0.2-0.4-0.4-0.4-0.2 0-0.4 0.2-0.4 0.4z"/>
	<path id="Layer" class="s1" d="m70.8 6.9c0 0.2 0.2 0.4 0.4 0.4 0.2 0 0.4-0.2 0.4-0.4 0-0.2-0.2-0.4-0.4-0.4-0.2 0-0.4 0.2-0.4 0.4z"/>
	<path id="Layer" class="s1" d="m77.3 6.9c0 0.2 0.1 0.3 0.3 0.3 0.1 0 0.3-0.1 0.3-0.3 0-0.1-0.2-0.3-0.3-0.3-0.2 0-0.3 0.2-0.3 0.3z"/>
	<path id="Layer" class="s1" d="m84.1 6.9c0-0.1 0-0.1-0.1-0.1-0.1 0-0.2 0-0.2 0.1 0 0.1 0.1 0.2 0.2 0.2 0.1 0 0.1-0.1 0.1-0.2z"/>
	<path id="Layer" class="s1" d="m90.4 6.9q0 0 0 0-0.1 0-0.1 0 0 0.1 0 0.1 0.1 0 0.1-0.1z"/>
	<path id="Layer" class="s1" d="m20.2 13.3q0-0.1-0.1-0.1-0.1 0-0.1 0.1 0 0 0.1 0.1 0.1-0.1 0.1-0.1z"/>
	<path id="Layer" class="s1" d="m26.2 13.3c0 0.1 0.1 0.2 0.3 0.2 0.1 0 0.2-0.1 0.2-0.2 0-0.2-0.1-0.3-0.2-0.3-0.2 0-0.3 0.1-0.3 0.3z"/>
	<path id="Layer" class="s1" d="m13.8 19.6q0 0-0.1 0-0.1 0-0.1 0 0 0.1 0.1 0.1 0.1 0 0.1-0.1z"/>
	<path id="Layer" class="s1" d="m19.8 19.7c0 0.1 0.1 0.3 0.3 0.3 0.1 0 0.3-0.2 0.3-0.3 0-0.2-0.2-0.3-0.3-0.3-0.2 0-0.3 0.1-0.3 0.3z"/>
	<path id="Layer" class="s1" d="m7.3 26q0 0 0 0-0.1 0-0.1 0 0 0.1 0.1 0.1 0 0 0-0.1z"/>
	<path id="Layer" class="s1" d="m13.4 26c0 0.2 0.1 0.3 0.3 0.3 0.1 0 0.2-0.1 0.2-0.3 0-0.1-0.1-0.2-0.2-0.2-0.2 0-0.3 0.1-0.3 0.2z"/>
	<path id="Layer" class="s1" d="m7.1 32.4c0 0.1 0.1 0.2 0.2 0.2 0.1 0 0.1-0.1 0.1-0.2 0-0.1 0-0.1-0.1-0.1-0.1 0-0.2 0-0.2 0.1z"/>
	<path id="Layer" class="s1" d="m13.2 32.4c0 0.3 0.2 0.5 0.5 0.5 0.2 0 0.4-0.2 0.4-0.5 0-0.2-0.2-0.4-0.4-0.4-0.3 0-0.5 0.2-0.5 0.4z"/>
	<path id="Layer" class="s1" d="m0.9 38.8q0 0 0 0-0.1 0-0.1 0 0 0 0.1 0 0 0 0 0z"/>
	<path id="Layer" class="s1" d="m7 38.8c0 0.2 0.1 0.3 0.3 0.3 0.1 0 0.3-0.1 0.3-0.3 0-0.2-0.2-0.3-0.3-0.3-0.2 0-0.3 0.1-0.3 0.3z"/>
	<path id="Layer" class="s1" d="m13.7 39.4c0.3 0 0.5-0.3 0.5-0.6 0-0.3-0.2-0.6-0.5-0.6-0.4 0-0.6 0.3-0.6 0.6 0 0.3 0.2 0.6 0.6 0.6z"/>
	<path id="Layer" class="s1" d="m0.8 45.2q0 0.1 0.1 0.1 0.1 0 0.1-0.1 0-0.1-0.1-0.1-0.1 0-0.1 0.1z"/>
	<path id="Layer" class="s1" d="m7.3 45.6c0.2 0 0.4-0.2 0.4-0.4 0-0.2-0.2-0.4-0.4-0.4-0.3 0-0.4 0.2-0.4 0.4 0 0.2 0.1 0.4 0.4 0.4z"/>
	<path id="Layer" class="s1" d="m13.7 45.9c0.3 0 0.6-0.3 0.6-0.7 0-0.4-0.3-0.7-0.6-0.7-0.4 0-0.7 0.3-0.7 0.7 0 0.4 0.3 0.7 0.7 0.7z"/>
	<path id="Layer" class="s1" d="m0.7 51.6c0 0.1 0.1 0.1 0.2 0.1 0.1 0 0.1 0 0.1-0.1 0-0.1 0-0.2-0.1-0.2-0.1 0-0.2 0.1-0.2 0.2z"/>
	<path id="Layer" class="s1" d="m7.3 52c0.2 0 0.4-0.2 0.4-0.4 0-0.3-0.2-0.5-0.4-0.5-0.3 0-0.5 0.2-0.5 0.5 0 0.2 0.2 0.4 0.5 0.4z"/>
	<path id="Layer" class="s1" d="m0.9 57.8c-0.1 0-0.2 0.1-0.2 0.2 0 0.1 0.1 0.1 0.2 0.1 0.1 0 0.1 0 0.1-0.1 0-0.1 0-0.2-0.1-0.2z"/>
	<path id="Layer" class="s1" d="m7.3 58.4c0.2 0 0.4-0.2 0.4-0.4 0-0.3-0.2-0.5-0.4-0.5-0.3 0-0.5 0.2-0.5 0.5 0 0.2 0.2 0.4 0.5 0.4z"/>
	<path id="Layer" fill-rule="evenodd" class="s1" d="m181 41.5q0.7 5.5 1 11.1 0.7 11.2 0.5 22.4-0.2 5.6-0.6 11.2-0.4 5.6-1.1 11.2-0.4 2.5-0.8 4.9c0.2 0.1 0.3 0.3 0.3 0.5 0 0.2-0.2 0.4-0.5 0.4q-0.5 2.7-1.1 5.3c-0.5 1.8-1.1 3.7-1.8 5.5q-0.5 1.4-1.2 2.7-0.3 0.7-0.7 1.3-0.4 0.7-0.9 1.3-0.5 0.6-1.1 1.2l-0.6 0.5-0.2 0.3-0.3 0.2q-1.1 1-2.3 1.8c-1.6 1.2-3.3 2.2-5.2 2.9q-0.4 0.1-0.7 0.3-0.4 0.1-0.7 0.2-0.2 0.1-0.4 0.1l-0.2 0.1h-0.2q-0.2 0.1-0.4 0.1l-0.4 0.1q-0.1 0.1-0.3 0.1l-0.4 0.1-0.7 0.1q-0.7 0.1-1.4 0.2-1.7 0.2-3.4 0.4 0 0.1 0 0.3c0 0.5-0.4 1-1 1-0.5 0-1-0.5-1-1q0-0.1 0-0.2-0.1 0.1-0.2 0.1-2 0.2-4 0.3c-0.1 0.6-0.6 1-1.2 1-0.5 0-0.9-0.4-1.1-0.8q-2.1 0.2-4.2 0.3c-0.2 0.4-0.6 0.6-1.1 0.6-0.3 0-0.7-0.2-0.9-0.4q-2.4 0.1-4.7 0.2-0.3 0.3-0.7 0.3-0.4 0-0.6-0.2-1.9 0.1-3.8 0.2-10.6 0.6-21.1 0.9c-1.6 3.4-3.6 6.6-5.9 9.5q-0.1 0.1-0.1 0.2c0.2 0.2 0.3 0.4 0.3 0.7 0 0.5-0.3 0.8-0.8 0.8q-0.3 0-0.5-0.2-1.5 1.6-3 3.1-1.3 1.2-2.6 2.3c0.1 0.1 0.2 0.2 0.2 0.4 0 0.3-0.2 0.5-0.5 0.5-0.2 0-0.4-0.2-0.4-0.3q-0.8 0.5-1.7 1.1-0.3 0.2-0.6 0.4l-0.7 0.4-0.1 0.1-0.2 0.1q-0.1 0-0.3 0.1-0.1 0.1-0.3 0.1-0.2 0.1-0.4 0.1-0.7 0.2-1.4 0.1c-1-0.1-1.8-0.6-2.5-1.3q-0.5-0.5-0.8-1.1-0.3-0.7-0.3-1.4-0.1-0.8 0.1-1.5 0.1-0.1 0.1-0.3 0.1-0.2 0.2-0.3l0.1-0.3q0.3-0.6 0.5-1.3 0.3-0.6 0.4-1.3 0.2-0.6 0.4-1.3c0.3-1.7 0.4-3.5 0.2-5.2q-0.2-1.3-0.7-2.5-0.2-0.7-0.5-1.3-9-0.1-18-0.4-2.5-0.1-4.9-0.2l-1.2-0.1h-0.6l-0.6-0.1-2.4-0.2q-3.7-0.2-7.4-0.6-0.4 0.2-0.8 0.2c-0.4 0-0.7-0.2-1-0.4q-0.2 0-0.5-0.1l-2.4-0.3q-0.6-0.1-1.2-0.2c-0.2 0.5-0.7 0.9-1.3 0.9-0.7 0-1.3-0.6-1.3-1.3q-1.7-0.3-3.5-0.7-0.3-0.1-0.6-0.2l-0.3-0.1c0.3 0.2 0.5 0.6 0.5 1 0 0.6-0.5 1.1-1.2 1.1-0.6 0-1.1-0.5-1.1-1.1 0-0.6 0.4-1.1 1-1.2l-0.7-0.2q-0.3-0.1-0.6-0.1l-0.6-0.2q-0.6-0.2-1.1-0.4-1.2-0.4-2.4-0.9-0.6-0.2-1.2-0.5-0.3-0.1-0.6-0.2-0.3-0.2-0.6-0.3-2-1-3.9-2.3c0 0.5-0.4 0.9-0.9 0.9-0.6 0-1-0.5-1-1 0-0.4 0.2-0.7 0.6-0.9l-0.2-0.1q-0.6-0.5-1.1-1-0.9-1-1.7-2.1c-1-1.4-1.9-3-2.6-4.5q-1-2.3-1.8-4.7c-1.1-3.1-1.8-6.3-2.5-9.5q-0.9-4.8-1.5-9.6-0.3-2.4-0.5-4.9-0.1-0.2-0.1-0.5-0.2 0.1-0.4 0.1c-0.4 0-0.7-0.3-0.7-0.7 0-0.3 0.3-0.7 0.7-0.7q0.2 0 0.3 0.1-0.1-1.5-0.2-3.1-0.1-1-0.1-2c-0.3 0-0.6-0.3-0.6-0.6q0 0 0 0 0 0 0-0.1c0-0.2 0.2-0.5 0.5-0.5q-0.1-2.6-0.2-5.1c-0.2-0.1-0.4-0.4-0.4-0.7 0-0.2 0.2-0.4 0.4-0.6q0 0 0-0.1 0-2.5 0-5c-0.2-0.1-0.4-0.3-0.4-0.6 0-0.3 0.2-0.6 0.4-0.7q0.1-2.5 0.2-5c-0.4-0.1-0.6-0.4-0.6-0.7 0-0.4 0.3-0.7 0.6-0.8q0.2-2.4 0.3-4.9 0 0-0.1 0c-0.5 0-0.8-0.3-0.8-0.7 0-0.4 0.3-0.8 0.8-0.8q0.1 0 0.3 0.1 0-0.2 0-0.3 0.4-4.8 1.1-9.6c0.5-3.3 1.2-6.5 2-9.6q0.7-2.4 1.5-4.8c0.6-1.5 1.3-3.1 2.2-4.6q0.7-1.1 1.6-2.2 0.5-0.5 1-1 0.2-0.1 0.3-0.2l0.3-0.2 0.5-0.4q2-1.5 4.3-2.7 1.2-0.5 2.3-1 0.8-0.3 1.6-0.6c-0.2 0-0.3-0.2-0.3-0.4 0-0.3 0.2-0.5 0.5-0.5 0.2 0 0.4 0.2 0.4 0.5q0 0.1-0.1 0.2 0.2 0 0.3-0.1 1.2-0.3 2.4-0.6 0.3-0.1 0.6-0.2l0.3-0.1q0.1 0 0.1 0h0.1 0.2c0.2-0.1 0.4-0.1 0.6-0.1q0.4-0.1 0.7-0.1 1.2-0.2 2.4-0.3 1.2-0.1 2.4-0.2 2.5-0.1 4.9-0.2 9.6-0.5 19.2-0.7 9.6-0.3 19.2-0.4 9.7-0.1 19.3 0 9.6 0 19.2 0.2c6.4 0.2 12.9 0.5 19.3 0.9q1.2 0.1 2.4 0.2l1.2 0.1 1.2 0.1q1.2 0.1 2.4 0.2 1.2 0.1 2.4 0.3 1.2 0.1 2.4 0.3 1.2 0.2 2.5 0.4 0.6 0.1 1.2 0.2 0.3 0.1 0.6 0.1l0.6 0.2q1.2 0.2 2.4 0.7c0.9 0.2 1.7 0.5 2.7 0.8 0.9 0.3 1.8 0.7 2.7 1.1q1.4 0.7 2.6 1.6l0.3 0.2q0.1 0.1 0.3 0.2l0.5 0.5q0.3 0.2 0.6 0.5l0.3 0.2q0.1 0.1 0.2 0.2l0.6 0.5v0.1l0.1 0.1 0.2 0.1q0.1 0.2 0.3 0.3 0.5 0.7 0.9 1.3 0.4 0.7 0.7 1.4 0.2 0.3 0.3 0.7 0.2 0.3 0.3 0.6c0.7 1.9 1.3 3.7 1.7 5.5q0.7 2.8 1.2 5.6 0.5 2.8 0.8 5.5zm-1.3 29.3q0.1-9-0.4-17.9-0.3-5.5-1-11c-0.5-3.7-1-7.3-1.9-10.8q-0.3-1.3-0.7-2.6-0.4-1.3-0.9-2.5-0.1-0.4-0.2-0.7-0.2-0.2-0.3-0.5-0.3-0.6-0.6-1.1-0.3-0.6-0.7-1-0.1-0.1-0.2-0.2l-0.1-0.1v-0.1h-0.1l-0.5-0.5q-0.1-0.1-0.2-0.2l-0.3-0.2q-0.2-0.2-0.5-0.4l-0.5-0.4q-0.1-0.2-0.2-0.2l-0.3-0.2q-1-0.8-2.2-1.4-1.1-0.5-2.4-0.9c-0.8-0.3-1.7-0.6-2.6-0.9q-1.1-0.4-2.2-0.6l-0.6-0.1q-0.3-0.1-0.6-0.2-0.5-0.1-1.1-0.2-0.6-0.1-1.2-0.2l-1.1-0.1q-1.2-0.2-2.4-0.4-1.2-0.1-2.4-0.2-1.1-0.1-2.3-0.2l-1.2-0.1-1.2-0.1q-1.2-0.1-2.4-0.2-4.8-0.3-9.6-0.5-4.7-0.2-9.5-0.3-14.1-0.3-28.3-0.2-0.1 0-0.2 0-3 0-6 0.1-0.3 0-0.5 0-1.7 0-3.4 0-1.2 0-2.3 0.1-0.4 0-0.9 0-2.7 0-5.4 0.1-0.5 0-1 0-2.7 0.1-5.4 0.2-0.5 0-1 0-1.6 0-3.2 0.1-1.2 0-2.3 0.1-0.4 0-0.7 0-8.1 0.3-16.2 0.7-2.4 0.2-4.7 0.4-1.2 0-2.4 0.1-1.2 0.2-2.3 0.3-0.3 0-0.6 0.1c-0.2 0-0.4 0-0.5 0.1h-0.1-0.1q0 0 0 0l-0.3 0.1q-0.3 0.1-0.6 0.1-1.1 0.3-2.2 0.7-1.1 0.3-2.1 0.8-1.1 0.4-2.1 0.9-2 1.1-3.8 2.4l-0.4 0.4-0.3 0.1q-0.1 0.1-0.2 0.2-0.3 0.3-0.6 0.7-0.7 0.7-1.2 1.7c-0.8 1.2-1.4 2.6-1.9 4q-0.8 2.1-1.3 4.2-0.1 0.1-0.1 0.3-0.1 0.4-0.2 0.8c-0.7 2.8-1.2 5.6-1.6 8.4q-0.7 4.7-1.1 9.4c-0.5 6.3-0.6 12.7-0.5 19 0.1 6.4 0.6 12.7 1.4 19q0.4 3.2 0.9 6.4 0.2 1 0.4 2 0.1 0.5 0.2 0.9 0.4 1.9 0.8 3.8 0.1 0.4 0.3 0.8 0.5 2.3 1.3 4.5 0.7 2.2 1.7 4.2 0.7 1.6 1.6 3 0.3 0.4 0.6 0.9 0.3 0.5 0.7 0.9 0.3 0.4 0.6 0.7 0.4 0.3 0.7 0.6l0.2 0.2 0.1 0.1 0.1 0.1 0.5 0.3q1.8 1.3 3.8 2.3 0.3 0.1 0.5 0.2 0.3 0.1 0.6 0.2 0.5 0.3 1 0.5 1 0.4 2.1 0.8 0.4 0.1 0.7 0.2 0.2 0 0.4 0.1l0.6 0.2q0.3 0.1 0.6 0.1l0.4 0.1 0.7 0.2 0.5 0.2q0.3 0.1 0.6 0.1c3 0.7 6.1 1.2 9.2 1.6q4.7 0.5 9.5 0.9l2.4 0.1 0.6 0.1h0.6l1.2 0.1q2.3 0.1 4.7 0.2c6.4 0.3 12.8 0.4 19.2 0.4h0.8 0.4l0.5 1.1q0.3 0.5 0.6 1.1 0.5 1 0.8 1.9 0.5 1.6 0.8 3.3c0.3 2.2 0.2 4.5-0.3 6.6q-0.2 0.8-0.4 1.6-0.2 0.8-0.5 1.5-0.3 0.8-0.6 1.5l-0.2 0.4q0 0 0 0 0 0 0 0.1 0 0 0 0 0 0 0 0 0 0 0 0.1 0.1 0 0.1 0.1 0 0 0.1 0 0 0 0-0.1 0 0.1 0 0 0 0 0 0 0 0 0 0h0.1l0.6-0.4q0.3-0.1 0.6-0.3 2.3-1.6 4.3-3.5 0.1-0.1 0.1-0.1 0.3-0.3 0.6-0.6 1.7-1.6 3.2-3.5 0.9-1.1 1.7-2.3 0.6-0.9 1.2-1.8 0.1-0.3 0.3-0.6 1.5-2.4 2.7-5.1l0.5-1.1h1.2q11.1-0.2 22.2-0.7 5.6-0.3 11.1-0.6 5.6-0.3 11.1-0.8 2.7-0.2 5.5-0.5 0.6-0.1 1.3-0.2l0.7-0.1h0.3q0.2-0.1 0.3-0.1l0.3-0.1h0.3l0.1-0.1h0.2q0.1-0.1 0.3-0.1 0.3-0.1 0.6-0.2 0.3-0.1 0.6-0.2 1.7-0.7 3.2-1.7 0.2-0.1 0.4-0.2 0.5-0.3 0.9-0.6 1.1-0.7 2.1-1.6l0.2-0.2 0.3-0.2 0.5-0.5q0.4-0.4 0.7-0.8 0.4-0.5 0.7-1 0.4-0.5 0.7-1.1 0.6-1.2 1.1-2.4c0.6-1.6 1.1-3.4 1.6-5.1q0.7-2.6 1.2-5.3 0.5-2.7 0.9-5.5 0.8-5.4 1.3-10.9 0.4-5.5 0.6-11.1 0-2 0.1-4 0-0.1 0-0.2z"/>
	<path id="Layer" class="s1" d="m0.9 64.2c-0.1 0-0.2 0.1-0.2 0.2 0 0 0.1 0.1 0.2 0.1 0 0 0.1-0.1 0.1-0.1 0-0.1-0.1-0.2-0.1-0.2z"/>
	<path id="Layer" class="s1" d="m7.3 63.9c-0.3 0-0.5 0.2-0.5 0.5 0 0.2 0.2 0.4 0.5 0.4 0.2 0 0.4-0.2 0.4-0.4 0-0.3-0.2-0.5-0.4-0.5z"/>
	<path id="Layer" class="s1" d="m0.9 70.6q-0.1 0-0.2 0.1 0.1 0.1 0.2 0.2 0.1-0.1 0.1-0.2 0-0.1-0.1-0.1z"/>
	<path id="Layer" class="s1" d="m7.2 70.4c-0.2 0-0.3 0.1-0.3 0.4 0 0.2 0.1 0.3 0.3 0.3 0.3 0 0.4-0.1 0.4-0.3 0-0.3-0.1-0.4-0.4-0.4z"/>
	<path id="Layer" class="s1" d="m0.8 77.1q0 0.1 0 0.1 0.1 0 0.1-0.1 0 0 0 0-0.1 0-0.1 0z"/>
	<path id="Layer" class="s1" d="m7.2 77.4c0.2 0 0.3-0.1 0.3-0.3q0 0 0 0 0 0 0-0.1c0-0.1-0.1-0.3-0.3-0.3-0.1 0-0.3 0.2-0.3 0.3q0 0.1 0 0.1 0 0 0 0c0 0.2 0.2 0.3 0.3 0.3z"/>
	<path id="Layer" class="s1" d="m141.5 6.4c26.7 0.4 42.8 5.4 44.5 34.6 2.4-25.5-9.2-37.7-44.5-34.6z"/>
	<path id="Layer" class="s2" d="m35.6 79.1c1.9-0.2 3.8-0.8 5.5-1.7 0.9-0.5 1.1-1.5 0.9-2.2-0.1-0.7-0.6-1.4-1.4-1.7q-0.8-0.3-1.5-0.8-1.1-0.9-1.8-2 0.3-0.1 0.5-0.3c0.3-0.3 0.4-0.7 0.5-1 0-0.6-0.2-1.3-0.9-1.6-1.6-1-2.8-2.5-3.2-4.4q0.4 0.1 0.8-0.1c0.4-0.2 0.7-0.5 0.8-0.8 0.3-0.6 0.2-1.4-0.2-2-0.9-1.1-1.5-2.5-1.5-4.1q0-1 0.4-2c3.6 3.9 8.6 6.5 14.1 7.1 1.4 0.1 2.3-1.1 2.3-2.3q-0.1-0.2-0.1-0.4c0-3.7 3-6.7 6.7-6.7 1.8 0 3.4 0.7 4.6 1.8 0.4 0.4 1.1 0.7 1.9 0.5q0.8-0.2 1.7-0.5c-0.3 0.6-0.2 1.2 0 1.6 0.2 0.3 0.4 0.6 0.8 0.8q-0.7 0.7-1.4 1.3c-0.5 0.4-0.8 1-0.8 1.7q0 0.2 0 0.4c0 9.8-7.5 20.9-20.9 20.9-2.8 0-5.4-0.5-7.8-1.5z"/>
</svg>