<svg version="1.2" xmlns="http://www.w3.org/2000/svg" viewBox="0 0 186 155" width="186" height="155">
	<title>1DaQaGkuKeyT-svg</title>
	<defs>
		<clipPath clipPathUnits="userSpaceOnUse" id="cp1">
			<path d="m116.89 36.03c-3.58 1.95-6.5 3.59-6.5 3.66 0 0.17 8.59 4.7 8.89 4.69 0.14-0.01 1.15-0.49 2.24-1.07l1.51-0.81c0.29-0.16 0.65-0.16 0.94 0l1.7 0.9 1.72 0.93c0.28 0.15 0.61 0.16 0.9 0.02l3.09-1.45c5.34-2.5 5.9-2.77 5.81-2.86-0.11-0.13-2.03-1.2-7.23-4.05-2.52-1.38-4.96-2.73-5.42-3.01-0.47-0.27-0.92-0.49-1-0.48-0.07 0-3.07 1.59-6.65 3.53zm-15.7 8.47l-3.2 1.72c-0.32 0.18-0.52 0.52-0.52 0.88v8.21c0 4.84 0.05 8.79 0.11 8.79 0.06 0 1.89-0.82 4.07-1.83l3.39-1.58c0.35-0.16 0.58-0.51 0.58-0.9v-6.92c0-0.77 0.82-1.25 1.49-0.87l0.44 0.25q2.24 1.27 4.48 2.54l2.1 1.18c0.28 0.16 0.62 0.17 0.92 0.03l0.66-0.31q1.07-0.51 2.13-1.02c0.54-0.26 1.88-0.89 2.98-1.4 1.09-0.5 2.1-1.01 2.25-1.12 0.19-0.16-2.14-1.5-8.6-4.95-4.87-2.61-9.01-4.73-9.2-4.72-0.19 0.01-2.03 0.92-4.08 2.02zm36.68 0.57c-2.54 1.19-4.62 2.21-4.62 2.27-0.01 0.06 1.38 0.92 3.07 1.9 1.69 0.99 3.08 1.85 3.08 1.92 0 0.06-1.5 0.82-3.33 1.68-1.83 0.86-6.46 3.04-10.28 4.84l-12.82 6.03c-3.23 1.52-6.13 2.89-6.46 3.04-6.59 3.11-8.4 3.97-8.64 4.12-0.25 0.15-0.31 1.01-0.36 5.36l-0.04 4.57c-0.01 0.37 0.2 0.72 0.53 0.89l2.79 1.48 2.89 1.54c0.28 0.15 0.61 0.15 0.9 0.02l4.17-1.96c2.54-1.19 4.62-2.23 4.62-2.31 0-0.08-0.47-0.4-1.05-0.71-0.57-0.31-1.76-1.01-2.63-1.54-0.88-0.54-1.75-1.03-1.94-1.09-0.19-0.07-0.34-0.18-0.34-0.26 0-0.07 2.04-1.08 4.52-2.23 4.82-2.25 8.51-3.98 16.44-7.71q5.31-2.51 10.63-5.01c3.12-1.46 6.74-3.17 8.05-3.8l1.82-0.87c0.34-0.16 0.57-0.51 0.57-0.89l0.05-4.61 0.04-4.64c0.01-0.37-0.2-0.71-0.53-0.89l-2.84-1.52c-1.86-0.99-3.45-1.8-3.53-1.8-0.08 0-2.23 0.98-4.76 2.18zm10.66 18.89c-0.5 0.26-1.48 0.73-2.19 1.06-0.7 0.32-2.04 0.95-2.97 1.39l-1.12 0.54c-0.35 0.16-0.57 0.51-0.57 0.89l-0.03 3.97c-0.03 2.53-0.12 4.59-0.2 4.58-0.2-0.03-3.37-1.72-6.55-3.5-2.3-1.28-2.44-1.33-2.98-1.06-0.32 0.17-2.18 1.04-4.15 1.94-1.96 0.91-3.64 1.7-3.72 1.78-0.08 0.07 3.88 2.3 8.8 4.96l8.47 4.58c0.3 0.16 0.65 0.16 0.95 0.01l3.34-1.81c2.1-1.13 3.89-2.16 3.97-2.29 0.19-0.29 0.17-17.54-0.01-17.52-0.08 0.01-0.54 0.23-1.04 0.48zm-21.15 20.24q-1 0.45-1.99 0.9c-2 0.9-1.61 0.93-3.99-0.31-1.58-0.82-2.27-1.07-2.56-0.95-0.23 0.09-2.14 0.99-4.26 1.99-2.11 1.01-3.92 1.83-4.01 1.83-0.89 0 0.59 0.92 6.29 3.91l6.22 3.27c0.29 0.15 0.63 0.15 0.92 0.01l2.35-1.21c1.55-0.8 4.67-2.39 6.93-3.54 2.27-1.15 4.1-2.13 4.06-2.16-0.03-0.04-1.93-1.05-4.22-2.26l-3.72-1.96c-0.28-0.15-0.6-0.16-0.88-0.03z"/>
		</clipPath>
	</defs>
	<style>
		.s0 { fill: #16c1f3 } 
		.s1 { fill: #1a1a1a } 
		.s2 { fill: #ffffff } 
		.s3 { fill: #000000 } 
	</style>
	<path id="Layer" class="s0" d="m8.3 42.3c0.4-3.6 1-7.3 1.9-10.8q0.3-1.3 0.7-2.6 0.4-1.3 0.8-2.5 0.2-0.3 0.3-0.6 0.1-0.3 0.3-0.6 0.3-0.6 0.6-1.1 0.3-0.6 0.7-1 0-0.1 0.1-0.2l0.1-0.1 0.1-0.1 0.5-0.5q0.2-0.1 0.3-0.2l0.2-0.2q0.3-0.2 0.5-0.4l0.5-0.4q0.2-0.1 0.3-0.2l0.3-0.2q1-0.8 2.1-1.4 1.2-0.5 2.4-0.9c0.9-0.3 1.8-0.6 2.7-0.9q1.1-0.4 2.2-0.6l0.6-0.1q0.2-0.1 0.5-0.2 0.6-0.1 1.2-0.2 0.5-0.1 1.1-0.2l1.2-0.1q1.2-0.2 2.4-0.3 1.1-0.2 2.3-0.3 1.2-0.1 2.4-0.2l1.2-0.1 1.2-0.1q1.2-0.1 2.4-0.2 4.7-0.3 9.5-0.5 4.8-0.2 9.6-0.3 14.1-0.3 28.2-0.2 0.1 0 0.2 0 3 0 6 0.1 0.3 0 0.6 0 1.7 0 3.4 0 1.1 0 2.3 0.1 0.4 0 0.8 0 2.8 0 5.5 0.1 0.5 0 1 0 2.7 0.1 5.4 0.2 0.5 0 1 0 1.6 0 3.2 0.1 1.1 0 2.3 0.1 0.3 0 0.7 0 8.1 0.3 16.1 0.7 2.4 0.2 4.8 0.4 1.2 0 2.4 0.2 1.1 0.1 2.3 0.2 0.3 0 0.5 0.1c0.2 0 0.4 0 0.6 0.1h0.1q0.1 0 0.1 0l0.3 0.1q0.3 0.1 0.5 0.1 1.2 0.3 2.3 0.7 1 0.3 2.1 0.8 1 0.4 2 0.9 2.1 1.1 3.9 2.4l0.4 0.4 0.2 0.1q0.1 0.1 0.2 0.2 0.4 0.3 0.7 0.7 0.7 0.7 1.2 1.7c0.8 1.2 1.4 2.6 1.9 4.1q0.7 2 1.3 4.1 0 0.1 0.1 0.3 0.1 0.4 0.2 0.8c0.7 2.8 1.2 5.6 1.6 8.4q0.7 4.7 1.1 9.4c0.5 6.4 0.6 12.7 0.5 19.1-0.2 6.3-0.6 12.6-1.4 18.9q-0.4 3.2-1 6.4-0.1 1-0.3 2-0.1 0.5-0.2 0.9-0.4 1.9-0.9 3.8-0.1 0.4-0.2 0.8-0.6 2.3-1.3 4.5-0.8 2.2-1.7 4.2-0.7 1.6-1.6 3-0.3 0.5-0.6 0.9-0.4 0.5-0.8 1-0.3 0.3-0.6 0.6-0.3 0.3-0.7 0.7l-0.2 0.1-0.1 0.1-0.1 0.1-0.4 0.3q-1.9 1.3-3.9 2.3-0.2 0.1-0.5 0.2-0.2 0.1-0.5 0.2-0.5 0.3-1 0.5-1.1 0.4-2.2 0.8-0.3 0.1-0.6 0.2-0.2 0-0.5 0.1l-0.5 0.2q-0.3 0.1-0.6 0.1l-0.4 0.1-0.7 0.2-0.6 0.2q-0.2 0.1-0.5 0.1c-3 0.7-6.1 1.2-9.3 1.6q-4.7 0.5-9.4 0.9l-2.4 0.1-0.6 0.1h-0.6l-1.2 0.1q-2.4 0.1-4.8 0.2c-6.3 0.3-12.7 0.4-19.1 0.4h-0.8-0.4l-0.6 1.1q-0.3 0.5-0.6 1.2-0.4 0.9-0.7 1.8-0.6 1.6-0.8 3.3c-0.3 2.2-0.2 4.5 0.3 6.6q0.1 0.8 0.4 1.6 0.2 0.8 0.5 1.5 0.3 0.8 0.6 1.5l0.2 0.4q0 0 0 0 0 0.1 0 0.1 0 0 0 0 0 0 0 0 0 0.1 0 0.1-0.1 0.1-0.2 0.1 0 0 0 0 0 0 0 0 0 0 0 0 0 0-0.1-0.1 0 0 0 0l-0.6-0.4q-0.3-0.1-0.6-0.3-2.3-1.5-4.4-3.5 0 0-0.1-0.1-0.3-0.3-0.6-0.6-1.6-1.6-3.1-3.5-0.9-1.1-1.7-2.3-0.6-0.9-1.2-1.8-0.2-0.3-0.4-0.6-1.4-2.4-2.6-5l-0.5-1.2h-1.2q-11.2-0.2-22.3-0.7-5.5-0.2-11.1-0.6-5.5-0.3-11-0.8-2.8-0.2-5.5-0.5-0.7-0.1-1.3-0.2l-0.7-0.1h-0.3q-0.2-0.1-0.3-0.1l-0.3-0.1h-0.3-0.1v-0.1h-0.2q-0.1 0-0.3-0.1-0.3-0.1-0.6-0.2-0.3-0.1-0.6-0.2-1.7-0.7-3.3-1.7-0.2-0.1-0.4-0.2-0.4-0.3-0.8-0.6-1.1-0.7-2.1-1.6l-0.3-0.2-0.2-0.2-0.5-0.5q-0.4-0.3-0.8-0.8-0.4-0.5-0.7-1-0.3-0.5-0.6-1.1-0.6-1.1-1.1-2.4-1-2.5-1.6-5.1-0.7-2.6-1.3-5.3-0.5-2.7-0.9-5.4-0.8-5.5-1.2-11-0.4-5.5-0.6-11.1-0.1-2-0.1-4 0-0.1 0-0.2-0.1-9 0.4-17.9 0.3-5.5 1-11z"/>
	<path id="Layer" class="s1" d="m185.7 77.6q0-0.1 0-0.1 0 0 0.1 0.1-0.1 0-0.1 0 0 0 0 0z"/>
	<path id="Layer" class="s1" d="m185.8 84q0 0-0.1 0-0.1 0-0.1 0 0-0.1 0.1-0.1 0.1 0 0.1 0.1z"/>
	<path id="Layer" class="s1" d="m179.3 84.3c-0.2 0-0.4-0.1-0.4-0.3 0-0.3 0.2-0.4 0.4-0.4 0.2 0 0.4 0.1 0.4 0.4 0 0.2-0.2 0.3-0.4 0.3z"/>
	<path id="Layer" class="s1" d="m185.9 90.3c0 0.1-0.1 0.2-0.2 0.2-0.1 0-0.1-0.1-0.1-0.2 0 0 0-0.1 0.1-0.1 0.1 0 0.2 0.1 0.2 0.1z"/>
	<path id="Layer" class="s1" d="m179.3 90.8c-0.2 0-0.4-0.2-0.4-0.5 0-0.2 0.2-0.4 0.4-0.4 0.3 0 0.5 0.2 0.5 0.4 0 0.3-0.2 0.5-0.5 0.5z"/>
	<path id="Layer" class="s1" d="m172.9 91.1c-0.4 0-0.7-0.3-0.7-0.7 0-0.5 0.3-0.8 0.7-0.8 0.5 0 0.8 0.3 0.8 0.7 0 0.5-0.3 0.8-0.8 0.8z"/>
	<path id="Layer" class="s1" d="m185.7 96.6c0.1 0 0.2 0 0.2 0.1 0 0.1-0.1 0.2-0.2 0.2-0.1 0-0.1-0.1-0.1-0.2 0-0.1 0-0.1 0.1-0.1z"/>
	<path id="Layer" class="s1" d="m179.3 97.2c-0.2 0-0.4-0.2-0.4-0.5 0-0.2 0.2-0.4 0.4-0.4 0.3 0 0.5 0.2 0.5 0.4 0 0.3-0.2 0.5-0.5 0.5z"/>
	<path id="Layer" class="s1" d="m172.9 97.5c-0.4 0-0.7-0.3-0.7-0.8 0-0.4 0.3-0.7 0.7-0.7 0.5 0 0.8 0.3 0.8 0.7 0 0.5-0.3 0.8-0.8 0.8z"/>
	<path id="Layer" class="s1" d="m185.7 103c0.1 0 0.2 0 0.2 0.1 0 0.1-0.1 0.2-0.2 0.2 0 0-0.1-0.1-0.1-0.2 0-0.1 0.1-0.1 0.1-0.1z"/>
	<path id="Layer" class="s1" d="m178.9 103.1c0-0.2 0.2-0.4 0.4-0.4 0.3 0 0.5 0.2 0.5 0.4 0 0.3-0.2 0.5-0.5 0.5-0.2 0-0.4-0.2-0.4-0.5z"/>
	<path id="Layer" class="s1" d="m173 102.4c0.4 0 0.7 0.3 0.7 0.7 0 0.4-0.3 0.8-0.7 0.8-0.5 0-0.8-0.4-0.8-0.8 0-0.4 0.3-0.7 0.8-0.7z"/>
	<path id="Layer" class="s1" d="m185.6 109.5q0-0.1 0.1-0.1 0.1 0 0.1 0.1 0 0.1-0.1 0.1-0.1 0-0.1-0.1z"/>
	<path id="Layer" class="s1" d="m179.3 109.9c-0.2 0-0.3-0.2-0.3-0.4 0-0.2 0.1-0.4 0.3-0.4 0.3 0 0.4 0.2 0.4 0.4 0 0.2-0.1 0.4-0.4 0.4z"/>
	<path id="Layer" class="s1" d="m173 108.8c0.3 0 0.7 0.3 0.7 0.7 0 0.4-0.4 0.7-0.7 0.7-0.4 0-0.7-0.3-0.7-0.7 0-0.4 0.3-0.7 0.7-0.7z"/>
	<path id="Layer" class="s1" d="m185.8 115.9q0 0-0.1 0 0 0 0 0 0-0.1 0-0.1 0.1 0 0.1 0.1z"/>
	<path id="Layer" class="s1" d="m179.4 116.2c-0.2 0-0.3-0.1-0.3-0.3 0-0.2 0.1-0.3 0.3-0.3 0.1 0 0.3 0.1 0.3 0.3 0 0.2-0.2 0.3-0.3 0.3z"/>
	<path id="Layer" class="s1" d="m173 115.3c0.3 0 0.5 0.3 0.5 0.6 0 0.3-0.2 0.6-0.5 0.6-0.4 0-0.6-0.3-0.6-0.6 0-0.3 0.2-0.6 0.6-0.6z"/>
	<path id="Layer" class="s1" d="m166.6 115c0.5 0 0.8 0.4 0.8 0.9 0 0.5-0.3 0.9-0.8 0.9-0.5 0-0.9-0.4-0.9-0.9 0-0.5 0.4-0.9 0.9-0.9z"/>
	<path id="Layer" class="s1" d="m179.2 122.3c0-0.1 0.1-0.2 0.2-0.2 0.1 0 0.1 0.1 0.1 0.2 0 0.1 0 0.2-0.1 0.2-0.1 0-0.2-0.1-0.2-0.2z"/>
	<path id="Layer" class="s1" d="m172.5 122.3c0-0.3 0.2-0.5 0.5-0.5 0.2 0 0.4 0.2 0.4 0.5 0 0.2-0.2 0.5-0.4 0.5-0.3 0-0.5-0.3-0.5-0.5z"/>
	<path id="Layer" class="s1" d="m166.6 121.6c0.4 0 0.7 0.3 0.7 0.7 0 0.4-0.3 0.7-0.7 0.7-0.4 0-0.7-0.3-0.7-0.7 0-0.4 0.3-0.7 0.7-0.7z"/>
	<path id="Layer" class="s1" d="m179.4 128.7q0 0 0 0-0.1 0-0.1 0 0-0.1 0.1-0.1 0 0 0 0.1z"/>
	<path id="Layer" class="s1" d="m172.7 128.7c0-0.2 0.1-0.3 0.3-0.3 0.1 0 0.3 0.1 0.3 0.3 0 0.1-0.2 0.3-0.3 0.3-0.2 0-0.3-0.2-0.3-0.3z"/>
	<path id="Layer" class="s1" d="m166 128.7c0-0.3 0.3-0.6 0.6-0.6 0.3 0 0.5 0.3 0.5 0.6 0 0.3-0.2 0.5-0.5 0.5-0.3 0-0.6-0.2-0.6-0.5z"/>
	<path id="Layer" class="s1" d="m159.4 128.7c0-0.4 0.4-0.8 0.8-0.8 0.4 0 0.8 0.4 0.8 0.8 0 0.4-0.4 0.8-0.8 0.8-0.4 0-0.8-0.4-0.8-0.8z"/>
	<path id="Layer" class="s1" d="m153.8 127.7c0.5 0 1 0.5 1 1 0 0.5-0.5 1-1 1-0.5 0-1-0.5-1-1 0-0.5 0.5-1 1-1z"/>
	<path id="Layer" class="s1" d="m173.1 135.1q0 0.1-0.1 0.1-0.1 0-0.1-0.1 0-0.1 0.1-0.1 0.1 0 0.1 0.1z"/>
	<path id="Layer" class="s1" d="m166.3 135.1c0-0.2 0.1-0.4 0.3-0.4 0.2 0 0.3 0.2 0.3 0.4 0 0.2-0.1 0.3-0.3 0.3-0.2 0-0.3-0.1-0.3-0.3z"/>
	<path id="Layer" class="s1" d="m159.7 135.1c0-0.3 0.2-0.6 0.5-0.6 0.3 0 0.6 0.3 0.6 0.6 0 0.3-0.3 0.5-0.6 0.5-0.3 0-0.5-0.2-0.5-0.5z"/>
	<path id="Layer" class="s1" d="m153.1 135.1c0-0.4 0.3-0.7 0.7-0.7 0.4 0 0.7 0.3 0.7 0.7 0 0.4-0.3 0.7-0.7 0.7-0.4 0-0.7-0.3-0.7-0.7z"/>
	<path id="Layer" class="s1" d="m147.4 134.2c0.5 0 0.9 0.4 0.9 0.9 0 0.5-0.4 0.9-0.9 0.9-0.5 0-0.9-0.4-0.9-0.9 0-0.5 0.4-0.9 0.9-0.9z"/>
	<path id="Layer" class="s1" d="m141 134.1c0.6 0 1 0.4 1 1 0 0.6-0.4 1-1 1-0.5 0-1-0.4-1-1 0-0.6 0.5-1 1-1z"/>
	<path id="Layer" class="s1" d="m133.6 135.1c0-0.6 0.4-1.1 1.1-1.1 0.6 0 1 0.5 1.1 1.1 0 0.6-0.5 1.1-1.1 1.1-0.7 0-1.1-0.5-1.1-1.1z"/>
	<path id="Layer" class="s1" d="m128.3 134c0.6 0 1.1 0.5 1.1 1.1 0 0.6-0.5 1.1-1.1 1.1-0.7 0-1.2-0.5-1.2-1.1 0-0.6 0.5-1.1 1.2-1.1z"/>
	<path id="Layer" class="s1" d="m121.9 134c0.6 0 1.1 0.5 1.1 1.1 0 0.6-0.5 1.1-1.1 1.1-0.6 0-1.1-0.5-1.1-1.1 0-0.6 0.5-1.1 1.1-1.1z"/>
	<path id="Layer" class="s1" d="m114.5 135.1c0-0.5 0.4-1 1-1 0.6 0 1 0.5 1 1 0 0.6-0.4 1-1 1-0.6 0-1-0.4-1-1z"/>
	<path id="Layer" class="s1" d="m108.1 135.1c0-0.4 0.3-0.8 0.8-0.9q0.1 0 0.2 0c0.5 0 0.9 0.4 0.9 0.9 0 0.5-0.4 0.9-0.9 0.9q-0.1 0-0.2 0c-0.5 0-0.8-0.4-0.8-0.9z"/>
	<path id="Layer" class="s1" d="m166.7 141.5q0 0.1-0.1 0.1-0.1 0-0.1-0.1 0-0.1 0.1-0.1 0.1 0 0.1 0.1z"/>
	<path id="Layer" class="s1" d="m159.9 141.5c0-0.2 0.1-0.3 0.3-0.3 0.2 0 0.3 0.1 0.3 0.3 0 0.1-0.1 0.3-0.3 0.3-0.2 0-0.3-0.2-0.3-0.3z"/>
	<path id="Layer" class="s1" d="m153.4 141.5c0-0.3 0.2-0.5 0.4-0.5 0.3 0 0.5 0.2 0.5 0.5 0 0.2-0.2 0.4-0.5 0.4-0.2 0-0.4-0.2-0.4-0.4z"/>
	<path id="Layer" class="s1" d="m146.8 141.5c0-0.3 0.3-0.6 0.6-0.6 0.4 0 0.6 0.3 0.6 0.6 0 0.3-0.2 0.6-0.6 0.6-0.3 0-0.6-0.3-0.6-0.6z"/>
	<path id="Layer" class="s1" d="m140.3 141.5c0-0.4 0.3-0.7 0.7-0.7 0.4 0 0.8 0.3 0.8 0.7 0 0.4-0.4 0.7-0.8 0.7-0.4 0-0.7-0.3-0.7-0.7z"/>
	<path id="Layer" class="s1" d="m133.9 141.5c0-0.4 0.3-0.8 0.8-0.8 0.4 0 0.7 0.4 0.7 0.8 0 0.4-0.3 0.8-0.7 0.8-0.5 0-0.8-0.4-0.8-0.8z"/>
	<path id="Layer" class="s1" d="m127.5 141.5c0-0.5 0.3-0.8 0.8-0.8 0.4 0 0.8 0.3 0.8 0.8 0 0.4-0.4 0.8-0.8 0.8-0.5 0-0.8-0.4-0.8-0.8z"/>
	<path id="Layer" class="s1" d="m121.1 141.5c0-0.4 0.3-0.8 0.8-0.8 0.4 0 0.8 0.4 0.8 0.8 0 0.4-0.4 0.8-0.8 0.8-0.5 0-0.8-0.4-0.8-0.8z"/>
	<path id="Layer" class="s1" d="m114.8 141.5c0-0.4 0.3-0.7 0.7-0.7 0.4 0 0.7 0.3 0.7 0.7 0 0.4-0.3 0.7-0.7 0.7-0.4 0-0.7-0.3-0.7-0.7z"/>
	<path id="Layer" class="s1" d="m160.3 147.9q0 0-0.1 0 0 0-0.1 0 0.1-0.1 0.1-0.1 0.1 0 0.1 0.1z"/>
	<path id="Layer" class="s1" d="m153.6 147.9c0-0.1 0.1-0.2 0.2-0.2 0.1 0 0.2 0.1 0.2 0.2 0 0.1-0.1 0.2-0.2 0.2-0.1 0-0.2-0.1-0.2-0.2z"/>
	<path id="Layer" class="s1" d="m147.1 147.9c0-0.2 0.2-0.3 0.3-0.3 0.2 0 0.4 0.1 0.4 0.3 0 0.1-0.2 0.3-0.4 0.3-0.1 0-0.3-0.2-0.3-0.3z"/>
	<path id="Layer" class="s1" d="m140.6 147.9c0-0.3 0.2-0.4 0.5-0.4 0.2 0 0.4 0.2 0.4 0.4 0 0.2-0.2 0.4-0.4 0.4-0.3 0-0.5-0.2-0.5-0.4z"/>
	<path id="Layer" class="s1" d="m134.2 147.9c0-0.3 0.2-0.5 0.5-0.5 0.2 0 0.4 0.2 0.4 0.5 0 0.2-0.2 0.5-0.4 0.5-0.3 0-0.5-0.3-0.5-0.5z"/>
	<path id="Layer" class="s1" d="m127.8 147.9c0-0.3 0.2-0.5 0.5-0.5 0.2 0 0.5 0.2 0.5 0.5 0 0.3-0.3 0.5-0.5 0.5-0.3 0-0.5-0.2-0.5-0.5z"/>
	<path id="Layer" class="s1" d="m121.9 148.4c-0.3 0-0.5-0.2-0.5-0.5 0-0.3 0.2-0.5 0.5-0.5 0.2 0 0.5 0.2 0.5 0.5 0 0.3-0.3 0.5-0.5 0.5z"/>
	<path id="Layer" class="s1" d="m115.1 147.9c0-0.2 0.2-0.4 0.4-0.4 0.2 0 0.4 0.2 0.4 0.4 0 0.2-0.2 0.4-0.4 0.4-0.2 0-0.4-0.2-0.4-0.4z"/>
	<path id="Layer" class="s1" d="m153.9 154.3q-0.1 0-0.1 0 0 0 0 0 0-0.1 0-0.1 0 0 0.1 0.1z"/>
	<path id="Layer" class="s1" d="m147.5 154.3q0 0-0.1 0 0 0 0 0 0-0.1 0-0.1 0.1 0 0.1 0.1z"/>
	<path id="Layer" class="s1" d="m141.2 154.3q0 0.1-0.1 0.1-0.2 0-0.2-0.1 0-0.2 0.2-0.2 0.1 0 0.1 0.2z"/>
	<path id="Layer" class="s1" d="m134.8 154.3c0 0.1 0 0.1-0.1 0.1-0.1 0-0.2 0-0.2-0.1 0-0.1 0.1-0.2 0.2-0.2 0.1 0 0.1 0.1 0.1 0.2z"/>
	<path id="Layer" class="s1" d="m128.5 154.3c0 0.1-0.1 0.2-0.2 0.2-0.1 0-0.2-0.1-0.2-0.2 0-0.1 0.1-0.2 0.2-0.2 0.1 0 0.2 0.1 0.2 0.2z"/>
	<path id="Layer" class="s1" d="m121.9 154.5c-0.1 0-0.2-0.1-0.2-0.2 0-0.1 0.1-0.2 0.2-0.2 0.1 0 0.2 0.1 0.2 0.2 0 0.1-0.1 0.2-0.2 0.2z"/>
	<path id="Layer" class="s1" d="m115.5 154.2q0.1 0 0.1 0.1 0 0.1-0.1 0.1c-0.1 0-0.1 0-0.1-0.1q0-0.1 0.1-0.1z"/>
	<path id="Layer" class="s1" d="m102.6 134.1c0.6 0 1 0.5 1 1 0 0.6-0.4 1-1 1-0.6 0-1-0.4-1-1 0-0.5 0.4-1 1-1z"/>
	<path id="Layer" class="s1" d="m76 135.2c0-0.6 0.5-1.1 1-1.1 0.6 0 1.1 0.5 1.1 1.1 0 0.5-0.5 1-1.1 1-0.5 0-1-0.5-1-1z"/>
	<path id="Layer" class="s1" d="m108.4 141.5c0-0.3 0.2-0.6 0.5-0.6q0.1 0 0.2 0c0.3 0 0.6 0.3 0.6 0.6 0 0.4-0.3 0.6-0.6 0.6q-0.1 0-0.2 0c-0.3 0-0.5-0.3-0.5-0.6z"/>
	<path id="Layer" class="s1" d="m101.9 141.5c0-0.4 0.3-0.7 0.7-0.7 0.4 0 0.7 0.3 0.7 0.7 0 0.4-0.3 0.7-0.7 0.7-0.4 0-0.7-0.3-0.7-0.7z"/>
	<path id="Layer" class="s1" d="m76.3 141.5c0-0.4 0.3-0.7 0.7-0.7 0.5 0 0.8 0.3 0.8 0.7 0 0.4-0.3 0.8-0.8 0.8-0.4 0-0.7-0.4-0.7-0.8z"/>
	<path id="Layer" class="s1" d="m108.7 147.9c0-0.2 0.1-0.3 0.3-0.3q0 0 0.1 0c0.2 0 0.3 0.1 0.3 0.3 0 0.2-0.1 0.3-0.3 0.3q-0.1 0-0.1 0c-0.2 0-0.3-0.1-0.3-0.3z"/>
	<path id="Layer" class="s1" d="m102.2 147.9c0-0.2 0.2-0.4 0.4-0.4 0.2 0 0.4 0.2 0.4 0.4 0 0.2-0.2 0.4-0.4 0.4-0.2 0-0.4-0.2-0.4-0.4z"/>
	<path id="Layer" class="s1" d="m83 147.9c0-0.2 0.2-0.5 0.4-0.5 0.3 0 0.5 0.3 0.5 0.5 0 0.3-0.2 0.5-0.5 0.5-0.2 0-0.4-0.2-0.4-0.5z"/>
	<path id="Layer" class="s1" d="m76.6 147.9c0-0.2 0.2-0.4 0.5-0.4 0.2 0 0.4 0.2 0.4 0.4 0 0.3-0.2 0.5-0.4 0.5-0.3 0-0.5-0.2-0.5-0.5z"/>
	<path id="Layer" class="s1" d="m109.1 154.3q0-0.1 0-0.1 0.1 0 0.1 0.1 0 0-0.1 0 0 0 0 0 0 0-0.1 0 0 0 0 0 0-0.1 0-0.1 0 0 0.1 0.1z"/>
	<path id="Layer" class="s1" d="m102.7 154.3q0 0.1-0.1 0.1-0.1 0-0.1-0.1 0-0.1 0.1-0.1 0.1 0 0.1 0.1z"/>
	<path id="Layer" class="s1" d="m96.2 154.1c0.1 0 0.2 0.1 0.2 0.2 0 0.1-0.1 0.2-0.2 0.2-0.1 0-0.1-0.1-0.1-0.2 0-0.1 0-0.2 0.1-0.2z"/>
	<path id="Layer" class="s1" d="m89.6 154.3c0-0.1 0.1-0.2 0.2-0.2 0.1 0 0.2 0.1 0.2 0.2 0 0.1-0.1 0.2-0.2 0.2-0.1 0-0.2-0.1-0.2-0.2z"/>
	<path id="Layer" class="s1" d="m83.6 154.3c0 0.1-0.1 0.2-0.1 0.2-0.1 0-0.2-0.1-0.2-0.2 0-0.1 0.1-0.2 0.2-0.2 0 0 0.1 0.1 0.1 0.2z"/>
	<path id="Layer" class="s1" d="m77.2 154.3q0 0.1-0.1 0.1-0.2 0-0.2-0.1 0-0.1 0.2-0.1 0.1 0 0.1 0.1z"/>
	<path id="Layer" class="s1" d="m0.3 71.3q0 0 0 0 0.1 0 0.1 0 0 0-0.1 0 0 0 0 0z"/>
	<path id="Layer" class="s1" d="m0.4 77.7q0 0.1-0.1 0.1 0 0 0-0.1 0 0 0 0 0.1 0 0.1 0z"/>
	<path id="Layer" class="s1" d="m0.4 84q0.1 0 0.1 0.1 0 0.1-0.1 0.1-0.2 0-0.2-0.1 0-0.1 0.2-0.1z"/>
	<path id="Layer" class="s1" d="m0.4 90.3c0.1 0 0.1 0.1 0.1 0.2 0 0.1 0 0.2-0.1 0.2-0.1 0-0.2-0.1-0.2-0.2 0-0.1 0.1-0.2 0.2-0.2z"/>
	<path id="Layer" class="s1" d="m0.4 96.7c0.1 0 0.2 0.1 0.2 0.2 0 0.1-0.1 0.2-0.2 0.2-0.1 0-0.2-0.1-0.2-0.2 0-0.1 0.1-0.2 0.2-0.2z"/>
	<path id="Layer" class="s1" d="m0.2 103.3c0-0.1 0.1-0.2 0.2-0.2 0.1 0 0.1 0.1 0.1 0.2 0 0.1 0 0.1-0.1 0.1-0.1 0-0.2 0-0.2-0.1z"/>
	<path id="Layer" class="s1" d="m6.8 109.2c0.2 0 0.4 0.2 0.4 0.5 0 0.2-0.2 0.4-0.4 0.4-0.3 0-0.5-0.2-0.5-0.4 0-0.3 0.2-0.5 0.5-0.5z"/>
	<path id="Layer" class="s1" d="m0.3 109.7q0-0.2 0.1-0.2 0.1 0 0.1 0.2 0 0.1-0.1 0.1-0.1 0-0.1-0.1z"/>
	<path id="Layer" class="s1" d="m6.4 116c0-0.1 0.2-0.3 0.4-0.3 0.2 0 0.3 0.2 0.3 0.3 0 0.2-0.1 0.4-0.3 0.4-0.2 0-0.4-0.2-0.4-0.4z"/>
	<path id="Layer" class="s1" d="m0.3 116q0 0 0.1 0 0 0 0 0 0 0.1 0 0.1-0.1 0-0.1-0.1z"/>
	<path id="Layer" class="s1" d="m12.7 122.4c0-0.2 0.2-0.5 0.5-0.5 0.2 0 0.5 0.3 0.5 0.5 0 0.3-0.3 0.5-0.5 0.5-0.3 0-0.5-0.2-0.5-0.5z"/>
	<path id="Layer" class="s1" d="m6.6 122.4c0-0.1 0.1-0.2 0.2-0.2 0.1 0 0.2 0.1 0.2 0.2 0 0.2-0.1 0.2-0.2 0.2-0.1 0-0.2 0-0.2-0.2z"/>
	<path id="Layer" class="s1" d="m0.4 122.4q0 0 0 0.1 0 0 0-0.1 0 0 0 0 0 0 0 0z"/>
	<path id="Layer" class="s1" d="m25.2 128.8c0-0.4 0.3-0.8 0.7-0.8 0.5 0 0.8 0.4 0.8 0.8 0 0.4-0.3 0.8-0.8 0.8-0.4 0-0.7-0.4-0.7-0.8z"/>
	<path id="Layer" class="s1" d="m19 128.8c0-0.3 0.2-0.6 0.6-0.6 0.3 0 0.5 0.3 0.5 0.6 0 0.3-0.2 0.6-0.5 0.6-0.4 0-0.6-0.3-0.6-0.6z"/>
	<path id="Layer" class="s1" d="m12.9 128.8c0-0.2 0.1-0.3 0.3-0.3 0.1 0 0.3 0.1 0.3 0.3 0 0.2-0.2 0.3-0.3 0.3-0.2 0-0.3-0.1-0.3-0.3z"/>
	<path id="Layer" class="s1" d="m6.9 128.8q-0.1 0.1-0.1 0.1-0.1 0-0.1-0.1 0 0 0.1 0 0 0 0.1 0z"/>
	<path id="Layer" class="s1" d="m70.7 134.1c0.5 0 1 0.5 1 1.1 0 0.5-0.5 1-1 1-0.6 0-1-0.5-1-1 0-0.6 0.4-1.1 1-1.1z"/>
	<path id="Layer" class="s1" d="m63.2 135.2c0-0.6 0.5-1.1 1.1-1.1 0.6 0 1.1 0.5 1.1 1.1 0 0.6-0.5 1.1-1.1 1.1-0.6 0-1.1-0.5-1.1-1.1z"/>
	<path id="Layer" class="s1" d="m57.9 134.1c0.6 0 1.1 0.5 1.1 1.1 0 0.6-0.5 1.1-1.1 1.1-0.6 0-1.1-0.5-1.1-1.1 0-0.6 0.5-1.1 1.1-1.1z"/>
	<path id="Layer" class="s1" d="m51.5 134.1c0.6 0 1.1 0.5 1.1 1.1 0 0.6-0.5 1.1-1.1 1.1-0.6 0-1.1-0.5-1.1-1.1 0-0.6 0.5-1.1 1.1-1.1z"/>
	<path id="Layer" class="s1" d="m44.1 135.2c0-0.6 0.4-1 1-1 0.6 0 1 0.4 1 1 0 0.5-0.4 1-1 1-0.6 0-1-0.5-1-1z"/>
	<path id="Layer" class="s1" d="m37.8 135.2c0-0.5 0.4-0.9 0.9-0.9 0.5 0 0.9 0.4 0.9 0.9 0 0.5-0.4 0.9-0.9 0.9-0.5 0-0.9-0.4-0.9-0.9z"/>
	<path id="Layer" class="s1" d="m31.6 135.2c0-0.4 0.3-0.8 0.7-0.8 0.5 0 0.8 0.4 0.8 0.8 0 0.4-0.3 0.7-0.8 0.7-0.4 0-0.7-0.3-0.7-0.7z"/>
	<path id="Layer" class="s1" d="m25.4 135.2c0-0.3 0.2-0.6 0.6-0.6 0.3 0 0.5 0.3 0.5 0.6 0 0.3-0.2 0.6-0.5 0.6-0.4 0-0.6-0.3-0.6-0.6z"/>
	<path id="Layer" class="s1" d="m19.2 135.2c0-0.2 0.2-0.4 0.4-0.4 0.2 0 0.3 0.2 0.3 0.4 0 0.2-0.1 0.4-0.3 0.4-0.2 0-0.4-0.2-0.4-0.4z"/>
	<path id="Layer" class="s1" d="m13.1 135.2q0-0.1 0.1-0.1 0.1 0 0.1 0.1 0 0.1-0.1 0.1-0.1 0-0.1-0.1z"/>
	<path id="Layer" class="s1" d="m70 141.5c0-0.4 0.3-0.7 0.7-0.7 0.4 0 0.7 0.3 0.7 0.7 0 0.4-0.3 0.8-0.7 0.8-0.4 0-0.7-0.4-0.7-0.8z"/>
	<path id="Layer" class="s1" d="m63.5 141.6c0-0.5 0.4-0.8 0.8-0.8 0.4 0 0.8 0.3 0.8 0.7 0 0.5-0.4 0.8-0.8 0.8-0.4 0-0.8-0.3-0.8-0.7z"/>
	<path id="Layer" class="s1" d="m57.1 141.6c0-0.5 0.4-0.9 0.8-0.9 0.5 0 0.8 0.4 0.8 0.9 0 0.4-0.3 0.8-0.8 0.8-0.4 0-0.8-0.4-0.8-0.8z"/>
	<path id="Layer" class="s1" d="m50.7 141.6c0-0.5 0.4-0.8 0.8-0.8 0.5 0 0.8 0.3 0.8 0.8 0 0.4-0.3 0.8-0.8 0.8-0.4 0-0.8-0.4-0.8-0.8z"/>
	<path id="Layer" class="s1" d="m44.4 141.6c0-0.4 0.3-0.8 0.7-0.8 0.4 0 0.8 0.4 0.8 0.8 0 0.4-0.4 0.7-0.8 0.7-0.4 0-0.7-0.3-0.7-0.7z"/>
	<path id="Layer" class="s1" d="m38.1 141.6c0-0.4 0.3-0.6 0.6-0.6 0.4 0 0.7 0.2 0.7 0.6 0 0.3-0.3 0.6-0.7 0.6-0.3 0-0.6-0.3-0.6-0.6z"/>
	<path id="Layer" class="s1" d="m31.8 141.6c0-0.3 0.3-0.5 0.5-0.5 0.3 0 0.5 0.2 0.5 0.5 0 0.3-0.2 0.5-0.5 0.5-0.2 0-0.5-0.2-0.5-0.5z"/>
	<path id="Layer" class="s1" d="m25.6 141.6c0-0.2 0.2-0.3 0.4-0.3 0.1 0 0.3 0.1 0.3 0.3 0 0.2-0.2 0.3-0.3 0.3-0.2 0-0.4-0.1-0.4-0.3z"/>
	<path id="Layer" class="s1" d="m19.7 141.6q0 0.1-0.1 0.1-0.1 0-0.2-0.1 0.1-0.1 0.2-0.1 0.1 0 0.1 0.1z"/>
	<path id="Layer" class="s1" d="m13.2 141.6q0 0 0 0 0 0 0 0 0 0 0 0 0 0 0 0z"/>
	<path id="Layer" class="s1" d="m70.3 147.9c0-0.2 0.2-0.4 0.4-0.4 0.2 0 0.4 0.2 0.4 0.4 0 0.3-0.2 0.4-0.4 0.4-0.2 0-0.4-0.1-0.4-0.4z"/>
	<path id="Layer" class="s1" d="m63.8 147.9c0-0.2 0.2-0.4 0.5-0.4 0.3 0 0.5 0.2 0.5 0.4 0 0.3-0.2 0.5-0.5 0.5-0.3 0-0.5-0.2-0.5-0.5z"/>
	<path id="Layer" class="s1" d="m57.4 147.9c0-0.2 0.2-0.5 0.5-0.5 0.3 0 0.5 0.3 0.5 0.5 0 0.3-0.2 0.5-0.5 0.5-0.3 0-0.5-0.2-0.5-0.5z"/>
	<path id="Layer" class="s1" d="m51 148c0-0.3 0.3-0.5 0.5-0.5 0.3 0 0.5 0.2 0.5 0.5 0 0.2-0.2 0.4-0.5 0.4-0.2 0-0.5-0.2-0.5-0.4z"/>
	<path id="Layer" class="s1" d="m44.7 148c0-0.3 0.2-0.5 0.4-0.5 0.3 0 0.5 0.2 0.5 0.5 0 0.2-0.2 0.4-0.5 0.4-0.2 0-0.4-0.2-0.4-0.4z"/>
	<path id="Layer" class="s1" d="m38.4 148c0-0.2 0.2-0.4 0.3-0.4 0.2 0 0.4 0.2 0.4 0.4 0 0.1-0.2 0.3-0.4 0.3-0.1 0-0.3-0.1-0.3-0.3z"/>
	<path id="Layer" class="s1" d="m32.1 148c0-0.2 0.1-0.2 0.3-0.2 0.1 0 0.2 0 0.2 0.2 0 0.1-0.1 0.2-0.2 0.2-0.2 0-0.3-0.1-0.3-0.2z"/>
	<path id="Layer" class="s1" d="m26 148q0 0 0 0-0.1 0-0.1 0 0-0.1 0.1-0.1 0 0 0 0.1z"/>
	<path id="Layer" class="s1" d="m70.8 154.3q0 0.1-0.1 0.1-0.1 0-0.1-0.1 0-0.1 0.1-0.1 0.1 0 0.1 0.1z"/>
	<path id="Layer" class="s1" d="m64.5 154.3c0 0.1-0.1 0.2-0.2 0.2-0.1 0-0.2-0.1-0.2-0.2 0-0.1 0.1-0.1 0.2-0.1 0.1 0 0.2 0 0.2 0.1z"/>
	<path id="Layer" class="s1" d="m58.1 154.3c0 0.1-0.1 0.2-0.2 0.2-0.1 0-0.2-0.1-0.2-0.2 0-0.1 0.1-0.2 0.2-0.2 0.1 0 0.2 0.1 0.2 0.2z"/>
	<path id="Layer" class="s1" d="m51.7 154.3c0 0.1-0.1 0.2-0.2 0.2-0.1 0-0.2-0.1-0.2-0.2 0-0.1 0.1-0.1 0.2-0.1 0.1 0 0.2 0 0.2 0.1z"/>
	<path id="Layer" class="s1" d="m45.3 154.3q-0.1 0.2-0.2 0.2-0.1 0-0.1-0.2 0-0.1 0.1-0.1 0.1 0 0.2 0.1z"/>
	<path id="Layer" class="s1" d="m38.8 154.4q0 0-0.1 0 0 0 0 0 0-0.1 0-0.1 0.1 0 0.1 0z"/>
	<path id="Layer" class="s1" d="m32.4 154.4q0 0 0 0-0.1 0-0.1 0 0-0.1 0.1-0.1 0 0 0 0.1z"/>
	<path id="Layer" class="s1" d="m147.3 1q0 0 0 0 0 0 0 0 0 0.1 0 0.1 0 0 0-0.1z"/>
	<path id="Layer" class="s1" d="m140.8 1q0-0.1 0.1-0.1 0.1 0 0.1 0.1 0 0.1-0.1 0.1-0.1 0-0.1-0.1z"/>
	<path id="Layer" class="s1" d="m134.4 1c0-0.1 0.1-0.1 0.1-0.1 0.1 0 0.2 0 0.2 0.1 0 0.1-0.1 0.2-0.2 0.2 0 0-0.1-0.1-0.1-0.2z"/>
	<path id="Layer" class="s1" d="m128 1c0-0.1 0.1-0.1 0.1-0.1 0.1 0 0.2 0 0.2 0.1 0 0.1-0.1 0.2-0.2 0.2 0 0-0.1-0.1-0.1-0.2z"/>
	<path id="Layer" class="s1" d="m121.6 1c0 0 0.1-0.1 0.2-0.1 0 0 0.1 0.1 0.1 0.1 0 0.1-0.1 0.2-0.1 0.2-0.1 0-0.2-0.1-0.2-0.2z"/>
	<path id="Layer" class="s1" d="m115.3 1q0-0.1 0.1-0.1 0.1 0 0.1 0.1 0 0.1-0.1 0.2-0.1-0.1-0.1-0.2z"/>
	<path id="Layer" class="s1" d="m108.9 1q0 0 0.1 0 0 0 0 0 0 0.1 0 0.1-0.1 0-0.1-0.1z"/>
	<path id="Layer" class="s1" d="m160 7.4q0-0.1 0.1-0.1 0 0 0 0.1 0 0 0 0-0.1 0-0.1 0z"/>
	<path id="Layer" class="s1" d="m153.5 7.4c0-0.1 0.1-0.2 0.2-0.2 0.1 0 0.2 0.1 0.2 0.2 0 0.1-0.1 0.2-0.2 0.2-0.1 0-0.2-0.1-0.2-0.2z"/>
	<path id="Layer" class="s1" d="m147.6 7.4c0 0.2-0.1 0.3-0.3 0.3-0.1 0-0.3-0.1-0.3-0.3 0-0.2 0.2-0.3 0.3-0.3 0.2 0 0.3 0.1 0.3 0.3z"/>
	<path id="Layer" class="s1" d="m141.3 7.4c0 0.2-0.2 0.4-0.4 0.4-0.2 0-0.4-0.2-0.4-0.4 0-0.2 0.2-0.4 0.4-0.4 0.2 0 0.4 0.2 0.4 0.4z"/>
	<path id="Layer" class="s1" d="m135 7.4c0 0.3-0.2 0.5-0.5 0.5-0.2 0-0.4-0.2-0.4-0.5 0-0.2 0.2-0.4 0.4-0.4 0.3 0 0.5 0.2 0.5 0.4z"/>
	<path id="Layer" class="s1" d="m128.6 7.4c0 0.3-0.2 0.5-0.4 0.5-0.3 0-0.5-0.2-0.5-0.5 0-0.2 0.2-0.4 0.4-0.4 0.3 0 0.5 0.2 0.5 0.4z"/>
	<path id="Layer" class="s1" d="m122.2 7.4c0 0.3-0.2 0.5-0.4 0.5-0.3 0-0.5-0.2-0.5-0.5 0-0.2 0.2-0.4 0.5-0.4 0.2 0 0.4 0.2 0.4 0.4z"/>
	<path id="Layer" class="s1" d="m115.8 7.4c0 0.2-0.2 0.4-0.4 0.4-0.2 0-0.4-0.2-0.4-0.4 0-0.2 0.2-0.4 0.4-0.4 0.2 0 0.4 0.2 0.4 0.4z"/>
	<path id="Layer" class="s1" d="m109.3 7.4c0 0.2-0.1 0.3-0.3 0.3-0.2 0-0.3-0.1-0.3-0.3 0-0.1 0.1-0.3 0.3-0.3 0.2 0 0.3 0.2 0.3 0.3z"/>
	<path id="Layer" class="s1" d="m102.4 7.4c0-0.1 0.1-0.1 0.2-0.1 0.1 0 0.2 0 0.2 0.1 0 0.1-0.1 0.2-0.2 0.2-0.1 0-0.2-0.1-0.2-0.2z"/>
	<path id="Layer" class="s1" d="m96.2 7.5q0-0.1 0-0.1 0.1 0 0.1 0.1 0 0-0.1 0 0 0 0 0z"/>
	<path id="Layer" class="s1" d="m166.4 13.8q0-0.1 0.1-0.1 0.1 0 0.1 0.1 0 0.1-0.1 0.1-0.1 0-0.1-0.1z"/>
	<path id="Layer" class="s1" d="m160.4 13.8c0 0.1-0.2 0.2-0.3 0.2-0.1 0-0.3-0.1-0.3-0.2 0-0.2 0.2-0.3 0.3-0.3 0.1 0 0.3 0.1 0.3 0.3z"/>
	<path id="Layer" class="s1" d="m172.8 20.2q0-0.1 0.1-0.1 0.1 0 0.1 0.1 0 0-0.1 0.1-0.1-0.1-0.1-0.1z"/>
	<path id="Layer" class="s1" d="m166.8 20.2c0 0.1-0.1 0.3-0.3 0.3-0.2 0-0.3-0.2-0.3-0.3 0-0.2 0.1-0.3 0.3-0.3 0.2 0 0.3 0.1 0.3 0.3z"/>
	<path id="Layer" class="s1" d="m179.2 26.5q0 0 0.1 0 0 0 0 0 0 0.1 0 0.1-0.1 0-0.1-0.1z"/>
	<path id="Layer" class="s1" d="m173.2 26.6c0 0.1-0.2 0.2-0.3 0.2-0.2 0-0.3-0.1-0.3-0.2 0-0.2 0.1-0.3 0.3-0.3 0.1 0 0.3 0.1 0.3 0.3z"/>
	<path id="Layer" class="s1" d="m179.4 32.9c0 0.1 0 0.2-0.1 0.2-0.1 0-0.2-0.1-0.2-0.2 0-0.1 0.1-0.1 0.2-0.1 0.1 0 0.1 0 0.1 0.1z"/>
	<path id="Layer" class="s1" d="m173.3 32.9c0 0.3-0.2 0.5-0.4 0.5-0.2 0-0.5-0.2-0.5-0.5 0-0.2 0.2-0.4 0.5-0.4 0.2 0 0.4 0.2 0.4 0.4z"/>
	<path id="Layer" class="s1" d="m185.6 39.3q0 0 0.1 0 0 0 0 0 0 0.1 0 0.1-0.1 0-0.1-0.1z"/>
	<path id="Layer" class="s1" d="m179.6 39.3c0 0.2-0.1 0.3-0.3 0.3-0.2 0-0.3-0.1-0.3-0.3 0-0.1 0.1-0.3 0.3-0.3 0.2 0 0.3 0.2 0.3 0.3z"/>
	<path id="Layer" class="s1" d="m172.9 39.9c-0.3 0-0.6-0.3-0.6-0.6 0-0.3 0.3-0.6 0.6-0.6 0.3 0 0.6 0.3 0.6 0.6 0 0.3-0.3 0.6-0.6 0.6z"/>
	<path id="Layer" class="s1" d="m185.8 45.7q0 0.1-0.1 0.1-0.1 0-0.1-0.1 0-0.1 0.1-0.1 0.1 0 0.1 0.1z"/>
	<path id="Layer" class="s1" d="m179.3 46.1c-0.2 0-0.4-0.2-0.4-0.4 0-0.2 0.2-0.4 0.4-0.4 0.2 0 0.4 0.2 0.4 0.4 0 0.2-0.2 0.4-0.4 0.4z"/>
	<path id="Layer" class="s1" d="m172.9 46.4c-0.4 0-0.7-0.3-0.7-0.7 0-0.4 0.3-0.7 0.7-0.7 0.4 0 0.7 0.3 0.7 0.7 0 0.4-0.3 0.7-0.7 0.7z"/>
	<path id="Layer" class="s1" d="m185.8 52.1c0 0.1 0 0.1-0.1 0.1-0.1 0-0.2 0-0.2-0.1 0-0.1 0.1-0.1 0.2-0.1 0.1 0 0.1 0 0.1 0.1z"/>
	<path id="Layer" class="s1" d="m179.3 52.5c-0.2 0-0.4-0.2-0.4-0.4 0-0.2 0.2-0.4 0.4-0.4 0.2 0 0.4 0.2 0.4 0.4 0 0.2-0.2 0.4-0.4 0.4z"/>
	<path id="Layer" class="s1" d="m185.7 58.3c0.1 0 0.2 0.1 0.2 0.2 0 0.1-0.1 0.1-0.2 0.1-0.1 0-0.2 0-0.2-0.1 0-0.1 0.1-0.2 0.2-0.2z"/>
	<path id="Layer" class="s1" d="m179.3 58.9c-0.2 0-0.5-0.2-0.5-0.4 0-0.3 0.3-0.5 0.5-0.5 0.3 0 0.5 0.2 0.5 0.5 0 0.2-0.2 0.4-0.5 0.4z"/>
	<path id="Layer" fill-rule="evenodd" class="s1" d="m5.6 42q0.3-2.8 0.8-5.6 0.5-2.8 1.1-5.6c0.5-1.8 1-3.6 1.8-5.4q0.1-0.4 0.2-0.7 0.2-0.4 0.4-0.7 0.3-0.7 0.7-1.3 0.4-0.7 0.9-1.3 0.1-0.2 0.3-0.4l0.1-0.1 0.1-0.1h0.1l0.5-0.5q0.1-0.2 0.3-0.3l0.3-0.2q0.2-0.3 0.5-0.5l0.6-0.5q0.1-0.1 0.3-0.2l0.3-0.2q1.2-0.9 2.5-1.6c0.9-0.4 1.9-0.8 2.8-1.1 0.9-0.3 1.8-0.5 2.6-0.8q1.3-0.4 2.5-0.7l0.6-0.2q0.3 0 0.6-0.1 0.6-0.1 1.2-0.2 1.2-0.2 2.4-0.4 1.2-0.2 2.4-0.3 1.2-0.2 2.4-0.3 1.3-0.1 2.5-0.2l1.2-0.1 1.2-0.1q1.2-0.1 2.4-0.2c6.4-0.4 12.8-0.7 19.2-0.8q9.7-0.3 19.3-0.3 9.6-0.1 19.2 0 9.6 0.1 19.3 0.4 9.6 0.2 19.2 0.7 2.4 0.1 4.8 0.3 1.2 0 2.4 0.1 1.2 0.1 2.5 0.3 0.3 0 0.6 0.1c0.2 0 0.5 0 0.7 0.1h0.2 0.1q0 0.1 0 0.1h0.3q0.3 0.1 0.6 0.2 1.3 0.3 2.5 0.7 0.1 0 0.3 0.1-0.1-0.2-0.1-0.3c0-0.3 0.2-0.5 0.4-0.5 0.3 0 0.5 0.2 0.5 0.5 0 0.2-0.2 0.4-0.4 0.4q0.8 0.3 1.6 0.6 1.2 0.5 2.3 1.1 2.3 1.1 4.4 2.6l0.5 0.4 0.2 0.2q0.2 0.1 0.3 0.2 0.6 0.5 1 1c0.7 0.7 1.2 1.5 1.6 2.2 0.9 1.5 1.6 3.1 2.2 4.6q0.9 2.4 1.5 4.8c0.9 3.2 1.5 6.4 2 9.6q0.8 4.8 1.2 9.6 0 0.2 0 0.3 0.1-0.1 0.3-0.1c0.4 0 0.8 0.4 0.8 0.8 0 0.4-0.4 0.8-0.8 0.8q-0.1 0-0.2-0.1 0.2 2.5 0.3 4.9c0.4 0.1 0.7 0.4 0.7 0.8 0 0.4-0.3 0.7-0.6 0.7q0.1 2.5 0.1 5c0.3 0.1 0.5 0.4 0.5 0.7 0 0.3-0.2 0.5-0.4 0.7q0 2.4 0 4.9 0 0.1 0 0.2c0.2 0.1 0.3 0.3 0.3 0.6 0 0.2-0.1 0.5-0.4 0.6q0 2.5-0.1 5.1c0.2 0 0.4 0.3 0.4 0.6q0 0 0 0 0 0 0 0.1c0 0.3-0.2 0.5-0.5 0.5q-0.1 1-0.1 2-0.1 1.6-0.2 3.1 0.1 0 0.2 0c0.4 0 0.7 0.3 0.7 0.7 0 0.3-0.3 0.6-0.7 0.6q-0.2 0-0.4-0.1 0 0.3 0 0.6-0.2 2.4-0.5 4.8-0.6 4.8-1.6 9.6c-0.6 3.2-1.4 6.4-2.4 9.6q-0.8 2.3-1.9 4.6c-0.7 1.6-1.5 3.1-2.5 4.5q-0.8 1.1-1.8 2.1-0.5 0.5-1 1l-0.2 0.1c0.3 0.2 0.6 0.5 0.6 0.9 0 0.5-0.5 1-1 1-0.5 0-0.9-0.4-1-0.9q-1.9 1.3-3.9 2.3-0.3 0.1-0.6 0.3-0.3 0.1-0.5 0.2-0.6 0.3-1.2 0.5-1.2 0.5-2.4 0.9-0.6 0.2-1.2 0.4l-0.6 0.2q-0.2 0.1-0.5 0.1l-0.8 0.2c0.6 0.1 1.1 0.6 1.1 1.2 0 0.6-0.5 1.2-1.2 1.2-0.6 0-1.1-0.6-1.1-1.2 0-0.4 0.1-0.7 0.4-0.9h-0.3q-0.3 0.1-0.6 0.2-1.7 0.4-3.5 0.7c0 0.7-0.6 1.3-1.3 1.3-0.5 0-1-0.4-1.2-0.9q-0.6 0.1-1.2 0.2l-2.5 0.3q-0.2 0.1-0.5 0.1c-0.2 0.2-0.6 0.4-1 0.4q-0.4 0-0.7-0.2-3.7 0.4-7.4 0.7l-2.4 0.1-0.7 0.1h-0.6l-1.2 0.1q-2.4 0.1-4.8 0.2-9 0.4-18 0.4-0.3 0.6-0.6 1.3-0.4 1.3-0.6 2.5c-0.3 1.8-0.2 3.5 0.2 5.3q0.1 0.6 0.3 1.3 0.2 0.6 0.4 1.2 0.3 0.7 0.6 1.3l0.1 0.3q0.1 0.1 0.1 0.3 0.1 0.2 0.1 0.3 0.2 0.7 0.2 1.5-0.1 0.7-0.4 1.4-0.3 0.6-0.8 1.1c-0.6 0.7-1.5 1.2-2.4 1.3q-0.8 0.1-1.5-0.1-0.2 0-0.3-0.1-0.2 0-0.4-0.1-0.1 0-0.3-0.1l-0.1-0.1h-0.1v-0.1l-0.7-0.4q-0.4-0.2-0.7-0.4-0.8-0.5-1.6-1.1c-0.1 0.2-0.2 0.3-0.5 0.3-0.2 0-0.5-0.2-0.5-0.5 0-0.2 0.1-0.3 0.3-0.4q-1.4-1.1-2.6-2.2-1.6-1.6-3-3.2-0.2 0.2-0.6 0.2c-0.4 0-0.8-0.3-0.8-0.8 0-0.2 0.2-0.5 0.4-0.6q-0.1-0.2-0.2-0.3c-2.3-2.9-4.2-6.1-5.8-9.5q-10.6-0.3-21.1-0.8-1.9-0.1-3.8-0.3-0.3 0.2-0.6 0.2-0.4 0-0.7-0.2-2.4-0.2-4.7-0.3c-0.3 0.2-0.6 0.4-1 0.4-0.4 0-0.8-0.2-1.1-0.6q-2.1-0.1-4.2-0.3c-0.1 0.5-0.6 0.8-1.1 0.8-0.5 0-1-0.4-1.1-1q-2-0.1-4-0.3-0.1 0-0.3 0 0 0 0 0.1c0 0.5-0.4 1-1 1-0.5 0-0.9-0.5-0.9-1q0-0.2 0-0.3-1.7-0.2-3.4-0.4-0.7-0.1-1.4-0.2l-0.7-0.1-0.4-0.1q-0.2 0-0.4-0.1h-0.4q-0.2-0.1-0.4-0.2h-0.1-0.1l-0.2-0.1q-0.1 0-0.3-0.1-0.4-0.1-0.7-0.2-0.4-0.1-0.7-0.3c-1.9-0.7-3.6-1.7-5.2-2.9q-1.2-0.8-2.3-1.8l-0.3-0.2-0.3-0.3-0.5-0.5q-0.6-0.6-1.1-1.2-0.5-0.6-0.9-1.3-0.4-0.6-0.8-1.3-0.6-1.3-1.2-2.7c-0.7-1.8-1.2-3.6-1.7-5.5q-0.7-2.6-1.2-5.3c-0.2 0-0.4-0.2-0.4-0.4 0-0.2 0.1-0.4 0.3-0.5q-0.5-2.4-0.8-4.9-0.8-5.6-1.2-11.2-0.4-5.6-0.5-11.2-0.3-11.2 0.4-22.4 0.4-5.6 1.1-11.1zm1.3 29.2q0 0.1 0 0.2 0 2 0.1 4 0.2 5.6 0.6 11.1 0.4 5.5 1.2 11 0.4 2.7 0.9 5.4 0.6 2.7 1.3 5.3c0.4 1.8 1 3.5 1.6 5.1q0.5 1.3 1.1 2.4 0.3 0.6 0.6 1.1 0.4 0.5 0.7 1 0.4 0.5 0.8 0.8l0.5 0.5 0.2 0.2 0.3 0.2q1 0.9 2.1 1.6 0.4 0.3 0.8 0.6 0.2 0.1 0.4 0.3 1.6 0.9 3.3 1.6 0.3 0.1 0.6 0.2 0.3 0.1 0.6 0.2 0.2 0.1 0.3 0.1l0.2 0.1h0.1l0.3 0.1h0.3q0.1 0 0.3 0.1h0.3l0.7 0.1q0.6 0.1 1.3 0.2 2.7 0.3 5.5 0.5 5.5 0.5 11.1 0.8 5.5 0.4 11 0.6 11.2 0.5 22.3 0.7l1.2 0.1 0.5 1.1q1.2 2.6 2.6 5 0.2 0.3 0.4 0.6 0.6 1 1.2 1.8 0.8 1.2 1.7 2.3 1.5 1.9 3.1 3.6 0.3 0.2 0.6 0.5 0.1 0.1 0.1 0.1 2.1 2 4.4 3.5 0.3 0.2 0.6 0.4l0.6 0.3q0 0 0 0.1 0.1 0 0.1 0 0 0 0 0 0 0 0 0 0 0 0 0 0.1 0 0.2-0.1 0 0 0-0.1 0 0 0 0 0 0 0 0 0 0 0 0 0-0.1 0-0.1l-0.2-0.3q-0.3-0.8-0.6-1.5-0.3-0.8-0.5-1.6-0.3-0.8-0.4-1.6c-0.5-2.1-0.6-4.4-0.3-6.6q0.2-1.7 0.8-3.3 0.3-0.9 0.7-1.8 0.3-0.6 0.6-1.2l0.6-1.1h0.4 0.8c6.4 0 12.8-0.1 19.1-0.4q2.4-0.1 4.8-0.2l1.2-0.1h0.6 0.6l2.4-0.2q4.7-0.3 9.4-0.9c3.2-0.4 6.3-0.9 9.3-1.6q0.3 0 0.6-0.1l0.5-0.1 0.7-0.2 0.4-0.1q0.3-0.1 0.6-0.2l0.5-0.2q0.3 0 0.5-0.1 0.3-0.1 0.6-0.2 1.1-0.4 2.2-0.8 0.5-0.2 1-0.4 0.3-0.2 0.5-0.3 0.3-0.1 0.5-0.2 2.1-1 3.9-2.3l0.4-0.3 0.1-0.1 0.1-0.1 0.2-0.1q0.4-0.3 0.8-0.7 0.2-0.3 0.5-0.6 0.4-0.5 0.8-1 0.3-0.4 0.6-0.9 0.9-1.4 1.6-2.9 0.9-2.1 1.7-4.3 0.7-2.2 1.3-4.5 0.1-0.4 0.2-0.8 0.5-1.9 0.9-3.8 0.1-0.4 0.2-0.9 0.2-1 0.3-2 0.6-3.2 1-6.4c0.8-6.3 1.2-12.6 1.4-18.9 0.1-6.4 0-12.7-0.5-19q-0.4-4.8-1.1-9.5c-0.4-2.8-0.9-5.6-1.6-8.4q-0.1-0.4-0.2-0.8-0.1-0.2-0.1-0.3-0.6-2.1-1.3-4.1c-0.5-1.5-1.1-2.9-1.9-4.1q-0.5-0.9-1.2-1.7-0.3-0.4-0.7-0.7-0.1-0.1-0.2-0.2l-0.6-0.5q-1.8-1.3-3.8-2.4-1.1-0.5-2.1-0.9-1.1-0.4-2.1-0.8-1.1-0.4-2.2-0.6-0.3-0.1-0.6-0.2l-0.3-0.1q0 0-0.1 0h-0.1c-0.2 0-0.4-0.1-0.5-0.1q-0.3 0-0.6-0.1-1.1-0.1-2.3-0.2-1.2-0.1-2.4-0.2-2.4-0.2-4.8-0.4-8-0.4-16.1-0.7-0.3 0-0.7 0-1.2-0.1-2.3-0.1-1.6 0-3.2-0.1-0.5 0-1 0-2.7-0.1-5.4-0.2-0.5 0-1 0-2.7-0.1-5.5-0.1-0.4 0-0.8 0-1.2 0-2.3-0.1-1.7 0-3.4 0-0.3 0-0.6 0-3-0.1-6-0.1-0.1 0-0.2 0-14.1-0.1-28.2 0.2-4.8 0.1-9.6 0.3-4.8 0.2-9.5 0.5-1.2 0.1-2.4 0.2l-1.2 0.1-1.2 0.1q-1.2 0.1-2.4 0.2-1.2 0.1-2.3 0.3-1.2 0.1-2.4 0.3l-1.2 0.1q-0.5 0.1-1.1 0.2-0.6 0.1-1.2 0.3-0.3 0-0.5 0.1l-0.6 0.1q-1.1 0.3-2.2 0.6c-0.9 0.3-1.8 0.6-2.6 0.9q-1.3 0.4-2.5 0.9-1.1 0.6-2.1 1.4l-0.3 0.2q-0.1 0.1-0.3 0.2l-0.5 0.4q-0.2 0.2-0.5 0.4l-0.2 0.2q-0.1 0.1-0.3 0.3l-0.5 0.4v0.1h-0.1l-0.1 0.1q0 0.1-0.1 0.2-0.4 0.4-0.7 1-0.3 0.5-0.6 1.1-0.2 0.3-0.3 0.6-0.1 0.3-0.2 0.6-0.5 1.2-0.9 2.5-0.4 1.3-0.7 2.6c-0.9 3.5-1.5 7.2-1.9 10.8q-0.7 5.5-1 11-0.5 9-0.4 17.9z"/>
	<path id="Layer" class="s1" d="m185.7 64.7c0.1 0 0.1 0.1 0.1 0.2 0 0.1 0 0.1-0.1 0.1-0.1 0-0.1 0-0.1-0.1 0-0.1 0-0.2 0.1-0.2z"/>
	<path id="Layer" class="s1" d="m179.3 64.4c0.3 0 0.5 0.2 0.5 0.5 0 0.2-0.2 0.4-0.5 0.4-0.2 0-0.4-0.2-0.4-0.4 0-0.3 0.2-0.5 0.4-0.5z"/>
	<path id="Layer" class="s1" d="m185.7 71.2q0.1 0 0.1 0.1 0 0.1-0.1 0.1-0.1 0-0.1-0.1 0-0.1 0.1-0.1z"/>
	<path id="Layer" class="s1" d="m179.3 70.9c0.2 0 0.4 0.1 0.4 0.4 0 0.2-0.2 0.4-0.4 0.4-0.2 0-0.4-0.2-0.4-0.4 0-0.3 0.2-0.4 0.4-0.4z"/>
	<path id="Layer" class="s1" d="m185.8 77.7q0 0-0.1 0 0 0 0 0 0-0.1 0-0.1 0.1 0 0.1 0.1z"/>
	<path id="Layer" class="s1" d="m179.3 78c-0.1 0-0.3-0.2-0.3-0.3q0-0.1 0-0.1 0 0 0 0c0-0.2 0.2-0.3 0.3-0.3 0.2 0 0.3 0.1 0.3 0.3q0 0 0 0 0 0 0 0.1c0 0.1-0.1 0.3-0.3 0.3z"/>
	<path id="Layer" class="s1" d="m45.1 7c-26.7 0.3-42.8 5.4-44.5 34.5-2.5-25.4 9.2-37.7 44.5-34.5z"/>
	<path id="Layer" fill-rule="evenodd" class="s2" d="m123.5 32.5c0.1 0 0.6 0.2 1 0.5 0.5 0.3 2.9 1.6 5.5 3 5.2 2.8 7.1 3.9 7.2 4 0.1 0.1-0.5 0.4-5.8 2.9l-3.1 1.5c-0.3 0.1-0.6 0.1-0.9-0.1l-1.7-0.9-1.7-0.9c-0.3-0.2-0.7-0.2-1 0l-1.5 0.8c-1.1 0.6-2.1 1.1-2.2 1.1-0.3 0-8.9-4.5-8.9-4.7 0-0.1 2.9-1.7 6.5-3.7 3.6-1.9 6.6-3.5 6.6-3.5zm-18.2 10c0.2 0 4.3 2.1 9.2 4.7 6.4 3.5 8.8 4.8 8.6 4.9-0.2 0.2-1.2 0.7-2.3 1.2-1.1 0.5-2.4 1.1-3 1.4q-1 0.5-2.1 1l-0.7 0.3c-0.2 0.1-0.6 0.1-0.9 0l-2.1-1.2q-2.2-1.3-4.4-2.5l-0.5-0.3c-0.7-0.4-1.5 0.1-1.5 0.9v6.9c0 0.4-0.2 0.7-0.6 0.9l-3.3 1.6c-2.2 1-4.1 1.8-4.1 1.8-0.1 0-0.1-4-0.1-8.8v-8.2c0-0.4 0.2-0.7 0.5-0.9l3.2-1.7c2-1.1 3.9-2 4.1-2zm37.3 0.4c0.1 0 1.7 0.8 3.6 1.8l2.8 1.5c0.3 0.2 0.5 0.5 0.5 0.9v4.6l-0.1 4.7c0 0.3-0.2 0.7-0.5 0.8l-1.9 0.9c-1.3 0.6-4.9 2.3-8 3.8q-5.3 2.5-10.6 5c-8 3.8-11.6 5.5-16.5 7.7-2.5 1.2-4.5 2.2-4.5 2.3 0 0 0.2 0.2 0.4 0.2 0.1 0.1 1 0.6 1.9 1.1 0.9 0.5 2 1.2 2.6 1.6 0.6 0.3 1.1 0.6 1.1 0.7 0 0-2.1 1.1-4.7 2.3l-4.1 1.9c-0.3 0.2-0.6 0.2-0.9 0l-2.9-1.5-2.8-1.5c-0.3-0.2-0.5-0.5-0.5-0.9v-4.6c0.1-4.3 0.1-5.2 0.4-5.3 0.2-0.2 2-1 8.6-4.1 0.3-0.2 3.2-1.6 6.5-3.1l12.8-6c3.8-1.8 8.4-4 10.3-4.9 1.8-0.8 3.3-1.6 3.3-1.6 0-0.1-1.4-1-3.1-2-1.7-0.9-3.1-1.8-3.1-1.9 0 0 2.1-1 4.7-2.2 2.5-1.2 4.6-2.2 4.7-2.2zm7 20.6c0.2 0 0.2 17.2 0 17.5-0.1 0.1-1.9 1.2-4 2.3l-3.3 1.8c-0.3 0.2-0.7 0.2-1 0l-8.4-4.6c-5-2.6-8.9-4.9-8.8-5 0 0 1.7-0.8 3.7-1.7 1.9-0.9 3.8-1.8 4.1-2 0.6-0.2 0.7-0.2 3 1.1 3.2 1.8 6.3 3.5 6.5 3.5 0.1 0 0.2-2.1 0.2-4.6l0.1-4c0-0.3 0.2-0.7 0.5-0.9l1.2-0.5c0.9-0.4 2.2-1.1 2.9-1.4 0.7-0.3 1.7-0.8 2.2-1 0.5-0.3 1-0.5 1.1-0.5zm-21.1 20.2c0.3-0.1 0.6-0.1 0.9 0l3.7 2c2.3 1.2 4.2 2.2 4.2 2.2 0.1 0.1-1.7 1-4 2.2-2.3 1.1-5.4 2.7-6.9 3.5l-2.4 1.2c-0.3 0.2-0.6 0.2-0.9 0l-6.2-3.2c-5.7-3-7.2-3.9-6.3-3.9 0.1 0 1.9-0.9 4-1.9 2.1-1 4-1.9 4.2-2 0.3-0.1 1 0.2 2.6 1 2.4 1.2 2 1.2 4 0.3q1-0.5 2-0.9z"/>
	<g id="Clip-Path" clip-path="url(#cp1)">
		<path id="Layer" fill-rule="evenodd" class="s3" d="m112.8 39.4q-0.2 0.2-0.5 0.3c0.8 0.4 1.9 1 2.9 1.5 1.1 0.6 2.2 1.2 3 1.6q0.7 0.3 1 0.5 0.1 0 0.1 0 0.1-0.1 0.3-0.1c0.4-0.2 0.9-0.5 1.4-0.8l1.6-0.8c0.5-0.3 1.3-0.3 1.8 0l1.7 0.9-0.4 0.9-0.5 0.8 0.9-1.7 1.8 0.9 3.1-1.4c2-0.9 3.3-1.6 4.2-2q-0.1 0-0.2-0.1c-1.1-0.6-2.9-1.6-5.5-3-2.5-1.4-5-2.8-5.5-3.1q-0.2-0.1-0.4-0.2-0.1 0-0.2 0.1-0.5 0.2-1.4 0.7c-1.2 0.7-2.8 1.5-4.6 2.5-1.8 1-3.4 1.9-4.6 2.5zm12.2-7.3c0.5 0.3 2.9 1.6 5.4 3 2.6 1.4 4.4 2.4 5.6 3.1q0.8 0.4 1.3 0.7 0.2 0.1 0.3 0.2 0.1 0 0.1 0.1c0 0 0.1 0.1 0.2 0.1 0.2 0.2 0.3 0.5 0.3 0.8 0 0.3-0.2 0.5-0.2 0.6-0.2 0.2-0.3 0.3-0.4 0.3q-0.2 0.2-0.8 0.5c-0.8 0.4-2.3 1.1-5 2.3l-3.1 1.5c-0.6 0.2-1.2 0.2-1.8-0.1l-1.7-0.9-1.7-0.9-1.5 0.8c-0.6 0.3-1.1 0.6-1.5 0.8q-0.3 0.1-0.6 0.2-0.1 0.1-0.2 0.1c0 0-0.2 0.1-0.4 0.1-0.1 0-0.2 0-0.3 0q0-0.1-0.1-0.1-0.1 0-0.1 0-0.2-0.1-0.4-0.2-0.4-0.2-1.1-0.5c-0.8-0.5-2-1-3-1.6-1.1-0.6-2.2-1.2-3.1-1.6q-0.6-0.4-1-0.6-0.1-0.1-0.3-0.2 0 0-0.1-0.1-0.1-0.1-0.2-0.1 0-0.1-0.1-0.2c0-0.1-0.1-0.3-0.1-0.5 0-0.2 0.1-0.4 0.1-0.5q0.1-0.1 0.1-0.1 0.1-0.1 0.1-0.2 0.1 0 0.1-0.1 0.1 0 0.2-0.1 0.1-0.1 0.4-0.2 0.5-0.3 1.4-0.8c1.2-0.7 2.8-1.6 4.6-2.5 1.8-1 3.5-1.9 4.7-2.5q0.9-0.5 1.4-0.8 0.3-0.1 0.4-0.2 0.1-0.1 0.2-0.1 0 0 0.1 0 0 0 0-0.1c0 0 0.1 0 0.3 0 0.2 0 0.3 0 0.4 0q0.1 0.1 0.1 0.1 0.2 0.1 0.3 0.1 0.4 0.2 0.7 0.4zm-5.8 11.3q0 0 0 0l0.1 1v-0.4zm17.2-2.6l0.5-0.5-0.5 0.5q0 0 0 0zm0.7-0.7l-0.7 0.7 0.7-0.7-0.2 0.2zm-39.7 5.3l3.2-1.7c1-0.5 2-1 2.8-1.4q0.5-0.3 0.9-0.5 0.2-0.1 0.3-0.1 0.1 0 0.2-0.1c0 0 0.2 0 0.3 0 0.2 0 0.3 0 0.3 0q0.1 0 0.2 0.1 0.1 0 0.2 0.1 0.2 0.1 0.6 0.2 0.8 0.4 2.1 1.1c1.6 0.8 3.9 2 6.3 3.3 3.3 1.7 5.5 2.9 6.8 3.7q1.1 0.6 1.6 1 0.2 0.1 0.4 0.3c0.1 0.1 0.2 0.2 0.3 0.4 0 0.1 0.1 0.3 0 0.6 0 0.2-0.1 0.5-0.3 0.6l-1.3-1.5q0 0 0 0l1.3 1.5c-0.1 0.1-0.3 0.2-0.4 0.3q-0.3 0.1-0.6 0.3c-0.4 0.2-0.9 0.4-1.5 0.7-1.1 0.5-2.4 1.1-2.9 1.4l-0.5-0.9 0.5 0.9q-1.1 0.5-2.2 1l-0.8-1.7 0.4 0.8 0.4 0.9-0.6 0.3c-0.6 0.3-1.3 0.3-1.9-0.1l-2.1-1.1q-2.2-1.3-4.5-2.6l0.1-0.1-0.1 0.1 0.5-0.9-0.5 0.9-0.4-0.2v6.9c0 0.8-0.5 1.5-1.2 1.8l-3.3 1.6c-1.1 0.5-2.1 0.9-2.9 1.3q-0.5 0.2-0.9 0.4-0.2 0-0.3 0.1 0 0-0.1 0 0 0 0 0.1-0.1 0-0.1 0-0.1 0-0.2 0c-0.4 0-0.7-0.2-0.8-0.3q-0.1-0.2-0.1-0.3-0.1-0.1-0.1-0.2 0-0.1 0-0.1-0.1-0.1-0.1-0.2 0-0.2 0-0.6 0-0.7 0-1.9c0-1.6 0-3.8 0-6.2v-8.2c0-0.7 0.4-1.4 1-1.8zm7.1 7.6c0-1.6 1.7-2.5 3-1.8l0.4 0.3q2.3 1.2 4.5 2.5l2.1 1.2 0.7-0.3q1-0.5 2.1-1c0.5-0.3 1.9-0.9 3-1.4q0.4-0.2 0.7-0.4-0.1-0.1-0.4-0.2c-1.3-0.8-3.5-2-6.7-3.7-2.5-1.3-4.7-2.5-6.4-3.4q-1.2-0.6-2-1-0.2-0.1-0.4-0.2 0 0.1 0 0.1-0.3 0.1-0.8 0.4c-0.8 0.3-1.7 0.8-2.7 1.4l-3.2 1.7v8.2c0 2.4 0 4.6 0 6.2q0 0.6 0 1.1c0.7-0.3 1.7-0.8 2.7-1.2l3.4-1.6zm30.6-5.4q0.7 0.4 1.6 0.9c0.9 0.5 1.6 1 2.2 1.3q0.4 0.3 0.7 0.5 0.1 0 0.2 0.1 0.1 0.1 0.2 0.1 0 0.1 0.1 0.2 0 0 0.1 0.1c0 0.1 0.1 0.3 0.1 0.5 0 0.2-0.1 0.4-0.1 0.5q-0.1 0.1-0.2 0.1-0.1 0.1-0.1 0.2-0.1 0-0.1 0.1-0.2 0-0.3 0.1-0.3 0.2-0.7 0.4c-0.7 0.3-1.5 0.7-2.4 1.2-1.9 0.8-6.5 3-10.3 4.8l-12.8 6c-3.2 1.6-6.2 2.9-6.5 3.1l-0.4-0.9-0.4-0.9 0.8 1.8c-3.3 1.5-5.4 2.5-6.7 3.1q-0.9 0.5-1.4 0.7-0.1 0.1-0.2 0.1 0 0.2 0 0.5c-0.1 0.7-0.1 2-0.1 4.2l-0.1 4.5 2.8 1.5 2.9 1.5 4.2-1.9c1.2-0.6 2.3-1.1 3.1-1.5-0.7-0.4-1.6-0.9-2.2-1.3l0.9-1.6-0.4 0.7-0.5 0.9h-0.1c-0.4-0.3-0.8-0.5-1.1-0.7q-0.3-0.2-0.5-0.3c-0.1 0-0.1 0-0.1 0q-0.3-0.1-0.5-0.3-0.1-0.1-0.3-0.2c-0.1-0.1-0.2-0.4-0.2-0.8 0-0.2 0.1-0.4 0.2-0.5q0-0.1 0.1-0.1 0.1-0.1 0.1-0.1 0.1-0.1 0.2-0.1 0.1-0.1 0.3-0.2 0.4-0.2 1-0.5c0.8-0.4 1.9-1 3.2-1.6 4.8-2.2 8.5-3.9 16.4-7.7q5.3-2.5 10.7-5l0.4 0.9-0.4-0.8 0.4 0.8-0.4-0.9c3.1-1.4 6.7-3.1 8-3.8l1.8-0.8 0.1-4.7v-4.6l-2.8-1.5c-1-0.5-1.8-1-2.4-1.3q-0.4-0.2-0.7-0.3 0 0 0 0-0.4 0.2-1 0.5c-0.9 0.3-2.1 0.9-3.3 1.5-1.2 0.5-2.3 1.1-3.1 1.5zm-25 29.9c0.9 0.5 2 1.2 2.6 1.5l-0.5 0.9 0.4-0.8-0.4 0.8 0.5-0.9q0.5 0.2 0.8 0.5 0.2 0.1 0.3 0.2 0.1 0.1 0.2 0.2 0 0.1 0.1 0.2c0.1 0.1 0.1 0.2 0.1 0.5 0 0.2-0.1 0.4-0.1 0.5q-0.1 0.1-0.1 0.2-0.1 0.1-0.2 0.1-0.1 0.1-0.1 0.1-0.2 0.1-0.3 0.2-0.4 0.2-1.1 0.5c-0.8 0.4-2 1-3.2 1.6l-4.2 2c-0.6 0.2-1.2 0.2-1.8-0.1l-2.9-1.5-2.8-1.5c-0.6-0.4-1.1-1.1-1.1-1.8l0.1-4.6c0-2.1 0-3.5 0.1-4.3q0-0.6 0.1-1c0.1-0.2 0.2-0.6 0.6-0.9l0.5 0.9 0.1 0.1-0.6-1c0.2-0.1 0.8-0.4 2.1-1 1.3-0.6 3.4-1.6 6.7-3.1 0.3-0.2 3.2-1.6 6.4-3.1l12.8-6c3.9-1.8 8.5-4 10.3-4.8q1-0.5 1.8-0.9-0.7-0.4-1.6-1c-0.9-0.5-1.6-0.9-2.2-1.3q-0.4-0.3-0.7-0.4-0.1-0.1-0.2-0.2-0.1 0-0.1-0.1-0.1 0-0.2-0.1 0-0.1-0.1-0.2c0-0.1-0.1-0.2-0.1-0.5l1 0.1-1-0.1c0-0.3 0.2-0.5 0.2-0.5q0.1-0.2 0.2-0.2 0-0.1 0.1-0.1 0.1 0 0.1-0.1 0.1 0 0.3-0.1 0.4-0.2 1-0.6c0.9-0.4 2-0.9 3.3-1.5 1.3-0.6 2.5-1.2 3.3-1.6q0.7-0.3 1.1-0.4 0.2-0.1 0.3-0.2 0.1 0 0.1 0 0.1 0 0.1 0 0-0.1 0.1-0.1 0 0 0.2 0c0.1 0 0.3 0 0.3 0q0.1 0.1 0.1 0.1 0.1 0 0.1 0 0.1 0.1 0.3 0.1 0.3 0.2 0.8 0.4c0.6 0.4 1.5 0.8 2.4 1.3l2.9 1.5c0.6 0.4 1 1.1 1 1.8v4.7l-0.1 4.6c0 0.7-0.4 1.4-1.1 1.8l-1.8 0.8c-1.4 0.7-5 2.4-8.1 3.8q-5.3 2.5-10.6 5c-7.9 3.8-11.6 5.5-16.5 7.7-1.1 0.6-2.1 1-2.9 1.4q0.4 0.2 0.8 0.5zm-2.1-1.2l-0.3 0.7zm-9.7-4.4q0 0 0 0 0 0 0 0zm44.3-27.9q0 0 0 0v-1 0.2 0.8-0.8 0.8q0 0 0 0zm1.1 23.4l-1.1 0.6v4l-1-0.1h0.3-0.3l1 0.1c0 1.2-0.1 2.4-0.1 3.2q0 0.7-0.1 1.1 0 0.1 0 0.3 0 0.1-0.1 0.2c0 0.1 0 0.2-0.1 0.3-0.1 0.1-0.4 0.5-1 0.4l0.2-1-0.2 1c-0.1 0-0.3-0.1-0.3-0.1q-0.1 0-0.1-0.1-0.2-0.1-0.5-0.2-0.6-0.3-1.5-0.8c-1.3-0.6-2.9-1.5-4.4-2.4-1.2-0.7-1.8-0.9-2-1.1q-0.1 0-0.1 0 0 0 0 0.1c-0.3 0.1-2.2 1-4.2 1.9-0.7 0.4-1.4 0.7-2 1q0.4 0.2 0.9 0.5c1.6 0.9 3.8 2.1 6.3 3.5l8.4 4.5 3.4-1.8c1-0.5 2-1.1 2.7-1.5q0.5-0.2 0.8-0.4 0-0.2 0-0.3 0-0.8 0-2c0-1.7 0.1-3.9 0.1-6 0-2.2-0.1-4.4-0.1-6q0-0.6 0-1.2c-0.5 0.3-1.3 0.7-1.9 1-0.7 0.3-2 0.9-3 1.3l-0.4-0.9 0.4 0.9zm-12.3 3.6v0.1l0.4 0.8-0.4-0.9c0.1-0.1 0.4-0.2 0.7-0.2 0.3-0.1 0.6 0 0.9 0.1 0.5 0.2 1.2 0.5 2.3 1.2l-0.5 0.8 0.4-0.7-0.4 0.7 0.5-0.8c1.6 0.9 3.2 1.7 4.4 2.4q0.4 0.2 0.8 0.4c0-0.8 0-1.9 0-3l0.1-4c0-0.8 0.4-1.5 1.1-1.8l1.1-0.5c1-0.5 2.3-1.1 3-1.4 0.7-0.4 1.7-0.8 2.2-1.1q0.4-0.2 0.7-0.3 0.1-0.1 0.3-0.1 0-0.1 0.1-0.1c0 0 0.1 0 0.2-0.1 0.6 0 0.9 0.3 1 0.4 0.1 0.2 0.1 0.3 0.1 0.3q0.1 0.2 0.1 0.2 0 0.1 0 0.2 0 0.3 0 0.6c0 0.5 0.1 1.2 0.1 2 0 1.6 0 3.8 0 6 0 2.1 0 4.3 0 6 0 0.8 0 1.5-0.1 2q0 0.4 0 0.7 0 0.1 0 0.2 0 0.1 0 0.1c0 0-0.1 0.2-0.2 0.4-0.1 0.1-0.2 0.2-0.2 0.3q-0.1 0-0.1 0.1-0.2 0-0.3 0.1-0.4 0.3-0.9 0.6c-0.8 0.4-1.8 1-2.8 1.5l-3.4 1.8c-0.5 0.3-1.3 0.3-1.9 0l-8.4-4.6c-2.5-1.3-4.7-2.5-6.3-3.4q-1.2-0.7-1.9-1.1-0.3-0.2-0.5-0.3-0.1-0.1-0.2-0.2-0.1 0-0.2-0.2c0 0-0.1-0.1-0.2-0.3-0.1-0.2-0.1-0.7 0.3-1l0.7 0.7 0.5 0.5-1.2-1.2c0.1-0.1 0.2-0.2 0.2-0.2q0 0 0.1 0 0.1-0.1 0.2-0.2 0.4-0.1 0.9-0.4c0.7-0.3 1.6-0.7 2.6-1.2 1.9-0.9 3.8-1.8 4.1-1.9zm9.9 5.4l-0.1 1zm-9-3.7q-0.1 0-0.1 0 0 0 0 0c0.1 0 0.1 0 0.1 0zm16.8 8.1l-0.5-0.3q0 0 0 0l0.8 0.5-0.3-0.2 0.2 0.2-0.7-0.5zm-22.2 2.6l0.8 1.8q-1 0.4-2 0.8c-0.5 0.2-0.9 0.4-1.2 0.6-0.3 0.1-0.7 0.2-1.2 0.2-0.4-0.1-0.7-0.2-1.1-0.4q-0.5-0.2-1.4-0.7c-0.8-0.4-1.3-0.6-1.6-0.8q-0.2 0-0.2 0-0.2 0-0.3 0.1-0.4 0.2-1 0.4c-0.7 0.4-1.8 0.9-2.8 1.4-1 0.5-2 0.9-2.7 1.2 1 0.6 2.6 1.5 5 2.7l6.2 3.3 2.4-1.2c1.5-0.8 4.6-2.4 6.9-3.6l0.9 1.8-0.4-0.9-0.5-0.9c0.9-0.4 1.8-0.9 2.4-1.2-0.7-0.4-1.6-0.9-2.6-1.4l-3.7-2-1.1 0.6-0.4-1zm-0.2 11.2l-2.4 1.2c-0.6 0.3-1.3 0.3-1.8 0l-6.3-3.3c-2.8-1.5-4.6-2.5-5.6-3.1q-0.4-0.2-0.7-0.4c-0.1-0.1-0.3-0.3-0.5-0.5 0-0.1-0.2-0.2-0.2-0.5-0.1-0.3 0.1-0.7 0.3-1 0.2-0.2 0.5-0.2 0.6-0.2q0.1-0.1 0.1-0.1 0.1 0 0.2 0 0.3-0.2 0.9-0.4c0.7-0.3 1.7-0.8 2.7-1.3 2.1-1 4.1-1.9 4.3-2 0.3-0.1 0.6-0.1 0.8-0.1q0.4 0.1 0.7 0.2 0.7 0.3 1.9 0.9c0.6 0.3 1 0.5 1.3 0.7 0.3 0.1 0.4 0.1 0.5 0.1 0 0 0 0 0.2-0.1 0.3-0.1 0.6-0.2 1.1-0.4l0.4 0.9-0.1-0.3 0.1 0.2-0.4-0.8q1-0.5 2-0.9l1.2-0.6c0.5-0.2 1.2-0.2 1.7 0.1l3.7 2c1.2 0.6 2.2 1.1 3 1.5q0.6 0.3 0.9 0.5 0.2 0.1 0.3 0.2 0 0 0.1 0 0 0 0 0.1 0 0 0.1 0c0 0 0.1 0 0.1 0.1l-0.7 0.7 0.7-0.7c0.4 0.4 0.3 0.9 0.2 1 0 0.2-0.1 0.3-0.1 0.4q-0.2 0.1-0.2 0.1-0.1 0.1-0.1 0.1-0.2 0.1-0.3 0.2-0.3 0.2-0.9 0.5c-0.7 0.3-1.8 0.9-2.9 1.5-2.3 1.1-5.4 2.7-6.9 3.5zm-8-10.7l0.3 0.9-0.3-0.9 0.4 0.9zm0.3 0.9l0.1 0.1q0 0 0 0zm0 0q0 0 0 0 0 0 0 0 0 0 0 0zm-8.7 3.9q0 0 0 0 0 0 0 0zm0.9-49l-1 0.1 1-0.1zm1.3 39.3l0.1-0.1zm25.8-17.9v0.1-0.1zm5.2 6.2v0.1zm-1.1 4.6h-0.7 0.7zm-7.3 0.3v-0.1zm14.4-7.7l-0.1-1zm-24.5 20.4l-0.2-0.6zm12.8 2.4l-0.7 0.6 0.7-0.6zm4.2-2.2l-0.5-0.9zm-20.8-41.7l-0.4-0.9zm2.4-0.8l-0.5 0.8zm3.5 1.9l0.4-0.9zm4-1.4l0.4 0.9zm-1.4-6.9l-0.5 0.8zm-5.4-3l-0.5 0.9zm-7.6 3l-0.5-0.8zm-15.2 26.2l0.4 0.9zm10.4-7.5l-0.5 0.9zm3 1.2l0.4 0.9zm5.8-2.7l0.4 0.9zm-6.4-6.1l-0.4 0.9zm-13.3-2.7l0.5 0.9zm35.1 4.7l0.5-0.8zm-0.2 3.6l0.4 0.9zm-10.3 4.8l0.4 0.9zm-12.8 6l-0.4-0.9zm-15.5 12.5l1 0.1zm3.3 6.9l-0.5 0.9zm2.9 1.5l-0.4 0.9zm5-1.9l-0.4-0.9zm3.2-8.2l-0.4-0.9zm16.4-7.7l-0.4-0.9zm18.6-8.8l0.5 0.9zm2.4-6.4h-1zm0.1-4.6h1zm-3.4-2.4l0.5-0.9zm-8.3 0.4l0.4 0.9zm3.8 22.8l-1-0.1zm-13.9 6l0.4 0.9zm5.1 6.7l0.5-0.9zm12.7 2.8l-0.4-0.9zm-24.3 1.5l0.5-0.8zm-6.8 1l-0.4-0.9zm2.2 5.7l-0.4 0.9zm6.2 3.3l-0.5 0.9zm3.3-1.2l0.5 0.9zm6.7-8l0.5-0.9zm-3.7-1.9l-0.5 0.8zm-0.9 0l0.4 0.9zm-4.5 11.2l-0.4-0.9zm25-48.6l-0.5 0.8zm-51 35.5l0.5-0.9zm43.3 3.4l-0.5 0.9zm-27.2-29.1l-0.5 0.9zm14.2-11.7l-0.4-0.9zm-23.8 40.4l0.5 0.9zm44.3-27.5l-0.5-0.9zm-41.7-5.2l0.5-0.9zm-9.2-5.8l0.5 0.9zm44.3 20.7l-0.5-0.9zm-19.2-24.4l0.5 0.9z"/>
	</g>
</svg>