<?xml version="1.0" encoding="utf-8"?>
<!-- Generator: Adobe Illustrator 27.9.0, SVG Export Plug-In . SVG Version: 6.00 Build 0)  -->
<svg version="1.1" id="Capa_1" xmlns="http://www.w3.org/2000/svg" xmlns:xlink="http://www.w3.org/1999/xlink" x="0px" y="0px"
	 viewBox="0 0 60 60" style="enable-background:new 0 0 60 60;" xml:space="preserve">
<style type="text/css">
	.st0{fill:#7DF500;}
	.st1{fill:#AEFB07;}
	.st2{fill:#030303;}
	.st3{fill:#F1EFF0;}
	.st4{fill:#9D9C9C;}
	.st5{fill:#9D9B9F;}
	.st6{fill:#EFECEF;}
	.st7{fill:#3333FF;}
	.st8{fill:#9B999C;}
	.st9{fill:#EBEAEB;}
	.st10{fill:#1F050E;}
	.st11{fill:#050407;}
	.st12{fill:#8589FF;}
	.st13{fill:#060406;}
	.st14{fill:#141215;}
	.st15{fill:#05051A;}
</style>
<path class="st0" d="M44.01,26.7c0,0,4.32-0.74,10.88-5.18c0.35,1.77-0.12,4.04-1.71,5.75c-2.19,2.28-5.85,2.9-5.85,2.9
	s3.13-0.11,6.62-2.11c0,1.59-0.71,3.25-2.54,4.33c-1.77,0.74-3.55,1.2-3.9,1.2c1.01,0.06,3.55,0,4.61-0.68
	c0.89-0.57,0.53,0.8-0.95,2.05c-0.83,0.68-1.6,1.03-3.19,1.48c-1.54,0.46-2.31,0.63-0.35,0.46c1.95-0.17,1.48-0.17,1.83-0.06
	c0.35,0.06-0.3,1.08-2.01,2.05c-1.42,0.8-2.9,0.57-2.9,0.57c-0.59,0-1.18-0.34-1.48-0.85c-0.95-1.94-3.07-6.26-2.9-6.44
	c0.12-0.17,0.59-2.79,0.89-4.27c0.12-0.51,0.59-0.91,1.12-0.91C42.71,26.93,43.3,26.87,44.01,26.7z"/>
<path class="st0" d="M15.99,26.7c0,0-4.32-0.74-10.88-5.18c-0.35,1.77,0.12,4.04,1.71,5.75c2.19,2.28,5.85,2.9,5.85,2.9
	s-3.13-0.11-6.62-2.11c0,1.59,0.71,3.25,2.54,4.33c1.77,0.74,3.55,1.2,3.9,1.2c-1.01,0.06-3.55,0-4.61-0.68
	C7,32.34,7.36,33.7,8.84,34.96c0.83,0.68,1.6,1.03,3.19,1.48c1.6,0.46,2.31,0.63,0.35,0.46c-1.95-0.17-1.48-0.17-1.83-0.06
	c-0.35,0.06,0.3,1.08,2.01,2.05c1.42,0.8,2.9,0.57,2.9,0.57c0.59,0,1.18-0.34,1.48-0.85c0.95-1.94,3.07-6.26,2.9-6.44
	c-0.12-0.17-0.59-2.79-0.89-4.27c-0.12-0.51-0.59-0.91-1.12-0.91C17.29,26.93,16.64,26.87,15.99,26.7z"/>
<g>
	<g>
		<path class="st1" d="M41.09,42.13c-0.84,1.01-1.76,1.94-2.7,2.87c0-0.28,0.16-0.52,0.15-0.86c-1.25,1.13-2.75,1.69-4.18,2.41
			c-1.3,0.66-2.57,1.38-3.88,2.02c-0.28,0.14-0.51,0.15-0.8,0.01c-1.25-0.63-2.55-1.14-3.7-1.96c-0.18-0.13-0.39-0.21-0.6-0.28
			c-1.35-0.48-2.57-1.17-3.66-2.09c-0.04-0.02-0.1-0.06-0.11-0.05c-0.05,0.05-0.03,0.11,0.03,0.15c-0.01,0.24,0.18,0.45,0.13,0.7
			c-2.99-2.96-5.75-6.07-6.77-10.32c-0.03-0.11,0.06-0.37-0.25-0.22c-0.11,0.05-0.1-0.16-0.13-0.25c-0.71-2.1,0.01-3.86,1.33-5.47
			c0.53-0.64,1.02-1.3,1.45-2.01c0.17-0.29,0.21-0.52,0.01-0.83c-0.33-0.51-0.51-1.08-0.65-1.71c-0.43,0.33-0.72,0.77-1.2,1.23
			c0.29-1.68,0.21-3.28,0.91-4.75c0.68-1.44,1.82-2.37,3.3-2.93c-0.16-0.29-0.52-0.36-0.73-0.68c2.05-0.06,4.09-0.51,6.01,0.53
			c0.9,0.48,1.61,1.19,2.33,1.88c0.57,0.55,1.22,0.97,2.02,1.07c0.13,0.01,0.25,0.02,0.38,0.03c0.13,0.07,0.27,0.07,0.42,0.03
			c0.18-0.02,0.37-0.04,0.55-0.07c0.79-0.11,1.43-0.5,1.98-1.05c0.64-0.62,1.27-1.25,2.04-1.72c1.03-0.63,2.17-0.9,3.37-0.86
			c0.97,0.03,1.93,0.09,3.04,0.15c-0.33,0.26-0.56,0.44-0.84,0.66c1.19,0.46,2.17,1.13,2.88,2.15c0.52,0.74,0.83,1.57,0.97,2.46
			c0.15,0.98,0.25,1.97,0.38,3.09c-0.44-0.47-0.79-0.85-1.16-1.25c-0.18,0.69-0.38,1.33-0.74,1.89c-0.16,0.24-0.01,0.42,0.03,0.63
			c-0.31,0-0.63,0-0.94,0c-0.04-0.12-0.08-0.24-0.12-0.36c0-0.09,0-0.19,0-0.28c0-0.02,0-0.04,0-0.06c0.8-1.16,1.01-2.48,1.02-3.92
			c0.22,0.21,0.39,0.37,0.65,0.61c-0.55-2.96-2.45-4.15-5.09-4.46c-0.02-0.19,0.25-0.16,0.21-0.35c-0.65-0.02-1.3,0-1.94,0.17
			c-1.07,0.28-1.91,0.92-2.66,1.68c-0.8,0.82-1.67,1.51-2.82,1.76c-0.15,0.02-0.31,0.04-0.46,0.06c-0.07,0.01-0.14,0.03-0.21,0.04
			c-0.18,0-0.36,0-0.53,0c-1.37-0.12-2.47-0.74-3.39-1.75c-0.26-0.28-0.56-0.52-0.85-0.77c-1.13-0.94-2.43-1.3-3.89-1.19
			c0,0.19,0.26,0.16,0.23,0.34c-3.44,0.36-4.88,2.45-4.94,4.43c0.13-0.2,0.25-0.39,0.38-0.59c0.14,1.27,0.23,2.44,0.88,3.47
			c0.33,0.53,0.3,1.01,0.03,1.52c-0.36,0.7-0.86,1.29-1.33,1.91c-0.66,0.89-1.38,1.75-1.65,2.87c-0.06,0.25-0.06,0.5-0.02,0.77
			c0.05-0.04,0.08-0.06,0.12-0.08c0.05-0.03,0.07-0.11,0.16-0.04c0.38,3.4,1.82,6.34,4.08,8.94c0.09-0.45-0.19-0.77-0.18-1.17
			c0.73,0.98,1.44,1.96,2.34,2.8c0.9,0.83,1.85,1.58,3.1,2.05c-0.16-0.37-0.27-0.64-0.38-0.9c0.03-0.03,0.07-0.05,0.1-0.08
			c0.99,1.06,2.06,2.01,3.4,2.61c0.04,0.03,0.09,0.08,0.14,0.01c0.01-0.02-0.03-0.07-0.05-0.1c-0.16-0.32-0.32-0.64-0.49-0.95
			c0.03-0.02,0.05-0.05,0.08-0.07c0.54,0.35,1.08,0.72,1.64,1.04c0.51,0.29,0.95,0.29,1.46-0.01c0.51-0.31,1.05-0.59,1.51-0.97
			c0.09-0.07,0.17-0.21,0.32-0.09c0,0-0.01,0-0.01,0c-0.24,0.39-0.48,0.78-0.71,1.18c1.48-0.59,2.66-1.54,3.72-2.83
			c-0.02,0.48-0.3,0.78-0.36,1.19c0.93-0.37,1.7-0.89,2.42-1.48c1.13-0.93,2.05-2.03,2.83-3.26c0.05-0.07,0.12-0.32,0.18,0
			c-0.02,0.09-0.05,0.19-0.07,0.28c-0.03,0.02-0.04,0.04-0.02,0.08c-0.05,0.18-0.11,0.37-0.16,0.55c-0.01,0.04-0.04,0.1-0.02,0.11
			c0.04,0.04,0.08,0,0.1-0.04c0.18-0.18,0.35-0.36,0.53-0.54c0.01,0.17,0.08,0.37-0.04,0.49C40.69,41.64,40.83,41.88,41.09,42.13z"
			/>
		<path class="st1" d="M41.77,26.72c0.31,0,0.63,0,0.94,0c0.73,1.19,1.71,2.2,2.41,3.41c0.44,0.77,0.72,1.6,0.67,2.47
			c-0.03,0.56-0.1,1.14-0.25,1.7c-0.03,0.1,0.01,0.25-0.23,0.16c-0.21-0.07-0.13,0.2-0.16,0.3c-0.49,1.87-1.27,3.62-2.36,5.21
			c-0.51,0.75-1.02,1.52-1.7,2.14c-0.26-0.25-0.41-0.49-0.07-0.8c0.13-0.12,0.06-0.32,0.04-0.49c0.11-0.17,0.22-0.34,0.33-0.51
			c0.16-0.22,0.32-0.44,0.48-0.66c0,0,0,0,0,0c1.46-2.06,2.36-4.34,2.66-6.85c0.04-0.3,0.08-0.4,0.37-0.18
			c0.04-0.62-0.12-1.15-0.37-1.65c-0.39-0.77-0.93-1.44-1.44-2.13C42.6,28.17,42.01,27.56,41.77,26.72z"/>
	</g>
	<path class="st2" d="M30.57,21.58c-0.04,0.17-0.1,0.2-0.21,0.04C30.43,21.61,30.5,21.59,30.57,21.58z"/>
	<path class="st2" d="M28.13,46.67c0.02,0.03,0.06,0.08,0.05,0.1c-0.04,0.07-0.09,0.02-0.14-0.01C28.07,46.73,28.1,46.7,28.13,46.67
		z"/>
	<path class="st3" d="M25.98,23.31c0.15,0.02,0.31,0.04,0.54,0.06c-0.58-0.94-1.51-1.28-2.37-1.78c0.31,0.02,0.62,0.04,0.93,0.08
		c0.33,0.04,0.66,0.08,0.99,0.14c0.94,0.19,1.84,0.46,2.68,0.94c0.72,0.42,1.5,0.39,2.23-0.03c1.4-0.82,2.95-1.01,4.59-1.15
		c-0.22,0.25-0.48,0.27-0.69,0.38c-0.51,0.28-1.04,0.55-1.45,0.98c-0.1,0.1-0.25,0.22-0.18,0.36c0.08,0.15,0.25-0.03,0.38,0.02
		c0.13,0.15,0.31,0.13,0.48,0.16c0.85,0.11,1.68,0.3,2.43,0.74c0.26,0.15,0.51,0.34,0.78,0.52c0-0.08,0.01-0.12,0-0.14
		c-0.12-0.15-0.24-0.29-0.35-0.44L37,24.12c1.31,0.59,2.03,1.67,2.49,2.97c-0.02,0.02-0.03,0.03-0.05,0.05
		c-0.56-0.17-0.99-0.61-1.62-0.82c0.18,0.66,0.35,1.27,0.53,1.92c-1.03-0.7-2.13-0.74-2.9-0.12c-0.3,0.03-0.59,0.19-0.93,0.13
		c0.19-0.39,0.46-0.69,0.74-0.98c0.07-0.07,0.23-0.13,0.16-0.25c-0.09-0.15-0.22-0.02-0.33,0.01c-0.08,0.02-0.14,0.06-0.22,0.09
		c-0.21-0.1-0.35,0.07-0.5,0.15c-0.27,0.15-0.34,0.03-0.33-0.21c0.01-0.27,0.04-0.53,0.06-0.79c0.17-0.47,0.09-0.92-0.13-1.36
		c0.02-0.11-0.01-0.19-0.12-0.24l0-0.03c-0.13-0.27-0.35-0.41-0.71-0.47c0.48,0.47,0.67,0.96,0.5,1.55
		c-0.06,0.21-0.14,0.41-0.22,0.62l0-0.01c-0.08,0.04-0.11,0.11-0.1,0.19c0,0,0-0.01,0-0.01c-0.43,0.65-0.68,1.35-0.68,2.13
		c-0.04,0.11-0.08,0.22-0.11,0.34c-0.28,0.07-0.26,0.5-0.6,0.51c-0.02-0.17-0.01-0.33,0.07-0.49c0.03-0.07,0.14-0.25-0.09-0.27
		c-0.43,0-0.63,0.32-0.88,0.58c-0.8,0.84-1.59,0.84-2.41,0c-0.23-0.24-0.41-0.59-0.83-0.57c-0.09-0.02-0.19-0.06-0.16,0.11
		c0.04,0.22,0.07,0.43,0.1,0.65c-0.32-0.05-0.33-0.45-0.6-0.55c-0.03-0.11-0.06-0.21-0.09-0.32c-0.03-0.58-0.13-1.14-0.46-1.64
		L26.58,27c-0.04-0.3-0.18-0.56-0.39-0.77l0,0.01c-0.08-0.22-0.15-0.44-0.23-0.65c0-0.19,0-0.39,0-0.58
		c0.01-0.07,0.03-0.13,0.04-0.2l0-0.03c0.12-0.16,0.24-0.32,0.41-0.55c-0.32,0.04-0.46,0.16-0.56,0.34l0,0.02
		c-0.06,0.01-0.09,0.05-0.09,0.11l0,0c-0.14,0.1-0.18,0.24-0.17,0.4l0,0.01c-0.01,0.01-0.03,0.02-0.03,0.02
		c0.01,0.02,0.02,0.04,0.03,0.06c-0.12,0.33-0.16,0.68-0.08,1.02c0.09,0.39,0.1,0.79,0.08,1.19c-0.39-0.03-0.64-0.41-1.05-0.38
		c-0.15-0.07-0.3-0.12-0.49-0.06c0.47,0.38,0.82,0.79,1.09,1.3c-0.34,0.05-0.6-0.08-0.88-0.13c-0.44-0.35-0.98-0.39-1.51-0.45
		c-0.59-0.07-1.07,0.12-1.43,0.63c0.11-0.69,0.4-1.28,0.46-1.93c0.01-0.02,0.02-0.04,0.03-0.07c-0.02,0.01-0.04,0.02-0.06,0.03
		c-0.52,0.28-1.04,0.57-1.64,0.9c0.11-0.48,0.3-0.82,0.5-1.15c0.47-0.78,1.01-1.49,1.88-1.87c0.02,0.02,0.04,0.04,0.06,0.06
		c-0.05,0.11-0.11,0.21-0.16,0.32c-0.03,0.03-0.06,0.07-0.09,0.1c-0.02,0.04-0.04,0.08-0.07,0.12c-0.02,0.04-0.04,0.07-0.06,0.11
		c0,0,0.02,0.02,0.03,0.03c0.02-0.04,0.04-0.08,0.06-0.12c0.04-0.03,0.07-0.06,0.11-0.09c0.03-0.03,0.06-0.07,0.09-0.1
		c0.96-0.74,2.07-1.08,3.27-1.18C25.84,23.45,25.97,23.47,25.98,23.31z M37.41,24.88l0.02-0.03l-0.03,0L37.41,24.88z M35.5,26.94
		c-0.02,0.01-0.04,0.02-0.06,0.03c0.01,0.01,0.02,0.03,0.03,0.03c0.02,0,0.04-0.02,0.06-0.03C35.52,26.96,35.52,26.95,35.5,26.94z"
		/>
	<path class="st4" d="M21.8,26.37c-0.06,0.65-0.35,1.24-0.46,1.93c0.36-0.51,0.84-0.7,1.43-0.63c0.53,0.06,1.06,0.1,1.51,0.45
		c-0.38,0.01-0.76,0.02-1.14,0.03c-0.54,0.02-0.96,0.21-1.28,0.69c-0.5,0.76-0.83,1.59-1.09,2.49c0.38-0.17,0.45-0.64,0.83-0.74
		c0,0.06,0.01,0.13-0.02,0.19c-0.45,1.02-0.99,1.99-1.65,2.89c-0.2,0.27-0.4,0.13-0.63,0.08c0.01,0.44,0.15,0.81,0.36,1.15
		c0.14,0.22,0.26,0.32,0.42,0.01c0.18-0.34,0.43-0.63,0.74-0.87c0.22-0.17,0.47-0.48,0.72-0.38c0.25,0.1,0.08,0.49,0.14,0.74
		c0,0.02,0,0.03,0,0.05c0,0.04,0.01,0.08,0.01,0.12c-0.2,0.29-0.55,0.46-0.69,0.8c-0.6,0.82-0.7,1.78-0.76,2.85
		c-1.3-1.38-1.71-2.99-1.6-4.79c-0.51,0.16-0.72,0.59-1.02,0.94c-0.27-1.29,0.33-3.32,1.22-4.11c0.09,0.7,0.28,1.34,0.6,1.95
		c-0.01-1.36-0.03-2.71,0.58-4.07c-0.66,0.14-0.98,0.6-1.35,0.98c-0.02-0.02-0.05-0.04-0.05-0.05c0.44-2.13,1.28-4.04,3.2-5.26
		c1.27-0.81,2.67-0.85,4.1-0.56c0.02,0,0.04,0.05,0.05,0.07c-0.02,0.16-0.15,0.14-0.25,0.15c-1.19,0.1-2.3,0.44-3.27,1.18
		c-0.02-0.02-0.04-0.04-0.06-0.06c0.05-0.11,0.11-0.21,0.16-0.32c0.01-0.02,0.05-0.06,0.04-0.07c-0.03-0.05-0.07-0.03-0.1,0.01
		c-0.87,0.38-1.41,1.09-1.88,1.87c-0.2,0.33-0.39,0.67-0.5,1.15c0.61-0.33,1.12-0.62,1.64-0.9C21.78,26.34,21.79,26.36,21.8,26.37z"
		/>
	<path class="st5" d="M39.48,27.09c-0.46-1.3-1.17-2.38-2.49-2.97c-0.04-0.05-0.11-0.09-0.14-0.03c-0.03,0.07,0.07,0.05,0.11,0.07
		c0.12,0.15,0.24,0.29,0.35,0.44c0.01,0.02,0,0.06,0,0.14c-0.28-0.18-0.52-0.37-0.78-0.52c-0.75-0.44-1.58-0.63-2.43-0.74
		c-0.17-0.02-0.35,0-0.48-0.16c0.95-0.35,1.91-0.29,2.87-0.07c1,0.23,1.82,0.78,2.52,1.52c0.09,0.1,0.13,0.26,0.31,0.27l0.01,0.01
		c0.01,0.2,0.2,0.28,0.28,0.44c0.07,0.1,0.13,0.2,0.2,0.3c0.05,0.1,0.11,0.2,0.16,0.29c0.04,0.06,0.07,0.13,0.11,0.19
		c0.03,0.06,0.06,0.13,0.09,0.19c0.1,0.22,0.21,0.45,0.31,0.67c0,0,0,0,0,0c0.13,0.36,0.26,0.72,0.38,1.08
		c0,0.15,0.02,0.3,0.11,0.43c-0.05,0.16,0.1,0.33,0,0.49l0.01-0.01c-0.41-0.36-0.71-0.87-1.36-0.98c0.54,1.31,0.66,2.61,0.57,3.94
		c0.39-0.55,0.48-1.18,0.63-1.89c0.99,1.27,1.36,2.64,1.25,4.26c-0.36-0.45-0.58-0.88-1.12-1.04c0.17,1.47-0.15,2.78-0.88,4.01
		c-0.03,0.04-0.06,0.09-0.09,0.13c-0.07,0.09-0.13,0.18-0.2,0.26c-0.12,0.11-0.24,0.23-0.41,0.39c-0.01-0.66-0.06-1.27-0.27-1.84
		c-0.1-0.38-0.25-0.75-0.51-1.05c-0.17-0.3-0.42-0.53-0.68-0.75c0-0.04,0-0.07,0-0.11c0.03-0.17,0.08-0.35,0.08-0.52
		c-0.01-0.4,0.17-0.32,0.4-0.18c0.48,0.28,0.85,0.68,1.13,1.14c0.18,0.3,0.32,0.25,0.47-0.01c0.06-0.1,0.14-0.2,0.15-0.3
		c0.01-0.27,0.61-0.75-0.24-0.77c-0.05,0-0.1-0.08-0.14-0.13c-0.77-0.94-1.35-2-1.76-3.14l0.04,0l0.05,0
		c0.25,0.29,0.5,0.58,0.83,0.95c-0.17-0.56-0.25-1.04-0.51-1.46c-0.12-0.45-0.4-0.82-0.63-1.21c-0.27-0.48-0.7-0.66-1.22-0.68
		c-0.38-0.02-0.76-0.03-1.14-0.04c0.77-0.61,1.88-0.58,2.9,0.12c-0.18-0.65-0.35-1.25-0.53-1.92c0.64,0.2,1.06,0.64,1.62,0.82
		c0.03,0.01,0.05,0.02,0.08,0.02C39.5,27.14,39.49,27.11,39.48,27.09z"/>
	<path class="st6" d="M35.17,36.95c-0.33-0.44-0.65-0.88-1.14-1.16c-0.01-0.04-0.04-0.09-0.09-0.06c-0.02,0.01,0,0.08,0,0.12
		c0.12,0.52,0.35,1.01,0.32,1.56c-0.17-0.01-0.23,0.15-0.34,0.23c-0.41,0.29-1.15,0.24-1.43-0.09c0.09-0.01,0.18-0.01,0.23-0.11
		c0.47-0.28,0.36-0.72,0.33-1.16c-0.19,0.04-0.16,0.32-0.37,0.25c-0.03-0.03-0.05-0.06-0.08-0.08c-1.32-1.5-3.87-1.57-5.44-0.14
		c-0.22,0.2-0.35,0.28-0.55-0.15c-0.06,0.57-0.14,1,0.32,1.28c0.09,0.06,0.18,0.12,0.27,0.18c-0.67,0.32-1.28,0.27-1.8-0.3
		c-0.06-0.53,0.21-1,0.29-1.61c-0.55,0.37-0.9,0.79-1.24,1.24c-0.25-0.16-0.28-0.47-0.48-0.67c-0.01-0.29-0.01-0.58-0.02-0.87
		c-0.07-0.46-0.05-0.91,0.14-1.34c0.53,0.15,1.05,0.36,1.61,0.38c0.13,0,0.22,0.06,0.24,0.19c0.09,0.58,0.39,0.4,0.7,0.2l-0.01-0.01
		c0.01,0.09,0.02,0.18,0.04,0.38c0.61-0.79,1.4-1.24,2.16-1.71c0.01-0.01,0.02-0.02,0.03-0.03c-0.01,0.01-0.02,0.03-0.02,0.04
		c-0.17-0.03-0.29-0.28-0.5-0.09c-0.27,0-0.54,0-0.85,0c0.85-1.22,4.03-1.11,4.61,0c-0.3,0-0.58,0-0.86,0
		c-0.14-0.03-0.28-0.05-0.39,0.08c-0.02-0.03-0.02-0.09-0.08-0.03c0,0,0.04,0.03,0.05,0.05c0.76,0.46,1.51,0.94,2.1,1.63
		c0.02,0.02,0.06,0.06,0.07,0.05c0.05-0.04,0.03-0.07-0.01-0.11c-0.01-0.15-0.03-0.36,0.19-0.15c0.27,0.27,0.35,0.1,0.46-0.13
		c0.07-0.15,0.06-0.35,0.31-0.36c0.55-0.01,1.05-0.21,1.57-0.37c0.18,0.34,0.24,0.7,0.18,1.08c-0.08,0.2-0.09,0.41-0.05,0.62
		c-0.01,0.2-0.01,0.39-0.02,0.59C35.44,36.53,35.45,36.86,35.17,36.95z M26.6,35.3l0.02-0.03l-0.02,0L26.6,35.3z"/>
	<g>
		<path class="st7" d="M23.97,35.43c-0.04,0.06-0.09,0.12-0.14,0.18c-0.17-0.55-0.19-0.55-0.59-0.16c-0.81,0.79-0.97,0.74-1.36-0.35
			c-0.06-0.18-0.12-0.36-0.18-0.53c-0.2,0.29-0.55,0.46-0.69,0.8c0.11,1.84,0.56,3.52,2.08,4.69c0-0.6-0.01-1.18,0-1.76
			c0.01-0.59,0-1.19,0.27-1.77c0.19,0.41,0.11,0.91,0.51,1.22c0.08-0.48-0.09-0.99,0.13-1.45C23.98,36.01,23.98,35.72,23.97,35.43z"
			/>
		<path class="st7" d="M38.62,35.31c-0.17-0.3-0.42-0.53-0.68-0.75c-0.11,0.45-0.27,0.88-0.51,1.28c-0.12,0.21-0.26,0.3-0.48,0.09
			c-0.28-0.27-0.6-0.51-0.92-0.79c-0.15,0.18-0.1,0.45-0.29,0.58c-0.01,0.03-0.03,0.05-0.06,0.06c-0.01,0.2-0.01,0.39-0.02,0.59
			c0.26,0.43,0.13,0.9,0.16,1.36c0.07-0.07,0.14-0.14,0.21-0.21c0,0,0,0,0,0c0.08-0.35,0.16-0.7,0.24-1.05
			c0.43,1.13,0.43,2.27,0.21,3.43c0.02,0.06,0.03,0.12,0.05,0.17c0.05-0.03,0.11-0.06,0.16-0.08c0.22-0.22,0.45-0.44,0.67-0.66
			c0.03-0.03,0.06-0.07,0.09-0.1c0,0,0,0,0,0c0.02-0.13,0.09-0.22,0.2-0.28c0,0,0,0,0,0c0.21-0.43,0.43-0.86,0.64-1.29
			c0.01-0.05,0.02-0.09,0.03-0.14c0-0.14,0-0.27,0.1-0.38c0.03-0.1,0.05-0.2,0.08-0.29C38.53,36.34,38.65,35.83,38.62,35.31z"/>
	</g>
	<path class="st4" d="M25.42,37.34c0.52,0.58,1.13,0.62,1.8,0.3c0.48-0.22,0.93-0.18,1.31,0.21c0.42,0.43,0.58,0.96,0.37,1.54
		c-0.19,0.5-0.63,0.68-1.14,0.72C25.95,40.24,25.03,39.06,25.42,37.34z"/>
	<path class="st5" d="M32.5,37.56c0.29,0.33,1.02,0.37,1.43,0.09c0.11-0.08,0.17-0.24,0.34-0.23c0.37,1.92-0.85,2.91-2.59,2.66
		c-0.69-0.1-1.09-0.69-0.98-1.35c0.13-0.8,0.74-1.28,1.53-1.21C32.31,37.53,32.41,37.54,32.5,37.56z"/>
	<path class="st8" d="M31.74,41.16c0.29,0.11,0.13,0.23,0.02,0.38c-0.36,0.51-0.89,0.59-1.46,0.66c-0.57,0.07-1.12-0.06-1.68-0.08
		c-0.32-0.01-0.63-0.41-0.85-0.72c-0.13-0.18,0.09-0.25,0.22-0.33c0.11,0.14,0.26,0.09,0.39,0.09
		C29.51,41.16,30.63,41.16,31.74,41.16z"/>
	<path class="st9" d="M27.58,36.85c-0.05-0.02-0.21,0.04-0.12-0.09c0.78-1.15,3.69-1.27,4.52-0.19c0.03,0.04,0.03,0.11,0.06,0.23
		c-0.41-0.19-0.77-0.34-1.16-0.38C29.74,36.2,28.63,36.27,27.58,36.85z"/>
	<path class="st9" d="M31.74,41.16c-1.12,0-2.24,0.01-3.35,0c-0.13,0-0.29,0.05-0.39-0.09C29.16,40.4,30.81,40.44,31.74,41.16z"/>
	<path class="st8" d="M35.65,36.38c0.26,0.43,0.13,0.9,0.16,1.36c-0.03,0.09-0.07,0.18-0.1,0.26c-0.07,0.02-0.19,0.3-0.2-0.03
		c-0.01-0.37-0.15-0.7-0.34-1.01C35.45,36.86,35.44,36.53,35.65,36.38z"/>
	<path class="st8" d="M23.86,37.75c0.08-0.48-0.09-0.99,0.13-1.45c0.2,0.2,0.23,0.51,0.48,0.67c-0.17,0.36-0.35,0.71-0.32,1.14
		C23.93,38.07,23.95,37.87,23.86,37.75z"/>
	<path class="st10" d="M36.02,37.53c0.08-0.35,0.16-0.7,0.24-1.05c0.43,1.13,0.43,2.27,0.21,3.43c-0.13-0.3-0.1-0.63-0.04-0.93
		c0.12-0.57,0.07-1.12-0.07-1.68C36.17,37.28,36.16,37.51,36.02,37.53z"/>
	<path class="st10" d="M38.49,36.85c0.04-0.51,0.16-1.02,0.12-1.54c0.27,0.3,0.41,0.67,0.51,1.05c-0.27-0.06-0.48-0.04-0.44,0.33
		C38.7,36.8,38.6,36.84,38.49,36.85z"/>
	<path class="st10" d="M37.65,38.96c0.21-0.43,0.43-0.86,0.64-1.29C38.33,38.26,38.09,38.75,37.65,38.96z"/>
	<path class="st10" d="M35.71,38c0.03-0.09,0.07-0.18,0.1-0.26c0.07-0.07,0.14-0.14,0.21-0.21C36.02,37.76,36.04,38,35.71,38z"/>
	<path class="st10" d="M38.32,37.53c0-0.14,0-0.27,0.1-0.38C38.59,37.33,38.47,37.43,38.32,37.53z"/>
	<path class="st10" d="M37.45,39.24c0.02-0.13,0.09-0.22,0.2-0.28C37.65,39.11,37.64,39.24,37.45,39.24z"/>
	<path class="st11" d="M39.81,37.82c0.07-0.09,0.13-0.17,0.2-0.26C40.04,37.71,39.98,37.8,39.81,37.82z"/>
	<path class="st10" d="M36.52,40.09c0.05-0.03,0.11-0.06,0.16-0.08C36.66,40.09,36.61,40.12,36.52,40.09z"/>
	<path class="st9" d="M27.64,45.71c-0.03-0.04-0.06-0.09-0.1-0.13c0.08-0.04,0.14-0.04,0.17,0.06
		C27.69,45.66,27.67,45.69,27.64,45.71z"/>
	<path class="st10" d="M37.36,39.35c0.03-0.03,0.06-0.07,0.09-0.1C37.42,39.28,37.39,39.31,37.36,39.35z"/>
	<path class="st9" d="M32.65,45.6c-0.02-0.02-0.05-0.03-0.07-0.05c0.02,0.02,0.04,0.03,0.06,0.05C32.65,45.6,32.65,45.6,32.65,45.6z
		"/>
	<path class="st12" d="M26.01,24.78c0,0,0,0.03,0,0.03c-0.1,0.05-0.14,0.11-0.04,0.2c0,0.19,0,0.39,0,0.58
		c-0.14,0.29,0.04,0.48,0.23,0.65c0,0,0-0.01,0-0.01c0.01,0.31,0.22,0.54,0.39,0.77c0,0-0.01-0.01-0.01-0.01
		c0.05,0.2,0.12,0.39,0.16,0.59c0.07,0.31,0.25,0.61,0.12,0.95c-0.41-0.38-0.83-0.76-1.24-1.14c0.02-0.4,0.01-0.79-0.08-1.19
		c-0.08-0.34-0.04-0.69,0.08-1.02c0-0.03,0-0.05,0-0.08c0,0,0-0.01,0-0.01c0.12-0.11,0.19-0.23,0.17-0.4c0,0,0,0,0,0
		c0.03-0.04,0.06-0.07,0.09-0.11c0,0,0-0.02,0-0.02C25.91,24.64,25.96,24.71,26.01,24.78z"/>
	<path class="st12" d="M33.84,24.63c0,0,0,0.03,0,0.03c-0.01,0.1,0.04,0.18,0.12,0.24c0.22,0.44,0.3,0.89,0.13,1.36
		c-0.32,0.37-0.12,0.82-0.18,1.23c-0.35,0.35-0.76,0.65-1.06,1.05c-0.15-0.2-0.07-0.41-0.02-0.62c0.11-0.48,0.42-0.9,0.48-1.4
		c0,0,0,0.01,0,0.01c0.11-0.02,0.12-0.1,0.1-0.19c0,0,0,0.01,0,0.01c0.17-0.08,0.24-0.26,0.27-0.42c0.08-0.38,0.08-0.78,0-1.16
		C33.64,24.54,33.73,24.59,33.84,24.63z"/>
	<path class="st8" d="M31.9,28.73c-0.47,0.43-0.85,0.93-1.08,1.54c-0.07,0.18-0.16,0.24-0.35,0.17c-0.42-0.14-0.84-0.13-1.26-0.01
		c-0.2,0.06-0.3,0.06-0.39-0.17c-0.21-0.59-0.58-1.08-1.04-1.51c0.42-0.02,0.6,0.33,0.83,0.57c0.81,0.84,1.6,0.84,2.41,0
		C31.27,29.05,31.48,28.73,31.9,28.73z"/>
	<path class="st7" d="M25.61,27.39c0.41,0.38,0.83,0.76,1.24,1.14c0.04,0.08,0.11,0.08,0.18,0.1c0.03,0.11,0.06,0.21,0.09,0.32
		c-0.03,0.1-0.02,0.21-0.13,0.28c-0.14-0.02-0.21-0.13-0.28-0.24c-0.55-0.85-1.3-1.47-2.16-1.98
		C24.97,26.98,25.22,27.37,25.61,27.39z"/>
	<path class="st7" d="M32.86,28.54c0.31-0.4,0.71-0.7,1.06-1.05c0.1,0.01,0.18,0.04,0.2,0.15c-0.54,0.51-0.96,1.12-1.45,1.67
		c-0.05-0.11-0.1-0.21-0.15-0.32c0.04-0.11,0.08-0.22,0.11-0.34C32.72,28.63,32.82,28.64,32.86,28.54z"/>
	<path class="st8" d="M27,29.23c0.11-0.06,0.1-0.18,0.13-0.28c0.28,0.1,0.29,0.5,0.6,0.55c0.1,0.32,0,0.61-0.16,0.99
		C27.36,30.02,27.06,29.68,27,29.23z"/>
	<path class="st8" d="M32.52,28.98c0.05,0.11,0.1,0.21,0.15,0.32c-0.17,0.37-0.34,0.73-0.54,1.14c-0.28-0.31-0.22-0.64-0.21-0.95
		C32.26,29.48,32.24,29.06,32.52,28.98z"/>
	<path class="st12" d="M32.86,28.54c-0.04,0.1-0.14,0.09-0.22,0.11c0-0.78,0.25-1.49,0.68-2.13c-0.06,0.5-0.36,0.92-0.48,1.4
		C32.79,28.13,32.71,28.33,32.86,28.54z"/>
	<path class="st12" d="M33.84,24.63c-0.12-0.04-0.21-0.09-0.16,0.13c0.08,0.38,0.08,0.78,0,1.16c-0.03,0.16-0.1,0.33-0.27,0.42
		c0.07-0.21,0.16-0.41,0.22-0.62c0.17-0.59-0.01-1.09-0.5-1.55C33.5,24.22,33.71,24.36,33.84,24.63z"/>
	<path class="st12" d="M34.12,27.63c-0.02-0.11-0.1-0.14-0.2-0.15c0.06-0.41-0.14-0.86,0.18-1.23c-0.02,0.26-0.05,0.53-0.06,0.8
		c-0.01,0.25,0.06,0.36,0.33,0.21c0.15-0.08,0.29-0.25,0.5-0.15C34.61,27.29,34.36,27.46,34.12,27.63z"/>
	<path class="st12" d="M27.03,28.63c-0.07-0.01-0.15-0.02-0.18-0.1c0.13-0.34-0.05-0.64-0.12-0.95c-0.04-0.2-0.11-0.4-0.16-0.59
		C26.9,27.49,27.01,28.05,27.03,28.63z"/>
	<path class="st12" d="M26.01,24.78c-0.05-0.07-0.1-0.14-0.15-0.21c0.1-0.18,0.24-0.31,0.56-0.34
		C26.25,24.46,26.13,24.62,26.01,24.78z"/>
	<path class="st12" d="M26.58,27c-0.17-0.24-0.37-0.46-0.39-0.77C26.4,26.45,26.54,26.7,26.58,27z"/>
	<path class="st12" d="M26.2,26.24c-0.19-0.18-0.37-0.36-0.23-0.65C26.05,25.8,26.12,26.02,26.2,26.24z"/>
	<path class="st12" d="M25.77,24.7c0.02,0.16-0.05,0.29-0.17,0.4C25.6,24.94,25.64,24.8,25.77,24.7z"/>
	<path class="st12" d="M33.96,24.89c-0.08-0.06-0.13-0.13-0.12-0.24C33.95,24.7,33.98,24.78,33.96,24.89z"/>
	<path class="st4" d="M22.27,24.83c-0.02,0.04-0.04,0.08-0.06,0.12c-0.01-0.01-0.03-0.03-0.03-0.03c0.02-0.04,0.04-0.07,0.06-0.11
		C22.24,24.8,22.27,24.83,22.27,24.83z"/>
	<path class="st12" d="M25.97,25c-0.09-0.09-0.06-0.15,0.04-0.2C26,24.87,25.98,24.94,25.97,25z"/>
	<path class="st12" d="M33.42,26.33c0.02,0.09,0,0.17-0.1,0.19C33.31,26.44,33.34,26.37,33.42,26.33z"/>
	<polygon class="st5" points="37.41,24.88 37.4,24.84 37.43,24.85 	"/>
	<path class="st4" d="M22.24,24.8c0.02-0.04,0.04-0.08,0.07-0.12c0.02,0.02,0.04,0.04,0.06,0.06c-0.04,0.03-0.07,0.06-0.11,0.09
		C22.27,24.83,22.24,24.8,22.24,24.8z"/>
	<path class="st4" d="M22.47,24.64c-0.03,0.03-0.06,0.07-0.09,0.1c-0.02-0.02-0.04-0.04-0.06-0.06c0.03-0.03,0.06-0.07,0.09-0.1
		C22.42,24.6,22.45,24.62,22.47,24.64z"/>
	<path class="st13" d="M35.5,26.94c0.01,0.01,0.02,0.02,0.03,0.03c-0.02,0.01-0.04,0.02-0.06,0.03c-0.01,0-0.02-0.02-0.03-0.03
		C35.47,26.96,35.49,26.95,35.5,26.94z"/>
	<path class="st4" d="M21.77,26.33c0.02-0.01,0.04-0.02,0.06-0.03c-0.01,0.02-0.02,0.04-0.03,0.07
		C21.79,26.36,21.78,26.34,21.77,26.33z"/>
	<path class="st12" d="M25.87,24.6c-0.03,0.04-0.06,0.07-0.09,0.11C25.78,24.65,25.8,24.61,25.87,24.6z"/>
	<path class="st12" d="M25.6,25.11c0,0.03,0,0.05,0,0.08c-0.01-0.02-0.02-0.04-0.03-0.06C25.57,25.12,25.59,25.11,25.6,25.11z"/>
	<path class="st3" d="M21.6,30.59c0.08-0.07,0.16-0.18,0.25-0.02c0.27,0.53,0.73,0.92,1.07,1.4c-0.37,0.35-0.59,0.77-0.65,1.28
		c-0.06,0.46-0.18,0.9-0.58,1.2c0-0.02,0-0.03,0-0.05c-0.05-0.26,0.11-0.64-0.14-0.74c-0.25-0.1-0.5,0.21-0.72,0.38
		c-0.3,0.24-0.56,0.53-0.74,0.87c-0.17,0.31-0.28,0.21-0.42-0.01c-0.22-0.34-0.35-0.71-0.36-1.15c0.23,0.05,0.43,0.19,0.63-0.08
		c0.66-0.9,1.2-1.87,1.65-2.89C21.61,30.72,21.6,30.65,21.6,30.59z"/>
	<path class="st12" d="M21.69,34.46c0.4-0.3,0.52-0.74,0.58-1.2c0.07-0.51,0.29-0.93,0.65-1.28c0.59,0.35,1.15,0.76,1.85,0.9
		c0.09,0.02,0.06,0.1,0.06,0.16c-0.52,0.22-1.06,0.29-1.62,0.16c-0.13-0.03-0.06,0.05-0.06,0.1c0.18,0.43,0.6,0.59,0.96,0.81
		c-0.2,0.43-0.22,0.88-0.14,1.34c-0.04,0.06-0.09,0.12-0.14,0.18c-0.17-0.55-0.19-0.55-0.59-0.16c-0.81,0.79-0.97,0.74-1.36-0.35
		c-0.06-0.18-0.12-0.36-0.18-0.53C21.7,34.53,21.7,34.5,21.69,34.46z"/>
	<path class="st3" d="M22.51,24.2c0.03-0.03,0.07-0.06,0.1-0.01c0.01,0.01-0.03,0.04-0.04,0.07C22.54,24.24,22.53,24.22,22.51,24.2z
		"/>
	<path class="st3" d="M36.77,31.9c0.39-0.42,0.77-0.86,1.07-1.35c0.06,0,0.12,0.01,0.19,0.01l0,0c0.41,1.15,0.99,2.2,1.76,3.14
		c0.04,0.05,0.09,0.12,0.14,0.13c0.84,0.02,0.24,0.49,0.24,0.77c0,0.1-0.09,0.2-0.15,0.3c-0.15,0.26-0.28,0.31-0.47,0.01
		c-0.28-0.47-0.65-0.86-1.13-1.14c-0.23-0.13-0.41-0.22-0.4,0.18c0,0.17-0.05,0.34-0.08,0.52c-0.3-0.27-0.47-0.62-0.5-1
		C37.38,32.86,37.09,32.38,36.77,31.9z"/>
	<path class="st12" d="M36.77,31.9c0.32,0.48,0.61,0.95,0.66,1.56c0.03,0.38,0.2,0.73,0.5,1c0,0.04,0,0.07,0,0.11
		c-0.11,0.45-0.27,0.88-0.51,1.28c-0.12,0.21-0.26,0.3-0.48,0.09c-0.28-0.27-0.6-0.51-0.92-0.79c-0.15,0.18-0.1,0.45-0.29,0.58
		c-0.01-0.19-0.01-0.37-0.02-0.56c0.06-0.38,0-0.74-0.18-1.08c0.32-0.26,0.74-0.39,0.96-0.78c-0.14-0.19-0.32-0.05-0.48-0.06
		c-0.43-0.01-0.84-0.02-1.26-0.36C35.56,32.74,36.19,32.37,36.77,31.9z"/>
	<path class="st14" d="M38.11,30.56c0.17-0.13,0.21-0.34,0.31-0.51c0.27,0.42,0.34,0.9,0.51,1.46
		C38.62,31.14,38.36,30.85,38.11,30.56z"/>
	<path class="st3" d="M36.97,24.15c-0.04-0.02-0.14,0.01-0.11-0.07c0.02-0.05,0.1-0.02,0.14,0.03C37,24.12,36.97,24.15,36.97,24.15z
		"/>
	<path class="st3" d="M39.48,27.09c0.01,0.02,0.02,0.05,0.03,0.07c-0.03-0.01-0.05-0.02-0.08-0.02
		C39.45,27.12,39.47,27.11,39.48,27.09z"/>
	<path class="st8" d="M24.11,34.1c-0.36-0.22-0.78-0.37-0.96-0.81c0.2,0.06,0.34,0.26,0.58,0.23c0.03,0.07,0.09,0.09,0.15,0.08
		c0.06,0.02,0.11,0.04,0.17,0.06c0.23,0.08,0.46,0.08,0.7,0.06c0.09-0.01,0.19-0.01,0.28-0.02c0.44-0.01,0.79-0.28,1.21-0.48
		c0,0.42,0,0.81,0,1.31c0.67-0.57,1.36-0.92,2.12-1.11c0.2-0.2,0.33,0.06,0.5,0.09l-0.01-0.01c-0.77,0.47-1.55,0.92-2.16,1.71
		c-0.02-0.19-0.03-0.28-0.04-0.38c0.01-0.01,0.02-0.02,0.03-0.03c-0.01,0.01-0.02,0.03-0.02,0.04c-0.31,0.2-0.61,0.38-0.7-0.2
		c-0.02-0.12-0.11-0.18-0.24-0.19C25.16,34.46,24.64,34.25,24.11,34.1z"/>
	<path class="st5" d="M36.49,33.31c-0.22,0.39-0.64,0.52-0.96,0.78c-0.51,0.16-1.02,0.37-1.57,0.37c-0.25,0-0.25,0.21-0.31,0.36
		c-0.11,0.23-0.19,0.4-0.46,0.13c-0.22-0.21-0.2,0-0.19,0.15c-0.02,0.02-0.04,0.04-0.06,0.06c-0.58-0.69-1.33-1.17-2.1-1.63
		l0.02-0.02c0.11-0.13,0.25-0.11,0.39-0.08c0.78,0.17,1.47,0.51,2.11,1.07c0.14-0.44,0.03-0.83,0.06-1.29
		C34.45,33.9,35.47,33.9,36.49,33.31z"/>
	<path class="st8" d="M35.71,35.17c0.01,0.19,0.01,0.37,0.02,0.56c-0.01,0.03-0.03,0.05-0.06,0.06
		C35.62,35.58,35.63,35.37,35.71,35.17z"/>
	<path class="st5" d="M33,35.1c0.03,0.04,0.06,0.07,0.01,0.11c-0.01,0-0.04-0.03-0.07-0.05C32.96,35.14,32.98,35.12,33,35.1z"/>
	<polygon class="st8" points="26.6,35.3 26.6,35.27 26.62,35.27 	"/>
	<path class="st2" d="M33.95,35.86c0-0.04-0.02-0.11,0-0.12c0.05-0.04,0.07,0.01,0.09,0.06C34,35.81,33.98,35.83,33.95,35.86z"/>
	<path class="st8" d="M28.85,33.52c0.01-0.01,0.02-0.03,0.02-0.04C28.87,33.49,28.86,33.5,28.85,33.52
		C28.85,33.51,28.85,33.52,28.85,33.52z"/>
	<path class="st5" d="M30.84,33.53c-0.02-0.02-0.06-0.05-0.05-0.05c0.05-0.07,0.06-0.01,0.08,0.03
		C30.87,33.51,30.84,33.53,30.84,33.53z"/>
	<path class="st5" d="M40.99,29.13c0.02,0,0.04,0,0.05,0c-0.01,0-0.02,0.02-0.02,0.01c-0.01-0.01-0.02-0.02-0.03-0.03
		C40.99,29.12,40.99,29.13,40.99,29.13z"/>
	<path class="st1" d="M25.03,30.08c0.96,0.47,1.7,1.19,2.41,2.13c-0.66-0.2-1.22-0.28-1.73-0.56
		C25.43,31.16,24.98,30.73,25.03,30.08z"/>
	<path class="st1" d="M34,31.65c-0.53,0.26-1.1,0.37-1.77,0.55c0.68-0.88,1.38-1.56,2.26-2.05c0.24,0.17,0.07,0.36,0.03,0.55
		C34.42,31.07,34.08,31.29,34,31.65z"/>
	<path class="st1" d="M25.03,30.08c-0.05,0.65,0.4,1.08,0.69,1.58c-1.1-0.18-1.25-0.47-1.33-1.63c-0.02-0.24,0.09-0.27,0.28-0.16
		C24.79,29.94,24.91,30.01,25.03,30.08z"/>
	<path class="st1" d="M34,31.65c0.09-0.36,0.43-0.58,0.51-0.95c0.04-0.19,0.21-0.38-0.03-0.55c0.2-0.18,0.46-0.25,0.7-0.37
		C35.43,30.88,35.07,31.43,34,31.65z"/>
	<path class="st5" d="M38.02,30.56c-0.06,0-0.12-0.01-0.19-0.01C37.9,30.4,37.97,30.42,38.02,30.56z"/>
	<path class="st6" d="M26.66,34.86c0.01-0.01,0.02-0.03,0.02-0.04C26.67,34.83,26.66,34.84,26.66,34.86
		C26.65,34.85,26.66,34.86,26.66,34.86z"/>
	<g>
		<path class="st15" d="M40.72,40.4c-0.06-0.33-0.13-0.07-0.18,0c-0.78,1.23-1.7,2.33-2.83,3.26c-0.72,0.6-1.49,1.11-2.42,1.48
			c0.06-0.42,0.34-0.71,0.36-1.19c-1.06,1.29-2.24,2.24-3.72,2.83c0.24-0.39,0.48-0.78,0.71-1.18c-0.02-0.02-0.04-0.03-0.06-0.05
			c0.02,0.02,0.05,0.03,0.07,0.05c-0.15-0.12-0.23,0.02-0.32,0.09c-0.47,0.38-1,0.66-1.51,0.97c-0.5,0.3-0.95,0.3-1.46,0.01
			c-0.57-0.32-1.1-0.69-1.64-1.04c-0.03-0.1-0.1-0.1-0.17-0.06c0.03,0.04,0.06,0.09,0.1,0.13c0.16,0.32,0.32,0.64,0.49,0.95
			c-0.03,0.03-0.06,0.06-0.09,0.09c-1.34-0.6-2.41-1.54-3.4-2.61c-0.03,0.03-0.07,0.05-0.1,0.08c0.11,0.26,0.22,0.53,0.38,0.9
			c-1.25-0.47-2.21-1.22-3.1-2.05c-0.9-0.83-1.61-1.82-2.34-2.8c-0.01,0.4,0.27,0.73,0.18,1.17c-2.27-2.6-3.7-5.54-4.08-8.94
			c-0.09-0.08-0.12,0.01-0.16,0.04c-0.04,0.02-0.07,0.05-0.12,0.08c-0.04-0.28-0.04-0.52,0.02-0.77c0.27-1.12,0.98-1.98,1.65-2.87
			c0.46-0.62,0.97-1.22,1.33-1.91c0.27-0.52,0.3-1-0.03-1.52c-0.65-1.03-0.74-2.2-0.88-3.47c-0.13,0.2-0.25,0.39-0.38,0.59
			c0.06-1.98,1.5-4.07,4.94-4.43c0.03-0.18-0.23-0.15-0.23-0.34c1.46-0.12,2.76,0.24,3.89,1.19c0.29,0.25,0.59,0.49,0.85,0.77
			c0.92,1.01,2.02,1.62,3.39,1.75c-0.01,0.05-0.05,0.11-0.04,0.13c0.22,0.26,1.07,0.1,1.24-0.23c1.15-0.24,2.02-0.94,2.82-1.76
			c0.75-0.77,1.59-1.4,2.66-1.68c0.64-0.17,1.28-0.19,1.94-0.17c0.04,0.2-0.23,0.16-0.21,0.35c2.64,0.31,4.55,1.5,5.09,4.46
			c-0.26-0.24-0.43-0.4-0.65-0.61c-0.01,1.44-0.22,2.76-1.02,3.92c-0.05-0.01-0.12-0.05-0.12,0.05c0,0,0.07,0.01,0.11,0.01
			c0,0.09,0,0.19,0,0.28c-0.4,0.29-0.07,0.58,0.06,0.8c0.54,0.98,1.23,1.87,1.9,2.77c0.26,0.34,0.5,0.68,0.69,1.07
			c0.21,0.42,0.14,0.75-0.23,1.03c-0.17,0.13-0.27,0.28-0.33,0.5c-0.22,0.84-0.34,1.68,0.09,2.49c0.04,0.08,0,0.15-0.07,0.21
			c-0.42-0.19-0.86-0.48-1.33-0.31c-0.41,0.15-0.85,0.24-1.25,0.41c-0.01-0.2,0.08-0.28,0.28-0.3c0.27-0.02,0.52-0.14,0.76-0.27
			c0.12-0.07,0.24-0.16,0.18-0.3c-0.29-0.6,0.26-1.27-0.14-1.86c-0.02-0.03,0.03-0.12,0.06-0.17c0.22-0.35,0.12-0.64-0.18-0.88
			c-0.65-0.54-0.91-1.24-0.86-2.07c0.01-0.19,0-0.38,0-0.57c0.01-0.21-0.1-0.29-0.29-0.28c-0.09-0.13-0.11-0.28-0.11-0.43
			c0.12-0.42-0.05-0.9-0.38-1.08l0,0c0.11-0.32,0.13-0.61-0.31-0.67c-0.03-0.06-0.06-0.13-0.09-0.19c0.05-0.03,0.11-0.06,0.08-0.13
			c-0.04-0.08-0.12-0.06-0.19-0.06c-0.05-0.1-0.11-0.2-0.16-0.29c0.2-0.28-0.03-0.26-0.2-0.3c-0.07-0.16-0.27-0.24-0.28-0.44
			c0.01-0.02,0.03-0.04,0.04-0.06c-0.02,0.02-0.04,0.03-0.05,0.05c-0.18,0-0.21-0.17-0.31-0.27c-0.7-0.74-1.52-1.29-2.52-1.52
			c-0.96-0.22-1.92-0.28-2.87,0.07c-0.13-0.05-0.3,0.13-0.38-0.02c-0.07-0.14,0.08-0.26,0.18-0.36c0.41-0.43,0.93-0.7,1.45-0.98
			c0.21-0.11,0.47-0.14,0.69-0.38c-1.64,0.14-3.19,0.33-4.59,1.15c-0.72,0.42-1.5,0.45-2.23,0.03c-0.84-0.48-1.74-0.76-2.68-0.94
			c-0.33-0.06-0.66-0.1-0.99-0.14c-0.31-0.03-0.62-0.05-0.93-0.08c0.86,0.51,1.79,0.84,2.37,1.78c-0.23-0.03-0.38-0.04-0.54-0.06
			c-0.02-0.03-0.03-0.07-0.05-0.07c-1.43-0.29-2.83-0.24-4.1,0.56c-1.92,1.22-2.76,3.13-3.2,5.26c0,0.01,0.03,0.03,0.05,0.05
			c0.37-0.38,0.69-0.84,1.35-0.98c-0.61,1.36-0.59,2.71-0.58,4.07c-0.33-0.61-0.52-1.26-0.6-1.95c-0.89,0.79-1.49,2.82-1.22,4.11
			c0.3-0.35,0.51-0.78,1.02-0.94c-0.12,1.81,0.29,3.41,1.6,4.79c0.06-1.06,0.16-2.02,0.76-2.85c0.11,1.84,0.56,3.52,2.08,4.69
			c0-0.6-0.01-1.18,0-1.76c0.01-0.59,0-1.19,0.27-1.77c0.19,0.41,0.11,0.91,0.51,1.22c0.09,0.11,0.07,0.32,0.29,0.35
			c-0.03-0.42,0.15-0.78,0.32-1.14c0.33-0.45,0.69-0.87,1.24-1.24c-0.08,0.61-0.35,1.08-0.29,1.61c-0.39,1.72,0.53,2.9,2.34,2.76
			c0.51-0.04,0.96-0.21,1.14-0.72c0.21-0.57,0.05-1.1-0.37-1.54c-0.38-0.39-0.83-0.43-1.31-0.21c-0.09-0.06-0.18-0.12-0.27-0.18
			c0.28-0.02,0.18-0.11,0.05-0.22c-0.12-0.1-0.19-0.22-0.09-0.37c0.06-0.09,0.14-0.18,0.26-0.18c0.19,0.01,0.13,0.18,0.16,0.29
			c0.04,0.16,0.14,0.16,0.23,0.07c0.03-0.03,0.37-0.1,0.02-0.19c1.04-0.58,2.16-0.65,3.31-0.43c0.01,0.06,0,0.15,0.03,0.17
			c0.43,0.34,1.05,0.34,1.49,0c0.06-0.05,0.13-0.09,0.2-0.13c0.03,0.03,0.05,0.06,0.08,0.08c0.17,0.29,0.22,0.54-0.08,0.8
			c-0.09,0.08,0.07,0.08,0.12,0.11c-0.05,0.09-0.14,0.09-0.23,0.11c-0.09-0.01-0.18-0.03-0.28-0.04c-0.79-0.07-1.4,0.41-1.53,1.21
			c-0.11,0.66,0.29,1.25,0.98,1.35c1.75,0.25,2.96-0.73,2.59-2.66c0.04-0.55-0.19-1.04-0.32-1.56c0.03-0.02,0.06-0.04,0.08-0.06
			c0.48,0.28,0.81,0.72,1.14,1.16c0.18,0.31,0.32,0.64,0.34,1.01c0.01,0.33,0.13,0.05,0.2,0.03c0.33,0,0.32-0.24,0.31-0.47l0,0
			c0.14-0.02,0.15-0.24,0.34-0.22c0.14,0.56,0.19,1.11,0.07,1.68c-0.06,0.3-0.09,0.62,0.04,0.93c0.02,0.06,0.03,0.12,0.05,0.17
			c0.08,0.03,0.14,0,0.16-0.08c0.22-0.22,0.45-0.44,0.67-0.66c0.03-0.03,0.06-0.07,0.09-0.1l0,0c0.19,0,0.2-0.14,0.2-0.28l0,0
			c0.45-0.21,0.69-0.7,0.64-1.29c0.01-0.05,0.02-0.09,0.03-0.14c0.16-0.09,0.27-0.2,0.1-0.38c0.03-0.1,0.05-0.2,0.08-0.29
			c0.1-0.01,0.2-0.05,0.19-0.16c-0.04-0.37,0.17-0.39,0.44-0.33c0.21,0.57,0.26,1.18,0.27,1.84c0.17-0.16,0.29-0.28,0.41-0.39
			c0.17-0.01,0.23-0.1,0.2-0.26c0.03-0.04,0.06-0.09,0.09-0.13c0.38,0.02,0.37-0.47,0.67-0.52c0.41-0.07,0.42-0.35,0.42-0.67
			c0-0.24,0-0.47,0-0.71c0.23,0.04,0.19,0.22,0.19,0.37c0,0.38,0,0.76,0,1.14c0,0.33,0.16,0.51,0.5,0.49
			c0.35-0.02,0.69-0.06,1.03-0.09c-0.04,0.21-0.4,0.18-0.34,0.46c0.05,0.24-0.1,0.41-0.18,0.62c-0.15,0.39-0.56,0.67-0.5,1.15
			c0,0,0,0,0,0c-0.47,0-0.45,0.35-0.48,0.66C41.18,40.36,40.94,40.27,40.72,40.4z M28,41.07c-0.12,0.08-0.34,0.16-0.22,0.33
			c0.22,0.31,0.53,0.7,0.85,0.72c0.56,0.02,1.11,0.15,1.68,0.08c0.57-0.07,1.1-0.15,1.46-0.66c0.11-0.15,0.27-0.27-0.02-0.38
			C30.81,40.44,29.16,40.4,28,41.07z"/>
		<path class="st15" d="M41.88,39.66c-0.06-0.48,0.35-0.76,0.5-1.15c0.08-0.2,0.24-0.38,0.18-0.62c-0.06-0.29,0.3-0.26,0.34-0.46
			c0.39-0.69,0.63-1.44,0.86-2.2c0.07-0.05,0.11-0.13,0.07-0.21c-0.43-0.82-0.31-1.65-0.09-2.49c0.06-0.22,0.16-0.37,0.33-0.5
			c0.36-0.28,0.44-0.61,0.23-1.03c-0.19-0.38-0.44-0.72-0.69-1.07c-0.67-0.9-1.35-1.78-1.9-2.77c-0.12-0.22-0.45-0.51-0.06-0.8
			c0.04,0.12,0.08,0.24,0.12,0.36c0.24,0.83,0.83,1.45,1.33,2.12c0.51,0.69,1.05,1.36,1.44,2.13c0.25,0.5,0.41,1.03,0.37,1.65
			c-0.28-0.22-0.33-0.12-0.37,0.18C44.25,35.32,43.34,37.6,41.88,39.66z"/>
		<path class="st15" d="M40.72,40.4c0.22-0.13,0.46-0.03,0.68-0.07c-0.11,0.17-0.22,0.34-0.33,0.51c-0.18,0.18-0.35,0.36-0.53,0.54
			c-0.03-0.02-0.05-0.05-0.08-0.07c0.05-0.18,0.11-0.37,0.16-0.55c0.06,0,0.11-0.01,0.17-0.01c-0.05-0.02-0.1-0.04-0.14-0.06
			C40.67,40.58,40.7,40.49,40.72,40.4z"/>
		<path class="st15" d="M31.03,21.52c-0.17,0.33-1.02,0.49-1.24,0.23c-0.02-0.02,0.02-0.09,0.04-0.13c0.18,0,0.36,0,0.53,0
			c0.1,0.16,0.17,0.13,0.21-0.04C30.72,21.56,30.88,21.54,31.03,21.52z"/>
		<path class="st15" d="M40.65,40.68c0.05,0.02,0.1,0.04,0.14,0.06c-0.06,0-0.11,0.01-0.17,0.01C40.62,40.72,40.62,40.7,40.65,40.68
			z"/>
		<path class="st15" d="M41.65,26.09c-0.04,0-0.11-0.01-0.11-0.01c0-0.1,0.06-0.06,0.12-0.05C41.66,26.05,41.65,26.07,41.65,26.09z"
			/>
		<path class="st15" d="M40.54,41.38c-0.02,0.04-0.06,0.08-0.1,0.04c-0.02-0.01,0.01-0.07,0.02-0.11
			C40.49,41.33,40.52,41.36,40.54,41.38z"/>
		<path class="st15" d="M41.4,40.33c0.03-0.31,0.01-0.67,0.48-0.66C41.73,39.88,41.56,40.11,41.4,40.33z"/>
		<path class="st15" d="M40.99,29.13c0.1-0.16-0.05-0.33,0-0.49c0.19-0.01,0.3,0.07,0.29,0.28c-0.01,0.19,0.01,0.38,0,0.57
			c-0.05,0.83,0.21,1.53,0.86,2.07c0.3,0.24,0.4,0.53,0.18,0.88c-0.03,0.05-0.08,0.14-0.06,0.17c0.4,0.59-0.15,1.26,0.14,1.86
			c0.06,0.13-0.06,0.23-0.18,0.3c-0.24,0.13-0.49,0.25-0.76,0.27c-0.2,0.02-0.29,0.1-0.28,0.3c0,0.06,0,0.13,0,0.19
			c0,0.24,0,0.47,0,0.71c0.01,0.31-0.01,0.6-0.42,0.67c-0.3,0.05-0.3,0.54-0.67,0.52c0.73-1.22,1.05-2.54,0.88-4.01
			c0.53,0.16,0.76,0.59,1.12,1.04c0.11-1.62-0.26-2.99-1.25-4.26c-0.15,0.71-0.24,1.34-0.63,1.89c0.08-1.34-0.03-2.64-0.57-3.94
			c0.65,0.11,0.95,0.62,1.36,0.98c0.01,0.01,0.02,0.02,0.03,0.03c0,0,0.01-0.01,0.02-0.01C41.02,29.13,41.01,29.13,40.99,29.13z"/>
		<path class="st15" d="M41.19,35.52c0-0.06,0-0.13,0-0.19c0.4-0.18,0.84-0.26,1.25-0.41c0.47-0.17,0.9,0.12,1.33,0.31
			c-0.23,0.76-0.47,1.51-0.86,2.2c-0.34,0.03-0.69,0.07-1.03,0.09c-0.33,0.02-0.5-0.16-0.5-0.49c0-0.38,0-0.76,0-1.14
			C41.37,35.74,41.41,35.56,41.19,35.52z"/>
		<path class="st15" d="M26.94,37.46c-0.46-0.28-0.38-0.71-0.32-1.28c0.19,0.43,0.33,0.35,0.55,0.15c1.57-1.44,4.12-1.36,5.44,0.14
			c-0.07,0.04-0.13,0.08-0.2,0.13c-0.44,0.34-1.06,0.34-1.49,0c-0.04-0.03-0.02-0.11-0.03-0.17c0.39,0.04,0.74,0.19,1.16,0.38
			c-0.03-0.13-0.03-0.19-0.06-0.23c-0.84-1.08-3.74-0.96-4.52,0.19c-0.09,0.13,0.07,0.07,0.12,0.09c0.35,0.1,0.01,0.16-0.02,0.19
			c-0.1,0.1-0.19,0.09-0.23-0.07c-0.03-0.11,0.03-0.28-0.16-0.29c-0.12-0.01-0.2,0.09-0.26,0.18c-0.1,0.15-0.03,0.27,0.09,0.37
			C27.12,37.35,27.22,37.44,26.94,37.46z"/>
		<path class="st15" d="M32.69,36.55c0.21,0.06,0.18-0.21,0.37-0.25c0.03,0.44,0.13,0.87-0.33,1.16c-0.05-0.03-0.21-0.03-0.12-0.11
			C32.91,37.09,32.86,36.84,32.69,36.55z"/>
		<path class="st15" d="M40.88,28.21c-0.13-0.36-0.26-0.72-0.38-1.08C40.83,27.31,41,27.79,40.88,28.21z"/>
		<path class="st15" d="M40.5,27.12c-0.1-0.22-0.21-0.45-0.31-0.67C40.63,26.52,40.61,26.8,40.5,27.12z"/>
		<path class="st15" d="M39.82,25.78c-0.07-0.1-0.13-0.2-0.2-0.3C39.78,25.52,40.02,25.5,39.82,25.78z"/>
		<path class="st15" d="M40.09,26.27c-0.04-0.06-0.07-0.13-0.11-0.19c0.07,0,0.15-0.02,0.19,0.06
			C40.2,26.21,40.13,26.23,40.09,26.27z"/>
		<path class="st15" d="M39.33,25.04c0.02-0.02,0.04-0.03,0.05-0.05c-0.01,0.02-0.03,0.04-0.04,0.06
			C39.34,25.05,39.33,25.04,39.33,25.04z"/>
		<path class="st15" d="M31.26,33.43c0.28,0,0.56,0,0.86,0c-0.58-1.11-3.76-1.22-4.61,0c0.31,0,0.58,0,0.85,0
			c-0.76,0.19-1.44,0.54-2.12,1.11c0-0.51,0-0.89,0-1.31c-0.42,0.2-0.77,0.47-1.21,0.48c-0.02-0.08-0.03-0.16-0.13-0.17
			c-0.13-0.01-0.14,0.09-0.15,0.19c-0.24,0.02-0.47,0.02-0.7-0.06c-0.03-0.24,0.03-0.37,0.32-0.35c0.2,0.02,0.42-0.01,0.46-0.29
			c0-0.06,0.03-0.14-0.06-0.16c-0.7-0.13-1.26-0.54-1.85-0.9c-0.34-0.48-0.8-0.87-1.07-1.4c-0.08-0.16-0.17-0.05-0.25,0.02
			c-0.38,0.11-0.45,0.58-0.83,0.74c0.26-0.91,0.59-1.73,1.09-2.49c0.32-0.48,0.74-0.67,1.28-0.69c0.38-0.01,0.76-0.02,1.14-0.03
			c0.28,0.05,0.54,0.18,0.88,0.13c-0.27-0.51-0.62-0.91-1.09-1.3c0.2-0.06,0.34-0.01,0.49,0.06c0.86,0.51,1.61,1.13,2.16,1.98
			c0.07,0.1,0.13,0.22,0.28,0.24c0.07,0.45,0.37,0.79,0.57,1.26c0.17-0.37,0.26-0.66,0.16-0.99c-0.03-0.22-0.07-0.43-0.1-0.65
			c-0.03-0.17,0.07-0.13,0.16-0.11c0.45,0.43,0.82,0.92,1.04,1.51c0.08,0.23,0.19,0.23,0.39,0.17c0.42-0.12,0.85-0.13,1.26,0.01
			c0.2,0.07,0.29,0.01,0.35-0.17c0.22-0.61,0.6-1.11,1.08-1.54c0.23,0.02,0.12,0.2,0.09,0.27c-0.08,0.16-0.09,0.32-0.07,0.49
			c-0.01,0.32-0.07,0.64,0.21,0.95c0.19-0.41,0.36-0.77,0.54-1.14c0.49-0.55,0.91-1.16,1.45-1.67c0.25-0.17,0.5-0.35,0.75-0.52
			c0.07-0.03,0.14-0.07,0.22-0.09c0.11-0.03,0.24-0.16,0.33-0.01c0.07,0.12-0.09,0.18-0.16,0.25c-0.28,0.29-0.55,0.59-0.74,0.98
			c0.34,0.06,0.63-0.09,0.93-0.13c0.38,0.01,0.76,0.02,1.14,0.04c0.52,0.02,0.95,0.2,1.22,0.68c0.23,0.4,0.51,0.76,0.63,1.21
			c-0.11,0.17-0.14,0.38-0.31,0.51l-0.05,0l-0.04,0l0,0c-0.06-0.14-0.12-0.16-0.19-0.01c-0.3,0.5-0.67,0.93-1.07,1.35
			c-0.58,0.46-1.21,0.84-2.02,1c0.42,0.34,0.84,0.35,1.26,0.36c0.16,0,0.34-0.14,0.48,0.06c-1.02,0.59-2.04,0.59-3.06-0.1
			c-0.04,0.46,0.07,0.85-0.06,1.29C32.73,33.95,32.04,33.6,31.26,33.43z M34,31.65c1.08-0.22,1.44-0.78,1.18-1.86
			c-0.24,0.11-0.5,0.18-0.7,0.37c-0.88,0.48-1.58,1.17-2.26,2.05C32.9,32.02,33.47,31.91,34,31.65z M25.03,30.08
			c-0.12-0.07-0.24-0.14-0.36-0.21c-0.19-0.11-0.3-0.08-0.28,0.16c0.08,1.16,0.24,1.45,1.33,1.63c0.51,0.28,1.07,0.36,1.73,0.56
			C26.73,31.27,25.99,30.55,25.03,30.08z"/>
		<path class="st15" d="M23.73,33.52c-0.23,0.03-0.38-0.17-0.58-0.23c0-0.05-0.07-0.13,0.06-0.1c0.56,0.12,1.09,0.06,1.62-0.16
			c-0.04,0.28-0.26,0.31-0.46,0.29c-0.29-0.03-0.35,0.11-0.32,0.35c-0.06-0.02-0.11-0.04-0.17-0.06
			C23.83,33.58,23.78,33.55,23.73,33.52z"/>
		<path class="st15" d="M25.03,33.7c-0.09,0.01-0.19,0.01-0.28,0.02c0.01-0.09,0.02-0.19,0.15-0.19C25,33.54,25.01,33.63,25.03,33.7
			z"/>
		<path class="st15" d="M23.73,33.52c0.05,0.03,0.1,0.06,0.15,0.08C23.81,33.61,23.76,33.59,23.73,33.52z"/>
	</g>
</g>
</svg>
