<?xml version="1.0" encoding="utf-8"?>
<!-- Generator: Adobe Illustrator 27.9.0, SVG Export Plug-In . SVG Version: 6.00 Build 0)  -->
<svg version="1.1" id="Capa_1" xmlns="http://www.w3.org/2000/svg" xmlns:xlink="http://www.w3.org/1999/xlink" x="0px" y="0px"
	 viewBox="0 0 44 44" style="enable-background:new 0 0 44 44;" xml:space="preserve">
<style type="text/css">
	.st0{fill:#AEFB07;stroke:#000000;stroke-width:0.25;stroke-miterlimit:10;}
	.st1{fill:#AEFB07;}
	.st2{fill:#3333FF;stroke:#000000;stroke-width:0.25;stroke-miterlimit:10;}
</style>
<g>
	<g>
		<path class="st0" d="M35.97,34c-1.06,1.3-2.23,2.51-3.42,3.71c0-0.36,0.21-0.67,0.19-1.11c-1.58,1.46-3.49,2.18-5.29,3.11
			c-1.64,0.85-3.25,1.79-4.92,2.61c-0.36,0.18-0.65,0.2-1.01,0.01c-1.58-0.81-3.24-1.47-4.69-2.53c-0.22-0.16-0.5-0.27-0.76-0.36
			c-1.71-0.62-3.25-1.51-4.64-2.7c-0.05-0.03-0.12-0.08-0.13-0.07c-0.07,0.07-0.04,0.14,0.03,0.19c-0.01,0.31,0.22,0.58,0.16,0.9
			c-3.78-3.82-7.29-7.83-8.58-13.31c-0.03-0.14,0.07-0.47-0.32-0.28c-0.14,0.07-0.13-0.2-0.17-0.33c-0.89-2.71,0.01-4.97,1.69-7.05
			c0.67-0.82,1.3-1.67,1.83-2.6c0.21-0.37,0.27-0.67,0.02-1.07c-0.42-0.65-0.64-1.4-0.82-2.2c-0.55,0.43-0.92,0.99-1.52,1.59
			c0.37-2.17,0.27-4.24,1.15-6.13c0.86-1.86,2.3-3.06,4.18-3.78C8.76,2.23,8.3,2.15,8.04,1.73c2.6-0.08,5.18-0.66,7.62,0.68
			c1.14,0.63,2.04,1.53,2.96,2.43c0.73,0.72,1.54,1.25,2.57,1.38c0.16,0.01,0.32,0.03,0.48,0.04c0.17,0.09,0.35,0.09,0.53,0.04
			c0.23-0.03,0.46-0.06,0.7-0.09c1-0.14,1.81-0.65,2.51-1.35C26.2,4.07,27,3.25,27.97,2.65c1.31-0.81,2.74-1.16,4.27-1.11
			c1.23,0.04,2.45,0.12,3.85,0.19c-0.41,0.33-0.71,0.57-1.06,0.85c1.51,0.6,2.75,1.46,3.65,2.77c0.66,0.96,1.06,2.03,1.23,3.17
			c0.19,1.27,0.31,2.55,0.49,3.99c-0.55-0.61-1-1.09-1.47-1.62c-0.23,0.89-0.48,1.71-0.94,2.43c-0.2,0.31-0.01,0.54,0.04,0.81
			c-0.4,0-0.79,0-1.19-0.01c-0.05-0.15-0.1-0.31-0.15-0.46c0-0.12,0-0.24,0-0.36c0-0.03,0-0.05,0.01-0.08
			c1.02-1.5,1.28-3.21,1.3-5.06c0.28,0.27,0.5,0.47,0.82,0.79C38.12,5.14,35.7,3.6,32.35,3.2c-0.02-0.25,0.32-0.2,0.27-0.46
			c-0.83-0.02-1.64,0.01-2.45,0.22c-1.35,0.36-2.42,1.18-3.38,2.17c-1.02,1.05-2.11,1.95-3.58,2.27c-0.19,0.03-0.39,0.05-0.58,0.08
			c-0.09,0.02-0.18,0.04-0.27,0.05c-0.23,0-0.45,0-0.68-0.01c-1.73-0.16-3.13-0.96-4.3-2.25c-0.32-0.36-0.71-0.68-1.08-0.99
			c-1.43-1.22-3.08-1.68-4.93-1.53c0,0.24,0.33,0.2,0.29,0.44C7.33,3.66,5.5,6.36,5.42,8.91C5.58,8.65,5.74,8.4,5.9,8.15
			c0.18,1.63,0.3,3.15,1.12,4.47c0.42,0.68,0.38,1.3,0.04,1.96c-0.46,0.9-1.09,1.67-1.68,2.47c-0.84,1.15-1.75,2.26-2.09,3.71
			c-0.08,0.32-0.08,0.64-0.03,1c0.06-0.05,0.11-0.08,0.15-0.11c0.06-0.03,0.09-0.15,0.21-0.05C4.11,26,5.93,29.78,8.8,33.14
			c0.12-0.58-0.25-1-0.23-1.51c0.93,1.26,1.83,2.53,2.96,3.61c1.14,1.07,2.34,2.04,3.93,2.64c-0.2-0.48-0.34-0.82-0.48-1.16
			c0.04-0.04,0.08-0.07,0.12-0.11c1.25,1.37,2.62,2.6,4.31,3.37c0.06,0.04,0.12,0.1,0.17,0.01c0.01-0.02-0.04-0.09-0.06-0.13
			c-0.21-0.41-0.41-0.82-0.62-1.23c0.03-0.03,0.07-0.06,0.1-0.1c0.69,0.45,1.36,0.93,2.08,1.34c0.65,0.37,1.21,0.38,1.84-0.01
			c0.65-0.4,1.33-0.76,1.92-1.25c0.11-0.09,0.22-0.27,0.41-0.12c0,0-0.01,0-0.01,0c-0.3,0.51-0.6,1.01-0.91,1.52
			c1.87-0.76,3.37-1.99,4.71-3.65c-0.03,0.62-0.38,1-0.46,1.54c1.18-0.48,2.15-1.14,3.07-1.91c1.43-1.2,2.6-2.63,3.59-4.21
			c0.06-0.09,0.16-0.42,0.23,0c-0.03,0.12-0.06,0.24-0.09,0.37c-0.04,0.02-0.05,0.06-0.03,0.1c-0.07,0.24-0.14,0.48-0.21,0.71
			c-0.01,0.05-0.04,0.13-0.03,0.15c0.05,0.05,0.1,0,0.13-0.05c0.22-0.23,0.45-0.47,0.67-0.7c0.01,0.22,0.11,0.48-0.06,0.64
			C35.46,33.38,35.64,33.69,35.97,34z"/>
		<path class="st0" d="M36.83,14.13c0.4,0,0.79,0,1.19,0.01c0.93,1.53,2.17,2.84,3.06,4.4c0.56,0.99,0.91,2.07,0.85,3.19
			c-0.04,0.72-0.13,1.47-0.32,2.19c-0.03,0.12,0.01,0.32-0.29,0.21c-0.26-0.1-0.17,0.26-0.2,0.39c-0.63,2.41-1.61,4.67-2.99,6.73
			c-0.65,0.97-1.29,1.96-2.15,2.76c-0.33-0.32-0.51-0.63-0.09-1.03c0.16-0.15,0.07-0.42,0.06-0.64c0.14-0.22,0.28-0.44,0.42-0.66
			c0.2-0.29,0.41-0.57,0.61-0.86c0,0,0,0,0,0c1.85-2.66,3-5.6,3.37-8.84c0.05-0.39,0.11-0.52,0.47-0.24
			c0.05-0.8-0.15-1.48-0.47-2.13c-0.49-1-1.17-1.86-1.82-2.75C37.89,16,37.14,15.2,36.83,14.13z"/>
	</g>
	<path class="st1" d="M15.63,16.27c1.22,0.61,2.15,1.54,3.06,2.75c-0.83-0.26-1.55-0.36-2.19-0.72
		C16.14,17.66,15.58,17.11,15.63,16.27z"/>
	<path class="st1" d="M27,18.3c-0.67,0.33-1.39,0.48-2.25,0.71c0.86-1.14,1.75-2.02,2.86-2.64c0.3,0.22,0.09,0.47,0.04,0.71
		C27.54,17.54,27.11,17.83,27,18.3z"/>
	<path class="st1" d="M15.63,16.27c-0.06,0.83,0.5,1.39,0.87,2.03c-1.39-0.23-1.58-0.61-1.69-2.1c-0.02-0.31,0.12-0.35,0.36-0.21
		C15.33,16.09,15.48,16.18,15.63,16.27z"/>
	<path class="st1" d="M27,18.3c0.11-0.47,0.54-0.75,0.65-1.22c0.06-0.24,0.27-0.49-0.04-0.71c0.25-0.24,0.58-0.33,0.88-0.47
		C28.82,17.3,28.36,18.02,27,18.3z"/>
	<g>
		<path class="st2" d="M23.56,20.55c0.35,0,0.71,0,1.09,0c-0.74-1.44-4.77-1.57-5.84,0c0.4,0,0.74,0,1.08,0
			c-0.96,0.25-1.83,0.69-2.69,1.43c0-0.65,0-1.15,0-1.69c-0.54,0.26-0.98,0.6-1.53,0.61c-0.02-0.1-0.04-0.21-0.16-0.21
			c-0.16-0.01-0.18,0.12-0.19,0.24c-0.3,0.03-0.6,0.03-0.88-0.08c-0.04-0.31,0.04-0.48,0.41-0.45c0.26,0.02,0.53-0.02,0.58-0.37
			c0-0.08,0.03-0.18-0.08-0.2c-0.88-0.17-1.59-0.7-2.34-1.16c-0.43-0.62-1.01-1.12-1.36-1.81c-0.11-0.21-0.22-0.07-0.31,0.02
			c-0.49,0.14-0.57,0.74-1.05,0.96c0.33-1.17,0.75-2.24,1.38-3.22c0.4-0.62,0.93-0.87,1.62-0.89c0.48-0.02,0.96-0.03,1.45-0.04
			c0.35,0.06,0.69,0.23,1.12,0.17c-0.34-0.66-0.79-1.18-1.38-1.67c0.25-0.08,0.44-0.02,0.62,0.07c1.09,0.65,2.04,1.46,2.74,2.56
			c0.08,0.13,0.17,0.28,0.35,0.31c0.09,0.58,0.46,1.02,0.72,1.62c0.21-0.48,0.33-0.86,0.21-1.27c-0.04-0.28-0.08-0.56-0.13-0.83
			c-0.04-0.22,0.09-0.16,0.21-0.14c0.57,0.55,1.04,1.19,1.32,1.94c0.11,0.3,0.24,0.3,0.49,0.22c0.53-0.15,1.07-0.16,1.6,0.02
			c0.25,0.09,0.36,0.02,0.45-0.22c0.28-0.78,0.76-1.43,1.36-1.98c0.29,0.03,0.16,0.26,0.11,0.35c-0.1,0.21-0.11,0.41-0.08,0.63
			c-0.01,0.41-0.09,0.83,0.26,1.23c0.24-0.53,0.46-1,0.68-1.47c0.62-0.71,1.15-1.5,1.83-2.16c0.32-0.22,0.63-0.45,0.95-0.67
			c0.09-0.04,0.18-0.09,0.27-0.12c0.14-0.04,0.31-0.2,0.42-0.01c0.09,0.16-0.11,0.23-0.2,0.32c-0.36,0.38-0.7,0.76-0.94,1.26
			c0.43,0.08,0.8-0.12,1.18-0.17c0.48,0.02,0.96,0.03,1.44,0.05c0.66,0.03,1.2,0.26,1.55,0.88c0.29,0.51,0.65,0.98,0.8,1.56
			c-0.13,0.22-0.18,0.49-0.4,0.66l-0.06,0l-0.06,0.01l0,0c-0.07-0.18-0.15-0.2-0.23-0.01c-0.38,0.64-0.85,1.2-1.35,1.75
			c-0.74,0.6-1.53,1.08-2.56,1.29c0.53,0.44,1.06,0.45,1.6,0.46c0.2,0,0.43-0.18,0.6,0.07c-1.29,0.76-2.58,0.76-3.87-0.13
			c-0.05,0.59,0.09,1.1-0.08,1.66C25.43,21.22,24.55,20.77,23.56,20.55z M27.03,18.26c1.36-0.28,1.82-1,1.5-2.4
			c-0.31,0.15-0.63,0.23-0.88,0.47c-1.12,0.63-2,1.51-2.86,2.64C25.64,18.74,26.36,18.59,27.03,18.26z M15.67,16.23
			c-0.15-0.09-0.31-0.18-0.46-0.27c-0.24-0.15-0.38-0.11-0.36,0.21c0.1,1.49,0.3,1.87,1.69,2.1c0.64,0.36,1.35,0.46,2.19,0.72
			C17.82,17.77,16.88,16.84,15.67,16.23z"/>
	</g>
</g>
</svg>
