<?xml version="1.0" encoding="utf-8"?>
<!-- Generator: Adobe Illustrator 27.9.0, SVG Export Plug-In . SVG Version: 6.00 Build 0)  -->
<svg version="1.1" id="Capa_1" xmlns="http://www.w3.org/2000/svg" xmlns:xlink="http://www.w3.org/1999/xlink" x="0px" y="0px"
	 viewBox="0 0 15 15" style="enable-background:new 0 0 15 15;" xml:space="preserve">
<style type="text/css">
	.st0{fill:#4D50B3;}
	.st1{fill:#AFFE00;}
	.st2{fill:none;stroke:#AFFE00;stroke-width:0.25;stroke-miterlimit:10;}
</style>
<rect class="st0" width="15" height="15"/>
<path class="st1" d="M9,2H6C3.8,2,2,3.8,2,6v3.1c0,2.2,1.8,4,4,4H9c2.2,0,4-1.8,4-4V6C13,3.8,11.2,2,9,2z M12.5,9.1
	c0,1.9-1.5,3.4-3.4,3.4H6c-1.9,0-3.4-1.5-3.4-3.4V6c0-1.9,1.5-3.4,3.4-3.4H9c1.9,0,3.4,1.5,3.4,3.4V9.1z"/>
<path class="st2" d="M4.7,7.3L10,5.1c0.3-0.1,0.5,0.1,0.5,0.4L9.8,9.6C9.8,10,9.4,10.1,9.1,10L7.2,8.7C7.1,8.6,7,8.4,7.2,8.2L9,6.5
	c0,0,0-0.1,0-0.2l0,0c0,0-0.1,0-0.1,0L6.4,7.9C6.2,8.1,6,8.1,5.7,8l-1-0.3C4.5,7.7,4.5,7.4,4.7,7.3z"/>
</svg>
