<?xml version="1.0" encoding="utf-8"?>
<!-- Generator: Adobe Illustrator 27.9.0, SVG Export Plug-In . SVG Version: 6.00 Build 0)  -->
<svg version="1.1" id="Capa_1" xmlns="http://www.w3.org/2000/svg" xmlns:xlink="http://www.w3.org/1999/xlink" x="0px" y="0px"
	 viewBox="0 0 612 481" style="enable-background:new 0 0 612 481;" xml:space="preserve">
<style type="text/css">
	.st0{fill:#AFFE00;}
	.st1{fill:#0A0C25;}
	.st2{fill:none;stroke:#4D50B3;}
	.st3{fill:none;stroke:#4D50B3;stroke-width:0.5;stroke-miterlimit:10;}
	.st4{fill:#AEFB07;}
	.st5{fill:#030303;}
	.st6{fill:#F1EFF0;}
	.st7{fill:#9D9C9C;}
	.st8{fill:#9D9B9F;}
	.st9{fill:#EFECEF;}
	.st10{fill:#3333FF;}
	.st11{fill:#9B999C;}
	.st12{fill:#EBEAEB;}
	.st13{fill:#1F050E;}
	.st14{fill:#050407;}
	.st15{fill:#8589FF;}
	.st16{fill:#060406;}
	.st17{fill:#141215;}
	.st18{fill:#05051A;}
	.st19{opacity:0.04;}
	.st20{fill:none;stroke:#4D50B3;stroke-width:0.5;}
</style>
<path class="st0" d="M0,0h612v481H0V0z"/>
<path class="st1" d="M69.48,43H11v415h79.85l5.36,4.5h40.28l4.5-4.5h109.5l10,10h264.2l23.87-32H600V23.5h-68l-6.5-5.5H394.38
	l-6.12,5.5H210.09l-9.39-10H93.99L69.48,43z"/>
<path class="st2" d="M188.88,2.46l9.47,7.99L97,10.51l9.46-8.01L188.88,2.46z"/>
<path class="st2" d="M286.51,479.04l-24.51-8h262.3l-24.51,8H286.51z"/>
<g>
	<path class="st3" d="M248.17,3.53V2.08h1.81h1.81v1.45v1.45h3.62h3.62v1.45v1.45h-3.62h-3.62v1.45v1.45h3.62h3.62v1.45v1.45h1.81
		h1.81v1.45v1.45h-1.76h-1.81v1.45v1.45h-3.62h-3.62v1.45v1.4h-1.81h-1.81v-1.45v-1.45h-5.43h-5.43v-1.45v-1.45h5.43h5.43v-1.45
		v-1.45h-3.62h-3.62v-1.45v-1.45h-1.81h-1.81V9.27V7.82h1.81h1.81V6.37V4.93h3.62h3.62v-1.4H248.17z M248.17,9.32V7.87h-1.81h-1.81
		v1.45v1.45h1.81h1.81V9.32z M255.46,15.12v-1.45h-1.81h-1.81v1.45v1.45h1.81h1.81V15.12z"/>
	<path class="st3" d="M270,3.53V2.08h9.1h9.1v1.45v1.45h1.81h1.81v5.79v5.79h-1.81h-1.81v1.45v1.45h1.81h1.81v1.45v1.4h-1.81h-1.81
		v-1.45v-1.45h-1.81h-1.81v1.45v1.45h-7.29H270v-1.45v-1.45h-1.81h-1.81v-7.24V4.93h1.81H270V3.53z M284.53,9.32V4.98h-5.43h-5.43
		v7.24v7.24h3.62h3.62v-1.45v-1.45h-1.81h-1.81v-1.45v-1.45h3.62h3.62V9.32z"/>
	<path class="st3" d="M296.48,2.39h15.98v1.14h1.45v8.07h-2.9v1.14h-1.45v1.14h-8.74v4.6h10.19v1.24h1.45v1.14h1.45V22h-15.98v-1.14
		h-1.45v-8.07h2.9v-1.14h1.45v-1.14h8.74v-4.6h-10.19V4.72h-1.45V3.53h-1.45V2.39z M297.93,20.91h1.45v-1.19h-1.45V20.91z
		 M299.38,13.93h1.45v-1.14h-1.45V13.93z M299.38,19.72h1.45v-1.14h-1.45V19.72z M309.57,5.86h1.45V4.72h-1.45V5.86z M309.57,11.65
		h1.45v-1.14h-1.45V11.65z M311.02,4.72h1.45V3.53h-1.45V4.72z"/>
	<path class="st3" d="M316.86,3.53h1.45V2.39h14.54v1.14h1.45v8.07h-2.9v-1.14h-1.45v-4.6h-8.74v4.6h-1.45v1.14h-2.9V3.53z
		 M316.86,12.79h2.9v1.14h1.45v4.6h8.74v-4.6h1.45v-1.14h2.9v8.07h-1.45V22h-14.54v-1.14h-1.45V12.79z M318.31,4.72h1.45V3.53h-1.45
		V4.72z M318.31,20.91h1.45v-1.19h-1.45V20.91z M319.76,5.86h1.45V4.72h-1.45V5.86z M319.76,19.72h1.45v-1.14h-1.45V19.72z
		 M329.95,5.86h1.45V4.72h-1.45V5.86z M329.95,19.72h1.45v-1.14h-1.45V19.72z M331.4,4.72h1.45V3.53h-1.45V4.72z M331.4,20.91h1.45
		v-1.19h-1.45V20.91z"/>
	<path class="st3" d="M337.24,2.39h1.45v1.14h1.45v1.19h1.45v5.79h8.74V4.72h1.45V3.53h1.45V2.39h1.45v9.26h-2.9v1.14h2.9v9.26
		h-1.45v-1.14h-1.45v-1.19h-1.45v-5.79h-8.74v-1.14h-1.45v-1.14h-2.9V2.39z M340.14,11.65h1.45v-1.14h-1.45V11.65z M350.33,11.65
		h1.45v-1.14h-1.45V11.65z M350.33,13.93h1.45v-1.14h-1.45V13.93z"/>
	<path class="st3" d="M357.57,3.53h1.45V2.39h14.54v1.14h1.45v8.07h-2.9v1.14h2.9v8.07h-1.45v1.14h-14.54v-1.14h1.45v-1.09h1.45
		v-1.14h8.74v-4.6h-8.74v-1.14h-1.45V11.7h-2.9V3.53L357.57,3.53z M359.07,4.72h1.45V3.53h-1.45V4.72z M360.52,5.86h1.45V4.72h-1.45
		V5.86z M360.52,11.65h1.45v-1.14h-1.45V11.65z M361.97,10.46h8.74v-4.6h-8.74V10.46z M370.71,5.86h1.45V4.72h-1.45V5.86z
		 M370.71,11.65h1.45v-1.14h-1.45V11.65z M370.71,13.93h1.45v-1.14h-1.45V13.93z M370.71,19.72h1.45v-1.14h-1.45V19.72z
		 M372.16,4.72h1.45V3.53h-1.45V4.72z M372.16,20.91h1.45v-1.19h-1.45V20.91z"/>
	<path class="st3" d="M247.86,3.27V1.82h1.81h1.81v1.45v1.45h3.62h3.62v1.45v1.45h-3.62h-3.62v1.45v1.45h3.62h3.62v1.45v1.45h1.81
		h1.81v1.45v1.45h-1.81h-1.81v1.45v1.45h-3.62h-3.62v1.45v1.45h-1.81h-1.81v-1.45V19.2h-5.43h-5.43v-1.45v-1.45h5.43h5.43v-1.45
		v-1.45h-3.62h-3.62v-1.45v-1.45h-1.81h-1.81V9.06V7.62h1.81h1.81V6.17V4.72h3.62h3.62V3.27z M247.86,9.06V7.62h-1.81h-1.81v1.45
		v1.45h1.81h1.81V9.06z M255.1,14.86v-1.45h-1.81h-1.81v1.45v1.45h1.81h1.81V14.86z"/>
	<path class="st3" d="M269.64,3.27V1.82h9.1h9.1v1.45v1.45h1.81h1.81v5.79v5.79h-1.81h-1.81v1.45v1.45h1.81h1.81v1.45v1.45h-1.81
		h-1.81v-1.45V19.2h-1.81h-1.81v1.45v1.45h-7.29h-7.29v-1.45V19.2h-1.81h-1.81v-7.24V4.72h1.81h1.81V3.27z M284.22,9.06V4.72h-5.43
		h-5.48v7.24v7.24h3.62h3.62v-1.45v-1.45h-1.81h-1.81v-1.45v-1.45h3.62h3.62V9.06H284.22z"/>
	<path class="st3" d="M296.12,2.13h15.98v1.14h1.45v8.07h-2.9v1.14h-1.45v1.14h-8.74v4.6h10.19v1.14h1.45v1.14h1.45v1.29h-15.98
		v-1.14h-1.45v-8.12h2.9v-1.14h1.45v-1.14h8.74v-4.6h-10.19V4.46h-1.45V3.27h-1.45V2.13z M297.57,20.6h1.45v-1.14h-1.45V20.6z
		 M299.07,13.67h1.45v-1.14h-1.45V13.67z M299.07,19.46h1.45v-1.14h-1.45V19.46z M309.21,5.6h1.45V4.46h-1.45V5.6z M309.21,11.39
		h1.45v-1.14h-1.45V11.39z M310.71,4.46h1.45V3.27h-1.45V4.46z"/>
	<path class="st3" d="M316.5,3.27h1.45V2.13h14.54v1.14h1.45v8.07h-2.9V10.2h-1.45V5.6h-8.74v4.6h-1.45v1.14h-2.9V3.27z
		 M316.5,12.53h2.9v1.14h1.45v4.6h8.74v-4.6h1.45v-1.14h2.9v8.07h-1.45v1.19h-14.54v-1.14h-1.45V12.53z M317.95,4.46h1.45V3.27
		h-1.45V4.46z M317.95,20.6h1.45v-1.14h-1.45V20.6z M319.4,5.6h1.45V4.46h-1.45V5.6z M319.4,19.46h1.45v-1.14h-1.45V19.46z
		 M329.59,5.6h1.45V4.46h-1.45V5.6z M329.59,19.46h1.45v-1.14h-1.45V19.46z M331.04,4.46h1.45V3.27h-1.45V4.46z M331.04,20.6h1.45
		v-1.14h-1.45V20.6z"/>
	<path class="st3" d="M336.88,2.13h1.45v1.14h1.45v1.14h1.45v5.79h8.74V4.46h1.45V3.27h1.45V2.13h1.45v9.26h-2.9v1.14h2.9v9.26
		h-1.45v-1.14h-1.45v-1.14h-1.45v-5.85h-8.74v-1.14h-1.45v-1.14h-2.9V2.13L336.88,2.13z M339.78,11.39h1.45v-1.14h-1.45V11.39z
		 M349.97,11.39h1.45v-1.14h-1.45V11.39z M349.97,13.67h1.45v-1.14h-1.45V13.67z"/>
	<path class="st3" d="M357.26,3.27h1.45V2.13h14.54v1.14h1.45v8.07h-2.9v1.14h2.9v8.07h-1.45v1.24h-14.54v-1.14h1.45v-1.14h1.45
		v-1.14h8.74v-4.6h-8.74v-1.14h-1.45V11.5h-2.9L357.26,3.27L357.26,3.27z M358.71,4.46h1.45V3.27h-1.45V4.46z M360.16,5.6h1.45V4.46
		h-1.45V5.6z M360.16,11.39h1.45v-1.14h-1.45V11.39z M361.61,10.2h8.74V5.6h-8.74V10.2z M370.35,5.6h1.45V4.46h-1.45V5.6z
		 M370.35,11.39h1.45v-1.14h-1.45V11.39z M370.35,13.67h1.45v-1.14h-1.45V13.67z M370.35,19.46h1.45v-1.14h-1.45V19.46z M371.8,4.46
		h1.45V3.27h-1.45V4.46z M371.8,20.6h1.45v-1.14h-1.45V20.6z"/>
	<path class="st3" d="M248.01,3.43V1.98h1.81h1.81v1.45v1.45h3.62h3.62v1.45v1.45h-3.62h-3.62v1.45v1.45h3.62h3.62v1.45v1.4h1.81
		h1.81v1.45v1.45h-1.81h-1.81v1.45v1.45h-3.62h-3.62v1.45v1.45h-1.81h-1.81v-1.45v-1.45h-5.43h-5.48v-1.45v-1.45h5.43h5.43v-1.45
		v-1.45h-3.62h-3.62v-1.45v-1.45h-1.81h-1.81V9.17V7.72h1.81h1.81V6.27V4.82h3.62h3.62v-1.4H248.01z M248.01,9.17V7.72h-1.81h-1.81
		v1.45v1.45h1.81h1.81V9.17z M255.31,14.96v-1.45h-1.81h-1.81v1.45v1.45h1.81h1.81V14.96z"/>
	<path class="st3" d="M269.84,3.43V1.98h9.1h9.1v1.45v1.45h1.81h1.81v5.79v5.79h-1.81h-1.81v1.45v1.45h1.81h1.81v1.4v1.45h-1.81
		h-1.81v-1.45v-1.45h-1.81h-1.81v1.45v1.45h-7.29h-7.29v-1.45v-1.45h-1.81h-1.81v-7.24V4.82h1.81h1.81L269.84,3.43L269.84,3.43z
		 M284.38,9.17V4.82h-5.43h-5.43v7.24v7.24h3.62h3.62v-1.45v-1.45h-1.81h-1.81v-1.45v-1.45h3.62h3.62V9.17z"/>
	<path class="st3" d="M296.33,2.24h15.98v1.14h1.45v8.07h-2.9v1.14h-1.45v1.14h-8.74v4.6h10.19v1.14h1.45v1.29h1.45v1.14h-15.98
		v-1.14h-1.45v-8.12h2.9V11.5h1.45v-1.14h8.74v-4.6h-10.19V4.56h-1.45V3.43h-1.45V2.24z M297.78,20.75h1.45v-1.14h-1.45V20.75z
		 M299.22,13.82h1.45v-1.14h-1.45V13.82z M299.22,19.62h1.45v-1.14h-1.45V19.62z M309.41,5.7h1.45V4.56h-1.45V5.7z M309.41,11.5
		h1.45v-1.14h-1.45V11.5z M310.86,4.56h1.45V3.43h-1.45V4.56z"/>
	<path class="st3" d="M316.71,3.43h1.45V2.24h14.54v1.14h1.45v8.07h-2.9v-1.14h-1.45V5.7h-8.74v4.6h-1.45v1.14h-2.9L316.71,3.43
		L316.71,3.43z M316.71,12.63h2.9v1.14h1.45v4.6h8.74v-4.6h1.45v-1.14h2.9v8.12h-1.45v1.14h-14.54v-1.14h-1.45V12.63z M318.16,4.56
		h1.45V3.43h-1.45V4.56z M318.16,20.75h1.45v-1.14h-1.45V20.75z M319.6,5.7h1.45V4.56h-1.45V5.7z M319.6,19.62h1.45v-1.14h-1.45
		V19.62z M329.79,5.7h1.45V4.56h-1.45V5.7z M329.79,19.62h1.45v-1.14h-1.45V19.62z M331.24,4.56h1.45V3.43h-1.45V4.56z
		 M331.24,20.75h1.45v-1.14h-1.45V20.75z"/>
	<path class="st3" d="M337.04,2.24h1.45v1.14h1.45v1.14h1.45v5.79h8.74V4.56h1.45V3.43h1.45V2.24h1.45v9.26h-2.9v1.14h2.9v9.26
		h-1.45v-1.14h-1.45v-1.14h-1.45v-5.79h-8.74v-1.14h-1.45v-1.14h-2.9L337.04,2.24L337.04,2.24z M339.99,11.5h1.45v-1.14h-1.45V11.5z
		 M350.12,11.5h1.45v-1.14h-1.45V11.5z M350.12,13.82h1.45v-1.14h-1.45V13.82z"/>
	<path class="st3" d="M357.42,3.43h1.45V2.24h14.54v1.14h1.45v8.07h-2.9v1.14h2.9v8.17h-1.45v1.14h-14.54v-1.14h1.45v-1.14h1.45
		v-1.14h8.74v-4.6h-8.74v-1.14h-1.45V11.6h-2.9V3.43L357.42,3.43z M358.87,4.56h1.45V3.43h-1.45V4.56z M360.31,5.7h1.45V4.56h-1.45
		V5.7z M360.31,11.5h1.45v-1.14h-1.45V11.5z M361.81,10.36h8.74v-4.6h-8.74V10.36z M370.5,5.7h1.45V4.56h-1.45V5.7z M370.5,11.5
		h1.45v-1.14h-1.45V11.5z M370.5,13.82h1.45v-1.14h-1.45V13.82z M370.5,19.62h1.45v-1.14h-1.45V19.62z M371.95,4.56h1.45V3.43h-1.45
		V4.56z M371.95,20.75h1.45v-1.14h-1.45V20.75z"/>
</g>
<g>
	<g>
		<path class="st4" d="M575.29,467.32c-0.92,1.07-1.91,2.06-2.98,3.05c0-0.31,0.15-0.53,0.15-0.92c-1.37,1.22-2.98,1.76-4.58,2.6
			c-1.45,0.69-2.82,1.45-4.28,2.14c-0.31,0.15-0.53,0.15-0.84,0c-1.37-0.69-2.82-1.22-4.05-2.06c-0.23-0.15-0.46-0.23-0.69-0.31
			c-1.45-0.53-2.82-1.22-3.97-2.21c-0.08,0-0.08-0.08-0.15-0.08c-0.08,0.08,0,0.08,0,0.15c0,0.23,0.23,0.46,0.15,0.76
			c-3.28-3.13-6.26-6.41-7.4-10.99c0-0.08,0.08-0.38-0.31-0.23c0,0,0-0.15,0-0.31c-0.76-2.21,0-4.12,1.45-5.8
			c0.61-0.69,1.15-1.37,1.6-2.14c0.15-0.31,0.23-0.53,0-0.84c-0.38-0.53-0.53-1.15-0.69-1.83c-0.46,0.38-0.76,0.84-1.3,1.3
			c0.31-1.76,0.23-3.51,0.99-5.04s1.98-2.52,3.59-3.13c-0.15-0.31-0.53-0.38-0.76-0.69c2.21-0.08,4.5-0.53,6.57,0.53
			c0.99,0.53,1.76,1.3,2.52,1.98c0.61,0.61,1.3,0.99,2.21,1.15c0.15,0,0.31,0,0.38,0c0.15,0.08,0.31,0.08,0.46,0
			c0.23,0,0.38-0.08,0.61-0.08c0.84-0.08,1.53-0.53,2.14-1.15c0.69-0.69,1.37-1.3,2.21-1.83c1.15-0.69,2.37-0.99,3.66-0.92
			c1.07,0,2.14,0.08,3.36,0.15c-0.38,0.31-0.61,0.46-0.92,0.69c1.3,0.46,2.37,1.22,3.13,2.29c0.53,0.76,0.92,1.68,1.07,2.6
			c0.15,1.07,0.31,2.06,0.46,3.28c-0.46-0.53-0.84-0.92-1.3-1.3c-0.23,0.76-0.38,1.37-0.84,1.98c-0.15,0.23,0,0.46,0,0.69
			c-0.31,0-0.69,0-0.99,0c-0.08-0.15-0.08-0.23-0.15-0.38c0-0.08,0-0.23,0-0.31v-0.08c0.84-1.22,1.07-2.67,1.15-4.2
			c0.23,0.23,0.46,0.38,0.69,0.61c-0.61-3.13-2.67-4.43-5.57-4.73c0-0.23,0.31-0.15,0.23-0.38c-0.69,0-1.45,0-2.14,0.15
			c-1.15,0.31-2.06,0.99-2.9,1.76c-0.84,0.84-1.83,1.6-3.05,1.83c-0.15,0-0.31,0.08-0.53,0.08c-0.08,0-0.15,0-0.23,0.08
			c-0.23,0-0.38,0-0.61,0c-1.53-0.15-2.67-0.76-3.74-1.83c-0.31-0.31-0.61-0.53-0.92-0.84c-1.22-0.99-2.67-1.37-4.28-1.3
			c0,0.23,0.31,0.15,0.23,0.38c-3.74,0.38-5.34,2.6-5.42,4.73c0.15-0.23,0.31-0.38,0.38-0.61c0.15,1.37,0.23,2.6,0.99,3.66
			c0.38,0.53,0.31,1.07,0,1.6c-0.38,0.76-0.92,1.37-1.45,2.06c-0.76,0.92-1.53,1.83-1.83,3.05c-0.08,0.23-0.08,0.53,0,0.84
			c0.08,0,0.08-0.08,0.15-0.08c0.08,0,0.08-0.15,0.15-0.08c0.38,3.59,1.98,6.72,4.5,9.47c0.08-0.46-0.23-0.84-0.23-1.22
			c0.76,1.07,1.6,2.06,2.6,2.98s1.98,1.68,3.36,2.21c-0.15-0.38-0.31-0.69-0.38-0.99l0.08-0.08c1.07,1.15,2.29,2.14,3.74,2.75
			c0.08,0,0.08,0.08,0.15,0c0,0,0-0.08-0.08-0.08c-0.15-0.31-0.38-0.69-0.53-0.99l0.08-0.08c0.61,0.38,1.15,0.76,1.83,1.07
			c0.53,0.31,1.07,0.31,1.6,0s1.15-0.61,1.68-1.07c0.08-0.08,0.15-0.23,0.38-0.08l0,0c-0.23,0.38-0.53,0.84-0.76,1.22
			c1.6-0.61,2.9-1.6,4.05-2.98c0,0.53-0.31,0.84-0.38,1.3c0.99-0.38,1.83-0.92,2.67-1.6c1.22-0.99,2.21-2.14,3.13-3.44
			c0.08-0.08,0.15-0.38,0.23,0c0,0.08-0.08,0.23-0.08,0.31c0,0-0.08,0.08,0,0.08c-0.08,0.23-0.15,0.38-0.15,0.61
			c0,0.08-0.08,0.08,0,0.15c0.08,0.08,0.08,0,0.08-0.08c0.23-0.23,0.38-0.38,0.61-0.61c0,0.15,0.08,0.38-0.08,0.53
			C574.84,466.78,574.99,467.01,575.29,467.32z"/>
		<path class="st4" d="M576.06,450.9c0.31,0,0.69,0,0.99,0c0.84,1.3,1.91,2.37,2.67,3.59c0.46,0.84,0.76,1.68,0.76,2.6
			c0,0.61-0.08,1.22-0.31,1.83c0,0.08,0,0.23-0.23,0.15c-0.23-0.08-0.15,0.23-0.15,0.31c-0.53,1.98-1.37,3.82-2.6,5.57
			c-0.53,0.76-1.15,1.6-1.83,2.29c-0.31-0.23-0.46-0.53-0.08-0.84c0.15-0.15,0.08-0.38,0.08-0.53c0.15-0.15,0.23-0.38,0.38-0.53
			c0.15-0.23,0.38-0.46,0.53-0.69l0,0c1.6-2.21,2.6-4.58,2.9-7.25c0.08-0.31,0.08-0.46,0.38-0.23c0.08-0.69-0.15-1.22-0.38-1.76
			c-0.46-0.84-0.99-1.53-1.6-2.29C576.97,452.51,576.29,451.82,576.06,450.9z"/>
	</g>
	<path class="st5" d="M563.77,445.48c-0.08,0.15-0.15,0.23-0.23,0.08C563.61,445.48,563.69,445.48,563.77,445.48z"/>
	<path d="M554,469.68c-0.08-0.08-0.08-0.08,0-0.15c0,0,0.08,0,0.15,0.08C554.07,469.61,554.07,469.61,554,469.68z"/>
	<path class="st5" d="M561.1,472.13l0.08,0.08c-0.08,0.08-0.08,0-0.15,0C561.02,472.2,561.1,472.13,561.1,472.13z"/>
	<path class="st6" d="M558.81,447.32c0.15,0,0.31,0,0.61,0.08c-0.61-0.99-1.68-1.37-2.6-1.91c0.31,0,0.69,0.08,0.99,0.08
		c0.38,0.08,0.76,0.08,1.07,0.15c0.99,0.23,1.98,0.46,2.9,0.99c0.76,0.46,1.68,0.38,2.44,0c1.53-0.84,3.21-1.07,5.04-1.22
		c-0.23,0.23-0.53,0.31-0.76,0.38c-0.53,0.31-1.15,0.61-1.6,1.07c-0.08,0.08-0.31,0.23-0.23,0.38c0.08,0.15,0.31,0,0.38,0
		c0.15,0.15,0.31,0.15,0.53,0.15c0.92,0.15,1.83,0.31,2.67,0.76c0.31,0.15,0.53,0.38,0.84,0.53c0-0.08,0-0.15,0-0.15
		c-0.15-0.15-0.23-0.31-0.38-0.46l0,0c1.45,0.61,2.21,1.76,2.75,3.13c0,0,0,0-0.08,0.08c-0.61-0.15-1.07-0.69-1.76-0.84
		c0.23,0.69,0.38,1.37,0.61,2.06c-1.15-0.76-2.37-0.76-3.21-0.15c-0.31,0-0.61,0.23-0.99,0.15c0.23-0.38,0.53-0.76,0.84-1.07
		c0.08-0.08,0.23-0.15,0.15-0.23c-0.08-0.15-0.23,0-0.38,0c-0.08,0-0.15,0.08-0.23,0.08c-0.23-0.08-0.38,0.08-0.53,0.15
		c-0.31,0.15-0.38,0-0.38-0.23c0-0.31,0.08-0.53,0.08-0.84c0.15-0.53,0.08-0.99-0.15-1.45c0-0.15,0-0.23-0.15-0.23l0,0
		c-0.15-0.31-0.38-0.46-0.76-0.53c0.53,0.46,0.76,0.99,0.53,1.68c-0.08,0.23-0.15,0.46-0.23,0.69l0,0
		c-0.08,0.08-0.15,0.15-0.15,0.23l0,0c-0.46,0.69-0.76,1.45-0.76,2.29c-0.08,0.15-0.08,0.23-0.15,0.38
		c-0.31,0.08-0.31,0.53-0.69,0.53c0-0.15,0-0.38,0.08-0.53c0-0.08,0.15-0.23-0.08-0.31c-0.46,0-0.69,0.38-0.99,0.61
		c-0.84,0.92-1.76,0.92-2.6,0c-0.23-0.23-0.46-0.61-0.92-0.61c-0.08,0-0.23-0.08-0.15,0.08c0.08,0.23,0.08,0.46,0.08,0.69
		c-0.38-0.08-0.38-0.46-0.69-0.61c0-0.08-0.08-0.23-0.08-0.31c0-0.61-0.15-1.22-0.53-1.76l0,0c-0.08-0.31-0.23-0.61-0.46-0.84l0,0
		c-0.08-0.23-0.15-0.46-0.23-0.69c0-0.23,0-0.38,0-0.61c0-0.08,0-0.15,0.08-0.23l0,0c0.15-0.15,0.23-0.31,0.46-0.61
		c-0.38,0.08-0.53,0.15-0.61,0.38l0,0c-0.08,0-0.08,0.08-0.08,0.15l0,0c-0.15,0.08-0.23,0.23-0.15,0.46l0,0l0,0v0.08
		c-0.15,0.38-0.15,0.69-0.08,1.07c0.08,0.38,0.08,0.84,0.08,1.22c-0.46,0-0.69-0.46-1.15-0.38c-0.15-0.08-0.31-0.15-0.53-0.08
		c0.53,0.38,0.92,0.84,1.22,1.37c-0.38,0.08-0.69-0.08-0.99-0.15c-0.46-0.38-1.07-0.38-1.68-0.46c-0.61-0.08-1.15,0.15-1.53,0.69
		c0.15-0.76,0.46-1.37,0.53-2.06v-0.08H554c-0.53,0.31-1.15,0.61-1.83,0.99c0.15-0.53,0.31-0.84,0.53-1.22
		c0.53-0.84,1.15-1.6,2.06-1.98l0.08,0.08c-0.08,0.08-0.15,0.23-0.15,0.31l-0.08,0.08c0,0.08-0.08,0.08-0.08,0.15
		c0,0.08-0.08,0.08-0.08,0.15l0,0c0-0.08,0.08-0.08,0.08-0.15c0.08,0,0.08-0.08,0.15-0.08l0.08-0.08c1.07-0.76,2.29-1.15,3.59-1.22
		C558.58,447.47,558.73,447.47,558.81,447.32z M571.25,448.99L571.25,448.99L571.25,448.99L571.25,448.99z M569.19,451.13
		C569.19,451.21,569.11,451.21,569.19,451.13C569.11,451.21,569.11,451.21,569.19,451.13C569.19,451.21,569.19,451.21,569.19,451.13
		C569.19,451.21,569.19,451.21,569.19,451.13z"/>
	<path class="st7" d="M554.22,450.52c-0.08,0.69-0.38,1.3-0.53,2.06c0.38-0.53,0.92-0.76,1.53-0.69c0.61,0.08,1.15,0.08,1.68,0.46
		c-0.38,0-0.84,0-1.22,0c-0.61,0-1.07,0.23-1.37,0.76c-0.53,0.84-0.92,1.68-1.22,2.67c0.38-0.15,0.46-0.69,0.92-0.76
		c0,0.08,0,0.15,0,0.23c-0.46,1.07-1.07,2.14-1.83,3.05c-0.23,0.31-0.46,0.15-0.69,0.08c0,0.46,0.15,0.84,0.38,1.22
		c0.15,0.23,0.31,0.31,0.46,0c0.23-0.38,0.46-0.69,0.84-0.92c0.23-0.15,0.53-0.53,0.76-0.38c0.31,0.08,0.08,0.53,0.15,0.76
		c0,0,0,0,0,0.08c0,0.08,0,0.08,0,0.15c-0.23,0.31-0.61,0.46-0.76,0.84c-0.69,0.84-0.76,1.91-0.84,3.05
		c-1.45-1.45-1.91-3.21-1.76-5.11c-0.53,0.15-0.76,0.61-1.15,0.99c-0.31-1.37,0.38-3.51,1.3-4.35c0.08,0.76,0.31,1.45,0.69,2.06
		c0-1.45,0-2.9,0.61-4.35c-0.69,0.15-1.07,0.61-1.45,1.07l-0.08-0.08c0.46-2.29,1.37-4.28,3.51-5.57c1.37-0.84,2.9-0.92,4.5-0.61
		l0.08,0.08c0,0.15-0.15,0.15-0.31,0.15c-1.3,0.08-2.52,0.46-3.59,1.22l-0.08-0.08c0.08-0.08,0.15-0.23,0.15-0.31l0.08-0.08
		c0-0.08-0.08,0-0.08,0c-0.92,0.38-1.53,1.15-2.06,1.98c-0.23,0.38-0.46,0.69-0.53,1.22C553,451.13,553.61,450.83,554.22,450.52
		C554.15,450.52,554.15,450.52,554.22,450.52z"/>
	<path class="st8" d="M573.54,451.36c-0.53-1.37-1.3-2.52-2.75-3.13c-0.08-0.08-0.15-0.08-0.15,0c0,0.08,0.08,0.08,0.15,0.08
		c0.15,0.15,0.23,0.31,0.38,0.46c0,0,0,0.08,0,0.15c-0.31-0.23-0.53-0.38-0.84-0.53c-0.84-0.46-1.76-0.69-2.67-0.76
		c-0.15,0-0.38,0-0.53-0.15c1.07-0.38,2.06-0.31,3.13-0.08c1.07,0.23,1.98,0.84,2.75,1.6c0.08,0.08,0.15,0.31,0.31,0.31l0,0
		c0,0.23,0.23,0.31,0.31,0.46c0.08,0.08,0.15,0.23,0.23,0.31c0.08,0.08,0.15,0.23,0.15,0.31c0.08,0.08,0.08,0.15,0.15,0.23
		c0,0.08,0.08,0.15,0.08,0.23c0.15,0.23,0.23,0.46,0.38,0.69l0,0c0.15,0.38,0.31,0.76,0.46,1.15c0,0.15,0,0.31,0.15,0.46
		c-0.08,0.15,0.08,0.38,0,0.53l0,0c-0.46-0.38-0.76-0.92-1.45-1.07c0.61,1.37,0.69,2.75,0.61,4.2c0.46-0.61,0.53-1.22,0.69-1.98
		c1.07,1.37,1.45,2.82,1.37,4.5c-0.38-0.46-0.61-0.92-1.22-1.07c0.15,1.53-0.15,2.98-0.99,4.28c0,0.08-0.08,0.08-0.08,0.15
		c-0.08,0.08-0.15,0.15-0.23,0.31c-0.15,0.15-0.23,0.23-0.46,0.38c0-0.69-0.08-1.37-0.31-1.98c-0.08-0.38-0.31-0.76-0.53-1.15
		c-0.15-0.31-0.46-0.53-0.76-0.76c0-0.08,0-0.08,0-0.15c0-0.15,0.08-0.38,0.08-0.53c0-0.46,0.15-0.31,0.46-0.23
		c0.53,0.31,0.92,0.69,1.22,1.22c0.23,0.31,0.38,0.23,0.53,0c0.08-0.08,0.15-0.23,0.15-0.31c0-0.31,0.69-0.76-0.23-0.84
		c-0.08,0-0.08-0.08-0.15-0.15c-0.84-0.99-1.45-2.14-1.91-3.36h0.08h0.08c0.31,0.31,0.53,0.61,0.92,0.99
		c-0.15-0.61-0.31-1.07-0.53-1.53c-0.15-0.46-0.46-0.84-0.69-1.3c-0.31-0.53-0.76-0.69-1.3-0.69c-0.38,0-0.84,0-1.22-0.08
		c0.84-0.69,2.06-0.61,3.21,0.15c-0.23-0.69-0.38-1.3-0.61-2.06C572.39,450.75,572.85,451.21,573.54,451.36c0,0.08,0,0.08,0,0.08
		C573.54,451.36,573.54,451.36,573.54,451.36z"/>
	<path class="st9" d="M568.81,461.82c-0.38-0.46-0.69-0.92-1.22-1.22c0-0.08-0.08-0.08-0.08-0.08s0,0.08,0,0.15
		c0.15,0.53,0.38,1.07,0.38,1.68c-0.15,0-0.23,0.15-0.38,0.23c-0.46,0.31-1.22,0.23-1.53-0.08c0.08,0,0.23,0,0.23-0.08
		c0.53-0.31,0.38-0.76,0.38-1.22c-0.23,0.08-0.15,0.31-0.38,0.31l-0.08-0.08c-1.45-1.6-4.2-1.68-5.95-0.15
		c-0.23,0.23-0.38,0.31-0.61-0.15c-0.08,0.61-0.15,1.07,0.38,1.37c0.08,0.08,0.23,0.15,0.31,0.23c-0.76,0.31-1.37,0.31-1.98-0.31
		c-0.08-0.53,0.23-1.07,0.31-1.68c-0.61,0.38-0.99,0.84-1.37,1.3c-0.31-0.15-0.31-0.53-0.53-0.69c0-0.31,0-0.61,0-0.92
		c-0.08-0.46-0.08-0.99,0.15-1.45c0.61,0.15,1.15,0.38,1.76,0.38c0.15,0,0.23,0.08,0.23,0.23c0.08,0.61,0.46,0.46,0.76,0.23l0,0
		c0,0.08,0,0.23,0.08,0.38c0.69-0.84,1.53-1.3,2.37-1.83l0,0c0,0,0,0,0,0.08c-0.15,0-0.31-0.31-0.53-0.08c-0.31,0-0.61,0-0.92,0
		c0.92-1.3,4.43-1.15,5.04,0c-0.31,0-0.61,0-0.92,0c-0.15,0-0.31-0.08-0.46,0.08c0,0,0-0.08-0.08,0c0,0,0.08,0,0.08,0.08
		c0.84,0.46,1.68,0.99,2.29,1.76l0.08,0.08c0.08,0,0-0.08,0-0.15c0-0.15,0-0.38,0.23-0.15c0.31,0.31,0.38,0.08,0.53-0.15
		c0.08-0.15,0.08-0.38,0.31-0.38c0.61,0,1.15-0.23,1.68-0.38c0.23,0.38,0.23,0.76,0.23,1.15c-0.08,0.23-0.08,0.46-0.08,0.69
		c0,0.23,0,0.38,0,0.61C569.11,461.36,569.11,461.67,568.81,461.82z M559.42,460.06L559.42,460.06L559.42,460.06L559.42,460.06z"/>
	<g>
		<path class="st10" d="M556.59,460.22c-0.08,0.08-0.08,0.15-0.15,0.23c-0.23-0.61-0.23-0.61-0.69-0.15
			c-0.92,0.84-1.07,0.76-1.45-0.38c-0.08-0.15-0.15-0.38-0.23-0.53c-0.23,0.31-0.61,0.46-0.76,0.84c0.15,1.98,0.61,3.74,2.29,4.96
			c0-0.61,0-1.22,0-1.91c0-0.61,0-1.3,0.31-1.91c0.23,0.46,0.15,0.99,0.53,1.3c0.08-0.53-0.08-1.07,0.15-1.53
			C556.59,460.83,556.59,460.52,556.59,460.22z"/>
		<path class="st10" d="M572.62,460.06c-0.15-0.31-0.46-0.53-0.76-0.76c-0.15,0.46-0.31,0.92-0.53,1.37
			c-0.15,0.23-0.31,0.31-0.53,0.08c-0.31-0.31-0.69-0.53-0.99-0.84c-0.15,0.23-0.08,0.46-0.31,0.61c0,0,0,0.08-0.08,0.08
			c0,0.23,0,0.38,0,0.61c0.31,0.46,0.15,0.99,0.15,1.45c0.08-0.08,0.15-0.15,0.23-0.23l0,0c0.08-0.38,0.15-0.76,0.23-1.15
			c0.46,1.22,0.46,2.44,0.23,3.66c0,0.08,0,0.15,0.08,0.15s0.15-0.08,0.15-0.08c0.23-0.23,0.46-0.46,0.76-0.69l0.08-0.08l0,0
			c0-0.15,0.08-0.23,0.23-0.31l0,0c0.23-0.46,0.46-0.92,0.69-1.37c0-0.08,0-0.08,0-0.15c0-0.15,0-0.31,0.08-0.38
			c0-0.08,0.08-0.23,0.08-0.31C572.47,461.13,572.62,460.6,572.62,460.06z"/>
	</g>
	<path class="st7" d="M558.12,462.2c0.53,0.61,1.22,0.69,1.98,0.31c0.53-0.23,0.99-0.23,1.45,0.23c0.46,0.46,0.61,0.99,0.38,1.6
		c-0.23,0.53-0.69,0.69-1.22,0.76C558.73,465.26,557.74,464.03,558.12,462.2z"/>
	<path class="st8" d="M565.91,462.43c0.31,0.38,1.15,0.38,1.53,0.08c0.15-0.08,0.15-0.23,0.38-0.23c0.38,2.06-0.92,3.05-2.82,2.82
		c-0.76-0.08-1.22-0.76-1.07-1.45c0.15-0.84,0.84-1.37,1.68-1.3C565.68,462.43,565.83,462.43,565.91,462.43z"/>
	<path class="st11" d="M565.07,466.25c0.31,0.15,0.15,0.23,0,0.38c-0.38,0.53-0.99,0.61-1.6,0.69c-0.61,0.08-1.22-0.08-1.83-0.08
		c-0.38,0-0.69-0.46-0.92-0.76c-0.15-0.15,0.08-0.31,0.23-0.38c0.15,0.15,0.31,0.08,0.46,0.08
		C562.62,466.25,563.84,466.25,565.07,466.25z"/>
	<path class="st12" d="M560.48,461.67c-0.08,0-0.23,0.08-0.15-0.08c0.84-1.22,4.05-1.37,4.96-0.23c0,0.08,0,0.08,0.08,0.23
		c-0.46-0.23-0.84-0.38-1.3-0.38C562.85,460.98,561.63,461.06,560.48,461.67z"/>
	<path class="st12" d="M565.07,466.25c-1.22,0-2.44,0-3.66,0c-0.15,0-0.31,0.08-0.46-0.08
		C562.24,465.48,564.07,465.48,565.07,466.25z"/>
	<path class="st11" d="M569.34,461.21c0.31,0.46,0.15,0.99,0.15,1.45c0,0.08-0.08,0.15-0.08,0.31c-0.08,0-0.23,0.31-0.23,0
		c0-0.38-0.15-0.76-0.38-1.07C569.11,461.67,569.11,461.36,569.34,461.21z"/>
	<path class="st11" d="M556.44,462.66c0.08-0.53-0.08-1.07,0.15-1.53c0.23,0.23,0.23,0.53,0.53,0.69c-0.15,0.38-0.38,0.76-0.38,1.22
		C556.52,462.97,556.52,462.74,556.44,462.66z"/>
	<path class="st13" d="M569.72,462.43c0.08-0.38,0.15-0.76,0.23-1.15c0.46,1.22,0.46,2.44,0.23,3.66c-0.15-0.31-0.08-0.69-0.08-0.99
		c0.15-0.61,0.08-1.22-0.08-1.76C569.95,462.13,569.87,462.35,569.72,462.43z"/>
	<path class="st13" d="M572.47,461.67c0.08-0.53,0.15-1.07,0.15-1.6c0.31,0.31,0.46,0.69,0.53,1.15c-0.31-0.08-0.53-0.08-0.46,0.38
		C572.7,461.67,572.55,461.67,572.47,461.67z"/>
	<path class="st13" d="M571.55,463.96c0.23-0.46,0.46-0.92,0.69-1.37C572.32,463.19,572.01,463.73,571.55,463.96z"/>
	<path class="st13" d="M569.42,462.89c0-0.08,0.08-0.15,0.08-0.31c0.08-0.08,0.15-0.15,0.23-0.23
		C569.72,462.66,569.8,462.89,569.42,462.89z"/>
	<path class="st13" d="M572.24,462.43c0-0.15,0-0.31,0.08-0.38C572.55,462.2,572.47,462.28,572.24,462.43z"/>
	<path class="st13" d="M571.33,464.26c0-0.15,0.08-0.23,0.23-0.31C571.55,464.11,571.55,464.26,571.33,464.26z"/>
	<path class="st14" d="M573.92,462.74c0.08-0.08,0.15-0.15,0.23-0.31C574.15,462.58,574.07,462.74,573.92,462.74z"/>
	<path class="st13" d="M570.33,465.1c0.08,0,0.15-0.08,0.15-0.08C570.49,465.1,570.41,465.18,570.33,465.1z"/>
	<path class="st12" d="M560.56,471.13c0-0.08-0.08-0.08-0.08-0.15c0.08-0.08,0.15-0.08,0.15,0.08
		C560.64,471.06,560.64,471.06,560.56,471.13z"/>
	<path class="st13" d="M571.25,464.34l0.08-0.08C571.25,464.26,571.25,464.34,571.25,464.34z"/>
	<path class="st12" d="M566.06,470.98c0,0-0.08,0-0.08-0.08C565.98,470.98,566.06,470.98,566.06,470.98L566.06,470.98z"/>
	<path class="st15" d="M558.81,448.84C558.81,448.84,558.81,448.92,558.81,448.84c-0.08,0.08-0.15,0.15-0.08,0.23
		c0,0.23,0,0.38,0,0.61c-0.15,0.31,0.08,0.53,0.23,0.69l0,0c0,0.31,0.23,0.53,0.46,0.84l0,0c0.08,0.23,0.15,0.38,0.15,0.61
		c0.08,0.31,0.31,0.69,0.15,0.99c-0.46-0.38-0.92-0.84-1.37-1.22c0-0.46,0-0.84-0.08-1.22c-0.08-0.38-0.08-0.76,0.08-1.07v-0.08l0,0
		c0.15-0.08,0.23-0.23,0.15-0.46l0,0c0-0.08,0.08-0.08,0.08-0.15l0,0C558.73,448.69,558.73,448.77,558.81,448.84z"/>
	<path class="st15" d="M567.36,448.69C567.36,448.69,567.36,448.77,567.36,448.69c0,0.15,0.08,0.23,0.15,0.31
		c0.23,0.46,0.31,0.92,0.15,1.45c-0.38,0.38-0.15,0.84-0.23,1.3c-0.38,0.38-0.84,0.69-1.15,1.15c-0.15-0.23-0.08-0.46,0-0.69
		c0.15-0.53,0.46-0.99,0.53-1.53l0,0c0.15,0,0.15-0.08,0.15-0.23l0,0c0.15-0.08,0.23-0.31,0.31-0.46c0.08-0.38,0.08-0.84,0-1.22
		C567.13,448.61,567.28,448.69,567.36,448.69z"/>
	<path class="st11" d="M565.22,453.04c-0.53,0.46-0.92,0.99-1.15,1.6c-0.08,0.23-0.15,0.23-0.38,0.15c-0.46-0.15-0.92-0.15-1.37,0
		c-0.23,0.08-0.31,0.08-0.46-0.15c-0.23-0.61-0.61-1.15-1.15-1.6c0.46,0,0.69,0.38,0.92,0.61c0.92,0.92,1.76,0.92,2.6,0
		C564.53,453.42,564.76,453.04,565.22,453.04z"/>
	<path class="st10" d="M558.35,451.67c0.46,0.38,0.92,0.84,1.37,1.22c0.08,0.08,0.15,0.08,0.23,0.08c0,0.08,0.08,0.23,0.08,0.31
		c0,0.08,0,0.23-0.15,0.31c-0.15,0-0.23-0.15-0.31-0.23c-0.61-0.92-1.45-1.6-2.37-2.14C557.66,451.21,557.97,451.59,558.35,451.67z"
		/>
	<path class="st10" d="M566.29,452.89c0.31-0.46,0.76-0.76,1.15-1.15c0.08,0,0.23,0.08,0.23,0.15c-0.61,0.53-1.07,1.22-1.6,1.76
		c-0.08-0.08-0.08-0.23-0.15-0.31c0.08-0.15,0.08-0.23,0.15-0.38C566.13,452.96,566.21,452.96,566.29,452.89z"/>
	<path class="st11" d="M559.87,453.58c0.15-0.08,0.08-0.15,0.15-0.31c0.31,0.08,0.31,0.53,0.69,0.61c0.08,0.31,0,0.69-0.15,1.07
		C560.26,454.41,559.95,454.11,559.87,453.58z"/>
	<path class="st11" d="M565.91,453.35c0.08,0.08,0.08,0.23,0.15,0.31c-0.15,0.38-0.38,0.76-0.61,1.22
		c-0.31-0.31-0.23-0.69-0.23-0.99C565.6,453.88,565.6,453.42,565.91,453.35z"/>
	<path class="st15" d="M566.29,452.89c-0.08,0.08-0.15,0.08-0.23,0.15c0-0.84,0.31-1.6,0.76-2.29c-0.08,0.53-0.38,0.99-0.53,1.53
		C566.21,452.43,566.13,452.66,566.29,452.89z"/>
	<path class="st15" d="M567.36,448.69c-0.15-0.08-0.23-0.08-0.15,0.15c0.08,0.38,0.08,0.84,0,1.22c0,0.15-0.08,0.38-0.31,0.46
		c0.08-0.23,0.15-0.46,0.23-0.69c0.15-0.61,0-1.15-0.53-1.68C566.97,448.31,567.2,448.46,567.36,448.69z"/>
	<path class="st15" d="M567.66,451.9c0-0.15-0.08-0.15-0.23-0.15c0.08-0.46-0.15-0.92,0.23-1.3c0,0.31-0.08,0.53-0.08,0.84
		c0,0.23,0.08,0.38,0.38,0.23c0.15-0.08,0.31-0.23,0.53-0.15C568.2,451.51,567.97,451.74,567.66,451.9z"/>
	<path class="st15" d="M559.95,452.96c-0.08,0-0.15,0-0.23-0.08c0.15-0.38-0.08-0.69-0.15-0.99c-0.08-0.23-0.15-0.46-0.15-0.61
		C559.8,451.74,559.87,452.35,559.95,452.96z"/>
	<path class="st15" d="M558.81,448.84c-0.08-0.08-0.08-0.15-0.15-0.23c0.08-0.23,0.23-0.31,0.61-0.38
		C559.03,448.54,558.96,448.69,558.81,448.84z"/>
	<path class="st15" d="M559.42,451.21c-0.15-0.23-0.38-0.46-0.46-0.84C559.26,450.67,559.42,450.9,559.42,451.21z"/>
	<path class="st15" d="M559.03,450.45c-0.23-0.15-0.38-0.38-0.23-0.69C558.81,449.99,558.96,450.22,559.03,450.45z"/>
	<path class="st15" d="M558.58,448.77c0,0.15-0.08,0.31-0.15,0.46C558.35,449.07,558.42,448.92,558.58,448.77z"/>
	<path class="st15" d="M567.51,448.99c-0.08-0.08-0.15-0.15-0.15-0.23C567.51,448.77,567.51,448.84,567.51,448.99z"/>
	<path class="st7" d="M554.68,448.92c0,0.08-0.08,0.08-0.08,0.15l0,0C554.61,448.99,554.68,448.92,554.68,448.92L554.68,448.92z"/>
	<path class="st15" d="M558.73,449.15c-0.08-0.08-0.08-0.15,0.08-0.23C558.81,448.99,558.81,449.07,558.73,449.15z"/>
	<path class="st15" d="M566.9,450.52c0,0.08,0,0.15-0.15,0.23C566.82,450.6,566.82,450.52,566.9,450.52z"/>
	<polygon class="st8" points="571.25,448.99 571.25,448.92 571.33,448.92 	"/>
	<path class="st7" d="M554.68,448.92c0-0.08,0.08-0.08,0.08-0.15l0.08,0.08C554.76,448.84,554.76,448.92,554.68,448.92
		L554.68,448.92z"/>
	<path class="st7" d="M554.91,448.69l-0.08,0.08l-0.08-0.08C554.76,448.77,554.84,448.69,554.91,448.69L554.91,448.69z"/>
	<path class="st16" d="M569.19,451.13C569.19,451.21,569.19,451.21,569.19,451.13C569.19,451.21,569.19,451.21,569.19,451.13
		C569.11,451.21,569.11,451.21,569.19,451.13C569.11,451.21,569.19,451.21,569.19,451.13z"/>
	<path class="st7" d="M554.15,450.52C554.15,450.52,554.22,450.52,554.15,450.52C554.22,450.52,554.22,450.52,554.15,450.52
		L554.15,450.52z"/>
	<path class="st15" d="M558.65,448.69c0,0.08-0.08,0.08-0.08,0.15C558.58,448.77,558.58,448.69,558.65,448.69z"/>
	<path class="st15" d="M558.35,449.22v0.08C558.35,449.3,558.35,449.3,558.35,449.22L558.35,449.22z"/>
	<path class="st6" d="M554,455.03c0.08-0.08,0.15-0.23,0.31,0c0.31,0.53,0.76,0.99,1.15,1.45c-0.38,0.38-0.61,0.84-0.69,1.37
		c-0.08,0.46-0.23,0.99-0.61,1.3c0,0,0,0,0-0.08c-0.08-0.31,0.15-0.69-0.15-0.76c-0.31-0.08-0.53,0.23-0.76,0.38
		c-0.31,0.23-0.61,0.53-0.84,0.92c-0.15,0.31-0.31,0.23-0.46,0c-0.23-0.38-0.38-0.76-0.38-1.22c0.23,0.08,0.46,0.23,0.69-0.08
		c0.69-0.99,1.3-1.98,1.83-3.05C554,455.18,554,455.1,554,455.03z"/>
	<path class="st15" d="M554.07,459.15c0.46-0.31,0.53-0.76,0.61-1.3c0.08-0.53,0.31-0.99,0.69-1.37c0.61,0.38,1.3,0.84,1.98,0.92
		c0.08,0,0.08,0.08,0.08,0.15c-0.53,0.23-1.15,0.31-1.76,0.15c-0.15,0-0.08,0.08-0.08,0.08c0.23,0.46,0.69,0.61,1.07,0.84
		c-0.23,0.46-0.23,0.92-0.15,1.45c-0.08,0.08-0.08,0.15-0.15,0.23c-0.23-0.61-0.23-0.61-0.69-0.15c-0.92,0.84-1.07,0.76-1.45-0.38
		c-0.08-0.15-0.15-0.38-0.23-0.53C554.07,459.22,554.07,459.22,554.07,459.15z"/>
	<path class="st6" d="M554.99,448.23c0,0,0.08-0.08,0.08,0C555.06,448.23,555.06,448.31,554.99,448.23
		C554.99,448.31,554.99,448.31,554.99,448.23z"/>
	<path class="st6" d="M570.56,456.4c0.46-0.46,0.84-0.92,1.15-1.45c0.08,0,0.15,0,0.23,0l0,0c0.46,1.22,1.07,2.37,1.91,3.36
		c0.08,0.08,0.08,0.15,0.15,0.15c0.92,0,0.23,0.53,0.23,0.84c0,0.08-0.08,0.23-0.15,0.31c-0.15,0.31-0.31,0.31-0.53,0
		c-0.31-0.46-0.69-0.92-1.22-1.22c-0.23-0.15-0.46-0.23-0.46,0.23c0,0.15-0.08,0.38-0.08,0.53c-0.31-0.31-0.53-0.69-0.53-1.07
		C571.25,457.47,570.94,456.93,570.56,456.4z"/>
	<path class="st15" d="M570.56,456.4c0.38,0.53,0.69,0.99,0.76,1.68c0,0.38,0.23,0.76,0.53,1.07c0,0.08,0,0.08,0,0.15
		c-0.15,0.46-0.31,0.92-0.53,1.37c-0.15,0.23-0.31,0.31-0.53,0.08c-0.31-0.31-0.69-0.53-0.99-0.84c-0.15,0.23-0.08,0.46-0.31,0.61
		c0-0.23,0-0.38,0-0.61c0.08-0.38,0-0.76-0.23-1.15c0.38-0.31,0.84-0.38,1.07-0.84c-0.15-0.23-0.38-0.08-0.53-0.08
		c-0.46,0-0.92,0-1.37-0.38C569.26,457.32,569.95,456.93,570.56,456.4z"/>
	<path class="st17" d="M572.01,455.03c0.15-0.15,0.23-0.38,0.31-0.53c0.31,0.46,0.38,0.99,0.53,1.53
		C572.62,455.64,572.32,455.33,572.01,455.03z"/>
	<path class="st6" d="M570.79,448.23c-0.08,0-0.15,0-0.15-0.08C570.71,448.08,570.79,448.16,570.79,448.23
		C570.79,448.16,570.79,448.23,570.79,448.23z"/>
	<path class="st6" d="M573.54,451.36v0.08C573.54,451.36,573.54,451.36,573.54,451.36L573.54,451.36z"/>
	<path class="st11" d="M556.74,458.77c-0.38-0.23-0.84-0.38-1.07-0.84c0.23,0.08,0.38,0.31,0.61,0.23c0,0.08,0.08,0.08,0.15,0.08
		c0.08,0,0.15,0.08,0.15,0.08c0.23,0.08,0.53,0.08,0.76,0.08c0.08,0,0.23,0,0.31,0c0.46,0,0.84-0.31,1.3-0.53c0,0.46,0,0.84,0,1.37
		c0.76-0.61,1.45-0.99,2.29-1.15c0.23-0.23,0.38,0.08,0.53,0.08l0,0c-0.84,0.53-1.68,0.99-2.37,1.83c0-0.23,0-0.31-0.08-0.38l0,0
		c0,0,0,0,0,0.08c-0.31,0.23-0.69,0.38-0.76-0.23c0-0.15-0.15-0.23-0.23-0.23C557.89,459.15,557.28,458.92,556.74,458.77z"/>
	<path class="st8" d="M570.26,457.93c-0.23,0.38-0.69,0.53-1.07,0.84c-0.53,0.15-1.15,0.38-1.68,0.38c-0.31,0-0.31,0.23-0.31,0.38
		c-0.15,0.23-0.23,0.46-0.53,0.15c-0.23-0.23-0.23,0-0.23,0.15l-0.08,0.08c-0.61-0.76-1.45-1.22-2.29-1.76l0,0
		c0.15-0.15,0.31-0.08,0.46-0.08c0.84,0.15,1.6,0.53,2.29,1.15c0.15-0.46,0-0.92,0.08-1.37
		C568.04,458.54,569.11,458.54,570.26,457.93z"/>
	<path class="st11" d="M569.42,459.91c0,0.23,0,0.38,0,0.61c0,0,0,0.08-0.08,0.08C569.34,460.37,569.34,460.14,569.42,459.91z"/>
	<path class="st8" d="M566.44,459.84c0,0,0.08,0.08,0,0.15C566.44,459.99,566.44,459.91,566.44,459.84
		C566.44,459.91,566.44,459.84,566.44,459.84z"/>
	<polygon class="st11" points="559.42,460.06 559.42,459.99 559.49,459.99 	"/>
	<path class="st5" d="M567.51,460.6c0-0.08,0-0.08,0-0.15c0.08-0.08,0.08,0,0.08,0.08C567.51,460.6,567.51,460.6,567.51,460.6z"/>
	<path class="st11" d="M561.94,458.16L561.94,458.16L561.94,458.16L561.94,458.16z"/>
	<path class="st8" d="M564.07,458.16C564.07,458.16,564,458.08,564.07,458.16C564.07,458.08,564.07,458.08,564.07,458.16
		C564.15,458.16,564.07,458.16,564.07,458.16z"/>
	<path class="st8" d="M575.22,453.5L575.22,453.5L575.22,453.5L575.22,453.5L575.22,453.5z"/>
	<path class="st4" d="M557.74,454.49c1.07,0.53,1.83,1.3,2.67,2.29c-0.69-0.23-1.3-0.31-1.91-0.61
		C558.19,455.64,557.66,455.18,557.74,454.49z"/>
	<path class="st4" d="M567.51,456.17c-0.61,0.31-1.22,0.38-1.91,0.61c0.76-0.92,1.53-1.68,2.44-2.14c0.23,0.15,0.08,0.38,0,0.61
		C567.97,455.56,567.66,455.79,567.51,456.17z"/>
	<path class="st4" d="M557.74,454.49c-0.08,0.69,0.46,1.15,0.76,1.68c-1.22-0.15-1.37-0.53-1.45-1.76c0-0.23,0.08-0.31,0.31-0.15
		C557.43,454.34,557.58,454.41,557.74,454.49z"/>
	<path class="st4" d="M567.51,456.17c0.08-0.38,0.46-0.61,0.53-0.99c0.08-0.23,0.23-0.38,0-0.61c0.23-0.23,0.53-0.31,0.76-0.38
		C569.11,455.33,568.73,455.94,567.51,456.17z"/>
	<path class="st8" d="M571.94,455.03c-0.08,0-0.15,0-0.23,0C571.78,454.87,571.86,454.87,571.94,455.03z"/>
	<path class="st9" d="M559.49,459.61C559.49,459.53,559.49,459.53,559.49,459.61C559.49,459.53,559.49,459.53,559.49,459.61
		C559.49,459.53,559.49,459.61,559.49,459.61z"/>
	<g>
		<path class="st18" d="M574.91,465.48c-0.08-0.38-0.15-0.08-0.23,0c-0.84,1.3-1.83,2.44-3.13,3.44c-0.76,0.61-1.6,1.15-2.67,1.6
			c0.08-0.46,0.38-0.76,0.38-1.3c-1.15,1.37-2.44,2.37-4.05,2.98c0.23-0.38,0.53-0.84,0.76-1.22c0,0-0.08,0-0.08-0.08
			c0,0,0.08,0,0.08,0.08c-0.15-0.15-0.23,0-0.38,0.08c-0.53,0.38-1.07,0.69-1.68,1.07c-0.53,0.31-1.07,0.31-1.6,0
			c-0.61-0.31-1.22-0.76-1.83-1.07c0-0.08-0.08-0.08-0.15-0.08c0,0.08,0.08,0.08,0.08,0.15c0.15,0.31,0.38,0.69,0.53,0.99
			l-0.08,0.08c-1.45-0.61-2.67-1.6-3.74-2.75l-0.08,0.08c0.15,0.31,0.23,0.53,0.38,0.99c-1.37-0.53-2.44-1.3-3.36-2.21
			c-0.84-0.92-1.6-1.91-2.44-2.98c0,0.46,0.31,0.76,0.23,1.22c-2.52-2.75-4.05-5.88-4.5-9.47c-0.08-0.08-0.15,0-0.15,0.08
			c-0.08,0-0.08,0.08-0.15,0.08c-0.08-0.31-0.08-0.53,0-0.84c0.31-1.22,1.07-2.14,1.83-3.05c0.53-0.69,1.07-1.3,1.45-2.06
			c0.31-0.53,0.31-1.07,0-1.6c-0.69-1.07-0.84-2.37-0.99-3.66c-0.15,0.23-0.31,0.38-0.38,0.61c0.08-2.14,1.68-4.35,5.42-4.73
			c0-0.23-0.23-0.15-0.23-0.38c1.6-0.15,3.05,0.23,4.28,1.3c0.31,0.23,0.61,0.53,0.92,0.84c0.99,1.07,2.21,1.76,3.74,1.83
			c0,0.08-0.08,0.15-0.08,0.15c0.23,0.31,1.15,0.08,1.37-0.23c1.3-0.23,2.21-0.99,3.05-1.83c0.84-0.84,1.76-1.45,2.9-1.76
			c0.69-0.15,1.37-0.23,2.14-0.15c0.08,0.23-0.23,0.15-0.23,0.38c2.9,0.31,4.96,1.6,5.57,4.73c-0.31-0.23-0.46-0.46-0.69-0.61
			c0,1.53-0.23,2.9-1.15,4.2c-0.08,0-0.15-0.08-0.15,0.08c0,0,0.08,0,0.15,0c0,0.08,0,0.23,0,0.31c-0.46,0.31-0.08,0.61,0.08,0.84
			c0.61,1.07,1.37,1.98,2.06,2.9c0.31,0.38,0.53,0.76,0.76,1.15c0.23,0.46,0.15,0.76-0.23,1.07c-0.15,0.15-0.31,0.31-0.38,0.53
			c-0.23,0.92-0.38,1.76,0.08,2.67c0.08,0.08,0,0.15-0.08,0.23c-0.46-0.23-0.92-0.53-1.45-0.31c-0.46,0.15-0.92,0.23-1.37,0.46
			c0-0.23,0.08-0.31,0.31-0.31c0.31,0,0.53-0.15,0.84-0.31c0.15-0.08,0.23-0.15,0.23-0.31c-0.31-0.61,0.31-1.37-0.15-1.98
			c0,0,0-0.15,0.08-0.15c0.23-0.38,0.15-0.69-0.23-0.92c-0.69-0.53-0.99-1.3-0.92-2.21c0-0.23,0-0.38,0-0.61
			c0-0.23-0.08-0.31-0.31-0.31c-0.08-0.15-0.15-0.31-0.15-0.46c0.15-0.46-0.08-0.92-0.46-1.15l0,0c0.15-0.38,0.15-0.61-0.38-0.69
			c0-0.08-0.08-0.15-0.08-0.23c0.08,0,0.15-0.08,0.08-0.15c-0.08-0.08-0.15-0.08-0.23-0.08c-0.08-0.08-0.15-0.23-0.15-0.31
			c0.23-0.31,0-0.31-0.23-0.31c-0.08-0.15-0.31-0.23-0.31-0.46c0,0,0-0.08,0.08-0.08c0,0-0.08,0-0.08,0.08
			c-0.23,0-0.23-0.15-0.31-0.31c-0.76-0.76-1.68-1.37-2.75-1.6c-1.07-0.23-2.14-0.31-3.13,0.08c-0.15-0.08-0.31,0.15-0.38,0
			s0.08-0.31,0.23-0.38c0.46-0.46,0.99-0.76,1.6-1.07c0.23-0.15,0.53-0.15,0.76-0.38c-1.83,0.15-3.51,0.38-5.04,1.22
			c-0.76,0.46-1.68,0.46-2.44,0c-0.92-0.53-1.91-0.84-2.9-0.99c-0.38-0.08-0.69-0.08-1.07-0.15c-0.31,0-0.69-0.08-0.99-0.08
			c0.92,0.53,1.98,0.92,2.6,1.91c-0.23,0-0.46-0.08-0.61-0.08c0,0,0-0.08-0.08-0.08c-1.6-0.31-3.13-0.23-4.5,0.61
			c-2.14,1.3-3.05,3.36-3.51,5.57c0,0,0,0,0.08,0.08c0.38-0.38,0.76-0.92,1.45-1.07c-0.69,1.45-0.61,2.9-0.61,4.35
			c-0.38-0.69-0.53-1.3-0.69-2.06c-0.99,0.84-1.6,2.98-1.3,4.35c0.31-0.38,0.53-0.84,1.15-0.99c-0.15,1.91,0.31,3.59,1.76,5.11
			c0.08-1.15,0.15-2.14,0.84-3.05c0.15,1.98,0.61,3.74,2.29,4.96c0-0.61,0-1.22,0-1.91c0-0.61,0-1.3,0.31-1.91
			c0.23,0.46,0.15,0.99,0.53,1.3c0.08,0.15,0.08,0.31,0.31,0.38c0-0.46,0.15-0.84,0.38-1.22c0.38-0.46,0.76-0.92,1.37-1.3
			c-0.08,0.61-0.38,1.15-0.31,1.68c-0.46,1.83,0.61,3.05,2.52,2.9c0.53-0.08,1.07-0.23,1.22-0.76c0.23-0.61,0.08-1.15-0.38-1.6
			c-0.38-0.38-0.92-0.46-1.45-0.23c-0.08-0.08-0.23-0.15-0.31-0.23c0.31,0,0.23-0.15,0.08-0.23c-0.15-0.08-0.23-0.23-0.08-0.38
			c0.08-0.08,0.15-0.23,0.31-0.15c0.23,0,0.15,0.15,0.15,0.31c0.08,0.15,0.15,0.15,0.23,0.08c0,0,0.38-0.08,0-0.23
			c1.15-0.61,2.37-0.69,3.59-0.46c0,0.08,0,0.15,0,0.15c0.46,0.38,1.15,0.38,1.6,0c0.08-0.08,0.15-0.08,0.23-0.15l0.08,0.08
			c0.15,0.31,0.23,0.61-0.08,0.84c-0.08,0.08,0.08,0.08,0.15,0.08c-0.08,0.08-0.15,0.08-0.23,0.08c-0.08,0-0.23,0-0.31-0.08
			c-0.84-0.08-1.53,0.46-1.68,1.3c-0.15,0.69,0.31,1.3,1.07,1.45c1.91,0.23,3.21-0.76,2.82-2.82c0.08-0.61-0.23-1.15-0.38-1.68
			l0.08-0.08c0.53,0.31,0.92,0.76,1.22,1.22c0.23,0.31,0.38,0.69,0.38,1.07c0,0.38,0.15,0.08,0.23,0c0.38,0,0.38-0.23,0.31-0.53l0,0
			c0.15,0,0.15-0.23,0.38-0.23c0.15,0.61,0.23,1.15,0.08,1.76c-0.08,0.31-0.08,0.69,0.08,0.99c0,0.08,0,0.15,0.08,0.15
			c0.08,0,0.15,0,0.15-0.08c0.23-0.23,0.46-0.46,0.76-0.69l0.08-0.08l0,0c0.23,0,0.23-0.15,0.23-0.31l0,0
			c0.46-0.23,0.76-0.76,0.69-1.37c0-0.08,0-0.08,0-0.15c0.15-0.08,0.31-0.23,0.08-0.38c0-0.08,0.08-0.23,0.08-0.31
			c0.08,0,0.23-0.08,0.23-0.15c-0.08-0.38,0.15-0.38,0.46-0.38c0.23,0.61,0.31,1.22,0.31,1.98c0.15-0.15,0.31-0.31,0.46-0.38
			c0.15,0,0.23-0.08,0.23-0.31c0-0.08,0.08-0.08,0.08-0.15c0.38,0,0.38-0.53,0.76-0.53c0.46-0.08,0.46-0.38,0.46-0.69
			c0-0.23,0-0.53,0-0.76c0.23,0.08,0.23,0.23,0.23,0.38c0,0.38,0,0.84,0,1.22c0,0.38,0.15,0.53,0.53,0.53s0.76-0.08,1.15-0.08
			c-0.08,0.23-0.46,0.15-0.38,0.46c0.08,0.23-0.08,0.46-0.23,0.69c-0.15,0.38-0.61,0.69-0.53,1.22l0,0c-0.53,0-0.46,0.38-0.53,0.69
			C575.37,465.41,575.14,465.33,574.91,465.48z M560.94,466.17c-0.15,0.08-0.38,0.15-0.23,0.38c0.23,0.31,0.61,0.76,0.92,0.76
			c0.61,0,1.22,0.15,1.83,0.08c0.61-0.08,1.22-0.15,1.6-0.69c0.15-0.15,0.31-0.31,0-0.38C564.07,465.48,562.24,465.48,560.94,466.17
			z"/>
		<path class="st18" d="M576.13,464.64c-0.08-0.53,0.38-0.84,0.53-1.22c0.08-0.23,0.23-0.38,0.23-0.69
			c-0.08-0.31,0.31-0.31,0.38-0.46c0.46-0.76,0.69-1.53,0.92-2.37c0.08-0.08,0.15-0.15,0.08-0.23c-0.46-0.84-0.31-1.76-0.08-2.67
			c0.08-0.23,0.15-0.38,0.38-0.53c0.38-0.31,0.46-0.61,0.23-1.07c-0.23-0.38-0.46-0.76-0.76-1.15c-0.76-0.92-1.45-1.91-2.06-2.9
			c-0.15-0.23-0.46-0.53-0.08-0.84c0.08,0.15,0.08,0.23,0.15,0.38c0.23,0.92,0.92,1.53,1.45,2.29s1.15,1.45,1.6,2.29
			c0.31,0.53,0.46,1.07,0.38,1.76c-0.31-0.23-0.38-0.15-0.38,0.23C578.73,460.06,577.74,462.51,576.13,464.64z"/>
		<path class="st18" d="M574.91,465.48c0.23-0.15,0.53,0,0.76-0.08c-0.15,0.15-0.23,0.38-0.38,0.53c-0.23,0.23-0.38,0.38-0.61,0.61
			l-0.08-0.08c0.08-0.23,0.15-0.38,0.15-0.61c0.08,0,0.15,0,0.15,0c-0.08,0-0.08-0.08-0.15-0.08
			C574.84,465.64,574.84,465.56,574.91,465.48z"/>
		<path class="st18" d="M564.3,445.41c-0.15,0.38-1.15,0.53-1.37,0.23c0,0,0-0.08,0.08-0.15c0.23,0,0.38,0,0.61,0
			c0.15,0.15,0.15,0.15,0.23-0.08C563.92,445.48,564.15,445.41,564.3,445.41z"/>
		<path class="st18" d="M574.84,465.79c0.08,0,0.08,0.08,0.15,0.08c-0.08,0-0.15,0-0.15,0
			C574.76,465.79,574.76,465.79,574.84,465.79z"/>
		<path class="st18" d="M575.91,450.29c-0.08,0-0.15,0-0.15,0C575.83,450.14,575.83,450.22,575.91,450.29
			C575.91,450.22,575.91,450.22,575.91,450.29z"/>
		<path class="st18" d="M574.68,466.48c0,0.08-0.08,0.08-0.08,0.08s0-0.08,0-0.15C574.61,466.48,574.68,466.48,574.68,466.48z"/>
		<path class="st18" d="M575.68,465.41c0-0.31,0-0.69,0.53-0.69C575.98,464.95,575.83,465.18,575.68,465.41z"/>
		<path class="st18" d="M575.22,453.5c0.08-0.15-0.08-0.38,0-0.53c0.23,0,0.31,0.08,0.31,0.31c0,0.23,0,0.38,0,0.61
			c-0.08,0.92,0.23,1.6,0.92,2.21c0.31,0.23,0.46,0.53,0.23,0.92c0,0.08-0.08,0.15-0.08,0.15c0.46,0.61-0.15,1.3,0.15,1.98
			c0.08,0.15-0.08,0.23-0.23,0.31c-0.23,0.15-0.53,0.23-0.84,0.31c-0.23,0-0.31,0.08-0.31,0.31c0,0.08,0,0.15,0,0.23
			c0,0.23,0,0.53,0,0.76c0,0.31,0,0.61-0.46,0.69c-0.31,0.08-0.31,0.61-0.76,0.53c0.76-1.3,1.15-2.67,0.99-4.28
			c0.61,0.15,0.84,0.61,1.22,1.07c0.15-1.76-0.31-3.21-1.37-4.5c-0.15,0.76-0.23,1.45-0.69,1.98c0.08-1.45,0-2.82-0.61-4.2
			C574.46,452.58,574.76,453.12,575.22,453.5L575.22,453.5L575.22,453.5L575.22,453.5z"/>
		<path class="st18" d="M575.37,460.29c0-0.08,0-0.15,0-0.23c0.46-0.15,0.92-0.31,1.37-0.46c0.53-0.15,0.99,0.15,1.45,0.31
			c-0.23,0.84-0.53,1.6-0.92,2.37c-0.38,0-0.76,0.08-1.15,0.08c-0.38,0-0.53-0.15-0.53-0.53c0-0.38,0-0.84,0-1.22
			C575.6,460.52,575.68,460.29,575.37,460.29z"/>
		<path class="st18" d="M559.8,462.35c-0.53-0.31-0.38-0.76-0.38-1.37c0.23,0.46,0.38,0.38,0.61,0.15c1.68-1.53,4.5-1.45,5.95,0.15
			c-0.08,0.08-0.15,0.08-0.23,0.15c-0.46,0.38-1.15,0.38-1.6,0c-0.08,0,0-0.15,0-0.15c0.46,0.08,0.84,0.23,1.3,0.38
			c0-0.15,0-0.23-0.08-0.23c-0.92-1.15-4.12-0.99-4.96,0.23c-0.08,0.15,0.08,0.08,0.15,0.08c0.38,0.08,0,0.15,0,0.23
			c-0.08,0.08-0.23,0.08-0.23-0.08s0-0.31-0.15-0.31c-0.15,0-0.23,0.08-0.31,0.15c-0.08,0.15,0,0.31,0.08,0.38
			C560.03,462.2,560.1,462.35,559.8,462.35z"/>
		<path class="st18" d="M566.13,461.36c0.23,0.08,0.23-0.23,0.38-0.31c0,0.46,0.15,0.92-0.38,1.22c-0.08,0-0.23,0-0.15-0.08
			C566.36,461.97,566.29,461.67,566.13,461.36z"/>
		<path class="st18" d="M575.07,452.51c-0.15-0.38-0.31-0.76-0.46-1.15C574.99,451.59,575.22,452.05,575.07,452.51z"/>
		<path class="st18" d="M574.68,451.36c-0.15-0.23-0.23-0.46-0.38-0.69C574.76,450.75,574.76,450.98,574.68,451.36z"/>
		<path class="st18" d="M573.92,449.91c-0.08-0.08-0.15-0.23-0.23-0.31C573.84,449.68,574.15,449.61,573.92,449.91z"/>
		<path class="st18" d="M574.23,450.45c-0.08-0.08-0.08-0.15-0.15-0.23c0.08,0,0.15,0,0.23,0.08
			C574.3,450.37,574.23,450.45,574.23,450.45z"/>
		<path class="st18" d="M573.39,449.15L573.39,449.15L573.39,449.15L573.39,449.15z"/>
		<path class="st18" d="M564.53,458.08c0.31,0,0.61,0,0.92,0c-0.61-1.15-4.12-1.3-5.04,0c0.38,0,0.61,0,0.92,0
			c-0.84,0.23-1.6,0.53-2.29,1.15c0-0.53,0-0.92,0-1.37c-0.46,0.23-0.84,0.46-1.3,0.53c0-0.08,0-0.15-0.15-0.15
			c-0.15,0-0.15,0.08-0.15,0.23c-0.23,0-0.53,0-0.76-0.08c0-0.23,0-0.38,0.38-0.38c0.23,0,0.46,0,0.53-0.31c0-0.08,0-0.15-0.08-0.15
			c-0.76-0.15-1.37-0.61-1.98-0.92c-0.38-0.53-0.84-0.92-1.15-1.45c-0.08-0.15-0.15-0.08-0.31,0c-0.38,0.08-0.46,0.61-0.92,0.76
			c0.31-0.99,0.61-1.83,1.22-2.67c0.38-0.53,0.84-0.69,1.37-0.76c0.38,0,0.84,0,1.22,0c0.31,0.08,0.61,0.15,0.99,0.15
			c-0.31-0.53-0.69-0.99-1.22-1.37c0.23-0.08,0.38,0,0.53,0.08c0.92,0.53,1.76,1.22,2.37,2.14c0.08,0.08,0.15,0.23,0.31,0.23
			c0.08,0.46,0.38,0.84,0.61,1.3c0.15-0.38,0.31-0.69,0.15-1.07c0-0.23-0.08-0.46-0.08-0.69c0-0.15,0.08-0.15,0.15-0.08
			c0.46,0.46,0.92,0.99,1.15,1.6c0.08,0.23,0.23,0.23,0.46,0.15c0.46-0.15,0.92-0.15,1.37,0c0.23,0.08,0.31,0,0.38-0.15
			c0.23-0.61,0.69-1.15,1.15-1.6c0.23,0,0.15,0.23,0.08,0.31c-0.08,0.15-0.08,0.31-0.08,0.53c0,0.31-0.08,0.69,0.23,0.99
			c0.23-0.46,0.38-0.84,0.61-1.22c0.53-0.61,0.99-1.22,1.6-1.76c0.31-0.15,0.53-0.38,0.84-0.53c0.08,0,0.15-0.08,0.23-0.08
			c0.15,0,0.23-0.15,0.38,0c0.08,0.15-0.08,0.23-0.15,0.23c-0.31,0.31-0.61,0.61-0.84,1.07c0.38,0.08,0.69-0.08,0.99-0.15
			c0.38,0,0.84,0,1.22,0.08c0.53,0,1.07,0.23,1.3,0.69c0.23,0.46,0.53,0.84,0.69,1.3c-0.15,0.15-0.15,0.38-0.31,0.53h-0.08h-0.08
			l0,0c-0.08-0.15-0.15-0.15-0.23,0c-0.31,0.53-0.76,0.99-1.15,1.45c-0.61,0.46-1.3,0.92-2.21,1.07c0.46,0.38,0.92,0.38,1.37,0.38
			c0.15,0,0.38-0.15,0.53,0.08c-1.15,0.61-2.21,0.61-3.36-0.08c-0.08,0.46,0.08,0.92-0.08,1.37
			C566.13,458.61,565.37,458.23,564.53,458.08z M567.51,456.17c1.15-0.23,1.6-0.84,1.3-1.98c-0.23,0.15-0.53,0.23-0.76,0.38
			c-0.99,0.53-1.76,1.22-2.44,2.14C566.36,456.55,566.97,456.48,567.51,456.17z M557.74,454.49c-0.15-0.08-0.23-0.15-0.38-0.23
			c-0.23-0.15-0.31-0.08-0.31,0.15c0.08,1.22,0.23,1.53,1.45,1.76c0.53,0.31,1.15,0.38,1.91,0.61
			C559.57,455.79,558.81,455.03,557.74,454.49z"/>
		<path class="st18" d="M556.29,458.16c-0.23,0-0.38-0.15-0.61-0.23c0-0.08-0.08-0.15,0.08-0.08c0.61,0.15,1.22,0.08,1.76-0.15
			c-0.08,0.31-0.31,0.31-0.53,0.31c-0.31,0-0.38,0.08-0.38,0.38c-0.08,0-0.15-0.08-0.15-0.08
			C556.44,458.23,556.36,458.16,556.29,458.16z"/>
		<path class="st18" d="M557.74,458.38c-0.08,0-0.23,0-0.31,0c0-0.08,0-0.23,0.15-0.23C557.66,458.16,557.74,458.23,557.74,458.38z"
			/>
		<path class="st18" d="M556.29,458.16c0.08,0,0.08,0.08,0.15,0.08C556.36,458.23,556.36,458.23,556.29,458.16z"/>
	</g>
</g>
<g class="st19">
	<g>
		<path class="st4" d="M456.95,357.63c-11.01,12.84-22.94,24.77-35.78,36.7c0-3.67,1.83-6.42,1.83-11.01
			c-16.51,14.68-35.78,21.1-55.05,31.19c-17.43,8.26-33.95,17.43-51.38,25.69c-3.67,1.83-6.42,1.83-10.09,0
			c-16.51-8.26-33.95-14.68-48.63-24.77c-2.75-1.83-5.5-2.75-8.26-3.67c-17.43-6.42-33.95-14.68-47.71-26.61
			c-0.92,0-0.92-0.92-1.84-0.92c-0.92,0.92,0,0.92,0,1.83c0,2.75,2.75,5.5,1.84,9.17c-39.45-37.62-75.23-77.07-89-132.12
			c0-0.92,0.92-4.59-3.67-2.75c0,0,0-1.83,0-3.67c-9.17-26.61,0-49.54,17.43-69.73c7.34-8.26,13.76-16.51,19.27-25.69
			c1.84-3.67,2.75-6.42,0-10.09c-4.59-6.42-6.42-13.76-8.26-22.02c-5.5,4.59-9.17,10.09-15.6,15.6c3.67-21.1,2.75-42.2,11.93-60.55
			s23.85-30.28,43.12-37.62c-1.83-3.67-6.42-4.59-9.17-8.26c26.61-0.92,54.13-6.42,78.9,6.42c11.93,6.42,21.1,15.6,30.28,23.85
			c7.34,7.34,15.6,11.93,26.61,13.76c1.83,0,3.67,0,4.59,0c1.83,0.92,3.67,0.92,5.5,0c2.75,0,4.59-0.92,7.34-0.92
			c10.09-0.92,18.35-6.42,25.69-13.76c8.26-8.26,16.51-15.6,26.61-22.02c13.76-8.26,28.44-11.93,44.04-11.01
			c12.84,0,25.69,0.92,40.37,1.83c-4.59,3.67-7.34,5.5-11.01,8.26c15.6,5.5,28.44,14.68,37.62,27.52
			c6.42,9.17,11.01,20.18,12.84,31.19c1.83,12.84,3.67,24.77,5.5,39.45c-5.5-6.42-10.09-11.01-15.6-15.6
			c-2.75,9.17-4.59,16.51-10.09,23.85c-1.83,2.75,0,5.5,0,8.26c-3.67,0-8.26,0-11.93,0c-0.92-1.83-0.92-2.75-1.83-4.59
			c0-0.92,0-2.75,0-3.67v-0.92c10.09-14.68,12.84-32.11,13.76-50.46c2.75,2.75,5.5,4.59,8.26,7.34
			c-7.34-37.62-32.11-53.21-66.98-56.88c0-2.75,3.67-1.83,2.75-4.59c-8.26,0-17.43,0-25.69,1.83c-13.76,3.67-24.77,11.93-34.86,21.1
			c-10.09,10.09-22.02,19.27-36.7,22.02c-1.84,0-3.67,0.92-6.42,0.92c-0.92,0-1.83,0-2.75,0.92c-2.75,0-4.59,0-7.34,0
			c-18.35-1.83-32.11-9.17-44.96-22.02c-3.67-3.67-7.34-6.42-11.01-10.09c-14.68-11.93-32.11-16.51-51.38-15.6
			c0,2.75,3.67,1.83,2.75,4.59c-44.96,4.59-64.22,31.19-65.14,56.88c1.84-2.75,3.67-4.59,4.59-7.34
			c1.84,16.51,2.75,31.19,11.93,44.04c4.59,6.42,3.67,12.84,0,19.27c-4.59,9.17-11.01,16.51-17.43,24.77
			c-9.17,11.01-18.35,22.02-22.02,36.7c-0.92,2.75-0.92,6.42,0,10.09c0.92,0,0.92-0.92,1.83-0.92c0.92,0,0.92-1.83,1.83-0.92
			c4.59,43.12,23.85,80.74,54.13,113.77c0.92-5.5-2.75-10.09-2.75-14.68c9.17,12.84,19.27,24.77,31.19,35.78
			c11.93,11.01,23.85,20.18,40.37,26.61c-1.84-4.59-3.67-8.26-4.59-11.93l0.92-0.92c12.84,13.76,27.52,25.69,44.96,33.03
			c0.92,0,0.92,0.92,1.83,0c0,0,0-0.92-0.92-0.92c-1.84-3.67-4.59-8.26-6.42-11.93l0.92-0.92c7.34,4.59,13.76,9.17,22.02,12.84
			c6.42,3.67,12.84,3.67,19.27,0c6.42-3.67,13.76-7.34,20.18-12.84c0.92-0.92,1.84-2.75,4.59-0.92l0,0
			c-2.75,4.59-6.42,10.09-9.17,14.68c19.27-7.34,34.86-19.27,48.63-35.78c0,6.42-3.67,10.09-4.59,15.6
			c11.93-4.59,22.02-11.01,32.11-19.27c14.68-11.93,26.61-25.69,37.62-41.29c0.92-0.92,1.84-4.59,2.75,0c0,0.92-0.92,2.75-0.92,3.67
			c0,0-0.92,0.92,0,0.92c-0.92,2.75-1.84,4.59-1.84,7.34c0,0.92-0.92,0.92,0,1.83c0.92,0.92,0.92,0,0.92-0.92
			c2.75-2.75,4.59-4.59,7.34-7.34c0,1.83,0.92,4.59-0.92,6.42C451.44,351.21,453.28,353.96,456.95,357.63z"/>
		<path class="st4" d="M466.12,160.37c3.67,0,8.26,0,11.93,0c10.09,15.6,22.94,28.44,32.11,43.12c5.5,10.09,9.17,20.18,9.17,31.19
			c0,7.34-0.92,14.68-3.67,22.02c0,0.92,0,2.75-2.75,1.83c-2.75-0.92-1.83,2.75-1.83,3.67c-6.42,23.85-16.51,45.87-31.19,66.98
			c-6.42,9.17-13.76,19.27-22.02,27.52c-3.67-2.75-5.5-6.42-0.92-10.09c1.83-1.83,0.92-4.59,0.92-6.42
			c1.83-1.83,2.75-4.59,4.59-6.42c1.83-2.75,4.59-5.5,6.42-8.26l0,0c19.27-26.61,31.19-55.05,34.86-87.16
			c0.92-3.67,0.92-5.5,4.59-2.75c0.92-8.26-1.83-14.68-4.59-21.1c-5.5-10.09-11.93-18.35-19.27-27.52
			C477.13,179.63,468.87,171.38,466.12,160.37z"/>
	</g>
	<path class="st5" d="M318.4,95.22c-0.92,1.83-1.84,2.75-2.75,0.92C316.57,95.22,317.49,95.22,318.4,95.22z"/>
	<path d="M200.96,386.07c-0.92-0.92-0.92-0.92,0-1.83c0,0,0.92,0,1.84,0.92C201.88,385.15,201.88,385.15,200.96,386.07z"/>
	<path class="st5" d="M286.29,415.43l0.92,0.92c-0.92,0.92-0.92,0-1.83,0C285.37,416.35,286.29,415.43,286.29,415.43z"/>
	<path class="st6" d="M258.77,117.24c1.83,0,3.67,0,7.34,0.92c-7.34-11.93-20.18-16.51-31.19-22.94c3.67,0,8.26,0.92,11.93,0.92
		c4.59,0.92,9.17,0.92,12.84,1.83c11.93,2.75,23.85,5.5,34.86,11.93c9.17,5.5,20.18,4.59,29.36,0
		c18.35-10.09,38.53-12.84,60.55-14.68c-2.75,2.75-6.42,3.67-9.17,4.59c-6.42,3.67-13.76,7.34-19.27,12.84
		c-0.92,0.92-3.67,2.75-2.75,4.59c0.92,1.83,3.67,0,4.59,0c1.83,1.83,3.67,1.83,6.42,1.83c11.01,1.83,22.02,3.67,32.11,9.17
		c3.67,1.83,6.42,4.59,10.09,6.42c0-0.92,0-1.83,0-1.83c-1.84-1.83-2.75-3.67-4.59-5.5l0,0c17.43,7.34,26.61,21.1,33.03,37.62
		c0,0,0,0-0.92,0.92c-7.34-1.83-12.84-8.26-21.1-10.09c2.75,8.26,4.59,16.51,7.34,24.77c-13.76-9.17-28.44-9.17-38.53-1.83
		c-3.67,0-7.34,2.75-11.93,1.83c2.75-4.59,6.42-9.17,10.09-12.84c0.92-0.92,2.75-1.84,1.83-2.75c-0.92-1.83-2.75,0-4.59,0
		c-0.92,0-1.83,0.92-2.75,0.92c-2.75-0.92-4.59,0.92-6.42,1.83c-3.67,1.83-4.59,0-4.59-2.75c0-3.67,0.92-6.42,0.92-10.09
		c1.83-6.42,0.92-11.93-1.83-17.43c0-1.83,0-2.75-1.83-2.75l0,0c-1.84-3.67-4.59-5.5-9.17-6.42c6.42,5.5,9.17,11.93,6.42,20.18
		c-0.92,2.75-1.83,5.5-2.75,8.26l0,0c-0.92,0.92-1.83,1.83-1.83,2.75l0,0c-5.5,8.26-9.17,17.43-9.17,27.52
		c-0.92,1.83-0.92,2.75-1.83,4.59c-3.67,0.92-3.67,6.42-8.26,6.42c0-1.83,0-4.59,0.92-6.42c0-0.92,1.83-2.75-0.92-3.67
		c-5.5,0-8.26,4.59-11.93,7.34c-10.09,11.01-21.1,11.01-31.19,0c-2.75-2.75-5.5-7.34-11.01-7.34c-0.92,0-2.75-0.92-1.83,0.92
		c0.92,2.75,0.92,5.5,0.92,8.26c-4.59-0.92-4.59-5.5-8.26-7.34c0-0.92-0.92-2.75-0.92-3.67c0-7.34-1.83-14.68-6.42-21.1l0,0
		c-0.92-3.67-2.75-7.34-5.5-10.09l0,0c-0.92-2.75-1.83-5.5-2.75-8.26c0-2.75,0-4.59,0-7.34c0-0.92,0-1.83,0.92-2.75l0,0
		c1.83-1.83,2.75-3.67,5.5-7.34c-4.59,0.92-6.42,1.83-7.34,4.59l0,0c-0.92,0-0.92,0.92-0.92,1.83l0,0c-1.83,0.92-2.75,2.75-1.83,5.5
		l0,0l0,0v0.92c-1.84,4.59-1.84,8.26-0.92,12.84c0.92,4.59,0.92,10.09,0.92,14.68c-5.5,0-8.26-5.5-13.76-4.59
		c-1.83-0.92-3.67-1.84-6.42-0.92c6.42,4.59,11.01,10.09,14.68,16.51c-4.59,0.92-8.26-0.92-11.93-1.84
		c-5.5-4.59-12.84-4.59-20.18-5.5s-13.76,1.84-18.35,8.26c1.84-9.17,5.5-16.51,6.42-24.77v-0.92h-0.92
		c-6.42,3.67-13.76,7.34-22.02,11.93c1.84-6.42,3.67-10.09,6.42-14.68c6.42-10.09,13.76-19.27,24.77-23.85l0.92,0.92
		c-0.92,0.92-1.84,2.75-1.84,3.67l-0.92,0.92c0,0.92-0.92,0.92-0.92,1.83s-0.92,0.92-0.92,1.83l0,0c0-0.92,0.92-0.92,0.92-1.83
		c0.92,0,0.92-0.92,1.83-0.92l0.92-0.92c12.84-9.17,27.52-13.76,43.12-14.68C256.01,119.08,257.85,119.08,258.77,117.24z
		 M408.32,137.43L408.32,137.43L408.32,137.43L408.32,137.43z M383.55,163.12C383.55,164.04,382.63,164.04,383.55,163.12
		C382.63,164.04,382.63,164.04,383.55,163.12C383.55,164.04,383.55,164.04,383.55,163.12C383.55,164.04,383.55,164.04,383.55,163.12
		z"/>
	<path class="st7" d="M203.72,155.78c-0.92,8.26-4.59,15.6-6.42,24.77c4.59-6.42,11.01-9.17,18.35-8.26
		c7.34,0.92,13.76,0.92,20.18,5.5c-4.59,0-10.09,0-14.68,0c-7.34,0-12.84,2.75-16.51,9.17c-6.42,10.09-11.01,20.18-14.68,32.11
		c4.59-1.83,5.5-8.26,11.01-9.17c0,0.92,0,1.84,0,2.75c-5.5,12.84-12.84,25.69-22.02,36.7c-2.75,3.67-5.5,1.84-8.26,0.92
		c0,5.5,1.83,10.09,4.59,14.68c1.83,2.75,3.67,3.67,5.5,0c2.75-4.59,5.5-8.26,10.09-11.01c2.75-1.83,6.42-6.42,9.17-4.59
		c3.67,0.92,0.92,6.42,1.83,9.17c0,0,0,0,0,0.92c0,0.92,0,0.92,0,1.83c-2.75,3.67-7.34,5.51-9.17,10.09
		c-8.26,10.09-9.17,22.94-10.09,36.7c-17.43-17.43-22.94-38.53-21.1-61.47c-6.42,1.83-9.17,7.34-13.76,11.93
		c-3.67-16.51,4.59-42.2,15.6-52.3c0.92,9.17,3.67,17.43,8.26,24.77c0-17.43,0-34.86,7.34-52.3c-8.26,1.83-12.84,7.34-17.43,12.84
		l-0.92-0.92c5.5-27.52,16.51-51.38,42.2-66.98c16.51-10.09,34.86-11.01,54.13-7.34l0.92,0.92c0,1.83-1.83,1.83-3.67,1.83
		c-15.6,0.92-30.28,5.5-43.12,14.68l-0.92-0.92c0.92-0.92,1.83-2.75,1.83-3.67l0.92-0.92c0-0.92-0.92,0-0.92,0
		c-11.01,4.59-18.35,13.76-24.77,23.85c-2.75,4.59-5.5,8.26-6.42,14.68C189.04,163.12,196.38,159.45,203.72,155.78
		C202.8,155.78,202.8,155.78,203.72,155.78z"/>
	<path class="st8" d="M435.84,165.87c-6.42-16.51-15.6-30.28-33.03-37.62c-0.92-0.92-1.83-0.92-1.83,0c0,0.92,0.92,0.92,1.83,0.92
		c1.83,1.83,2.75,3.67,4.59,5.5c0,0,0,0.92,0,1.83c-3.67-2.75-6.42-4.59-10.09-6.42c-10.09-5.5-21.1-8.26-32.11-9.17
		c-1.83,0-4.59,0-6.42-1.83c12.84-4.59,24.77-3.67,37.62-0.92c12.84,2.75,23.85,10.09,33.03,19.27c0.92,0.92,1.83,3.67,3.67,3.67
		l0,0c0,2.75,2.75,3.67,3.67,5.5c0.92,0.92,1.83,2.75,2.75,3.67s1.83,2.75,1.83,3.67c0.92,0.92,0.92,1.83,1.83,2.75
		c0,0.92,0.92,1.84,0.92,2.75c1.84,2.75,2.75,5.5,4.59,8.26l0,0c1.83,4.59,3.67,9.17,5.5,13.76c0,1.84,0,3.67,1.84,5.5
		c-0.92,1.83,0.92,4.59,0,6.42l0,0c-5.5-4.59-9.17-11.01-17.43-12.84c7.34,16.51,8.26,33.03,7.34,50.46
		c5.5-7.34,6.42-14.68,8.26-23.85c12.84,16.51,17.43,33.95,16.51,54.13c-4.59-5.5-7.34-11.01-14.68-12.84
		c1.83,18.35-1.84,35.78-11.93,51.38c0,0.92-0.92,0.92-0.92,1.83c-0.92,0.92-1.83,1.84-2.75,3.67c-1.83,1.83-2.75,2.75-5.5,4.59
		c0-8.26-0.92-16.51-3.67-23.85c-0.92-4.59-3.67-9.17-6.42-13.76c-1.84-3.67-5.5-6.42-9.17-9.17c0-0.92,0-0.92,0-1.83
		c0-1.83,0.92-4.59,0.92-6.42c0-5.5,1.83-3.67,5.5-2.75c6.42,3.67,11.01,8.26,14.68,14.68c2.75,3.67,4.59,2.75,6.42,0
		c0.92-0.92,1.83-2.75,1.83-3.67c0-3.67,8.26-9.17-2.75-10.09c-0.92,0-0.92-0.92-1.83-1.83c-10.09-11.93-17.43-25.69-22.94-40.37
		h0.92h0.92c3.67,3.67,6.42,7.34,11.01,11.93c-1.83-7.34-3.67-12.84-6.42-18.35c-1.83-5.5-5.5-10.09-8.26-15.6
		c-3.67-6.42-9.17-8.26-15.6-8.26c-4.59,0-10.09,0-14.68-0.92c10.09-8.26,24.77-7.34,38.53,1.84c-2.75-8.26-4.59-15.6-7.34-24.77
		C422.08,158.53,427.59,164.04,435.84,165.87c0,0.92,0,0.92,0,0.92C435.84,165.87,435.84,165.87,435.84,165.87z"/>
	<path class="st9" d="M378.96,291.57c-4.59-5.51-8.26-11.01-14.68-14.68c0-0.92-0.92-0.92-0.92-0.92s0,0.92,0,1.83
		c1.84,6.42,4.59,12.84,4.59,20.18c-1.83,0-2.75,1.83-4.59,2.75c-5.5,3.67-14.68,2.75-18.35-0.92c0.92,0,2.75,0,2.75-0.92
		c6.42-3.67,4.59-9.17,4.59-14.68c-2.75,0.92-1.83,3.67-4.59,3.67l-0.92-0.92c-17.43-19.27-50.46-20.18-71.56-1.84
		c-2.75,2.75-4.59,3.67-7.34-1.83c-0.92,7.34-1.83,12.84,4.59,16.51c0.92,0.92,2.75,1.84,3.67,2.75
		c-9.17,3.67-16.51,3.67-23.85-3.67c-0.92-6.42,2.75-12.84,3.67-20.18c-7.34,4.59-11.93,10.09-16.51,15.6
		c-3.67-1.83-3.67-6.42-6.42-8.26c0-3.67,0-7.34,0-11.01c-0.92-5.5-0.92-11.93,1.83-17.43c7.34,1.83,13.76,4.59,21.1,4.59
		c1.83,0,2.75,0.92,2.75,2.75c0.92,7.34,5.5,5.5,9.17,2.75l0,0c0,0.92,0,2.75,0.92,4.59c8.26-10.09,18.35-15.6,28.44-22.02l0,0
		c0,0,0,0,0,0.92c-1.83,0-3.67-3.67-6.42-0.92c-3.67,0-7.34,0-11.01,0c11.01-15.6,53.21-13.76,60.55,0c-3.67,0-7.34,0-11.01,0
		c-1.83,0-3.67-0.92-5.5,0.92c0,0,0-0.92-0.92,0c0,0,0.92,0,0.92,0.92c10.09,5.5,20.18,11.93,27.52,21.1l0.92,0.92
		c0.92,0,0-0.92,0-1.84c0-1.83,0-4.59,2.75-1.83c3.67,3.67,4.59,0.92,6.42-1.83c0.92-1.83,0.92-4.59,3.67-4.59
		c7.34,0,13.76-2.75,20.18-4.59c2.75,4.59,2.75,9.17,2.75,13.76c-0.92,2.75-0.92,5.51-0.92,8.26s0,4.59,0,7.34
		C382.63,286.06,382.63,289.73,378.96,291.57z M266.11,270.47L266.11,270.47L266.11,270.47L266.11,270.47z"/>
	<g>
		<path class="st10" d="M232.16,272.3c-0.92,0.92-0.92,1.83-1.83,2.75c-2.75-7.34-2.75-7.34-8.26-1.83
			c-11.01,10.09-12.84,9.17-17.43-4.59c-0.92-1.84-1.83-4.59-2.75-6.42c-2.75,3.67-7.34,5.5-9.17,10.09
			c1.83,23.85,7.34,44.96,27.52,59.64c0-7.34,0-14.68,0-22.94c0-7.34,0-15.6,3.67-22.94c2.75,5.5,1.84,11.93,6.42,15.6
			c0.92-6.42-0.92-12.84,1.83-18.35C232.16,279.64,232.16,275.97,232.16,272.3z"/>
		<path class="st10" d="M424.83,270.47c-1.84-3.67-5.5-6.42-9.17-9.17c-1.84,5.5-3.67,11.01-6.42,16.51
			c-1.83,2.75-3.67,3.67-6.42,0.92c-3.67-3.67-8.26-6.42-11.93-10.09c-1.83,2.75-0.92,5.5-3.67,7.34c0,0,0,0.92-0.92,0.92
			c0,2.75,0,4.59,0,7.34c3.67,5.5,1.83,11.93,1.83,17.43c0.92-0.92,1.83-1.83,2.75-2.75l0,0c0.92-4.59,1.83-9.17,2.75-13.76
			c5.5,14.68,5.5,29.36,2.75,44.04c0,0.92,0,1.83,0.92,1.83s1.83-0.92,1.83-0.92c2.75-2.75,5.5-5.5,9.17-8.26l0.92-0.92l0,0
			c0-1.84,0.92-2.75,2.75-3.67l0,0c2.75-5.5,5.5-11.01,8.26-16.51c0-0.92,0-0.92,0-1.83c0-1.83,0-3.67,0.92-4.59
			c0-0.92,0.92-2.75,0.92-3.67C423,283.31,424.83,276.89,424.83,270.47z"/>
	</g>
	<path class="st7" d="M250.51,296.16c6.42,7.34,14.68,8.26,23.85,3.67c6.42-2.75,11.93-2.75,17.43,2.75
		c5.5,5.5,7.34,11.93,4.59,19.27c-2.75,6.42-8.26,8.26-14.68,9.17C257.85,332.86,245.92,318.18,250.51,296.16z"/>
	<path class="st8" d="M344.09,298.91c3.67,4.59,13.76,4.59,18.35,0.92c1.83-0.92,1.83-2.75,4.59-2.75
		c4.59,24.77-11.01,36.7-33.95,33.95c-9.17-0.92-14.68-9.17-12.84-17.43c1.83-10.09,10.09-16.51,20.18-15.6
		C341.34,298.91,343.18,298.91,344.09,298.91z"/>
	<path class="st11" d="M334,344.78c3.67,1.83,1.83,2.75,0,4.59c-4.59,6.42-11.93,7.34-19.27,8.26c-7.34,0.92-14.68-0.92-22.02-0.92
		c-4.59,0-8.26-5.5-11.01-9.17c-1.83-1.83,0.92-3.67,2.75-4.59c1.83,1.83,3.67,0.92,5.5,0.92
		C304.64,344.78,319.32,344.78,334,344.78z"/>
	<path class="st12" d="M278.95,289.73c-0.92,0-2.75,0.92-1.84-0.92c10.09-14.68,48.63-16.51,59.64-2.75c0,0.92,0,0.92,0.92,2.75
		c-5.5-2.75-10.09-4.59-15.6-4.59C307.39,281.48,292.71,282.39,278.95,289.73z"/>
	<path class="st12" d="M334,344.78c-14.68,0-29.36,0-44.04,0c-1.83,0-3.67,0.92-5.5-0.92C300.05,335.61,322.07,335.61,334,344.78z"
		/>
	<path class="st11" d="M385.38,284.23c3.67,5.5,1.84,11.93,1.84,17.43c0,0.92-0.92,1.84-0.92,3.67c-0.92,0-2.75,3.67-2.75,0
		c0-4.59-1.83-9.17-4.59-12.84C382.63,289.73,382.63,286.06,385.38,284.23z"/>
	<path class="st11" d="M230.32,301.66c0.92-6.42-0.92-12.84,1.83-18.35c2.75,2.75,2.75,6.42,6.42,8.26
		c-1.83,4.59-4.59,9.17-4.59,14.68C231.24,305.33,231.24,302.58,230.32,301.66z"/>
	<path class="st13" d="M389.97,298.91c0.92-4.59,1.83-9.17,2.75-13.76c5.5,14.68,5.5,29.36,2.75,44.04
		c-1.83-3.67-0.92-8.26-0.92-11.93c1.84-7.34,0.92-14.68-0.92-21.1C392.72,295.24,391.8,297.99,389.97,298.91z"/>
	<path class="st13" d="M423,289.73c0.92-6.42,1.84-12.84,1.84-19.27c3.67,3.67,5.5,8.26,6.42,13.76c-3.67-0.92-6.42-0.92-5.5,4.59
		C425.75,289.73,423.92,289.73,423,289.73z"/>
	<path class="st13" d="M411.99,317.26c2.75-5.5,5.5-11.01,8.26-16.51C421.16,308.08,417.49,314.51,411.99,317.26z"/>
	<path class="st13" d="M386.3,304.41c0-0.92,0.92-1.83,0.92-3.67c0.92-0.92,1.83-1.83,2.75-2.75
		C389.97,301.66,390.89,304.41,386.3,304.41z"/>
	<path class="st13" d="M420.25,298.91c0-1.83,0-3.67,0.92-4.59C423.92,296.16,423,297.07,420.25,298.91z"/>
	<path class="st13" d="M409.24,320.93c0-1.84,0.92-2.75,2.75-3.67C411.99,319.09,411.99,320.93,409.24,320.93z"/>
	<path class="st14" d="M440.43,302.58c0.92-0.92,1.83-1.84,2.75-3.67C443.18,300.74,442.27,302.58,440.43,302.58z"/>
	<path class="st13" d="M397.31,331.02c0.92,0,1.83-0.92,1.83-0.92C399.14,331.02,398.23,331.94,397.31,331.02z"/>
	<path class="st12" d="M279.87,403.5c0-0.92-0.92-0.92-0.92-1.83c0.92-0.92,1.83-0.92,1.83,0.92
		C280.79,402.59,280.79,402.59,279.87,403.5z"/>
	<path class="st13" d="M408.32,321.85l0.92-0.92C408.32,320.93,408.32,321.85,408.32,321.85z"/>
	<path class="st12" d="M345.93,401.67c0,0-0.92,0-0.92-0.92C345.01,401.67,345.93,401.67,345.93,401.67L345.93,401.67z"/>
	<path class="st15" d="M258.77,135.59C258.77,135.59,258.77,136.51,258.77,135.59c-0.92,0.92-1.84,1.83-0.92,2.75
		c0,2.75,0,4.59,0,7.34c-1.84,3.67,0.92,6.42,2.75,8.26l0,0c0,3.67,2.75,6.42,5.5,10.09l0,0c0.92,2.75,1.84,4.59,1.84,7.34
		c0.92,3.67,3.67,8.26,1.83,11.93c-5.5-4.59-11.01-10.09-16.51-14.68c0-5.5,0-10.09-0.92-14.68s-0.92-9.17,0.92-12.84v-0.92l0,0
		c1.84-0.92,2.75-2.75,1.84-5.5l0,0c0-0.92,0.92-0.92,0.92-1.83l0,0C257.85,133.76,257.85,134.68,258.77,135.59z"/>
	<path class="st15" d="M361.53,133.76C361.53,133.76,361.53,134.68,361.53,133.76c0,1.83,0.92,2.75,1.83,3.67
		c2.75,5.5,3.67,11.01,1.83,17.43c-4.59,4.59-1.83,10.09-2.75,15.6c-4.59,4.59-10.09,8.26-13.76,13.76c-1.83-2.75-0.92-5.5,0-8.26
		c1.83-6.42,5.5-11.93,6.42-18.35l0,0c1.84,0,1.84-0.92,1.84-2.75l0,0c1.83-0.92,2.75-3.67,3.67-5.5c0.92-4.59,0.92-10.09,0-14.68
		C358.77,132.84,360.61,133.76,361.53,133.76z"/>
	<path class="st11" d="M335.84,186.06c-6.42,5.5-11.01,11.93-13.76,19.27c-0.92,2.75-1.83,2.75-4.59,1.83
		c-5.5-1.83-11.01-1.83-16.51,0c-2.75,0.92-3.67,0.92-5.5-1.83c-2.75-7.34-7.34-13.76-13.76-19.27c5.5,0,8.26,4.59,11.01,7.34
		c11.01,11.01,21.1,11.01,31.19,0C327.58,190.64,330.33,186.06,335.84,186.06z"/>
	<path class="st10" d="M253.26,169.54c5.5,4.59,11.01,10.09,16.51,14.68c0.92,0.92,1.83,0.92,2.75,0.92c0,0.92,0.92,2.75,0.92,3.67
		s0,2.75-1.83,3.67c-1.83,0-2.75-1.84-3.67-2.75c-7.34-11.01-17.43-19.27-28.44-25.69C245,164.04,248.67,168.62,253.26,169.54z"/>
	<path class="st10" d="M348.68,184.22c3.67-5.5,9.17-9.17,13.76-13.76c0.92,0,2.75,0.92,2.75,1.84
		c-7.34,6.42-12.84,14.68-19.27,21.1c-0.92-0.92-0.92-2.75-1.83-3.67c0.92-1.83,0.92-2.75,1.83-4.59
		C346.85,185.14,347.76,185.14,348.68,184.22z"/>
	<path class="st11" d="M271.61,192.48c1.83-0.92,0.92-1.84,1.83-3.67c3.67,0.92,3.67,6.42,8.26,7.34c0.92,3.67,0,8.26-1.83,12.84
		C276.2,202.57,272.53,198.9,271.61,192.48z"/>
	<path class="st11" d="M344.09,189.73c0.92,0.92,0.92,2.75,1.83,3.67c-1.83,4.59-4.59,9.17-7.34,14.68
		c-3.67-3.67-2.75-8.26-2.75-11.93C340.42,196.15,340.42,190.64,344.09,189.73z"/>
	<path class="st15" d="M348.68,184.22c-0.92,0.92-1.84,0.92-2.75,1.84c0-10.09,3.67-19.27,9.17-27.52
		c-0.92,6.42-4.59,11.93-6.42,18.35C347.76,178.72,346.85,181.47,348.68,184.22z"/>
	<path class="st15" d="M361.53,133.76c-1.83-0.92-2.75-0.92-1.83,1.83c0.92,4.59,0.92,10.09,0,14.68c0,1.84-0.92,4.59-3.67,5.5
		c0.92-2.75,1.84-5.5,2.75-8.26c1.83-7.34,0-13.76-6.42-20.18C356.94,129.17,359.69,131.01,361.53,133.76z"/>
	<path class="st15" d="M365.2,172.29c0-1.84-0.92-1.84-2.75-1.84c0.92-5.5-1.83-11.01,2.75-15.6c0,3.67-0.92,6.42-0.92,10.09
		c0,2.75,0.92,4.59,4.59,2.75c1.83-0.92,3.67-2.75,6.42-1.84C371.62,167.71,368.87,170.46,365.2,172.29z"/>
	<path class="st15" d="M272.53,185.14c-0.92,0-1.83,0-2.75-0.92c1.83-4.59-0.92-8.26-1.83-11.93c-0.92-2.75-1.84-5.5-1.84-7.34
		C270.69,170.46,271.61,177.8,272.53,185.14z"/>
	<path class="st15" d="M258.77,135.59c-0.92-0.92-0.92-1.83-1.84-2.75c0.92-2.75,2.75-3.67,7.34-4.59
		C261.52,131.92,260.6,133.76,258.77,135.59z"/>
	<path class="st15" d="M266.11,164.04c-1.83-2.75-4.59-5.5-5.5-10.09C264.27,157.61,266.11,160.37,266.11,164.04z"/>
	<path class="st15" d="M261.52,154.86c-2.75-1.83-4.59-4.59-2.75-8.26C258.77,149.36,260.6,152.11,261.52,154.86z"/>
	<path class="st15" d="M256.01,134.68c0,1.83-0.92,3.67-1.83,5.5C253.26,138.35,254.18,136.51,256.01,134.68z"/>
	<path class="st15" d="M363.36,137.43c-0.92-0.92-1.83-1.83-1.83-2.75C363.36,134.68,363.36,135.59,363.36,137.43z"/>
	<path class="st7" d="M209.22,136.51c0,0.92-0.92,0.92-0.92,1.83l0,0C208.3,137.43,209.22,136.51,209.22,136.51L209.22,136.51z"/>
	<path class="st15" d="M257.85,139.26c-0.92-0.92-0.92-1.83,0.92-2.75C258.77,137.43,258.77,138.35,257.85,139.26z"/>
	<path class="st15" d="M356.02,155.78c0,0.92,0,1.84-1.84,2.75C355.1,156.7,355.1,155.78,356.02,155.78z"/>
	<polygon class="st8" points="408.32,137.43 408.32,136.51 409.24,136.51 	"/>
	<path class="st7" d="M209.22,136.51c0-0.92,0.92-0.92,0.92-1.83l0.92,0.92C210.14,135.59,210.14,136.51,209.22,136.51
		L209.22,136.51z"/>
	<path class="st7" d="M211.97,133.76l-0.92,0.92l-0.92-0.92C210.14,134.68,211.06,133.76,211.97,133.76L211.97,133.76z"/>
	<path class="st16" d="M383.55,163.12C383.55,164.04,383.55,164.04,383.55,163.12C383.55,164.04,383.55,164.04,383.55,163.12
		C382.63,164.04,382.63,164.04,383.55,163.12C382.63,164.04,383.55,164.04,383.55,163.12z"/>
	<path class="st7" d="M202.8,155.78C202.8,155.78,203.72,155.78,202.8,155.78C203.72,155.78,203.72,155.78,202.8,155.78
		L202.8,155.78z"/>
	<path class="st15" d="M256.93,133.76c0,0.92-0.92,0.92-0.92,1.83C256.01,134.68,256.01,133.76,256.93,133.76z"/>
	<path class="st15" d="M253.26,140.18v0.92C253.26,141.1,253.26,141.1,253.26,140.18L253.26,140.18z"/>
	<path class="st6" d="M200.96,209.91c0.92-0.92,1.84-2.75,3.67,0c3.67,6.42,9.17,11.93,13.76,17.43
		c-4.59,4.59-7.34,10.09-8.26,16.51c-0.92,5.5-2.75,11.93-7.34,15.6c0,0,0,0,0-0.92c-0.92-3.67,1.83-8.26-1.84-9.17
		c-3.67-0.92-6.42,2.75-9.17,4.59c-3.67,2.75-7.34,6.42-10.09,11.01c-1.84,3.67-3.67,2.75-5.5,0c-2.75-4.59-4.59-9.17-4.59-14.68
		c2.75,0.92,5.5,2.75,8.26-0.92c8.26-11.93,15.6-23.85,22.02-36.7C200.96,211.75,200.96,210.83,200.96,209.91z"/>
	<path class="st15" d="M201.88,259.46c5.5-3.67,6.42-9.17,7.34-15.6c0.92-6.42,3.67-11.93,8.26-16.51
		c7.34,4.59,15.6,10.09,23.85,11.01c0.92,0,0.92,0.92,0.92,1.84c-6.42,2.75-13.76,3.67-21.1,1.83c-1.83,0-0.92,0.92-0.92,0.92
		c2.75,5.5,8.26,7.34,12.84,10.09c-2.75,5.5-2.75,11.01-1.83,17.43c-0.92,0.92-0.92,1.83-1.84,2.75c-2.75-7.34-2.75-7.34-8.26-1.83
		c-11.01,10.09-12.84,9.17-17.43-4.59c-0.92-1.84-1.84-4.59-2.75-6.42C201.88,260.37,201.88,260.37,201.88,259.46z"/>
	<path class="st6" d="M212.89,128.25c0,0,0.92-0.92,0.92,0C213.81,128.25,213.81,129.17,212.89,128.25
		C212.89,129.17,212.89,129.17,212.89,128.25z"/>
	<path class="st6" d="M400.06,226.43c5.5-5.5,10.09-11.01,13.76-17.43c0.92,0,1.84,0,2.75,0l0,0c5.5,14.68,12.84,28.44,22.94,40.37
		c0.92,0.92,0.92,1.84,1.83,1.84c11.01,0,2.75,6.42,2.75,10.09c0,0.92-0.92,2.75-1.83,3.67c-1.83,3.67-3.67,3.67-6.42,0
		c-3.67-5.5-8.26-11.01-14.68-14.68c-2.75-1.84-5.5-2.75-5.5,2.75c0,1.84-0.92,4.59-0.92,6.42c-3.67-3.67-6.42-8.26-6.42-12.84
		C408.32,239.27,404.65,232.85,400.06,226.43z"/>
	<path class="st15" d="M400.06,226.43c4.59,6.42,8.26,11.93,9.17,20.18c0,4.59,2.75,9.17,6.42,12.84c0,0.92,0,0.92,0,1.83
		c-1.84,5.51-3.67,11.01-6.42,16.51c-1.83,2.75-3.67,3.67-6.42,0.92c-3.67-3.67-8.26-6.42-11.93-10.09
		c-1.83,2.75-0.92,5.5-3.67,7.34c0-2.75,0-4.59,0-7.34c0.92-4.59,0-9.17-2.75-13.76c4.59-3.67,10.09-4.59,12.84-10.09
		c-1.83-2.75-4.59-0.92-6.42-0.92c-5.5,0-11.01,0-16.51-4.59C384.46,237.44,392.72,232.85,400.06,226.43z"/>
	<path class="st17" d="M417.49,209.91c1.83-1.83,2.75-4.59,3.67-6.42c3.67,5.5,4.59,11.93,6.42,18.35
		C424.83,217.25,421.16,213.58,417.49,209.91z"/>
	<path class="st6" d="M402.81,128.25c-0.92,0-1.83,0-1.83-0.92C401.9,126.42,402.81,127.34,402.81,128.25
		C402.81,127.34,402.81,128.25,402.81,128.25z"/>
	<path class="st6" d="M435.84,165.87v0.92C435.84,165.87,435.84,165.87,435.84,165.87L435.84,165.87z"/>
	<path class="st11" d="M233.99,254.87c-4.59-2.75-10.09-4.59-12.84-10.09c2.75,0.92,4.59,3.67,7.34,2.75c0,0.92,0.92,0.92,1.83,0.92
		c0.92,0,1.84,0.92,1.84,0.92c2.75,0.92,6.42,0.92,9.17,0.92c0.92,0,2.75,0,3.67,0c5.5,0,10.09-3.67,15.6-6.42
		c0,5.5,0,10.09,0,16.51c9.17-7.34,17.43-11.93,27.52-13.76c2.75-2.75,4.59,0.92,6.42,0.92l0,0c-10.09,6.42-20.18,11.93-28.44,22.02
		c0-2.75,0-3.67-0.92-4.59l0,0c0,0,0,0,0,0.92c-3.67,2.75-8.26,4.59-9.17-2.75c0-1.83-1.83-2.75-2.75-2.75
		C247.76,259.46,240.42,256.7,233.99,254.87z"/>
	<path class="st8" d="M396.39,244.78c-2.75,4.59-8.26,6.42-12.84,10.09c-6.42,1.83-13.76,4.59-20.18,4.59
		c-3.67,0-3.67,2.75-3.67,4.59c-1.84,2.75-2.75,5.5-6.42,1.83c-2.75-2.75-2.75,0-2.75,1.83l-0.92,0.92
		c-7.34-9.17-17.43-14.68-27.52-21.1l0,0c1.83-1.83,3.67-0.92,5.5-0.92c10.09,1.83,19.27,6.42,27.52,13.76
		c1.83-5.5,0-11.01,0.92-16.51C369.78,252.12,382.63,252.12,396.39,244.78z"/>
	<path class="st11" d="M386.3,268.63c0,2.75,0,4.59,0,7.34c0,0,0,0.92-0.92,0.92C385.38,274.14,385.38,271.38,386.3,268.63z"/>
	<path class="st8" d="M350.52,267.71c0,0,0.92,0.92,0,1.83C350.52,269.55,350.52,268.63,350.52,267.71
		C350.52,268.63,350.52,267.71,350.52,267.71z"/>
	<polygon class="st11" points="266.11,270.47 266.11,269.55 267.02,269.55 	"/>
	<path class="st5" d="M363.36,276.89c0-0.92,0-0.92,0-1.84c0.92-0.92,0.92,0,0.92,0.92C363.36,276.89,363.36,276.89,363.36,276.89z"
		/>
	<path class="st11" d="M296.38,247.53L296.38,247.53L296.38,247.53L296.38,247.53z"/>
	<path class="st8" d="M322.07,247.53C322.07,247.53,321.16,246.61,322.07,247.53C322.07,246.61,322.07,246.61,322.07,247.53
		C322.99,247.53,322.07,247.53,322.07,247.53z"/>
	<path class="st8" d="M456.03,191.56L456.03,191.56L456.03,191.56L456.03,191.56L456.03,191.56z"/>
	<path class="st4" d="M245.92,203.49c12.84,6.42,22.02,15.6,32.11,27.52c-8.26-2.75-15.6-3.67-22.94-7.34
		C251.43,217.25,245,211.75,245.92,203.49z"/>
	<path class="st4" d="M363.36,223.67c-7.34,3.67-14.68,4.59-22.94,7.34c9.17-11.01,18.35-20.18,29.36-25.69
		c2.75,1.84,0.92,4.59,0,7.34C368.87,216.33,365.2,219.09,363.36,223.67z"/>
	<path class="st4" d="M245.92,203.49c-0.92,8.26,5.5,13.76,9.17,20.18c-14.68-1.83-16.51-6.42-17.43-21.1
		c0-2.75,0.92-3.67,3.67-1.83C242.25,201.65,244.09,202.57,245.92,203.49z"/>
	<path class="st4" d="M363.36,223.67c0.92-4.59,5.5-7.34,6.42-11.93c0.92-2.75,2.75-4.59,0-7.34c2.75-2.75,6.42-3.67,9.17-4.59
		C382.63,213.58,378.04,220.92,363.36,223.67z"/>
	<path class="st8" d="M416.58,209.91c-0.92,0-1.84,0-2.75,0C414.74,208.08,415.66,208.08,416.58,209.91z"/>
	<path class="st9" d="M267.02,264.96C267.02,264.04,267.02,264.04,267.02,264.96C267.02,264.04,267.02,264.04,267.02,264.96
		C267.02,264.04,267.02,264.96,267.02,264.96z"/>
	<g>
		<path class="st18" d="M452.36,335.61c-0.92-4.59-1.83-0.92-2.75,0c-10.09,15.6-22.02,29.36-37.62,41.29
			c-9.17,7.34-19.27,13.76-32.11,19.27c0.92-5.5,4.59-9.17,4.59-15.6c-13.76,16.51-29.36,28.44-48.63,35.78
			c2.75-4.59,6.42-10.09,9.17-14.68c0,0-0.92,0-0.92-0.92c0,0,0.92,0,0.92,0.92c-1.84-1.84-2.75,0-4.59,0.92
			c-6.42,4.59-12.84,8.26-20.18,12.84c-6.42,3.67-12.84,3.67-19.27,0c-7.34-3.67-14.68-9.17-22.02-12.84c0-0.92-0.92-0.92-1.83-0.92
			c0,0.92,0.92,0.92,0.92,1.83c1.83,3.67,4.59,8.26,6.42,11.93l-0.92,0.92c-17.43-7.34-32.11-19.27-44.96-33.03l-0.92,0.92
			c1.84,3.67,2.75,6.42,4.59,11.93c-16.51-6.42-29.36-15.6-40.37-26.61c-10.09-11.01-19.27-22.94-29.36-35.78
			c0,5.5,3.67,9.17,2.75,14.68c-30.28-33.03-48.63-70.65-54.13-113.77c-0.92-0.92-1.83,0-1.83,0.92c-0.92,0-0.92,0.92-1.83,0.92
			c-0.92-3.67-0.92-6.42,0-10.09c3.67-14.68,12.84-25.69,22.02-36.7c6.42-8.26,12.84-15.6,17.43-24.77c3.67-6.42,3.67-12.84,0-19.27
			c-8.26-12.84-10.09-28.44-11.93-44.04c-1.83,2.75-3.67,4.59-4.59,7.34c0.92-25.69,20.18-52.3,65.14-56.88
			c0-2.75-2.75-1.83-2.75-4.59c19.27-1.83,36.7,2.75,51.38,15.6c3.67,2.75,7.34,6.42,11.01,10.09
			c11.93,12.84,26.61,21.1,44.96,22.02c0,0.92-0.92,1.83-0.92,1.83c2.75,3.67,13.76,0.92,16.51-2.75
			c15.6-2.75,26.61-11.93,36.7-22.02s21.1-17.43,34.86-21.1c8.26-1.83,16.51-2.75,25.69-1.83c0.92,2.75-2.75,1.83-2.75,4.59
			c34.86,3.67,59.64,19.27,66.98,56.88c-3.67-2.75-5.5-5.5-8.26-7.34c0,18.35-2.75,34.86-13.76,50.46c-0.92,0-1.83-0.92-1.83,0.92
			c0,0,0.92,0,1.83,0c0,0.92,0,2.75,0,3.67c-5.5,3.67-0.92,7.34,0.92,10.09c7.34,12.84,16.51,23.85,24.77,34.86
			c3.67,4.59,6.42,9.17,9.17,13.76c2.75,5.5,1.83,9.17-2.75,12.84c-1.83,1.84-3.67,3.67-4.59,6.42c-2.75,11.01-4.59,21.1,0.92,32.11
			c0.92,0.92,0,1.83-0.92,2.75c-5.5-2.75-11.01-6.42-17.43-3.67c-5.5,1.84-11.01,2.75-16.51,5.5c0-2.75,0.92-3.67,3.67-3.67
			c3.67,0,6.42-1.84,10.09-3.67c1.83-0.92,2.75-1.83,2.75-3.67c-3.67-7.34,3.67-16.51-1.83-23.85c0,0,0-1.83,0.92-1.83
			c2.75-4.59,1.83-8.26-2.75-11.01c-8.26-6.42-11.93-15.6-11.01-26.61c0-2.75,0-4.59,0-7.34c0-2.75-0.92-3.67-3.67-3.67
			c-0.92-1.84-1.83-3.67-1.83-5.5c1.83-5.5-0.92-11.01-5.5-13.76l0,0c1.84-4.59,1.84-7.34-4.59-8.26c0-0.92-0.92-1.83-0.92-2.75
			c0.92,0,1.83-0.92,0.92-1.84c-0.92-0.92-1.83-0.92-2.75-0.92c-0.92-0.92-1.84-2.75-1.84-3.67c2.75-3.67,0-3.67-2.75-3.67
			c-0.92-1.83-3.67-2.75-3.67-5.5c0,0,0-0.92,0.92-0.92c0,0-0.92,0-0.92,0.92c-2.75,0-2.75-1.83-3.67-3.67
			c-9.17-9.17-20.18-16.51-33.03-19.27c-12.84-2.75-25.69-3.67-37.62,0.92c-1.83-0.92-3.67,1.83-4.59,0s0.92-3.67,2.75-4.59
			c5.5-5.5,11.93-9.17,19.27-12.84c2.75-1.83,6.42-1.83,9.17-4.59c-22.02,1.83-42.2,4.59-60.55,14.68c-9.17,5.5-20.18,5.5-29.36,0
			c-11.01-6.42-22.94-10.09-34.86-11.93c-4.59-0.92-8.26-0.92-12.84-1.83c-3.67,0-8.26-0.92-11.93-0.92
			c11.01,6.42,23.85,11.01,31.19,22.94c-2.75,0-5.5-0.92-7.34-0.92c0,0,0-0.92-0.92-0.92c-19.27-3.67-37.62-2.75-54.13,7.34
			c-25.69,15.6-36.7,40.37-42.2,66.98c0,0,0,0,0.92,0.92c4.59-4.59,9.17-11.01,17.43-12.84c-8.26,17.43-7.34,34.86-7.34,52.3
			c-4.59-8.26-6.42-15.6-8.26-24.77c-11.93,10.09-19.27,35.78-15.6,52.3c3.67-4.59,6.42-10.09,13.76-11.93
			c-1.84,22.94,3.67,43.12,21.1,61.47c0.92-13.76,1.84-25.69,10.09-36.7c1.83,23.85,7.34,44.96,27.52,59.64c0-7.34,0-14.68,0-22.94
			c0-7.34,0-15.6,3.67-22.94c2.75,5.5,1.84,11.93,6.42,15.6c0.92,1.83,0.92,3.67,3.67,4.59c0-5.5,1.83-10.09,4.59-14.68
			c4.59-5.5,9.17-11.01,16.51-15.6c-0.92,7.34-4.59,13.76-3.67,20.18c-5.5,22.02,7.34,36.7,30.28,34.86
			c6.42-0.92,12.84-2.75,14.68-9.17c2.75-7.34,0.92-13.76-4.59-19.27c-4.59-4.59-11.01-5.5-17.43-2.75
			c-0.92-0.92-2.75-1.83-3.67-2.75c3.67,0,2.75-1.83,0.92-2.75c-1.83-0.92-2.75-2.75-0.92-4.59c0.92-0.92,1.83-2.75,3.67-1.84
			c2.75,0,1.83,1.84,1.83,3.67c0.92,1.83,1.83,1.83,2.75,0.92c0,0,4.59-0.92,0-2.75c13.76-7.34,28.44-8.26,43.12-5.51
			c0,0.92,0,1.84,0,1.84c5.5,4.59,13.76,4.59,19.27,0c0.92-0.92,1.84-0.92,2.75-1.84l0.92,0.92c1.83,3.67,2.75,7.34-0.92,10.09
			c-0.92,0.92,0.92,0.92,1.83,0.92c-0.92,0.92-1.83,0.92-2.75,0.92s-2.75,0-3.67-0.92c-10.09-0.92-18.35,5.5-20.18,15.6
			c-1.83,8.26,3.67,15.6,12.84,17.43c22.94,2.75,38.53-9.17,33.95-33.95c0.92-7.34-2.75-13.76-4.59-20.18l0.92-0.92
			c6.42,3.67,11.01,9.17,14.68,14.68c2.75,3.67,4.59,8.26,4.59,12.84c0,4.59,1.84,0.92,2.75,0c4.59,0,4.59-2.75,3.67-6.42l0,0
			c1.83,0,1.83-2.75,4.59-2.75c1.83,7.34,2.75,13.76,0.92,21.1c-0.92,3.67-0.92,8.26,0.92,11.93c0,0.92,0,1.83,0.92,1.83
			s1.83,0,1.83-0.92c2.75-2.75,5.5-5.5,9.17-8.26l0.92-0.92l0,0c2.75,0,2.75-1.83,2.75-3.67l0,0c5.5-2.75,9.17-9.17,8.26-16.51
			c0-0.92,0-0.92,0-1.83c1.83-0.92,3.67-2.75,0.92-4.59c0-0.92,0.92-2.75,0.92-3.67c0.92,0,2.75-0.92,2.75-1.84
			c-0.92-4.59,1.84-4.59,5.5-4.59c2.75,7.34,3.67,14.68,3.67,23.85c1.84-1.83,3.67-3.67,5.5-4.59c1.83,0,2.75-0.92,2.75-3.67
			c0-0.92,0.92-0.92,0.92-1.83c4.59,0,4.59-6.42,9.17-6.42c5.5-0.92,5.5-4.59,5.5-8.26c0-2.75,0-6.42,0-9.17
			c2.75,0.92,2.75,2.75,2.75,4.59c0,4.59,0,10.09,0,14.68c0,4.59,1.83,6.42,6.42,6.42c4.59,0,9.17-0.92,13.76-0.92
			c-0.92,2.75-5.5,1.83-4.59,5.5c0.92,2.75-0.92,5.5-2.75,8.26c-1.83,4.59-7.34,8.26-6.42,14.68l0,0c-6.42,0-5.5,4.59-6.42,8.26
			C457.86,334.69,455.11,333.77,452.36,335.61z M284.46,343.87c-1.83,0.92-4.59,1.83-2.75,4.59c2.75,3.67,7.34,9.17,11.01,9.17
			c7.34,0,14.68,1.83,22.02,0.92c7.34-0.92,14.68-1.83,19.27-8.26c1.83-1.83,3.67-3.67,0-4.59
			C322.07,335.61,300.05,335.61,284.46,343.87z"/>
		<path class="st18" d="M467.04,325.52c-0.92-6.42,4.59-10.09,6.42-14.68c0.92-2.75,2.75-4.59,2.75-8.26
			c-0.92-3.67,3.67-3.67,4.59-5.5c5.5-9.17,8.26-18.35,11.01-28.44c0.92-0.92,1.83-1.83,0.92-2.75c-5.5-10.09-3.67-21.1-0.92-32.11
			c0.92-2.75,1.83-4.59,4.59-6.42c4.59-3.67,5.5-7.34,2.75-12.84c-2.75-4.59-5.5-9.17-9.17-13.76
			c-9.17-11.01-17.43-22.94-24.77-34.86c-1.84-2.75-5.5-6.42-0.92-10.09c0.92,1.83,0.92,2.75,1.84,4.59
			c2.75,11.01,11.01,18.35,17.43,27.52c6.42,9.17,13.76,17.43,19.27,27.52c3.67,6.42,5.5,12.84,4.59,21.1
			c-3.67-2.75-4.59-1.83-4.59,2.75C498.23,270.47,486.3,299.83,467.04,325.52z"/>
		<path class="st18" d="M452.36,335.61c2.75-1.83,6.42,0,9.17-0.92c-1.83,1.83-2.75,4.59-4.59,6.42c-2.75,2.75-4.59,4.59-7.34,7.34
			l-0.92-0.92c0.92-2.75,1.83-4.59,1.83-7.34c0.92,0,1.83,0,1.83,0c-0.92,0-0.92-0.92-1.83-0.92
			C451.44,337.44,451.44,336.53,452.36,335.61z"/>
		<path class="st18" d="M324.83,94.31c-1.83,4.59-13.76,6.42-16.51,2.75c0,0,0-0.92,0.92-1.83c2.75,0,4.59,0,7.34,0
			c1.84,1.83,1.84,1.83,2.75-0.92C320.24,95.22,322.99,94.31,324.83,94.31z"/>
		<path class="st18" d="M451.44,339.28c0.92,0,0.92,0.92,1.83,0.92c-0.92,0-1.83,0-1.83,0
			C450.52,339.28,450.52,339.28,451.44,339.28z"/>
		<path class="st18" d="M464.29,153.03c-0.92,0-1.83,0-1.83,0C463.37,151.19,463.37,152.11,464.29,153.03
			C464.29,152.11,464.29,152.11,464.29,153.03z"/>
		<path class="st18" d="M449.61,347.54c0,0.92-0.92,0.92-0.92,0.92s0-0.92,0-1.83C448.69,347.54,449.61,347.54,449.61,347.54z"/>
		<path class="st18" d="M461.53,334.69c0-3.67,0-8.26,6.42-8.26C465.2,329.19,463.37,331.94,461.53,334.69z"/>
		<path class="st18" d="M456.03,191.56c0.92-1.84-0.92-4.59,0-6.42c2.75,0,3.67,0.92,3.67,3.67c0,2.75,0,4.59,0,7.34
			c-0.92,11.01,2.75,19.27,11.01,26.61c3.67,2.75,5.5,6.42,2.75,11.01c0,0.92-0.92,1.83-0.92,1.83c5.51,7.34-1.83,15.6,1.84,23.85
			c0.92,1.83-0.92,2.75-2.75,3.67c-2.75,1.83-6.42,2.75-10.09,3.67c-2.75,0-3.67,0.92-3.67,3.67c0,0.92,0,1.83,0,2.75
			c0,2.75,0,6.42,0,9.17c0,3.67,0,7.34-5.5,8.26c-3.67,0.92-3.67,7.34-9.17,6.42c9.17-15.6,13.76-32.11,11.93-51.38
			c7.34,1.84,10.09,7.34,14.68,12.84c1.83-21.1-3.67-38.53-16.51-54.13c-1.83,9.17-2.75,17.43-8.26,23.85
			c0.92-17.43,0-33.95-7.34-50.46C446.85,180.55,450.52,186.97,456.03,191.56L456.03,191.56L456.03,191.56L456.03,191.56z"/>
		<path class="st18" d="M457.86,273.22c0-0.92,0-1.84,0-2.75c5.5-1.83,11.01-3.67,16.51-5.5c6.42-1.83,11.93,1.84,17.43,3.67
			c-2.75,10.09-6.42,19.27-11.01,28.44c-4.59,0-9.17,0.92-13.76,0.92c-4.59,0-6.42-1.83-6.42-6.42c0-4.59,0-10.09,0-14.68
			C460.62,275.97,461.53,273.22,457.86,273.22z"/>
		<path class="st18" d="M270.69,297.99c-6.42-3.67-4.59-9.17-4.59-16.51c2.75,5.5,4.59,4.59,7.34,1.83
			c20.18-18.35,54.13-17.43,71.56,1.83c-0.92,0.92-1.83,0.92-2.75,1.83c-5.5,4.59-13.76,4.59-19.27,0c-0.92,0,0-1.83,0-1.83
			c5.5,0.92,10.09,2.75,15.6,4.59c0-1.83,0-2.75-0.92-2.75c-11.01-13.76-49.54-11.93-59.64,2.75c-0.92,1.84,0.92,0.92,1.83,0.92
			c4.59,0.92,0,1.83,0,2.75c-0.92,0.92-2.75,0.92-2.75-0.92c0-1.84,0-3.67-1.84-3.67c-1.83,0-2.75,0.92-3.67,1.83
			c-0.92,1.83,0,3.67,0.92,4.59C273.45,296.16,274.36,297.99,270.69,297.99z"/>
		<path class="st18" d="M346.85,286.06c2.75,0.92,2.75-2.75,4.59-3.67c0,5.5,1.83,11.01-4.59,14.68c-0.92,0-2.75,0-1.84-0.92
			C349.6,293.4,348.68,289.73,346.85,286.06z"/>
		<path class="st18" d="M454.19,179.63c-1.83-4.59-3.67-9.17-5.5-13.76C453.28,168.62,456.03,174.13,454.19,179.63z"/>
		<path class="st18" d="M449.61,165.87c-1.83-2.75-2.75-5.5-4.59-8.26C450.52,158.53,450.52,161.28,449.61,165.87z"/>
		<path class="st18" d="M440.43,148.44c-0.92-0.92-1.83-2.75-2.75-3.67C439.51,145.69,443.18,144.77,440.43,148.44z"/>
		<path class="st18" d="M444.1,154.86c-0.92-0.92-0.92-1.83-1.83-2.75c0.92,0,1.83,0,2.75,0.92
			C445.02,153.94,444.1,154.86,444.1,154.86z"/>
		<path class="st18" d="M434.01,139.26L434.01,139.26L434.01,139.26L434.01,139.26z"/>
		<path class="st18" d="M327.58,246.61c3.67,0,7.34,0,11.01,0c-7.34-13.76-49.54-15.6-60.55,0c4.59,0,7.34,0,11.01,0
			c-10.09,2.75-19.27,6.42-27.52,13.76c0-6.42,0-11.01,0-16.51c-5.5,2.75-10.09,5.5-15.6,6.42c0-0.92,0-1.84-1.84-1.84
			c-1.83,0-1.83,0.92-1.83,2.75c-2.75,0-6.42,0-9.17-0.92c0-2.75,0-4.59,4.59-4.59c2.75,0,5.5,0,6.42-3.67c0-0.92,0-1.84-0.92-1.84
			c-9.17-1.83-16.51-7.34-23.85-11.01c-4.59-6.42-10.09-11.01-13.76-17.43c-0.92-1.84-1.84-0.92-3.67,0
			c-4.59,0.92-5.5,7.34-11.01,9.17c3.67-11.93,7.34-22.02,14.68-32.11c4.59-6.42,10.09-8.26,16.51-9.17c4.59,0,10.09,0,14.68,0
			c3.67,0.92,7.34,1.84,11.93,1.84c-3.67-6.42-8.26-11.93-14.68-16.51c2.75-0.92,4.59,0,6.42,0.92
			c11.01,6.42,21.1,14.68,28.44,25.69c0.92,0.92,1.83,2.75,3.67,2.75c0.92,5.5,4.59,10.09,7.34,15.6c1.83-4.59,3.67-8.26,1.83-12.84
			c0-2.75-0.92-5.5-0.92-8.26c0-1.83,0.92-1.83,1.83-0.92c5.5,5.5,11.01,11.93,13.76,19.27c0.92,2.75,2.75,2.75,5.5,1.83
			c5.5-1.83,11.01-1.83,16.51,0c2.75,0.92,3.67,0,4.59-1.83c2.75-7.34,8.26-13.76,13.76-19.27c2.75,0,1.84,2.75,0.92,3.67
			c-0.92,1.83-0.92,3.67-0.92,6.42c0,3.67-0.92,8.26,2.75,11.93c2.75-5.5,4.59-10.09,7.34-14.68c6.42-7.34,11.93-14.68,19.27-21.1
			c3.67-1.83,6.42-4.59,10.09-6.42c0.92,0,1.84-0.92,2.75-0.92c1.83,0,2.75-1.84,4.59,0c0.92,1.83-0.92,2.75-1.83,2.75
			c-3.67,3.67-7.34,7.34-10.09,12.84c4.59,0.92,8.26-0.92,11.93-1.84c4.59,0,10.09,0,14.68,0.92c6.42,0,12.84,2.75,15.6,8.26
			s6.42,10.09,8.26,15.6c-1.83,1.84-1.83,4.59-3.67,6.42h-0.92h-0.92l0,0c-0.92-1.84-1.83-1.84-2.75,0
			c-3.67,6.42-9.17,11.93-13.76,17.43c-7.34,5.5-15.6,11.01-26.61,12.84c5.5,4.59,11.01,4.59,16.51,4.59c1.83,0,4.59-1.84,6.42,0.92
			c-13.76,7.34-26.61,7.34-40.37-0.92c-0.92,5.5,0.92,11.01-0.92,16.51C346.85,253.03,337.67,248.45,327.58,246.61z M363.36,223.67
			c13.76-2.75,19.27-10.09,15.6-23.85c-2.75,1.84-6.42,2.75-9.17,4.59c-11.93,6.42-21.1,14.68-29.36,25.69
			C349.6,228.26,356.94,227.34,363.36,223.67z M245.92,203.49c-1.84-0.92-2.75-1.83-4.59-2.75c-2.75-1.84-3.67-0.92-3.67,1.83
			c0.92,14.68,2.75,18.35,17.43,21.1c6.42,3.67,13.76,4.59,22.94,7.34C267.94,219.09,258.77,209.91,245.92,203.49z"/>
		<path class="st18" d="M228.49,247.53c-2.75,0-4.59-1.83-7.34-2.75c0-0.92-0.92-1.83,0.92-0.92c7.34,1.84,14.68,0.92,21.1-1.83
			c-0.92,3.67-3.67,3.67-6.42,3.67c-3.67,0-4.59,0.92-4.59,4.59c-0.92,0-1.84-0.92-1.84-0.92
			C230.32,248.45,229.41,247.53,228.49,247.53z"/>
		<path class="st18" d="M245.92,250.28c-0.92,0-2.75,0-3.67,0c0-0.92,0-2.75,1.83-2.75C245,247.53,245.92,248.45,245.92,250.28z"/>
		<path class="st18" d="M228.49,247.53c0.92,0,0.92,0.92,1.84,0.92C229.41,248.45,229.41,248.45,228.49,247.53z"/>
	</g>
</g>
<g>
	<path class="st20" d="M149.92,465.8v-0.57h2.87h2.87v0.57v0.57h0.57h0.57v2.29v2.29h-0.57h-0.57v0.57v0.57h0.57h0.57v0.57v0.57
		h-0.57h-0.57v-0.57v-0.57h-0.57h-0.57v0.57v0.57h-2.29h-2.29v-0.57v-0.57h-0.57h-0.57v-2.87v-2.87h0.57h0.57V465.8z M154.51,468.09
		v-1.72h-1.72h-1.72v2.87v2.87h1.15h1.15v-0.57v-0.57h-0.57h-0.57v-0.57v-0.57h1.15h1.15V468.09z"/>
	<path class="st20" d="M159.1,465.8v-0.57h3.44h3.44v0.57v0.57h-1.15h-1.15v2.87v2.87h1.15h1.15v0.57v0.57h-3.44h-3.44v-0.57v-0.57
		h1.15h1.15v-2.87v-2.87h-1.15h-1.15V465.8z"/>
	<path class="st20" d="M167.12,469.24v-4.01h1.15h1.15v0.57v0.57h0.57h0.57v0.57v0.57h0.57h0.57v0.57v0.57h0.57h0.57v-1.72v-1.72
		h1.15h1.15v4.01v4.01h-1.15h-1.15v-0.57v-0.57h-0.57h-0.57v-0.57v-0.57h-0.57h-0.57v-0.57v-0.57h-0.57h-0.57v1.72v1.72h-1.15h-1.15
		V469.24z"/>
	<path class="st20" d="M178.6,465.8v-0.57h2.87h2.87v0.57v0.57h-2.29h-2.29v0.57v0.57h-0.57h-0.57v1.72v1.72h0.57h0.57v0.57v0.57
		h1.15h1.15v-1.15v-1.15h-0.57h-0.57v-0.57v-0.57h1.72h1.72v2.29v2.29h-2.87h-2.87v-0.57v-0.57h-0.57h-0.57v-0.57v-0.57h-0.57h-0.57
		v-1.72v-1.72h0.57h0.57v-0.57v-0.57h0.57h0.57V465.8z"/>
	<path class="st20" d="M185.48,469.24v-4.01h3.44h3.44v0.57v0.57h0.57h0.57v1.15v1.15h-0.57h-0.57v0.57v0.57h0.57h0.57v1.15v1.15
		h-0.57h-0.57v0.57v0.57h-3.44h-3.44V469.24z M191.21,467.52v-1.15h-1.72h-1.72v1.15v1.15h1.72h1.72V467.52z M191.21,470.96v-1.15
		h-1.72h-1.72v1.15v1.15h1.72h1.72V470.96z"/>
	<path class="st20" d="M196.95,465.8v-0.57h1.72h1.72v0.57v0.57h0.57h0.57v0.57v0.57h0.57h0.57v2.87v2.87h-1.15h-1.15v-1.15v-1.15
		h-1.72h-1.72v1.15v1.15h-1.15h-1.15v-2.87v-2.87h0.57h0.57v-0.57v-0.57h0.57h0.57V465.8z M199.24,466.94v-0.57h-0.57h-0.57v0.57
		v0.57h-0.57h-0.57v1.15v1.15h1.72h1.72v-1.15v-1.15h-0.57h-0.57V466.94z"/>
	<path class="st20" d="M204.98,465.8v-0.57h2.87h2.87v0.57v0.57h0.57h0.57v2.87v2.87h-0.57h-0.57v0.57v0.57h-2.87h-2.87v-0.57v-0.57
		h-0.57h-0.57v-2.87v-2.87h0.57h0.57V465.8z M209.57,469.24v-2.87h-1.72h-1.72v2.87v2.87h1.72h1.72V469.24z"/>
	<path class="st20" d="M213.6,465.22h5.05v0.47h0.46V469h-0.92v0.47h-0.46v0.47h-2.75v1.89h3.21v0.47h0.46v0.47h0.46v0.47h-5.05
		v-0.47h-0.46v-3.31h0.92V469h0.46v-0.47h2.75v-1.89h-3.21v-0.47h-0.46v-0.47h-0.46V465.22z M214.06,472.78h0.46v-0.47h-0.46V472.78
		z M214.51,469.95h0.46v-0.47h-0.46V469.95z M214.51,472.31h0.46v-0.47h-0.46V472.31z M217.73,466.64h0.46v-0.47h-0.46V466.64z
		 M217.73,469h0.46v-0.47h-0.46V469z M218.19,466.17h0.46v-0.47h-0.46V466.17z"/>
	<path class="st20" d="M220.02,465.7h0.46v-0.47h4.59v0.47h0.46V469h-0.92v-0.47h-0.46v-1.89h-2.75v1.89h-0.46V469h-0.92V465.7z
		 M220.02,469.48h0.92v0.47h0.46v1.89h2.75v-1.89h0.46v-0.47h0.92v3.31h-0.46v0.47h-4.59v-0.47h-0.46V469.48z M220.48,466.17h0.46
		v-0.47h-0.46V466.17z M220.48,472.78h0.46v-0.47h-0.46V472.78z M220.94,466.64h0.46v-0.47h-0.46V466.64z M220.94,472.31h0.46v-0.47
		h-0.46V472.31z M224.15,466.64h0.46v-0.47h-0.46V466.64z M224.15,472.31h0.46v-0.47h-0.46V472.31z M224.61,466.17h0.46v-0.47h-0.46
		V466.17z M224.61,472.78h0.46v-0.47h-0.46V472.78z"/>
	<path class="st20" d="M226.44,465.22h0.46v0.47h0.46v0.47h0.46v2.36h2.75v-2.36h0.46v-0.47h0.46v-0.47h0.46V469h-0.92v0.47h0.92
		v3.78h-0.46v-0.47h-0.46v-0.47h-0.46v-2.36h-2.75v-0.47h-0.46V469h-0.92V465.22z M227.36,469h0.46v-0.47h-0.46V469z M230.57,469
		h0.46v-0.47h-0.46V469z M230.57,469.95h0.46v-0.47h-0.46V469.95z"/>
	<path class="st20" d="M232.87,465.7h0.46v-0.47h4.59v0.47h0.46V469h-0.92v0.47h0.92v3.31h-0.46v0.47h-4.59v-0.47h0.46v-0.47h0.46
		v-0.47H237v-1.89h-2.75v-0.47h-0.46V469h-0.92V465.7z M233.33,466.17h0.46v-0.47h-0.46V466.17z M233.78,466.64h0.46v-0.47h-0.46
		V466.64z M233.78,469h0.46v-0.47h-0.46V469z M234.24,468.53H237v-1.89h-2.75V468.53z M237,466.64h0.46v-0.47H237V466.64z M237,469
		h0.46v-0.47H237V469z M237,469.95h0.46v-0.47H237V469.95z M237,472.31h0.46v-0.47H237V472.31z M237.46,466.17h0.46v-0.47h-0.46
		V466.17z M237.46,472.78h0.46v-0.47h-0.46V472.78z"/>
</g>
</svg>
