<?xml version="1.0" encoding="utf-8"?>
<!-- Generator: Adobe Illustrator 27.9.0, SVG Export Plug-In . SVG Version: 6.00 Build 0)  -->
<svg version="1.1" id="Capa_1" xmlns="http://www.w3.org/2000/svg" xmlns:xlink="http://www.w3.org/1999/xlink" x="0px" y="0px"
	 viewBox="0 0 15 15" style="enable-background:new 0 0 15 15;" xml:space="preserve">
<style type="text/css">
	.st0{fill:#4D50B3;}
	.st1{fill:#AFFE00;}
</style>
<rect class="st0" width="15" height="15"/>
<g id="bscscan-logo-circle">
	<path id="Path_1" class="st1" d="M4.2,7.3c0-0.3,0.2-0.5,0.5-0.5l0,0h0.8C5.8,6.8,6,7,6,7.3l0,0v3c0.1,0,0.2-0.1,0.3-0.1
		c0.2,0,0.3-0.2,0.3-0.4V6.1c0-0.3,0.2-0.5,0.5-0.5h0.8c0.3,0,0.5,0.2,0.5,0.5v3.4c0,0,0.2-0.1,0.4-0.2C8.9,9.3,9,9.2,9,9V4.9
		c0-0.3,0.2-0.5,0.5-0.5h0.8c0.3,0,0.5,0.2,0.5,0.5v3.4c0.7-0.5,1.4-1.1,1.9-1.8c0.2-0.2,0.2-0.5,0.1-0.7c-1-2.9-4.2-4.5-7.1-3.4
		S1.2,6.5,2.2,9.4c0.1,0.3,0.3,0.6,0.4,0.9c0.1,0.2,0.4,0.4,0.7,0.3c0.1,0,0.3,0,0.6-0.1c0.2,0,0.3-0.2,0.3-0.4L4.2,7.3"/>
	<path id="Path_2" class="st1" d="M4.2,12.1c2.5,1.8,6,1.3,7.8-1.2c0.7-1,1.1-2.1,1.1-3.3c0-0.1,0-0.3,0-0.4
		C11,10.2,7.3,11.6,4.2,12.1"/>
</g>
</svg>
