<?xml version="1.0" encoding="utf-8"?>
<!-- Generator: Adobe Illustrator 28.0.0, SVG Export Plug-In . SVG Version: 6.00 Build 0)  -->
<svg version="1.1" id="Capa_1" xmlns="http://www.w3.org/2000/svg" xmlns:xlink="http://www.w3.org/1999/xlink" x="0px" y="0px"
	 viewBox="0 0 15 15" style="enable-background:new 0 0 15 15;" xml:space="preserve">
<style type="text/css">
	.st0{fill:#4D50B3;}
	.st1{fill:#00E906;}
	.st2{fill:#00DF12;}
</style>
<rect class="st0" width="15" height="15"/>
<g>
	<path class="st1" d="M8.3,13.4c-0.4,0-0.8,0-1.3,0c-0.2-0.1-0.3-0.1-0.5-0.1c-2.4-0.5-4.2-2.2-4.7-4.5C1.7,8.5,1.7,8.3,1.6,8
		c0-0.3,0-0.7,0-1c0.1-0.2,0.1-0.4,0.1-0.5c0.5-2.3,1.9-3.9,4.1-4.6c2.3-0.7,4.3-0.1,5.9,1.7c1.3,1.3,1.7,3,1.5,4.8
		c-0.1,1.1-0.5,2-1.3,2.8c-0.1,0.1-0.2,0.1-0.3,0c-0.4-0.4-0.7-0.8-1.1-1.1c-0.2-0.2-0.2-0.2,0-0.5c1.5-2.4,0.1-5.4-2.7-5.8
		c-2.8-0.3-4.9,2.4-4,5c0.7,1.9,2.6,2.9,4.5,2.4C8.9,11,9.2,11,9.4,11.3c0.3,0.4,0.7,0.7,1,1c0.1,0.1,0.1,0.1,0,0.2
		c-0.5,0.4-1,0.6-1.6,0.7C8.6,13.3,8.4,13.3,8.3,13.4z"/>
	<path class="st2" d="M5.2,7.5c0-1.3,1-2.3,2.3-2.3c1.3,0,2.3,1,2.3,2.3c0,1.3-1,2.3-2.3,2.3C6.2,9.8,5.2,8.8,5.2,7.5z"/>
</g>
</svg>
