<?xml version="1.0" encoding="utf-8"?>
<!-- Generator: Adobe Illustrator 27.9.0, SVG Export Plug-In . SVG Version: 6.00 Build 0)  -->
<svg version="1.1" id="Capa_1" xmlns="http://www.w3.org/2000/svg" xmlns:xlink="http://www.w3.org/1999/xlink" x="0px" y="0px"
	 viewBox="0 0 60 60" style="enable-background:new 0 0 60 60;" xml:space="preserve">
<style type="text/css">
	.st0{fill:#AEFB07;}
	.st1{fill:#030303;}
	.st2{fill:#F1EFF0;}
	.st3{fill:#9D9C9C;}
	.st4{fill:#9D9B9F;}
	.st5{fill:#EFECEF;}
	.st6{fill:#3333FF;}
	.st7{fill:#9B999C;}
	.st8{fill:#EBEAEB;}
	.st9{fill:#1F050E;}
	.st10{fill:#050407;}
	.st11{fill:#8589FF;}
	.st12{fill:#060406;}
	.st13{fill:#141215;}
	.st14{fill:#05051A;}
	.st15{fill:#7DF500;}
	.st16{fill:#474E9E;}
</style>
<g>
	<g>
		<path class="st0" d="M41.53,49.49c-0.98,1.18-2.06,2.28-3.16,3.37c0-0.33,0.19-0.61,0.17-1c-1.46,1.32-3.22,1.98-4.89,2.83
			c-1.52,0.77-3.01,1.62-4.54,2.37c-0.33,0.16-0.6,0.18-0.94,0.01c-1.46-0.73-2.99-1.33-4.33-2.3c-0.21-0.15-0.46-0.24-0.71-0.33
			c-1.58-0.56-3.01-1.37-4.29-2.45c-0.04-0.02-0.11-0.07-0.12-0.06c-0.06,0.06-0.03,0.12,0.03,0.17c-0.01,0.28,0.21,0.52,0.15,0.82
			c-3.5-3.47-6.74-7.11-7.93-12.08c-0.03-0.13,0.07-0.43-0.3-0.26c-0.13,0.06-0.12-0.18-0.16-0.3c-0.83-2.46,0.01-4.52,1.56-6.4
			c0.62-0.75,1.2-1.52,1.69-2.36c0.2-0.33,0.25-0.61,0.02-0.97c-0.38-0.59-0.6-1.27-0.76-2c-0.5,0.39-0.85,0.9-1.4,1.44
			c0.34-1.97,0.25-3.85,1.06-5.56c0.8-1.69,2.13-2.78,3.87-3.43c-0.18-0.34-0.61-0.42-0.85-0.79c2.41-0.07,4.79-0.6,7.04,0.62
			c1.05,0.57,1.89,1.39,2.73,2.2c0.67,0.65,1.43,1.13,2.37,1.26c0.15,0.01,0.29,0.03,0.44,0.04c0.16,0.08,0.32,0.08,0.49,0.04
			c0.21-0.03,0.43-0.05,0.64-0.08c0.92-0.13,1.67-0.59,2.32-1.23c0.75-0.73,1.49-1.47,2.38-2.02c1.21-0.74,2.54-1.05,3.94-1.01
			c1.13,0.04,2.26,0.11,3.56,0.17c-0.38,0.3-0.66,0.51-0.98,0.77c1.4,0.54,2.54,1.32,3.38,2.51c0.61,0.87,0.98,1.84,1.13,2.88
			c0.18,1.15,0.29,2.31,0.45,3.62c-0.51-0.55-0.92-0.99-1.36-1.47c-0.21,0.81-0.45,1.55-0.87,2.21c-0.18,0.28-0.01,0.49,0.03,0.74
			c-0.37,0-0.73,0-1.1-0.01c-0.05-0.14-0.09-0.28-0.14-0.42c0-0.11,0-0.22,0-0.33c0-0.02,0-0.05,0.01-0.07
			c0.94-1.36,1.18-2.91,1.2-4.6c0.26,0.24,0.46,0.43,0.76,0.71c-0.64-3.46-2.87-4.86-5.97-5.22c-0.02-0.23,0.29-0.18,0.25-0.41
			c-0.77-0.02-1.52,0.01-2.27,0.2c-1.25,0.33-2.24,1.07-3.12,1.97c-0.94,0.96-1.95,1.77-3.31,2.06c-0.18,0.02-0.36,0.05-0.54,0.07
			c-0.08,0.02-0.16,0.03-0.25,0.05c-0.21,0-0.42,0-0.62,0c-1.6-0.14-2.9-0.87-3.97-2.04c-0.3-0.33-0.65-0.61-0.99-0.9
			c-1.32-1.11-2.85-1.53-4.55-1.39c0,0.22,0.31,0.18,0.27,0.4c-4.03,0.42-5.72,2.87-5.79,5.19c0.15-0.23,0.29-0.46,0.44-0.69
			c0.16,1.48,0.27,2.86,1.03,4.06c0.39,0.62,0.35,1.18,0.04,1.78c-0.42,0.82-1.01,1.51-1.55,2.24c-0.78,1.04-1.61,2.05-1.93,3.36
			c-0.07,0.29-0.07,0.58-0.02,0.9c0.06-0.04,0.1-0.07,0.14-0.1c0.05-0.03,0.09-0.13,0.19-0.04c0.45,3.99,2.13,7.43,4.78,10.47
			c0.11-0.52-0.23-0.91-0.21-1.37c0.86,1.15,1.69,2.3,2.74,3.27c1.05,0.98,2.17,1.85,3.63,2.4c-0.18-0.44-0.31-0.75-0.44-1.06
			c0.04-0.03,0.08-0.06,0.11-0.1c1.16,1.25,2.42,2.36,3.98,3.06c0.05,0.04,0.11,0.1,0.16,0.01c0.01-0.02-0.04-0.08-0.06-0.12
			c-0.19-0.37-0.38-0.74-0.57-1.12c0.03-0.03,0.06-0.06,0.09-0.09c0.64,0.41,1.26,0.84,1.92,1.21c0.6,0.34,1.11,0.34,1.7-0.01
			c0.6-0.36,1.23-0.69,1.77-1.14c0.11-0.09,0.2-0.25,0.38-0.11c0,0-0.01,0-0.01,0c-0.28,0.46-0.56,0.92-0.84,1.38
			c1.73-0.69,3.11-1.8,4.35-3.31c-0.03,0.57-0.35,0.91-0.42,1.39c1.09-0.43,1.99-1.04,2.84-1.74c1.32-1.09,2.4-2.38,3.32-3.82
			c0.05-0.08,0.14-0.38,0.21,0c-0.03,0.11-0.05,0.22-0.08,0.33c-0.03,0.02-0.04,0.05-0.03,0.09c-0.06,0.22-0.13,0.43-0.19,0.65
			c-0.01,0.05-0.04,0.12-0.02,0.13c0.05,0.05,0.09,0,0.12-0.05c0.21-0.21,0.41-0.42,0.62-0.64c0.01,0.2,0.1,0.44-0.05,0.58
			C41.06,48.92,41.22,49.2,41.53,49.49z"/>
		<path class="st0" d="M42.32,31.45c0.37,0,0.73,0,1.1,0.01c0.86,1.39,2.01,2.58,2.83,4c0.52,0.9,0.84,1.88,0.78,2.9
			c-0.04,0.65-0.12,1.34-0.3,1.99c-0.03,0.11,0.01,0.29-0.26,0.19c-0.24-0.09-0.16,0.24-0.19,0.35c-0.58,2.19-1.48,4.24-2.76,6.11
			c-0.6,0.88-1.19,1.78-1.99,2.51c-0.31-0.29-0.47-0.57-0.08-0.94c0.15-0.14,0.06-0.38,0.05-0.58c0.13-0.2,0.26-0.4,0.39-0.6
			c0.19-0.26,0.38-0.52,0.57-0.78c0,0,0,0,0,0c1.71-2.41,2.77-5.08,3.12-8.02c0.04-0.35,0.1-0.47,0.43-0.22
			c0.05-0.73-0.14-1.34-0.44-1.93c-0.45-0.9-1.09-1.69-1.68-2.5C43.3,33.15,42.61,32.42,42.32,31.45z"/>
	</g>
	<path class="st1" d="M29.21,25.42c-0.04,0.2-0.12,0.24-0.25,0.05C29.04,25.45,29.13,25.44,29.21,25.42z"/>
	<path class="st1" d="M26.35,54.81c0.02,0.04,0.07,0.1,0.06,0.12c-0.05,0.08-0.11,0.03-0.16-0.01
		C26.28,54.88,26.31,54.84,26.35,54.81z"/>
	<path class="st2" d="M23.83,27.45c0.18,0.02,0.36,0.04,0.63,0.07c-0.68-1.1-1.77-1.49-2.78-2.09c0.36,0.03,0.73,0.05,1.09,0.09
		c0.39,0.04,0.78,0.09,1.16,0.17c1.1,0.22,2.15,0.54,3.13,1.11c0.85,0.49,1.76,0.46,2.61-0.04c1.64-0.96,3.46-1.18,5.38-1.34
		c-0.26,0.29-0.56,0.32-0.81,0.45c-0.6,0.33-1.21,0.65-1.7,1.15c-0.11,0.12-0.29,0.26-0.21,0.42c0.09,0.18,0.29-0.04,0.44,0.02
		c0.15,0.18,0.36,0.16,0.56,0.18c1,0.13,1.97,0.35,2.85,0.87c0.31,0.18,0.59,0.39,0.92,0.61c0-0.1,0.01-0.14,0-0.16
		c-0.13-0.17-0.28-0.34-0.41-0.52l0.03-0.04c1.54,0.69,2.38,1.95,2.91,3.48c-0.02,0.02-0.04,0.04-0.06,0.06
		c-0.65-0.2-1.15-0.72-1.9-0.96c0.22,0.78,0.41,1.48,0.62,2.24c-1.2-0.82-2.5-0.86-3.4-0.14c-0.35,0.04-0.69,0.23-1.09,0.15
		c0.22-0.45,0.54-0.8,0.87-1.15c0.08-0.08,0.26-0.15,0.18-0.29c-0.1-0.18-0.26-0.03-0.39,0.01c-0.09,0.02-0.17,0.07-0.25,0.11
		c-0.25-0.12-0.41,0.08-0.59,0.18c-0.32,0.17-0.4,0.04-0.38-0.25c0.02-0.31,0.05-0.62,0.07-0.93c0.2-0.56,0.1-1.08-0.16-1.59
		c0.02-0.13-0.01-0.23-0.14-0.28l0-0.03c-0.15-0.31-0.41-0.48-0.83-0.55c0.57,0.54,0.78,1.12,0.58,1.82
		c-0.07,0.25-0.17,0.48-0.25,0.73l0-0.01c-0.1,0.05-0.12,0.13-0.12,0.23c0,0,0-0.01,0-0.01c-0.5,0.76-0.79,1.58-0.79,2.5
		c-0.04,0.13-0.09,0.26-0.13,0.39c-0.33,0.09-0.31,0.58-0.7,0.6c-0.02-0.2-0.02-0.38,0.08-0.57c0.04-0.08,0.17-0.29-0.1-0.32
		c-0.5,0-0.74,0.38-1.03,0.68c-0.94,0.99-1.87,0.98-2.82,0c-0.27-0.28-0.48-0.69-0.97-0.67c-0.1-0.02-0.23-0.07-0.19,0.13
		c0.04,0.25,0.08,0.5,0.12,0.76c-0.37-0.06-0.38-0.53-0.71-0.64c-0.04-0.12-0.07-0.25-0.11-0.37c-0.03-0.68-0.15-1.34-0.54-1.92
		l0.01,0.01c-0.05-0.35-0.21-0.65-0.45-0.91l0,0.01c-0.09-0.26-0.18-0.51-0.27-0.77c0-0.23,0-0.45,0-0.68
		c0.02-0.08,0.03-0.15,0.05-0.23l0-0.03c0.14-0.19,0.28-0.38,0.48-0.64c-0.37,0.04-0.54,0.19-0.65,0.4l0,0.03
		c-0.08,0.01-0.11,0.06-0.11,0.13l0,0c-0.16,0.12-0.21,0.28-0.2,0.47l0,0.01c-0.01,0.01-0.04,0.02-0.03,0.02
		c0.01,0.02,0.02,0.04,0.03,0.07c-0.14,0.39-0.19,0.8-0.09,1.2c0.11,0.46,0.12,0.92,0.1,1.39c-0.45-0.03-0.75-0.49-1.23-0.45
		c-0.17-0.08-0.35-0.14-0.58-0.07c0.55,0.45,0.96,0.92,1.27,1.52c-0.4,0.05-0.71-0.1-1.03-0.15c-0.52-0.41-1.14-0.46-1.76-0.53
		c-0.69-0.08-1.25,0.14-1.67,0.74c0.12-0.8,0.47-1.5,0.54-2.26c0.01-0.03,0.02-0.05,0.03-0.08c-0.02,0.01-0.05,0.02-0.07,0.04
		c-0.61,0.33-1.21,0.67-1.92,1.05c0.13-0.56,0.35-0.96,0.59-1.35c0.55-0.92,1.19-1.75,2.2-2.2c0.02,0.02,0.05,0.05,0.07,0.07
		c-0.06,0.12-0.13,0.25-0.19,0.37c-0.04,0.04-0.07,0.08-0.11,0.12c-0.03,0.05-0.05,0.1-0.08,0.15c-0.02,0.04-0.05,0.08-0.07,0.13
		c0,0.01,0.02,0.02,0.03,0.04c0.02-0.05,0.04-0.09,0.07-0.14c0.04-0.03,0.08-0.07,0.12-0.1c0.04-0.04,0.07-0.08,0.11-0.12
		c1.13-0.87,2.43-1.26,3.83-1.38C23.66,27.62,23.81,27.64,23.83,27.45z M37.21,29.28l0.02-0.03l-0.03,0L37.21,29.28z M34.98,31.7
		c-0.02,0.01-0.04,0.03-0.06,0.04c0.01,0.01,0.03,0.03,0.03,0.03c0.02-0.01,0.04-0.02,0.07-0.03C35.01,31.72,35,31.71,34.98,31.7z"
		/>
	<path class="st3" d="M18.93,31.03c-0.07,0.76-0.41,1.46-0.54,2.26c0.42-0.6,0.98-0.82,1.67-0.74c0.62,0.07,1.25,0.12,1.76,0.53
		c-0.45,0.01-0.89,0.02-1.34,0.04c-0.63,0.02-1.12,0.24-1.49,0.81c-0.58,0.89-0.97,1.86-1.27,2.92c0.45-0.2,0.53-0.75,0.97-0.87
		c-0.01,0.07,0.01,0.16-0.02,0.22c-0.52,1.2-1.16,2.33-1.93,3.39c-0.23,0.32-0.47,0.15-0.74,0.1c0.02,0.52,0.17,0.95,0.43,1.34
		c0.17,0.26,0.3,0.37,0.5,0.01c0.21-0.39,0.51-0.74,0.87-1.01c0.26-0.2,0.55-0.57,0.84-0.45c0.29,0.12,0.1,0.57,0.16,0.87
		c0,0.02,0,0.04,0,0.06c0,0.05,0.01,0.09,0.01,0.14c-0.24,0.34-0.64,0.54-0.81,0.94c-0.7,0.96-0.82,2.09-0.89,3.33
		c-1.53-1.62-2.01-3.5-1.87-5.62c-0.6,0.19-0.84,0.69-1.2,1.1c-0.31-1.51,0.39-3.89,1.43-4.82c0.1,0.82,0.33,1.57,0.71,2.29
		c-0.01-1.59-0.03-3.17,0.68-4.76c-0.77,0.16-1.14,0.7-1.58,1.15c-0.02-0.02-0.06-0.04-0.06-0.06c0.52-2.5,1.49-4.73,3.75-6.17
		c1.48-0.94,3.13-1,4.8-0.66c0.03,0.01,0.04,0.06,0.06,0.09c-0.02,0.19-0.17,0.17-0.3,0.18c-1.4,0.12-2.7,0.51-3.83,1.38
		c-0.02-0.03-0.05-0.05-0.07-0.07c0.06-0.12,0.13-0.25,0.19-0.37c0.02-0.03,0.06-0.07,0.05-0.08c-0.04-0.06-0.08-0.03-0.12,0.01
		c-1.02,0.45-1.66,1.28-2.2,2.2c-0.23,0.39-0.46,0.79-0.59,1.35c0.71-0.39,1.32-0.72,1.92-1.05C18.91,31,18.92,31.02,18.93,31.03z"
		/>
	<path class="st4" d="M39.65,31.88c-0.53-1.53-1.38-2.79-2.91-3.48c-0.04-0.06-0.13-0.1-0.16-0.04c-0.03,0.09,0.08,0.05,0.13,0.08
		c0.14,0.17,0.28,0.34,0.41,0.52c0.02,0.02,0,0.07,0,0.16c-0.32-0.22-0.61-0.43-0.92-0.61c-0.88-0.51-1.85-0.74-2.85-0.87
		c-0.2-0.03-0.41,0-0.56-0.18c1.11-0.41,2.24-0.34,3.36-0.08c1.17,0.27,2.13,0.92,2.95,1.78c0.11,0.11,0.15,0.31,0.36,0.31
		l0.01,0.01c0.01,0.23,0.24,0.33,0.32,0.51c0.08,0.12,0.15,0.23,0.23,0.35c0.06,0.11,0.13,0.23,0.19,0.34
		c0.04,0.07,0.08,0.15,0.13,0.22c0.04,0.07,0.07,0.15,0.11,0.22c0.12,0.26,0.25,0.52,0.37,0.78c0,0,0,0,0,0
		c0.15,0.42,0.3,0.85,0.45,1.27c0.01,0.18,0.02,0.35,0.13,0.51c-0.06,0.19,0.12,0.38,0,0.57l0.01-0.01
		c-0.48-0.42-0.83-1.02-1.59-1.15c0.63,1.53,0.77,3.05,0.67,4.62c0.46-0.64,0.56-1.38,0.74-2.21c1.17,1.49,1.59,3.09,1.47,4.99
		c-0.42-0.52-0.68-1.03-1.31-1.22c0.2,1.72-0.18,3.26-1.03,4.69c-0.03,0.05-0.07,0.1-0.1,0.16c-0.08,0.1-0.15,0.21-0.23,0.31
		c-0.14,0.13-0.28,0.27-0.49,0.46c-0.01-0.78-0.07-1.48-0.32-2.16c-0.12-0.45-0.29-0.88-0.6-1.23c-0.2-0.35-0.49-0.62-0.8-0.87
		c0-0.04,0-0.09,0-0.13c0.03-0.2,0.1-0.4,0.09-0.61c-0.01-0.47,0.2-0.37,0.47-0.22c0.56,0.33,0.99,0.79,1.33,1.34
		c0.21,0.35,0.37,0.29,0.54-0.01c0.07-0.11,0.17-0.23,0.17-0.35c0.01-0.32,0.71-0.88-0.28-0.9c-0.06,0-0.12-0.09-0.16-0.15
		c-0.9-1.11-1.58-2.34-2.06-3.68l0.05-0.01l0.05,0c0.29,0.34,0.59,0.68,0.97,1.11c-0.2-0.65-0.29-1.22-0.6-1.71
		c-0.14-0.53-0.47-0.96-0.74-1.42c-0.32-0.57-0.82-0.77-1.43-0.8c-0.44-0.02-0.89-0.03-1.33-0.04c0.9-0.72,2.2-0.68,3.4,0.14
		c-0.21-0.76-0.41-1.47-0.62-2.24c0.75,0.24,1.25,0.75,1.9,0.96c0.03,0.01,0.06,0.02,0.09,0.03C39.67,31.93,39.66,31.91,39.65,31.88
		z"/>
	<path class="st5" d="M34.59,43.43c-0.38-0.51-0.77-1.03-1.33-1.36c-0.02-0.05-0.04-0.11-0.1-0.07c-0.02,0.02,0,0.09,0.01,0.14
		c0.15,0.61,0.41,1.19,0.37,1.83c-0.2-0.01-0.26,0.17-0.39,0.27c-0.48,0.34-1.34,0.29-1.68-0.1c0.1-0.01,0.21-0.02,0.27-0.12
		c0.55-0.33,0.42-0.84,0.39-1.36c-0.22,0.05-0.19,0.37-0.44,0.3c-0.03-0.03-0.06-0.07-0.1-0.1c-1.54-1.76-4.53-1.84-6.37-0.16
		c-0.25,0.23-0.41,0.33-0.64-0.17c-0.07,0.67-0.16,1.17,0.37,1.5c0.11,0.07,0.21,0.14,0.32,0.21c-0.79,0.37-1.5,0.32-2.11-0.36
		c-0.07-0.62,0.25-1.17,0.34-1.89c-0.64,0.43-1.06,0.93-1.45,1.45c-0.29-0.19-0.33-0.55-0.56-0.79c-0.01-0.34-0.02-0.68-0.03-1.01
		c-0.09-0.54-0.06-1.06,0.17-1.57c0.62,0.18,1.22,0.42,1.88,0.44c0.15,0,0.26,0.07,0.28,0.22c0.11,0.67,0.46,0.47,0.82,0.23
		l-0.01-0.01c0.01,0.11,0.02,0.21,0.04,0.44c0.72-0.93,1.63-1.45,2.53-2.01c0.01-0.01,0.02-0.03,0.03-0.04
		c-0.01,0.02-0.02,0.03-0.03,0.05c-0.19-0.03-0.34-0.33-0.58-0.1c-0.32,0-0.63,0-1,0c0.99-1.43,4.72-1.3,5.4,0c-0.35,0-0.68,0-1,0
		c-0.17-0.03-0.33-0.06-0.46,0.09c-0.02-0.04-0.03-0.11-0.09-0.03c0,0,0.04,0.04,0.06,0.06c0.9,0.54,1.77,1.1,2.46,1.91
		c0.03,0.02,0.07,0.07,0.08,0.06c0.06-0.04,0.03-0.09-0.01-0.13c-0.02-0.18-0.03-0.42,0.22-0.17c0.32,0.31,0.42,0.12,0.54-0.15
		c0.08-0.17,0.07-0.41,0.37-0.42c0.64-0.01,1.23-0.25,1.84-0.44c0.21,0.4,0.28,0.82,0.21,1.26c-0.09,0.24-0.11,0.48-0.05,0.72
		c-0.01,0.23-0.01,0.46-0.02,0.69C34.91,42.93,34.92,43.32,34.59,43.43z M24.56,41.49l0.02-0.03l-0.03,0L24.56,41.49z"/>
	<g>
		<path class="st6" d="M21.47,41.65c-0.05,0.07-0.1,0.14-0.16,0.21c-0.2-0.64-0.23-0.65-0.7-0.19c-0.95,0.92-1.14,0.87-1.59-0.41
			c-0.07-0.21-0.14-0.42-0.21-0.63c-0.24,0.34-0.64,0.54-0.81,0.94c0.12,2.15,0.66,4.12,2.43,5.5c0-0.7-0.01-1.38,0-2.06
			c0.01-0.7,0-1.4,0.31-2.07c0.22,0.49,0.13,1.07,0.59,1.43c0.09-0.56-0.11-1.15,0.15-1.7C21.49,42.33,21.48,41.99,21.47,41.65z"/>
		<path class="st6" d="M38.63,41.51c-0.2-0.35-0.49-0.62-0.8-0.87c-0.13,0.53-0.32,1.03-0.59,1.5c-0.14,0.24-0.3,0.36-0.57,0.1
			c-0.33-0.32-0.7-0.6-1.08-0.92c-0.17,0.21-0.11,0.53-0.35,0.68c-0.01,0.04-0.04,0.06-0.07,0.07c-0.01,0.23-0.01,0.46-0.02,0.69
			c0.3,0.5,0.15,1.06,0.19,1.59c0.08-0.08,0.16-0.16,0.25-0.24c0,0,0,0,0,0c0.09-0.41,0.19-0.82,0.28-1.23
			c0.5,1.32,0.51,2.66,0.25,4.02c0.02,0.07,0.04,0.14,0.06,0.2c0.06-0.03,0.13-0.07,0.19-0.1c0.26-0.26,0.53-0.51,0.79-0.77
			c0.04-0.04,0.07-0.08,0.11-0.12c0,0,0,0,0,0c0.02-0.15,0.11-0.25,0.24-0.33c0,0,0,0,0,0c0.25-0.5,0.5-1.01,0.75-1.51
			c0.01-0.06,0.02-0.11,0.03-0.17c0-0.16,0.01-0.32,0.12-0.45c0.03-0.12,0.06-0.23,0.09-0.35C38.53,42.71,38.67,42.12,38.63,41.51z"
			/>
	</g>
	<path class="st3" d="M23.17,43.88c0.61,0.68,1.32,0.73,2.11,0.36c0.57-0.26,1.09-0.21,1.53,0.24c0.49,0.51,0.68,1.13,0.43,1.8
		c-0.22,0.59-0.74,0.79-1.34,0.84C23.79,47.27,22.71,45.9,23.17,43.88z"/>
	<path class="st4" d="M31.46,44.14c0.33,0.39,1.2,0.44,1.68,0.1c0.13-0.09,0.2-0.28,0.39-0.27c0.43,2.25-0.99,3.41-3.04,3.11
		c-0.81-0.12-1.27-0.81-1.15-1.58c0.15-0.93,0.86-1.5,1.79-1.41C31.25,44.1,31.35,44.12,31.46,44.14z"/>
	<path class="st7" d="M30.58,48.36c0.34,0.13,0.15,0.27,0.03,0.45c-0.42,0.6-1.04,0.69-1.71,0.77c-0.67,0.08-1.31-0.07-1.96-0.09
		c-0.38-0.01-0.74-0.48-1-0.84c-0.15-0.21,0.11-0.29,0.25-0.39c0.12,0.16,0.3,0.1,0.46,0.1C27.96,48.36,29.27,48.36,30.58,48.36z"/>
	<path class="st8" d="M25.7,43.31c-0.06-0.03-0.25,0.05-0.14-0.11c0.91-1.35,4.32-1.49,5.3-0.22c0.04,0.05,0.03,0.13,0.07,0.27
		c-0.48-0.23-0.9-0.4-1.35-0.45C28.23,42.55,26.93,42.63,25.7,43.31z"/>
	<path class="st8" d="M30.58,48.36c-1.31,0-2.62,0.01-3.93,0c-0.16,0-0.34,0.06-0.46-0.1C27.55,47.47,29.48,47.51,30.58,48.36z"/>
	<path class="st7" d="M35.15,42.76c0.3,0.5,0.15,1.06,0.19,1.59c-0.04,0.1-0.08,0.21-0.12,0.31C35.14,44.67,35,45,34.99,44.61
		c-0.01-0.43-0.18-0.82-0.4-1.19C34.92,43.32,34.91,42.93,35.15,42.76z"/>
	<path class="st7" d="M21.35,44.37c0.09-0.56-0.11-1.15,0.15-1.7c0.23,0.23,0.27,0.6,0.56,0.79c-0.2,0.42-0.41,0.83-0.38,1.33
		C21.42,44.74,21.45,44.5,21.35,44.37z"/>
	<path class="st9" d="M35.59,44.1c0.09-0.41,0.19-0.82,0.28-1.23c0.5,1.32,0.51,2.66,0.25,4.02c-0.15-0.36-0.12-0.74-0.05-1.09
		c0.14-0.67,0.09-1.31-0.08-1.96C35.77,43.82,35.76,44.08,35.59,44.1z"/>
	<path class="st9" d="M38.49,43.31c0.04-0.6,0.18-1.2,0.14-1.8c0.31,0.36,0.48,0.78,0.6,1.23c-0.32-0.07-0.57-0.05-0.52,0.39
		C38.72,43.26,38.61,43.3,38.49,43.31z"/>
	<path class="st9" d="M37.5,45.78c0.25-0.5,0.5-1.01,0.75-1.51C38.3,44.96,38.02,45.53,37.5,45.78z"/>
	<path class="st9" d="M35.22,44.65c0.04-0.1,0.08-0.21,0.12-0.31c0.08-0.08,0.16-0.16,0.25-0.24
		C35.59,44.37,35.62,44.65,35.22,44.65z"/>
	<path class="st9" d="M38.28,44.1c0-0.16,0.01-0.32,0.12-0.45C38.59,43.87,38.46,43.99,38.28,44.1z"/>
	<path class="st9" d="M37.26,46.11c0.02-0.15,0.11-0.25,0.24-0.33C37.5,45.95,37.49,46.11,37.26,46.11z"/>
	<path class="st10" d="M40.03,44.44c0.08-0.1,0.15-0.2,0.23-0.31C40.3,44.32,40.23,44.43,40.03,44.44z"/>
	<path class="st9" d="M36.18,47.1c0.06-0.03,0.13-0.07,0.19-0.1C36.34,47.1,36.28,47.13,36.18,47.1z"/>
	<path class="st8" d="M25.78,53.69c-0.04-0.05-0.07-0.1-0.11-0.15c0.09-0.05,0.16-0.05,0.2,0.06
		C25.84,53.63,25.81,53.66,25.78,53.69z"/>
	<path class="st9" d="M37.16,46.23c0.04-0.04,0.07-0.08,0.11-0.12C37.23,46.15,37.19,46.19,37.16,46.23z"/>
	<path class="st8" d="M31.65,53.55c-0.03-0.02-0.06-0.04-0.08-0.06c0.02,0.02,0.04,0.04,0.07,0.05
		C31.64,53.55,31.65,53.55,31.65,53.55z"/>
	<path class="st11" d="M23.87,29.17c0,0,0,0.03,0,0.03c-0.11,0.06-0.16,0.13-0.05,0.23c0,0.23,0,0.45,0,0.68
		c-0.16,0.34,0.05,0.56,0.27,0.77c0,0,0-0.01,0-0.01c0.02,0.37,0.25,0.63,0.45,0.9c0,0-0.01-0.01-0.01-0.01
		c0.06,0.23,0.13,0.46,0.19,0.69c0.08,0.36,0.29,0.72,0.13,1.11c-0.49-0.45-0.97-0.89-1.46-1.34c0.02-0.47,0.01-0.93-0.1-1.39
		c-0.09-0.4-0.05-0.81,0.09-1.2c0-0.03,0-0.06,0-0.09c0,0,0-0.01,0-0.01c0.14-0.13,0.22-0.27,0.2-0.47c0,0,0,0,0,0
		c0.04-0.04,0.07-0.08,0.11-0.13c0,0,0-0.03,0-0.03C23.75,29.01,23.81,29.09,23.87,29.17z"/>
	<path class="st11" d="M33.04,29c0,0,0,0.03,0,0.03c-0.01,0.12,0.05,0.21,0.14,0.28c0.26,0.51,0.35,1.04,0.16,1.59
		c-0.37,0.44-0.14,0.96-0.21,1.44c-0.41,0.41-0.89,0.76-1.24,1.23c-0.18-0.24-0.08-0.48-0.02-0.73c0.13-0.57,0.49-1.06,0.56-1.64
		c0,0,0,0.01,0,0.01c0.13-0.03,0.14-0.12,0.12-0.23c0,0,0,0.01,0,0.01c0.2-0.1,0.28-0.31,0.32-0.49c0.09-0.45,0.1-0.91,0-1.36
		C32.8,28.89,32.91,28.95,33.04,29z"/>
	<path class="st7" d="M30.77,33.8c-0.56,0.51-1,1.09-1.26,1.8c-0.08,0.21-0.18,0.28-0.41,0.2c-0.49-0.16-0.99-0.15-1.48-0.01
		c-0.23,0.07-0.35,0.07-0.45-0.2c-0.25-0.69-0.68-1.26-1.22-1.76c0.49-0.02,0.7,0.39,0.97,0.67c0.95,0.98,1.88,0.99,2.82,0
		C30.03,34.18,30.27,33.79,30.77,33.8z"/>
	<path class="st6" d="M23.39,32.23c0.49,0.45,0.97,0.89,1.46,1.34c0.04,0.09,0.13,0.1,0.21,0.11c0.04,0.12,0.07,0.25,0.11,0.37
		c-0.03,0.12-0.02,0.25-0.15,0.33c-0.17-0.02-0.24-0.16-0.32-0.28c-0.64-0.99-1.52-1.73-2.53-2.32
		C22.64,31.75,22.94,32.2,23.39,32.23z"/>
	<path class="st6" d="M31.88,33.57c0.36-0.47,0.83-0.82,1.24-1.23c0.11,0.01,0.21,0.04,0.23,0.17c-0.63,0.6-1.12,1.31-1.69,1.96
		c-0.06-0.13-0.11-0.25-0.17-0.38c0.04-0.13,0.09-0.26,0.13-0.39C31.72,33.68,31.84,33.69,31.88,33.57z"/>
	<path class="st7" d="M25.02,34.38c0.12-0.07,0.12-0.21,0.15-0.33c0.33,0.11,0.33,0.58,0.71,0.64c0.12,0.38,0,0.72-0.19,1.16
		C25.45,35.3,25.1,34.91,25.02,34.38z"/>
	<path class="st7" d="M31.49,34.09c0.06,0.13,0.11,0.25,0.17,0.38c-0.2,0.43-0.4,0.86-0.63,1.34c-0.33-0.36-0.26-0.75-0.24-1.12
		C31.18,34.67,31.17,34.18,31.49,34.09z"/>
	<path class="st11" d="M31.88,33.57c-0.05,0.12-0.16,0.11-0.25,0.13c0-0.92,0.29-1.74,0.79-2.5c-0.07,0.59-0.43,1.08-0.56,1.64
		C31.8,33.09,31.71,33.33,31.88,33.57z"/>
	<path class="st11" d="M33.04,29c-0.14-0.04-0.24-0.1-0.19,0.15c0.1,0.45,0.09,0.91,0,1.36c-0.04,0.18-0.11,0.39-0.32,0.49
		c0.09-0.24,0.18-0.48,0.25-0.73c0.2-0.69-0.01-1.27-0.58-1.82C32.64,28.51,32.89,28.68,33.04,29z"/>
	<path class="st11" d="M33.36,32.51c-0.03-0.13-0.12-0.16-0.23-0.17c0.07-0.48-0.17-1.01,0.21-1.44c-0.03,0.31-0.06,0.62-0.07,0.93
		c-0.01,0.29,0.07,0.42,0.38,0.25c0.18-0.09,0.34-0.29,0.59-0.18C33.94,32.11,33.65,32.31,33.36,32.51z"/>
	<path class="st11" d="M25.06,33.69c-0.08-0.01-0.17-0.02-0.21-0.11c0.16-0.39-0.05-0.75-0.13-1.11c-0.05-0.23-0.12-0.46-0.19-0.69
		C24.91,32.35,25.03,33,25.06,33.69z"/>
	<path class="st11" d="M23.87,29.17c-0.06-0.08-0.12-0.16-0.18-0.24c0.11-0.22,0.28-0.36,0.65-0.4
		C24.15,28.79,24.01,28.98,23.87,29.17z"/>
	<path class="st11" d="M24.53,31.78c-0.2-0.28-0.43-0.54-0.45-0.9C24.33,31.13,24.49,31.42,24.53,31.78z"/>
	<path class="st11" d="M24.09,30.88c-0.22-0.21-0.43-0.42-0.27-0.77C23.91,30.37,24,30.62,24.09,30.88z"/>
	<path class="st11" d="M23.59,29.08c0.02,0.19-0.06,0.34-0.2,0.47C23.38,29.36,23.43,29.2,23.59,29.08z"/>
	<path class="st11" d="M33.18,29.3c-0.09-0.07-0.15-0.16-0.14-0.28C33.17,29.07,33.2,29.18,33.18,29.3z"/>
	<path class="st3" d="M19.48,29.23c-0.02,0.05-0.04,0.09-0.07,0.14c-0.01-0.01-0.04-0.03-0.03-0.04c0.02-0.04,0.05-0.09,0.07-0.13
		C19.45,29.2,19.48,29.23,19.48,29.23z"/>
	<path class="st11" d="M23.82,29.43c-0.11-0.1-0.06-0.17,0.05-0.23C23.85,29.28,23.83,29.35,23.82,29.43z"/>
	<path class="st11" d="M32.54,30.98c0.02,0.11,0,0.2-0.12,0.23C32.42,31.11,32.45,31.03,32.54,30.98z"/>
	<polygon class="st4" points="37.21,29.28 37.2,29.25 37.23,29.25 	"/>
	<path class="st3" d="M19.45,29.2c0.03-0.05,0.05-0.1,0.08-0.15c0.02,0.02,0.05,0.05,0.07,0.07c-0.04,0.03-0.08,0.07-0.12,0.1
		C19.48,29.23,19.45,29.2,19.45,29.2z"/>
	<path class="st3" d="M19.71,29.01c-0.04,0.04-0.07,0.08-0.11,0.12c-0.02-0.02-0.05-0.05-0.07-0.07c0.04-0.04,0.07-0.08,0.11-0.12
		C19.66,28.96,19.69,28.98,19.71,29.01z"/>
	<path class="st12" d="M34.98,31.7c0.01,0.01,0.02,0.02,0.04,0.04c-0.02,0.01-0.04,0.03-0.07,0.03c-0.01,0-0.02-0.02-0.03-0.03
		C34.94,31.72,34.96,31.71,34.98,31.7z"/>
	<path class="st3" d="M18.89,30.99c0.02-0.01,0.05-0.02,0.07-0.04c-0.01,0.03-0.02,0.05-0.03,0.08C18.92,31.02,18.91,31,18.89,30.99
		z"/>
	<path class="st11" d="M23.69,28.96c-0.04,0.04-0.07,0.08-0.11,0.13C23.59,29.01,23.62,28.97,23.69,28.96z"/>
	<path class="st11" d="M23.39,29.55c0,0.03,0,0.06,0,0.09c-0.01-0.02-0.03-0.04-0.03-0.07C23.35,29.57,23.38,29.56,23.39,29.55z"/>
	<path class="st2" d="M18.7,35.98c0.09-0.09,0.19-0.22,0.29-0.02c0.32,0.62,0.86,1.08,1.25,1.64c-0.43,0.41-0.69,0.9-0.77,1.5
		c-0.07,0.54-0.21,1.06-0.67,1.41c0-0.02,0-0.04,0-0.06c-0.06-0.3,0.13-0.75-0.16-0.87c-0.3-0.12-0.58,0.24-0.84,0.45
		c-0.36,0.28-0.65,0.62-0.87,1.01c-0.2,0.36-0.33,0.25-0.5-0.01c-0.26-0.4-0.41-0.83-0.43-1.34c0.27,0.05,0.51,0.22,0.74-0.1
		c0.78-1.06,1.41-2.19,1.93-3.39C18.71,36.13,18.7,36.05,18.7,35.98z"/>
	<path class="st11" d="M18.81,40.51c0.47-0.35,0.6-0.87,0.67-1.41c0.08-0.6,0.33-1.09,0.77-1.5c0.69,0.41,1.35,0.89,2.17,1.05
		c0.1,0.02,0.07,0.11,0.07,0.18c-0.61,0.26-1.24,0.34-1.89,0.19c-0.15-0.03-0.07,0.06-0.08,0.12c0.22,0.51,0.7,0.69,1.13,0.94
		c-0.23,0.5-0.26,1.03-0.17,1.57c-0.05,0.07-0.1,0.14-0.16,0.21c-0.2-0.64-0.23-0.65-0.7-0.19c-0.95,0.92-1.14,0.87-1.59-0.41
		c-0.07-0.21-0.14-0.42-0.21-0.63C18.81,40.6,18.81,40.55,18.81,40.51z"/>
	<path class="st2" d="M19.76,28.5c0.04-0.04,0.08-0.07,0.12-0.01c0.01,0.01-0.03,0.05-0.05,0.08C19.81,28.54,19.78,28.52,19.76,28.5
		z"/>
	<path class="st2" d="M36.47,37.51c0.46-0.49,0.9-1,1.25-1.59c0.07,0,0.14,0.01,0.22,0.01l0,0c0.48,1.34,1.16,2.57,2.06,3.68
		c0.05,0.06,0.11,0.15,0.16,0.15c0.98,0.02,0.28,0.58,0.28,0.9c0,0.12-0.11,0.23-0.17,0.35c-0.18,0.3-0.33,0.36-0.54,0.01
		c-0.33-0.55-0.77-1.01-1.33-1.34c-0.26-0.16-0.48-0.26-0.47,0.22c0.01,0.2-0.06,0.4-0.09,0.61c-0.35-0.31-0.55-0.73-0.59-1.17
		C37.18,38.63,36.84,38.07,36.47,37.51z"/>
	<path class="st11" d="M36.47,37.51c0.38,0.56,0.71,1.12,0.78,1.82c0.04,0.44,0.24,0.86,0.59,1.17c0,0.04,0,0.09,0,0.13
		c-0.13,0.53-0.32,1.03-0.59,1.5c-0.14,0.24-0.3,0.36-0.57,0.1c-0.33-0.32-0.7-0.6-1.08-0.92c-0.17,0.21-0.11,0.53-0.34,0.68
		c-0.01-0.22-0.01-0.43-0.02-0.65c0.07-0.44,0-0.87-0.21-1.26c0.37-0.31,0.87-0.46,1.12-0.91c-0.16-0.23-0.37-0.06-0.56-0.07
		c-0.5-0.01-0.99-0.02-1.48-0.42C35.05,38.49,35.79,38.06,36.47,37.51z"/>
	<path class="st13" d="M38.04,35.94c0.2-0.15,0.24-0.4,0.37-0.6c0.31,0.49,0.39,1.06,0.6,1.71C38.63,36.62,38.33,36.28,38.04,35.94z
		"/>
	<path class="st2" d="M36.7,28.44c-0.05-0.02-0.16,0.01-0.13-0.08c0.03-0.06,0.11-0.02,0.16,0.04C36.74,28.4,36.7,28.44,36.7,28.44z
		"/>
	<path class="st2" d="M39.65,31.88c0.01,0.03,0.02,0.06,0.03,0.08c-0.03-0.01-0.06-0.02-0.09-0.03
		C39.61,31.91,39.63,31.9,39.65,31.88z"/>
	<path class="st7" d="M21.64,40.08c-0.42-0.26-0.91-0.44-1.13-0.94c0.23,0.07,0.4,0.3,0.67,0.27c0.04,0.08,0.1,0.1,0.18,0.1
		c0.07,0.02,0.13,0.05,0.2,0.07c0.27,0.1,0.54,0.1,0.82,0.07c0.11-0.01,0.22-0.02,0.33-0.02c0.52-0.01,0.92-0.32,1.42-0.56
		c0,0.49,0,0.94,0,1.54c0.79-0.67,1.59-1.07,2.48-1.3c0.24-0.23,0.39,0.07,0.58,0.1l-0.01-0.01c-0.9,0.56-1.82,1.08-2.53,2.01
		c-0.02-0.23-0.03-0.33-0.04-0.44c0.01-0.01,0.02-0.02,0.03-0.04c-0.01,0.02-0.02,0.03-0.03,0.05c-0.36,0.24-0.71,0.45-0.82-0.23
		c-0.02-0.15-0.13-0.22-0.28-0.22C22.87,40.5,22.26,40.26,21.64,40.08z"/>
	<path class="st4" d="M36.14,39.17c-0.26,0.45-0.75,0.61-1.12,0.91c-0.6,0.19-1.19,0.43-1.84,0.44c-0.3,0-0.29,0.25-0.37,0.42
		c-0.12,0.27-0.22,0.47-0.54,0.15c-0.26-0.25-0.24,0-0.22,0.17c-0.02,0.02-0.05,0.05-0.07,0.07c-0.68-0.81-1.56-1.37-2.46-1.91
		l0.03-0.03c0.13-0.15,0.29-0.12,0.46-0.09c0.91,0.2,1.73,0.6,2.47,1.26c0.16-0.51,0.03-0.98,0.07-1.51
		C33.75,39.85,34.94,39.85,36.14,39.17z"/>
	<path class="st7" d="M35.23,41.34c0.01,0.22,0.01,0.43,0.02,0.65c-0.01,0.04-0.04,0.06-0.07,0.07
		C35.12,41.82,35.14,41.58,35.23,41.34z"/>
	<path class="st4" d="M32.05,41.26c0.04,0.04,0.07,0.09,0.01,0.13c-0.01,0.01-0.05-0.04-0.08-0.06
		C32.01,41.31,32.03,41.28,32.05,41.26z"/>
	<polygon class="st7" points="24.56,41.49 24.55,41.46 24.58,41.46 	"/>
	<path class="st1" d="M33.16,42.14c0-0.05-0.03-0.13-0.01-0.14c0.06-0.04,0.09,0.02,0.1,0.07C33.23,42.09,33.19,42.12,33.16,42.14z"
		/>
	<path class="st7" d="M27.2,39.41c0.01-0.02,0.02-0.03,0.03-0.05C27.21,39.37,27.2,39.38,27.2,39.41
		C27.19,39.4,27.2,39.41,27.2,39.41z"/>
	<path class="st4" d="M29.53,39.42c-0.02-0.02-0.06-0.06-0.06-0.06c0.06-0.08,0.07-0.01,0.09,0.03
		C29.55,39.39,29.53,39.42,29.53,39.42z"/>
	<path class="st4" d="M41.41,34.26c0.02,0,0.04,0,0.06,0c-0.01,0.01-0.02,0.02-0.02,0.02c-0.01-0.01-0.02-0.02-0.03-0.03
		C41.41,34.25,41.41,34.26,41.41,34.26z"/>
	<path class="st0" d="M22.71,35.38c1.12,0.55,1.99,1.4,2.83,2.5c-0.77-0.23-1.43-0.33-2.02-0.65
		C23.18,36.64,22.66,36.14,22.71,35.38z"/>
	<path class="st0" d="M33.22,37.22c-0.62,0.3-1.29,0.44-2.08,0.65c0.8-1.03,1.61-1.83,2.65-2.4c0.28,0.2,0.09,0.42,0.03,0.64
		C33.72,36.53,33.32,36.8,33.22,37.22z"/>
	<path class="st0" d="M22.71,35.38c-0.05,0.76,0.47,1.26,0.81,1.85c-1.28-0.21-1.46-0.55-1.56-1.91c-0.02-0.28,0.11-0.32,0.33-0.19
		C22.43,35.22,22.57,35.3,22.71,35.38z"/>
	<path class="st0" d="M33.22,37.22c0.1-0.42,0.5-0.68,0.6-1.11c0.05-0.22,0.25-0.44-0.03-0.64c0.23-0.22,0.53-0.3,0.82-0.43
		C34.9,36.31,34.48,36.96,33.22,37.22z"/>
	<path class="st4" d="M37.93,35.94c-0.07,0-0.14-0.01-0.22-0.01C37.8,35.76,37.87,35.77,37.93,35.94z"/>
	<path class="st5" d="M24.62,40.97c0.01-0.02,0.02-0.03,0.03-0.05C24.64,40.94,24.62,40.95,24.62,40.97
		C24.61,40.96,24.62,40.97,24.62,40.97z"/>
	<g>
		<path class="st14" d="M41.09,47.46c-0.07-0.38-0.16-0.09-0.21,0c-0.92,1.44-2,2.73-3.32,3.82c-0.85,0.7-1.75,1.3-2.84,1.74
			c0.07-0.49,0.4-0.83,0.42-1.39c-1.24,1.51-2.62,2.62-4.35,3.31c0.28-0.46,0.56-0.92,0.83-1.38c-0.03-0.02-0.05-0.04-0.07-0.05
			c0.03,0.02,0.06,0.04,0.08,0.06c-0.18-0.14-0.27,0.02-0.38,0.11c-0.55,0.45-1.17,0.78-1.77,1.14c-0.59,0.36-1.11,0.35-1.7,0.01
			c-0.66-0.37-1.29-0.8-1.92-1.21c-0.04-0.11-0.11-0.11-0.2-0.06c0.04,0.05,0.07,0.1,0.11,0.15c0.19,0.37,0.38,0.74,0.57,1.12
			c-0.03,0.04-0.07,0.07-0.1,0.11c-1.57-0.7-2.82-1.81-3.98-3.06c-0.04,0.03-0.08,0.06-0.11,0.1c0.13,0.31,0.26,0.62,0.44,1.06
			c-1.47-0.55-2.58-1.42-3.63-2.4c-1.05-0.97-1.88-2.13-2.74-3.27c-0.02,0.47,0.32,0.85,0.21,1.37c-2.66-3.05-4.34-6.48-4.78-10.47
			c-0.11-0.09-0.14,0.01-0.19,0.04c-0.04,0.02-0.08,0.05-0.14,0.1c-0.05-0.32-0.05-0.61,0.02-0.9c0.32-1.31,1.15-2.32,1.93-3.36
			c0.54-0.73,1.13-1.43,1.55-2.24c0.31-0.61,0.35-1.17-0.04-1.78c-0.76-1.2-0.87-2.58-1.03-4.06c-0.15,0.23-0.29,0.46-0.44,0.69
			c0.07-2.32,1.76-4.76,5.79-5.19c0.03-0.21-0.27-0.17-0.27-0.4c1.71-0.14,3.23,0.28,4.55,1.39c0.34,0.29,0.69,0.57,0.99,0.9
			c1.07,1.18,2.37,1.9,3.97,2.04c-0.02,0.05-0.06,0.13-0.04,0.16c0.26,0.3,1.25,0.11,1.45-0.27c1.35-0.28,2.37-1.1,3.31-2.06
			c0.88-0.9,1.87-1.64,3.12-1.97c0.75-0.2,1.5-0.23,2.27-0.2c0.04,0.23-0.27,0.19-0.25,0.41c3.09,0.36,5.33,1.76,5.97,5.22
			c-0.3-0.28-0.5-0.47-0.76-0.71c-0.02,1.69-0.26,3.24-1.2,4.6c-0.06-0.01-0.14-0.06-0.14,0.06c0,0,0.08,0.01,0.13,0.01
			c0,0.11,0,0.22,0,0.33c-0.46,0.34-0.08,0.68,0.07,0.94c0.63,1.15,1.44,2.19,2.22,3.24c0.3,0.4,0.59,0.8,0.81,1.25
			c0.25,0.49,0.16,0.88-0.26,1.2c-0.2,0.15-0.31,0.33-0.38,0.59c-0.26,0.99-0.39,1.96,0.11,2.92c0.05,0.09,0,0.18-0.08,0.24
			c-0.5-0.23-1.01-0.57-1.55-0.37c-0.49,0.18-0.99,0.28-1.47,0.48c-0.02-0.23,0.09-0.32,0.32-0.35c0.32-0.03,0.61-0.17,0.89-0.32
			c0.14-0.08,0.29-0.19,0.21-0.35c-0.34-0.71,0.3-1.48-0.16-2.18c-0.02-0.04,0.03-0.14,0.07-0.2c0.26-0.41,0.14-0.74-0.21-1.03
			c-0.77-0.63-1.06-1.45-1.01-2.42c0.01-0.22-0.01-0.45,0-0.67c0.01-0.24-0.11-0.34-0.34-0.33c-0.11-0.15-0.12-0.33-0.13-0.51
			c0.14-0.49-0.06-1.05-0.45-1.27l0,0c0.13-0.38,0.15-0.71-0.37-0.78c-0.04-0.07-0.07-0.15-0.11-0.22c0.05-0.04,0.13-0.07,0.1-0.15
			c-0.04-0.1-0.14-0.07-0.22-0.07c-0.06-0.11-0.13-0.23-0.19-0.34C40.27,30.02,40,30.04,39.8,30c-0.09-0.19-0.31-0.28-0.32-0.51
			c0.02-0.02,0.03-0.05,0.05-0.07c-0.02,0.02-0.04,0.04-0.06,0.06c-0.21,0-0.25-0.2-0.36-0.31c-0.82-0.87-1.78-1.52-2.95-1.78
			c-1.12-0.26-2.25-0.33-3.36,0.08c-0.15-0.06-0.35,0.16-0.44-0.02c-0.08-0.16,0.1-0.3,0.21-0.42c0.48-0.51,1.09-0.82,1.7-1.15
			c0.24-0.13,0.55-0.16,0.81-0.45c-1.92,0.16-3.74,0.39-5.38,1.34c-0.85,0.49-1.76,0.53-2.61,0.04c-0.98-0.57-2.04-0.89-3.13-1.11
			c-0.38-0.08-0.77-0.12-1.16-0.17c-0.36-0.04-0.73-0.06-1.09-0.09c1,0.59,2.09,0.99,2.78,2.09c-0.27-0.03-0.45-0.05-0.63-0.07
			c-0.02-0.03-0.04-0.08-0.06-0.09c-1.68-0.34-3.32-0.29-4.8,0.66c-2.25,1.43-3.23,3.67-3.75,6.17c0,0.01,0.04,0.04,0.06,0.06
			c0.44-0.45,0.81-0.99,1.58-1.15c-0.71,1.59-0.69,3.18-0.68,4.76c-0.38-0.72-0.61-1.47-0.71-2.29c-1.04,0.93-1.74,3.3-1.43,4.82
			c0.36-0.41,0.6-0.92,1.2-1.1c-0.14,2.12,0.34,4,1.87,5.62c0.07-1.24,0.19-2.37,0.89-3.33c0.12,2.15,0.66,4.12,2.43,5.5
			c0-0.7-0.01-1.38,0-2.06c0.01-0.7,0-1.4,0.31-2.07c0.22,0.49,0.13,1.07,0.59,1.43c0.11,0.13,0.08,0.37,0.34,0.41
			c-0.03-0.5,0.18-0.91,0.38-1.33c0.39-0.53,0.81-1.02,1.45-1.45c-0.09,0.71-0.41,1.27-0.34,1.89c-0.46,2.02,0.63,3.39,2.74,3.24
			c0.6-0.04,1.12-0.25,1.34-0.84c0.25-0.67,0.06-1.29-0.43-1.8c-0.44-0.46-0.97-0.51-1.53-0.24c-0.11-0.07-0.21-0.14-0.32-0.21
			c0.33-0.02,0.21-0.13,0.05-0.26c-0.14-0.11-0.22-0.26-0.1-0.43c0.07-0.11,0.16-0.22,0.3-0.21c0.22,0.01,0.16,0.21,0.19,0.34
			c0.05,0.19,0.16,0.19,0.27,0.08c0.04-0.04,0.43-0.11,0.03-0.23c1.22-0.68,2.53-0.76,3.87-0.5c0.01,0.07,0,0.17,0.04,0.2
			c0.5,0.4,1.23,0.4,1.75,0c0.07-0.06,0.15-0.1,0.23-0.15c0.03,0.03,0.06,0.07,0.1,0.1c0.2,0.33,0.26,0.64-0.1,0.93
			c-0.11,0.09,0.08,0.09,0.14,0.12c-0.06,0.11-0.16,0.11-0.27,0.12c-0.11-0.02-0.22-0.04-0.32-0.05c-0.93-0.08-1.64,0.48-1.79,1.41
			c-0.12,0.77,0.34,1.47,1.15,1.58c2.05,0.29,3.47-0.86,3.04-3.11c0.04-0.64-0.22-1.22-0.37-1.83c0.03-0.02,0.06-0.05,0.1-0.07
			c0.57,0.33,0.95,0.84,1.33,1.36c0.22,0.37,0.38,0.75,0.4,1.19c0.01,0.39,0.15,0.06,0.24,0.04c0.39,0,0.37-0.28,0.37-0.55l0,0
			c0.17-0.02,0.18-0.29,0.4-0.26c0.17,0.65,0.22,1.29,0.08,1.96c-0.07,0.35-0.1,0.73,0.05,1.09c0.02,0.07,0.04,0.14,0.06,0.2
			c0.1,0.03,0.16,0,0.19-0.1c0.26-0.26,0.53-0.51,0.79-0.77c0.04-0.04,0.07-0.08,0.11-0.12l0,0c0.23,0,0.24-0.16,0.24-0.33l0,0
			c0.52-0.25,0.8-0.82,0.75-1.51c0.01-0.06,0.02-0.11,0.03-0.17c0.18-0.11,0.32-0.24,0.12-0.45c0.03-0.12,0.06-0.23,0.09-0.35
			c0.12-0.01,0.24-0.06,0.22-0.18c-0.05-0.44,0.2-0.46,0.52-0.39c0.25,0.67,0.31,1.38,0.32,2.16c0.2-0.19,0.34-0.32,0.49-0.46
			c0.2-0.01,0.27-0.12,0.23-0.31c0.03-0.05,0.07-0.1,0.1-0.16c0.44,0.02,0.44-0.55,0.79-0.61c0.48-0.08,0.5-0.41,0.49-0.78
			c-0.01-0.28,0-0.55,0-0.83c0.27,0.05,0.22,0.26,0.22,0.44c0,0.45,0,0.89,0,1.34c0,0.39,0.19,0.6,0.58,0.57
			c0.4-0.02,0.81-0.07,1.21-0.11c-0.05,0.24-0.47,0.21-0.4,0.54c0.06,0.28-0.12,0.48-0.21,0.72c-0.18,0.46-0.66,0.78-0.59,1.35
			c0,0,0,0,0,0c-0.55,0-0.53,0.41-0.57,0.78C41.63,47.43,41.35,47.31,41.09,47.46z M26.19,48.26c-0.14,0.1-0.4,0.18-0.25,0.39
			c0.26,0.36,0.62,0.82,1,0.84c0.65,0.02,1.3,0.17,1.96,0.09c0.67-0.08,1.29-0.17,1.71-0.77c0.12-0.17,0.31-0.32-0.03-0.45
			C29.48,47.51,27.55,47.47,26.19,48.26z"/>
		<path class="st14" d="M42.46,46.6c-0.07-0.56,0.41-0.89,0.59-1.35c0.09-0.24,0.28-0.44,0.21-0.72c-0.08-0.34,0.35-0.3,0.4-0.54
			c0.46-0.81,0.74-1.69,1.01-2.58c0.08-0.06,0.13-0.15,0.08-0.24c-0.5-0.96-0.36-1.93-0.11-2.92c0.07-0.26,0.19-0.44,0.38-0.59
			c0.42-0.33,0.51-0.71,0.26-1.2c-0.23-0.45-0.51-0.85-0.81-1.25c-0.78-1.05-1.59-2.09-2.22-3.24c-0.14-0.26-0.53-0.6-0.07-0.94
			c0.05,0.14,0.09,0.28,0.14,0.42c0.29,0.98,0.98,1.7,1.56,2.49c0.6,0.81,1.23,1.59,1.68,2.5c0.3,0.59,0.48,1.21,0.44,1.93
			c-0.33-0.26-0.39-0.14-0.43,0.22C45.22,41.52,44.16,44.19,42.46,46.6z"/>
		<path class="st14" d="M41.09,47.46c0.25-0.15,0.54-0.04,0.8-0.08c-0.13,0.2-0.26,0.4-0.39,0.6c-0.21,0.21-0.41,0.42-0.62,0.64
			c-0.03-0.03-0.06-0.06-0.09-0.09c0.06-0.22,0.13-0.43,0.19-0.65c0.07,0,0.13-0.01,0.2-0.01c-0.06-0.02-0.11-0.05-0.17-0.07
			C41.04,47.68,41.07,47.57,41.09,47.46z"/>
		<path class="st14" d="M29.74,25.35c-0.2,0.39-1.19,0.58-1.45,0.27c-0.02-0.02,0.03-0.1,0.04-0.16c0.21,0,0.42,0,0.62,0
			c0.12,0.19,0.2,0.15,0.25-0.05C29.39,25.4,29.57,25.37,29.74,25.35z"/>
		<path class="st14" d="M41.01,47.79c0.06,0.02,0.11,0.05,0.17,0.07c-0.07,0-0.13,0.01-0.2,0.01
			C40.97,47.85,40.98,47.82,41.01,47.79z"/>
		<path class="st14" d="M42.19,30.7c-0.05,0-0.13-0.01-0.13-0.01c0-0.12,0.08-0.07,0.14-0.06C42.19,30.66,42.19,30.68,42.19,30.7z"
			/>
		<path class="st14" d="M40.89,48.62c-0.03,0.05-0.07,0.09-0.12,0.05c-0.02-0.02,0.01-0.09,0.02-0.13
			C40.83,48.56,40.86,48.59,40.89,48.62z"/>
		<path class="st14" d="M41.89,47.38c0.04-0.37,0.02-0.78,0.57-0.78C42.27,46.86,42.08,47.12,41.89,47.38z"/>
		<path class="st14" d="M41.41,34.26c0.12-0.19-0.06-0.38,0-0.57c0.23-0.01,0.35,0.08,0.34,0.33c-0.01,0.22,0.01,0.45,0,0.67
			c-0.05,0.97,0.25,1.79,1.01,2.42c0.35,0.28,0.46,0.62,0.21,1.03c-0.04,0.06-0.09,0.16-0.07,0.2c0.46,0.7-0.18,1.47,0.16,2.18
			c0.08,0.16-0.07,0.27-0.21,0.35c-0.28,0.15-0.57,0.29-0.89,0.32c-0.24,0.02-0.34,0.11-0.32,0.35c0,0.07,0,0.15,0,0.22
			c0,0.28,0,0.55,0,0.83c0.01,0.37-0.01,0.7-0.49,0.78c-0.35,0.06-0.35,0.63-0.79,0.61c0.85-1.43,1.23-2.97,1.03-4.69
			c0.63,0.19,0.89,0.7,1.31,1.22c0.12-1.9-0.3-3.5-1.47-4.99c-0.17,0.83-0.28,1.57-0.74,2.21c0.1-1.57-0.04-3.09-0.67-4.62
			c0.76,0.13,1.11,0.73,1.59,1.15c0.01,0.01,0.02,0.02,0.03,0.03c0,0,0.02-0.01,0.02-0.02C41.45,34.26,41.43,34.26,41.41,34.26z"/>
		<path class="st14" d="M41.64,41.75c0-0.07,0-0.15,0-0.22c0.47-0.21,0.98-0.31,1.47-0.48c0.55-0.2,1.06,0.14,1.55,0.37
			c-0.26,0.89-0.55,1.76-1.01,2.58c-0.4,0.04-0.81,0.09-1.21,0.11c-0.39,0.02-0.58-0.18-0.58-0.57c0-0.45,0-0.89,0-1.34
			C41.86,42.01,41.91,41.8,41.64,41.75z"/>
		<path class="st14" d="M24.96,44.02c-0.54-0.33-0.44-0.83-0.37-1.5c0.23,0.5,0.39,0.41,0.64,0.17c1.84-1.68,4.82-1.6,6.37,0.16
			c-0.08,0.05-0.16,0.1-0.23,0.15c-0.52,0.4-1.24,0.4-1.75,0c-0.04-0.03-0.03-0.13-0.04-0.2c0.45,0.05,0.87,0.22,1.35,0.45
			c-0.04-0.15-0.03-0.23-0.07-0.27c-0.98-1.27-4.38-1.13-5.3,0.22c-0.1,0.15,0.09,0.08,0.14,0.11c0.41,0.12,0.01,0.19-0.03,0.23
			c-0.11,0.11-0.23,0.11-0.27-0.08c-0.03-0.13,0.04-0.32-0.19-0.34c-0.14-0.01-0.23,0.1-0.3,0.21c-0.11,0.17-0.03,0.32,0.1,0.43
			C25.17,43.89,25.29,44,24.96,44.02z"/>
		<path class="st14" d="M31.68,42.96c0.25,0.07,0.21-0.25,0.44-0.3c0.03,0.51,0.16,1.02-0.39,1.36c-0.06-0.03-0.25-0.03-0.14-0.12
			C31.95,43.59,31.88,43.29,31.68,42.96z"/>
		<path class="st14" d="M41.28,33.18c-0.15-0.42-0.3-0.85-0.45-1.27C41.22,32.13,41.42,32.69,41.28,33.18z"/>
		<path class="st14" d="M40.83,31.92c-0.12-0.26-0.25-0.52-0.37-0.78C40.99,31.21,40.96,31.54,40.83,31.92z"/>
		<path class="st14" d="M40.04,30.35c-0.08-0.12-0.15-0.23-0.23-0.35C40,30.04,40.27,30.02,40.04,30.35z"/>
		<path class="st14" d="M40.35,30.91c-0.04-0.07-0.08-0.15-0.13-0.22c0.08,0,0.18-0.03,0.22,0.07
			C40.49,30.84,40.41,30.87,40.35,30.91z"/>
		<path class="st14" d="M39.47,29.47c0.02-0.02,0.04-0.04,0.06-0.06c-0.02,0.02-0.03,0.05-0.05,0.07
			C39.48,29.48,39.47,29.47,39.47,29.47z"/>
		<path class="st14" d="M30.01,39.3c0.33,0,0.65,0,1,0c-0.68-1.3-4.41-1.43-5.4,0c0.37,0,0.68,0,1,0c-0.89,0.22-1.69,0.63-2.48,1.3
			c0-0.59,0-1.04,0-1.54c-0.5,0.23-0.9,0.55-1.42,0.56c-0.02-0.09-0.03-0.19-0.15-0.19c-0.15-0.01-0.17,0.11-0.18,0.22
			c-0.28,0.03-0.55,0.03-0.82-0.07c-0.03-0.28,0.04-0.44,0.38-0.41c0.24,0.02,0.49-0.02,0.54-0.34c0-0.07,0.03-0.16-0.07-0.18
			c-0.82-0.16-1.47-0.64-2.17-1.05c-0.4-0.56-0.93-1.02-1.25-1.64c-0.1-0.19-0.2-0.06-0.29,0.02c-0.45,0.12-0.53,0.68-0.97,0.87
			c0.3-1.06,0.69-2.03,1.27-2.92c0.37-0.57,0.86-0.79,1.49-0.81c0.45-0.01,0.89-0.02,1.34-0.04c0.32,0.06,0.63,0.21,1.03,0.15
			c-0.31-0.6-0.73-1.07-1.27-1.52c0.23-0.07,0.4-0.02,0.58,0.07c1.01,0.59,1.89,1.33,2.53,2.32c0.08,0.12,0.15,0.26,0.32,0.28
			c0.08,0.53,0.43,0.92,0.67,1.47c0.19-0.44,0.31-0.78,0.19-1.16c-0.04-0.25-0.08-0.51-0.12-0.76c-0.03-0.2,0.09-0.15,0.19-0.13
			c0.53,0.5,0.97,1.08,1.22,1.76c0.1,0.27,0.22,0.27,0.45,0.2c0.49-0.14,0.99-0.15,1.48,0.01c0.23,0.08,0.34,0.02,0.41-0.2
			c0.26-0.71,0.7-1.3,1.26-1.8c0.27,0.03,0.14,0.24,0.1,0.32c-0.09,0.19-0.1,0.38-0.08,0.57c-0.01,0.37-0.09,0.75,0.24,1.12
			c0.22-0.48,0.43-0.91,0.63-1.34c0.57-0.65,1.06-1.36,1.69-1.96c0.29-0.2,0.58-0.41,0.87-0.61c0.08-0.04,0.17-0.08,0.25-0.11
			c0.13-0.03,0.28-0.18,0.39-0.01c0.08,0.14-0.1,0.21-0.18,0.29c-0.33,0.34-0.65,0.69-0.87,1.15c0.4,0.08,0.74-0.11,1.09-0.15
			c0.44,0.01,0.89,0.02,1.33,0.04c0.61,0.03,1.11,0.23,1.43,0.8c0.26,0.46,0.6,0.89,0.74,1.42c-0.12,0.2-0.17,0.44-0.37,0.6l-0.05,0
			l-0.05,0.01l0,0c-0.06-0.16-0.14-0.18-0.22-0.01c-0.35,0.58-0.79,1.09-1.25,1.59c-0.68,0.54-1.41,0.98-2.36,1.17
			c0.49,0.4,0.98,0.41,1.48,0.42c0.18,0,0.4-0.16,0.56,0.07c-1.2,0.69-2.39,0.69-3.58-0.11c-0.04,0.53,0.09,1-0.07,1.51
			C31.74,39.91,30.92,39.5,30.01,39.3z M33.22,37.22c1.26-0.25,1.68-0.91,1.39-2.18c-0.28,0.13-0.58,0.21-0.82,0.43
			c-1.03,0.57-1.85,1.37-2.65,2.4C31.93,37.66,32.6,37.52,33.22,37.22z M22.71,35.38c-0.14-0.08-0.28-0.16-0.42-0.25
			c-0.22-0.13-0.35-0.1-0.33,0.19c0.1,1.35,0.28,1.7,1.56,1.91c0.59,0.32,1.25,0.42,2.02,0.65C24.7,36.78,23.84,35.93,22.71,35.38z"
			/>
		<path class="st14" d="M21.19,39.41c-0.27,0.03-0.44-0.2-0.67-0.27c0-0.05-0.08-0.15,0.08-0.12c0.65,0.15,1.28,0.07,1.89-0.19
			c-0.05,0.32-0.3,0.36-0.54,0.34c-0.34-0.03-0.41,0.13-0.38,0.41c-0.07-0.02-0.13-0.05-0.2-0.07
			C21.31,39.47,21.25,39.44,21.19,39.41z"/>
		<path class="st14" d="M22.71,39.62c-0.11,0.01-0.22,0.02-0.33,0.02c0.01-0.11,0.03-0.23,0.18-0.22
			C22.68,39.43,22.69,39.53,22.71,39.62z"/>
		<path class="st14" d="M21.19,39.41c0.06,0.03,0.12,0.07,0.18,0.1C21.29,39.51,21.22,39.49,21.19,39.41z"/>
	</g>
</g>
<path class="st15" d="M38.12,7.25c0,0-2.97-0.65-3.34,0.15c-0.36,0.8,2.03,0.44,2.32,1.67c0.22,1.23-1.16,5.51-2.32,5.95
	c-1.16,0.44-5.08,1.81-5.22,2.68c-0.15,0.94,0.22,1.16-1.23,1.6c-1.45,0.43-9.93,0.22-10.15,2.39c-0.22,2.18,2.39,6.31,6.31,7.98
	c3.92,1.67,14.72,5.08,21.83,3.99c4.57-1.23-1.16-6.53-5-9.57c-3.84-3.05,1.67-4.79,2.25-5.87c0.73-1.31-0.15-6.74-2.18-9.21
	c-0.29-0.29-0.58-0.58-0.94-0.8C39.28,7.54,38.12,7.25,38.12,7.25z"/>
<path class="st16" d="M27.53,21.32c-0.07,0.15-0.87,1.74-0.87,2.25c0,0.51,2.54,2.97,3.12,3.12c0.58,0.15-0.44,1.52,0.22,1.89
	c0.65,0.36,4.35,1.89,4.64,1.52c0.29-0.36,0.51-1.31,0.51-1.31s2.32,1.02,3.05,0.73c0.73-0.29,2.61-1.38,2.83-1.81
	c0.22-0.36-0.07-2.39-0.58-2.18c-0.51,0.22-0.44,0.58-1.23,0.87c-0.8,0.29-1.52,0.15-2.03,0c-0.51-0.22-0.8-0.29-0.8-0.29l0.07-0.8
	c0,0-3.77-1.74-4.13-1.67c-0.36,0.07-0.36,1.16-1.16,0.87c-0.8-0.29-2.39-1.6-2.68-2.68c-0.22-0.73-0.51-1.02-0.73-1.09
	C27.67,20.81,27.53,21.32,27.53,21.32z"/>
</svg>
