<?xml version="1.0" encoding="utf-8"?>
<!-- Generator: Adobe Illustrator 27.9.0, SVG Export Plug-In . SVG Version: 6.00 Build 0)  -->
<svg version="1.1" id="Capa_1" xmlns="http://www.w3.org/2000/svg" xmlns:xlink="http://www.w3.org/1999/xlink" x="0px" y="0px"
	 viewBox="0 0 60 60" style="enable-background:new 0 0 60 60;" xml:space="preserve">
<style type="text/css">
	.st0{fill:none;stroke:#7DF500;stroke-width:0.9395;stroke-miterlimit:10;}
	.st1{fill:#AEFB07;}
	.st2{fill:#030303;}
	.st3{fill:#F1EFF0;}
	.st4{fill:#9D9C9C;}
	.st5{fill:#9D9B9F;}
	.st6{fill:#EFECEF;}
	.st7{fill:#3333FF;}
	.st8{fill:#9B999C;}
	.st9{fill:#EBEAEB;}
	.st10{fill:#1F050E;}
	.st11{fill:#050407;}
	.st12{fill:#8589FF;}
	.st13{fill:#060406;}
	.st14{fill:#141215;}
	.st15{fill:#05051A;}
	.st16{fill:#7DF500;}
</style>
<path class="st0" d="M14.88,23.99c0.76-2.42-0.48-5.46-0.48-5.46s2.35,2,5.04,2.35"/>
<path class="st0" d="M25.79,18.88c0,0,2.21-2.49,2.56-5.32c0.41,1.87,1.04,3.39,2.63,5.11"/>
<g>
	<g>
		<path class="st1" d="M46.21,48.24c-1.07,1.3-2.25,2.49-3.46,3.69c0-0.36,0.21-0.67,0.19-1.1c-1.6,1.45-3.53,2.16-5.36,3.1
			c-1.66,0.85-3.29,1.78-4.98,2.59c-0.36,0.18-0.66,0.19-1.03,0.01c-1.6-0.8-3.28-1.46-4.74-2.52c-0.23-0.16-0.51-0.26-0.77-0.36
			c-1.73-0.61-3.29-1.5-4.7-2.68c-0.05-0.02-0.12-0.08-0.14-0.07c-0.07,0.07-0.04,0.14,0.03,0.19c-0.01,0.31,0.22,0.57,0.16,0.9
			c-3.83-3.8-7.38-7.78-8.68-13.24c-0.03-0.14,0.07-0.47-0.33-0.28c-0.14,0.07-0.13-0.2-0.17-0.33c-0.91-2.7,0.01-4.95,1.71-7.01
			c0.67-0.82,1.31-1.66,1.85-2.58c0.22-0.37,0.27-0.67,0.02-1.06c-0.42-0.65-0.65-1.39-0.83-2.19c-0.55,0.43-0.93,0.99-1.54,1.58
			c0.37-2.15,0.27-4.21,1.16-6.09c0.87-1.85,2.33-3.04,4.24-3.76c-0.2-0.38-0.67-0.46-0.93-0.87c2.64-0.08,5.25-0.66,7.71,0.68
			c1.15,0.62,2.07,1.52,2.99,2.42c0.74,0.71,1.56,1.24,2.6,1.38c0.16,0.01,0.32,0.03,0.48,0.04c0.17,0.09,0.35,0.09,0.54,0.04
			c0.23-0.03,0.47-0.06,0.7-0.09c1.01-0.14,1.83-0.64,2.54-1.34c0.82-0.8,1.63-1.61,2.61-2.21c1.33-0.81,2.78-1.15,4.32-1.1
			c1.24,0.04,2.48,0.12,3.9,0.19c-0.42,0.33-0.72,0.56-1.08,0.84c1.53,0.59,2.78,1.45,3.7,2.76c0.67,0.96,1.07,2.02,1.24,3.16
			c0.19,1.26,0.32,2.53,0.49,3.96c-0.56-0.61-1.01-1.09-1.49-1.61c-0.23,0.89-0.49,1.7-0.95,2.42c-0.2,0.31-0.01,0.54,0.04,0.81
			c-0.4,0-0.8,0-1.2-0.01c-0.05-0.15-0.1-0.3-0.15-0.46c0-0.12,0-0.24,0-0.36c0-0.03,0-0.05,0.01-0.08c1.03-1.49,1.3-3.19,1.32-5.03
			c0.29,0.27,0.5,0.47,0.83,0.78c-0.7-3.79-3.15-5.32-6.54-5.72c-0.02-0.25,0.32-0.2,0.27-0.45c-0.84-0.02-1.66,0.01-2.49,0.22
			c-1.37,0.36-2.45,1.18-3.42,2.16c-1.03,1.05-2.14,1.94-3.62,2.25c-0.2,0.03-0.39,0.05-0.59,0.08c-0.09,0.02-0.18,0.04-0.27,0.05
			c-0.23,0-0.46,0-0.68,0c-1.75-0.16-3.17-0.95-4.35-2.24c-0.33-0.36-0.71-0.67-1.09-0.99c-1.45-1.21-3.12-1.67-4.99-1.52
			c0,0.24,0.33,0.2,0.3,0.43c-4.42,0.46-6.26,3.14-6.34,5.68c0.16-0.25,0.32-0.5,0.48-0.75c0.18,1.63,0.3,3.13,1.13,4.45
			c0.43,0.67,0.39,1.29,0.04,1.95c-0.46,0.89-1.1,1.66-1.7,2.46c-0.85,1.14-1.77,2.25-2.11,3.68c-0.08,0.32-0.08,0.64-0.03,0.99
			c0.07-0.05,0.11-0.08,0.15-0.11c0.06-0.03,0.09-0.15,0.21-0.05c0.49,4.37,2.33,8.13,5.24,11.47c0.12-0.57-0.25-0.99-0.23-1.51
			c0.94,1.26,1.85,2.52,3,3.59c1.15,1.07,2.37,2.03,3.98,2.63c-0.2-0.48-0.34-0.82-0.48-1.16c0.04-0.04,0.08-0.07,0.13-0.11
			c1.27,1.37,2.65,2.58,4.36,3.35c0.06,0.04,0.12,0.1,0.17,0.01c0.01-0.02-0.04-0.09-0.06-0.13c-0.21-0.41-0.42-0.82-0.62-1.22
			c0.03-0.03,0.07-0.06,0.1-0.09c0.7,0.45,1.38,0.92,2.11,1.33c0.65,0.37,1.22,0.38,1.87-0.01c0.66-0.4,1.34-0.76,1.94-1.25
			c0.12-0.09,0.22-0.27,0.41-0.12c0,0-0.01,0-0.01,0c-0.31,0.5-0.61,1.01-0.92,1.51c1.89-0.76,3.41-1.98,4.77-3.63
			c-0.03,0.62-0.39,0.99-0.46,1.53c1.19-0.48,2.18-1.14,3.11-1.9c1.45-1.19,2.63-2.61,3.63-4.19c0.06-0.09,0.16-0.42,0.23,0
			c-0.03,0.12-0.06,0.24-0.09,0.36c-0.04,0.02-0.05,0.06-0.03,0.1c-0.07,0.24-0.14,0.47-0.21,0.71c-0.01,0.05-0.05,0.13-0.03,0.15
			c0.05,0.05,0.1,0,0.13-0.05c0.23-0.23,0.45-0.47,0.68-0.7c0.01,0.22,0.11,0.48-0.06,0.63C45.69,47.61,45.87,47.92,46.21,48.24z"/>
		<path class="st1" d="M47.07,28.47c0.4,0,0.8,0,1.2,0.01c0.94,1.52,2.2,2.82,3.1,4.38c0.57,0.98,0.92,2.06,0.86,3.17
			c-0.04,0.72-0.13,1.46-0.33,2.18c-0.03,0.12,0.01,0.32-0.29,0.21c-0.26-0.1-0.17,0.26-0.21,0.39c-0.64,2.4-1.63,4.64-3.02,6.69
			c-0.66,0.97-1.3,1.95-2.18,2.75c-0.34-0.31-0.52-0.62-0.09-1.02c0.16-0.15,0.07-0.42,0.06-0.63c0.14-0.22,0.28-0.44,0.43-0.66
			c0.21-0.28,0.41-0.57,0.62-0.85c0,0,0,0,0,0c1.87-2.64,3.03-5.57,3.41-8.79c0.05-0.39,0.11-0.52,0.47-0.24
			c0.05-0.8-0.15-1.47-0.48-2.12c-0.5-0.99-1.19-1.85-1.84-2.73C48.14,30.33,47.39,29.54,47.07,28.47z"/>
	</g>
	<path class="st2" d="M32.71,21.87c-0.05,0.22-0.13,0.26-0.27,0.05C32.53,21.9,32.62,21.88,32.71,21.87z"/>
	<path class="st2" d="M29.57,54.06c0.02,0.04,0.07,0.11,0.06,0.13c-0.05,0.09-0.12,0.03-0.17-0.01
		C29.5,54.14,29.53,54.1,29.57,54.06z"/>
	<path class="st3" d="M26.82,24.09c0.2,0.02,0.4,0.05,0.69,0.08c-0.75-1.2-1.94-1.64-3.04-2.29c0.4,0.03,0.8,0.05,1.2,0.1
		c0.42,0.05,0.85,0.1,1.27,0.18c1.2,0.24,2.36,0.59,3.43,1.21c0.93,0.53,1.93,0.5,2.86-0.04c1.8-1.05,3.79-1.3,5.89-1.47
		c-0.28,0.32-0.62,0.35-0.89,0.49c-0.66,0.36-1.33,0.71-1.86,1.26c-0.12,0.13-0.32,0.28-0.23,0.46c0.1,0.19,0.32-0.04,0.49,0.02
		c0.16,0.2,0.4,0.17,0.61,0.2c1.09,0.14,2.16,0.39,3.12,0.95c0.34,0.2,0.65,0.43,1,0.67c0-0.11,0.02-0.16,0-0.18
		c-0.15-0.19-0.3-0.38-0.45-0.57l0.04-0.04c1.68,0.75,2.61,2.14,3.19,3.81c-0.02,0.02-0.04,0.04-0.06,0.06
		c-0.72-0.22-1.26-0.79-2.08-1.05c0.24,0.85,0.45,1.62,0.68,2.46c-1.32-0.9-2.73-0.94-3.72-0.16c-0.39,0.04-0.76,0.25-1.19,0.16
		c0.24-0.5,0.59-0.88,0.95-1.26c0.09-0.09,0.29-0.16,0.2-0.32c-0.11-0.19-0.28-0.03-0.42,0.01c-0.1,0.03-0.19,0.08-0.28,0.12
		c-0.27-0.13-0.45,0.09-0.64,0.19c-0.35,0.19-0.44,0.04-0.42-0.27c0.02-0.34,0.05-0.68,0.08-1.02c0.21-0.61,0.11-1.19-0.17-1.75
		c0.02-0.14-0.01-0.25-0.15-0.3l0-0.03c-0.17-0.34-0.44-0.53-0.91-0.6c0.62,0.6,0.86,1.23,0.64,1.99c-0.08,0.27-0.18,0.53-0.28,0.8
		l0-0.01c-0.1,0.05-0.14,0.14-0.13,0.25c0,0,0-0.01,0-0.01c-0.55,0.83-0.87,1.73-0.87,2.74c-0.05,0.14-0.1,0.29-0.15,0.43
		c-0.36,0.1-0.34,0.64-0.77,0.65c-0.03-0.22-0.02-0.42,0.09-0.63c0.04-0.09,0.18-0.32-0.11-0.35c-0.55-0.01-0.81,0.42-1.13,0.75
		c-1.03,1.08-2.04,1.07-3.09,0c-0.3-0.31-0.53-0.75-1.06-0.73c-0.11-0.02-0.25-0.08-0.21,0.14c0.05,0.28,0.09,0.55,0.13,0.83
		c-0.41-0.07-0.42-0.58-0.78-0.7c-0.04-0.14-0.08-0.27-0.12-0.41c-0.03-0.75-0.17-1.46-0.59-2.1l0.01,0.01
		c-0.05-0.39-0.23-0.71-0.5-0.99l0,0.01c-0.1-0.28-0.2-0.56-0.29-0.84c0-0.25,0-0.5,0-0.75c0.02-0.08,0.04-0.17,0.05-0.25l0-0.03
		c0.15-0.21,0.31-0.41,0.52-0.71c-0.41,0.05-0.59,0.2-0.71,0.44l0,0.03c-0.08,0.01-0.12,0.06-0.12,0.14l0,0
		c-0.17,0.13-0.23,0.31-0.22,0.51l0,0.01c-0.01,0.01-0.04,0.02-0.04,0.03c0.01,0.03,0.02,0.05,0.04,0.07
		c-0.16,0.43-0.2,0.87-0.1,1.32c0.12,0.5,0.13,1.01,0.11,1.52c-0.5-0.03-0.82-0.53-1.34-0.49c-0.19-0.09-0.38-0.15-0.63-0.07
		c0.6,0.49,1.05,1.01,1.4,1.66c-0.44,0.06-0.77-0.1-1.13-0.17c-0.57-0.45-1.25-0.5-1.93-0.58c-0.76-0.09-1.37,0.15-1.83,0.81
		c0.14-0.88,0.51-1.64,0.59-2.48c0.01-0.03,0.02-0.06,0.03-0.08c-0.03,0.01-0.05,0.03-0.08,0.04c-0.67,0.36-1.33,0.73-2.11,1.16
		c0.14-0.62,0.39-1.06,0.64-1.48c0.6-1,1.3-1.91,2.41-2.41c0.02,0.03,0.05,0.05,0.08,0.08c-0.07,0.14-0.14,0.27-0.21,0.41
		c-0.04,0.04-0.08,0.09-0.12,0.13c-0.03,0.05-0.06,0.11-0.09,0.16c-0.03,0.05-0.06,0.09-0.08,0.14c0,0.01,0.02,0.03,0.04,0.04
		c0.02-0.05,0.05-0.1,0.07-0.15c0.05-0.04,0.09-0.07,0.14-0.11c0.04-0.04,0.08-0.08,0.12-0.13c1.23-0.95,2.66-1.38,4.19-1.51
		C26.63,24.27,26.79,24.3,26.82,24.09z M41.48,26.1l0.02-0.04l-0.03-0.01L41.48,26.1z M39.03,28.74c-0.02,0.01-0.05,0.03-0.07,0.04
		c0.01,0.01,0.03,0.04,0.04,0.03c0.03-0.01,0.05-0.02,0.07-0.04C39.06,28.77,39.05,28.76,39.03,28.74z"/>
	<path class="st4" d="M21.45,28.01c-0.08,0.83-0.45,1.6-0.59,2.48c0.46-0.66,1.07-0.9,1.83-0.81c0.68,0.08,1.37,0.13,1.93,0.58
		c-0.49,0.01-0.98,0.02-1.47,0.04c-0.69,0.02-1.23,0.27-1.64,0.89c-0.64,0.98-1.06,2.03-1.39,3.2c0.49-0.21,0.58-0.82,1.07-0.95
		c-0.01,0.08,0.01,0.17-0.02,0.24c-0.57,1.31-1.27,2.55-2.12,3.71c-0.26,0.35-0.51,0.17-0.81,0.11c0.02,0.57,0.19,1.04,0.47,1.47
		c0.18,0.28,0.33,0.41,0.54,0.01c0.24-0.43,0.56-0.81,0.95-1.11c0.28-0.22,0.6-0.62,0.93-0.49c0.31,0.13,0.11,0.63,0.17,0.95
		c0,0.02,0,0.04,0,0.06c0,0.05,0.01,0.1,0.01,0.15c-0.26,0.38-0.7,0.59-0.89,1.02c-0.77,1.06-0.9,2.29-0.97,3.65
		c-1.67-1.77-2.2-3.83-2.05-6.15c-0.65,0.21-0.92,0.75-1.31,1.21c-0.34-1.66,0.42-4.26,1.56-5.28c0.11,0.89,0.36,1.72,0.78,2.51
		c-0.01-1.74-0.04-3.48,0.74-5.22c-0.85,0.18-1.25,0.76-1.73,1.26c-0.02-0.02-0.07-0.05-0.07-0.06c0.57-2.74,1.64-5.19,4.1-6.75
		c1.63-1.03,3.42-1.09,5.26-0.72c0.03,0.01,0.05,0.06,0.07,0.09c-0.02,0.2-0.19,0.18-0.33,0.19c-1.53,0.13-2.96,0.56-4.19,1.51
		c-0.03-0.03-0.05-0.05-0.08-0.08c0.07-0.14,0.14-0.27,0.21-0.41c0.02-0.03,0.06-0.07,0.05-0.08c-0.04-0.07-0.09-0.03-0.13,0.01
		c-1.11,0.49-1.81,1.4-2.41,2.41c-0.25,0.43-0.5,0.86-0.64,1.48c0.78-0.43,1.44-0.79,2.11-1.16C21.42,27.98,21.44,28,21.45,28.01z"
		/>
	<path class="st5" d="M44.14,28.94c-0.58-1.67-1.51-3.06-3.19-3.81c-0.05-0.07-0.15-0.11-0.17-0.04c-0.04,0.09,0.09,0.06,0.14,0.08
		c0.15,0.19,0.31,0.37,0.45,0.57c0.02,0.02,0,0.07,0,0.18c-0.35-0.24-0.67-0.47-1-0.67c-0.96-0.56-2.03-0.81-3.12-0.95
		c-0.22-0.03-0.45,0-0.61-0.2c1.22-0.45,2.46-0.37,3.69-0.09c1.28,0.29,2.33,1.01,3.23,1.95c0.12,0.12,0.17,0.34,0.39,0.34
		l0.01,0.01c0.01,0.25,0.26,0.36,0.35,0.56c0.08,0.13,0.17,0.25,0.25,0.38c0.07,0.13,0.14,0.25,0.21,0.38
		c0.05,0.08,0.09,0.16,0.14,0.25c0.04,0.08,0.08,0.16,0.12,0.24c0.13,0.29,0.27,0.57,0.4,0.86c0,0,0,0,0,0
		c0.16,0.46,0.33,0.93,0.49,1.39c0.01,0.2,0.02,0.39,0.14,0.55c-0.06,0.21,0.13,0.42,0,0.63l0.01-0.01
		c-0.52-0.46-0.91-1.11-1.74-1.25c0.69,1.67,0.84,3.34,0.74,5.06c0.5-0.7,0.62-1.51,0.81-2.42c1.28,1.63,1.74,3.39,1.61,5.47
		c-0.46-0.57-0.75-1.13-1.43-1.34c0.22,1.88-0.2,3.57-1.13,5.14c-0.04,0.06-0.07,0.11-0.11,0.17c-0.08,0.11-0.17,0.22-0.25,0.34
		c-0.16,0.15-0.31,0.29-0.53,0.5c-0.01-0.85-0.08-1.62-0.35-2.36c-0.13-0.49-0.31-0.96-0.66-1.35c-0.22-0.38-0.54-0.68-0.87-0.96
		c0-0.05,0-0.09,0-0.14c0.04-0.22,0.11-0.44,0.1-0.66c-0.01-0.52,0.22-0.41,0.51-0.24c0.61,0.36,1.09,0.87,1.45,1.47
		c0.24,0.39,0.41,0.32,0.6-0.01c0.07-0.12,0.18-0.25,0.19-0.38c0.01-0.35,0.78-0.96-0.3-0.99c-0.06,0-0.13-0.1-0.18-0.16
		c-0.99-1.21-1.73-2.56-2.26-4.03l0.06-0.01l0.06,0c0.32,0.37,0.64,0.74,1.06,1.22c-0.22-0.72-0.32-1.33-0.66-1.87
		c-0.15-0.58-0.52-1.05-0.81-1.56c-0.35-0.62-0.9-0.84-1.57-0.87c-0.49-0.02-0.97-0.03-1.46-0.05c0.99-0.79,2.41-0.74,3.72,0.16
		c-0.23-0.83-0.44-1.61-0.68-2.46c0.82,0.26,1.37,0.82,2.08,1.05c0.03,0.01,0.06,0.02,0.1,0.03C44.16,29,44.15,28.97,44.14,28.94z"
		/>
	<path class="st6" d="M38.6,41.59c-0.42-0.56-0.84-1.12-1.46-1.49c-0.02-0.06-0.05-0.12-0.11-0.07c-0.02,0.02,0,0.1,0.01,0.15
		c0.16,0.66,0.45,1.3,0.4,2c-0.22-0.01-0.29,0.19-0.43,0.29c-0.52,0.37-1.47,0.31-1.84-0.11c0.11-0.02,0.23-0.02,0.29-0.14
		c0.6-0.37,0.46-0.92,0.43-1.48c-0.24,0.05-0.21,0.41-0.48,0.33c-0.03-0.04-0.07-0.07-0.1-0.11c-1.69-1.92-4.96-2.02-6.98-0.17
		c-0.28,0.25-0.45,0.36-0.7-0.19c-0.08,0.73-0.18,1.28,0.41,1.64c0.12,0.08,0.23,0.16,0.35,0.23c-0.86,0.41-1.64,0.35-2.31-0.39
		c-0.08-0.68,0.28-1.28,0.37-2.07c-0.7,0.47-1.16,1.02-1.59,1.59c-0.32-0.21-0.36-0.61-0.62-0.86c-0.01-0.37-0.02-0.74-0.03-1.11
		c-0.09-0.59-0.07-1.17,0.19-1.72c0.68,0.19,1.34,0.46,2.06,0.48c0.16,0,0.28,0.08,0.31,0.24c0.12,0.74,0.5,0.51,0.9,0.25
		l-0.01-0.01c0.01,0.12,0.02,0.23,0.05,0.48c0.78-1.01,1.79-1.59,2.77-2.2c0.01-0.01,0.03-0.03,0.04-0.04
		c-0.01,0.02-0.02,0.03-0.03,0.05c-0.21-0.03-0.38-0.36-0.64-0.11c-0.35,0-0.69,0-1.09,0c1.09-1.57,5.17-1.43,5.92,0
		c-0.38,0-0.74,0-1.1,0c-0.18-0.04-0.36-0.07-0.5,0.1c-0.02-0.04-0.03-0.12-0.1-0.04c0,0,0.04,0.04,0.07,0.06
		c0.98,0.59,1.94,1.2,2.69,2.09c0.03,0.02,0.07,0.07,0.08,0.07c0.07-0.05,0.04-0.1-0.01-0.14c-0.02-0.19-0.04-0.47,0.24-0.19
		c0.35,0.34,0.45,0.13,0.59-0.17c0.09-0.19,0.08-0.45,0.4-0.46c0.7-0.01,1.35-0.27,2.01-0.48c0.23,0.44,0.31,0.9,0.23,1.39
		c-0.1,0.26-0.12,0.52-0.06,0.79c-0.01,0.25-0.02,0.5-0.02,0.75C38.95,41.05,38.97,41.48,38.6,41.59z M27.61,39.47l0.02-0.03
		l-0.03,0L27.61,39.47z"/>
	<g>
		<path class="st7" d="M24.23,39.65c-0.06,0.08-0.11,0.15-0.17,0.23c-0.22-0.7-0.25-0.71-0.76-0.21c-1.04,1.01-1.25,0.96-1.74-0.44
			c-0.08-0.23-0.15-0.46-0.23-0.68c-0.26,0.38-0.7,0.59-0.89,1.02c0.14,2.36,0.72,4.51,2.66,6.02c0-0.77-0.01-1.52,0-2.26
			c0.01-0.76-0.01-1.53,0.34-2.27c0.25,0.53,0.15,1.17,0.65,1.56c0.1-0.62-0.12-1.26,0.17-1.86C24.25,40.39,24.24,40.02,24.23,39.65
			z"/>
		<path class="st7" d="M43.03,39.49c-0.22-0.38-0.54-0.68-0.87-0.96c-0.14,0.58-0.35,1.13-0.65,1.64c-0.16,0.27-0.33,0.39-0.62,0.11
			c-0.36-0.35-0.77-0.66-1.18-1.01c-0.19,0.23-0.12,0.58-0.38,0.75c-0.01,0.04-0.04,0.07-0.08,0.08c-0.01,0.25-0.02,0.5-0.02,0.75
			c0.33,0.55,0.17,1.16,0.21,1.74c0.09-0.09,0.18-0.18,0.27-0.26c0,0,0,0,0,0c0.1-0.45,0.2-0.9,0.31-1.34
			c0.55,1.45,0.56,2.92,0.27,4.4c0.02,0.07,0.04,0.15,0.07,0.22c0.07-0.04,0.14-0.07,0.21-0.11c0.29-0.28,0.58-0.56,0.86-0.84
			c0.04-0.04,0.08-0.09,0.12-0.13c0,0-0.01,0-0.01,0c0.03-0.16,0.12-0.28,0.26-0.36c0,0,0,0,0,0c0.27-0.55,0.55-1.11,0.82-1.66
			c0.01-0.06,0.02-0.12,0.03-0.18c0-0.17,0.01-0.35,0.13-0.49c0.03-0.13,0.07-0.25,0.1-0.38C42.92,40.81,43.07,40.16,43.03,39.49z"
			/>
	</g>
	<path class="st4" d="M26.09,42.09c0.67,0.74,1.45,0.8,2.31,0.39c0.62-0.29,1.2-0.23,1.68,0.27c0.54,0.56,0.74,1.24,0.48,1.97
		c-0.24,0.65-0.81,0.87-1.47,0.92C26.78,45.81,25.59,44.3,26.09,42.09z"/>
	<path class="st5" d="M35.18,42.37c0.37,0.42,1.31,0.48,1.84,0.11c0.14-0.1,0.21-0.3,0.43-0.29c0.47,2.47-1.08,3.73-3.33,3.41
		c-0.89-0.13-1.39-0.89-1.26-1.73c0.17-1.02,0.94-1.64,1.96-1.55C34.94,42.33,35.06,42.35,35.18,42.37z"/>
	<path class="st8" d="M34.21,46.99c0.37,0.14,0.17,0.3,0.03,0.49c-0.46,0.66-1.14,0.75-1.87,0.85c-0.73,0.09-1.44-0.07-2.15-0.1
		c-0.42-0.02-0.81-0.52-1.09-0.92c-0.17-0.23,0.12-0.32,0.28-0.43c0.14,0.18,0.33,0.11,0.51,0.11C31.34,47,32.78,46.99,34.21,46.99z
		"/>
	<path class="st9" d="M28.87,41.46c-0.06-0.03-0.27,0.05-0.15-0.12c1-1.48,4.73-1.63,5.8-0.24c0.04,0.05,0.04,0.14,0.07,0.3
		c-0.53-0.25-0.98-0.44-1.48-0.49C31.63,40.63,30.21,40.72,28.87,41.46z"/>
	<path class="st9" d="M34.21,46.99c-1.43,0-2.87,0.01-4.3,0c-0.17,0-0.37,0.06-0.51-0.11C30.89,46.02,33.01,46.07,34.21,46.99z"/>
	<path class="st8" d="M39.22,40.86c0.33,0.55,0.17,1.16,0.21,1.74c-0.04,0.11-0.09,0.23-0.13,0.34c-0.09,0.02-0.24,0.38-0.26-0.04
		c-0.02-0.48-0.2-0.9-0.43-1.3C38.97,41.48,38.95,41.05,39.22,40.86z"/>
	<path class="st8" d="M24.09,42.62c0.1-0.62-0.12-1.26,0.17-1.86c0.25,0.25,0.3,0.65,0.62,0.86c-0.22,0.46-0.45,0.91-0.41,1.46
		C24.18,43.03,24.21,42.77,24.09,42.62z"/>
	<path class="st10" d="M39.7,42.33c0.1-0.45,0.2-0.9,0.31-1.34c0.55,1.45,0.56,2.92,0.27,4.4c-0.16-0.39-0.13-0.81-0.05-1.19
		c0.15-0.73,0.09-1.44-0.09-2.15C39.89,42.02,39.88,42.31,39.7,42.33z"/>
	<path class="st10" d="M42.87,41.47c0.05-0.66,0.2-1.31,0.16-1.98c0.34,0.39,0.53,0.86,0.66,1.35c-0.35-0.07-0.62-0.05-0.57,0.42
		C43.13,41.4,43,41.46,42.87,41.47z"/>
	<path class="st10" d="M41.79,44.17c0.27-0.55,0.55-1.11,0.82-1.66C42.67,43.28,42.36,43.9,41.79,44.17z"/>
	<path class="st10" d="M39.3,42.94c0.04-0.11,0.09-0.23,0.13-0.34c0.09-0.09,0.18-0.18,0.27-0.26C39.7,42.63,39.73,42.93,39.3,42.94
		z"/>
	<path class="st10" d="M42.64,42.33c0-0.17,0.01-0.35,0.13-0.49C42.99,42.08,42.84,42.21,42.64,42.33z"/>
	<path class="st10" d="M41.53,44.53c0.03-0.16,0.12-0.28,0.26-0.36C41.79,44.36,41.77,44.53,41.53,44.53z"/>
	<path class="st11" d="M44.56,42.7c0.08-0.11,0.17-0.22,0.25-0.34C44.86,42.57,44.78,42.69,44.56,42.7z"/>
	<path class="st10" d="M40.34,45.62c0.07-0.04,0.14-0.07,0.21-0.11C40.52,45.61,40.45,45.65,40.34,45.62z"/>
	<path class="st9" d="M28.95,52.83c-0.04-0.06-0.08-0.11-0.12-0.17c0.1-0.05,0.18-0.05,0.22,0.07
		C29.01,52.77,28.98,52.8,28.95,52.83z"/>
	<path class="st10" d="M41.41,44.66c0.04-0.04,0.08-0.09,0.12-0.13C41.49,44.58,41.45,44.62,41.41,44.66z"/>
	<path class="st9" d="M35.38,52.69c-0.03-0.02-0.06-0.04-0.09-0.06c0.02,0.02,0.05,0.04,0.08,0.06
		C35.37,52.69,35.38,52.69,35.38,52.69z"/>
	<path class="st12" d="M26.86,25.98c0,0,0,0.03,0,0.03c-0.12,0.06-0.17,0.14-0.05,0.25c0,0.25,0,0.5,0,0.75
		c-0.18,0.38,0.05,0.61,0.29,0.84c0,0,0-0.01-0.01-0.01c0.02,0.4,0.28,0.69,0.5,0.99c0,0-0.01-0.01-0.01-0.01
		c0.07,0.25,0.15,0.5,0.21,0.76c0.09,0.4,0.32,0.78,0.15,1.22c-0.53-0.49-1.06-0.98-1.6-1.47c0.02-0.51,0.01-1.02-0.11-1.52
		c-0.1-0.44-0.05-0.89,0.1-1.32c0-0.03,0-0.07,0-0.1c0,0,0-0.01,0-0.01c0.15-0.14,0.24-0.3,0.22-0.51c0,0,0,0,0,0
		c0.04-0.05,0.08-0.09,0.12-0.14c0,0,0-0.03,0-0.03C26.73,25.8,26.79,25.89,26.86,25.98z"/>
	<path class="st12" d="M36.9,25.78c0,0,0,0.03,0,0.03c-0.01,0.13,0.06,0.23,0.15,0.3c0.28,0.56,0.39,1.14,0.17,1.75
		c-0.41,0.48-0.16,1.05-0.23,1.58c-0.45,0.45-0.97,0.83-1.36,1.35c-0.19-0.26-0.09-0.52-0.02-0.8c0.15-0.62,0.54-1.16,0.61-1.8
		c0,0,0,0.01,0,0.01c0.14-0.03,0.15-0.13,0.13-0.25c0,0,0,0.01,0,0.01c0.22-0.11,0.31-0.34,0.35-0.54c0.1-0.49,0.11-1,0-1.49
		C36.64,25.67,36.76,25.73,36.9,25.78z"/>
	<path class="st8" d="M34.42,31.04c-0.61,0.55-1.1,1.19-1.38,1.97c-0.09,0.23-0.2,0.3-0.45,0.22c-0.53-0.18-1.08-0.17-1.62-0.02
		c-0.25,0.07-0.39,0.07-0.5-0.22c-0.27-0.75-0.75-1.38-1.33-1.93c0.54-0.02,0.76,0.42,1.06,0.73c1.04,1.07,2.06,1.08,3.09,0
		C33.6,31.46,33.87,31.04,34.42,31.04z"/>
	<path class="st7" d="M26.33,29.33c0.53,0.49,1.06,0.98,1.59,1.47c0.05,0.1,0.14,0.11,0.23,0.12c0.04,0.14,0.08,0.27,0.12,0.41
		c-0.03,0.13-0.03,0.28-0.16,0.36c-0.19-0.02-0.27-0.17-0.35-0.3c-0.7-1.09-1.67-1.89-2.77-2.54C25.51,28.8,25.84,29.3,26.33,29.33z
		"/>
	<path class="st7" d="M35.64,30.79c0.39-0.51,0.91-0.89,1.36-1.35c0.12,0.01,0.23,0.05,0.25,0.19c-0.69,0.65-1.23,1.43-1.85,2.14
		c-0.06-0.14-0.13-0.28-0.19-0.41c0.05-0.14,0.1-0.29,0.15-0.43C35.46,30.91,35.58,30.92,35.64,30.79z"/>
	<path class="st8" d="M28.12,31.68c0.14-0.08,0.13-0.23,0.16-0.36c0.36,0.13,0.37,0.64,0.78,0.7c0.13,0.41,0,0.79-0.21,1.27
		C28.59,32.69,28.2,32.26,28.12,31.68z"/>
	<path class="st8" d="M35.21,31.37c0.06,0.14,0.13,0.28,0.19,0.41c-0.22,0.47-0.44,0.94-0.69,1.46c-0.36-0.4-0.28-0.82-0.27-1.22
		C34.87,32,34.85,31.46,35.21,31.37z"/>
	<path class="st12" d="M35.64,30.79c-0.05,0.13-0.17,0.12-0.28,0.14c0-1,0.32-1.91,0.87-2.74c-0.07,0.64-0.47,1.18-0.61,1.8
		C35.55,30.27,35.44,30.53,35.64,30.79z"/>
	<path class="st12" d="M36.9,25.78c-0.15-0.05-0.26-0.11-0.2,0.16c0.11,0.49,0.1,1,0,1.49c-0.04,0.2-0.12,0.43-0.35,0.54
		c0.09-0.27,0.2-0.53,0.28-0.8c0.22-0.76-0.02-1.39-0.64-1.99C36.46,25.26,36.74,25.44,36.9,25.78z"/>
	<path class="st12" d="M37.25,29.64c-0.03-0.14-0.13-0.18-0.25-0.19c0.07-0.53-0.18-1.1,0.23-1.58c-0.03,0.34-0.06,0.68-0.08,1.02
		c-0.02,0.32,0.07,0.46,0.42,0.27c0.19-0.1,0.37-0.32,0.64-0.19C37.89,29.19,37.57,29.41,37.25,29.64z"/>
	<path class="st12" d="M28.16,30.92c-0.09-0.01-0.19-0.02-0.23-0.12c0.17-0.43-0.06-0.82-0.15-1.22c-0.06-0.26-0.14-0.51-0.21-0.76
		C28,29.46,28.13,30.17,28.16,30.92z"/>
	<path class="st12" d="M26.86,25.98c-0.06-0.09-0.13-0.18-0.19-0.27c0.12-0.24,0.3-0.39,0.71-0.44
		C27.16,25.56,27.01,25.77,26.86,25.98z"/>
	<path class="st12" d="M27.58,28.83c-0.22-0.3-0.48-0.59-0.5-0.99C27.36,28.12,27.53,28.44,27.58,28.83z"/>
	<path class="st12" d="M27.09,27.84c-0.24-0.23-0.48-0.46-0.29-0.84C26.9,27.29,27,27.57,27.09,27.84z"/>
	<path class="st12" d="M26.55,25.88c0.02,0.21-0.07,0.37-0.22,0.51C26.32,26.18,26.37,26,26.55,25.88z"/>
	<path class="st12" d="M37.05,26.12c-0.1-0.08-0.16-0.17-0.15-0.3C37.04,25.87,37.08,25.98,37.05,26.12z"/>
	<path class="st4" d="M22.05,26.04c-0.02,0.05-0.05,0.1-0.07,0.15c-0.01-0.01-0.04-0.03-0.04-0.04c0.02-0.05,0.05-0.09,0.08-0.14
		C22.02,26.01,22.05,26.04,22.05,26.04z"/>
	<path class="st12" d="M26.8,26.26c-0.12-0.11-0.07-0.19,0.05-0.25C26.84,26.09,26.82,26.18,26.8,26.26z"/>
	<path class="st12" d="M36.36,27.96c0.02,0.12,0,0.21-0.13,0.25C36.22,28.1,36.25,28.01,36.36,27.96z"/>
	<polygon class="st5" points="41.48,26.1 41.46,26.06 41.5,26.06 	"/>
	<path class="st4" d="M22.02,26.01c0.03-0.05,0.06-0.11,0.09-0.16c0.03,0.03,0.05,0.05,0.08,0.08c-0.05,0.04-0.09,0.07-0.14,0.11
		C22.05,26.04,22.02,26.01,22.02,26.01z"/>
	<path class="st4" d="M22.3,25.8c-0.04,0.04-0.08,0.08-0.12,0.13c-0.03-0.03-0.05-0.05-0.08-0.08c0.04-0.04,0.08-0.09,0.12-0.13
		C22.25,25.74,22.28,25.77,22.3,25.8z"/>
	<path class="st13" d="M39.03,28.74c0.01,0.01,0.03,0.03,0.04,0.04c-0.02,0.01-0.05,0.03-0.07,0.04c-0.01,0-0.02-0.02-0.04-0.03
		C38.99,28.77,39.01,28.76,39.03,28.74z"/>
	<path class="st4" d="M21.41,27.97c0.03-0.01,0.05-0.03,0.08-0.04c-0.01,0.03-0.02,0.06-0.03,0.08C21.44,28,21.42,27.98,21.41,27.97
		z"/>
	<path class="st12" d="M26.67,25.74c-0.04,0.05-0.08,0.09-0.12,0.14C26.55,25.8,26.58,25.75,26.67,25.74z"/>
	<path class="st12" d="M26.33,26.39c0,0.03,0,0.07,0,0.1c-0.01-0.02-0.03-0.05-0.04-0.07C26.29,26.42,26.32,26.4,26.33,26.39z"/>
	<path class="st3" d="M21.2,33.43c0.1-0.09,0.21-0.24,0.32-0.02c0.35,0.68,0.94,1.18,1.37,1.8c-0.47,0.45-0.75,0.99-0.84,1.64
		c-0.08,0.59-0.22,1.16-0.74,1.54c0-0.02,0-0.04,0-0.06c-0.07-0.33,0.14-0.82-0.17-0.95c-0.32-0.13-0.64,0.27-0.93,0.49
		c-0.39,0.3-0.71,0.68-0.95,1.11c-0.22,0.4-0.36,0.27-0.54-0.01c-0.28-0.44-0.45-0.91-0.47-1.47c0.3,0.06,0.55,0.24,0.81-0.11
		c0.85-1.16,1.55-2.4,2.12-3.71C21.21,33.6,21.19,33.51,21.2,33.43z"/>
	<path class="st12" d="M21.31,38.39c0.51-0.39,0.66-0.95,0.74-1.54c0.08-0.65,0.37-1.19,0.84-1.64c0.76,0.45,1.48,0.98,2.37,1.15
		c0.11,0.02,0.07,0.12,0.08,0.2c-0.67,0.29-1.36,0.37-2.07,0.21c-0.17-0.04-0.08,0.07-0.08,0.13c0.24,0.56,0.77,0.75,1.24,1.03
		c-0.25,0.55-0.28,1.13-0.19,1.72c-0.06,0.08-0.11,0.15-0.17,0.23c-0.22-0.7-0.25-0.71-0.76-0.21c-1.04,1.01-1.25,0.96-1.74-0.44
		c-0.08-0.23-0.15-0.46-0.23-0.68C21.32,38.49,21.32,38.44,21.31,38.39z"/>
	<path class="st3" d="M22.36,25.23c0.04-0.04,0.09-0.07,0.13-0.01c0.01,0.01-0.03,0.05-0.05,0.08
		C22.41,25.29,22.38,25.26,22.36,25.23z"/>
	<path class="st3" d="M40.66,35.12c0.5-0.54,0.99-1.1,1.37-1.74c0.08,0,0.16,0.01,0.24,0.01l0,0c0.53,1.47,1.27,2.82,2.26,4.03
		c0.05,0.06,0.12,0.16,0.18,0.16c1.08,0.03,0.31,0.63,0.3,0.99c0,0.13-0.12,0.26-0.19,0.38c-0.19,0.33-0.36,0.4-0.6,0.01
		c-0.36-0.6-0.84-1.1-1.45-1.47c-0.29-0.17-0.53-0.28-0.51,0.24c0.01,0.22-0.07,0.44-0.1,0.66c-0.39-0.34-0.61-0.8-0.65-1.28
		C41.44,36.34,41.07,35.72,40.66,35.12z"/>
	<path class="st12" d="M40.66,35.12c0.41,0.61,0.78,1.22,0.85,2c0.04,0.48,0.26,0.94,0.65,1.28c0,0.05,0,0.09,0,0.14
		c-0.14,0.58-0.35,1.13-0.65,1.64c-0.16,0.27-0.33,0.39-0.62,0.11c-0.36-0.35-0.77-0.66-1.18-1.01c-0.19,0.23-0.12,0.58-0.38,0.75
		c-0.01-0.24-0.02-0.48-0.02-0.71c0.08-0.49,0-0.95-0.23-1.39c0.41-0.33,0.95-0.51,1.23-1c-0.17-0.25-0.41-0.07-0.61-0.07
		c-0.55-0.01-1.08-0.02-1.62-0.46C39.11,36.19,39.91,35.71,40.66,35.12z"/>
	<path class="st14" d="M42.38,33.39c0.22-0.17,0.27-0.44,0.4-0.65c0.34,0.54,0.43,1.16,0.66,1.87
		C43.03,34.13,42.7,33.76,42.38,33.39z"/>
	<path class="st3" d="M40.92,25.17c-0.05-0.03-0.18,0.01-0.14-0.08c0.03-0.07,0.13-0.02,0.17,0.04
		C40.95,25.13,40.92,25.17,40.92,25.17z"/>
	<path class="st3" d="M44.14,28.94c0.01,0.03,0.02,0.06,0.03,0.09c-0.03-0.01-0.06-0.02-0.1-0.03
		C44.1,28.98,44.12,28.96,44.14,28.94z"/>
	<path class="st8" d="M24.42,37.93c-0.46-0.28-1-0.48-1.24-1.03c0.25,0.08,0.44,0.33,0.74,0.3c0.04,0.09,0.11,0.11,0.2,0.11
		c0.07,0.03,0.14,0.05,0.22,0.08c0.29,0.1,0.59,0.11,0.89,0.08c0.12-0.01,0.24-0.02,0.36-0.03c0.57-0.01,1.01-0.35,1.55-0.61
		c0,0.54,0,1.03,0,1.68c0.86-0.73,1.74-1.18,2.72-1.42c0.26-0.25,0.43,0.08,0.64,0.11l-0.01-0.01c-0.98,0.61-1.99,1.19-2.77,2.2
		c-0.02-0.25-0.04-0.37-0.05-0.48c0.01-0.01,0.03-0.03,0.04-0.04c-0.01,0.02-0.02,0.03-0.03,0.05c-0.39,0.26-0.78,0.49-0.9-0.25
		c-0.03-0.16-0.14-0.24-0.31-0.24C25.76,38.39,25.1,38.12,24.42,37.93z"/>
	<path class="st5" d="M40.3,36.92c-0.28,0.49-0.82,0.67-1.23,1c-0.66,0.21-1.31,0.47-2.01,0.48c-0.33,0-0.32,0.27-0.4,0.46
		c-0.14,0.3-0.24,0.51-0.59,0.17c-0.28-0.28-0.26,0-0.24,0.19c-0.03,0.02-0.05,0.05-0.08,0.08c-0.75-0.89-1.71-1.5-2.69-2.09
		l0.03-0.03c0.14-0.17,0.32-0.14,0.5-0.1c1,0.22,1.89,0.66,2.71,1.38c0.17-0.56,0.03-1.07,0.08-1.65
		C37.69,37.68,38.99,37.68,40.3,36.92z"/>
	<path class="st8" d="M39.3,39.31c0.01,0.24,0.02,0.48,0.02,0.71c-0.01,0.04-0.04,0.07-0.08,0.08C39.18,39.83,39.2,39.57,39.3,39.31
		z"/>
	<path class="st5" d="M35.82,39.22c0.04,0.05,0.07,0.1,0.01,0.14c-0.01,0.01-0.05-0.04-0.08-0.07
		C35.77,39.27,35.8,39.25,35.82,39.22z"/>
	<polygon class="st8" points="27.61,39.47 27.6,39.44 27.63,39.44 	"/>
	<path class="st2" d="M37.04,40.19c0-0.05-0.03-0.14-0.01-0.15c0.07-0.05,0.09,0.02,0.11,0.07C37.11,40.13,37.07,40.16,37.04,40.19z
		"/>
	<path class="st8" d="M30.5,37.19c0.01-0.02,0.02-0.03,0.03-0.05C30.52,37.15,30.51,37.16,30.5,37.19
		C30.49,37.18,30.5,37.19,30.5,37.19z"/>
	<path class="st5" d="M33.05,37.2c-0.02-0.02-0.07-0.06-0.07-0.06c0.07-0.08,0.07-0.01,0.1,0.04C33.08,37.17,33.05,37.2,33.05,37.2z
		"/>
	<path class="st5" d="M46.07,31.55c0.02,0,0.05,0,0.07,0c-0.01,0.01-0.02,0.02-0.03,0.02c-0.01-0.01-0.02-0.02-0.04-0.04
		C46.08,31.54,46.07,31.55,46.07,31.55z"/>
	<path class="st1" d="M25.59,32.78c1.23,0.61,2.18,1.53,3.1,2.74c-0.84-0.26-1.57-0.36-2.21-0.71
		C26.1,34.16,25.53,33.61,25.59,32.78z"/>
	<path class="st1" d="M37.1,34.79c-0.68,0.33-1.41,0.48-2.27,0.71c0.87-1.13,1.77-2.01,2.9-2.63c0.31,0.22,0.09,0.46,0.04,0.7
		C37.65,34.04,37.21,34.33,37.1,34.79z"/>
	<path class="st1" d="M25.59,32.78c-0.06,0.83,0.51,1.38,0.88,2.02c-1.41-0.23-1.6-0.61-1.71-2.09c-0.02-0.31,0.12-0.35,0.36-0.21
		C25.28,32.6,25.44,32.69,25.59,32.78z"/>
	<path class="st1" d="M37.1,34.79c0.11-0.46,0.55-0.75,0.66-1.21c0.06-0.24,0.27-0.48-0.04-0.7c0.26-0.24,0.59-0.32,0.89-0.47
		C38.94,33.8,38.48,34.51,37.1,34.79z"/>
	<path class="st5" d="M42.26,33.39c-0.08,0-0.16-0.01-0.24-0.01C42.11,33.19,42.19,33.21,42.26,33.39z"/>
	<path class="st6" d="M27.68,38.9c0.01-0.02,0.02-0.03,0.03-0.05C27.7,38.87,27.68,38.88,27.68,38.9
		C27.67,38.9,27.68,38.9,27.68,38.9z"/>
	<g>
		<path class="st15" d="M45.73,46.01c-0.07-0.42-0.17-0.09-0.23,0c-1.01,1.57-2.19,2.99-3.63,4.19c-0.93,0.76-1.92,1.43-3.11,1.9
			c0.08-0.53,0.43-0.91,0.46-1.53c-1.36,1.65-2.87,2.87-4.77,3.63c0.31-0.5,0.61-1.01,0.91-1.51c-0.03-0.02-0.05-0.04-0.08-0.06
			c0.03,0.02,0.06,0.04,0.09,0.06c-0.19-0.15-0.3,0.03-0.41,0.12c-0.6,0.49-1.28,0.85-1.94,1.25c-0.65,0.39-1.21,0.38-1.87,0.01
			c-0.73-0.41-1.41-0.88-2.11-1.33c-0.04-0.12-0.12-0.12-0.22-0.07c0.04,0.06,0.08,0.11,0.12,0.17c0.21,0.41,0.42,0.82,0.62,1.22
			c-0.04,0.04-0.08,0.08-0.11,0.12c-1.71-0.76-3.09-1.98-4.36-3.35c-0.04,0.04-0.08,0.07-0.13,0.11c0.14,0.34,0.28,0.68,0.48,1.16
			c-1.61-0.6-2.83-1.56-3.98-2.63c-1.15-1.07-2.06-2.33-3-3.59c-0.02,0.51,0.35,0.93,0.23,1.51c-2.91-3.34-4.75-7.1-5.24-11.47
			c-0.12-0.1-0.15,0.01-0.21,0.05c-0.05,0.03-0.09,0.06-0.15,0.11c-0.05-0.35-0.05-0.67,0.03-0.99c0.35-1.43,1.26-2.54,2.11-3.68
			c0.6-0.8,1.24-1.56,1.7-2.46c0.34-0.66,0.38-1.28-0.04-1.95c-0.83-1.32-0.95-2.82-1.13-4.45c-0.16,0.25-0.32,0.5-0.48,0.75
			c0.08-2.54,1.93-5.22,6.34-5.68c0.04-0.23-0.3-0.19-0.3-0.43c1.87-0.15,3.54,0.31,4.99,1.52c0.38,0.31,0.76,0.63,1.09,0.99
			c1.18,1.29,2.6,2.08,4.35,2.24c-0.02,0.06-0.07,0.15-0.05,0.17c0.28,0.33,1.37,0.12,1.59-0.3c1.48-0.31,2.59-1.2,3.62-2.25
			c0.97-0.98,2.05-1.8,3.42-2.16c0.82-0.22,1.65-0.25,2.49-0.22c0.05,0.25-0.29,0.21-0.27,0.45c3.39,0.39,5.83,1.93,6.54,5.72
			c-0.33-0.31-0.55-0.51-0.83-0.78c-0.02,1.85-0.29,3.54-1.32,5.03c-0.07-0.01-0.15-0.06-0.15,0.07c0,0,0.09,0.01,0.14,0.01
			c0,0.12,0,0.24,0,0.36c-0.51,0.37-0.08,0.74,0.07,1.03c0.69,1.26,1.57,2.4,2.43,3.55c0.33,0.44,0.64,0.88,0.89,1.37
			c0.27,0.54,0.18,0.96-0.29,1.32c-0.21,0.17-0.34,0.36-0.42,0.64c-0.28,1.08-0.43,2.15,0.12,3.2c0.05,0.1,0,0.2-0.09,0.27
			c-0.54-0.25-1.1-0.62-1.7-0.4c-0.53,0.19-1.09,0.3-1.61,0.53c-0.02-0.26,0.1-0.36,0.36-0.38c0.35-0.03,0.67-0.18,0.97-0.35
			c0.15-0.08,0.31-0.21,0.23-0.38c-0.37-0.77,0.33-1.62-0.18-2.39c-0.03-0.04,0.03-0.15,0.07-0.22c0.28-0.45,0.15-0.82-0.23-1.13
			c-0.84-0.69-1.17-1.59-1.11-2.65c0.01-0.24-0.01-0.49,0-0.74c0.01-0.27-0.12-0.37-0.37-0.36c-0.12-0.17-0.14-0.36-0.14-0.55
			c0.16-0.54-0.06-1.15-0.49-1.39l0,0c0.14-0.42,0.17-0.78-0.4-0.86c-0.04-0.08-0.08-0.16-0.12-0.24c0.06-0.04,0.15-0.07,0.11-0.17
			c-0.05-0.11-0.15-0.08-0.24-0.08c-0.07-0.13-0.14-0.25-0.21-0.38c0.26-0.36-0.04-0.34-0.25-0.38c-0.09-0.2-0.34-0.31-0.35-0.56
			c0.02-0.03,0.04-0.05,0.06-0.08c-0.02,0.02-0.05,0.04-0.07,0.06c-0.23,0-0.28-0.22-0.39-0.34c-0.9-0.95-1.95-1.66-3.23-1.95
			c-1.23-0.28-2.47-0.36-3.69,0.09c-0.17-0.07-0.39,0.17-0.49-0.02c-0.09-0.17,0.1-0.33,0.23-0.46c0.53-0.55,1.2-0.9,1.86-1.26
			c0.27-0.15,0.6-0.18,0.89-0.49c-2.11,0.17-4.1,0.42-5.89,1.47c-0.93,0.54-1.93,0.58-2.86,0.04c-1.08-0.62-2.23-0.97-3.43-1.21
			c-0.42-0.08-0.84-0.13-1.27-0.18c-0.4-0.04-0.8-0.07-1.2-0.1c1.1,0.65,2.3,1.08,3.04,2.29c-0.3-0.03-0.49-0.06-0.69-0.08
			C26.8,24.06,26.78,24,26.75,24c-1.84-0.37-3.64-0.31-5.26,0.72c-2.47,1.57-3.54,4.02-4.1,6.75c0,0.02,0.04,0.04,0.07,0.06
			c0.48-0.49,0.88-1.08,1.73-1.26c-0.78,1.74-0.75,3.48-0.74,5.22c-0.42-0.79-0.67-1.61-0.78-2.51c-1.14,1.02-1.91,3.62-1.56,5.28
			c0.39-0.45,0.66-1,1.31-1.21c-0.15,2.32,0.38,4.38,2.05,6.15c0.08-1.36,0.21-2.59,0.97-3.65c0.14,2.36,0.72,4.51,2.66,6.02
			c0-0.77-0.01-1.52,0-2.26c0.01-0.76-0.01-1.53,0.34-2.27c0.25,0.53,0.15,1.17,0.65,1.56c0.12,0.14,0.09,0.41,0.37,0.45
			c-0.03-0.54,0.19-1,0.41-1.46c0.43-0.58,0.89-1.12,1.59-1.59c-0.1,0.78-0.45,1.39-0.37,2.07c-0.5,2.21,0.69,3.72,3,3.55
			c0.65-0.05,1.23-0.27,1.47-0.92c0.27-0.73,0.06-1.41-0.48-1.97c-0.48-0.5-1.06-0.55-1.68-0.27c-0.12-0.08-0.23-0.16-0.35-0.23
			c0.36-0.02,0.23-0.14,0.06-0.29c-0.15-0.13-0.24-0.28-0.11-0.47c0.08-0.12,0.18-0.24,0.33-0.23c0.25,0.01,0.17,0.23,0.21,0.37
			c0.05,0.21,0.18,0.21,0.3,0.09c0.04-0.04,0.47-0.12,0.03-0.25c1.34-0.75,2.77-0.83,4.24-0.55c0.01,0.08,0,0.19,0.04,0.22
			c0.55,0.44,1.34,0.43,1.91,0c0.08-0.06,0.17-0.11,0.25-0.16c0.03,0.04,0.07,0.07,0.1,0.11c0.22,0.37,0.29,0.7-0.11,1.02
			c-0.12,0.1,0.09,0.1,0.15,0.14c-0.06,0.12-0.18,0.12-0.29,0.14c-0.12-0.02-0.24-0.04-0.36-0.05c-1.02-0.09-1.8,0.52-1.96,1.55
			c-0.14,0.84,0.37,1.61,1.26,1.73c2.24,0.32,3.8-0.94,3.33-3.41c0.05-0.71-0.25-1.34-0.4-2c0.04-0.03,0.07-0.05,0.11-0.08
			c0.62,0.36,1.04,0.92,1.46,1.49c0.24,0.4,0.42,0.82,0.43,1.3c0.01,0.43,0.17,0.07,0.26,0.04c0.43,0,0.41-0.31,0.4-0.6l0,0
			c0.18-0.03,0.2-0.31,0.44-0.28c0.19,0.72,0.24,1.42,0.09,2.15c-0.08,0.38-0.11,0.8,0.05,1.19c0.02,0.07,0.04,0.15,0.07,0.22
			c0.11,0.04,0.18,0,0.21-0.11c0.29-0.28,0.58-0.56,0.86-0.84c0.04-0.04,0.08-0.09,0.12-0.13l-0.01,0c0.25,0,0.26-0.18,0.26-0.36
			l0,0c0.57-0.28,0.88-0.9,0.82-1.66c0.01-0.06,0.02-0.12,0.03-0.18c0.2-0.12,0.35-0.26,0.13-0.49c0.03-0.13,0.07-0.25,0.1-0.38
			c0.13-0.01,0.26-0.06,0.25-0.2c-0.05-0.48,0.22-0.5,0.57-0.42c0.27,0.74,0.33,1.51,0.35,2.36c0.22-0.21,0.38-0.35,0.53-0.5
			c0.22-0.01,0.29-0.13,0.25-0.34c0.04-0.06,0.07-0.11,0.11-0.17c0.48,0.02,0.48-0.6,0.86-0.67c0.53-0.09,0.54-0.45,0.54-0.86
			c-0.01-0.3,0-0.61,0-0.91c0.29,0.05,0.24,0.28,0.24,0.48c0,0.49,0,0.98,0,1.46c0,0.43,0.21,0.65,0.64,0.63
			c0.44-0.02,0.89-0.08,1.33-0.12c-0.06,0.26-0.52,0.23-0.44,0.59c0.07,0.31-0.13,0.53-0.23,0.79c-0.19,0.5-0.72,0.86-0.64,1.48
			c0,0,0,0,0,0c-0.6,0-0.58,0.45-0.62,0.85C46.31,45.97,46.01,45.85,45.73,46.01z M29.4,46.88c-0.16,0.11-0.44,0.2-0.28,0.43
			c0.29,0.39,0.68,0.9,1.09,0.92c0.71,0.03,1.42,0.19,2.15,0.1c0.73-0.09,1.41-0.19,1.87-0.85c0.14-0.19,0.34-0.35-0.03-0.49
			C33.01,46.07,30.89,46.02,29.4,46.88z"/>
		<path class="st15" d="M47.22,45.07c-0.08-0.62,0.45-0.97,0.64-1.48c0.1-0.26,0.3-0.48,0.23-0.79c-0.08-0.37,0.38-0.33,0.44-0.59
			c0.5-0.89,0.81-1.85,1.1-2.82c0.09-0.07,0.14-0.16,0.09-0.27c-0.55-1.05-0.4-2.12-0.12-3.2c0.07-0.28,0.2-0.48,0.42-0.64
			c0.47-0.36,0.56-0.78,0.29-1.32c-0.25-0.49-0.56-0.93-0.89-1.37c-0.86-1.15-1.74-2.29-2.43-3.55c-0.16-0.28-0.58-0.65-0.07-1.03
			c0.05,0.15,0.1,0.3,0.15,0.46c0.31,1.07,1.07,1.86,1.71,2.72c0.66,0.89,1.35,1.74,1.84,2.73c0.32,0.65,0.53,1.32,0.48,2.12
			c-0.37-0.28-0.43-0.15-0.47,0.24C50.25,39.5,49.09,42.43,47.22,45.07z"/>
		<path class="st15" d="M45.73,46.01c0.28-0.17,0.59-0.04,0.88-0.09c-0.14,0.22-0.28,0.44-0.43,0.66c-0.23,0.23-0.45,0.47-0.68,0.7
			c-0.03-0.03-0.07-0.06-0.1-0.1c0.07-0.24,0.14-0.47,0.21-0.71c0.07-0.01,0.14-0.01,0.21-0.02c-0.06-0.03-0.12-0.05-0.19-0.08
			C45.67,46.26,45.7,46.13,45.73,46.01z"/>
		<path class="st15" d="M33.29,21.79c-0.21,0.42-1.3,0.63-1.59,0.3c-0.02-0.03,0.03-0.11,0.05-0.17c0.23,0,0.46,0,0.68,0
			c0.13,0.21,0.22,0.17,0.27-0.05C32.9,21.84,33.1,21.81,33.29,21.79z"/>
		<path class="st15" d="M45.64,46.38c0.06,0.03,0.12,0.05,0.19,0.08c-0.07,0.01-0.14,0.01-0.21,0.02
			C45.59,46.43,45.6,46.4,45.64,46.38z"/>
		<path class="st15" d="M46.93,27.65c-0.05,0-0.14-0.01-0.14-0.01c0-0.13,0.08-0.08,0.15-0.07C46.93,27.6,46.92,27.63,46.93,27.65z"
			/>
		<path class="st15" d="M45.5,47.28c-0.03,0.05-0.08,0.1-0.13,0.05c-0.02-0.02,0.02-0.1,0.03-0.15
			C45.43,47.21,45.47,47.25,45.5,47.28z"/>
		<path class="st15" d="M46.6,45.92c0.04-0.4,0.02-0.86,0.62-0.85C47.02,45.36,46.81,45.64,46.6,45.92z"/>
		<path class="st15" d="M46.07,31.55c0.13-0.21-0.06-0.42,0-0.63c0.25-0.01,0.38,0.09,0.37,0.36c-0.01,0.25,0.01,0.49,0,0.74
			c-0.06,1.06,0.27,1.96,1.11,2.65c0.38,0.31,0.51,0.68,0.23,1.13c-0.04,0.07-0.1,0.18-0.07,0.22c0.51,0.76-0.2,1.61,0.18,2.39
			c0.08,0.17-0.08,0.3-0.23,0.38c-0.31,0.17-0.62,0.32-0.97,0.35c-0.26,0.02-0.37,0.12-0.36,0.38c0,0.08,0,0.16,0,0.24
			c0,0.3-0.01,0.61,0,0.91c0.01,0.4-0.01,0.76-0.54,0.86c-0.39,0.07-0.38,0.69-0.86,0.67c0.94-1.57,1.35-3.26,1.13-5.14
			c0.69,0.21,0.98,0.76,1.43,1.34c0.13-2.08-0.33-3.84-1.61-5.47c-0.19,0.91-0.31,1.72-0.81,2.42c0.11-1.72-0.04-3.39-0.74-5.06
			c0.83,0.14,1.22,0.8,1.74,1.25c0.01,0.01,0.02,0.03,0.04,0.04c0,0,0.02-0.01,0.03-0.02C46.12,31.55,46.09,31.55,46.07,31.55z"/>
		<path class="st15" d="M46.32,39.76c0-0.08,0-0.16,0-0.24c0.52-0.23,1.08-0.33,1.61-0.53c0.6-0.22,1.16,0.16,1.7,0.4
			c-0.29,0.97-0.6,1.93-1.1,2.82c-0.44,0.04-0.88,0.09-1.33,0.12c-0.43,0.02-0.64-0.2-0.64-0.63c0-0.49,0-0.98,0-1.46
			C46.57,40.04,46.62,39.81,46.32,39.76z"/>
		<path class="st15" d="M28.05,42.25c-0.59-0.36-0.49-0.91-0.41-1.64c0.25,0.55,0.42,0.44,0.7,0.19c2.01-1.84,5.28-1.75,6.98,0.17
			c-0.08,0.05-0.17,0.1-0.25,0.16c-0.57,0.43-1.36,0.44-1.91,0c-0.04-0.04-0.03-0.15-0.04-0.22c0.5,0.05,0.95,0.25,1.48,0.49
			c-0.04-0.16-0.03-0.25-0.07-0.3c-1.07-1.39-4.8-1.24-5.8,0.24c-0.11,0.17,0.09,0.09,0.15,0.12c0.44,0.13,0.01,0.21-0.03,0.25
			c-0.12,0.12-0.25,0.12-0.3-0.09c-0.04-0.14,0.04-0.35-0.21-0.37c-0.16-0.01-0.26,0.11-0.33,0.23c-0.13,0.19-0.04,0.35,0.11,0.47
			C28.28,42.1,28.41,42.22,28.05,42.25z"/>
		<path class="st15" d="M35.42,41.08c0.27,0.08,0.23-0.27,0.48-0.33c0.03,0.56,0.17,1.12-0.43,1.48c-0.07-0.03-0.27-0.04-0.15-0.14
			C35.7,41.78,35.64,41.44,35.42,41.08z"/>
		<path class="st15" d="M45.93,30.37c-0.16-0.46-0.33-0.93-0.49-1.39C45.87,29.22,46.09,29.83,45.93,30.37z"/>
		<path class="st15" d="M45.44,28.98c-0.13-0.29-0.27-0.57-0.4-0.86C45.61,28.2,45.58,28.57,45.44,28.98z"/>
		<path class="st15" d="M44.57,27.26c-0.08-0.13-0.17-0.25-0.25-0.38C44.52,26.92,44.83,26.91,44.57,27.26z"/>
		<path class="st15" d="M44.91,27.88c-0.05-0.08-0.09-0.16-0.14-0.25c0.09,0,0.2-0.03,0.24,0.08
			C45.06,27.81,44.97,27.84,44.91,27.88z"/>
		<path class="st15" d="M43.95,26.31c0.02-0.02,0.05-0.04,0.07-0.06c-0.02,0.03-0.04,0.05-0.06,0.08
			C43.96,26.32,43.95,26.31,43.95,26.31z"/>
		<path class="st15" d="M33.59,37.08c0.36,0,0.71,0,1.1,0c-0.75-1.43-4.83-1.57-5.92,0c0.4,0,0.75,0,1.09,0
			c-0.97,0.24-1.85,0.69-2.72,1.42c0-0.65,0-1.14,0-1.68c-0.54,0.26-0.99,0.6-1.55,0.61c-0.02-0.1-0.04-0.21-0.16-0.21
			c-0.17-0.01-0.18,0.12-0.2,0.24c-0.3,0.03-0.6,0.03-0.89-0.08c-0.04-0.31,0.04-0.48,0.41-0.45c0.26,0.02,0.54-0.02,0.59-0.37
			c0-0.08,0.03-0.18-0.08-0.2c-0.89-0.17-1.61-0.7-2.37-1.15c-0.44-0.62-1.02-1.11-1.37-1.8c-0.11-0.21-0.22-0.07-0.32,0.02
			c-0.49,0.14-0.58,0.74-1.07,0.95c0.33-1.17,0.75-2.22,1.39-3.2c0.4-0.62,0.94-0.86,1.64-0.89c0.49-0.02,0.98-0.03,1.47-0.04
			c0.36,0.06,0.69,0.23,1.13,0.17c-0.34-0.65-0.8-1.17-1.4-1.66c0.25-0.08,0.44-0.02,0.63,0.07c1.1,0.65,2.07,1.45,2.77,2.54
			c0.09,0.13,0.17,0.28,0.35,0.3c0.09,0.58,0.47,1.01,0.73,1.61c0.21-0.48,0.34-0.85,0.21-1.27c-0.04-0.28-0.08-0.55-0.13-0.83
			c-0.04-0.22,0.1-0.16,0.21-0.14c0.58,0.55,1.06,1.18,1.33,1.93c0.11,0.3,0.24,0.29,0.5,0.22c0.54-0.15,1.09-0.16,1.62,0.02
			c0.25,0.09,0.37,0.02,0.45-0.22c0.28-0.78,0.77-1.42,1.38-1.97c0.3,0.03,0.16,0.26,0.11,0.35c-0.1,0.21-0.11,0.41-0.09,0.63
			c-0.02,0.41-0.09,0.83,0.27,1.22c0.25-0.52,0.47-0.99,0.69-1.46c0.62-0.71,1.17-1.49,1.85-2.14c0.32-0.22,0.64-0.44,0.96-0.67
			c0.09-0.04,0.18-0.09,0.28-0.12c0.14-0.04,0.31-0.2,0.42-0.01c0.09,0.16-0.11,0.23-0.2,0.32c-0.36,0.38-0.71,0.76-0.95,1.26
			c0.44,0.08,0.81-0.12,1.19-0.16c0.49,0.02,0.97,0.03,1.46,0.05c0.67,0.03,1.21,0.26,1.57,0.87c0.29,0.51,0.66,0.98,0.81,1.56
			c-0.13,0.22-0.19,0.49-0.4,0.65l-0.06,0l-0.06,0.01l0,0c-0.07-0.18-0.15-0.2-0.24-0.01c-0.38,0.64-0.87,1.2-1.37,1.74
			c-0.75,0.59-1.55,1.07-2.59,1.28c0.54,0.44,1.08,0.45,1.62,0.46c0.2,0,0.44-0.18,0.61,0.07c-1.31,0.75-2.61,0.75-3.92-0.13
			c-0.05,0.59,0.09,1.09-0.08,1.65C35.48,37.74,34.59,37.29,33.59,37.08z M37.1,34.79c1.38-0.28,1.84-0.99,1.52-2.39
			c-0.31,0.15-0.64,0.23-0.89,0.47c-1.13,0.62-2.03,1.5-2.9,2.63C35.69,35.27,36.42,35.12,37.1,34.79z M25.59,32.78
			c-0.15-0.09-0.31-0.18-0.46-0.27c-0.24-0.15-0.39-0.1-0.36,0.21c0.11,1.48,0.3,1.86,1.71,2.09c0.65,0.35,1.37,0.46,2.21,0.71
			C27.77,34.31,26.82,33.38,25.59,32.78z"/>
		<path class="st15" d="M23.92,37.19c-0.3,0.04-0.49-0.21-0.74-0.3c0-0.06-0.09-0.17,0.08-0.13c0.71,0.16,1.4,0.08,2.07-0.21
			c-0.05,0.35-0.33,0.39-0.59,0.37c-0.37-0.03-0.45,0.14-0.41,0.45c-0.07-0.03-0.14-0.05-0.22-0.08
			C24.05,37.26,23.99,37.23,23.92,37.19z"/>
		<path class="st15" d="M25.59,37.42c-0.12,0.01-0.24,0.02-0.36,0.03c0.01-0.12,0.03-0.25,0.2-0.24
			C25.55,37.22,25.57,37.33,25.59,37.42z"/>
		<path class="st15" d="M23.92,37.19c0.07,0.04,0.13,0.07,0.2,0.11C24.03,37.3,23.96,37.28,23.92,37.19z"/>
	</g>
</g>
<path class="st16" d="M8.04,20.88c0,0,3.11,2.35,6.84,3.18c1.17-0.07,2.42-0.55,3.59-1.66c2.49-2.69,1.59-10.02,1.59-10.02
	s3.18,6.29,8.08,6.84c3.66,0.21,5.6-4.84,6.63-7.05c-0.55,4.01-1.8,12.23-1.8,12.23s-6.15,5.39-16.03,5.32
	C10.66,23.3,8.04,20.88,8.04,20.88z"/>
<path class="st16" d="M8.17,22.12c0.65,0,1.17-0.53,1.17-1.17c0-0.65-0.53-1.17-1.17-1.17C7.53,19.77,7,20.3,7,20.95
	C7,21.6,7.53,22.12,8.17,22.12z"/>
<path class="st16" d="M13.49,18.6c0.65,0,1.17-0.53,1.17-1.17s-0.53-1.17-1.17-1.17c-0.65,0-1.17,0.53-1.17,1.17
	S12.85,18.6,13.49,18.6z"/>
<path class="st16" d="M20.27,14.04c0.65,0,1.17-0.53,1.17-1.17c0-0.65-0.53-1.17-1.17-1.17c-0.65,0-1.17,0.53-1.17,1.17
	C19.09,13.51,19.62,14.04,20.27,14.04z"/>
<path class="st16" d="M28.35,13.63c0.65,0,1.17-0.53,1.17-1.17s-0.53-1.17-1.17-1.17s-1.17,0.53-1.17,1.17S27.7,13.63,28.35,13.63z"
	/>
<path class="st16" d="M34.5,13.35c0.65,0,1.17-0.53,1.17-1.17c0-0.65-0.53-1.17-1.17-1.17s-1.17,0.53-1.17,1.17
	C33.32,12.82,33.85,13.35,34.5,13.35z"/>
</svg>
