<?xml version="1.0" encoding="utf-8"?>
<!-- Generator: Adobe Illustrator 27.9.0, SVG Export Plug-In . SVG Version: 6.00 Build 0)  -->
<svg version="1.1" id="Capa_1" xmlns="http://www.w3.org/2000/svg" xmlns:xlink="http://www.w3.org/1999/xlink" x="0px" y="0px"
	 viewBox="0 0 468 52" style="enable-background:new 0 0 468 52;" xml:space="preserve">
<style type="text/css">
	.st0{fill:#666AED;}
	.st1{fill:#05051A;}
	.st2{fill-rule:evenodd;clip-rule:evenodd;fill:#8589FF;}
	.st3{fill:#8589FF;}
	.st4{fill:#9900FF;}
	.st5{fill:#FFFF00;}
	.st6{fill:#AEFB07;}
	.st7{fill:#030303;}
	.st8{fill:#F1EFF0;}
	.st9{fill:#9D9C9C;}
	.st10{fill:#9D9B9F;}
	.st11{fill:#EFECEF;}
	.st12{fill:#3333FF;}
	.st13{fill:#9B999C;}
	.st14{fill:#EBEAEB;}
	.st15{fill:#1F050E;}
	.st16{fill:#050407;}
	.st17{fill:#060406;}
	.st18{fill:#141215;}
</style>
<path class="st0" d="M464,2L0,8v44h464l4-4L464,2z"/>
<path class="st1" d="M93.6,0H468v48H93.6V0z"/>
<path class="st2" d="M466.8,1H93.6v46h373.2L466.8,1L466.8,1z M92.3,0v48H468V0H92.3z"/>
<path class="st1" d="M2,2h91.7v45L92,50H2V2z"/>
<path class="st2" d="M93.5,3H2.6v46H92l1.4-2.4V3H93.5z M94.1,47l-1.8,3H2V2h92.1V47z"/>
<path class="st3" d="M0,4.1L2,2v48l-2,2V4.1z"/>
<path class="st3" d="M92.3,2.1l2-2.1l0.5,48l-2.5,2V2.1z"/>
<path class="st3" d="M92.3,2.1l2-2.1l0.5,48l-2.5,2V2.1z"/>
<g>
	<path class="st4" d="M168.4,7.7V4.9h3.5h3.5v2.8v2.8h7h7v2.8v2.8h-7h-7v2.8v2.8h7h7v2.8v2.8h3.5h3.5v2.8v2.8H193h-3.5v2.8v2.8h-7
		h-7v2.8V44H172h-3.5v-2.8v-2.8H158h-10.5v-2.8v-2.8H158h10.5V30v-2.8h-7h-7v-2.8v-2.8H151h-3.5v-2.8V16h3.5h3.5v-2.8v-2.8h7h7V7.7
		H168.4z M168.4,18.9v-2.8h-3.5h-3.5v2.8v2.8h3.5h3.5V18.9z M182.5,30.1v-2.8H179h-3.5v2.8v2.8h3.5h3.5V30.1z"/>
	<path class="st4" d="M210.6,7.7V4.9h17.6h17.6v2.8v2.8h3.5h3.5v11.2v11.2h-3.5h-3.5v2.8v2.8h3.5h3.5v2.8V44h-3.5h-3.5v-2.8v-2.8
		h-3.5h-3.5v2.8V44h-14.1h-14.1v-2.8v-2.8h-3.5h-3.5v-14v-14h3.5h3.5V7.7z M238.7,18.9v-8.4h-10.5h-10.5v14v14h7h7v-2.8v-2.8h-3.5
		h-3.5v-2.8v-2.8h7h7V18.9z"/>
	<path class="st4" d="M261.8,5.5h30.9v2.2h2.8v15.6h-5.6v2.2h-2.8v2.2h-16.9v8.9h19.7V39h2.8v2.2h2.8v2.2h-30.9v-2.2h-2.8V25.6h5.6
		v-2.2h2.8v-2.2h16.9v-8.9h-19.7V10h-2.8V7.7h-2.8V5.5z M264.6,41.3h2.8V39h-2.8V41.3z M267.4,27.8h2.8v-2.2h-2.8V27.8z M267.4,39
		h2.8v-2.2h-2.8V39z M287.1,12.2h2.8V10h-2.8V12.2z M287.1,23.4h2.8v-2.2h-2.8V23.4z M289.9,10h2.8V7.7h-2.8V10z"/>
	<path class="st4" d="M301.2,7.7h2.8V5.5h28.1v2.2h2.8v15.6h-5.6v-2.2h-2.8v-8.9h-16.9v8.9h-2.8v2.2h-5.6V7.7z M301.2,25.6h5.6v2.2
		h2.8v8.9h16.9v-8.9h2.8v-2.2h5.6v15.6h-2.8v2.2H304v-2.2h-2.8V25.6z M304,10h2.8V7.7H304V10z M304,41.3h2.8V39H304V41.3z
		 M306.8,12.2h2.8V10h-2.8V12.2z M306.8,39h2.8v-2.2h-2.8V39z M326.5,12.2h2.8V10h-2.8V12.2z M326.5,39h2.8v-2.2h-2.8V39z M329.3,10
		h2.8V7.7h-2.8V10z M329.3,41.3h2.8V39h-2.8V41.3z"/>
	<path class="st4" d="M340.6,5.5h2.8v2.2h2.8V10h2.8v11.2h16.9V10h2.8V7.7h2.8V5.5h2.8v17.9h-5.6v2.2h5.6v17.9h-2.8v-2.2h-2.8V39
		h-2.8V27.8H349v-2.2h-2.8v-2.2h-5.6V5.5z M346.2,23.4h2.8v-2.2h-2.8V23.4z M365.9,23.4h2.8v-2.2h-2.8V23.4z M365.9,27.8h2.8v-2.2
		h-2.8V27.8z"/>
	<path class="st4" d="M379.9,7.7h2.8V5.5h28.1v2.2h2.8v15.6H408v2.2h5.6v15.6h-2.8v2.2h-28.1v-2.2h2.8V39h2.8v-2.2h16.9v-8.9h-16.9
		v-2.2h-2.8v-2.2h-5.6L379.9,7.7L379.9,7.7z M382.8,10h2.8V7.7h-2.8V10z M385.6,12.2h2.8V10h-2.8V12.2z M385.6,23.4h2.8v-2.2h-2.8
		V23.4z M388.4,21.1h16.9v-8.9h-16.9V21.1z M405.3,12.2h2.8V10h-2.8V12.2z M405.3,23.4h2.8v-2.2h-2.8V23.4z M405.3,27.8h2.8v-2.2
		h-2.8V27.8z M405.3,39h2.8v-2.2h-2.8V39z M408.1,10h2.8V7.7h-2.8V10z M408.1,41.3h2.8V39h-2.8V41.3z"/>
	<path class="st5" d="M167.8,7.2V4.4h3.5h3.5v2.8V10h7h7v2.8v2.8h-7h-7v2.8v2.8h7h7V24v2.8h3.5h3.5v2.8v2.8h-3.5h-3.5v2.8V38h-7h-7
		v2.8v2.8h-3.5h-3.5v-2.8V38h-10.5h-10.5v-2.8v-2.8h10.5h10.5v-2.8v-2.8h-7h-7V24v-2.8h-3.5h-3.5v-2.8v-2.8h3.5h3.5v-2.8V10h7h7V7.2
		z M167.8,18.4v-2.8h-3.5h-3.5v2.8v2.8h3.5h3.5V18.4z M181.8,29.6v-2.8h-3.5h-3.5v2.8v2.8h3.5h3.5V29.6z"/>
	<path class="st5" d="M209.9,7.2V4.4h17.6h17.6v2.8V10h3.5h3.5v11.2v11.2h-3.5h-3.5v2.8V38h3.5h3.5v2.8v2.8h-3.5h-3.5v-2.8V38h-3.5
		h-3.5v2.8v2.8H224h-14.1v-2.8V38h-3.5h-3.5V24V10h3.5h3.5V7.2z M238.1,18.4V10h-10.5H217v14v14h7h7v-2.8v-2.8h-3.5H224v-2.8v-2.8h7
		h7v-8.4H238.1z"/>
	<path class="st5" d="M261.1,5H292v2.2h2.8v15.6h-5.6V25h-2.8v2.2h-16.9v8.9h19.7v2.2h2.8v2.2h2.8V43h-30.9v-2.2h-2.8V25.1h5.6v-2.2
		h2.8v-2.2h16.9v-8.9h-19.7V9.5h-2.8V7.2h-2.8V5z M263.9,40.7h2.8v-2.2h-2.8V40.7z M266.8,27.3h2.8v-2.2h-2.8V27.3z M266.8,38.5h2.8
		v-2.2h-2.8V38.5z M286.4,11.7h2.8V9.5h-2.8V11.7z M286.4,22.9h2.8v-2.2h-2.8V22.9z M289.3,9.5h2.8V7.2h-2.8V9.5z"/>
	<path class="st5" d="M300.5,7.2h2.8V5h28.1v2.2h2.8v15.6h-5.6v-2.2h-2.8v-8.9h-16.9v8.9h-2.8v2.2h-5.6V7.2z M300.5,25.1h5.6v2.2
		h2.8v8.9h16.9v-8.9h2.8v-2.2h5.6v15.6h-2.8V43h-28.1v-2.2h-2.8V25.1z M303.3,9.5h2.8V7.2h-2.8V9.5z M303.3,40.7h2.8v-2.2h-2.8V40.7
		z M306.1,11.7h2.8V9.5h-2.8V11.7z M306.1,38.5h2.8v-2.2h-2.8V38.5z M325.8,11.7h2.8V9.5h-2.8V11.7z M325.8,38.5h2.8v-2.2h-2.8V38.5
		z M328.6,9.5h2.8V7.2h-2.8V9.5z M328.6,40.7h2.8v-2.2h-2.8V40.7z"/>
	<path class="st5" d="M339.9,5h2.8v2.2h2.8v2.2h2.8v11.2h16.9V9.5h2.8V7.2h2.8V5h2.8v17.9H368v2.2h5.6V43h-2.8v-2.2H368v-2.2h-2.8
		V27.3h-16.9v-2.2h-2.8v-2.2h-5.6L339.9,5L339.9,5z M345.5,22.9h2.8v-2.2h-2.8V22.9z M365.2,22.9h2.8v-2.2h-2.8V22.9z M365.2,27.3
		h2.8v-2.2h-2.8V27.3z"/>
	<path class="st5" d="M379.3,7.2h2.8V5h28.1v2.2h2.8v15.6h-5.6V25h5.6v15.6h-2.8V43h-28.1v-2.2h2.8v-2.2h2.8v-2.2h16.9v-8.9h-16.9
		v-2.2h-2.8v-2.2h-5.6L379.3,7.2L379.3,7.2z M382.1,9.5h2.8V7.2h-2.8V9.5z M384.9,11.7h2.8V9.5h-2.8V11.7z M384.9,22.9h2.8v-2.2
		h-2.8V22.9z M387.7,20.6h16.9v-8.9h-16.9V20.6z M404.6,11.7h2.8V9.5h-2.8V11.7z M404.6,22.9h2.8v-2.2h-2.8V22.9z M404.6,27.3h2.8
		v-2.2h-2.8V27.3z M404.6,38.5h2.8v-2.2h-2.8V38.5z M407.4,9.5h2.8V7.2h-2.8V9.5z M407.4,40.7h2.8v-2.2h-2.8V40.7z"/>
	<path class="st6" d="M168.1,7.5V4.7h3.5h3.5v2.8v2.8h7h7v2.8v2.8h-7h-7v2.8v2.8h7h7v2.8V27h3.5h3.5v2.8v2.8h-3.5h-3.5v2.8v2.8h-7
		h-7V41v2.8h-3.5h-3.5V41v-2.8h-10.5H147v-2.8v-2.8h10.5H168v-2.8V27h-7h-7v-2.8v-2.8h-3.5H147v-2.8v-2.8h3.5h3.5V13v-2.8h7h7V7.5
		H168.1z M168.1,18.6v-2.8h-3.5h-3.5v2.8v2.8h3.5h3.5V18.6z M182.2,29.8V27h-3.5h-3.5v2.8v2.8h3.5h3.5V29.8z"/>
	<path class="st6" d="M210.3,7.5V4.7h17.6h17.6v2.8v2.8h3.5h3.5v11.2v11.2H249h-3.5v2.8v2.8h3.5h3.5V41v2.8H249h-3.5V41v-2.8H242
		h-3.5V41v2.8h-14.1h-14.1V41v-2.8h-3.5h-3.5v-14v-14h3.5h3.5L210.3,7.5L210.3,7.5z M238.4,18.6v-8.4h-10.5h-10.5v14v14h7h7v-2.8
		v-2.8h-3.5h-3.5v-2.8V27h7h7V18.6z"/>
	<path class="st6" d="M261.5,5.2h30.9v2.2h2.8V23h-5.6v2.2h-2.8v2.2h-16.9v8.9h19.7v2.2h2.8V41h2.8v2.2h-30.9V41h-2.8V25.3h5.6v-2.2
		h2.8v-2.2h16.9V12h-19.7V9.7h-2.8V7.5h-2.8V5.2z M264.3,41h2.8v-2.2h-2.8V41z M267.1,27.6h2.8v-2.2h-2.8V27.6z M267.1,38.8h2.8
		v-2.2h-2.8V38.8z M286.8,11.9h2.8V9.7h-2.8V11.9z M286.8,23.1h2.8v-2.2h-2.8V23.1z M289.6,9.7h2.8V7.5h-2.8V9.7z"/>
	<path class="st6" d="M300.9,7.5h2.8V5.2h28.1v2.2h2.8V23H329v-2.2h-2.8v-8.9h-16.9v8.9h-2.8V23h-5.6L300.9,7.5L300.9,7.5z
		 M300.9,25.3h5.6v2.2h2.8v8.9h16.9v-8.9h2.8v-2.2h5.6V41h-2.8v2.2h-28.1V41h-2.8V25.3z M303.7,9.7h2.8V7.5h-2.8V9.7z M303.7,41h2.8
		v-2.2h-2.8V41z M306.5,11.9h2.8V9.7h-2.8V11.9z M306.5,38.8h2.8v-2.2h-2.8V38.8z M326.2,11.9h2.8V9.7h-2.8V11.9z M326.2,38.8h2.8
		v-2.2h-2.8V38.8z M329,9.7h2.8V7.5H329V9.7z M329,41h2.8v-2.2H329V41z"/>
	<path class="st6" d="M340.2,5.2h2.8v2.2h2.8v2.2h2.8v11.2h16.9V9.7h2.8V7.5h2.8V5.2h2.8v17.9h-5.6v2.2h5.6v17.9h-2.8V41h-2.8v-2.2
		h-2.8V27.6h-16.9v-2.2h-2.8v-2.2h-5.6L340.2,5.2L340.2,5.2z M345.9,23.1h2.8v-2.2h-2.8V23.1z M365.5,23.1h2.8v-2.2h-2.8V23.1z
		 M365.5,27.6h2.8v-2.2h-2.8V27.6z"/>
	<path class="st6" d="M379.6,7.5h2.8V5.2h28.1v2.2h2.8V23h-5.6v2.2h5.6V41h-2.8v2.2h-28.1V41h2.8v-2.2h2.8v-2.2h16.9v-8.9H388v-2.2
		h-2.8v-2.2h-5.6L379.6,7.5L379.6,7.5z M382.4,9.7h2.8V7.5h-2.8V9.7z M385.2,11.9h2.8V9.7h-2.8V11.9z M385.2,23.1h2.8v-2.2h-2.8
		V23.1z M388.1,20.9H405V12h-16.9V20.9z M404.9,11.9h2.8V9.7h-2.8V11.9z M404.9,23.1h2.8v-2.2h-2.8V23.1z M404.9,27.6h2.8v-2.2h-2.8
		V27.6z M404.9,38.8h2.8v-2.2h-2.8V38.8z M407.7,9.7h2.8V7.5h-2.8V9.7z M407.7,41h2.8v-2.2h-2.8V41z"/>
</g>
<g>
	<g>
		<path class="st6" d="M62.97,38.84c-1.13,1.37-2.38,2.63-3.65,3.89c0.01-0.38,0.22-0.7,0.2-1.16c-1.69,1.53-3.72,2.28-5.65,3.27
			c-1.75,0.89-3.47,1.87-5.25,2.73c-0.38,0.19-0.69,0.2-1.08,0.01c-1.69-0.85-3.46-1.54-5-2.65c-0.24-0.17-0.53-0.28-0.82-0.38
			c-1.82-0.65-3.47-1.59-4.95-2.83c-0.05-0.03-0.13-0.09-0.14-0.07c-0.07,0.07-0.04,0.14,0.03,0.2c-0.02,0.33,0.24,0.6,0.17,0.95
			c-4.04-4.01-7.78-8.21-9.16-13.96c-0.03-0.15,0.08-0.5-0.34-0.3c-0.15,0.07-0.14-0.21-0.18-0.34c-0.95-2.84,0.01-5.22,1.8-7.4
			c0.71-0.86,1.38-1.76,1.96-2.72c0.23-0.39,0.29-0.7,0.02-1.12c-0.44-0.69-0.69-1.47-0.87-2.31c-0.58,0.45-0.98,1.04-1.62,1.66
			c0.39-2.27,0.29-4.44,1.23-6.43c0.92-1.95,2.46-3.21,4.47-3.96c-0.21-0.4-0.7-0.48-0.98-0.92c2.78-0.08,5.53-0.69,8.13,0.71
			c1.21,0.66,2.18,1.61,3.16,2.55c0.78,0.75,1.65,1.31,2.74,1.45c0.17,0.02,0.34,0.03,0.51,0.05c0.18,0.1,0.37,0.09,0.57,0.04
			c0.25-0.03,0.49-0.06,0.74-0.09c1.07-0.15,1.93-0.68,2.68-1.42c0.86-0.84,1.72-1.7,2.75-2.33c1.4-0.85,2.93-1.22,4.56-1.16
			c1.31,0.04,2.61,0.12,4.11,0.2c-0.44,0.35-0.76,0.59-1.13,0.89c1.62,0.62,2.94,1.53,3.9,2.91c0.7,1.01,1.13,2.13,1.31,3.33
			c0.2,1.33,0.34,2.67,0.52,4.18c-0.59-0.64-1.06-1.15-1.57-1.7c-0.25,0.94-0.52,1.8-1.01,2.55c-0.21,0.33-0.01,0.57,0.04,0.85
			c-0.42,0-0.85,0-1.27-0.01c-0.05-0.16-0.11-0.32-0.16-0.48c0-0.13,0-0.25,0-0.38c0-0.03,0-0.06,0.01-0.08
			c1.08-1.57,1.37-3.36,1.39-5.31c0.3,0.28,0.53,0.5,0.88,0.82c-0.74-4-3.32-5.61-6.89-6.03c-0.02-0.26,0.34-0.21,0.29-0.48
			c-0.89-0.02-1.75,0.01-2.62,0.24c-1.45,0.38-2.59,1.24-3.6,2.28c-1.09,1.11-2.26,2.05-3.82,2.38c-0.21,0.03-0.41,0.06-0.62,0.08
			c-0.09,0.02-0.19,0.04-0.28,0.06c-0.24,0-0.48,0-0.72-0.01c-1.85-0.17-3.35-1-4.59-2.36c-0.35-0.38-0.75-0.71-1.15-1.04
			c-1.52-1.28-3.29-1.76-5.26-1.61c0,0.26,0.35,0.21,0.31,0.46c-4.66,0.49-6.61,3.32-6.69,5.99c0.17-0.27,0.34-0.53,0.51-0.8
			c0.19,1.71,0.32,3.3,1.19,4.69c0.45,0.71,0.41,1.36,0.04,2.06c-0.49,0.94-1.17,1.75-1.79,2.59c-0.9,1.2-1.86,2.37-2.23,3.89
			C28,25.29,28,25.63,28.05,26c0.07-0.05,0.11-0.08,0.16-0.11c0.06-0.04,0.1-0.15,0.22-0.05c0.52,4.61,2.46,8.58,5.53,12.1
			c0.12-0.6-0.26-1.05-0.24-1.59c0.99,1.32,1.95,2.66,3.16,3.78c1.21,1.13,2.5,2.14,4.2,2.77c-0.21-0.5-0.36-0.86-0.51-1.22
			c0.04-0.04,0.09-0.07,0.13-0.11c1.34,1.44,2.79,2.73,4.6,3.53c0.06,0.05,0.13,0.11,0.18,0.01c0.01-0.02-0.04-0.09-0.06-0.14
			c-0.22-0.43-0.44-0.86-0.66-1.29c0.03-0.03,0.07-0.07,0.1-0.1c0.74,0.47,1.45,0.97,2.22,1.4c0.69,0.39,1.29,0.4,1.97-0.01
			c0.7-0.42,1.42-0.8,2.05-1.32c0.12-0.1,0.23-0.28,0.44-0.13c0,0-0.01,0-0.01,0c-0.32,0.53-0.64,1.06-0.97,1.59
			c2-0.8,3.6-2.08,5.03-3.82c-0.03,0.65-0.41,1.05-0.49,1.61c1.26-0.5,2.3-1.2,3.28-2c1.53-1.26,2.77-2.75,3.83-4.41
			c0.06-0.1,0.17-0.44,0.24,0c-0.03,0.13-0.06,0.26-0.09,0.38c-0.04,0.03-0.05,0.06-0.03,0.1c-0.07,0.25-0.15,0.5-0.22,0.75
			c-0.01,0.05-0.05,0.13-0.03,0.15c0.06,0.05,0.1,0,0.14-0.05c0.24-0.25,0.48-0.49,0.71-0.74c0.01,0.23,0.11,0.51-0.06,0.67
			C62.42,38.19,62.61,38.51,62.97,38.84z"/>
		<path class="st6" d="M63.88,18c0.42,0,0.85,0,1.27,0.01c0.99,1.61,2.32,2.98,3.27,4.62c0.6,1.04,0.97,2.17,0.9,3.34
			c-0.04,0.76-0.14,1.54-0.34,2.29c-0.04,0.13,0.02,0.34-0.31,0.22c-0.28-0.1-0.18,0.27-0.22,0.41c-0.67,2.53-1.71,4.89-3.19,7.05
			c-0.69,1.02-1.38,2.06-2.3,2.9c-0.36-0.33-0.55-0.66-0.09-1.08c0.17-0.16,0.07-0.44,0.06-0.67c0.15-0.23,0.3-0.46,0.45-0.69
			c0.22-0.3,0.44-0.6,0.65-0.9c0,0,0,0,0,0c1.97-2.79,3.2-5.87,3.6-9.27c0.05-0.41,0.11-0.54,0.5-0.25c0.05-0.84-0.16-1.55-0.5-2.23
			c-0.52-1.04-1.25-1.95-1.94-2.88C65.01,19.96,64.21,19.13,63.88,18z"/>
	</g>
	<path class="st7" d="M48.73,11.03c-0.05,0.23-0.14,0.27-0.28,0.06C48.54,11.07,48.63,11.05,48.73,11.03z"/>
	<path class="st7" d="M45.42,44.98c0.02,0.05,0.08,0.11,0.06,0.14c-0.06,0.1-0.12,0.03-0.18-0.01
		C45.34,45.07,45.38,45.02,45.42,44.98z"/>
	<path class="st8" d="M42.52,13.38c0.21,0.02,0.42,0.05,0.73,0.08c-0.79-1.27-2.05-1.73-3.21-2.41c0.42,0.03,0.84,0.06,1.26,0.1
		c0.45,0.05,0.9,0.1,1.34,0.19c1.27,0.25,2.48,0.62,3.62,1.28c0.98,0.56,2.03,0.53,3.01-0.04c1.9-1.1,3.99-1.37,6.22-1.55
		c-0.3,0.33-0.65,0.37-0.93,0.52c-0.7,0.38-1.4,0.75-1.96,1.33c-0.13,0.14-0.34,0.3-0.24,0.48c0.11,0.2,0.34-0.05,0.51,0.02
		c0.17,0.21,0.42,0.18,0.65,0.21c1.15,0.15,2.27,0.41,3.29,1c0.35,0.21,0.68,0.45,1.06,0.7c0-0.11,0.02-0.17,0-0.19
		c-0.16-0.2-0.32-0.4-0.48-0.6l0.04-0.04c1.77,0.79,2.75,2.26,3.36,4.02c-0.02,0.02-0.04,0.04-0.07,0.07
		c-0.75-0.24-1.33-0.83-2.2-1.11c0.25,0.9,0.47,1.71,0.72,2.59c-1.39-0.95-2.88-1-3.93-0.17c-0.41,0.05-0.8,0.26-1.26,0.17
		c0.26-0.52,0.62-0.93,1.01-1.33c0.09-0.09,0.31-0.17,0.21-0.34c-0.12-0.2-0.3-0.03-0.45,0.01c-0.1,0.03-0.2,0.08-0.29,0.12
		c-0.28-0.13-0.47,0.09-0.68,0.2c-0.37,0.2-0.46,0.04-0.44-0.29c0.02-0.36,0.06-0.72,0.08-1.08c0.23-0.64,0.12-1.25-0.18-1.84
		c0.02-0.15-0.01-0.26-0.16-0.32l0-0.03c-0.18-0.36-0.47-0.56-0.96-0.63c0.65,0.63,0.9,1.3,0.67,2.1c-0.08,0.28-0.19,0.56-0.29,0.84
		l0-0.01c-0.11,0.05-0.14,0.15-0.14,0.26c0,0,0-0.01,0-0.01c-0.58,0.87-0.92,1.83-0.92,2.89c-0.05,0.15-0.1,0.3-0.15,0.46
		c-0.38,0.1-0.36,0.67-0.81,0.69c-0.03-0.23-0.02-0.44,0.09-0.66c0.05-0.09,0.19-0.34-0.12-0.37c-0.58-0.01-0.86,0.44-1.19,0.79
		c-1.09,1.14-2.16,1.13-3.26,0c-0.32-0.33-0.56-0.8-1.12-0.77c-0.12-0.02-0.26-0.09-0.22,0.15c0.05,0.29,0.09,0.58,0.14,0.88
		c-0.43-0.07-0.44-0.61-0.82-0.74c-0.04-0.14-0.08-0.29-0.12-0.43c-0.03-0.79-0.18-1.54-0.62-2.21l0.01,0.01
		c-0.06-0.41-0.24-0.75-0.52-1.05l0.01,0.01c-0.1-0.29-0.21-0.59-0.31-0.88c0-0.26,0-0.52,0-0.79c0.02-0.09,0.04-0.18,0.06-0.27
		l0-0.03c0.16-0.22,0.32-0.44,0.55-0.74c-0.43,0.05-0.62,0.22-0.75,0.46l0,0.03c-0.09,0.01-0.12,0.07-0.13,0.15l0,0
		c-0.18,0.13-0.24,0.32-0.23,0.54l0,0.01c-0.01,0.01-0.04,0.02-0.04,0.03c0.01,0.03,0.03,0.05,0.04,0.08
		c-0.16,0.45-0.21,0.92-0.11,1.39c0.12,0.53,0.14,1.07,0.11,1.6c-0.52-0.04-0.87-0.56-1.42-0.52c-0.2-0.1-0.4-0.16-0.67-0.08
		c0.63,0.52,1.11,1.07,1.47,1.75c-0.46,0.06-0.82-0.11-1.19-0.18c-0.6-0.48-1.32-0.53-2.04-0.61c-0.8-0.1-1.44,0.16-1.93,0.85
		c0.14-0.93,0.54-1.73,0.62-2.61c0.01-0.03,0.02-0.06,0.04-0.09c-0.03,0.01-0.05,0.03-0.08,0.04c-0.7,0.38-1.4,0.77-2.22,1.22
		c0.15-0.65,0.41-1.11,0.68-1.56c0.63-1.06,1.37-2.02,2.55-2.54c0.03,0.03,0.05,0.05,0.08,0.08c-0.07,0.14-0.15,0.29-0.22,0.43
		c-0.04,0.04-0.08,0.09-0.12,0.13c-0.03,0.06-0.06,0.11-0.09,0.17c-0.03,0.05-0.06,0.1-0.08,0.15c0,0.01,0.03,0.03,0.04,0.04
		c0.03-0.05,0.05-0.11,0.08-0.16c0.05-0.04,0.1-0.08,0.14-0.12c0.04-0.04,0.08-0.09,0.12-0.13c1.3-1.01,2.8-1.46,4.42-1.6
		C42.32,13.57,42.49,13.6,42.52,13.38z M57.98,15.5L58,15.46l-0.04-0.01L57.98,15.5z M55.4,18.29c-0.03,0.01-0.05,0.03-0.07,0.04
		c0.01,0.01,0.03,0.04,0.04,0.04c0.03-0.01,0.05-0.02,0.08-0.04C55.43,18.32,55.42,18.3,55.4,18.29z"/>
	<path class="st9" d="M36.86,17.51c-0.08,0.88-0.48,1.68-0.62,2.61c0.49-0.69,1.13-0.95,1.93-0.85c0.72,0.09,1.44,0.14,2.04,0.61
		c-0.52,0.01-1.03,0.03-1.55,0.04c-0.73,0.02-1.3,0.28-1.73,0.93c-0.67,1.03-1.12,2.15-1.47,3.38c0.51-0.23,0.61-0.86,1.13-1.01
		c-0.01,0.08,0.01,0.18-0.02,0.25c-0.6,1.39-1.34,2.69-2.23,3.92c-0.27,0.37-0.54,0.18-0.85,0.11c0.02,0.6,0.2,1.09,0.49,1.55
		c0.19,0.3,0.35,0.43,0.57,0.01c0.25-0.45,0.59-0.85,1-1.17c0.3-0.23,0.64-0.65,0.98-0.52c0.33,0.14,0.11,0.66,0.18,1.01
		c0,0.02,0,0.04,0,0.06c0,0.05,0.01,0.1,0.01,0.16c-0.27,0.4-0.74,0.62-0.94,1.08c-0.81,1.11-0.95,2.41-1.03,3.85
		c-1.76-1.87-2.32-4.04-2.16-6.49c-0.69,0.22-0.97,0.8-1.38,1.27c-0.36-1.75,0.45-4.49,1.65-5.57c0.12,0.94,0.38,1.81,0.82,2.64
		c-0.01-1.83-0.04-3.67,0.78-5.5c-0.89,0.19-1.32,0.81-1.82,1.33c-0.02-0.02-0.07-0.05-0.07-0.07c0.6-2.89,1.73-5.47,4.33-7.12
		c1.71-1.09,3.61-1.15,5.55-0.76c0.03,0.01,0.05,0.06,0.07,0.1c-0.03,0.22-0.2,0.19-0.34,0.2c-1.62,0.14-3.12,0.59-4.42,1.6
		c-0.03-0.03-0.06-0.06-0.09-0.08c0.07-0.14,0.15-0.29,0.22-0.43c0.02-0.03,0.06-0.08,0.06-0.09c-0.04-0.07-0.09-0.04-0.14,0.01
		c-1.17,0.52-1.91,1.48-2.55,2.54c-0.27,0.45-0.53,0.91-0.68,1.56c0.82-0.45,1.52-0.83,2.22-1.22
		C36.83,17.48,36.84,17.5,36.86,17.51z"/>
	<path class="st10" d="M60.79,18.49c-0.62-1.76-1.59-3.23-3.36-4.02c-0.05-0.07-0.15-0.12-0.18-0.05c-0.04,0.1,0.09,0.06,0.15,0.09
		c0.16,0.2,0.32,0.39,0.48,0.6c0.02,0.02,0,0.08,0,0.19c-0.37-0.25-0.7-0.5-1.06-0.7c-1.02-0.59-2.14-0.85-3.29-1
		c-0.23-0.03-0.47,0-0.65-0.21c1.28-0.48,2.59-0.39,3.89-0.1c1.35,0.31,2.46,1.06,3.41,2.06c0.12,0.13,0.18,0.36,0.41,0.36
		l0.01,0.01c0.01,0.27,0.28,0.38,0.37,0.59c0.09,0.13,0.18,0.27,0.27,0.4c0.07,0.13,0.15,0.26,0.22,0.4
		c0.05,0.09,0.1,0.17,0.15,0.26c0.04,0.08,0.09,0.17,0.13,0.25c0.14,0.3,0.28,0.6,0.43,0.9c0,0,0,0,0,0
		c0.17,0.49,0.35,0.98,0.52,1.47c0.01,0.21,0.02,0.41,0.15,0.59c-0.07,0.22,0.14,0.44,0,0.66l0.01-0.01
		c-0.55-0.48-0.96-1.17-1.83-1.32c0.73,1.77,0.89,3.53,0.78,5.34c0.53-0.74,0.65-1.6,0.85-2.55c1.35,1.72,1.84,3.57,1.69,5.77
		c-0.48-0.61-0.79-1.19-1.51-1.41c0.23,1.98-0.21,3.77-1.19,5.42c-0.04,0.06-0.08,0.12-0.12,0.18c-0.09,0.12-0.18,0.24-0.26,0.36
		c-0.16,0.15-0.33,0.31-0.56,0.53c-0.01-0.9-0.08-1.71-0.37-2.49c-0.14-0.52-0.33-1.01-0.69-1.42c-0.23-0.41-0.57-0.71-0.92-1.01
		c0-0.05,0-0.1,0-0.15c0.04-0.23,0.11-0.47,0.11-0.7c-0.02-0.55,0.23-0.43,0.54-0.25c0.65,0.38,1.15,0.91,1.53,1.55
		c0.25,0.41,0.43,0.34,0.63-0.01c0.08-0.13,0.19-0.27,0.2-0.4c0.01-0.37,0.82-1.01-0.32-1.04c-0.06,0-0.13-0.1-0.19-0.17
		c-1.04-1.28-1.83-2.7-2.38-4.25l0.06-0.01l0.06,0c0.34,0.39,0.68,0.78,1.12,1.29c-0.24-0.76-0.33-1.41-0.69-1.98
		c-0.16-0.61-0.55-1.1-0.85-1.64c-0.37-0.65-0.95-0.89-1.65-0.92c-0.51-0.02-1.02-0.03-1.54-0.05c1.04-0.83,2.54-0.79,3.93,0.17
		c-0.24-0.88-0.47-1.69-0.72-2.59c0.86,0.28,1.44,0.87,2.2,1.1c0.03,0.01,0.07,0.02,0.1,0.03C60.81,18.56,60.8,18.53,60.79,18.49z"
		/>
	<path class="st11" d="M54.95,31.84c-0.44-0.59-0.88-1.18-1.54-1.57c-0.02-0.06-0.05-0.13-0.12-0.08c-0.02,0.02,0,0.11,0.01,0.16
		c0.17,0.7,0.48,1.37,0.43,2.11c-0.23-0.01-0.31,0.2-0.45,0.31c-0.55,0.39-1.55,0.33-1.94-0.12c0.12-0.02,0.24-0.02,0.31-0.14
		c0.63-0.38,0.49-0.97,0.45-1.57c-0.26,0.05-0.22,0.43-0.5,0.34c-0.04-0.04-0.07-0.08-0.11-0.11c-1.78-2.03-5.23-2.13-7.36-0.18
		c-0.29,0.27-0.48,0.38-0.74-0.2c-0.08,0.77-0.19,1.35,0.43,1.73c0.12,0.08,0.25,0.16,0.37,0.25c-0.91,0.43-1.73,0.37-2.43-0.41
		c-0.08-0.71,0.29-1.35,0.39-2.18c-0.74,0.5-1.22,1.07-1.67,1.68c-0.33-0.22-0.38-0.64-0.65-0.91c-0.01-0.39-0.02-0.78-0.03-1.17
		c-0.1-0.62-0.07-1.23,0.2-1.81c0.72,0.2,1.41,0.49,2.17,0.51c0.17,0.01,0.29,0.09,0.32,0.26c0.13,0.78,0.53,0.54,0.95,0.26
		l-0.01-0.01c0.01,0.12,0.02,0.25,0.05,0.51c0.83-1.07,1.89-1.68,2.92-2.32c0.01-0.02,0.03-0.03,0.04-0.05
		c-0.01,0.02-0.02,0.04-0.03,0.06c-0.23-0.03-0.4-0.38-0.67-0.12c-0.36,0-0.73,0-1.15,0c1.15-1.65,5.45-1.51,6.24,0
		c-0.41,0-0.78,0-1.16,0c-0.19-0.04-0.38-0.07-0.53,0.1c-0.02-0.04-0.03-0.13-0.1-0.04c0,0,0.05,0.04,0.07,0.07
		c1.03,0.62,2.05,1.27,2.84,2.21c0.03,0.02,0.08,0.08,0.09,0.07c0.07-0.05,0.04-0.1-0.01-0.15c-0.02-0.2-0.04-0.49,0.26-0.2
		c0.37,0.36,0.48,0.14,0.62-0.18c0.09-0.2,0.08-0.48,0.42-0.48c0.74-0.01,1.43-0.29,2.12-0.51c0.24,0.46,0.32,0.95,0.24,1.46
		c-0.1,0.27-0.13,0.55-0.06,0.84c-0.01,0.27-0.02,0.53-0.02,0.8C55.31,31.26,55.33,31.72,54.95,31.84z M43.36,29.6l0.02-0.03
		l-0.03,0L43.36,29.6z"/>
	<g>
		<path class="st12" d="M39.79,29.79c-0.06,0.08-0.12,0.16-0.18,0.24c-0.24-0.74-0.26-0.75-0.8-0.22c-1.1,1.06-1.32,1.01-1.84-0.47
			c-0.08-0.24-0.16-0.48-0.24-0.72c-0.27,0.4-0.74,0.62-0.94,1.08c0.14,2.49,0.76,4.76,2.81,6.35c0-0.81-0.01-1.6,0-2.39
			c0.01-0.8-0.01-1.62,0.36-2.39c0.26,0.56,0.16,1.24,0.69,1.65c0.11-0.65-0.13-1.33,0.18-1.97C39.81,30.57,39.8,30.18,39.79,29.79z
			"/>
		<path class="st12" d="M59.61,29.62c-0.23-0.41-0.57-0.71-0.92-1.01c-0.15,0.61-0.36,1.19-0.68,1.73
			c-0.17,0.28-0.35,0.41-0.66,0.12c-0.38-0.37-0.81-0.69-1.25-1.07c-0.2,0.25-0.13,0.61-0.4,0.79c-0.01,0.05-0.04,0.07-0.09,0.08
			c-0.01,0.26-0.02,0.53-0.02,0.8c0.35,0.58,0.18,1.22,0.22,1.83c0.09-0.09,0.19-0.19,0.28-0.28c0,0,0,0,0,0
			c0.11-0.47,0.22-0.94,0.32-1.42c0.58,1.53,0.59,3.08,0.29,4.64c0.02,0.08,0.05,0.16,0.07,0.23c0.07-0.04,0.15-0.08,0.22-0.11
			c0.3-0.3,0.61-0.59,0.91-0.89c0.04-0.05,0.08-0.09,0.12-0.14c0,0-0.01,0-0.01,0c0.03-0.17,0.13-0.29,0.27-0.38c0,0,0,0,0,0
			c0.29-0.58,0.58-1.17,0.87-1.75c0.01-0.06,0.02-0.13,0.04-0.19c0-0.18,0.01-0.37,0.14-0.52c0.04-0.13,0.07-0.27,0.11-0.4
			C59.5,31.01,59.66,30.32,59.61,29.62z"/>
	</g>
	<path class="st9" d="M41.75,32.36c0.7,0.78,1.53,0.84,2.43,0.41c0.65-0.3,1.26-0.25,1.77,0.28c0.56,0.59,0.79,1.31,0.5,2.08
		c-0.25,0.68-0.86,0.92-1.55,0.97C42.47,36.28,41.23,34.69,41.75,32.36z"/>
	<path class="st10" d="M51.33,32.66c0.39,0.45,1.39,0.5,1.94,0.12c0.15-0.1,0.23-0.32,0.45-0.31c0.5,2.6-1.14,3.93-3.51,3.59
		c-0.94-0.13-1.47-0.94-1.32-1.83c0.17-1.08,1-1.73,2.07-1.63C51.08,32.61,51.21,32.64,51.33,32.66z"/>
	<path class="st13" d="M50.32,37.53c0.39,0.15,0.17,0.31,0.03,0.51c-0.49,0.69-1.2,0.8-1.97,0.89c-0.77,0.1-1.52-0.08-2.27-0.1
		c-0.44-0.02-0.85-0.55-1.15-0.97c-0.18-0.24,0.13-0.34,0.29-0.45c0.14,0.19,0.35,0.12,0.53,0.12
		C47.29,37.54,48.8,37.53,50.32,37.53z"/>
	<path class="st14" d="M44.68,31.7c-0.06-0.03-0.28,0.05-0.16-0.12c1.06-1.56,4.99-1.72,6.12-0.25c0.04,0.05,0.04,0.14,0.08,0.32
		c-0.56-0.26-1.04-0.47-1.56-0.52C47.6,30.82,46.09,30.91,44.68,31.7z"/>
	<path class="st14" d="M50.32,37.53c-1.51,0-3.03,0.01-4.54,0c-0.18,0-0.39,0.07-0.53-0.12C46.81,36.51,49.05,36.56,50.32,37.53z"/>
	<path class="st13" d="M55.6,31.06c0.35,0.58,0.18,1.22,0.22,1.83c-0.05,0.12-0.09,0.24-0.14,0.36c-0.1,0.02-0.26,0.4-0.27-0.05
		c-0.02-0.5-0.21-0.95-0.46-1.37C55.33,31.72,55.31,31.26,55.6,31.06z"/>
	<path class="st13" d="M39.65,32.92c0.11-0.65-0.13-1.33,0.18-1.97c0.27,0.27,0.32,0.69,0.65,0.91c-0.23,0.48-0.47,0.96-0.43,1.54
		C39.74,33.35,39.77,33.07,39.65,32.92z"/>
	<path class="st15" d="M56.1,32.62c0.11-0.47,0.22-0.94,0.32-1.42c0.58,1.52,0.59,3.08,0.29,4.64c-0.17-0.41-0.14-0.85-0.05-1.26
		c0.16-0.77,0.1-1.51-0.1-2.27C56.31,32.29,56.3,32.59,56.1,32.62z"/>
	<path class="st15" d="M59.45,31.7c0.05-0.7,0.21-1.38,0.16-2.08c0.36,0.41,0.56,0.9,0.69,1.42c-0.37-0.08-0.65-0.06-0.6,0.45
		C59.72,31.64,59.58,31.69,59.45,31.7z"/>
	<path class="st15" d="M58.3,34.56c0.29-0.58,0.58-1.17,0.87-1.75C59.23,33.61,58.91,34.27,58.3,34.56z"/>
	<path class="st15" d="M55.68,33.25c0.05-0.12,0.09-0.24,0.14-0.36c0.09-0.09,0.19-0.19,0.28-0.28
		C56.11,32.93,56.13,33.25,55.68,33.25z"/>
	<path class="st15" d="M59.21,32.62c0-0.18,0.01-0.37,0.14-0.52C59.57,32.35,59.42,32.49,59.21,32.62z"/>
	<path class="st15" d="M58.03,34.94c0.03-0.17,0.13-0.29,0.27-0.38C58.31,34.75,58.29,34.94,58.03,34.94z"/>
	<path class="st16" d="M61.23,33.01c0.09-0.12,0.18-0.24,0.26-0.36C61.54,32.87,61.46,32.99,61.23,33.01z"/>
	<path class="st15" d="M56.78,36.08c0.07-0.04,0.15-0.08,0.22-0.11C56.97,36.08,56.9,36.12,56.78,36.08z"/>
	<path class="st14" d="M44.77,43.69c-0.04-0.06-0.09-0.12-0.13-0.17c0.1-0.06,0.19-0.05,0.23,0.07
		C44.83,43.63,44.8,43.66,44.77,43.69z"/>
	<path class="st15" d="M57.91,35.08c0.04-0.05,0.08-0.09,0.12-0.14C58,34.98,57.95,35.03,57.91,35.08z"/>
	<path class="st14" d="M51.55,43.54c-0.03-0.02-0.06-0.04-0.1-0.07c0.03,0.02,0.05,0.04,0.08,0.06
		C51.53,43.54,51.55,43.54,51.55,43.54z"/>
	<path class="st3" d="M42.56,15.37c0,0,0,0.03,0,0.03c-0.13,0.07-0.18,0.15-0.06,0.27c0,0.26,0,0.52,0,0.79
		c-0.19,0.4,0.05,0.64,0.31,0.88c0,0-0.01-0.01-0.01-0.01c0.02,0.43,0.29,0.72,0.52,1.05c0,0-0.01-0.01-0.01-0.01
		c0.07,0.27,0.16,0.53,0.22,0.8c0.09,0.42,0.34,0.83,0.16,1.28c-0.56-0.52-1.12-1.03-1.68-1.55c0.02-0.54,0.01-1.07-0.11-1.6
		c-0.11-0.47-0.06-0.93,0.11-1.39c0-0.03,0-0.07,0-0.1c0,0,0-0.01,0-0.01c0.16-0.15,0.25-0.32,0.23-0.54c0,0,0,0,0,0
		c0.04-0.05,0.08-0.1,0.13-0.15c0,0,0-0.03,0-0.03C42.42,15.18,42.49,15.27,42.56,15.37z"/>
	<path class="st3" d="M53.16,15.16c0,0,0,0.03,0,0.03c-0.01,0.14,0.06,0.24,0.16,0.32c0.3,0.59,0.41,1.2,0.18,1.84
		c-0.43,0.51-0.16,1.11-0.24,1.67c-0.48,0.48-1.02,0.88-1.44,1.42c-0.2-0.28-0.09-0.55-0.02-0.84c0.15-0.66,0.57-1.22,0.65-1.9
		c0,0,0,0.01,0,0.01c0.14-0.03,0.16-0.14,0.14-0.26c0,0,0,0.01,0,0.01c0.24-0.11,0.32-0.36,0.36-0.57c0.1-0.52,0.11-1.05,0-1.57
		C52.88,15.05,53,15.11,53.16,15.16z"/>
	<path class="st13" d="M50.53,20.71c-0.64,0.58-1.15,1.26-1.46,2.08c-0.09,0.25-0.21,0.32-0.48,0.23c-0.56-0.19-1.14-0.18-1.71-0.02
		c-0.27,0.08-0.41,0.08-0.52-0.24c-0.29-0.8-0.79-1.46-1.4-2.04c0.57-0.02,0.81,0.45,1.12,0.77c1.1,1.13,2.17,1.14,3.26,0
		C49.68,21.15,49.96,20.71,50.53,20.71z"/>
	<path class="st12" d="M42.01,18.91c0.56,0.52,1.12,1.03,1.68,1.55c0.05,0.11,0.15,0.11,0.25,0.13c0.04,0.14,0.08,0.29,0.12,0.43
		c-0.03,0.14-0.03,0.29-0.17,0.38c-0.2-0.02-0.28-0.18-0.37-0.32c-0.74-1.15-1.76-1.99-2.92-2.68
		C41.14,18.34,41.49,18.87,42.01,18.91z"/>
	<path class="st12" d="M51.82,20.45c0.41-0.54,0.96-0.94,1.44-1.42c0.13,0.01,0.24,0.05,0.27,0.2c-0.73,0.69-1.3,1.51-1.96,2.26
		c-0.07-0.15-0.13-0.29-0.2-0.44c0.05-0.15,0.1-0.3,0.15-0.46C51.64,20.57,51.76,20.58,51.82,20.45z"/>
	<path class="st13" d="M43.89,21.39c0.14-0.09,0.14-0.24,0.17-0.38c0.38,0.13,0.39,0.67,0.82,0.74c0.14,0.44,0,0.83-0.22,1.34
		C44.39,22.45,43.98,22,43.89,21.39z"/>
	<path class="st13" d="M51.37,21.05c0.07,0.15,0.13,0.29,0.2,0.44c-0.23,0.5-0.47,0.99-0.73,1.54c-0.38-0.42-0.3-0.86-0.28-1.29
		C51.01,21.72,50.99,21.15,51.37,21.05z"/>
	<path class="st3" d="M51.82,20.45c-0.06,0.14-0.18,0.12-0.29,0.15c0-1.06,0.34-2.01,0.92-2.89c-0.08,0.68-0.49,1.24-0.65,1.9
		C51.73,19.9,51.62,20.17,51.82,20.45z"/>
	<path class="st3" d="M53.16,15.16c-0.16-0.05-0.28-0.12-0.22,0.17c0.11,0.52,0.1,1.05,0,1.57c-0.04,0.21-0.13,0.45-0.36,0.57
		c0.1-0.28,0.21-0.56,0.29-0.84c0.23-0.8-0.02-1.47-0.67-2.1C52.69,14.61,52.98,14.8,53.16,15.16z"/>
	<path class="st3" d="M53.52,19.23c-0.03-0.15-0.14-0.19-0.27-0.2c0.08-0.56-0.19-1.16,0.24-1.67c-0.03,0.36-0.07,0.72-0.08,1.08
		c-0.02,0.33,0.08,0.49,0.44,0.29c0.2-0.11,0.39-0.34,0.68-0.2C54.2,18.76,53.86,18.99,53.52,19.23z"/>
	<path class="st3" d="M43.94,20.58c-0.1-0.02-0.2-0.02-0.25-0.13c0.18-0.46-0.06-0.86-0.16-1.28c-0.06-0.27-0.14-0.54-0.22-0.8
		C43.76,19.04,43.9,19.8,43.94,20.58z"/>
	<path class="st3" d="M42.56,15.37c-0.07-0.09-0.14-0.19-0.2-0.28c0.13-0.25,0.32-0.41,0.75-0.46
		C42.88,14.93,42.72,15.15,42.56,15.37z"/>
	<path class="st3" d="M43.33,18.38c-0.23-0.32-0.5-0.62-0.52-1.05C43.09,17.63,43.27,17.97,43.33,18.38z"/>
	<path class="st3" d="M42.81,17.34c-0.26-0.24-0.5-0.49-0.31-0.88C42.6,16.75,42.71,17.04,42.81,17.34z"/>
	<path class="st3" d="M42.24,15.26c0.02,0.22-0.07,0.39-0.23,0.54C42,15.59,42.05,15.4,42.24,15.26z"/>
	<path class="st3" d="M53.31,15.52c-0.1-0.08-0.17-0.18-0.16-0.32C53.3,15.26,53.34,15.37,53.31,15.52z"/>
	<path class="st9" d="M37.49,15.43c-0.03,0.05-0.05,0.11-0.08,0.16c-0.01-0.01-0.04-0.04-0.04-0.04c0.02-0.05,0.06-0.1,0.08-0.15
		C37.46,15.4,37.49,15.43,37.49,15.43z"/>
	<path class="st3" d="M42.5,15.67c-0.13-0.12-0.07-0.2,0.06-0.27C42.54,15.49,42.52,15.58,42.5,15.67z"/>
	<path class="st3" d="M52.58,17.46c0.02,0.12,0,0.23-0.14,0.26C52.44,17.61,52.47,17.51,52.58,17.46z"/>
	<polygon class="st10" points="57.98,15.5 57.97,15.45 58,15.46 	"/>
	<path class="st9" d="M37.46,15.4c0.03-0.06,0.06-0.11,0.09-0.17c0.03,0.03,0.06,0.06,0.08,0.08c-0.05,0.04-0.1,0.08-0.14,0.12
		C37.49,15.43,37.46,15.4,37.46,15.4z"/>
	<path class="st9" d="M37.76,15.18c-0.04,0.04-0.08,0.09-0.12,0.13c-0.03-0.03-0.06-0.05-0.08-0.08c0.04-0.05,0.08-0.09,0.12-0.13
		C37.7,15.12,37.73,15.15,37.76,15.18z"/>
	<path class="st17" d="M55.4,18.29c0.02,0.02,0.03,0.03,0.04,0.04c-0.03,0.01-0.05,0.03-0.08,0.04c-0.01,0-0.03-0.02-0.04-0.04
		C55.35,18.32,55.38,18.3,55.4,18.29z"/>
	<path class="st9" d="M36.81,17.47c0.03-0.01,0.05-0.03,0.08-0.04c-0.01,0.03-0.02,0.06-0.04,0.09
		C36.84,17.5,36.83,17.48,36.81,17.47z"/>
	<path class="st3" d="M42.36,15.12c-0.04,0.05-0.08,0.1-0.13,0.15C42.24,15.19,42.27,15.13,42.36,15.12z"/>
	<path class="st3" d="M42.01,15.81c0,0.03,0,0.07,0,0.1c-0.01-0.03-0.03-0.05-0.04-0.08C41.96,15.83,41.99,15.82,42.01,15.81z"/>
	<path class="st8" d="M36.59,23.23c0.11-0.1,0.22-0.25,0.34-0.03c0.37,0.72,0.99,1.25,1.45,1.9c-0.5,0.47-0.8,1.04-0.88,1.73
		c-0.08,0.62-0.24,1.22-0.78,1.63c0-0.02,0-0.04,0-0.06c-0.07-0.35,0.15-0.87-0.18-1.01c-0.34-0.14-0.68,0.28-0.98,0.52
		c-0.41,0.32-0.75,0.72-1,1.17c-0.23,0.42-0.38,0.29-0.57-0.01c-0.3-0.46-0.47-0.95-0.49-1.55c0.31,0.06,0.58,0.25,0.85-0.11
		c0.9-1.22,1.63-2.53,2.23-3.92C36.6,23.41,36.58,23.32,36.59,23.23z"/>
	<path class="st3" d="M36.71,28.46c0.54-0.41,0.7-1,0.78-1.63c0.09-0.69,0.39-1.26,0.88-1.73c0.8,0.48,1.56,1.03,2.5,1.21
		c0.12,0.02,0.08,0.13,0.08,0.21c-0.71,0.3-1.43,0.39-2.19,0.22c-0.18-0.04-0.09,0.07-0.09,0.14c0.25,0.59,0.81,0.79,1.3,1.09
		c-0.26,0.58-0.3,1.19-0.2,1.81c-0.06,0.08-0.12,0.16-0.18,0.24c-0.24-0.74-0.26-0.75-0.8-0.22c-1.1,1.06-1.32,1.01-1.84-0.47
		c-0.08-0.24-0.16-0.48-0.24-0.72C36.72,28.57,36.72,28.51,36.71,28.46z"/>
	<path class="st8" d="M37.81,14.59c0.04-0.04,0.09-0.08,0.14-0.01c0.01,0.01-0.04,0.06-0.06,0.09
		C37.87,14.64,37.84,14.61,37.81,14.59z"/>
	<path class="st8" d="M57.11,25.01c0.53-0.57,1.04-1.16,1.44-1.83c0.08,0,0.17,0.01,0.25,0.01l0,0c0.56,1.55,1.34,2.97,2.38,4.25
		c0.05,0.07,0.12,0.17,0.19,0.17c1.14,0.03,0.33,0.67,0.32,1.04c0,0.14-0.12,0.27-0.2,0.4c-0.2,0.35-0.38,0.42-0.63,0.01
		c-0.38-0.63-0.89-1.16-1.53-1.55c-0.31-0.18-0.56-0.3-0.54,0.25c0.01,0.23-0.07,0.47-0.11,0.7c-0.41-0.36-0.64-0.84-0.68-1.35
		C57.94,26.3,57.55,25.65,57.11,25.01z"/>
	<path class="st3" d="M57.11,25.01c0.44,0.64,0.83,1.29,0.9,2.11c0.04,0.51,0.28,0.99,0.68,1.35c0,0.05,0,0.1,0,0.15
		c-0.15,0.61-0.36,1.19-0.68,1.73c-0.17,0.28-0.35,0.41-0.66,0.12c-0.38-0.37-0.81-0.69-1.25-1.07c-0.2,0.25-0.13,0.61-0.4,0.79
		c-0.01-0.25-0.02-0.5-0.02-0.75c0.08-0.51,0-1-0.24-1.46c0.43-0.35,1-0.53,1.3-1.05c-0.18-0.26-0.43-0.07-0.64-0.08
		c-0.58-0.01-1.14-0.02-1.71-0.48C55.48,26.14,56.33,25.63,57.11,25.01z"/>
	<path class="st18" d="M58.93,23.19c0.23-0.18,0.28-0.46,0.42-0.69c0.36,0.57,0.46,1.22,0.69,1.98
		C59.61,23.97,59.27,23.58,58.93,23.19z"/>
	<path class="st8" d="M57.39,14.52c-0.05-0.03-0.18,0.01-0.15-0.09c0.03-0.07,0.13-0.02,0.18,0.05
		C57.43,14.48,57.39,14.52,57.39,14.52z"/>
	<path class="st8" d="M60.79,18.49c0.01,0.03,0.02,0.07,0.04,0.1c-0.03-0.01-0.07-0.02-0.1-0.03
		C60.74,18.54,60.77,18.52,60.79,18.49z"/>
	<path class="st13" d="M39.99,27.97c-0.49-0.3-1.05-0.51-1.3-1.09c0.27,0.09,0.46,0.35,0.78,0.31c0.04,0.09,0.12,0.12,0.21,0.11
		c0.08,0.03,0.15,0.05,0.23,0.08c0.31,0.11,0.62,0.11,0.94,0.08c0.13-0.01,0.25-0.02,0.38-0.03c0.6-0.01,1.07-0.37,1.64-0.64
		c0,0.57,0,1.09,0,1.78c0.91-0.77,1.84-1.24,2.87-1.5c0.28-0.27,0.45,0.08,0.67,0.12l-0.01-0.01c-1.04,0.64-2.1,1.25-2.92,2.32
		c-0.03-0.26-0.04-0.39-0.05-0.51c0.01-0.01,0.03-0.03,0.04-0.04c-0.01,0.02-0.02,0.03-0.03,0.05c-0.42,0.27-0.82,0.51-0.95-0.26
		c-0.03-0.17-0.15-0.25-0.32-0.26C41.4,28.46,40.7,28.18,39.99,27.97z"/>
	<path class="st10" d="M56.74,26.91c-0.29,0.52-0.87,0.7-1.3,1.05c-0.7,0.22-1.38,0.49-2.12,0.51c-0.34,0.01-0.33,0.28-0.42,0.48
		c-0.14,0.31-0.26,0.54-0.62,0.18c-0.3-0.29-0.27,0-0.26,0.2c-0.03,0.03-0.05,0.05-0.08,0.08c-0.79-0.94-1.8-1.59-2.84-2.21
		l0.03-0.03c0.15-0.18,0.34-0.14,0.53-0.1c1.05,0.23,1.99,0.7,2.86,1.45c0.18-0.59,0.04-1.13,0.08-1.74
		C53.98,27.71,55.36,27.71,56.74,26.91z"/>
	<path class="st13" d="M55.68,29.43c0.01,0.25,0.02,0.5,0.02,0.75c-0.01,0.05-0.04,0.07-0.09,0.08
		C55.55,29.98,55.58,29.7,55.68,29.43z"/>
	<path class="st10" d="M52.02,29.34c0.05,0.05,0.08,0.1,0.01,0.15c-0.01,0.01-0.06-0.04-0.09-0.07
		C51.96,29.39,51.99,29.36,52.02,29.34z"/>
	<polygon class="st13" points="43.36,29.6 43.35,29.56 43.38,29.57 	"/>
	<path class="st7" d="M53.3,30.35c0-0.06-0.03-0.14-0.01-0.16c0.07-0.05,0.1,0.02,0.12,0.08C53.37,30.3,53.33,30.33,53.3,30.35z"/>
	<path class="st13" d="M46.4,27.19c0.01-0.02,0.02-0.04,0.03-0.06C46.42,27.15,46.41,27.17,46.4,27.19
		C46.4,27.18,46.4,27.19,46.4,27.19z"/>
	<path class="st10" d="M49.1,27.21c-0.03-0.02-0.07-0.07-0.07-0.07c0.07-0.09,0.08-0.01,0.1,0.04C49.13,27.18,49.1,27.21,49.1,27.21
		z"/>
	<path class="st10" d="M62.82,21.25c0.02,0,0.05,0,0.07,0c-0.01,0.01-0.02,0.02-0.03,0.02c-0.01-0.01-0.03-0.02-0.04-0.04
		C62.83,21.23,62.82,21.25,62.82,21.25z"/>
	<path class="st6" d="M41.23,22.54c1.3,0.64,2.3,1.61,3.27,2.89c-0.89-0.27-1.65-0.38-2.33-0.75C41.76,24,41.16,23.41,41.23,22.54z"
		/>
	<path class="st6" d="M53.36,24.66c-0.71,0.35-1.48,0.51-2.4,0.75c0.92-1.19,1.86-2.12,3.06-2.77c0.32,0.23,0.1,0.49,0.04,0.74
		C53.94,23.87,53.48,24.18,53.36,24.66z"/>
	<path class="st6" d="M41.23,22.54c-0.06,0.87,0.54,1.46,0.93,2.13c-1.48-0.24-1.69-0.64-1.8-2.2c-0.02-0.33,0.13-0.37,0.38-0.22
		C40.9,22.35,41.06,22.45,41.23,22.54z"/>
	<path class="st6" d="M53.36,24.66c0.12-0.49,0.58-0.79,0.7-1.28c0.06-0.25,0.29-0.51-0.04-0.74c0.27-0.25,0.62-0.34,0.94-0.49
		C55.31,23.62,54.82,24.37,53.36,24.66z"/>
	<path class="st10" d="M58.81,23.19c-0.08,0-0.17-0.01-0.25-0.01C58.65,22.97,58.73,23,58.81,23.19z"/>
	<path class="st11" d="M43.43,29c0.01-0.02,0.02-0.03,0.03-0.05C43.45,28.96,43.43,28.98,43.43,29C43.42,28.99,43.43,29,43.43,29z"
		/>
	<g>
		<path class="st1" d="M62.46,36.5c-0.08-0.44-0.18-0.1-0.24,0c-1.06,1.66-2.3,3.16-3.83,4.41c-0.98,0.81-2.02,1.5-3.28,2
			c0.08-0.56,0.46-0.96,0.49-1.61c-1.43,1.74-3.03,3.03-5.03,3.82c0.32-0.53,0.64-1.06,0.96-1.59c-0.03-0.02-0.06-0.04-0.08-0.06
			c0.03,0.02,0.06,0.04,0.1,0.07c-0.2-0.16-0.31,0.03-0.44,0.13c-0.63,0.52-1.35,0.9-2.05,1.32c-0.68,0.41-1.28,0.4-1.97,0.01
			c-0.77-0.43-1.49-0.93-2.22-1.4c-0.04-0.13-0.13-0.13-0.23-0.07c0.04,0.06,0.09,0.12,0.13,0.17c0.22,0.43,0.44,0.86,0.66,1.29
			c-0.04,0.04-0.08,0.08-0.12,0.12c-1.81-0.81-3.26-2.09-4.6-3.53c-0.04,0.04-0.09,0.07-0.13,0.11c0.15,0.36,0.3,0.71,0.51,1.22
			c-1.7-0.63-2.98-1.65-4.2-2.77c-1.21-1.12-2.17-2.46-3.16-3.78c-0.02,0.54,0.37,0.98,0.24,1.59c-3.07-3.52-5.01-7.49-5.53-12.1
			c-0.12-0.11-0.16,0.01-0.22,0.05c-0.05,0.03-0.09,0.06-0.16,0.11C28,25.63,28,25.29,28.08,24.96c0.36-1.51,1.33-2.68,2.23-3.89
			c0.63-0.84,1.31-1.65,1.79-2.59c0.36-0.7,0.41-1.35-0.04-2.06c-0.88-1.39-1.01-2.98-1.19-4.69c-0.17,0.27-0.34,0.53-0.51,0.8
			c0.08-2.68,2.03-5.5,6.69-5.99c0.04-0.24-0.32-0.2-0.31-0.46c1.97-0.16,3.74,0.33,5.26,1.61c0.4,0.33,0.8,0.66,1.15,1.04
			c1.24,1.36,2.74,2.2,4.59,2.36c-0.02,0.06-0.07,0.15-0.05,0.18c0.3,0.35,1.45,0.13,1.67-0.32c1.56-0.33,2.73-1.27,3.82-2.38
			c1.02-1.04,2.16-1.89,3.6-2.28c0.87-0.23,1.74-0.26,2.62-0.24c0.05,0.27-0.31,0.22-0.29,0.48c3.57,0.42,6.15,2.03,6.89,6.03
			c-0.35-0.33-0.58-0.54-0.88-0.82c-0.02,1.95-0.3,3.74-1.39,5.31c-0.07-0.01-0.16-0.06-0.16,0.07c0,0.01,0.1,0.01,0.15,0.01
			c0,0.13,0,0.25,0,0.38c-0.54,0.39-0.09,0.78,0.08,1.08c0.73,1.33,1.66,2.53,2.57,3.74c0.35,0.47,0.68,0.93,0.94,1.45
			c0.29,0.57,0.18,1.01-0.31,1.39c-0.23,0.17-0.36,0.38-0.44,0.68c-0.3,1.14-0.45,2.27,0.12,3.37c0.06,0.11,0,0.21-0.1,0.28
			c-0.57-0.26-1.17-0.65-1.8-0.43c-0.56,0.2-1.15,0.32-1.7,0.56c-0.02-0.27,0.1-0.37,0.38-0.4c0.37-0.03,0.7-0.19,1.03-0.37
			c0.16-0.09,0.33-0.22,0.24-0.4c-0.4-0.82,0.35-1.71-0.19-2.52c-0.03-0.04,0.03-0.16,0.08-0.23c0.3-0.47,0.16-0.86-0.24-1.19
			c-0.89-0.73-1.23-1.67-1.17-2.8c0.01-0.26-0.01-0.52,0-0.78c0.01-0.28-0.13-0.39-0.4-0.38c-0.13-0.18-0.14-0.38-0.15-0.59
			c0.16-0.57-0.06-1.21-0.52-1.47l0,0c0.15-0.44,0.18-0.82-0.43-0.9c-0.04-0.08-0.09-0.17-0.13-0.25c0.06-0.04,0.15-0.08,0.11-0.18
			c-0.05-0.11-0.16-0.08-0.26-0.08c-0.07-0.13-0.15-0.26-0.22-0.4c0.28-0.38-0.05-0.36-0.27-0.4c-0.1-0.21-0.36-0.33-0.37-0.59
			c0.02-0.03,0.04-0.05,0.06-0.08c-0.02,0.02-0.05,0.05-0.07,0.07c-0.24,0-0.29-0.23-0.41-0.36c-0.95-1-2.05-1.75-3.41-2.06
			c-1.3-0.3-2.6-0.38-3.89,0.1c-0.17-0.07-0.41,0.18-0.51-0.02c-0.1-0.18,0.11-0.35,0.24-0.48c0.56-0.58,1.26-0.95,1.96-1.33
			c0.28-0.15,0.64-0.19,0.93-0.52c-2.22,0.18-4.32,0.45-6.22,1.55c-0.98,0.57-2.03,0.61-3.01,0.04c-1.14-0.65-2.35-1.03-3.62-1.28
			c-0.44-0.09-0.89-0.14-1.34-0.19c-0.42-0.05-0.84-0.07-1.26-0.1c1.16,0.69,2.42,1.14,3.21,2.41c-0.31-0.04-0.52-0.06-0.73-0.08
			c-0.02-0.03-0.04-0.09-0.07-0.1c-1.94-0.39-3.83-0.33-5.55,0.76c-2.6,1.65-3.73,4.23-4.33,7.12c0,0.02,0.05,0.04,0.07,0.07
			c0.5-0.52,0.93-1.14,1.82-1.33c-0.82,1.84-0.8,3.67-0.78,5.5c-0.44-0.83-0.7-1.7-0.82-2.64c-1.2,1.07-2.01,3.82-1.65,5.57
			c0.41-0.48,0.69-1.06,1.38-1.27c-0.16,2.45,0.4,4.62,2.16,6.49c0.08-1.44,0.22-2.74,1.03-3.85c0.14,2.49,0.76,4.76,2.81,6.35
			c0-0.81-0.01-1.6,0-2.39c0.01-0.8-0.01-1.62,0.36-2.39c0.26,0.56,0.16,1.24,0.69,1.65c0.12,0.15,0.09,0.43,0.39,0.48
			c-0.04-0.57,0.2-1.05,0.43-1.54c0.45-0.61,0.94-1.18,1.67-1.68c-0.1,0.82-0.47,1.46-0.39,2.18c-0.53,2.33,0.72,3.92,3.16,3.74
			c0.69-0.05,1.3-0.29,1.55-0.97c0.28-0.77,0.06-1.49-0.5-2.08c-0.51-0.53-1.12-0.58-1.77-0.28c-0.12-0.08-0.25-0.16-0.37-0.25
			c0.38-0.03,0.24-0.15,0.06-0.3c-0.16-0.13-0.25-0.3-0.12-0.5c0.08-0.12,0.18-0.25,0.35-0.24c0.26,0.01,0.18,0.24,0.22,0.39
			c0.06,0.22,0.19,0.22,0.32,0.09c0.05-0.05,0.5-0.13,0.03-0.26c1.41-0.79,2.92-0.87,4.47-0.58c0.01,0.08,0,0.2,0.04,0.24
			c0.58,0.46,1.42,0.46,2.02,0c0.08-0.06,0.18-0.12,0.26-0.17c0.04,0.04,0.07,0.08,0.11,0.11c0.23,0.39,0.3,0.74-0.11,1.08
			c-0.13,0.1,0.09,0.11,0.16,0.14c-0.07,0.12-0.19,0.13-0.31,0.14c-0.12-0.02-0.25-0.04-0.37-0.05c-1.07-0.1-1.89,0.55-2.07,1.63
			c-0.14,0.89,0.39,1.69,1.32,1.83c2.37,0.34,4.01-0.99,3.51-3.59c0.05-0.74-0.26-1.41-0.43-2.11c0.04-0.03,0.07-0.06,0.11-0.09
			c0.66,0.38,1.1,0.97,1.54,1.57c0.25,0.42,0.44,0.87,0.46,1.37c0.02,0.45,0.17,0.07,0.27,0.05c0.45,0,0.43-0.33,0.42-0.63l0,0
			c0.19-0.03,0.21-0.33,0.46-0.3c0.2,0.75,0.26,1.5,0.1,2.27c-0.08,0.4-0.12,0.85,0.05,1.26c0.02,0.08,0.05,0.16,0.07,0.23
			c0.11,0.04,0.19,0,0.22-0.11c0.3-0.3,0.61-0.59,0.91-0.89c0.04-0.05,0.08-0.09,0.12-0.14l-0.01,0c0.26,0,0.27-0.18,0.27-0.38l0,0
			c0.6-0.29,0.93-0.95,0.87-1.75c0.01-0.06,0.02-0.13,0.04-0.19c0.21-0.13,0.37-0.27,0.14-0.52c0.04-0.13,0.07-0.27,0.11-0.4
			c0.14-0.01,0.27-0.06,0.26-0.21c-0.05-0.5,0.23-0.53,0.6-0.45c0.29,0.78,0.35,1.59,0.37,2.49c0.23-0.22,0.4-0.37,0.56-0.53
			c0.23-0.02,0.31-0.14,0.26-0.36c0.04-0.06,0.08-0.12,0.12-0.18c0.51,0.03,0.5-0.64,0.91-0.71c0.56-0.1,0.57-0.48,0.56-0.9
			c-0.01-0.32,0-0.64,0-0.96c0.31,0.05,0.25,0.3,0.26,0.5c0,0.51,0,1.03,0,1.54c0,0.45,0.22,0.69,0.67,0.66
			c0.47-0.03,0.93-0.08,1.4-0.12c-0.06,0.28-0.55,0.24-0.46,0.63c0.07,0.32-0.14,0.56-0.25,0.83c-0.2,0.53-0.76,0.91-0.68,1.56
			c0,0,0,0,0,0c-0.64-0.01-0.61,0.47-0.65,0.9C63.08,36.46,62.75,36.32,62.46,36.5z M45.24,37.41c-0.17,0.11-0.47,0.21-0.29,0.45
			c0.3,0.42,0.71,0.95,1.15,0.97c0.75,0.03,1.5,0.2,2.27,0.1c0.77-0.1,1.49-0.2,1.97-0.89c0.14-0.2,0.36-0.36-0.03-0.51
			C49.05,36.56,46.81,36.51,45.24,37.41z"/>
		<path class="st1" d="M64.03,35.51c-0.08-0.65,0.47-1.03,0.68-1.56c0.11-0.28,0.32-0.51,0.25-0.83c-0.09-0.39,0.4-0.35,0.46-0.63
			c0.53-0.94,0.86-1.95,1.16-2.98c0.09-0.07,0.15-0.17,0.1-0.28c-0.58-1.11-0.42-2.23-0.12-3.37c0.08-0.3,0.21-0.51,0.44-0.68
			c0.49-0.38,0.59-0.82,0.31-1.39c-0.26-0.52-0.59-0.98-0.94-1.45c-0.9-1.21-1.83-2.42-2.57-3.74c-0.16-0.3-0.61-0.69-0.08-1.08
			c0.05,0.16,0.11,0.32,0.16,0.48c0.33,1.13,1.13,1.96,1.8,2.87c0.69,0.93,1.42,1.84,1.94,2.88c0.34,0.68,0.56,1.39,0.5,2.23
			c-0.39-0.3-0.45-0.16-0.5,0.25C67.23,29.63,66.01,32.72,64.03,35.51z"/>
		<path class="st1" d="M62.46,36.5c0.29-0.18,0.62-0.04,0.93-0.09c-0.15,0.23-0.3,0.46-0.45,0.69c-0.24,0.25-0.48,0.49-0.71,0.74
			c-0.04-0.03-0.07-0.07-0.11-0.1c0.07-0.25,0.15-0.5,0.22-0.75c0.08-0.01,0.15-0.01,0.23-0.02c-0.07-0.03-0.13-0.06-0.2-0.09
			C62.4,36.75,62.43,36.63,62.46,36.5z"/>
		<path class="st1" d="M49.35,10.95c-0.23,0.45-1.37,0.67-1.67,0.32c-0.02-0.03,0.03-0.12,0.05-0.18c0.24,0,0.48,0,0.72,0.01
			c0.14,0.22,0.23,0.18,0.28-0.06C48.94,11.01,49.14,10.98,49.35,10.95z"/>
		<path class="st1" d="M62.37,36.88c0.07,0.03,0.13,0.06,0.2,0.09c-0.08,0.01-0.15,0.01-0.23,0.02
			C62.32,36.94,62.33,36.91,62.37,36.88z"/>
		<path class="st1" d="M63.73,17.14c-0.05,0-0.15-0.01-0.15-0.01c0-0.14,0.09-0.08,0.16-0.07C63.73,17.08,63.72,17.11,63.73,17.14z"
			/>
		<path class="st1" d="M62.22,37.83c-0.03,0.06-0.08,0.11-0.14,0.05c-0.02-0.02,0.02-0.1,0.03-0.15
			C62.15,37.77,62.19,37.8,62.22,37.83z"/>
		<path class="st1" d="M63.39,36.41c0.04-0.43,0.02-0.9,0.65-0.9C63.82,35.81,63.6,36.11,63.39,36.41z"/>
		<path class="st1" d="M62.82,21.25c0.14-0.22-0.06-0.44,0-0.66c0.26-0.01,0.4,0.09,0.4,0.38c-0.01,0.26,0.01,0.52,0,0.78
			c-0.06,1.12,0.28,2.07,1.17,2.8c0.4,0.33,0.54,0.71,0.24,1.19c-0.04,0.07-0.11,0.19-0.08,0.23c0.54,0.8-0.21,1.7,0.19,2.52
			c0.09,0.18-0.08,0.31-0.24,0.4c-0.32,0.18-0.66,0.34-1.03,0.37c-0.27,0.02-0.4,0.13-0.38,0.4c0,0.09,0,0.17,0,0.26
			c0,0.32-0.01,0.64,0,0.96c0.01,0.43-0.01,0.81-0.56,0.9c-0.41,0.07-0.4,0.73-0.91,0.71c0.99-1.65,1.42-3.44,1.19-5.42
			c0.72,0.22,1.03,0.8,1.51,1.41c0.14-2.2-0.35-4.04-1.69-5.77c-0.2,0.96-0.33,1.82-0.85,2.55c0.11-1.81-0.05-3.57-0.78-5.34
			c0.88,0.15,1.29,0.84,1.83,1.32c0.01,0.01,0.02,0.03,0.04,0.04c0,0,0.02-0.01,0.03-0.02C62.87,21.25,62.85,21.25,62.82,21.25z"/>
		<path class="st1" d="M63.09,29.9c0-0.09,0-0.17,0-0.26c0.55-0.24,1.13-0.35,1.7-0.56c0.63-0.23,1.22,0.17,1.8,0.43
			c-0.31,1.02-0.64,2.04-1.16,2.98c-0.47,0.04-0.93,0.1-1.4,0.12c-0.45,0.02-0.67-0.21-0.67-0.66c0-0.51,0-1.03,0-1.54
			C63.34,30.2,63.4,29.96,63.09,29.9z"/>
		<path class="st1" d="M43.82,32.53c-0.62-0.38-0.51-0.96-0.43-1.73c0.26,0.58,0.44,0.47,0.74,0.2c2.12-1.94,5.57-1.85,7.36,0.18
			c-0.09,0.06-0.18,0.11-0.26,0.17c-0.6,0.46-1.44,0.46-2.02,0c-0.05-0.04-0.03-0.16-0.04-0.24c0.52,0.05,1.01,0.26,1.56,0.52
			c-0.04-0.17-0.04-0.26-0.08-0.32c-1.13-1.46-5.06-1.3-6.12,0.25c-0.12,0.18,0.1,0.09,0.16,0.12c0.47,0.13,0.01,0.22-0.03,0.26
			c-0.13,0.13-0.26,0.13-0.32-0.09c-0.04-0.15,0.04-0.37-0.22-0.39c-0.17-0.01-0.27,0.12-0.35,0.24c-0.13,0.2-0.04,0.37,0.12,0.5
			C44.06,32.38,44.2,32.5,43.82,32.53z"/>
		<path class="st1" d="M51.59,31.29c0.29,0.08,0.25-0.29,0.5-0.34c0.04,0.59,0.18,1.18-0.45,1.57c-0.07-0.04-0.29-0.04-0.16-0.14
			C51.89,32.03,51.82,31.68,51.59,31.29z"/>
		<path class="st1" d="M62.68,20c-0.17-0.49-0.35-0.98-0.52-1.47C62.61,18.79,62.84,19.43,62.68,20z"/>
		<path class="st1" d="M62.16,18.54c-0.14-0.3-0.28-0.6-0.43-0.9C62.34,17.72,62.31,18.1,62.16,18.54z"/>
		<path class="st1" d="M61.24,16.73c-0.09-0.13-0.18-0.27-0.27-0.4C61.19,16.37,61.51,16.35,61.24,16.73z"/>
		<path class="st1" d="M61.6,17.38c-0.05-0.09-0.1-0.17-0.15-0.26c0.09,0,0.21-0.03,0.26,0.08C61.76,17.3,61.66,17.34,61.6,17.38z"
			/>
		<path class="st1" d="M60.58,15.72c0.02-0.02,0.05-0.05,0.07-0.07c-0.02,0.03-0.04,0.05-0.06,0.08
			C60.6,15.73,60.58,15.72,60.58,15.72z"/>
		<path class="st1" d="M49.66,27.07c0.38,0,0.75,0,1.16,0c-0.79-1.51-5.09-1.65-6.24,0c0.43,0,0.79,0,1.15,0
			c-1.03,0.26-1.95,0.73-2.87,1.5c0-0.68,0-1.2,0-1.78c-0.57,0.27-1.04,0.63-1.64,0.64c-0.02-0.1-0.04-0.22-0.17-0.22
			c-0.18-0.01-0.19,0.12-0.21,0.25c-0.32,0.03-0.64,0.03-0.94-0.08c-0.04-0.33,0.05-0.51,0.43-0.47c0.27,0.02,0.57-0.02,0.62-0.39
			c0-0.08,0.04-0.19-0.08-0.21c-0.94-0.18-1.7-0.74-2.5-1.21c-0.46-0.65-1.08-1.18-1.45-1.9c-0.11-0.22-0.23-0.07-0.34,0.03
			c-0.52,0.14-0.61,0.78-1.13,1.01c0.35-1.23,0.8-2.34,1.47-3.38c0.43-0.65,1-0.91,1.73-0.93c0.52-0.02,1.03-0.03,1.55-0.04
			c0.37,0.07,0.73,0.24,1.19,0.18c-0.36-0.69-0.84-1.24-1.47-1.75c0.26-0.08,0.47-0.02,0.67,0.08c1.16,0.69,2.18,1.53,2.92,2.68
			c0.09,0.14,0.18,0.3,0.37,0.32c0.09,0.61,0.5,1.06,0.77,1.7c0.22-0.51,0.36-0.9,0.22-1.34c-0.05-0.29-0.09-0.58-0.14-0.88
			c-0.04-0.23,0.1-0.17,0.22-0.15c0.61,0.58,1.12,1.24,1.4,2.04c0.11,0.31,0.26,0.31,0.52,0.24c0.57-0.16,1.15-0.17,1.71,0.02
			c0.27,0.09,0.39,0.02,0.48-0.23c0.3-0.82,0.81-1.5,1.46-2.08c0.31,0.03,0.17,0.27,0.12,0.37c-0.11,0.22-0.12,0.43-0.09,0.66
			c-0.02,0.43-0.1,0.87,0.28,1.29c0.26-0.55,0.49-1.05,0.73-1.54c0.66-0.75,1.23-1.57,1.96-2.26c0.34-0.23,0.67-0.47,1.01-0.7
			c0.1-0.04,0.19-0.1,0.29-0.12c0.15-0.04,0.33-0.21,0.45-0.01c0.1,0.17-0.12,0.24-0.21,0.34c-0.38,0.4-0.75,0.8-1.01,1.33
			c0.46,0.09,0.85-0.13,1.26-0.17c0.51,0.02,1.03,0.03,1.54,0.05c0.7,0.03,1.28,0.27,1.65,0.92c0.31,0.54,0.69,1.03,0.85,1.64
			c-0.14,0.23-0.2,0.51-0.42,0.69l-0.06,0l-0.06,0.01l0,0c-0.07-0.19-0.16-0.21-0.25-0.01c-0.4,0.67-0.91,1.26-1.44,1.83
			c-0.79,0.62-1.63,1.13-2.73,1.35c0.57,0.46,1.13,0.48,1.71,0.48c0.21,0,0.46-0.19,0.64,0.08c-1.38,0.8-2.76,0.79-4.14-0.13
			c-0.05,0.62,0.1,1.15-0.08,1.74C51.65,27.77,50.71,27.3,49.66,27.07z M53.36,24.66c1.46-0.29,1.95-1.05,1.6-2.52
			c-0.33,0.15-0.67,0.25-0.94,0.49c-1.19,0.66-2.14,1.58-3.06,2.77C51.88,25.17,52.65,25.01,53.36,24.66z M41.23,22.54
			c-0.16-0.1-0.33-0.19-0.49-0.29c-0.26-0.15-0.41-0.11-0.38,0.22c0.11,1.57,0.32,1.96,1.8,2.2c0.68,0.37,1.45,0.48,2.33,0.75
			C43.52,24.16,42.52,23.18,41.23,22.54z"/>
		<path class="st1" d="M39.46,27.19c-0.32,0.04-0.51-0.23-0.78-0.31c0-0.06-0.09-0.18,0.09-0.14c0.75,0.17,1.48,0.08,2.19-0.22
			c-0.05,0.37-0.35,0.42-0.62,0.39c-0.39-0.03-0.47,0.15-0.43,0.47c-0.08-0.03-0.15-0.05-0.23-0.08
			C39.6,27.27,39.53,27.23,39.46,27.19z"/>
		<path class="st1" d="M41.22,27.44c-0.13,0.01-0.25,0.02-0.38,0.03c0.02-0.13,0.03-0.26,0.21-0.25
			C41.19,27.22,41.2,27.34,41.22,27.44z"/>
		<path class="st1" d="M39.46,27.19c0.07,0.04,0.14,0.08,0.21,0.11C39.58,27.31,39.51,27.28,39.46,27.19z"/>
	</g>
</g>
</svg>
